<?xml version="1.0" encoding="utf-8"?>
<!-- Generator: Adobe Illustrator 16.0.0, SVG Export Plug-In . SVG Version: 6.00 Build 0)  -->
<!DOCTYPE svg PUBLIC "-//W3C//DTD SVG 1.1//EN" "http://www.w3.org/Graphics/SVG/1.1/DTD/svg11.dtd">
<svg version="1.1" id="Layer_1" xmlns="http://www.w3.org/2000/svg" xmlns:xlink="http://www.w3.org/1999/xlink" x="0px" y="0px"
	 width="64px" height="64px" viewBox="0 0 64 64" enable-background="new 0 0 64 64" xml:space="preserve">
<g>
	<g>
		<path fill="#07A5A5" d="M63,47H1v10l0,0c1,2,14.7,4.1,31,4.1S61.6,59,62.6,57H63V47z"/>
		<path fill="#028184" d="M31.6,61.1C47.9,61.1,62,59,63,57l0,0V47H1"/>
		<path fill="#F9A035" d="M63,37H1v10l0,0c1,2,14.7,4.1,31,4.1S61.6,49,62.6,47H63V37z"/>
		<path fill="#ED5E0F" d="M31.5,51.1C47.8,51.1,62,49,63,47l0,0V37H1"/>
		<path fill="#D33CAC" d="M63,27L1,26.8V37l0,0c1,2,14.7,4.1,31,4.1S61.6,39,62.6,37H63V27z"/>
		<path fill="#AD1591" d="M31.8,41.1C48,41.1,62,39,63,37l0,0V26.8L1,27"/>
		<path fill="#F77FC7" d="M62.7,26.8c0,2.4-13.7,4.4-30.7,4.4s-31-2-31-4.4s14.1-4.4,31-4.4S62.7,24.3,62.7,26.8z"/>
		<path fill="#E260BA" d="M32,22.4c16.9,0,31,2,31,4.4s-14.1,4.3-31,4.3"/>
		<ellipse fill="#BA4A9D" cx="32" cy="25.3" rx="20.4" ry="2.9"/>
		<path fill="#A03589" d="M32,22.4c11.3,0,20.4,1.3,20.4,2.9c0,1.6-9.2,2.9-20.4,2.9"/>
	</g>
	<g>
		<path fill="#82C60A" d="M20.3,5.2L20.3,5.2L20.3,5.2L20.3,5.2c0.1,6.1-4.9,9.6-1.9,15.7c1.7,3.5,5.8,4.2,10.5,4.7l0,0l0.1,0v0
			c3-3.7,5.2-7.1,3.9-10.8C30.6,8.3,24.7,9.5,20.3,5.2z"/>
		<path fill="#5EA304" d="M28.9,25.5L28.9,25.5L28.9,25.5L28.9,25.5c3.1-3.7,5.3-7.2,4-10.8c-2.3-6.4-8.3-5.2-12.6-9.5l0,0l-0.1,0
			l0,0"/>
		<g>
			<polygon fill="#74B208" points="24.1,14.2 20,13.5 24.7,15.4 26.5,10.8 			"/>
			<polygon fill="#74B208" points="27,21 22.9,20.3 27.5,22.2 29.4,17.6 			"/>
			<polygon fill="#74B208" points="25.6,17.5 20.9,16.8 26.1,18.9 28.2,13.6 			"/>
		</g>
	</g>
	<g>
		<path fill="#82C60A" d="M7.2,18.3L7.2,18.3L7.2,18.3L7.2,18.3c3.7,3.4,3,8.3,8.2,9.9c3,0.9,5.7-1.1,8.6-3.7l0,0l0,0l0,0
			c-0.6-3.8-1.3-7.1-4.2-8.3C14.8,14,12.2,18.2,7.2,18.3z"/>
		<path fill="#5EA304" d="M24.1,24.5L24.1,24.5L24.1,24.5L24.1,24.5c-0.6-3.8-1.3-7.1-4.2-8.4c-5-2.2-7.7,2-12.6,2.2l0,0l0,0l0,0"/>
		<g>
			<polygon fill="#74B208" points="14.7,21.1 12,23.2 15.7,21.4 14,17.8 			"/>
			<polygon fill="#74B208" points="20.3,23.1 17.6,25.2 21.3,23.5 19.6,19.8 			"/>
			<polygon fill="#74B208" points="17.4,22.1 14.4,24.4 18.6,22.5 16.6,18.3 			"/>
		</g>
	</g>
	<g>
		<path fill="#AF0547" d="M40.9,20.4c0,5.8-4,4.9-8.9,4.9c-4.9,0-8.9,0.9-8.9-4.9s4-13,8.9-13C36.9,7.4,40.9,14.6,40.9,20.4z"/>
		<path fill="#84003C" d="M32,7.4c4.9,0,8.9,7.2,8.9,13s-4,4.9-8.9,4.9"/>
		<g>
			<ellipse fill="#5EA304" cx="32" cy="25.5" rx="4" ry="0.6"/>
		</g>
		<g>
			<path fill="#527C00" d="M32,24.9c2.2,0,4,0.3,4,0.6s-1.8,0.6-4,0.6"/>
		</g>
		
			<ellipse transform="matrix(0.6893 0.7245 -0.7245 0.6893 16.5936 -17.5598)" fill="#D12269" cx="28.8" cy="10.6" rx="1" ry="3.2"/>
		<g>
			<g>
				<circle fill="#680034" cx="27.3" cy="20" r="0.7"/>
				<circle fill="#680034" cx="26.1" cy="22.9" r="0.7"/>
				<circle fill="#680034" cx="29.5" cy="17.4" r="0.7"/>
				<circle fill="#680034" cx="27.1" cy="14.9" r="0.6"/>
				<circle fill="#680034" cx="25.6" cy="17.5" r="0.6"/>
				<circle fill="#680034" cx="30.4" cy="13.7" r="0.5"/>
				<circle fill="#680034" cx="28.5" cy="11.8" r="0.5"/>
				<circle fill="#680034" cx="30.7" cy="9.7" r="0.4"/>
				<circle fill="#680034" cx="30.3" cy="22.6" r="0.7"/>
			</g>
			<g>
				<circle fill="#C1145A" cx="36.7" cy="20" r="0.7"/>
				<circle fill="#C1145A" cx="37.9" cy="22.9" r="0.7"/>
				<circle fill="#C1145A" cx="34.5" cy="17.4" r="0.7"/>
				<circle fill="#C1145A" cx="36.9" cy="14.9" r="0.6"/>
				<circle fill="#C1145A" cx="38.4" cy="17.5" r="0.6"/>
				<circle fill="#C1145A" cx="33.6" cy="13.7" r="0.5"/>
				<circle fill="#C1145A" cx="35.5" cy="11.8" r="0.5"/>
				<circle fill="#C1145A" cx="33.3" cy="9.7" r="0.4"/>
				<circle fill="#C1145A" cx="33.7" cy="22.6" r="0.7"/>
			</g>
		</g>
	</g>
	<path fill="#C4B37E" d="M58,3.4c-1.7-0.8-3.6-0.5-4.3,0.9L43.4,24.9c0,0-0.1,0.1-0.1,0.1h7.7l8.9-17.8C60.6,5.9,59.7,4.3,58,3.4z"
		/>
	<path fill="#AA945E" d="M47,25c0,0-3.6,0-3.7,0h7.7l8.9-17.8c0.7-1.3-0.2-2.9-1.9-3.8"/>
	<polygon fill="#823061" points="50.8,10.1 58.5,10.1 60,7.1 52.3,7.1 	"/>
	<polyline fill="#680034" points="58.5,10.1 60,7.1 52.4,7.1 	"/>
	<polygon fill="#823061" points="48.4,15 56,15.1 57.5,12 49.9,12 	"/>
	<polyline fill="#680034" points="56.1,14.9 57.5,12 50,12 	"/>
	<polygon fill="#823061" points="45.9,20 53.6,20 55,17 47.4,17 	"/>
	<polyline fill="#680034" points="53.6,20 55,17 48,17 	"/>
	<polygon fill="#823061" points="51.1,25 52.6,22 44.9,22 43.3,25 	"/>
	<polyline fill="#680034" points="51.1,25 52.6,22 45,22 	"/>
	
		<ellipse transform="matrix(0.9955 -9.527929e-02 9.527929e-02 0.9955 -0.1368 5.3456)" fill="#D8CAA4" cx="55.9" cy="4.1" rx="1.6" ry="0.6"/>
	<ellipse transform="matrix(0.989 -0.1481 0.1481 0.989 -3.7858 1.2773)" fill="#F2C0E3" cx="6.7" cy="26.1" rx="3.8" ry="1.1"/>
	<path fill="#F2C0E3" d="M4,35.2C4,35.7,3.7,36,3.2,36H2.8C2.3,36,2,35.7,2,35.2v-5.5C2,29.3,2.3,29,2.8,29h0.5
		C3.7,29,4,29.3,4,29.8V35.2z"/>
	<path fill="#F7C937" d="M4,45.2C4,45.7,3.7,46,3.2,46H2.8C2.3,46,2,45.7,2,45.2v-5.5C2,39.3,2.3,39,2.8,39h0.5
		C3.7,39,4,39.3,4,39.8V45.2z"/>
	<path fill="#3EC6BF" d="M4,55.2C4,55.7,3.7,56,3.2,56H2.8C2.3,56,2,55.7,2,55.2v-5.5C2,49.3,2.3,49,2.8,49h0.5
		C3.7,49,4,49.3,4,49.8V55.2z"/>
</g>
</svg>
