<?xml version="1.0" encoding="utf-8"?>
<!-- Generator: Adobe Illustrator 16.0.0, SVG Export Plug-In . SVG Version: 6.00 Build 0)  -->
<!DOCTYPE svg PUBLIC "-//W3C//DTD SVG 1.1//EN" "http://www.w3.org/Graphics/SVG/1.1/DTD/svg11.dtd">
<svg version="1.1" id="Layer_1" xmlns="http://www.w3.org/2000/svg" xmlns:xlink="http://www.w3.org/1999/xlink" x="0px" y="0px"
	 width="64px" height="64px" viewBox="0 0 64 64" enable-background="new 0 0 64 64" xml:space="preserve">
<g>
	<path fill="#FF665A" d="M43.6,11.4c-3.9,0-7.9,1-11.6,2.7c-3.7-1.7-7.7-2.7-11.6-2.7c-11.8,0-17.7,9.2-17.7,20.5
		c0,11.3,12.1,30.9,23.9,30.9c1.9,0,3.7-0.5,5.4-1.5c1.7,0.9,3.5,1.5,5.4,1.5c11.8,0,23.9-19.6,23.9-30.9
		C61.3,20.5,55.4,11.4,43.6,11.4z"/>
	<path fill="#D6270F" d="M26.6,62.8c1.9,0,3.7-0.5,5.4-1.5c1.7,0.9,3.5,1.5,5.4,1.5c11.8,0,23.9-19.6,23.9-30.9
		c0-11.3-5.9-20.5-17.7-20.5c-3.9,0-7.9,1-11.6,2.7c-3.7-1.7-7.7-2.7-11.6-2.7"/>
	<path fill="#A50C00" d="M32,61.3c1.7,0.9,3.5,1.5,5.4,1.5c11.8,0,23.9-19.6,23.9-30.9c0-11.3-5.9-20.5-17.7-20.5
		c-3.9,0-7.9,1-11.6,2.7"/>
	<path fill="#FCF7C5" d="M41.8,16.5c-3.3,0-6.7,0.8-9.8,2.2c-3.1-1.4-6.5-2.2-9.8-2.2c-10,0-15,7.4-15,16.4
		c0,9.1,10.2,24.8,20.2,24.8c1.6,0,3.2-0.4,4.6-1.2c1.4,0.7,2.9,1.2,4.6,1.2c10,0,20.2-15.7,20.2-24.8
		C56.8,23.8,51.8,16.5,41.8,16.5z"/>
	<path fill="#EADFA0" d="M32,56.5c1.4,0.7,2.9,1.2,4.6,1.2c10,0,20.2-15.7,20.2-24.8c0-9.1-5-16.4-15-16.4c-3.3,0-6.7,0.8-9.8,2.2"
		/>
	<g>
		<g>
			<path fill="#773D0E" d="M22.9,36.5L22.9,36.5l5.2,3.3L27,34l0,0c-0.1-0.3-0.2-0.7-0.4-1c-0.8-1.2-2.5-1.5-3.7-0.7
				c-1.3,0.8-1.6,2.3-0.8,3.5C22.3,36.1,22.6,36.3,22.9,36.5z"/>
			<path fill="#441F06" d="M28.1,39.8L27,34l0,0c-0.1-0.3-0.2-0.7-0.4-1c-0.8-1.2-2.5-1.5-3.7-0.7"/>
		</g>
		<g>
			<path fill="#773D0E" d="M41.1,36.5L41.1,36.5l-5.2,3.3L37,34l0,0c0.1-0.3,0.2-0.7,0.4-1c0.8-1.2,2.5-1.5,3.7-0.7
				c1.3,0.8,1.6,2.3,0.8,3.5C41.7,36.1,41.4,36.3,41.1,36.5z"/>
			<path fill="#441F06" d="M35.9,39.8L37,34l0,0c0.1-0.3,0.2-0.7,0.4-1c0.8-1.2,2.5-1.5,3.7-0.7"/>
		</g>
	</g>
	<path fill="#441F06" d="M24.7,35.6"/>
	<path fill="#A50C00" d="M32,16.2V2.4c0,0,2.3-1.8,4,0l-2.3,12.8L32,16.2z"/>
	<g>
		<path fill="#5EA304" d="M30.8,12.3L30.8,12.3L30.8,12.3L30.8,12.3c1-3.2,1.6-6.1-0.4-8.2C27,0.6,23.1,2.9,18.8,1.2l0,0l0,0l0,0"/>
		<path fill="#80C11A" d="M29.7,13.2L29.7,13.2L29.7,13.2L29.7,13.2c-3.5,1-6.5,1.6-8.8-0.2c-3.8-3.2-1.3-6.8-3.1-10.8l0,0l0,0l0,0"
			/>
	</g>
</g>
</svg>
