<?xml version="1.0" encoding="utf-8"?>
<!-- Generator: Adobe Illustrator 16.0.0, SVG Export Plug-In . SVG Version: 6.00 Build 0)  -->
<!DOCTYPE svg PUBLIC "-//W3C//DTD SVG 1.1//EN" "http://www.w3.org/Graphics/SVG/1.1/DTD/svg11.dtd">
<svg version="1.1" id="Layer_1" xmlns="http://www.w3.org/2000/svg" xmlns:xlink="http://www.w3.org/1999/xlink" x="0px" y="0px"
	 width="64px" height="64px" viewBox="0 0 64 64" enable-background="new 0 0 64 64" xml:space="preserve">
<g>
	<path fill="#42BEC1" d="M62.8,34c0,5.5-13.8,20.4-30.8,20.4C15,54.4,1.2,39.5,1.2,34C1.2,28.5,15,24,32,24C49,24,62.8,28.5,62.8,34
		z"/>
	<path fill="#2DA1AA" d="M32,24c17,0,30.8,4.5,30.8,10c0,5.5-13.8,20.4-30.8,20.4"/>
	<path fill="#424242" d="M61.7,33.4c0,4.2-13.3,7.7-29.7,7.7c-16.4,0-29.7-3.4-29.7-7.7c0-4.2,13.3-8.7,29.7-8.7
		C48.4,24.7,61.7,29.2,61.7,33.4z"/>
	<path d="M32,24.7c16.4,0,29.7,4.5,29.7,8.7c0,4.2-13.3,7.7-29.7,7.7"/>
	<path fill="#FFCD50" d="M5.3,41.6c1.4,1.6,3.2,3.3,5.2,4.9c5.4,1.5,13,2.4,21.5,2.4c8.4,0,16.1-0.9,21.5-2.4c2-1.6,3.8-3.3,5.2-4.9
		c-4.8,2.6-14.9,4.3-26.7,4.3C20.3,45.9,10.2,44.1,5.3,41.6z"/>
	<path fill="#FFB31A" d="M32,48.8c8.4,0,16.1-0.9,21.5-2.4c2-1.6,3.8-3.3,5.2-4.9c-4.8,2.6-14.9,4.3-26.7,4.3"/>
	<path fill="#FFD217" d="M56.6,36c0,3.5-11,5.3-24.6,5.3c-13.6,0-24.6-1.8-24.6-5.3c0-3.5,11-8.3,24.6-8.3
		C45.6,27.7,56.6,32.5,56.6,36z"/>
	<path fill="#FFB31A" d="M32,27.7c13.6,0,24.6,4.8,24.6,8.3c0,3.5-11,5.3-24.6,5.3"/>
	<g>
		<g>
			<g>
				<path fill="#F7E98B" d="M11.8,31.9c-0.3-0.3-0.3-0.7,0-1c2.9-3,7.7-3,10.7,0c0.3,0.3,0.3,0.7,0,1c-0.3,0.3-0.7,0.3-1,0
					c-2.4-2.4-6.3-2.4-8.7,0C12.6,32.2,12.1,32.2,11.8,31.9z"/>
			</g>
			<g>
				<path fill="#F7E98B" d="M32.3,31.3c0.3,0.3,0.3,0.7,0,1c-3,2.9-7.8,2.7-10.7-0.3c-0.3-0.3-0.3-0.7,0-1c0.3-0.3,0.7-0.3,1,0
					c2.3,2.5,6.2,2.6,8.7,0.3C31.6,31,32.1,31,32.3,31.3z"/>
			</g>
		</g>
		<g>
			<g>
				<path fill="#F7E98B" d="M11.8,34.9c-0.3-0.3-0.3-0.7,0-1c2.9-3,7.7-3,10.7,0c0.3,0.3,0.3,0.7,0,1c-0.3,0.3-0.7,0.3-1,0
					c-2.4-2.4-6.3-2.4-8.7,0C12.6,35.2,12.1,35.2,11.8,34.9z"/>
			</g>
			<g>
				<path fill="#F7E98B" d="M32.3,34.3c0.3,0.3,0.3,0.7,0,1c-3,2.9-7.8,2.7-10.7-0.3c-0.3-0.3-0.3-0.7,0-1c0.3-0.3,0.7-0.3,1,0
					c2.3,2.5,6.2,2.6,8.7,0.3C31.6,34,32.1,34,32.3,34.3z"/>
			</g>
		</g>
		<g>
			<g>
				<path fill="#F7E98B" d="M11.8,37.9c-0.3-0.3-0.3-0.7,0-1c2.9-3,7.7-3,10.7,0c0.3,0.3,0.3,0.7,0,1c-0.3,0.3-0.7,0.3-1,0
					c-2.4-2.4-6.3-2.4-8.7,0C12.6,38.2,12.1,38.2,11.8,37.9z"/>
			</g>
			<g>
				<path fill="#F7E98B" d="M32.3,37.3c0.3,0.3,0.3,0.7,0,1c-3,2.9-7.8,2.7-10.7-0.3c-0.3-0.3-0.3-0.7,0-1c0.3-0.3,0.7-0.3,1,0
					c2.3,2.5,6.2,2.6,8.7,0.3C31.6,37,32.1,37,32.3,37.3z"/>
			</g>
		</g>
		<g>
			<g>
				<path fill="#F7E98B" d="M31.7,31.9c-0.3-0.3-0.3-0.7,0-1c2.9-3,7.7-3,10.7,0c0.3,0.3,0.3,0.7,0,1c-0.3,0.3-0.7,0.3-1,0
					c-2.4-2.4-6.3-2.4-8.7,0C32.4,32.2,32,32.2,31.7,31.9z"/>
			</g>
			<g>
				<path fill="#F7E98B" d="M52.2,31.3c0.3,0.3,0.3,0.7,0,1c-3,2.9-7.8,2.7-10.7-0.3c-0.3-0.3-0.3-0.7,0-1c0.3-0.3,0.7-0.3,1,0
					c2.3,2.5,6.2,2.6,8.7,0.3C51.5,31,51.9,31,52.2,31.3z"/>
			</g>
		</g>
		<g>
			<g>
				<path fill="#F7E98B" d="M31.7,34.9c-0.3-0.3-0.3-0.7,0-1c2.9-3,7.7-3,10.7,0c0.3,0.3,0.3,0.7,0,1s-0.7,0.3-1,0
					c-2.4-2.4-6.3-2.4-8.7,0C32.4,35.2,32,35.2,31.7,34.9z"/>
			</g>
			<g>
				<path fill="#F7E98B" d="M52.2,34.3c0.3,0.3,0.3,0.7,0,1c-3,2.9-7.8,2.7-10.7-0.3c-0.3-0.3-0.3-0.7,0-1c0.3-0.3,0.7-0.3,1,0
					c2.3,2.5,6.2,2.6,8.7,0.3C51.5,34,51.9,34,52.2,34.3z"/>
			</g>
		</g>
		<g>
			<g>
				<path fill="#F7E98B" d="M31.7,37.9c-0.3-0.3-0.3-0.7,0-1c2.9-3,7.7-3,10.7,0c0.3,0.3,0.3,0.7,0,1c-0.3,0.3-0.7,0.3-1,0
					c-2.4-2.4-6.3-2.4-8.7,0C32.4,38.2,32,38.2,31.7,37.9z"/>
			</g>
			<g>
				<path fill="#F7E98B" d="M52.2,37.3c0.3,0.3,0.3,0.7,0,1c-3,2.9-7.8,2.7-10.7-0.3c-0.3-0.3-0.3-0.7,0-1c0.3-0.3,0.7-0.3,1,0
					c2.3,2.5,6.2,2.6,8.7,0.3C51.5,37,51.9,37,52.2,37.3z"/>
			</g>
		</g>
	</g>
	<g>
		<g>
			<polygon fill="#D63834" points="43.6,30 41.1,29.5 44.6,9.6 48.9,10.4 			"/>
			<polygon fill="#8E0404" points="43.6,30 42.2,29.7 47.1,11.7 48.9,10.4 			"/>
		</g>
		<polygon fill="#ED7777" points="44.9,9.7 47.1,11.5 46.1,15.6 		"/>
	</g>
	<g>
		<g>
			<polygon fill="#D63834" points="48.5,31.7 46.1,30.7 54.1,12 58,13.7 			"/>
			<polygon fill="#8E0404" points="48.5,31.7 47.1,31.2 56,14.6 58,13.7 			"/>
		</g>
		<polygon fill="#ED7777" points="54.2,12.2 56,14.4 54,18.2 		"/>
	</g>
	<g>
		<path fill="#82C60A" d="M6.8,19.8L6.8,19.8L6.8,19.8L6.8,19.8c-0.4,5.8-5.3,8.9-2.9,14.8C5.2,38,9,39,13.4,40h0l0.1-0.3l0-0.1
			c3-3.3,5.4-6.4,4.5-9.9C16.2,23.5,10.5,24.2,6.8,19.8z"/>
		<path fill="#5EA304" d="M13.4,40L13.4,40l0.1-0.3L13.4,40c3-3.3,5.5-6.8,4.5-10.3c-1.7-6.1-7.4-5.5-11.1-9.8l0,0l-0.1,0l0,0"/>
		<g>
			<polygon fill="#74B208" points="9.7,28.5 5.9,27.6 10.1,29.7 12.2,25.5 			"/>
			<polygon fill="#74B208" points="11.9,35.1 8.1,34.2 12.3,36.3 14.4,32.1 			"/>
			<polygon fill="#74B208" points="10.8,31.8 6.5,30.7 11.2,33.1 13.6,28.3 			"/>
		</g>
	</g>
	<g>
		<circle fill="#F7E98B" cx="32" cy="47.1" r="4.1"/>
		<path fill="#FFD217" d="M32,43c2.3,0,4.1,1.8,4.1,4.1s-1.8,4.1-4.1,4.1"/>
	</g>
	<g>
		<circle fill="#424242" cx="32" cy="47.1" r="2.5"/>
		<path d="M34.5,47.1c0,1.4-1.1,2.5-2.5,2.5c-1.4,0-2.5-1.1-2.5-2.5"/>
	</g>
</g>
</svg>
