<?xml version="1.0" encoding="utf-8"?>
<!-- Generator: Adobe Illustrator 16.0.0, SVG Export Plug-In . SVG Version: 6.00 Build 0)  -->
<!DOCTYPE svg PUBLIC "-//W3C//DTD SVG 1.1//EN" "http://www.w3.org/Graphics/SVG/1.1/DTD/svg11.dtd">
<svg version="1.1" id="Layer_1" xmlns="http://www.w3.org/2000/svg" xmlns:xlink="http://www.w3.org/1999/xlink" x="0px" y="0px"
	 width="64px" height="64px" viewBox="0 0 64 64" enable-background="new 0 0 64 64" xml:space="preserve">
<g>
	<polygon fill="#424242" points="63,25.5 1,24.4 1,23.7 63,22.5 	"/>
	<g>
		<path fill="#873D15" d="M22.1,30.8c-1.6,1.6-4.1,1.6-5.7,0l-3.9-3.9c-1.6-1.6-1.6-4.1,0-5.7l3.9-3.9c1.6-1.6,4.1-1.6,5.7,0
			l3.9,3.9c1.6,1.6,1.6,4.1,0,5.7L22.1,30.8z"/>
		<path fill="#68300B" d="M22.1,17.3l3.9,3.9c1.6,1.6,1.6,4.1,0,5.7l-3.9,3.9c-1.6,1.6-4.1,1.6-5.7,0l-3.9-3.9"/>
		<path fill="#562306" d="M22.1,17.3l3.9,3.9c1.6,1.6,1.6,4.1,0,5.7l-3.9,3.9"/>
		<path fill="#843A12" d="M27.2,24c0,1.2-0.4,2.2-0.8,2.2c-0.5,0-0.9-1-0.9-2.2s0.4-2.2,0.9-2.2C26.8,21.8,27.2,22.8,27.2,24z"/>
		<ellipse cx="26.7" cy="24" rx="0.6" ry="1.4"/>
		<path fill="#BA6A2F" d="M19.2,17.4c0.2,0.2,0.2,0.6,0,0.8l-4.8,4.8c-0.2,0.2-0.6,0.2-0.8,0l0,0c-0.2-0.2-0.2-0.6,0-0.8l4.8-4.8
			C18.6,17.2,19,17.2,19.2,17.4L19.2,17.4z"/>
	</g>
	<g>
		<path fill="#873D15" d="M38.4,30.8c-1.6,1.6-4.1,1.6-5.7,0l-3.9-3.9c-1.6-1.6-1.6-4.1,0-5.7l3.9-3.9c1.6-1.6,4.1-1.6,5.7,0
			l3.9,3.9c1.6,1.6,1.6,4.1,0,5.7L38.4,30.8z"/>
		<path fill="#68300B" d="M38.4,17.3l3.9,3.9c1.6,1.6,1.6,4.1,0,5.7l-3.9,3.9c-1.6,1.6-4.1,1.6-5.7,0l-3.9-3.9"/>
		<path fill="#562306" d="M38.4,17.3l3.9,3.9c1.6,1.6,1.6,4.1,0,5.7l-3.9,3.9"/>
		<path fill="#843A12" d="M43.5,24c0,1.2-0.4,2.2-0.9,2.2c-0.5,0-0.9-1-0.9-2.2s0.4-2.2,0.9-2.2C43.1,21.8,43.5,22.8,43.5,24z"/>
		<ellipse cx="43" cy="24" rx="0.6" ry="1.4"/>
		<path fill="#BA6A2F" d="M35.5,17.4c0.2,0.2,0.2,0.6,0,0.8l-4.8,4.8c-0.2,0.2-0.6,0.2-0.8,0l0,0c-0.2-0.2-0.2-0.6,0-0.8l4.8-4.8
			C35,17.2,35.3,17.2,35.5,17.4L35.5,17.4z"/>
	</g>
	<g>
		<path fill="#873D15" d="M54.9,31c-1.6,1.6-4.2,1.6-5.8,0l-4-4c-1.6-1.6-1.6-4.2,0-5.8l4-4c1.6-1.6,4.2-1.6,5.8,0l4,4
			c1.6,1.6,1.6,4.2,0,5.8L54.9,31z"/>
		<path fill="#68300B" d="M54.9,17.1l4,4c1.6,1.6,1.6,4.2,0,5.8l-4,4c-1.6,1.6-4.2,1.6-5.8,0l-4-4"/>
		<path fill="#562306" d="M54.9,17.1l4,4c1.6,1.6,1.6,4.2,0,5.8l-4,4"/>
		<path fill="#843A12" d="M60.1,24c0,1.3-0.4,2.3-0.9,2.3c-0.5,0-0.9-1-0.9-2.3c0-1.3,0.4-2.3,0.9-2.3C59.7,21.8,60.1,22.8,60.1,24z
			"/>
		<ellipse cx="59.6" cy="24" rx="0.6" ry="1.4"/>
		<path fill="#BA6A2F" d="M51.8,17.2c0.2,0.2,0.2,0.6,0,0.8l-5,5c-0.2,0.2-0.6,0.2-0.8,0l0,0c-0.2-0.2-0.2-0.6,0-0.8l5-5
			C51.3,17,51.6,17,51.8,17.2L51.8,17.2z"/>
	</g>
	<path fill="#562306" d="M63,61.4c-6-1.6-13.9-2.5-23-2.5c-11.7,0-21.9,1.1-27.1,4.1H63V61.4z"/>
	<g>
		<g>
			<g>
				<g>
					<polygon fill="#E89215" points="40.4,30 49.3,51.6 39.6,62.8 30.4,51.1 					"/>
					<polyline fill="#FFCD50" points="39.6,62.8 30.4,51.1 40.4,30 					"/>
				</g>
				<g>
					<polygon fill="#F9A035" points="40.1,43.1 34.1,55.8 39.6,62.8 45.5,56 					"/>
					<polyline fill="#ED7014" points="39.6,62.8 45.5,56 40.1,43.1 					"/>
				</g>
			</g>
		</g>
		<g>
			<g>
				<g>
					<g>
						<g>
							<polygon fill="#FFC114" points="16.5,42.9 29.7,48.3 30.3,57.3 21.3,56.2 							"/>
							<polyline fill="#FFCD50" points="30.3,57.3 21.3,56.2 16.5,42.9 							"/>
						</g>
						<g>
							<polygon fill="#F9A035" points="22,48.6 24.9,56.7 30.3,57.3 29.9,51.9 							"/>
							<polyline fill="#FF9A15" points="30.3,57.3 29.9,51.9 22,48.6 							"/>
						</g>
					</g>
				</g>
				<g>
					<g>
						<g>
							<polygon fill="#FFC114" points="27.8,34.7 32.9,41.5 30.5,46.3 26.2,43 							"/>
							<polyline fill="#FFCD50" points="30.5,46.3 26.2,43 27.8,34.7 							"/>
						</g>
						<g>
							<polygon fill="#F9A035" points="28.9,39.3 27.9,44.3 30.5,46.3 32,43.4 							"/>
							<polyline fill="#FF9A15" points="30.5,46.3 32,43.4 28.9,39.3 							"/>
						</g>
					</g>
				</g>
			</g>
			<g>
				<g>
					<g>
						<g>
							<polygon fill="#FFC114" points="63.2,42.9 50.1,48.3 49.4,57.3 58.4,56.2 							"/>
							<polyline fill="#FFCD50" points="49.4,57.3 58.4,56.2 63.2,42.9 							"/>
						</g>
						<g>
							<polygon fill="#F9A035" points="57.7,48.6 54.8,56.7 49.4,57.3 49.8,51.9 							"/>
							<polyline fill="#FF9A15" points="49.4,57.3 49.8,51.9 57.7,48.6 							"/>
						</g>
					</g>
				</g>
				<g>
					<g>
						<g>
							<polygon fill="#FFC114" points="51.9,34.7 46.8,41.5 49.2,46.3 53.6,43 							"/>
							<polyline fill="#FFCD50" points="49.2,46.3 53.6,43 51.9,34.7 							"/>
						</g>
						<g>
							<polygon fill="#F9A035" points="50.9,39.3 51.8,44.3 49.2,46.3 47.8,43.4 							"/>
							<polyline fill="#FF9A15" points="49.2,46.3 47.8,43.4 50.9,39.3 							"/>
						</g>
					</g>
				</g>
			</g>
		</g>
	</g>
	<g>
		<path fill="#BCB8A6" d="M21,13.5c0,0.3-0.2,0.5-0.5,0.5l0,0c-0.3,0-0.5-0.2-0.5-0.5v-12C20,1.2,20.2,1,20.5,1l0,0
			C20.8,1,21,1.2,21,1.5V13.5z"/>
		<path fill="#BCB8A6" d="M25,15.5c0,0.3-0.2,0.5-0.5,0.5l0,0c-0.3,0-0.5-0.2-0.5-0.5v-12C24,3.2,24.2,3,24.5,3l0,0
			C24.8,3,25,3.2,25,3.5V15.5z"/>
		<path fill="#BCB8A6" d="M28,17.5c0,0.3-0.2,0.5-0.5,0.5l0,0c-0.3,0-0.5-0.2-0.5-0.5v-12C27,5.2,27.2,5,27.5,5l0,0
			C27.8,5,28,5.2,28,5.5V17.5z"/>
	</g>
	<g>
		<path fill="#BCB8A6" d="M39,13.3c0,0.3-0.2,0.6-0.5,0.6l0,0c-0.3,0-0.5-0.3-0.5-0.6V1.8c0-0.3,0.2-0.6,0.5-0.6l0,0
			c0.3,0,0.5,0.3,0.5,0.6V13.3z"/>
		<path fill="#BCB8A6" d="M43,15.1c0,0.3-0.2,0.6-0.5,0.6l0,0c-0.3,0-0.5-0.3-0.5-0.6V3.6C42,3.3,42.2,3,42.5,3l0,0
			C42.8,3,43,3.3,43,3.6V15.1z"/>
		<path fill="#BCB8A6" d="M46,17c0,0.3-0.2,0.6-0.5,0.6l0,0c-0.3,0-0.5-0.3-0.5-0.6V5.5c0-0.3,0.2-0.6,0.5-0.6l0,0
			c0.3,0,0.5,0.3,0.5,0.6V17z"/>
	</g>
</g>
</svg>
