<?xml version="1.0" encoding="utf-8"?>
<!-- Generator: Adobe Illustrator 16.0.0, SVG Export Plug-In . SVG Version: 6.00 Build 0)  -->
<!DOCTYPE svg PUBLIC "-//W3C//DTD SVG 1.1//EN" "http://www.w3.org/Graphics/SVG/1.1/DTD/svg11.dtd">
<svg version="1.1" id="Layer_1" xmlns="http://www.w3.org/2000/svg" xmlns:xlink="http://www.w3.org/1999/xlink" x="0px" y="0px"
	 width="64px" height="64px" viewBox="0 0 64 64" enable-background="new 0 0 64 64" xml:space="preserve">
<g>
	<g>
		<path fill="#EABC49" d="M58.9,6.7C57.2,28.3,33.8,45.3,5.2,45.3c-1.4,0-2.8-0.1-4.3-0.1C7.4,53,17.1,58.1,28.1,58.1
			C47.4,58.1,63,42.4,63,23.1C63,17.2,61.5,11.6,58.9,6.7z"/>
		<path fill="#FFDC6C" d="M1.3,45.3C41.6,61.6,60.7,31.4,60.4,10c-0.5-1.1-0.9-2.2-1.5-3.2C57.2,28.3,33.8,45.3,5.2,45.3
			c-1.4,0-2.8-0.1-4.3-0.1"/>
		<path fill="#FCF7C5" d="M1.4,45.4c33.1,4.2,56-14.8,58.8-36.1c-0.4-0.9-0.8-1.8-1.2-2.6C57.2,28.3,33.8,45.3,5.2,45.3
			c-1.4,0-2.8-0.1-4.3-0.1"/>
		<path fill="#562300" d="M60.1,9l-0.2-2.3c0-0.5-0.4-0.8-0.9-0.7c-0.5,0-0.8,0.4-0.7,0.9l0.2,2.3c-0.7,0.4-1.1,1.1-1,1.9l0.2,2.4
			l4-0.4l-0.2-2.4C61.4,9.9,60.8,9.3,60.1,9z"/>
		<path fill="#281000" d="M59.4,13.3l2.3-0.2l-0.2-2.4c-0.1-0.8-0.6-1.4-1.3-1.7l-0.2-2.3c0-0.5-0.4-0.8-0.9-0.7"/>
		
			<ellipse transform="matrix(-0.8953 -0.4455 0.4455 -0.8953 105.8135 45.2834)" fill="#8C4719" cx="58.2" cy="10.2" rx="0.2" ry="0.8"/>
		<path fill="#8C4719" d="M6.3,45.3c-0.4,0-0.7,0-1.1,0c-1.4,0-2.8-0.1-4.3-0.1c1,1.3,2.2,2.5,3.4,3.6C5.3,47.8,6,46.6,6.3,45.3z"/>
		<path fill="#281000" d="M1,45.2c1,1.3,2.2,2.5,3.4,3.6c0.5-0.5,0.9-1.1,1.3-1.8"/>
	</g>
	<path fill="#CE921B" d="M51.2,37.4l-9.2,9.2l5.6,5.6c3.6-2.4,6.8-5.5,9.3-9.1L51.2,37.4z"/>
	<g>
		<g>
			<circle fill="#3CBC0C" cx="46.2" cy="41.6" r="6.5"/>
			<path fill="#2B9907" d="M50.9,36.9c2.5,2.5,2.5,6.7,0,9.2c-2.5,2.5-6.7,2.5-9.2,0"/>
		</g>
		<g>
			<circle fill="#017C1B" cx="46.2" cy="41.6" r="4.1"/>
			<path fill="#006B12" d="M43.3,38.6c1.6-1.6,4.2-1.6,5.8,0c1.6,1.6,1.6,4.2,0,5.8"/>
		</g>
	</g>
	<polygon fill="#FFE000" points="46.2,39.1 47.1,40.7 48.9,41 47.6,42.2 47.9,44 46.2,43.2 44.6,44 44.9,42.2 43.6,41 45.4,40.7 	
		"/>
	<polyline fill="#FFC200" points="47.1,40.7 48.9,41 47.6,42.2 47.9,44 46.2,43.2 44.6,44 	"/>
</g>
</svg>
