<?xml version="1.0" encoding="utf-8"?>
<!-- Generator: Adobe Illustrator 16.0.0, SVG Export Plug-In . SVG Version: 6.00 Build 0)  -->
<!DOCTYPE svg PUBLIC "-//W3C//DTD SVG 1.1//EN" "http://www.w3.org/Graphics/SVG/1.1/DTD/svg11.dtd">
<svg version="1.1" id="Layer_1" xmlns="http://www.w3.org/2000/svg" xmlns:xlink="http://www.w3.org/1999/xlink" x="0px" y="0px"
	 width="64px" height="64px" viewBox="0 0 64 64" enable-background="new 0 0 64 64" xml:space="preserve">
<g>
	<path fill="#FFD96E" d="M49.3,32.1c0,14.3-7.7,19.1-17.3,19.1c-9.6,0-17.3-4.8-17.3-19.1c0-14.3,7.7-30.5,17.3-30.5
		C41.6,1.6,49.3,17.8,49.3,32.1z"/>
	<path fill="#F7C937" d="M32,1.6c9.6,0,17.3,16.2,17.3,30.5c0,14.3-7.7,19.1-17.3,19.1"/>
	<ellipse transform="matrix(0.9759 0.2183 -0.2183 0.9759 5.5043 -3.9346)" fill="#FCF6DB" cx="20.6" cy="22.9" rx="2.7" ry="9.4"/>
	<ellipse transform="matrix(0.9498 0.3129 -0.3129 0.9498 4.3808 -7.0839)" fill="#FCF6DB" cx="24.3" cy="10.1" rx="1.6" ry="2.5"/>
	<g>
		<path fill="#D61E69" d="M10.6,42C12.2,54,21.1,62.3,32,62.3S51.8,54,53.4,42H10.6z"/>
	</g>
	
		<rect x="16.6" y="37.1" transform="matrix(0.9693 -0.2458 0.2458 0.9693 -9.3799 8.243)" fill="#F7C937" width="23.5" height="9.2"/>
	<path fill="#AF045A" d="M18.2,57h27.6c4-3.5,6.8-9,7.6-15H10.6C11.4,48,14.2,53.6,18.2,57z"/>
	<path fill="#F77FC7" d="M55,42.1c0,1-0.8,1.9-1.9,1.9H9.9c-1,0-1.9-0.8-1.9-1.9v-0.3c0-1,0.8-1.9,1.9-1.9h43.3c1,0,1.9,0.8,1.9,1.9
		V42.1z"/>
	<path fill="#E252AF" d="M10,40h43.1c1,0,1.9,0.8,1.9,1.9v0.3c0,1-0.8,1.9-1.9,1.9"/>
	<g>
		<g>
			<ellipse transform="matrix(0.7071 0.7071 -0.7071 0.7071 40.9713 1.2623)" fill="#F77FC7" cx="19" cy="50.1" rx="0.8" ry="4.4"/>
			
				<ellipse transform="matrix(-0.7074 0.7068 -0.7068 -0.7074 67.779 72.1177)" fill="#F77FC7" cx="19" cy="50.1" rx="0.8" ry="4.4"/>
		</g>
		<g>
			
				<ellipse transform="matrix(0.7071 0.7071 -0.7071 0.7071 43.517 -4.8834)" fill="#F77FC7" cx="27.7" cy="50.1" rx="0.8" ry="4.4"/>
			
				<ellipse transform="matrix(-0.7077 0.7065 -0.7065 -0.7077 82.6128 65.9976)" fill="#F77FC7" cx="27.7" cy="50.1" rx="0.8" ry="4.4"/>
		</g>
		<g>
			
				<ellipse transform="matrix(0.7074 0.7068 -0.7068 0.7074 46.0367 -11.0337)" fill="#F77FC7" cx="36.3" cy="50.1" rx="0.8" ry="4.4"/>
			
				<ellipse transform="matrix(-0.7077 0.7065 -0.7065 -0.7077 97.4552 59.8571)" fill="#F77FC7" cx="36.3" cy="50.1" rx="0.8" ry="4.4"/>
		</g>
		<g>
			
				<ellipse transform="matrix(0.7074 0.7068 -0.7068 0.7074 48.5798 -17.1768)" fill="#F77FC7" cx="45" cy="50.1" rx="0.8" ry="4.4"/>
			
				<ellipse transform="matrix(-0.7077 0.7065 -0.7065 -0.7077 112.2976 53.7166)" fill="#F77FC7" cx="45" cy="50.1" rx="0.8" ry="4.4"/>
		</g>
	</g>
	<path fill="#F77FC7" d="M22.5,60c2.2,1.3,5.9,2.3,9.5,2.3c5.1-0.1,7.4-1.3,9.5-2.3H22.5z"/>
	<path fill="#FFCCED" d="M19.8,42c0,0.5-0.4,1-0.9,1h-8.6c-0.5,0-0.9-0.5-0.9-1l0,0c0-0.5,0.4-1,0.9-1h8.6
		C19.4,41,19.8,41.5,19.8,42L19.8,42z"/>
	<g>
		<circle fill="#FFCCED" cx="23.3" cy="50" r="0.5"/>
		<circle fill="#FFCCED" cx="32" cy="50" r="0.5"/>
		<circle fill="#FFCCED" cx="40.7" cy="50" r="0.5"/>
	</g>
</g>
</svg>
