<?xml version="1.0" encoding="utf-8"?>
<!-- Generator: Adobe Illustrator 16.0.0, SVG Export Plug-In . SVG Version: 6.00 Build 0)  -->
<!DOCTYPE svg PUBLIC "-//W3C//DTD SVG 1.1//EN" "http://www.w3.org/Graphics/SVG/1.1/DTD/svg11.dtd">
<svg version="1.1" id="Layer_1" xmlns="http://www.w3.org/2000/svg" xmlns:xlink="http://www.w3.org/1999/xlink" x="0px" y="0px"
	 width="64px" height="64px" viewBox="0 0 64 64" enable-background="new 0 0 64 64" xml:space="preserve">
<g>
	<path fill="#EF4220" d="M41,22.8C41,35,37,63,32,63s-9-28-9-40.2c0-12.2,4-14.1,9-14.1S41,10.6,41,22.8z"/>
	<path fill="#D6270F" d="M32,8.7c5,0,9,2,9,14.1C41,35,37,63,32,63"/>
	
		<ellipse transform="matrix(0.7372 0.6757 -0.6757 0.7372 16.0298 -15.3942)" fill="#FC7854" cx="27.8" cy="12.9" rx="1.6" ry="3.8"/>
	<ellipse fill="#FC7854" cx="32" cy="22.3" rx="5.8" ry="0.6"/>
	<ellipse fill="#FC7854" cx="32" cy="32.9" rx="5.8" ry="0.6"/>
	<ellipse fill="#FC7854" cx="32" cy="43.5" rx="5.8" ry="0.6"/>
	<path fill="#489E10" d="M37.8,11C37.4,8,35,6,32,6c-3,0-5.4,2-5.8,5H37.8z"/>
	<path fill="#337A05" d="M32,11h5.8C37.4,8,35,6,32,6"/>
	<path fill="#489E10" d="M33,6.3c0,0.6-0.4,1-1,1l0,0c-0.6,0-1-0.5-1-1V2c0-0.6,0.4-1,1-1l0,0c0.6,0,1,0.5,1,1V6.3z"/>
	<path fill="#337A05" d="M32,1L32,1c0.6,0,1,0.5,1,1v4.2c0,0.6-0.5,1-1,1l0,0"/>
</g>
</svg>
