<?xml version="1.0" encoding="utf-8"?>
<!-- Generator: Adobe Illustrator 16.0.0, SVG Export Plug-In . SVG Version: 6.00 Build 0)  -->
<!DOCTYPE svg PUBLIC "-//W3C//DTD SVG 1.1//EN" "http://www.w3.org/Graphics/SVG/1.1/DTD/svg11.dtd">
<svg version="1.1" id="Layer_1" xmlns="http://www.w3.org/2000/svg" xmlns:xlink="http://www.w3.org/1999/xlink" x="0px" y="0px"
	 width="64px" height="64px" viewBox="0 0 64 64" enable-background="new 0 0 64 64" xml:space="preserve">
<g>
	<polygon points="53,63 11,63 11,50.5 14,41 50,41 53,43.5 	"/>
	<g>
		<g>
			<g>
				<polyline fill="#773515" points="32,1 32,19 14,19 				"/>
				<polyline fill="#632309" points="30,3 30,17 16,17 				"/>
				<polyline fill="#894121" points="28,7.2 28.3,15 20,15 				"/>
			</g>
			<g>
				<rect x="32" y="1" fill="#773515" width="18" height="18"/>
				<polyline fill="#8E4829" points="32,19 32,1 50,1 				"/>
				<polygon fill="#9E683C" points="41.1,10.1 50,1 32,1 32,1 				"/>
				<rect x="34" y="3" fill="#773515" width="14" height="14"/>
				<polyline fill="#632309" points="48,3 48,17 34,17 				"/>
				<polyline fill="#894121" points="36,12 36,5 43,5 				"/>
			</g>
		</g>
		<g>
			<g>
				<rect x="14" y="19" fill="#773515" width="18" height="18"/>
				<polyline fill="#8E4829" points="14,37 14,19 32,19 				"/>
				<polygon fill="#9E683C" points="23,28.2 32.1,19 14,19 14,19.2 				"/>
				<rect x="16" y="21" fill="#773515" width="14" height="14"/>
				<polyline fill="#632309" points="30,21 30,35 16,35 				"/>
				<polyline fill="#894121" points="17,31 17,23 25,23 				"/>
			</g>
			<g>
				<rect x="32" y="19" fill="#773515" width="18" height="18"/>
				<polyline fill="#8E4829" points="32,37 32,19 50,19 				"/>
				<polygon fill="#9E683C" points="41.1,28.2 50,19 32,19 32,19.2 				"/>
				<rect x="34" y="21" fill="#773515" width="14" height="14"/>
				<polyline fill="#632309" points="48,21 48,35 34,35 				"/>
				<polyline fill="#894121" points="36,31 36,23 43,23 				"/>
			</g>
		</g>
		<g>
			<g>
				<rect x="14" y="37" fill="#773515" width="18" height="19"/>
				<polyline fill="#8E4829" points="14,56 14,37 32,37 				"/>
				<polygon fill="#9E683C" points="23,46.4 32.1,37 14,37 14,37.5 				"/>
				<rect x="16" y="39" fill="#773515" width="14" height="15"/>
				<polyline fill="#632309" points="30,39 30,54 16,54 				"/>
				<polyline fill="#894121" points="17,49 17,41 25,41 				"/>
			</g>
			<g>
				<rect x="32" y="37" fill="#773515" width="18" height="19"/>
				<polyline fill="#8E4829" points="32,56 32,37 50,37 				"/>
				<polygon fill="#9E683C" points="41.1,46.4 50,37 32,37 32,37.5 				"/>
				<rect x="34" y="39" fill="#773515" width="14" height="15"/>
				<polyline fill="#632309" points="48,39 48,54 34,54 				"/>
				<polyline fill="#894121" points="36,49 36,41 43,41 				"/>
			</g>
		</g>
	</g>
	<polygon fill="#FCE577" points="53,63 11,63 11,50.9 18,50.1 27.1,45 53,45 	"/>
	<polygon fill="#FFB31A" points="53,63 11,63 25,58.8 18,50.1 27.1,45 53,45 	"/>
	<polygon fill="#551B7A" points="53,63 11,63 11,52.8 24.7,58.4 31.9,45 53,45 	"/>
	<polyline fill="#360B60" points="24.7,58.4 31.9,45 53,45 53,63 	"/>
	<rect x="50" y="48" fill="#C675CC" width="1" height="14"/>
	<polygon fill="#C675CC" points="31,48 30.5,49 51,49 51,48 	"/>
</g>
</svg>
