<?xml version="1.0" encoding="utf-8"?>
<!-- Generator: Adobe Illustrator 16.0.0, SVG Export Plug-In . SVG Version: 6.00 Build 0)  -->
<!DOCTYPE svg PUBLIC "-//W3C//DTD SVG 1.1//EN" "http://www.w3.org/Graphics/SVG/1.1/DTD/svg11.dtd">
<svg version="1.1" id="Layer_1" xmlns="http://www.w3.org/2000/svg" xmlns:xlink="http://www.w3.org/1999/xlink" x="0px" y="0px"
	 width="64px" height="64px" viewBox="0 0 64 64" enable-background="new 0 0 64 64" xml:space="preserve">
<g>
	<g>
		<g>
			<g>
				<g>
					<polygon fill="#FFC114" points="8.5,6.7 26.5,24.9 21.3,40.3 7.1,32.2 					"/>
					<polyline fill="#FFCD50" points="21.3,40.3 7.1,32.2 8.5,6.7 					"/>
				</g>
				<g>
					<polygon fill="#F9A035" points="13.6,20.1 12.8,35.4 21.3,40.3 24.4,31 					"/>
					<polyline fill="#FF9A15" points="21.3,40.3 24.4,31 13.6,20.1 					"/>
				</g>
			</g>
		</g>
		<g>
			<g>
				<polygon fill="#E89215" points="58.5,2.5 58.2,44.7 34.2,56.5 27.1,30.6 				"/>
				<polyline fill="#FFCD50" points="34.2,56.5 27.1,30.6 58.5,2.5 				"/>
			</g>
			<g>
				<polygon fill="#F9A035" points="48.8,24 29.9,41 34.2,56.5 48.6,49.4 				"/>
				<polyline fill="#ED7014" points="34.2,56.5 48.6,49.4 48.8,24 				"/>
			</g>
		</g>
		<g>
			<g>
				<g>
					<polygon fill="#FFC114" points="33,0.9 36.7,15.8 29.3,22.2 24.4,13.7 					"/>
					<polyline fill="#FFCD50" points="29.3,22.2 24.4,13.7 33,0.9 					"/>
				</g>
				<g>
					<polygon fill="#F9A035" points="31.5,9.4 26.4,17.1 29.3,22.2 33.7,18.4 					"/>
					<polyline fill="#FF9A15" points="29.3,22.2 33.7,18.4 31.5,9.4 					"/>
				</g>
			</g>
		</g>
	</g>
	<g>
		<path fill="#FFFCEE" d="M53.6,15.2c-1.3-1.5-3.6-1.6-5.1-0.2c-1.4,1.3-1.6,3.5-0.4,4.9c-1.4,0.9-3.1,2.4-5.2,4.3
			c-5.7,5.2-3,3.8-1.5,5.5c1.5,1.7-0.1,4.2,5.6-1c2.1-1.9,3.7-3.5,4.8-4.8c1.4,1.3,3.5,1.4,5,0.1c1.5-1.3,1.6-3.6,0.2-5.1
			c-0.6-0.7-1.5-1.1-2.4-1.2C54.6,16.8,54.3,15.9,53.6,15.2z"/>
		<path fill="#EDE9D9" d="M41.4,29.7c1.5,1.7-0.1,4.2,5.6-1c2.1-1.9,3.7-3.5,4.8-4.8c1.4,1.3,3.5,1.4,5,0.1c1.5-1.3,1.6-3.6,0.2-5.1
			c-0.6-0.7-1.5-1.1-2.4-1.2"/>
		<path fill="#EDE9D9" d="M41.4,29.7c1.5,1.7-0.1,4.2,5.6-1c0.5-0.5,1-0.9,1.4-1.3c-0.5-0.8-1.1-1.7-1.8-2.5c-0.7-0.8-1.5-1.5-2.3-2
			c-0.5,0.4-0.9,0.8-1.5,1.3C37.2,29.4,39.9,28,41.4,29.7z"/>
		<path fill="#874B15" d="M41.3,29.2c5.7,6.3-1.8,22.5-9.4,29.4S15.7,63.9,10,57.6c-5.7-6.3-6.5-15,1.2-21.9
			C18.7,28.8,35.5,22.9,41.3,29.2z"/>
		<path fill="#68300B" d="M41.3,29.2c5.7,6.3-1.8,22.5-9.4,29.4S15.7,63.9,10,57.6"/>
		<g>
			<path fill="#874B15" d="M44.6,26.2c2.5,2.8,1.6,7.7-0.2,9.3c-1.8,1.7-4.8,0.3-7.3-2.5c-2.5-2.8-3.6-5.9-1.8-7.5
				C37.1,23.8,42.1,23.4,44.6,26.2z"/>
			<path fill="#68300B" d="M44.6,26.2c2.5,2.8,1.6,7.7-0.2,9.3c-1.8,1.7-4.8,0.3-7.3-2.5"/>
		</g>
		<g>
			<g>
				<circle fill="#874B15" cx="17" cy="55.6" r="1"/>
				<circle fill="#874B15" cx="21.9" cy="51.2" r="1"/>
				<circle fill="#874B15" cx="26.8" cy="46.7" r="1"/>
				<circle fill="#874B15" cx="31.7" cy="42.3" r="1"/>
				<circle fill="#874B15" cx="36.5" cy="37.8" r="1"/>
			</g>
			<g>
				<circle fill="#874B15" cx="22.7" cy="56.4" r="1"/>
				<circle fill="#874B15" cx="27.6" cy="51.9" r="1"/>
				<circle fill="#874B15" cx="32.5" cy="47.5" r="1"/>
				<circle fill="#874B15" cx="37.4" cy="43" r="1"/>
			</g>
			<g>
				<circle fill="#874B15" cx="28" cy="57.1" r="1"/>
				<circle fill="#874B15" cx="32.8" cy="52.6" r="1"/>
			</g>
		</g>
		<path fill="#A56B2D" d="M29.2,29.8c0.9,1.4-5.9,7.2-10.6,10.2c-4.7,3-7.8,3.4-8.7,2c-0.9-1.4,0.8-4,5.5-7
			C20.2,32.1,28.4,28.4,29.2,29.8z"/>
		<g>
			<g>
				<circle fill="#68300B" cx="12.8" cy="51" r="1"/>
				<circle fill="#68300B" cx="17.7" cy="46.5" r="1"/>
				<circle fill="#68300B" cx="22.6" cy="42.1" r="1"/>
				<circle fill="#68300B" cx="27.4" cy="37.6" r="1"/>
				<circle fill="#68300B" cx="32.3" cy="33.2" r="1"/>
			</g>
			<g>
				<circle fill="#68300B" cx="12.6" cy="45.2" r="1"/>
				<circle fill="#68300B" cx="17.5" cy="40.8" r="1"/>
				<circle fill="#68300B" cx="22.4" cy="36.3" r="1"/>
				<circle fill="#68300B" cx="27.2" cy="31.9" r="1"/>
			</g>
			<g>
				<circle fill="#68300B" cx="12.4" cy="39.9" r="1"/>
				<circle fill="#68300B" cx="17.2" cy="35.5" r="1"/>
			</g>
		</g>
	</g>
</g>
</svg>
