<?xml version="1.0" encoding="utf-8"?>
<!-- Generator: Adobe Illustrator 16.0.0, SVG Export Plug-In . SVG Version: 6.00 Build 0)  -->
<!DOCTYPE svg PUBLIC "-//W3C//DTD SVG 1.1//EN" "http://www.w3.org/Graphics/SVG/1.1/DTD/svg11.dtd">
<svg version="1.1" id="Layer_1" xmlns="http://www.w3.org/2000/svg" xmlns:xlink="http://www.w3.org/1999/xlink" x="0px" y="0px"
	 width="64px" height="64px" viewBox="0 0 64 64" enable-background="new 0 0 64 64" xml:space="preserve">
<g>
	<polygon fill="#FFD00B" points="63,56 1,56 1,23 40.1,8 63,23 	"/>
	<rect x="1" y="23" fill="#F79E00" width="62" height="33"/>
	<polyline fill="#F47A00" points="1,23 63,23 63,56 	"/>
	<g>
		<circle fill="#FFD00B" cx="14.6" cy="36.8" r="4.6"/>
		<circle fill="#FFED0D" cx="15.4" cy="37.6" r="3.5"/>
	</g>
	<g>
		<circle fill="#FFD00B" cx="51.6" cy="46.6" r="4.6"/>
		<circle fill="#FFED0D" cx="52.4" cy="47.5" r="3.5"/>
	</g>
	<g>
		<circle fill="#FFD00B" cx="34.5" cy="43.9" r="3.1"/>
		<circle fill="#FFED0D" cx="35" cy="44.5" r="2.4"/>
	</g>
	<g>
		<circle fill="#FFD00B" cx="43.5" cy="35.8" r="2.2"/>
		<circle fill="#FFED0D" cx="43.9" cy="36.2" r="1.7"/>
	</g>
	<g>
		<circle fill="#FFD00B" cx="27.2" cy="30" r="2.8"/>
		<circle fill="#FFED0D" cx="27.6" cy="30.5" r="2.1"/>
	</g>
	<g>
		<circle fill="#FFD00B" cx="6.8" cy="28.1" r="1.9"/>
		<circle fill="#FFED0D" cx="7.1" cy="28.5" r="1.5"/>
	</g>
	<g>
		<circle fill="#FFD00B" cx="24.2" cy="40.2" r="1.9"/>
		<circle fill="#FFED0D" cx="24.5" cy="40.5" r="1.5"/>
	</g>
	<g>
		<ellipse fill="#F79E00" cx="43.8" cy="16.6" rx="2.8" ry="1.6"/>
		<ellipse fill="#FFB40D" cx="44.3" cy="16.9" rx="2.1" ry="1.2"/>
	</g>
	<g>
		<ellipse fill="#F79E00" cx="37" cy="14" rx="1.9" ry="1.1"/>
		<ellipse fill="#FFB40D" cx="37.3" cy="14.2" rx="1.4" ry="0.8"/>
	</g>
	<g>
		<ellipse fill="#F79E00" cx="25" cy="18.3" rx="1.3" ry="0.8"/>
		<ellipse fill="#FFB40D" cx="25.3" cy="18.5" rx="1" ry="0.6"/>
	</g>
	<g>
		<ellipse fill="#F79E00" cx="32.2" cy="19.7" rx="1.6" ry="0.9"/>
		<ellipse fill="#FFB40D" cx="32.5" cy="19.9" rx="1.2" ry="0.7"/>
	</g>
	<g>
		<ellipse fill="#F79E00" cx="49.4" cy="20.4" rx="1.1" ry="0.7"/>
		<ellipse fill="#FFB40D" cx="49.6" cy="20.5" rx="0.9" ry="0.5"/>
	</g>
	<g>
		<ellipse fill="#F79E00" cx="16.6" cy="20" rx="1.1" ry="0.7"/>
		<ellipse fill="#FFB40D" cx="16.8" cy="20.1" rx="0.9" ry="0.5"/>
	</g>
	<g>
		<ellipse fill="#F79E00" cx="32.5" cy="16.6" rx="0.8" ry="0.5"/>
		<ellipse fill="#FFB40D" cx="32.6" cy="16.7" rx="0.6" ry="0.4"/>
	</g>
	<g>
		<ellipse fill="#F79E00" cx="55.6" cy="20.8" rx="0.8" ry="0.5"/>
		<ellipse fill="#FFB40D" cx="55.7" cy="20.9" rx="0.6" ry="0.4"/>
	</g>
	<g>
		<circle fill="#FFD00B" cx="28.6" cy="50.4" r="1.9"/>
		<circle fill="#FFED0D" cx="28.9" cy="50.7" r="1.5"/>
	</g>
	<g>
		<circle fill="#FFD00B" cx="58.3" cy="34" r="1.9"/>
		<circle fill="#FFED0D" cx="58.6" cy="34.3" r="1.5"/>
	</g>
	<g>
		<circle fill="#FFD00B" cx="6" cy="44.9" r="1.3"/>
		<path fill="#FFED0D" d="M7.2,45.1c0,0.5-0.4,1-1,1s-1-0.4-1-1c0-0.5,0.4-1,1-1S7.2,44.6,7.2,45.1z"/>
	</g>
	<g>
		<circle fill="#FFD00B" cx="49.1" cy="30.4" r="1.3"/>
		<circle fill="#FFED0D" cx="49.3" cy="30.6" r="1"/>
	</g>
	<g>
		<circle fill="#FFD00B" cx="38.6" cy="29.5" r="1.3"/>
		<circle fill="#FFED0D" cx="38.8" cy="29.7" r="1"/>
	</g>
	<g>
		<circle fill="#FFD00B" cx="15.2" cy="46.4" r="0.8"/>
		<circle fill="#FFED0D" cx="15.3" cy="46.5" r="0.6"/>
	</g>
	<g>
		<path fill="#FFD00B" d="M11.6,50.6c0,0.5-0.4,0.8-0.8,0.8c-0.5,0-0.8-0.4-0.8-0.8c0-0.5,0.4-0.8,0.8-0.8
			C11.2,49.8,11.6,50.1,11.6,50.6z"/>
		<circle fill="#FFED0D" cx="10.9" cy="50.7" r="0.6"/>
	</g>
	<g>
		<path fill="#FFD00B" d="M44,47.5c0,0.5-0.4,0.8-0.8,0.8c-0.5,0-0.8-0.4-0.8-0.8s0.4-0.8,0.8-0.8C43.6,46.7,44,47.1,44,47.5z"/>
		<circle fill="#FFED0D" cx="43.3" cy="47.7" r="0.6"/>
	</g>
</g>
</svg>
