<?xml version="1.0" encoding="utf-8"?>
<!-- Generator: Adobe Illustrator 16.0.0, SVG Export Plug-In . SVG Version: 6.00 Build 0)  -->
<!DOCTYPE svg PUBLIC "-//W3C//DTD SVG 1.1//EN" "http://www.w3.org/Graphics/SVG/1.1/DTD/svg11.dtd">
<svg version="1.1" id="Layer_1" xmlns="http://www.w3.org/2000/svg" xmlns:xlink="http://www.w3.org/1999/xlink" x="0px" y="0px"
	 width="64px" height="64px" viewBox="0 0 64 64" enable-background="new 0 0 64 64" xml:space="preserve">
<g>
	<g>
		<g>
			<g>
				<g>
					<path fill="#C98028" d="M59,28c0,8.5-12.1,6.2-27,6.2S5,36.5,5,28c0-8.5,12.1-15.5,27-15.5S59,19.4,59,28z"/>
					<path fill="#E5A641" d="M59,28c0,8.5-12.1-0.2-27-0.2S5,36.5,5,28c0-8.5,12.1-15.5,27-15.5S59,19.4,59,28z"/>
					<path fill="#D89636" d="M32,12.5c14.9,0,27,6.9,27,15.5c0,8.5-12.1-0.2-27-0.2"/>
					<ellipse fill="#D38D31" cx="24.4" cy="17.2" rx="1.9" ry="0.7"/>
					<ellipse fill="#D38D31" cx="29.5" cy="20.6" rx="1.9" ry="0.7"/>
					<ellipse fill="#E5A641" cx="40.6" cy="20.1" rx="1.9" ry="0.7"/>
					<ellipse fill="#E5A641" cx="36.8" cy="16.5" rx="1.4" ry="0.5"/>
					<ellipse fill="#E5A641" cx="48.7" cy="23.7" rx="1.4" ry="0.5"/>
					<ellipse fill="#D38D31" cx="19.1" cy="20.5" rx="1.4" ry="0.5"/>
				</g>
				<path fill="#F2C56D" d="M15.7,19.6c1,0.9,0,3.4-2.3,5.5c-2.3,2.1-5,3.2-6,2.2c-1-0.9,0-3.4,2.3-5.5S14.7,18.7,15.7,19.6z"/>
			</g>
			<g>
				<g>
					<path fill="#52A305" d="M18.4,36.4c0,0-9.2-4.7-13.6-2.8c-4.3,2-2.5,6.1-0.3,6.3c0,0-1.1,2.1,0.2,2.8s1.5,0.3,1.5,0.3
						s-1.6,0.8-1.2,3.6s5.1,3.7,5.9-3.3c0.5-4.3,6-5.8,6-5.8l2.8-0.2L18.4,36.4z"/>
					<path fill="#448400" d="M10.9,43.4c0.5-4.3,6-5.8,6-5.8l2.8-0.2l-1.2-1c0,0-4.4-2.3-8.6-3c-1.8-0.3-3.6-0.3-5,0.3"/>
					<path fill="#76CE19" d="M5.2,34.4c0.3,0.2,0,0.9-0.5,1.6c-0.6,0.7-1.3,1-1.5,0.8c-0.3-0.2,0-0.9,0.5-1.6
						C4.3,34.6,4.9,34.2,5.2,34.4z"/>
					<path fill="#76CE19" d="M6.1,37.7c0.3,0.1,0.4,0.6,0.2,1.3c-0.2,0.7-0.5,1.2-0.8,1.1s-0.4-0.7-0.2-1.3
						C5.5,38.2,5.8,37.7,6.1,37.7z"/>
					<path fill="#76CE19" d="M7.1,43.4c0.3,0.1,0.1,0.7-0.2,1.3c-0.4,0.6-0.9,1-1.1,0.9c-0.2-0.1-0.2-0.7,0.2-1.3
						C6.4,43.6,6.9,43.2,7.1,43.4z"/>
				</g>
				<g>
					<path fill="#52A305" d="M45.6,36.4c0,0,9.2-4.7,13.6-2.8c4.3,2,2.5,6.1,0.3,6.3c0,0,1.1,2.1-0.2,2.8s-1.5,0.3-1.5,0.3
						s1.6,0.8,1.2,3.6s-5.1,3.7-5.9-3.3c-0.5-4.3-6-5.8-6-5.8l-2.8-0.2L45.6,36.4z"/>
					<path fill="#448400" d="M53.1,43.4c-0.5-4.3-6-5.8-6-5.8l-2.8-0.2l1.2-1c0,0,4.4-2.3,8.6-3c1.8-0.3,3.6-0.3,5,0.3"/>
					<path fill="#76CE19" d="M58.8,34.4c-0.3,0.2,0,0.9,0.5,1.6c0.6,0.7,1.3,1,1.5,0.8c0.3-0.2,0-0.9-0.5-1.6
						C59.7,34.6,59.1,34.2,58.8,34.4z"/>
					<path fill="#76CE19" d="M57.9,37.7c-0.3,0.1-0.4,0.6-0.2,1.3c0.2,0.7,0.5,1.2,0.8,1.1c0.3-0.1,0.4-0.7,0.2-1.3
						C58.5,38.2,58.2,37.7,57.9,37.7z"/>
					<path fill="#76CE19" d="M56.9,43.4c-0.3,0.1-0.1,0.7,0.2,1.3c0.4,0.6,0.9,1,1.1,0.9c0.2-0.1,0.2-0.7-0.2-1.3
						C57.6,43.6,57.1,43.2,56.9,43.4z"/>
				</g>
			</g>
			<path fill="#A56016" d="M58.4,54.9c0,7.3-11.8,8.3-26.4,8.3c-14.6,0-26.4-1.1-26.4-8.3s11.8-6.4,26.4-6.4
				C46.6,48.5,58.4,47.6,58.4,54.9z"/>
			<path fill="#D38D31" d="M58.4,54.9c0,7.3-11.8,8.3-26.4,8.3c-14.6,0-26.4-1.1-26.4-8.3s11.8-2.7,26.4-2.7
				C46.6,52.2,58.4,47.6,58.4,54.9z"/>
			<path fill="#C67822" d="M32,52.2c14.6,0,26.4-4.5,26.4,2.7S46.6,63.2,32,63.2"/>
			<g>
				<path fill="#FFD400" d="M56.7,39.5c0,1.4-1.3,2.5-2.8,2.5H10.1c-1.6,0-2.8-1.1-2.8-2.5l0,0c0-1.4,1.3-2.5,2.8-2.5h43.8
					C55.4,37,56.7,38.1,56.7,39.5L56.7,39.5z"/>
				<path fill="#FFB000" d="M56.7,39.4L56.7,39.4c0,1.4-1.3,2.6-2.8,2.6H10.1c-1.6,0-2.8-1.1-2.8-2.6l0,0"/>
			</g>
			<g>
				<path fill="#6D3113" d="M56.3,46c0,2.1-1.8,4-4.1,4H11.8c-2.3,0-4.1-1.9-4.1-4l0,0c0-2.1,1.8-4,4.1-4h40.4
					C54.5,42,56.3,43.9,56.3,46L56.3,46z"/>
				<path fill="#562306" d="M56.3,46.1c0,2.1-1.8,3.9-4.1,3.9H11.8c-2.3,0-4.1-1.8-4.1-3.9l0,0c0-2.1,1.8-4.1,4.1-1.1h40.4
					C54.5,42,56.3,44,56.3,46.1L56.3,46.1z"/>
			</g>
			<g>
				<path fill="#FFFFFF" d="M55.9,35.9c0,2.1-10.7,1-23.9,1S8.1,38,8.1,35.9C8.1,33.8,18.8,32,32,32S55.9,33.8,55.9,35.9z"/>
				<path fill="#E2D9C5" d="M32,32c13.2,0,23.9,1.7,23.9,3.8c0,2.1-10.7,1-23.9,1"/>
			</g>
			<g>
				<path fill="#FFB000" d="M44.5,32.4c0,2-5.6,0.9-12.5,0.9c-6.9,0-12.5,1.1-12.5-0.9c0-2,5.6-3.6,12.5-3.6
					C38.9,28.9,44.5,30.5,44.5,32.4z"/>
				<path fill="#FF8B00" d="M32,28.9c6.9,0,12.5,1.6,12.5,3.6c0,2-5.6,0.9-12.5,0.9"/>
			</g>
			<path fill="#E5A641" d="M15,57.1c-0.6,1.4-2.8,1.9-4.8,1.1c-2.1-0.8-3.3-2.5-2.7-3.8c0.6-1.4,2.8-1.9,4.8-1.1
				C14.3,54,15.6,55.7,15,57.1z"/>
			<path fill="#FFD400" d="M30.1,30c0.1,0.4-1.3,1.1-3.1,1.4c-1.8,0.3-3.3,0.2-3.4-0.2c-0.1-0.4,1.3-1.1,3.1-1.4
				C28.5,29.5,30,29.6,30.1,30z"/>
			<path fill="#FFFFFF" d="M16.2,37.1c0,0,1.2-0.2,1.8,0.9c0.5,1.1,1.9,1.1,3.9,0.3c1.9-0.8,2.7-0.1,3.7,1.1c1,1.2,2.5-1.6,3.4-0.5
				s1.6,1.6,1.9,1.9c0.8,0.7,1.1,0,1.1,0v-4.9L21.8,35l-3,1.2L16.2,37.1z"/>
			<path fill="#E2D9C5" d="M47.8,37.1c0,0-1.2-0.2-1.8,0.9c-0.5,1.1-1.9,1.1-3.9,0.3c-1.9-0.8-2.7-0.1-3.7,1.1
				c-1,1.2-2.5-1.6-3.4-0.5s-1.6,1.6-1.9,1.9c-0.8,0.7-1.1,0-1.1,0v-4.9L42.2,35l3,1.2L47.8,37.1z"/>
		</g>
		<ellipse fill="#C98028" cx="32" cy="15.2" rx="4" ry="1"/>
		<path fill="#562306" d="M33,14.2c0,0.6-0.5,1-1,1l0,0c-0.5,0-1-0.5-1-1V1.8c0-0.6,0.5-1,1-1l0,0c0.5,0,1,0.5,1,1V14.2z"/>
		<polygon fill="#F73939" points="33,1.7 33,9.9 42.6,5.8 		"/>
		<polygon fill="#D32E26" points="33,5.5 33,9.9 42.6,5.8 		"/>
	</g>
	<ellipse fill="#E5A641" cx="21" cy="54.2" rx="1.6" ry="0.6"/>
	<ellipse fill="#E5A641" cx="25.8" cy="58" rx="1.6" ry="0.6"/>
	<ellipse fill="#E5A641" cx="28.6" cy="55.2" rx="1.6" ry="0.6"/>
	<ellipse fill="#A56016" cx="43.3" cy="55.3" rx="1.6" ry="0.6"/>
	<ellipse fill="#A56016" cx="38" cy="58.4" rx="1.6" ry="0.6"/>
	<ellipse fill="#A56016" cx="48.3" cy="58.7" rx="1.6" ry="0.6"/>
</g>
</svg>
