<?xml version="1.0" encoding="utf-8"?>
<!-- Generator: Adobe Illustrator 16.0.0, SVG Export Plug-In . SVG Version: 6.00 Build 0)  -->
<!DOCTYPE svg PUBLIC "-//W3C//DTD SVG 1.1//EN" "http://www.w3.org/Graphics/SVG/1.1/DTD/svg11.dtd">
<svg version="1.1" id="Layer_1" xmlns="http://www.w3.org/2000/svg" xmlns:xlink="http://www.w3.org/1999/xlink" x="0px" y="0px"
	 width="64px" height="64px" viewBox="0 0 64 64" enable-background="new 0 0 64 64" xml:space="preserve">
<g>
	<path fill="#562306" d="M44.9,22c-0.4,0-0.9,0-1.3,0.1c-1.8-4.8-6.3-8.2-11.7-8.2c-5.4,0-9.9,3.4-11.7,8.2c-0.4,0-0.9-0.1-1.3-0.1
		C12,22,6.4,27.6,6.4,34.5C6.4,41.4,12,47,18.9,47c5.4,0,9.9-3.4,11.7-8.2c0.4,0,0.9,0.1,1.3,0.1c0.4,0,0.9,0,1.3-0.1
		C35,43.6,39.5,47,44.9,47c6.9,0,12.5-5.6,12.5-12.5C57.4,27.6,51.8,22,44.9,22z"/>
	<path fill="#3D1704" d="M30.6,38.8c0.4,0,0.9,0.1,1.3,0.1c0.4,0,0.9,0,1.3-0.1C35,43.6,39.5,47,44.9,47c6.9,0,12.5-5.6,12.5-12.5
		c0-6.9-5.6-12.5-12.5-12.5c-0.4,0-0.9,0-1.3,0.1c-1.8-4.8-6.3-8.2-11.7-8.2"/>
	<g>
		<g>
			<polygon fill="#74B208" points="45.9,62 17.6,62 6.3,37 57.7,37 			"/>
			<polyline fill="#3E9904" points="7,37 57.7,37 46.1,62 			"/>
			<polygon fill="#F7E98B" points="41.5,62 22.5,62 14.7,37 49.3,37 			"/>
			<polyline fill="#FFB31A" points="15,37 49.3,37 41.7,61.6 			"/>
			<polygon fill="#3E9904" points="35.7,62 28.3,62 25.2,37 38.8,37 			"/>
			<polyline fill="#74B208" points="36,62 28.3,62 25.4,37.4 			"/>
		</g>
		<path fill="#3E9904" d="M58.8,36.5c0,0.4-0.5,0.5-1,0.5H6.3c-0.6,0-1-0.1-1-0.5l0,0c0-0.4,0.5-0.5,1-0.5h51.5
			C58.3,36,58.8,36.1,58.8,36.5L58.8,36.5z"/>
		<path fill="#3E9904" d="M47.6,62.5c0,0.4-0.4,0.5-0.9,0.5H17.3c-0.5,0-0.9-0.1-0.9-0.5l0,0c0-0.4,0.4-0.5,0.9-0.5h29.5
			C47.2,62,47.6,62.1,47.6,62.5L47.6,62.5z"/>
	</g>
	
		<ellipse transform="matrix(0.8652 -0.5014 0.5014 0.8652 -11.1512 10.685)" fill="#7A3817" cx="14.3" cy="26.1" rx="4.5" ry="1.7"/>
	
		<ellipse transform="matrix(0.8652 -0.5014 0.5014 0.8652 -7.7825 25.2732)" fill="#562306" cx="43.1" cy="27.1" rx="4.5" ry="1.7"/>
	
		<ellipse transform="matrix(0.8652 -0.5014 0.5014 0.8652 -5.8042 16.1628)" fill="#7A3817" cx="27.2" cy="18.9" rx="4.5" ry="1.7"/>
	<path fill="#F7E98B" d="M23.8,27c0.1,0.2,0,0.5-0.2,0.6l-4,1.8c-0.2,0.1-0.5,0-0.6-0.2l0,0c-0.1-0.2,0-0.5,0.2-0.6l4-1.8
		C23.5,26.7,23.7,26.8,23.8,27L23.8,27z"/>
	<path fill="#91EDEA" d="M49.5,31.9c-0.1,0.2-0.4,0.4-0.6,0.3l-4.1-1.5c-0.2-0.1-0.4-0.4-0.3-0.6l0,0c0.1-0.2,0.4-0.4,0.6-0.3
		l4.1,1.5C49.4,31.4,49.6,31.7,49.5,31.9L49.5,31.9z"/>
	<path fill="#F7E98B" d="M14.4,31.9c0,0.3-0.2,0.4-0.3,0.4L11.6,32c-0.1,0-0.2-0.2-0.2-0.5l0,0c0-0.3,0.2-0.5,0.3-0.4l2.4,0.3
		C14.3,31.5,14.4,31.7,14.4,31.9L14.4,31.9z"/>
	<path fill="#F7E98B" d="M39.6,31.8c0,0.3-0.2,0.4-0.3,0.4l-2.4-0.3c-0.1,0-0.2-0.2-0.2-0.5l0,0c0-0.3,0.2-0.5,0.3-0.4l2.4,0.3
		C39.5,31.3,39.6,31.5,39.6,31.8L39.6,31.8z"/>
	<path fill="#F7E98B" d="M38.3,21.6c0,0.3-0.2,0.4-0.3,0.4l-2.4-0.3c-0.1,0-0.2-0.2-0.2-0.5l0,0c0-0.3,0.2-0.5,0.3-0.4l2.4,0.3
		C38.3,21.1,38.4,21.3,38.3,21.6L38.3,21.6z"/>
	<path fill="#91EDEA" d="M41.5,26c0,0.3-0.2,0.4-0.3,0.4l-2.4-0.3c-0.1,0-0.2-0.2-0.2-0.5l0,0c0-0.3,0.2-0.5,0.3-0.4l2.4,0.3
		C41.5,25.5,41.6,25.7,41.5,26L41.5,26z"/>
	<path fill="#91EDEA" d="M29.3,21.8c0.1,0.2,0.2,0.5,0,0.5l-2,1.4c-0.1,0.1-0.3,0-0.5-0.2l0,0c-0.1-0.2-0.2-0.5,0-0.5l2-1.4
		C28.9,21.5,29.1,21.6,29.3,21.8L29.3,21.8z"/>
	<path fill="#91EDEA" d="M16.2,25.6c0.2,0.2,0.3,0.4,0.2,0.5l-1.4,2c-0.1,0.1-0.3,0.1-0.5-0.1l0,0c-0.2-0.2-0.3-0.4-0.2-0.5l1.4-2
		C15.7,25.4,16,25.4,16.2,25.6L16.2,25.6z"/>
	<path fill="#FF7C76" d="M31.4,31.7c0,0.3-0.2,0.4-0.3,0.4l-2.4-0.3c-0.1,0-0.2-0.2-0.2-0.5l0,0c0-0.3,0.2-0.5,0.3-0.4l2.4,0.3
		C31.4,31.2,31.5,31.4,31.4,31.7L31.4,31.7z"/>
	<path fill="#FF7C76" d="M22.1,33.2c-0.2-0.1-0.4-0.3-0.4-0.4l0.8-2.3c0-0.1,0.3-0.2,0.5-0.1l0,0c0.2,0.1,0.4,0.3,0.4,0.4l-0.8,2.3
		C22.6,33.3,22.3,33.3,22.1,33.2L22.1,33.2z"/>
	<path fill="#FF7C76" d="M49.9,27.2c0,0.3-0.2,0.4-0.3,0.4l-2.4-0.3c-0.1,0-0.2-0.2-0.2-0.5l0,0c0-0.3,0.2-0.5,0.3-0.4l2.4,0.3
		C49.9,26.7,50,26.9,49.9,27.2L49.9,27.2z"/>
	<g>
		<circle fill="#D32E26" cx="31.9" cy="11.1" r="5.9"/>
		<path fill="#B20202" d="M36.1,6.9c2.3,2.3,2.3,6.1,0,8.4c-2.3,2.3-6.1,2.3-8.4,0"/>
		<ellipse transform="matrix(0.822 -0.5696 0.5696 0.822 0.8089 18.257)" fill="#F24141" cx="29.6" cy="7.8" rx="2.8" ry="0.9"/>
	</g>
	<path fill="#3D1704" d="M33,6.3C33,6.7,32.4,7,32,7l0,0c-0.4,0-1-0.3-1-0.7V1.8c0-0.4,0.6-0.7,1-0.7l0,0c0.4,0,1,0.3,1,0.7V6.3z"/>
</g>
</svg>
