<?xml version="1.0" encoding="utf-8"?>
<!-- Generator: Adobe Illustrator 16.0.0, SVG Export Plug-In . SVG Version: 6.00 Build 0)  -->
<!DOCTYPE svg PUBLIC "-//W3C//DTD SVG 1.1//EN" "http://www.w3.org/Graphics/SVG/1.1/DTD/svg11.dtd">
<svg version="1.1" id="Layer_1" xmlns="http://www.w3.org/2000/svg" xmlns:xlink="http://www.w3.org/1999/xlink" x="0px" y="0px"
	 width="64px" height="64px" viewBox="0 0 64 64" enable-background="new 0 0 64 64" xml:space="preserve">
<g>
	<g>
		<path fill="#EAE5D8" d="M56.8,23.7c0,12-11.1,15.8-24.8,15.8c-13.7,0-24.8-3.7-24.8-15.8S18.3,1.9,32,1.9
			C45.7,1.9,56.8,11.6,56.8,23.7z"/>
		<path fill="#FFFFFF" d="M55.3,23c0,11.7-10.8,15.3-24.1,15.3C18,38.3,7.2,34.7,7.2,23S18,1.9,31.3,1.9C44.5,1.9,55.3,11.3,55.3,23
			z"/>
		<path fill="#F4F1E6" d="M31.3,1.9c13.3,0,24.1,9.5,24.1,21.1S44.5,38.3,31.3,38.3"/>
		<g>
			<ellipse fill="#FFB000" cx="31.3" cy="16.9" rx="10" ry="7.8"/>
			<path fill="#FF7900" d="M31.3,9c5.5,0,10,3.5,10,7.8c0,4.3-4.5,7.8-10,7.8"/>
		</g>
		
			<ellipse transform="matrix(0.7971 -0.6038 0.6038 0.7971 -2.689 18.5818)" fill="#FFDA00" cx="26.3" cy="13.3" rx="4.2" ry="1.5"/>
		<circle fill="#F4F1E6" cx="16.8" cy="21.9" r="1.3"/>
		<circle fill="#FFFFFF" cx="46.5" cy="21.3" r="1.3"/>
		<circle fill="#F4F1E6" cx="14.4" cy="29.1" r="1.5"/>
		<circle fill="#FFFFFF" cx="43.6" cy="29.7" r="2.1"/>
		<circle fill="#F4F1E6" cx="17.7" cy="11.9" r="1.1"/>
		<circle fill="#FFFFFF" cx="39" cy="7.3" r="1.1"/>
	</g>
	<g>
		<path fill="#C95039" d="M57,42.1c-2-0.9-6.6-1.7-12.1-1.8C38.7,40.3,33.6,41,32.2,42h0c-1.2,1-6.4,2-12.8,1.9
			C13.6,43.8,9,43.1,7,42.1v7.4c2,1,6.5,1.7,12.2,1.8c6.4,0.1,11.7-0.7,12.9-1.8c0,0,0,0,0,0c1.3-1.1,6.5-1.8,12.7-1.7
			c5.7,0.1,10.2,0.8,12.2,1.8V42.1z"/>
		<path fill="#AD361A" d="M57,42.1c-2-0.9-6.6-1.7-12.1-1.7c-5.5-0.1-10.1,0.5-12.1,1.3L32.7,49c2-0.9,6.6-1.4,12-1.3
			c5.7,0.1,10.2,0.8,12.2,1.8V42.1z"/>
		<path fill="#ED8A72" d="M57,46.6c-2-1-6.6-1.7-12.2-1.8c-6.2-0.1-11.4,0.7-12.8,1.7c0,0,0,0,0,0c-1.1,1.1-6.4,1.9-12.8,1.8
			C13.5,48.3,9,47.5,7,46.6v1c2,1,6.6,1.7,12.3,1.8c6.4,0.1,11.7-0.7,12.9-1.8c0,0,0,0,0,0c1.3-1.1,6.5-1.8,12.7-1.7
			c5.6,0.1,10.2,0.8,12.2,1.8V46.6z"/>
		<path fill="#ED8A72" d="M57,44c-2-0.9-6.6-1.7-12.1-1.7c-6.2-0.1-11.4,0.7-12.8,1.7c0,0,0,0,0,0c-1.1,1.1-6.4,1.9-12.8,1.8
			C13.5,45.7,9,45,7,44v1c2,1,6.5,1.8,12.3,1.8c6.4,0.1,11.7-0.7,12.9-1.8c0,0,0,0,0,0c1.4-1.1,6.5-1.8,12.7-1.7
			C50.5,43.3,55,44.1,57,45V44z"/>
	</g>
	<g>
		<path fill="#C95039" d="M7,60.4c2,0.9,6.6,1.5,12.1,1.5C25.3,62,30.4,61,31.8,60h0c1.2-1,6.4-1.7,12.8-1.6
			c5.8,0.1,10.3,1.1,12.3,2v-7.4c-2-1-6.5-1.7-12.2-1.8C38.4,51.2,33,52,31.9,53.1c0,0,0,0,0,0c-1.3,1.1-6.5,1.8-12.7,1.7
			C13.5,54.8,9,54,7,53V60.4z"/>
		<path fill="#AD361A" d="M7,60.4c2,0.9,6.6,1.7,12.1,1.7c5.5,0.1,10.1-0.9,12.1-1.8l0.1-6.9c-2,0.9-6.6,1.4-12,1.3
			C13.6,54.8,9,54,7,53V60.4z"/>
		<path fill="#ED8A72" d="M7,55.9c2,1,6.6,1.7,12.2,1.8c6.2,0.1,11.4-0.7,12.8-1.7c0,0,0,0,0,0c1.1-1.1,6.4-1.9,12.8-1.8
			C50.5,54.2,55,55,57,56v-1c-2-1-6.6-1.7-12.3-1.8C38.3,53,33,53.8,31.9,55c0,0,0,0,0,0c-1.3,1.1-6.5,1.8-12.7,1.7
			C13.5,56.6,9,55.9,7,54.9V55.9z"/>
		<path fill="#ED8A72" d="M7,58.5c2,0.9,6.6,1.7,12.1,1.7c6.2,0.1,11.4-0.7,12.8-1.7c0,0,0,0,0,0c1.2-1.1,6.4-1.9,12.8-1.8
			c5.8,0.1,10.3,0.8,12.3,1.8v-1c-2-1-6.5-1.8-12.3-1.8c-6.4-0.1-11.7,0.7-12.9,1.8c0,0,0,0,0,0c-1.4,1.1-6.5,1.8-12.7,1.7
			C13.5,59.2,9,58.4,7,57.5V58.5z"/>
	</g>
</g>
</svg>
