<?xml version="1.0" encoding="utf-8"?>
<!-- Generator: Adobe Illustrator 16.0.0, SVG Export Plug-In . SVG Version: 6.00 Build 0)  -->
<!DOCTYPE svg PUBLIC "-//W3C//DTD SVG 1.1//EN" "http://www.w3.org/Graphics/SVG/1.1/DTD/svg11.dtd">
<svg version="1.1" id="Layer_1" xmlns="http://www.w3.org/2000/svg" xmlns:xlink="http://www.w3.org/1999/xlink" x="0px" y="0px"
	 width="64px" height="64px" viewBox="0 0 64 64" enable-background="new 0 0 64 64" xml:space="preserve">
<g>
	<g>
		<g>
			<path fill="#C6872C" d="M60.2,30c0,3.7-12.6,3.1-28.2,3.1S3.8,33.7,3.8,30c0-3.7,12.6-6.2,28.2-6.2S60.2,26.3,60.2,30z"/>
			<path fill="#F2C05C" d="M60.2,30c0,3.7-12.6,0.2-28.2,0.2S3.8,33.7,3.8,30c0-3.7,12.6-6.2,28.2-6.2S60.2,26.3,60.2,30z"/>
			<path fill="#E5A641" d="M60.2,30c0,3.7-12.6,0.2-28.2,0.2S3.8,33.7,3.8,30c0-3.7,13-5,28.6-5C47.9,25,60.2,26.3,60.2,30z"/>
			<ellipse fill="#C6872C" cx="18.1" cy="28" rx="1.2" ry="0.5"/>
			<path fill="#C6872C" d="M10.4,29.1c0.1,0.2-0.2,0.4-0.6,0.4c-0.4,0.1-0.8,0-0.9-0.2C8.8,29.2,9.1,29,9.5,29
				C9.9,28.9,10.3,29,10.4,29.1z"/>
			<ellipse fill="#C6872C" cx="31.7" cy="26.9" rx="1.2" ry="0.5"/>
			<path fill="#C6872C" d="M52.7,29.9c-0.1,0.3-0.7,0.4-1.4,0.3c-0.7-0.1-1.1-0.4-1-0.7c0.1-0.3,0.7-0.4,1.4-0.3
				C52.3,29.3,52.8,29.6,52.7,29.9z"/>
			<ellipse fill="#C6872C" cx="44.1" cy="28.4" rx="0.8" ry="0.3"/>
			<ellipse fill="#C6872C" cx="39.7" cy="27" rx="0.8" ry="0.3"/>
			<ellipse fill="#C6872C" cx="26" cy="28.4" rx="0.8" ry="0.3"/>
		</g>
		<g>
			<path fill="#C6872C" d="M3.8,48.7c0-3.7,12.6-3.1,28.2-3.1s28.2-0.6,28.2,3.1c0,3.7-12.6,6.2-28.2,6.2S3.8,52.4,3.8,48.7z"/>
			<path fill="#F2C05C" d="M3.8,48.7c0-3.7,12.6-0.2,28.2-0.2s28.2-3.5,28.2,0.2c0,3.7-12.6,6.2-28.2,6.2S3.8,52.4,3.8,48.7z"/>
			<path fill="#E5A641" d="M3.8,48.7c0-3.7,12.6-0.2,28.2-0.2s28.2-3.5,28.2,0.2c0,3.7-13,5-28.6,5C16.1,53.7,3.8,52.4,3.8,48.7z"/>
			<ellipse fill="#C6872C" cx="45.9" cy="50.7" rx="1.2" ry="0.5"/>
			<path fill="#C6872C" d="M53.6,49.5c-0.1-0.2,0.2-0.4,0.6-0.4c0.4-0.1,0.8,0,0.9,0.2s-0.2,0.4-0.6,0.4
				C54.1,49.8,53.7,49.7,53.6,49.5z"/>
			<ellipse fill="#C6872C" cx="32.3" cy="51.8" rx="1.2" ry="0.5"/>
			<path fill="#C6872C" d="M11.3,48.8c0.1-0.3,0.7-0.4,1.4-0.3c0.7,0.1,1.1,0.4,1,0.7c-0.1,0.3-0.7,0.4-1.4,0.3
				C11.7,49.4,11.2,49.1,11.3,48.8z"/>
			<ellipse fill="#C6872C" cx="19.9" cy="50.2" rx="0.8" ry="0.3"/>
			<ellipse fill="#C6872C" cx="24.3" cy="51.7" rx="0.8" ry="0.3"/>
			<ellipse fill="#C6872C" cx="38" cy="50.2" rx="0.8" ry="0.3"/>
		</g>
	</g>
	<path fill="#A54300" d="M63.5,39c0,3.8-3.1,7-7,7H7.4c-3.8,0-7-3.2-7-7l0,0c0-3.8,3.1-7,7-7h49.1C60.4,32,63.5,35.2,63.5,39
		L63.5,39z"/>
	<path fill="#823500" d="M63.5,39c0,2.8-3.1,5-7,5H7.4c-3.8,0-7-2.2-7-5l0,0c0-2.8,3.1-5,7-5h49.1C60.4,34,63.5,36.2,63.5,39
		L63.5,39z"/>
	<path fill="#722F01" d="M63.5,39c0,1.7-3.1,3-7,3H7.4c-3.8,0-7-1.3-7-3l0,0c0-1.7,3.1-3,7-3h49.1C60.4,36,63.5,37.3,63.5,39
		L63.5,39z"/>
	<g>
		<ellipse fill="#823500" cx="1.6" cy="39.3" rx="0.7" ry="1.1"/>
		<ellipse fill="#823500" cx="62.4" cy="39.3" rx="0.7" ry="1.1"/>
	</g>
	<g>
		<g>
			<g>
				<path fill="#F7D323" d="M53.2,34c2.9,0,5.3,2.4,5.3,5.3c0,0.6-0.5,1.1-1.1,1.1c-0.6,0-1.1-0.5-1.1-1.1c0-1.7-1.4-3.1-3.1-3.1
					c-1.7,0-3.1,1.4-3.1,3.1c0,0.6-0.5,1.1-1.1,1.1c-0.6,0-1.1-0.5-1.1-1.1C47.9,36.3,50.3,34,53.2,34z"/>
			</g>
			<g>
				<path fill="#FF9100" d="M44.7,44.7c-2.9,0-5.3-2.4-5.3-5.3c0-0.6,0.5-1.1,1.1-1.1s1.1,0.5,1.1,1.1c0,1.7,1.4,3.1,3.1,3.1
					c1.7,0,3.1-1.4,3.1-3.1c0-0.6,0.5-1.1,1.1-1.1c0.6,0,1.1,0.5,1.1,1.1C50.1,42.3,47.7,44.7,44.7,44.7z"/>
			</g>
		</g>
		<g>
			<g>
				<path fill="#F7D323" d="M36.2,34c2.9,0,5.3,2.4,5.3,5.3c0,0.6-0.5,1.1-1.1,1.1s-1.1-0.5-1.1-1.1c0-1.7-1.4-3.1-3.1-3.1
					c-1.7,0-3.1,1.4-3.1,3.1c0,0.6-0.5,1.1-1.1,1.1c-0.6,0-1.1-0.5-1.1-1.1C30.9,36.3,33.3,34,36.2,34z"/>
			</g>
			<g>
				<path fill="#FF9100" d="M27.8,44.7c-2.9,0-5.3-2.4-5.3-5.3c0-0.6,0.5-1.1,1.1-1.1c0.6,0,1.1,0.5,1.1,1.1c0,1.7,1.4,3.1,3.1,3.1
					c1.7,0,3.1-1.4,3.1-3.1c0-0.6,0.5-1.1,1.1-1.1c0.6,0,1.1,0.5,1.1,1.1C33.1,42.3,30.7,44.7,27.8,44.7z"/>
			</g>
		</g>
		<g>
			<g>
				<path fill="#F7D323" d="M19.3,34c2.9,0,5.3,2.4,5.3,5.3c0,0.6-0.5,1.1-1.1,1.1c-0.6,0-1.1-0.5-1.1-1.1c0-1.7-1.4-3.1-3.1-3.1
					c-1.7,0-3.1,1.4-3.1,3.1c0,0.6-0.5,1.1-1.1,1.1c-0.6,0-1.1-0.5-1.1-1.1C13.9,36.3,16.3,34,19.3,34z"/>
			</g>
			<g>
				<path fill="#FF9100" d="M10.8,44.7c-2.9,0-5.3-2.4-5.3-5.3c0-0.6,0.5-1.1,1.1-1.1c0.6,0,1.1,0.5,1.1,1.1c0,1.7,1.4,3.1,3.1,3.1
					c1.7,0,3.1-1.4,3.1-3.1c0-0.6,0.5-1.1,1.1-1.1c0.6,0,1.1,0.5,1.1,1.1C16.1,42.3,13.7,44.7,10.8,44.7z"/>
			</g>
		</g>
	</g>
	<path d="M31.8,24.2c0,0.4-0.3,0.8-0.8,0.8h-0.5c-0.4,0-0.8-0.3-0.8-0.8V13.8c0-0.4,0.3-0.8,0.8-0.8H31c0.4,0,0.8,0.3,0.8,0.8V24.2z
		"/>
	<circle cx="30.8" cy="13.8" r="4.7"/>
	<circle fill="#F7D323" cx="30.8" cy="13.8" r="2.3"/>
	<path fill="#FF9100" d="M32.4,12.2c0.9,0.9,0.9,2.4,0,3.3c-0.9,0.9-2.4,0.9-3.3,0"/>
</g>
</svg>
