<?xml version="1.0" encoding="utf-8"?>
<!-- Generator: Adobe Illustrator 16.0.0, SVG Export Plug-In . SVG Version: 6.00 Build 0)  -->
<!DOCTYPE svg PUBLIC "-//W3C//DTD SVG 1.1//EN" "http://www.w3.org/Graphics/SVG/1.1/DTD/svg11.dtd">
<svg version="1.1" id="Layer_1" xmlns="http://www.w3.org/2000/svg" xmlns:xlink="http://www.w3.org/1999/xlink" x="0px" y="0px"
	 width="64px" height="64px" viewBox="0 0 64 64" enable-background="new 0 0 64 64" xml:space="preserve">
<g>
	<rect x="1" y="37" width="62" height="25"/>
	<g>
		<g>
			<path fill="#DBD2D5" d="M62.3,43.8c0,5.4-8.7,5.8-19.4,5.8c-10.7,0-19.4-0.4-19.4-5.8c0-5.4,8.7-9.8,19.4-9.8
				C53.6,34,62.3,38.4,62.3,43.8z"/>
			<path fill="#EA5647" d="M42.9,34c9.8,0,18,3.7,19.2,8.5c0.1-0.4,0.2-0.7,0.2-1.2c0-5.4-8.7-15.9-19.4-15.9
				c-10.7,0-19.4,10.5-19.4,15.9c0,0.4,0.1,0.8,0.2,1.2C25,37.7,33.1,34,42.9,34z"/>
			<path fill="#D32E26" d="M42.9,34c9.8,0,18,3.7,19.2,8.5c0.1-0.4,0.2-0.7,0.2-1.2c0-5.4-8.7-13.5-19.4-13.5
				c-10.7,0-19.4,8.1-19.4,13.5c0,0.4,0.1,0.8,0.2,1.2C25,37.7,33.1,34,42.9,34z"/>
			<path fill="#B51212" d="M42.9,34c9.8,0,18,3.7,19.2,8.5c0.1-0.4,0.2-0.7,0.2-1.2c0-5.4-8.7-9.8-19.4-9.8
				c-10.7,0-19.4,4.4-19.4,9.8c0,0.4,0.1,0.8,0.2,1.2C25,37.7,33.1,34,42.9,34z"/>
			<path fill="#FFFFFF" d="M62.3,43.8c0,5.4-8.7,4.6-19.4,4.6c-10.7,0-19.4,0.8-19.4-4.6c0-5.4,8.7-7.4,19.4-7.4
				C53.6,36.4,62.3,38.4,62.3,43.8z"/>
			<path fill="#FF7C76" d="M41,25.5V34c1,0,1.1,0,1.6,0c0.4,0,1.4,0,1.4,0v-8.5c0,0-0.9-0.1-1.4-0.1C42.1,25.4,42,25.5,41,25.5z"/>
			<g>
				<g>
					<path fill="#FF7C76" d="M34.2,35c0.9-0.2,1.8-0.4,2.7-0.6l-1.6-7.3c-0.9,0.4-1.7,0.9-2.5,1.4L34.2,35z"/>
					<path fill="#FF7C76" d="M28.2,37.4c0.8-0.5,1.6-0.9,2.6-1.3L28,32.6c-0.7,0.7-1.3,1.5-1.8,2.2L28.2,37.4z"/>
				</g>
				<g>
					<path fill="#FF7C76" d="M48.6,34.4c0.9,0.1,1.9,0.3,2.7,0.5l1.5-6.5c-0.8-0.5-1.7-1-2.6-1.4L48.6,34.4z"/>
					<path fill="#FF7C76" d="M57.5,37.3l2-2.7c-0.5-0.7-1.1-1.5-1.8-2.2l-2.8,3.7C55.8,36.5,56.7,36.9,57.5,37.3z"/>
				</g>
			</g>
			<circle fill="#DBD2D5" cx="28.5" cy="41.9" r="0.8"/>
			<circle fill="#DBD2D5" cx="53" cy="41" r="0.8"/>
			<circle fill="#DBD2D5" cx="32.3" cy="45.1" r="0.8"/>
			<circle fill="#DBD2D5" cx="57" cy="44.5" r="0.8"/>
			<circle fill="#DBD2D5" cx="51.9" cy="45.5" r="0.5"/>
			<circle fill="#DBD2D5" cx="39.5" cy="44.4" r="0.5"/>
			<circle fill="#DBD2D5" cx="35.9" cy="42" r="0.5"/>
			<circle fill="#DBD2D5" cx="32.7" cy="40.7" r="0.5"/>
			<circle fill="#DBD2D5" cx="45.5" cy="43.2" r="0.8"/>
		</g>
		<g>
			<polygon fill="#494949" points="17.2,34.2 15.4,34.3 12.5,2.3 16.3,2.1 			"/>
			<polyline points="12.5,2.3 16.3,2.1 17.2,34.2 			"/>
		</g>
		<g>
			<polygon fill="#494949" points="20.5,34.1 18.7,33.9 20.7,1.9 24.4,2.2 			"/>
			<polyline points="20.7,1.9 24.4,2.2 20.5,34.1 			"/>
		</g>
		<g>
			<path fill="#DBD2D5" d="M47.2,53.5c0,6.3-10.1,6.7-22.5,6.7c-12.4,0-22.5-0.4-22.5-6.7c0-6.3,10.1-11.4,22.5-11.4
				C37.1,42.1,47.2,47.2,47.2,53.5z"/>
			<path fill="#E53871" d="M24.7,42.1c11.4,0,20.9,4.3,22.3,9.9c0.1-0.4,0.2-0.9,0.2-1.4c0-6.3-10.1-18.5-22.5-18.5
				c-12.4,0-22.5,12.2-22.5,18.5c0,0.5,0.1,0.9,0.2,1.4C3.8,46.5,13.2,42.1,24.7,42.1z"/>
			<path fill="#D32054" d="M24.7,42.1c11.4,0,20.9,4.3,22.3,9.9c0.1-0.4,0.2-0.9,0.2-1.4c0-6.3-10.1-15.7-22.5-15.7
				C12.2,35,2.1,44.4,2.1,50.7c0,0.5,0.1,0.9,0.2,1.4C3.8,46.5,13.2,42.1,24.7,42.1z"/>
			<path fill="#B51248" d="M24.7,42.1c11.4,0,20.9,4.3,22.3,9.9c0.1-0.4,0.2-0.9,0.2-1.4c0-6.3-10.1-11.4-22.5-11.4
				c-12.4,0-22.5,5.1-22.5,11.4c0,0.5,0.1,0.9,0.2,1.4C3.8,46.5,13.2,42.1,24.7,42.1z"/>
			<path fill="#FFFFFF" d="M47.2,53.5c0,6.3-10.1,5.3-22.5,5.3c-12.4,0-22.5,1-22.5-5.3c0-6.3,10.1-8.6,22.5-8.6
				C37.1,45,47.2,47.2,47.2,53.5z"/>
			<path fill="#FF7C76" d="M23,32.3v9.9c0,0,1,0,1.6,0c0.5,0,1.4,0,1.4,0v-9.9c0,0-0.9-0.1-1.4-0.1C24,32.2,23,32.2,23,32.3z"/>
			<g>
				<g>
					<path fill="#FF7C76" d="M14.6,43.4c1-0.3,2.1-0.5,3.2-0.7l-1.9-8.5c-1,0.5-2,1-3,1.6L14.6,43.4z"/>
					<path fill="#FF7C76" d="M7.5,46.2c0.9-0.5,1.9-1,3-1.5l-3.2-4.2c-0.8,0.9-1.5,1.7-2.1,2.6L7.5,46.2z"/>
				</g>
				<g>
					<path fill="#FF7C76" d="M31.3,42.7c1.1,0.2,2.2,0.4,3.2,0.6l1.7-7.6c-1-0.6-1.9-1.1-3-1.6L31.3,42.7z"/>
					<path fill="#FF7C76" d="M41.6,46l2.4-3.1c-0.6-0.9-1.3-1.7-2.1-2.6l-3.2,4.2C39.7,45,40.7,45.5,41.6,46z"/>
				</g>
			</g>
			<circle fill="#DBD2D5" cx="7.9" cy="51.3" r="1"/>
			<circle fill="#DBD2D5" cx="36.4" cy="50.3" r="1"/>
			<circle fill="#DBD2D5" cx="12.3" cy="55" r="1"/>
			<circle fill="#DBD2D5" cx="41.1" cy="54.4" r="1"/>
			<circle fill="#DBD2D5" cx="35.1" cy="55.6" r="0.6"/>
			<circle fill="#DBD2D5" cx="20.7" cy="54.2" r="0.6"/>
			<circle fill="#DBD2D5" cx="16.6" cy="51.5" r="0.6"/>
			<circle fill="#DBD2D5" cx="12.8" cy="50" r="0.6"/>
			<circle fill="#DBD2D5" cx="27.7" cy="52.9" r="1"/>
		</g>
		<ellipse fill="#B51212" cx="42.8" cy="26.8" rx="2.8" ry="0.7"/>
		<path d="M43,26.3c0,0.5-0.1,0.5-0.5,0.5l0,0c-0.4,0-0.5,0-0.5-0.5V10c0-0.5,0.1-0.9,0.5-0.9l0,0c0.4,0,0.5,0.4,0.5,0.9V26.3z"/>
		<rect x="43" y="10" fill="#494949" width="13" height="8"/>
		<polyline points="43,10 56,10 56,18 		"/>
		<circle fill="#D32E26" cx="49.6" cy="14.3" r="2.6"/>
		<path fill="#A80000" d="M51.4,12.5c1,1,1,2.7,0,3.7c-1,1-2.7,1-3.7,0"/>
	</g>
</g>
</svg>
