<?xml version="1.0" encoding="utf-8"?>
<!-- Generator: Adobe Illustrator 16.0.0, SVG Export Plug-In . SVG Version: 6.00 Build 0)  -->
<!DOCTYPE svg PUBLIC "-//W3C//DTD SVG 1.1//EN" "http://www.w3.org/Graphics/SVG/1.1/DTD/svg11.dtd">
<svg version="1.1" id="Layer_1" xmlns="http://www.w3.org/2000/svg" xmlns:xlink="http://www.w3.org/1999/xlink" x="0px" y="0px"
	 width="64px" height="64px" viewBox="0 0 64 64" enable-background="new 0 0 64 64" xml:space="preserve">
<g>
	<g>
		<circle fill="#F2871C" cx="43.9" cy="19.4" r="14.4"/>
		<path fill="#E5580A" d="M43.9,5c7.9,0,14.4,6.4,14.4,14.4c0,7.9-6.4,14.4-14.4,14.4"/>
		<circle fill="#FFCE00" cx="43.9" cy="19.4" r="11.5"/>
		<path fill="#FFB000" d="M52,11.2c4.5,4.5,4.5,11.8,0,16.3c-4.5,4.5-11.8,4.5-16.3,0"/>
		<g>
			<g>
				<g>
					<path fill="#F2871C" d="M42.1,12.6L42.1,12.6l1.8,4.2l1.8-4.2l0,0c0.1-0.2,0.2-0.5,0.2-0.8c0-1.1-0.9-1.9-1.9-1.9
						c-1.1,0-2,0.9-2,1.9C41.9,12.1,42,12.4,42.1,12.6z"/>
					<path fill="#80C612" d="M45.7,26.2L45.7,26.2L43.9,22l-1.8,4.2l0,0c-0.1,0.2-0.2,0.5-0.2,0.8c0,1.1,0.9,1.9,1.9,1.9
						c1.1,0,1.9-0.9,1.9-1.9C45.8,26.7,45.8,26.4,45.7,26.2z"/>
				</g>
				<g>
					<g>
						<path fill="#F2871C" d="M50.6,17.6L50.6,17.6l-4.2,1.8l4.2,1.8l0,0c0.2,0.1,0.5,0.2,0.8,0.2c1.1,0,1.9-0.9,1.9-1.9
							c0-1.1-0.9-1.9-1.9-1.9C51.2,17.4,50.9,17.5,50.6,17.6z"/>
					</g>
					<g>
						<path fill="#F2871C" d="M37.1,21.2L37.1,21.2l4.2-1.8l-4.2-1.8l0,0c-0.2-0.1-0.5-0.2-0.8-0.2c-1.1,0-1.9,0.9-1.9,1.9
							c0,1.1,0.9,1.9,1.9,1.9C36.6,21.3,36.9,21.3,37.1,21.2z"/>
					</g>
				</g>
			</g>
			<g>
				<g>
					<path fill="#F2871C" d="M47.5,13L47.5,13l-1.7,4.4l4.3-1.5v0c0.2-0.1,0.4-0.2,0.7-0.4c0.8-0.8,0.7-2,0-2.8
						c-0.8-0.8-2-0.9-2.8-0.2C47.7,12.7,47.6,12.8,47.5,13z"/>
					<path fill="#80C612" d="M40.4,25.4L40.4,25.4l1.7-4.2l-4.2,1.7l0,0c-0.3,0.1-0.5,0.2-0.7,0.4c-0.8,0.8-0.8,2,0,2.8
						c0.8,0.8,2,0.8,2.8,0C40.1,25.9,40.3,25.7,40.4,25.4z"/>
				</g>
				<g>
					<g>
						<path fill="#F2871C" d="M50,22.9L50,22.9L45.7,21l1.7,4h0c0.1,1,0.2,0.7,0.4,0.9c0.8,0.8,2,0.9,2.8,0.1c0.8-0.8,1-1.8,0.3-2.6
							C50.7,23.2,50.3,23,50,22.9z"/>
					</g>
					<g>
						<path fill="#F2871C" d="M38,15.9L38,15.9l4.1,1.5L40.4,13l0,0c-0.1-0.2-0.3-0.5-0.5-0.7c-0.8-0.8-1.9-0.5-2.7,0.2
							c-0.8,0.8-0.9,2-0.1,2.7C37.3,15.5,37.8,15.8,38,15.9z"/>
					</g>
				</g>
			</g>
		</g>
	</g>
	<g>
		<path fill="#68300B" d="M50,28.7c0,4-3.3,7.3-7.3,7.3H20.3c-4,0-7.3-3.3-7.3-7.3v-0.4c0-4,3.3-7.3,7.3-7.3h22.4
			c4,0,7.7,3.3,7.7,7.3L50,28.7z"/>
		<g>
			<path fill="#74B208" d="M62.9,49c0,5.5-3.7,10-8.2,10H9.3c-4.6,0-8.2-4.5-8.2-10l7.7-13.1c0-5.5,3.7-9.8,8.2-9.8H47
				c4.5,0,8.2,4.3,8.2,9.8L62.9,49z"/>
			<path fill="#4AAF09" d="M62.9,49c0,5.5-3.7,10-8.2,10H9.3c-4.6,0-8.2-4.5-8.2-10"/>
			<path fill="#91D115" d="M50.4,49c0,5.5-2.2,10-4.9,10h-27c-2.7,0-4.9-4.5-4.9-10l4.6-13.1c0-5.5,2.2-9.8,4.9-9.8H41
				c2.7,0,4.9,4.3,4.9,9.8L50.4,49z"/>
			<path fill="#5FCE17" d="M50.4,49c0,5.5-2.2,10-4.9,10h-27c-2.7,0-4.9-4.5-4.9-10"/>
			<path fill="#74B208" d="M39.3,49c0,5.5-0.9,10-1.9,10H26.6c-1.1,0-1.9-4.5-1.9-10l1.8-13.1c0-5.5,0.9-9.8,1.9-9.8h7.1
				c1.1,0,1.9,4.3,1.9,9.8L39.3,49z"/>
			<path fill="#4AAF09" d="M39.3,49c0,5.5-0.9,10-1.9,10H26.6c-1.1,0-1.9-4.5-1.9-10"/>
		</g>
		
			<ellipse transform="matrix(-0.9236 -0.3833 0.3833 -0.9236 11.0101 66.3729)" fill="#91D115" cx="12.1" cy="32.1" rx="1.8" ry="5.1"/>
		
			<ellipse transform="matrix(-0.9967 -8.116454e-02 8.116454e-02 -0.9967 54.4495 67.2133)" fill="#91D115" cx="28.6" cy="32.5" rx="1.2" ry="4.9"/>
		
			<ellipse transform="matrix(-0.9797 -0.2005 0.2005 -0.9797 33.9526 68.1044)" fill="#BDE854" cx="20.4" cy="32.3" rx="1.2" ry="4.9"/>
		<path fill="#9B4D21" d="M45.3,22.5c0,0.4-0.3,0.5-0.7,0.5H19.4c-0.4,0-0.7-0.1-0.7-0.5l0,0c0-0.4,0.3-0.5,0.7-0.5h25.2
			C45,22,45.3,22.1,45.3,22.5L45.3,22.5z"/>
		<path fill="#68300B" d="M14.2,25.6c0,0-1.3,2.6,0.2,2s3.8-2.6,2.4-1c-5.1,6.3-2.4,7.8-1.2,5.7c1.2-2.1,5.2-5.8,5.4-4.2
			s1.4,2.9,3.6,0.8c2.2-2.1,4.2-0.6,4.8,0.2c0.6,0.8,1.8,1.1,2.6-0.4c0.8-1.5,1.4-2.8,2.6,1.3c1.2,4.2,3.8,22.8,4.7,16.2
			c0.9-6.6-1.2-18.1,1-15.9c2.2,2.2,3.5,1.8,3.6-0.9c0.1-2.7,6.9,2.6,7,0.2c0.1-2.3-1.6-5.3-1.9-5.3s-18.1,0-18.1,0L16,24.8
			L14.2,25.6z"/>
		
			<ellipse transform="matrix(0.9793 -0.2026 0.2026 0.9793 -5.4332 8.0075)" fill="#9B4D21" cx="36.4" cy="30.5" rx="0.5" ry="3.2"/>
		<ellipse transform="matrix(0.836 -0.5487 0.5487 0.836 -9.241 27.1768)" fill="#9B4D21" cx="40.9" cy="29" rx="0.5" ry="1.7"/>
		
			<ellipse transform="matrix(-0.9998 2.199225e-02 -2.199225e-02 -0.9998 45.203 54.2465)" fill="#9B4D21" cx="22.3" cy="27.4" rx="0.4" ry="1.5"/>
		<ellipse transform="matrix(-0.974 0.2266 -0.2266 -0.974 65.564 47.553)" fill="#9B4D21" cx="30.1" cy="27.5" rx="0.4" ry="1.5"/>
		
			<ellipse transform="matrix(-0.7575 0.6528 -0.6528 -0.7575 98.7281 17.8416)" fill="#9B4D21" cx="46.1" cy="27.3" rx="0.4" ry="1.5"/>
		
			<ellipse transform="matrix(-0.7577 -0.6526 0.6526 -0.7577 13.9474 58.524)" fill="#9B4D21" cx="17.8" cy="26.7" rx="0.5" ry="1.7"/>
		
			<ellipse transform="matrix(-0.6639 -0.7478 0.7478 -0.6639 9.2746 52.951)" fill="#9B4D21" cx="16.5" cy="24.4" rx="0.7" ry="2.4"/>
		<path fill="#91D115" d="M5.2,47.7C5.1,48,4.6,48.1,4.3,48l0,0C4,47.8,3.8,47.4,4,47l5.5-10.6c0.2-0.3,0.6-0.5,0.9-0.3l0,0
			c0.3,0.2,0.5,0.6,0.3,0.9L5.2,47.7z"/>
		<path fill="#91D115" d="M27.4,47.1c0,0.3-0.4,0.5-0.8,0.5l0,0c-0.4-0.1-0.6-0.4-0.6-0.7l1.4-10.1c0-0.3,0.4-0.5,0.8-0.5l0,0
			c0.4,0.1,0.6,0.4,0.6,0.7L27.4,47.1z"/>
		<path fill="#BDE854" d="M17.2,47.4c-0.1,0.3-0.5,0.5-0.8,0.4l0,0c-0.4-0.1-0.6-0.5-0.5-0.8l3-10.7c0.1-0.3,0.5-0.5,0.8-0.4l0,0
			c0.4,0.1,0.6,0.5,0.5,0.8L17.2,47.4z"/>
		
			<ellipse transform="matrix(0.8302 -0.5574 0.5574 0.8302 -29.0849 12.1871)" fill="#91D115" cx="5.5" cy="53.8" rx="1.5" ry="4.5"/>
		
			<ellipse transform="matrix(0.9027 -0.4303 0.4303 0.9027 -21.6626 12.6482)" fill="#BDE854" cx="17.1" cy="54.2" rx="1.6" ry="4"/>
		
			<ellipse transform="matrix(-0.8302 -0.5574 0.5574 -0.8302 77.2075 131.1975)" fill="#279E00" cx="58.6" cy="53.8" rx="1.5" ry="4.5"/>
		
			<ellipse transform="matrix(-0.9027 -0.4302 0.4302 -0.9027 65.9472 123.3419)" fill="#4AAF09" cx="46.9" cy="54.2" rx="1.6" ry="4"/>
		
			<ellipse transform="matrix(0.9994 -3.472807e-02 3.472807e-02 0.9994 -1.8579 0.9923)" fill="#91D115" cx="27.6" cy="54" rx="1.6" ry="3.6"/>
	</g>
</g>
</svg>
