<?xml version="1.0" encoding="utf-8"?>
<!-- Generator: Adobe Illustrator 16.0.0, SVG Export Plug-In . SVG Version: 6.00 Build 0)  -->
<!DOCTYPE svg PUBLIC "-//W3C//DTD SVG 1.1//EN" "http://www.w3.org/Graphics/SVG/1.1/DTD/svg11.dtd">
<svg version="1.1" id="Layer_1" xmlns="http://www.w3.org/2000/svg" xmlns:xlink="http://www.w3.org/1999/xlink" x="0px" y="0px"
	 width="64px" height="64px" viewBox="0 0 64 64" enable-background="new 0 0 64 64" xml:space="preserve">
<g>
	<path fill="#9E683C" d="M30.4,1c-17-2.2-27,10.3-29.2,27.1C-1,44.9,14.4,60.8,31.4,63c17,2.2,29.2-10,31.4-26.8
		C65,19.4,47.4,3.2,30.4,1z M39.3,34.2c-1.1,4-4.5,6.5-8.5,5.3c-4-1.1-7.1-5.5-6-9.4c1.1-4,3.9-6.6,7.9-5.5
		C36.7,25.8,40.4,30.3,39.3,34.2z"/>
	<g>
		<path fill="#824B22" d="M30.4,1l0.4,23.2c0,0,0.1,0,0.1,0c0.8,0,1.6,0.2,2.3,0.7c3.8,1.3,7.2,5.6,6.1,9.4
			c-1.1,3.9-4.3,6.4-8.3,5.4L31.4,63c17,2.2,29.2-10,31.4-26.8C65,19.4,47.4,3.2,30.4,1z"/>
	</g>
	<path fill="#D1844A" d="M13.7,16.1c-3.4,5.3-7.5,8.7-9.1,7.6c-1.6-1.1-0.2-6.2,3.3-11.4C11.3,7,15.3,3.6,17,4.6
		C18.6,5.7,17.1,10.8,13.7,16.1z"/>
	<path fill="#96C639" d="M27,5.1C12,5.1,4.7,17.1,4.7,32S19.9,58.9,35,58.9S59.3,46.9,59.3,32S42.1,5.1,27,5.1z M38.5,33
		c-0.5,3.6-3.1,6.1-6.8,5.6c-3.6-0.5-6.8-3.9-6.3-7.5c0.5-3.6,2.7-6.2,6.3-5.7C35.4,25.9,39.1,29.4,38.5,33z"/>
	<g>
		<path fill="#71B716" d="M31.5,5.4l1.3,19.9c0.1,0.1,0.2,0.3,0.3,0.4c3.1,1.1,5.9,4.1,5.4,7.2c-0.4,2.9-2.2,5.2-4.9,5.6
			c0,0,0,0,0,0.1L35,58.9c15.1,0,24.3-12.1,24.3-26.9C59.3,18.6,45.3,7.4,31.5,5.4z"/>
	</g>
	<path fill="#B2DD2C" d="M31.5,19.9C24.9,19,21,23.8,20,30.3c-0.9,6.5,5,12.8,11.6,13.7C38.2,45,43,40.3,44,33.8
		C44.9,27.3,38.1,20.9,31.5,19.9z M38.5,33c-0.5,3.6-3.1,6.1-6.8,5.6c-3.6-0.5-6.8-3.9-6.3-7.5c0.5-3.6,2.7-6.2,6.3-5.7
		C35.4,25.9,39.1,29.4,38.5,33z"/>
	<g>
		<path fill="#96C639" d="M31.5,19.9l0,5.4c0,0,0,0,0,0c0.2,0,0.4,0.1,0.6,0.2c3.5,0.7,6.8,4.1,6.3,7.5c-0.5,3.5-3.1,6.1-6.6,5.6
			c-0.1,0-0.2,0-0.3,0l0,5.4C38.2,45,43,40.3,44,33.8C44.9,27.3,38.1,20.9,31.5,19.9z"/>
	</g>
	<g>
		<ellipse transform="matrix(0.9231 -0.3845 0.3845 0.9231 -15.3299 7.29)" fill="#417F0B" cx="10.6" cy="42" rx="1.8" ry="1.4"/>
		
			<ellipse transform="matrix(0.7319 -0.6814 0.6814 0.7319 -24.0081 23.8736)" fill="#417F0B" cx="18.3" cy="42.4" rx="1.2" ry="0.8"/>
		
			<ellipse transform="matrix(0.9892 0.1465 -0.1465 0.9892 5.5673 -1.3006)" fill="#417F0B" cx="11.6" cy="37.2" rx="1.2" ry="0.8"/>
		<path fill="#417F0B" d="M16.5,39.3c0.1,0.4-0.3,0.7-0.7,0.8c-0.5,0.1-0.9-0.1-1-0.5c-0.1-0.4,0.3-0.7,0.7-0.8
			C16,38.7,16.4,38.9,16.5,39.3z"/>
		
			<ellipse transform="matrix(0.9788 -0.2049 0.2049 0.9788 -6.7075 3.9277)" fill="#417F0B" cx="15.6" cy="34.4" rx="0.6" ry="0.4"/>
		<ellipse transform="matrix(0.9781 -0.2082 0.2082 0.9781 -6.3287 2.5029)" fill="#417F0B" cx="8.7" cy="31.3" rx="0.6" ry="0.4"/>
	</g>
	<g>
		<path fill="#417F0B" d="M23.2,51.9c0.7,0.3,0.8,1.3,0.4,2.3c-0.5,0.9-1.4,1.4-2,1.1c-0.7-0.3-0.8-1.3-0.4-2.3
			C21.7,52.1,22.6,51.6,23.2,51.9z"/>
		<path fill="#417F0B" d="M28.7,47.7c0.5,0,0.8,0.6,0.7,1.2c-0.1,0.6-0.5,1.1-1,1.1s-0.8-0.6-0.7-1.2C27.8,48.1,28.3,47.6,28.7,47.7
			z"/>
		<path fill="#417F0B" d="M21,48.6c0.3,0.4,0,1-0.5,1.3c-0.5,0.3-1.2,0.3-1.4-0.1c-0.3-0.4,0-1,0.5-1.3C20.1,48.2,20.8,48.2,21,48.6
			z"/>
		
			<ellipse transform="matrix(0.6031 -0.7977 0.7977 0.6031 -28.7954 38.8153)" fill="#417F0B" cx="24.6" cy="48.3" rx="0.9" ry="0.7"/>
		<path fill="#417F0B" d="M21.6,44c0.2,0.1,0.2,0.5,0,0.7c-0.2,0.3-0.5,0.3-0.7,0.2c-0.2-0.1-0.2-0.5,0-0.7
			C21.1,44,21.4,43.9,21.6,44z"/>
		
			<ellipse transform="matrix(0.6019 -0.7986 0.7986 0.6019 -31.7352 29.8174)" fill="#417F0B" cx="14" cy="46.7" rx="0.6" ry="0.4"/>
	</g>
	<g>
		<path fill="#417F0B" d="M38.5,52.8c0.7-0.2,1.5,0.5,1.8,1.4c0.3,1-0.1,1.9-0.8,2.1c-0.7,0.2-1.5-0.5-1.8-1.4
			C37.4,53.9,37.8,52.9,38.5,52.8z"/>
		<path fill="#417F0B" d="M39.9,46c0.4-0.3,1-0.1,1.3,0.5c0.4,0.5,0.4,1.2,0,1.4c-0.4,0.3-1,0.1-1.4-0.5
			C39.5,46.9,39.5,46.2,39.9,46z"/>
		<path fill="#417F0B" d="M34.7,51.7c0.4,0.1,0.7,0.7,0.5,1.3c-0.2,0.6-0.7,1-1.1,0.9c-0.4-0.1-0.7-0.7-0.5-1.3
			C33.7,52,34.2,51.6,34.7,51.7z"/>
		
			<ellipse transform="matrix(-6.833307e-02 -0.9977 0.9977 -6.833307e-02 -9.3141 89.633)" fill="#417F0B" cx="37.2" cy="49.2" rx="0.9" ry="0.7"/>
		<path fill="#417F0B" d="M32.1,47.9c0.2,0,0.4,0.2,0.5,0.6c0,0.3-0.2,0.6-0.4,0.6c-0.2,0-0.4-0.2-0.5-0.6
			C31.7,48.2,31.9,47.9,32.1,47.9z"/>
		<path fill="#417F0B" d="M28.1,54.3c0.2,0,0.4,0.2,0.5,0.6c0,0.3-0.2,0.6-0.4,0.6c-0.2,0-0.5-0.2-0.5-0.6
			C27.7,54.6,27.9,54.3,28.1,54.3z"/>
	</g>
	<g>
		<path fill="#417F0B" d="M50.6,43.4c0.4-0.6,1.5-0.7,2.3-0.1c0.8,0.6,1.2,1.5,0.8,2.2c-0.4,0.6-1.4,0.7-2.3,0.1
			C50.5,45,50.2,44,50.6,43.4z"/>
		<ellipse transform="matrix(-0.97 -0.2429 0.2429 -0.97 85.961 85.8757)" fill="#417F0B" cx="48.3" cy="37.6" rx="1.1" ry="0.8"/>
		<path fill="#417F0B" d="M47,45.1c0.4-0.2,1,0.1,1.2,0.7c0.3,0.6,0.1,1.2-0.3,1.4c-0.4,0.2-1-0.1-1.2-0.7
			C46.5,45.9,46.6,45.3,47,45.1z"/>
		
			<ellipse transform="matrix(-0.7063 -0.7079 0.7079 -0.7063 51.2005 104.2925)" fill="#417F0B" cx="47.2" cy="41.5" rx="0.9" ry="0.7"/>
		<path fill="#417F0B" d="M42.6,43.9c0.2-0.2,0.5-0.1,0.7,0.1c0.2,0.2,0.3,0.5,0.1,0.7c-0.2,0.2-0.5,0.1-0.7-0.1
			C42.4,44.4,42.4,44.1,42.6,43.9z"/>
		<path fill="#417F0B" d="M43.8,51.4c0.2-0.2,0.5-0.1,0.7,0.1c0.2,0.2,0.3,0.6,0.1,0.7c-0.2,0.2-0.5,0.1-0.7-0.1
			C43.6,51.8,43.6,51.5,43.8,51.4z"/>
	</g>
	<g>
		<path fill="#417F0B" d="M53.5,28.4c-0.1-0.7,0.7-1.4,1.7-1.6c1-0.1,1.9,0.4,2,1.1c0.1,0.7-0.7,1.4-1.7,1.6
			C54.5,29.6,53.6,29.1,53.5,28.4z"/>
		<path fill="#417F0B" d="M52,32c0.2-0.4,0.8-0.6,1.4-0.3c0.6,0.3,0.9,0.8,0.7,1.2c-0.2,0.4-0.8,0.6-1.4,0.3
			C52.1,33,51.8,32.4,52,32z"/>
		<path fill="#417F0B" d="M48.9,29.1c0-0.4,0.4-0.6,0.9-0.6c0.5,0,0.9,0.4,0.8,0.7c0,0.4-0.4,0.6-0.9,0.6
			C49.3,29.8,48.9,29.5,48.9,29.1z"/>
		<path fill="#417F0B" d="M47.8,34c0-0.2,0.3-0.4,0.6-0.4c0.3,0,0.6,0.2,0.6,0.5c0,0.2-0.3,0.4-0.6,0.4C48.1,34.5,47.8,34.3,47.8,34
			z"/>
		<path fill="#417F0B" d="M53.6,38.9c0-0.2,0.3-0.4,0.6-0.4c0.3,0,0.6,0.2,0.6,0.5c0,0.2-0.3,0.4-0.6,0.4
			C53.9,39.3,53.6,39.1,53.6,38.9z"/>
	</g>
	<g>
		<path fill="#417F0B" d="M46.9,18.8c-0.6-0.5-0.4-1.5,0.2-2.3c0.7-0.8,1.7-1,2.2-0.5c0.6,0.5,0.4,1.5-0.2,2.3
			C48.4,19.1,47.4,19.3,46.9,18.8z"/>
		
			<ellipse transform="matrix(-0.3752 0.9269 -0.9269 -0.3752 74.9661 -10.021)" fill="#417F0B" cx="40.9" cy="20.3" rx="1.2" ry="0.8"/>
		<path fill="#417F0B" d="M48.1,22.5c-0.1-0.4,0.3-1,0.9-1.1c0.6-0.2,1.2,0,1.3,0.5c0.1,0.4-0.2,1-0.9,1.1
			C48.8,23.2,48.2,23,48.1,22.5z"/>
		<path fill="#417F0B" d="M52.4,23.3c-0.1-0.4,0.3-1,0.9-1.1c0.6-0.2,1.2,0,1.3,0.5c0.1,0.4-0.2,1-0.9,1.1
			C53.1,23.9,52.5,23.7,52.4,23.3z"/>
		<path fill="#417F0B" d="M43.9,22.4c-0.2-0.3-0.1-0.8,0.3-1.1c0.4-0.3,0.9-0.3,1.1,0c0.2,0.3,0.1,0.8-0.3,1.1
			C44.6,22.6,44.1,22.6,43.9,22.4z"/>
		<path fill="#417F0B" d="M46.3,26.8c-0.1-0.2,0-0.5,0.2-0.7c0.3-0.2,0.6-0.2,0.7,0c0.1,0.2,0,0.5-0.2,0.7
			C46.8,27,46.4,27,46.3,26.8z"/>
		<path fill="#417F0B" d="M50.6,25.9c-0.1-0.2,0-0.5,0.2-0.7c0.3-0.2,0.6-0.2,0.7,0c0.1,0.2,0.1,0.5-0.2,0.7
			C51.1,26.1,50.8,26.1,50.6,25.9z"/>
	</g>
	<g>
		<path fill="#417F0B" d="M33.6,11.2c-0.8,0-1.3-0.9-1.3-1.9c0-1,0.6-1.8,1.4-1.8c0.7,0,1.3,0.9,1.3,1.9
			C35,10.4,34.3,11.3,33.6,11.2z"/>
		<path fill="#417F0B" d="M30.4,17.4c-0.4,0.2-1-0.2-1.2-0.8c-0.2-0.6,0-1.2,0.4-1.4c0.4-0.2,1,0.2,1.2,0.8
			C31.1,16.6,30.9,17.2,30.4,17.4z"/>
		<path fill="#417F0B" d="M37,13.3c-0.4-0.2-0.4-0.9-0.1-1.4c0.3-0.5,0.9-0.8,1.3-0.5c0.4,0.2,0.4,0.9,0.1,1.4
			C38,13.3,37.4,13.5,37,13.3z"/>
		<path fill="#417F0B" d="M33.7,15.9c-0.4-0.1-0.6-0.5-0.5-1c0.1-0.5,0.5-0.8,0.8-0.7c0.4,0.1,0.6,0.5,0.5,1
			C34.4,15.7,34,16,33.7,15.9z"/>
		<path fill="#417F0B" d="M38.4,17.7c-0.2-0.1-0.4-0.4-0.3-0.7c0.1-0.3,0.3-0.5,0.5-0.5c0.2,0,0.4,0.3,0.3,0.7
			C38.9,17.5,38.7,17.7,38.4,17.7z"/>
		<path fill="#417F0B" d="M44,12.6c-0.2,0-0.4-0.3-0.3-0.7c0.1-0.3,0.3-0.5,0.5-0.5c0.2,0,0.4,0.3,0.3,0.7
			C44.5,12.5,44.2,12.7,44,12.6z"/>
	</g>
	
		<ellipse transform="matrix(0.8259 0.5639 -0.5639 0.8259 18.8596 -9.3028)" fill="#CEEA59" cx="24.5" cy="25.9" rx="1.9" ry="4.6"/>
	<path fill="#B2DD2C" d="M14,16.2c-2.3,3.4-4.9,5.6-5.7,5c-0.9-0.6,0.3-3.8,2.6-7.2c2.3-3.4,4.9-5.6,5.7-5S16.3,12.9,14,16.2z"/>
	<g>
		
			<ellipse transform="matrix(0.5085 0.8611 -0.8611 0.5085 19.78 -10.4748)" fill="#417F0B" cx="19.1" cy="12.1" rx="1.8" ry="1.4"/>
		
			<ellipse transform="matrix(0.7765 0.6301 -0.6301 0.7765 16.9044 -7.9649)" fill="#417F0B" cx="19.7" cy="19.8" rx="1.2" ry="0.8"/>
		
			<ellipse transform="matrix(-7.643073e-03 1 -1 -7.643073e-03 36.6337 -11.4378)" fill="#417F0B" cx="24" cy="12.5" rx="1.1" ry="0.8"/>
		
			<ellipse transform="matrix(0.3394 0.9406 -0.9406 0.3394 30.4838 -9.8672)" fill="#417F0B" cx="22.3" cy="16.8" rx="0.9" ry="0.7"/>
		<path fill="#417F0B" d="M27.5,16.6c-0.2,0.1-0.5-0.1-0.6-0.4c-0.1-0.3,0-0.6,0.2-0.7c0.2-0.1,0.5,0.1,0.6,0.4
			C27.8,16.2,27.7,16.5,27.5,16.6z"/>
		
			<ellipse transform="matrix(0.3395 0.9406 -0.9406 0.3395 27.6656 -21.8287)" fill="#417F0B" cx="29.4" cy="8.8" rx="0.6" ry="0.4"/>
	</g>
	<g>
		<ellipse transform="matrix(0.9487 0.3161 -0.3161 0.9487 8.5154 -1.6115)" fill="#417F0B" cx="9.2" cy="25.4" rx="1.8" ry="1.4"/>
		
			<ellipse transform="matrix(0.9994 -3.354102e-02 3.354102e-02 0.9994 -1.028 0.5132)" fill="#417F0B" cx="14.8" cy="30.9" rx="1.2" ry="0.8"/>
		<ellipse transform="matrix(0.65 0.7599 -0.7599 0.65 21.7067 -2.147)" fill="#417F0B" cx="13.2" cy="22.5" rx="1.2" ry="0.8"/>
		<path fill="#417F0B" d="M15.5,27.3c-0.2,0.3-0.7,0.4-1.1,0.1c-0.4-0.2-0.6-0.7-0.5-1c0.2-0.3,0.7-0.4,1.1-0.1
			C15.5,26.5,15.7,27,15.5,27.3z"/>
		<ellipse transform="matrix(0.8736 0.4866 -0.4866 0.8736 13.4717 -5.8705)" fill="#417F0B" cx="18" cy="23" rx="0.6" ry="0.4"/>
		
			<ellipse transform="matrix(0.8742 0.4856 -0.4856 0.8742 9.7283 -5.1687)" fill="#417F0B" cx="14.8" cy="16.2" rx="0.6" ry="0.4"/>
	</g>
</g>
</svg>
