<?xml version="1.0" encoding="utf-8"?>
<!-- Generator: Adobe Illustrator 16.0.0, SVG Export Plug-In . SVG Version: 6.00 Build 0)  -->
<!DOCTYPE svg PUBLIC "-//W3C//DTD SVG 1.1//EN" "http://www.w3.org/Graphics/SVG/1.1/DTD/svg11.dtd">
<svg version="1.1" id="Layer_1" xmlns="http://www.w3.org/2000/svg" xmlns:xlink="http://www.w3.org/1999/xlink" x="0px" y="0px"
	 width="64px" height="64px" viewBox="0 0 64 64" enable-background="new 0 0 64 64" xml:space="preserve">
<g>
	<path fill="#FFFFFF" d="M63,54V29.5c-8-3.2-18.8-5.1-31.1-5.1C19.7,24.4,9,26.4,1,29.5V54H63z"/>
	<path fill="#EAEAEA" d="M63,56V31.4c-8-3.2-18.8-5.1-31.1-5.1C19.7,26.3,9,28.2,1,31.4V56H63z"/>
	<path fill="#D1CFCD" d="M31,56h32V31.4c-8-3.2-19-5.2-31.3-5.2"/>
	<path fill="#68300B" d="M63,63V38.6c-8-3.2-18.8-5.1-31.1-5.1C19.7,33.5,9,35.4,1,38.6V63H63z"/>
	<path fill="#491C06" d="M1,63h62V38.6c-8-3.2-18.8-5.3-31.1-5.3"/>
	<g>
		<path fill="#BAABA2" d="M59.3,58c0,0,0-0.3,0-0.3c0-5.9-4.9-10.8-10.9-10.8s-10.9,4.9-10.9,10.8c0,0,0,0.3,0,0.3H59.3z"/>
		<path fill="#A3938B" d="M48.5,57.7c0,0-11,0.3-11,0.3h21.8c0,0,0-0.3,0-0.3c0-5.9-4.9-10.8-10.9-10.8"/>
		<path fill="#7F716B" d="M56.5,57.7c0,0-19,0.3-19,0.3h21.8c0,0,0-0.3,0-0.3c0-5.9-4.9-10.8-10.9-10.8"/>
		<path fill="#68300B" d="M62,58.1c0,0.5-0.4,0.9-0.9,0.9H34.9c-0.5,0-0.9-0.4-0.9-0.9v-0.1c0-0.5,0.4-0.9,0.9-0.9h26.1
			c0.5,0,0.9,0.4,0.9,0.9V58.1z"/>
		<path fill="#E0D5D1" d="M46.6,47.9c0.3,0.5-0.9,2-2.8,3.5c-1.9,1.5-3.7,2.3-4.1,1.8c-0.4-0.5,0.9-2,2.8-3.5
			C44.4,48.2,46.2,47.4,46.6,47.9z"/>
		<circle fill="#BAABA2" cx="50.1" cy="51.4" r="0.5"/>
		<circle fill="#A3938B" cx="53.4" cy="49.7" r="0.5"/>
		<circle fill="#BAABA2" cx="53" cy="54.8" r="0.5"/>
	</g>
	<g>
		<g>
			<path fill="#F7E98B" d="M2.6,46.6c-0.4-0.4-0.4-1.1,0-1.5c4.3-4.3,11.3-4.3,15.6,0c0.4,0.4,0.4,1.1,0,1.5c-0.4,0.4-1.1,0.4-1.5,0
				c-3.5-3.5-9.2-3.5-12.7,0C3.7,47,3,47,2.6,46.6z"/>
		</g>
		<g>
			<path fill="#DBB052" d="M32.6,45.8c0.4,0.4,0.4,1.1,0,1.5c-4.4,4.2-11.5,4-15.6-0.5c-0.4-0.4-0.4-1.1,0-1.5
				c0.4-0.4,1.1-0.4,1.5,0c3.4,3.6,9.1,3.8,12.7,0.4C31.5,45.3,32.2,45.4,32.6,45.8z"/>
		</g>
	</g>
	<g>
		<g>
			<path fill="#F7E98B" d="M2.6,52.7c-0.4-0.4-0.4-1.1,0-1.5c4.3-4.3,11.3-4.3,15.6,0c0.4,0.4,0.4,1.1,0,1.5s-1.1,0.4-1.5,0
				c-3.5-3.5-9.2-3.5-12.7,0C3.7,53.1,3,53.1,2.6,52.7z"/>
		</g>
		<g>
			<path fill="#DBB052" d="M32.6,51.9c0.4,0.4,0.4,1.1,0,1.5c-4.4,4.2-11.5,4-15.6-0.5c-0.4-0.4-0.4-1.1,0-1.5
				c0.4-0.4,1.1-0.4,1.5,0c3.4,3.6,9.1,3.8,12.7,0.4C31.5,51.4,32.2,51.4,32.6,51.9z"/>
		</g>
	</g>
	<g>
		<g>
			<path fill="#F7E98B" d="M2.6,58.8c-0.4-0.4-0.4-1.1,0-1.5c4.3-4.3,11.3-4.3,15.6,0c0.4,0.4,0.4,1.1,0,1.5c-0.4,0.4-1.1,0.4-1.5,0
				c-3.5-3.5-9.2-3.5-12.7,0C3.7,59.2,3,59.2,2.6,58.8z"/>
		</g>
		<g>
			<path fill="#DBB052" d="M32.6,57.9c0.4,0.4,0.4,1.1,0,1.5c-4.4,4.2-11.5,4-15.6-0.5c-0.4-0.4-0.4-1.1,0-1.5
				c0.4-0.4,1.1-0.4,1.5,0c3.4,3.6,9.1,3.8,12.7,0.4C31.5,57.5,32.2,57.5,32.6,57.9z"/>
		</g>
	</g>
	<g>
		
			<ellipse transform="matrix(-0.9849 -0.1731 0.1731 -0.9849 59.6339 80.4239)" fill="#68300B" cx="33.3" cy="37.6" rx="4.2" ry="1.4"/>
		
			<ellipse transform="matrix(0.9849 -0.1731 0.1731 0.9849 -6.3014 2.9751)" fill="#491C06" cx="13.9" cy="37.6" rx="4.2" ry="1.4"/>
		<ellipse fill="#491C06" cx="24" cy="36.9" rx="3.6" ry="1"/>
	</g>
	<g>
		<g>
			<path d="M35.3,22.5L35.3,22.5c-0.4-5-4.1-9-8.8-10.1V0.7h-4.9v11.7c-4.8,1.1-8.4,5.1-8.8,10.1h0v0.6c0,0.1,0,0.2,0,0.3h0v14.6
				c1.2-0.3,2.4-0.5,3.6-0.7v-9.7c0.3,0.1,0.5,0.1,0.8,0.1h5.1v9c1,0,1.9-0.1,2.9-0.1c0.2,0,0.4,0,0.6,0v-8.9h5.1
				c0.3,0,0.6,0,0.8-0.1v9.4c1.2,0.1,2.4,0.3,3.6,0.5V23.4h0c0-0.1,0-0.2,0-0.3V22.5z"/>
		</g>
		<ellipse transform="matrix(0.729 0.6845 -0.6845 0.729 17.058 -7.67)" fill="#424242" cx="18.2" cy="17.7" rx="1.5" ry="4.5"/>
	</g>
	<g>
		<path fill="#BAABA2" d="M44.4,42c0,0,0,0.2,0,0.1c0-3-2.4-5.2-5.5-5.2s-5.5,2.3-5.5,5.2c0,0,0-0.1,0-0.1H44.4z"/>
		<path fill="#A3938B" d="M39,42.1c0,0-5.5-0.1-5.5-0.1h10.9c0,0,0,0.2,0,0.1c0-3-2.4-5.2-5.5-5.2"/>
		<path fill="#7F716B" d="M43,42.1c0,0-9.5-0.1-9.5-0.1h10.9c0,0,0,0.2,0,0.1c0-3-2.4-5.2-5.5-5.2"/>
		<path fill="#68300B" d="M46,42.5c0,0.3-0.2,0.5-0.5,0.5H32.5c-0.3,0-0.5-0.2-0.5-0.5v-0.1c0-0.3,0.2-0.5,0.5-0.5h13.1
			C45.8,42,46,42.2,46,42.5L46,42.5z"/>
		
			<ellipse transform="matrix(0.7936 -0.6084 0.6084 0.7936 -16.1468 30.099)" fill="#E0D5D1" cx="36.3" cy="38.9" rx="2.2" ry="0.5"/>
		<circle fill="#BAABA2" cx="39.8" cy="39.3" r="0.2"/>
		<circle fill="#A3938B" cx="41.4" cy="38.4" r="0.3"/>
		<circle fill="#BAABA2" cx="41.3" cy="41" r="0.2"/>
	</g>
	<g>
		<path fill="#82C60A" d="M58.5,25.7L58.5,25.7L58.5,25.7L58.5,25.7c-3.2,4.5-8.7,4.4-9.7,10.5c-0.6,3.5,2.1,6.2,5.2,9l0-0.1L54,45
			h0c4.1-1,7.6-2.4,8.6-5.8C64.3,33.4,59.3,31.1,58.5,25.7z"/>
		<path fill="#5EA304" d="M54,45.2L54,45.2L54,45h0c4.1-1,7.6-2.4,8.6-5.8c1.7-5.9-3.3-8-4.2-13.4l0,0.2h-0.1l0-0.1"/>
		<g>
			<polygon fill="#74B208" points="56.5,34.3 53.8,31.7 56.2,35.5 60,33.1 			"/>
			<polygon fill="#74B208" points="55,40.8 52.3,38.2 54.7,42 58.6,39.6 			"/>
			<polygon fill="#74B208" points="55.8,37.5 52.7,34.5 55.5,38.8 59.8,36.1 			"/>
		</g>
	</g>
	<g>
		<path fill="#82C60A" d="M46.6,30L46.6,30L46.6,30L46.6,30c-1,4.2-5.1,5.8-4,10.5c0.6,2.7,3.3,3.9,6.5,5l0,0l0,0l0,0
			c2.6-2.1,4.9-4,4.6-6.8C53.2,33.9,48.8,33.7,46.6,30z"/>
		<path fill="#5EA304" d="M49,45.5L49,45.5L49,45.5L49,45.5c2.7-2.1,4.9-4,4.6-6.8c-0.5-4.8-4.8-5-7.1-8.7l0,0l0,0l0,0"/>
		<g>
			<polygon fill="#74B208" points="47.7,36.9 44.9,35.7 47.8,37.8 49.9,34.9 			"/>
			<polygon fill="#74B208" points="48.5,42.1 45.7,40.9 48.6,43 50.7,40.1 			"/>
			<polygon fill="#74B208" points="48.1,39.4 45,38.1 48.2,40.5 50.6,37.2 			"/>
		</g>
	</g>
	<g>
		<path fill="#BAABA2" d="M58.6,46c0,0,0-0.2,0-0.2c0-3-2.4-5.4-5.5-5.4s-5.5,2.5-5.5,5.5c0,0,0,0.2,0,0.2H58.6z"/>
		<path fill="#A3938B" d="M53.2,45.8c0,0-5.5,0.2-5.5,0.2h10.9c0,0,0-0.2,0-0.2c0-3-2.3-5.4-5.4-5.4"/>
		<path fill="#7F716B" d="M57.2,45.8c0,0-9.5,0.2-9.5,0.2h10.9c0,0,0-0.2,0-0.2c0-3-2.3-5.4-5.4-5.4"/>
		<path fill="#68300B" d="M60,46.5c0,0.3-0.2,0.5-0.5,0.5H46.5c-0.3,0-0.5-0.2-0.5-0.5v-0.1c0-0.3,0.2-0.5,0.5-0.5h13.1
			C59.8,46,60,46.2,60,46.5L60,46.5z"/>
		
			<ellipse transform="matrix(0.7936 -0.6084 0.6084 0.7936 -15.1921 39.4133)" fill="#E0D5D1" cx="50.5" cy="42.1" rx="2.2" ry="0.5"/>
		<circle fill="#BAABA2" cx="54" cy="42.6" r="0.2"/>
		<circle fill="#A3938B" cx="55.7" cy="41.7" r="0.3"/>
		<circle fill="#BAABA2" cx="55.5" cy="44.2" r="0.2"/>
	</g>
</g>
</svg>
