<?xml version="1.0" encoding="utf-8"?>
<!-- Generator: Adobe Illustrator 16.0.0, SVG Export Plug-In . SVG Version: 6.00 Build 0)  -->
<!DOCTYPE svg PUBLIC "-//W3C//DTD SVG 1.1//EN" "http://www.w3.org/Graphics/SVG/1.1/DTD/svg11.dtd">
<svg version="1.1" id="Layer_1" xmlns="http://www.w3.org/2000/svg" xmlns:xlink="http://www.w3.org/1999/xlink" x="0px" y="0px"
	 width="64px" height="64px" viewBox="0 0 64 64" enable-background="new 0 0 64 64" xml:space="preserve">
<g>
	<path fill="#F4C1E2" d="M32,1.1c-4,11-27.8,20-30.7,34.8c-2.9,14.7,13.2,27.1,29.6,27.1c0.4,0,1.2,0,1.2,0V1.1z"/>
	<path fill="#E2ACD1" d="M32,6.3C28,15.7,8.3,23.3,5.8,36C3.3,48.5,17.1,59.1,31,59.1c0.3,0,1,0,1,0V6.3z"/>
	<path fill="#D193C1" d="M32,11.2c-3,7.9-18.6,14.3-20.6,24.9c-2,10.5,8.9,19.4,19.9,19.4c0.3,0,0.8,0,0.8,0V11.2z"/>
	<path fill="#C17CB3" d="M32,18.9c-2,5.6-13.2,10.1-14.6,17.7c-1.4,7.5,6.3,13.7,14.1,13.7c0.2,0,0.5,0,0.5,0V18.9z"/>
	<path fill="#AF64A1" d="M32,27c-1,3.4-8,6.1-8.8,10.7c-0.8,4.5,3.8,8.3,8.5,8.3c0.1,0,0.3,0,0.3,0V27z"/>
	<path fill="#E259B1" d="M32,1.1c4,11,27.8,20,30.7,34.8c2.9,14.7-13.2,27.1-29.6,27.1c-0.4,0-1.2,0-1.2,0V1.1z"/>
	<path fill="#F46CC3" d="M32,1.1c2,11,15.3,20,16.9,34.8c1.6,14.7-7.3,27.1-16.3,27.1c-0.2,0-0.6,0-0.6,0V1.1z"/>
	<path fill="#FF7DD4" d="M32,1.1c1,11,5.5,20,6.1,34.8c0.6,14.7-2.6,27.1-5.9,27.1c-0.1,0-0.2,0-0.2,0V1.1z"/>
</g>
</svg>
