<?xml version="1.0" encoding="utf-8"?>
<!-- Generator: Adobe Illustrator 16.0.0, SVG Export Plug-In . SVG Version: 6.00 Build 0)  -->
<!DOCTYPE svg PUBLIC "-//W3C//DTD SVG 1.1//EN" "http://www.w3.org/Graphics/SVG/1.1/DTD/svg11.dtd">
<svg version="1.1" id="Layer_1" xmlns="http://www.w3.org/2000/svg" xmlns:xlink="http://www.w3.org/1999/xlink" x="0px" y="0px"
	 width="64px" height="64px" viewBox="0 0 64 64" enable-background="new 0 0 64 64" xml:space="preserve">
<g>
	<g>
		<path d="M63,41.6V36h-9.6c-5.5-2-13.1-2.5-21.4-2.5S16.2,34,10.6,36H1v5.6c0,0.2,0,0.3,0,0.6c0,4.9,13.9,8.9,30.9,8.9
			s31.1-4,31.1-8.8C63,42,63,41.9,63,41.6z"/>
		<ellipse fill="#003F3A" cx="32" cy="36.8" rx="30.8" ry="8.8"/>
		<ellipse fill="#125952" cx="32" cy="35.2" rx="19.6" ry="5.3"/>
		<ellipse transform="matrix(0.9925 -0.1226 0.1226 0.9925 -3.85 3.2325)" fill="#1F6D64" cx="24.3" cy="32.9" rx="8.1" ry="1.7"/>
	</g>
	<g>
		<path fill="#CEC8B2" d="M63,34.2V28h-9.6c-5.5-1-13.1-2.5-21.4-2.5S16.2,27,10.6,28L1,27v7.2c0,0.2,0,0.4,0,0.6
			c0,4.9,13.9,8.8,30.9,8.8s31-3.9,31-8.8C62.9,34.6,63,34.4,63,34.2z"/>
		<path fill="#B7B098" d="M32,43.6c17,0,31-3.9,31-8.8c0-0.2,0-0.4,0-0.6V26l-9.6,2c-5.5-1-13.1-2.2-21.4-2.2"/>
		<path fill="#CEC8B2" d="M1.3,34.2"/>
		<ellipse fill="#F4F1E6" cx="32" cy="29.3" rx="30.8" ry="8.8"/>
		<path fill="#CEC8B2" d="M32,20.5c17,0,30.8,3.9,30.8,8.8S49,38,32,38"/>
		<ellipse fill="#125952" cx="32" cy="27.7" rx="19.6" ry="5.3"/>
		<ellipse transform="matrix(0.9925 -0.1226 0.1226 0.9925 -2.9316 3.176)" fill="#1F6D64" cx="24.3" cy="25.4" rx="8.1" ry="1.7"/>
	</g>
	<g>
		<g>
			<path d="M63,26.6v-5L53.4,21c-5.5-2-13.1-2.5-21.4-2.5S16.2,19,10.6,21L1,21.5v5.2c0,0.2,0,0.4,0,0.6C1,32.1,14.9,36,31.9,36
				s31-3.9,31-8.8C62.9,27,63,26.8,63,26.6z"/>
			<path fill="#003F3A" d="M62.8,21.7c0,4.9-13.8,8.8-30.8,8.8S1,26.5,1,21.6s14-8.7,31-8.7S62.8,16.9,62.8,21.7z"/>
			<path fill="#032B27" d="M32,12.9c17,0,31,3.9,31,8.7s-14,8.9-31,8.9"/>
			<ellipse fill="#003F3A" cx="32" cy="20.2" rx="19.6" ry="5.3"/>
			<path fill="#032B27" d="M32,25.5c-10.8,0-19.6-2.4-19.6-5.3s8.8-5.3,19.6-5.3"/>
			
				<ellipse transform="matrix(0.9925 -0.1226 0.1226 0.9925 -2.0833 2.9294)" fill="#003F3A" cx="22.8" cy="18.4" rx="6.6" ry="1.4"/>
		</g>
		<path fill="#003F3A" d="M3,24.7v5.6c0.8,0.5,1,0.7,2,1.2v-5.6C4.2,25.5,4,25.1,3,24.7z"/>
		<path fill="#003F3A" d="M3,39.7v5.6c0.7,0.6,1,0.7,2,1.2v-5.7C4,40.5,4,40.1,3,39.7z"/>
		<path fill="#003F3A" d="M10,42.9v5.6c0.8,0.3,1,0.3,2,0.5v-5.7C11,43.2,11,43,10,42.9z"/>
		<path fill="#003F3A" d="M10,27.7v5.7c0.8,0.3,1,0.3,2,0.5v-5.6C11,28.2,11,27.9,10,27.7z"/>
		<path fill="#003F3A" d="M17,44.4v5.6c0.8,0.1,1,0.2,2,0.3v-5.6C18,44.5,18,44.4,17,44.4z"/>
		<path fill="#003F3A" d="M17,29.4v5.6c0.8,0.1,1,0.1,2,0.3v-5.6C18,29.5,18,29.4,17,29.4z"/>
		<path fill="#003F3A" d="M24,45.1v5.6c1,0,1,0.1,2,0.1v-5.6C25,45.2,25,45.2,24,45.1z"/>
		<path fill="#003F3A" d="M24,30.1v5.6c1,0,1,0.1,2,0.1v-5.6C25,30.2,25,30.2,24,30.1z"/>
		<path fill="#003F3A" d="M32,45.4c-0.3,0-1,0-1,0v5.6c0,0,0.7,0,1,0c0.3,0,1,0,1,0v-5.6C33,45.4,32.3,45.4,32,45.4z"/>
		<path fill="#003F3A" d="M32,30.4c-0.3,0-1,0.1-1,0.1V36c0,0,0.7,0,0.9,0c0.3,0,1.1,0,1.1,0v-5.5C33,30.5,32.3,30.4,32,30.4z"/>
		<path fill="#032B27" d="M38,45.4v5.5c1,0,1-0.1,2-0.1v-5.5C39,45.3,39,45.3,38,45.4z"/>
		<path fill="#032B27" d="M38,29.4v6.5c1,0,1-0.1,2-0.1v-6.5C39,29.3,39,29.3,38,29.4z"/>
		<path fill="#032B27" d="M45,44.7v5.5c1-0.1,1-0.1,2-0.3v-5.5C46,44.6,46.1,44.6,45,44.7z"/>
		<path fill="#032B27" d="M45,29.6v5.6c1.1-0.1,1.1-0.1,2-0.3v-5.7C46,29.3,46.1,29.4,45,29.6z"/>
		<path fill="#032B27" d="M52,43.4V49c1-0.3,1.4-0.4,2-0.5v-5.5C53.1,43.2,53.1,43.2,52,43.4z"/>
		<path fill="#032B27" d="M52,28.3v5.7c1-0.3,1.4-0.4,2-0.5v-5.7C53.1,28,53.1,28,52,28.3z"/>
		<path fill="#032B27" d="M59,41v5.5c1-0.5,1.3-0.7,2-1.2v-5.6C60.2,40.4,59.9,40.5,59,41z"/>
		<path fill="#032B27" d="M59,25v6.5c1-0.5,1.3-0.7,2-1.2v-5.9C60.2,25,59.9,24.5,59,25z"/>
	</g>
</g>
</svg>
