<?xml version="1.0" encoding="utf-8"?>
<!-- Generator: Adobe Illustrator 16.0.0, SVG Export Plug-In . SVG Version: 6.00 Build 0)  -->
<!DOCTYPE svg PUBLIC "-//W3C//DTD SVG 1.1//EN" "http://www.w3.org/Graphics/SVG/1.1/DTD/svg11.dtd">
<svg version="1.1" id="Layer_1" xmlns="http://www.w3.org/2000/svg" xmlns:xlink="http://www.w3.org/1999/xlink" x="0px" y="0px"
	 width="64px" height="64px" viewBox="0 0 64 64" enable-background="new 0 0 64 64" xml:space="preserve">
<g>
	<g>
		<path fill="#77003C" d="M1,60h62V13C55,5.7,43.9,1.2,32,1.2C20.1,1.2,9,5.7,1,13V60z"/>
		<path fill="#56002F" d="M1,60h62V25.8c-8-5.3-19.1-8.6-31-8.6c-11.9,0-23,3.2-31,8.6V60z"/>
	</g>
	<g>
		<g>
			<g>
				<path fill="#EA8F3D" d="M0.4,20L0.4,20l31.7,31.1l31.3-31.5c-8-8-19-12.9-31.2-12.9S8.4,12,0.4,20z"/>
			</g>
			<g>
				<path fill="#DB8035" d="M32,50.9l31.5-31.3c-8-8-19.2-12.9-31.4-12.9"/>
			</g>
			<g>
				<path fill="#D3731C" d="M2.8,22.4L2.8,22.4l29,28.5l28.7-28.6c-7.3-7.3-17.6-11.9-28.8-11.9S10.8,15,2.8,22.4z"/>
			</g>
			<g>
				<path fill="#C46918" d="M32,50.9l28.7-28.5c-7.3-7.3-17.5-12-28.7-12"/>
			</g>
			<g>
				<path fill="#FFFAE3" d="M7,25.9L7,25.9l24.9,27l24.9-27c-6.4-6.4-15.2-10.4-25-10.4S13,19.5,7,25.9z"/>
			</g>
			<g>
				<path fill="#F4E49F" d="M32,52.9l24.9-27C50.5,19.5,41.7,15.6,32,15.6"/>
			</g>
			<g>
				<path fill="#DDB357" d="M6.7,26.2L6.7,26.2l25.2,24.7L57.1,26c-6.4-6.4-15.4-10.4-25.1-10.4C21.6,15.6,12.7,19.8,6.7,26.2z"/>
			</g>
			<g>
				<path fill="#EFD27F" d="M8.7,28.1L8.7,28.1L32,50.9l23.1-23.1c-5.9-5.9-14-9.6-23.1-9.6C23,18.1,14.7,22.2,8.7,28.1z"/>
			</g>
			<g>
				<path fill="#E5BE5E" d="M32,50.9l23.1-23.1C49.2,21.8,41,18.1,32,18.1"/>
			</g>
			<polygon fill="#DDB357" points="63,63 63,27.2 32,58.5 1,27.2 1,63 			"/>
			<polygon fill="#EFD27F" points="32,58.5 3,29.6 3,63 61,63 61,29.6 			"/>
			<polyline fill="#E5BE5E" points="32,63 61,63 61,29.6 32.2,58.6 			"/>
			<path fill="#FFFAE3" d="M15.1,34L32,50.9l16.8-16.8c-0.7-1.1-2-1.7-3.5-1.8c0-0.2,0-0.4-0.1-0.6c-0.4-0.8-1.4-1.2-2.4-0.9
				c-0.1-0.3-0.3-0.6-0.6-0.8c-1.3-1.4-3.7-1.3-5.5,0c-1.1-1.8-2.9-2.8-4.8-2.6c-1,0.1-1.9,0.6-2.7,1.3c-0.3-0.6-0.9-0.9-1.4-0.9
				c-0.6,0.1-1.1,0.5-1.3,1.2c-0.9-0.3-1.9-0.3-2.7,0.1c-0.8,0.5-1.4,1.3-1.6,2.2c-0.4-0.6-1.1-0.8-1.7-0.7c-0.8,0.2-1.2,1.1-1,2.1
				C17.8,32.6,16.3,32.9,15.1,34z"/>
			<path fill="#FFF2BB" d="M16.3,35.1L32,50.9l15.7-15.7c-0.6-1-1.9-1.6-3.2-1.6c0-0.2,0-0.4-0.1-0.5c-0.3-0.8-1.3-1.1-2.3-0.8
				c-0.1-0.3-0.3-0.5-0.5-0.8c-1.2-1.3-3.4-1.2-5.2,0c-1.1-1.6-2.7-2.6-4.5-2.4c-1,0.1-1.8,0.6-2.5,1.3c-0.3-0.5-0.8-0.8-1.3-0.8
				c-0.6,0-1,0.5-1.2,1.1c-0.9-0.3-1.8-0.3-2.5,0.1c-0.8,0.4-1.3,1.2-1.5,2.1c-0.4-0.5-1-0.8-1.6-0.6c-0.7,0.2-1.1,1.1-0.9,2
				C18.8,33.8,17.3,34.2,16.3,35.1z"/>
			<path fill="#F4E49F" d="M32,50.9l16.8-16.8c-0.7-1.1-2-1.7-3.5-1.8c0-0.2,0-0.4-0.1-0.6c-0.4-0.8-1.4-1.2-2.4-0.9
				c-0.1-0.3-0.3-0.6-0.6-0.8c-1.3-1.4-3.7-1.3-5.5,0c-1.1-1.7-2.8-2.8-4.6-2.6"/>
			<path fill="#E8D37C" d="M32,50.8l15.6-15.6c-0.6-1-1.9-1.6-3.2-1.6c0-0.2,0-0.4-0.1-0.5c-0.3-0.8-1.3-1.1-2.3-0.8
				c-0.1-0.3-0.3-0.5-0.5-0.8c-1.2-1.3-3.4-1.2-5.2,0c-1-1.6-2.6-2.6-4.3-2.4"/>
		</g>
		<g>
			<circle fill="#E06027" cx="17.9" cy="24" r="2"/>
			<circle fill="#FF855A" cx="17.6" cy="23.9" r="1.5"/>
		</g>
		<path fill="#FFFAE3" d="M11.5,37.9c-1.4,1.1-2.3,2.8-2.3,4.7c0,1.7,0.7,3.2,1.8,4.3c-0.3,0.7-0.4,1.4-0.4,2.2
			c0,0.5,0.1,1.1,0.2,1.5c-1.6,1.1-2.6,2.9-2.6,5c0,2.1,1.1,3.9,2.7,5c0,0,0,0.2,0,0.3c0,0.7,0.1,1.1,0.3,2.1h43.9
			c0.8-1,1.3-2.4,1.3-3.9c0-1.3-0.4-2.6-1.2-3.6c0.9-1.2,1.4-2.7,1.4-4.3c0-1.9-0.8-3.7-2-5c0.5-0.9,0.8-1.9,0.8-3
			c0-2.2-1.2-4.1-2.9-5.2L32,58.5L11.5,37.9z"/>
		<path fill="#F4E49F" d="M32,63h23.1c0.8-1,1.3-2.4,1.3-3.9c0-1.3-0.4-2.6-1.2-3.6c0.9-1.2,1.4-2.7,1.4-4.3c0-1.9-0.8-3.7-2-5
			c0.5-0.9,0.8-1.9,0.8-3c0-2.2-1.2-4.1-2.9-5.2L32,58.6"/>
		<path fill="#FFF2BB" d="M53.3,55.5c0.8-1.2,1.3-2.7,1.3-4.3c0-1.9-0.7-3.7-1.8-5c0.5-0.9,0.7-1.9,0.7-3c0-1.8-0.7-3.3-1.8-4.4
			L32.4,58.1L32,58.5l0,0l0,0L12.4,38.8c-0.8,1-1.2,2.4-1.2,3.8c0,1.7,0.6,3.2,1.6,4.3c-0.2,0.7-0.4,1.4-0.4,2.2
			c0,0.5,0.1,1.1,0.2,1.5c-1.4,1.1-2.4,2.9-2.4,5c0,2.1,1,3.9,2.4,5c0,0,0,0.2,0,0.3c0,0.7,0.1,1.1,0.3,2.1h40.3
			c0.7-1,1.2-2.4,1.2-3.9C54.4,57.8,54,56.5,53.3,55.5z"/>
		<path fill="#E8D37C" d="M32,63h21.2c0.7-1,1.2-2.4,1.2-3.9c0-1.3-0.4-2.6-1.1-3.6c0.8-1.2,1.3-2.7,1.3-4.3c0-1.9-0.7-3.7-1.8-5
			c0.5-0.9,0.7-1.9,0.7-3c0-1.8-0.7-3.3-1.8-4.4L32.4,58.1L32,58.5l0,0l0,0.1"/>
		<g>
			<circle fill="#E06027" cx="47.9" cy="27.7" r="2"/>
			<circle fill="#FF855A" cx="48.2" cy="27.5" r="1.5"/>
		</g>
		<g>
			<circle fill="#E06027" cx="58.3" cy="43.1" r="2"/>
			<circle fill="#FF855A" cx="58.6" cy="42.9" r="1.5"/>
		</g>
		<g>
			<circle fill="#E06027" cx="44.8" cy="21.6" r="1.5"/>
			<circle fill="#FF855A" cx="45" cy="21.4" r="1.1"/>
		</g>
		<g>
			<circle fill="#E06027" cx="5.6" cy="37.1" r="1.5"/>
			<circle fill="#FF855A" cx="5.8" cy="36.9" r="1.1"/>
		</g>
		<g>
			<circle fill="#E06027" cx="34.9" cy="42.3" r="1.5"/>
			<circle fill="#FF855A" cx="35.1" cy="42.2" r="1.1"/>
		</g>
		<g>
			<circle fill="#E06027" cx="23.8" cy="20.8" r="1.3"/>
			<circle fill="#FF855A" cx="23.8" cy="20.5" r="1"/>
		</g>
		<g>
			<circle fill="#E06027" cx="6.3" cy="46.4" r="1.3"/>
			<circle fill="#FF855A" cx="6.3" cy="46.1" r="1"/>
		</g>
		<g>
			<circle fill="#E06027" cx="25.2" cy="35.4" r="1"/>
			<circle fill="#FF855A" cx="25.3" cy="35.2" r="0.8"/>
		</g>
		<g>
			<circle fill="#E06027" cx="38.3" cy="60.2" r="1"/>
			<circle fill="#FF855A" cx="38.4" cy="60" r="0.8"/>
		</g>
		<g>
			<circle fill="#E06027" cx="40.4" cy="31.2" r="1"/>
			<circle fill="#FF855A" cx="40.4" cy="31" r="0.8"/>
		</g>
		<g>
			<path fill="#E06027" d="M40.7,57.9c-0.5,0.3-1.1,0.1-1.4-0.4c-0.3-0.5-0.1-1.1,0.4-1.4c0.5-0.3,1.1-0.1,1.4,0.4
				C41.3,57,41.2,57.6,40.7,57.9z"/>
			<circle fill="#FF855A" cx="40.2" cy="56.8" r="0.8"/>
		</g>
		<g>
			<path fill="#77003C" d="M32.7,18.1c-1.5-0.6-3.1-0.1-3.6,1.1c-0.4,1,0.4,1.3,1.6,1.8c-0.1,0.2-0.3,0.4-0.4,0.6
				c-0.4,0.9,0.1,0.8,0.5,1c0.4,0.2,0.7,0.6,1-0.3c0.1-0.2,0.2-0.5,0.2-0.7c1.1,0.5,1.9,1,2.4-0.1C35,20.3,34.2,18.7,32.7,18.1z"/>
			<path fill="#440029" d="M30.3,21.6c-0.4,0.9,0.1,0.8,0.5,1c0.4,0.2,0.7,0.6,1-0.3c0.1-0.2,0.2-0.5,0.2-0.7c1.1,0.5,1.9,1,2.4-0.1
				c0.5-1.2-0.2-2.8-1.7-3.4"/>
		</g>
		<g>
			<path fill="#77003C" d="M15.5,28c-1,0.6-1.5,1.7-1,2.6c0.4,0.7,0.9,0.4,1.7-0.1c0,0.2,0.1,0.3,0.2,0.5c0.3,0.6,0.5,0.3,0.8,0.1
				c0.3-0.2,0.6-0.1,0.3-0.7c-0.1-0.2-0.2-0.3-0.3-0.4c0.8-0.4,1.4-0.7,1-1.4C17.8,27.7,16.6,27.5,15.5,28z"/>
			<path fill="#440029" d="M16.4,31c0.3,0.6,0.5,0.3,0.8,0.1c0.3-0.2,0.6-0.1,0.3-0.7c-0.1-0.2-0.2-0.3-0.3-0.4
				c0.8-0.4,1.4-0.7,1-1.4c-0.5-0.9-1.7-1.1-2.7-0.6"/>
		</g>
		<g>
			<path fill="#77003C" d="M45.5,31.4c-1.2-0.1-2.2,0.6-2.2,1.6c-0.1,0.8,0.6,0.8,1.5,0.9c0,0.2-0.1,0.3-0.1,0.5
				c-0.1,0.7,0.2,0.5,0.6,0.5c0.3,0,0.6,0.2,0.7-0.4c0-0.2,0-0.4,0-0.5c0.9,0.1,1.5,0.2,1.6-0.6C47.5,32.4,46.7,31.5,45.5,31.4z"/>
			<path fill="#440029" d="M44.7,34.4c-0.1,0.7,0.2,0.5,0.6,0.5c0.3,0,0.6,0.2,0.7-0.4c0-0.2,0-0.4,0-0.5c0.9,0.1,1.5,0.2,1.6-0.6
				c0.1-1-0.8-1.9-2-1.9"/>
		</g>
		<g>
			<path fill="#74B208" d="M26.6,24c-0.3-0.5-1-0.8-1.6-0.5c-0.6,0.3-0.9,0.9-0.8,1.5c-0.6,0.3-0.9,1-0.6,1.7c0.3,0.7,1.1,1,1.7,0.7
				c0.5-0.2,0.8-0.7,0.8-1.2c0.4,0.4,0.9,0.5,1.4,0.3c0.7-0.3,1-1.1,0.7-1.7C28,24.1,27.3,23.8,26.6,24z"/>
			<path fill="#52A305" d="M25.3,27.4c0.5-0.2,0.8-0.7,0.8-1.2c0.4,0.4,0.9,0.5,1.4,0.3c0.7-0.3,1-1.1,0.7-1.7c-0.3-0.6-1-1-1.6-0.7
				"/>
			<path fill="#52A305" d="M26.2,26.2c0.4,0.4,0.9,0.5,1.4,0.3c0.7-0.3,1-1.1,0.7-1.7c-0.3-0.6-1-1-1.6-0.7c-0.3-0.5-1-0.8-1.6-0.5"
				/>
			
				<ellipse transform="matrix(0.5131 -0.8583 0.8583 0.5131 -10.317 33.2831)" fill="#9CD827" cx="24.2" cy="25.7" rx="0.5" ry="0.2"/>
			<path fill="#9CD827" d="M25,23.8c0.1,0.1,0.1,0.3-0.1,0.5c-0.1,0.2-0.3,0.3-0.4,0.3c-0.1-0.1-0.1-0.3,0.1-0.5
				C24.7,23.9,24.9,23.7,25,23.8z"/>
		</g>
		<g>
			<path fill="#74B208" d="M40.6,24.7c0.1-0.6-0.2-1.3-0.8-1.5s-1.3,0-1.6,0.5c-0.6-0.2-1.4,0.1-1.6,0.7c-0.3,0.7,0,1.4,0.7,1.7
				c0.5,0.2,1,0.1,1.4-0.3c0,0.5,0.3,1,0.8,1.2c0.7,0.3,1.4,0,1.7-0.7C41.5,25.7,41.2,25,40.6,24.7z"/>
			<path fill="#52A305" d="M37.3,26.1c0.5,0.2,1,0.1,1.4-0.3c0,0.5,0.3,1,0.8,1.2c0.7,0.3,1.4,0,1.7-0.7c0.3-0.6,0-1.4-0.6-1.7"/>
			<path fill="#52A305" d="M38.7,25.9c0,0.5,0.3,1,0.8,1.2c0.7,0.3,1.4,0,1.7-0.7c0.3-0.6,0-1.4-0.6-1.7c0.1-0.6-0.2-1.3-0.8-1.5"/>
			
				<ellipse transform="matrix(0.9725 -0.2331 0.2331 0.9725 -4.5868 9.4334)" fill="#9CD827" cx="37.6" cy="24.1" rx="0.5" ry="0.2"/>
			<path fill="#9CD827" d="M39.6,23.3c0,0.1-0.1,0.2-0.4,0.3c-0.2,0.1-0.4,0-0.5-0.1c0-0.1,0.1-0.2,0.4-0.3
				C39.3,23.2,39.5,23.2,39.6,23.3z"/>
		</g>
		<g>
			<path fill="#74B208" d="M29.4,39.8c0-0.6-0.3-1.1-0.9-1.2c-0.6-0.1-1.1,0.1-1.3,0.7c-0.6-0.1-1.2,0.2-1.3,0.8
				c-0.2,0.6,0.2,1.2,0.8,1.4c0.5,0.1,0.9-0.1,1.2-0.4c0.1,0.4,0.4,0.8,0.8,0.9c0.6,0.2,1.2-0.2,1.4-0.8
				C30.3,40.6,29.9,40,29.4,39.8z"/>
			<path fill="#52A305" d="M26.7,41.5c0.5,0.1,0.9-0.1,1.2-0.4c0.1,0.4,0.4,0.8,0.8,0.9c0.6,0.2,1.2-0.2,1.4-0.8
				c0.2-0.6-0.2-1.2-0.8-1.4"/>
			<path fill="#52A305" d="M27.9,41.1c0.1,0.4,0.4,0.8,0.8,0.9c0.6,0.2,1.2-0.2,1.4-0.8c0.2-0.6-0.2-1.2-0.8-1.4
				c0-0.6-0.3-1.1-0.9-1.2"/>
			
				<ellipse transform="matrix(0.9282 -0.3721 0.3721 0.9282 -12.8706 12.8051)" fill="#9CD827" cx="26.7" cy="39.8" rx="0.4" ry="0.2"/>
			<ellipse transform="matrix(0.9281 -0.3723 0.3723 0.9281 -12.4908 13.2196)" fill="#9CD827" cx="28" cy="39" rx="0.4" ry="0.2"/>
		</g>
		<g>
			<path fill="#74B208" d="M6.4,41.2c-0.1-0.4-0.6-0.7-1-0.6c-0.4,0.1-0.7,0.5-0.7,0.9c-0.5,0.1-0.8,0.5-0.7,1C4,43,4.5,43.3,5,43.2
				c0.4-0.1,0.6-0.3,0.7-0.7C5.9,42.9,6.2,43,6.6,43c0.5-0.1,0.8-0.5,0.7-1C7.2,41.5,6.8,41.2,6.4,41.2z"/>
			<path fill="#52A305" d="M5,43.2c0.4-0.1,0.6-0.3,0.7-0.7C5.9,42.9,6.2,43,6.6,43c0.5-0.1,0.8-0.5,0.7-1c-0.1-0.5-0.5-0.8-1-0.7"
				/>
			<path fill="#52A305" d="M5.7,42.6C5.9,42.9,6.2,43,6.6,43c0.5-0.1,0.8-0.5,0.7-1c-0.1-0.5-0.5-0.8-1-0.7c-0.1-0.4-0.6-0.7-1-0.6"
				/>
			
				<ellipse transform="matrix(0.6982 -0.7159 0.7159 0.6982 -28.6986 15.8586)" fill="#9CD827" cx="4.5" cy="42" rx="0.3" ry="0.2"/>
			<path fill="#9CD827" d="M5.3,40.8c0.1,0,0,0.2-0.1,0.3c-0.1,0.1-0.2,0.2-0.3,0.1c0-0.1,0-0.2,0.1-0.3C5.1,40.8,5.2,40.8,5.3,40.8
				z"/>
		</g>
		<g>
			<path fill="#74B208" d="M54.8,46.7c0.1-0.4-0.2-0.8-0.6-1c-0.4-0.1-0.9,0.1-1.1,0.5c-0.5-0.1-0.9,0.2-1.1,0.6
				c-0.1,0.5,0.1,1,0.6,1.1c0.3,0.1,0.7,0,0.9-0.3c0,0.3,0.3,0.6,0.6,0.7c0.5,0.1,1-0.1,1.1-0.6C55.5,47.4,55.3,46.9,54.8,46.7z"/>
			<path fill="#52A305" d="M52.7,48c0.3,0.1,0.7,0,0.9-0.3c0,0.3,0.3,0.6,0.6,0.7c0.5,0.1,1-0.1,1.1-0.6c0.1-0.5-0.1-0.9-0.5-1.1"/>
			<path fill="#52A305" d="M53.6,47.7c0,0.3,0.3,0.6,0.6,0.7c0.5,0.1,1-0.1,1.1-0.6c0.1-0.5-0.1-0.9-0.5-1.1c0.1-0.4-0.2-0.8-0.6-1"
				/>
			
				<ellipse transform="matrix(0.9417 -0.3365 0.3365 0.9417 -12.6005 20.4887)" fill="#9CD827" cx="52.8" cy="46.6" rx="0.3" ry="0.2"/>
			
				<ellipse transform="matrix(0.9418 -0.3361 0.3361 0.9418 -12.337 20.7575)" fill="#9CD827" cx="53.8" cy="46" rx="0.3" ry="0.1"/>
		</g>
		<g>
			<path fill="#74B208" d="M52.7,51.5c0-0.3-0.1-0.6-0.4-0.7c-0.3-0.1-0.6,0.1-0.7,0.3c-0.3-0.1-0.6,0.1-0.7,0.4
				c-0.1,0.3,0.1,0.7,0.4,0.8c0.2,0.1,0.5,0,0.6-0.2c0,0.2,0.2,0.4,0.4,0.5c0.3,0.1,0.7-0.1,0.8-0.4C53.2,52,53,51.6,52.7,51.5z"/>
			<path fill="#52A305" d="M51.2,52.4c0.2,0.1,0.5,0,0.6-0.2c0,0.2,0.2,0.4,0.4,0.5c0.3,0.1,0.7-0.1,0.8-0.4
				c0.1-0.3-0.1-0.6-0.4-0.8"/>
			<path fill="#52A305" d="M51.9,52.2c0,0.2,0.2,0.4,0.4,0.5c0.3,0.1,0.7-0.1,0.8-0.4c0.1-0.3-0.1-0.6-0.4-0.8
				c0-0.3-0.1-0.6-0.4-0.7"/>
			<path fill="#9CD827" d="M51.5,51.4c0,0.1-0.1,0.1-0.2,0.2s-0.2,0-0.3,0c0-0.1,0.1-0.1,0.2-0.2S51.5,51.3,51.5,51.4z"/>
			<ellipse transform="matrix(0.9415 -0.337 0.337 0.9415 -14.1537 20.5057)" fill="#9CD827" cx="52" cy="51" rx="0.2" ry="0.1"/>
		</g>
		<g>
			<polygon fill="#FFE36E" points="39.7,22 39.4,18.4 36.4,20.4 			"/>
			<polygon fill="#FFCF03" points="39.7,22 39.4,18.4 37.9,21.1 			"/>
		</g>
		<g>
			<polygon fill="#FFE36E" points="15.1,25.3 11.7,24 12.2,27.6 			"/>
			<polygon fill="#FFCF03" points="15.1,25.3 11.7,24 13.4,26.6 			"/>
		</g>
		<g>
			<polygon fill="#FFE36E" points="8.5,50.7 5.2,49.3 5.6,52.9 			"/>
			<polygon fill="#FFCF03" points="8.5,50.7 5.2,49.3 6.9,52 			"/>
		</g>
		<g>
			<polygon fill="#FFE36E" points="34.1,25.6 32.3,23.8 31.5,26.3 			"/>
			<polygon fill="#FFCF03" points="34.1,25.6 32.3,23.8 32.6,26 			"/>
		</g>
		<g>
			<polygon fill="#FFE36E" points="22.8,29.1 21.7,26.7 20.2,28.8 			"/>
			<polygon fill="#FFCF03" points="22.8,29.1 21.7,26.7 21.3,28.9 			"/>
		</g>
		<g>
			<polygon fill="#FFE36E" points="43.9,29.7 43.6,27.7 42,28.9 			"/>
			<polygon fill="#FFCF03" points="43.9,29.7 43.6,27.7 42.8,29.3 			"/>
		</g>
		<g>
			<polygon fill="#FFE36E" points="12.2,41.9 12,39.9 10.3,41.1 			"/>
			<polygon fill="#FFCF03" points="12.2,41.9 12,39.9 11.2,41.4 			"/>
		</g>
		<g>
			<polygon fill="#FFE36E" points="56.6,60.1 56.4,58.1 54.7,59.3 			"/>
			<polygon fill="#FFCF03" points="56.6,60.1 56.4,58.1 55.6,59.6 			"/>
		</g>
		<g>
			<polygon fill="#FFE36E" points="11.7,46.2 11.5,44.2 9.8,45.4 			"/>
			<polygon fill="#FFCF03" points="11.7,46.2 11.5,44.2 10.6,45.7 			"/>
		</g>
		<g>
			<polygon fill="#FFE36E" points="52.9,28 52.7,26 51,27.2 			"/>
			<polygon fill="#FFCF03" points="52.9,28 52.7,26 51.8,27.5 			"/>
		</g>
		<g>
			<polygon fill="#FFE36E" points="59.7,53 59.5,51 57.8,52.1 			"/>
			<polygon fill="#FFCF03" points="59.7,53 59.5,51 58.6,52.5 			"/>
		</g>
		<g>
			<path fill="#F4E49F" d="M22.7,36.5c0,0.2-0.2,0.5-0.4,0.5h-2.1c-0.2,0-0.4-0.3-0.4-0.5l0,0c0-0.2,0.2-0.5,0.4-0.5h2.1
				C22.5,36,22.7,36.3,22.7,36.5L22.7,36.5z"/>
			<path fill="#F4E49F" d="M23.2,37.6c0.1,0.1,0,0.3-0.1,0.3L22,38.5c-0.1,0.1-0.3,0-0.3-0.1l0,0c-0.1-0.1,0-0.3,0.1-0.3l1.1-0.6
				C23,37.5,23.2,37.5,23.2,37.6L23.2,37.6z"/>
			<path fill="#F4E49F" d="M29.9,43.7c0.1,0.1,0,0.3-0.1,0.3l-1.1,0.6c-0.1,0.1-0.3,0-0.3-0.1l0,0c-0.1-0.1,0-0.3,0.1-0.3l1.1-0.6
				C29.7,43.6,29.8,43.6,29.9,43.7L29.9,43.7z"/>
			<path fill="#F4E49F" d="M31.2,45.7c0,0.1-0.1,0.2-0.2,0.2l-1.1,0c-0.1,0-0.2-0.1-0.2-0.2l0,0c0-0.1,0.1-0.2,0.2-0.2l1.1,0
				C31.1,45.5,31.2,45.6,31.2,45.7L31.2,45.7z"/>
			<path fill="#F4E49F" d="M22.9,33.7c0.1,0.2,0,0.3-0.2,0.4l-1.6,0.7c-0.2,0.1-0.3,0-0.4-0.2l0,0c-0.1-0.2,0-0.3,0.2-0.4l1.6-0.7
				C22.7,33.5,22.9,33.6,22.9,33.7L22.9,33.7z"/>
			<path fill="#F4E49F" d="M26,37.4c0.1,0.1,0,0.3-0.1,0.4l-1.4,0.6c-0.1,0.1-0.3,0-0.4-0.1l0,0c-0.1-0.1,0-0.3,0.1-0.4l1.4-0.6
				C25.8,37.2,26,37.2,26,37.4L26,37.4z"/>
			<path fill="#F4E49F" d="M27.4,43c0,0.1-0.2,0.2-0.3,0.2L25.6,43c-0.2,0-0.2-0.2-0.2-0.3l0,0c0-0.2,0.2-0.2,0.3-0.2l1.5,0.3
				C27.3,42.7,27.4,42.9,27.4,43L27.4,43z"/>
			<path fill="#F4E49F" d="M25.3,39.6c0,0.1-0.2,0.2-0.3,0.2l-1.5-0.3c-0.2,0-0.2-0.2-0.2-0.3l0,0c0-0.2,0.2-0.2,0.3-0.2l1.5,0.3
				C25.3,39.3,25.4,39.5,25.3,39.6L25.3,39.6z"/>
			<path fill="#F4E49F" d="M29,37.8c0,0.1-0.2,0.2-0.3,0.2l-1.5-0.3c-0.2,0-0.2-0.2-0.2-0.3l0,0c0-0.2,0.2-0.2,0.3-0.2l1.5,0.3
				C28.9,37.5,29,37.7,29,37.8L29,37.8z"/>
		</g>
		<g>
			<path fill="#F4E49F" d="M19.2,54.5c0.1,0.2-0.1,0.4-0.3,0.5l-2.1,0.5c-0.2,0.1-0.4-0.1-0.5-0.3l0,0c-0.1-0.2,0.1-0.4,0.3-0.5
				l2.1-0.5C18.9,54.2,19.1,54.3,19.2,54.5L19.2,54.5z"/>
			<path fill="#F4E49F" d="M20,55.6c0.1,0.1,0.1,0.2,0,0.3l-1,0.9c-0.1,0.1-0.2,0.1-0.3,0l0,0c-0.1-0.1-0.1-0.2,0-0.3l1-0.9
				C19.8,55.5,20,55.6,20,55.6L20,55.6z"/>
			<path fill="#F4E49F" d="M28,59.9c0.1,0.1,0.1,0.2,0,0.3l-1,0.9c-0.1,0.1-0.2,0.1-0.3,0l0,0c-0.1-0.1-0.1-0.2,0-0.3l1-0.9
				C27.8,59.8,27.9,59.8,28,59.9L28,59.9z"/>
			<path fill="#F4E49F" d="M29.8,61.4c0,0.1,0,0.2-0.2,0.2l-1.1,0.2c-0.1,0-0.2,0-0.2-0.2l0,0c0-0.1,0-0.2,0.2-0.2l1.1-0.2
				C29.7,61.3,29.8,61.3,29.8,61.4L29.8,61.4z"/>
			<path fill="#F4E49F" d="M18.8,52c0.1,0.1,0.1,0.3,0,0.4l-1.4,1.1c-0.1,0.1-0.3,0.1-0.4,0l0,0c-0.1-0.1-0.1-0.3,0-0.4l1.4-1.1
				C18.5,51.8,18.7,51.8,18.8,52L18.8,52z"/>
			<path fill="#F4E49F" d="M22.7,54.7c0.1,0.1,0.1,0.3,0,0.4l-1.2,1c-0.1,0.1-0.3,0.1-0.4,0l0,0c-0.1-0.1-0.1-0.3,0-0.4l1.2-1
				C22.4,54.6,22.6,54.6,22.7,54.7L22.7,54.7z"/>
			<path fill="#F4E49F" d="M25.5,59.9c0,0.2-0.1,0.3-0.3,0.3l-1.5,0.1c-0.2,0-0.3-0.1-0.3-0.3l0,0c0-0.2,0.1-0.3,0.3-0.3l1.5-0.1
				C25.3,59.6,25.5,59.7,25.5,59.9L25.5,59.9z"/>
			<path fill="#F4E49F" d="M22.6,57c0,0.2-0.1,0.3-0.3,0.3l-1.5,0.1c-0.2,0-0.3-0.1-0.3-0.3l0,0c0-0.2,0.1-0.3,0.3-0.3l1.5-0.1
				C22.5,56.8,22.6,56.9,22.6,57L22.6,57z"/>
			<path fill="#F4E49F" d="M25.7,54.4c0,0.2-0.1,0.3-0.3,0.3l-1.5,0.1c-0.2,0-0.3-0.1-0.3-0.3l0,0c0-0.2,0.1-0.3,0.3-0.3l1.5-0.1
				C25.6,54.1,25.7,54.2,25.7,54.4L25.7,54.4z"/>
		</g>
		<g>
			<path fill="#F4E49F" d="M15.4,57.6c0.1-0.2,0.4-0.2,0.5-0.1l1.7,1.3c0.2,0.1,0.2,0.4,0.1,0.5l0,0c-0.1,0.2-0.4,0.2-0.5,0.1
				l-1.7-1.3C15.3,58,15.2,57.8,15.4,57.6L15.4,57.6z"/>
			<path fill="#F4E49F" d="M15.7,56.2c0-0.1,0.1-0.2,0.3-0.2l1.3,0.2c0.1,0,0.2,0.1,0.2,0.3l0,0c0,0.1-0.1,0.2-0.3,0.2l-1.3-0.2
				C15.8,56.5,15.7,56.3,15.7,56.2L15.7,56.2z"/>
			<path fill="#F4E49F" d="M14.1,47.3c0-0.1,0.1-0.2,0.3-0.2l1.3,0.2c0.1,0,0.2,0.1,0.2,0.3l0,0c0,0.1-0.1,0.2-0.3,0.2l-1.3-0.2
				C14.2,47.6,14.1,47.4,14.1,47.3L14.1,47.3z"/>
			<path fill="#F4E49F" d="M14.2,45c0.1-0.1,0.2-0.1,0.3,0l0.8,0.7c0.1,0.1,0.1,0.2,0,0.3l0,0c-0.1,0.1-0.2,0.1-0.3,0l-0.8-0.7
				C14.1,45.2,14.1,45,14.2,45L14.2,45z"/>
			<path fill="#F4E49F" d="M13.6,59.5c0-0.2,0.2-0.3,0.4-0.2l1.7,0.4c0.2,0,0.3,0.2,0.2,0.4l0,0c0,0.2-0.2,0.3-0.4,0.2l-1.7-0.4
				C13.7,59.8,13.6,59.6,13.6,59.5L13.6,59.5z"/>
			<path fill="#F4E49F" d="M13.3,54.7c0-0.1,0.2-0.2,0.3-0.2l1.5,0.3c0.1,0,0.2,0.2,0.2,0.3l0,0c0,0.2-0.2,0.2-0.3,0.2L13.5,55
				C13.4,55,13.3,54.9,13.3,54.7L13.3,54.7z"/>
			<path fill="#F4E49F" d="M15.7,49.4c0.1-0.1,0.3-0.1,0.4,0l1,1.1c0.1,0.1,0.1,0.3,0,0.4l0,0c-0.1,0.1-0.3,0.1-0.4,0l-1-1.1
				C15.5,49.6,15.5,49.5,15.7,49.4L15.7,49.4z"/>
			<path fill="#F4E49F" d="M15.2,53.3c0.1-0.1,0.3-0.1,0.4,0l1,1.1c0.1,0.1,0.1,0.3,0,0.4l0,0c-0.1,0.1-0.3,0.1-0.4,0l-1-1.1
				C15.1,53.6,15.1,53.4,15.2,53.3L15.2,53.3z"/>
			<path fill="#F4E49F" d="M11.2,52.6c0.1-0.1,0.3-0.1,0.4,0l1,1.1c0.1,0.1,0.1,0.3,0,0.4l0,0c-0.1,0.1-0.3,0.1-0.4,0l-1-1.1
				C11.1,52.8,11.1,52.7,11.2,52.6L11.2,52.6z"/>
		</g>
		<g>
			<path fill="#F4E49F" d="M44,36.4c0-0.2-0.2-0.4-0.4-0.4h-2.2c-0.2,0-0.4,0.2-0.4,0.4v0.2c0,0.2,0.2,0.4,0.4,0.4h2.2
				c0.2,0,0.4-0.2,0.4-0.4V36.4z"/>
			<path fill="#F4E49F" d="M40.9,37.6c-0.1,0.1,0,0.3,0.1,0.3l1.1,0.6c0.1,0.1,0.3,0,0.3-0.1l0,0c0.1-0.1,0-0.3-0.1-0.3l-1.1-0.6
				C41.1,37.5,41,37.5,40.9,37.6L40.9,37.6z"/>
			<path fill="#F4E49F" d="M34.2,43.7c-0.1,0.1,0,0.3,0.1,0.3l1.1,0.6c0.1,0.1,0.3,0,0.3-0.1l0,0c0.1-0.1,0-0.3-0.1-0.3l-1.1-0.6
				C34.4,43.6,34.3,43.6,34.2,43.7L34.2,43.7z"/>
			<path fill="#F4E49F" d="M32.9,45.7c0,0.1,0.1,0.2,0.2,0.2l1.1,0c0.1,0,0.2-0.1,0.2-0.2l0,0c0-0.1-0.1-0.2-0.2-0.2l-1.1,0
				C33,45.5,32.9,45.6,32.9,45.7L32.9,45.7z"/>
			<path fill="#F4E49F" d="M41.2,33.7c-0.1,0.2,0,0.3,0.2,0.4l1.6,0.7c0.2,0.1,0.3,0,0.4-0.2l0,0c0.1-0.2,0-0.3-0.2-0.4l-1.6-0.7
				C41.4,33.5,41.2,33.6,41.2,33.7L41.2,33.7z"/>
			<path fill="#F4E49F" d="M38.1,37.4c-0.1,0.1,0,0.3,0.1,0.4l1.4,0.6c0.1,0.1,0.3,0,0.4-0.1l0,0c0.1-0.1,0-0.3-0.1-0.4l-1.4-0.6
				C38.3,37.2,38.1,37.2,38.1,37.4L38.1,37.4z"/>
			<path fill="#F4E49F" d="M36.7,43c0,0.1,0.2,0.2,0.3,0.2l1.5-0.3c0.1,0,0.2-0.2,0.2-0.3l0,0c0-0.2-0.2-0.2-0.3-0.2l-1.5,0.3
				C36.8,42.7,36.7,42.9,36.7,43L36.7,43z"/>
			<path fill="#F4E49F" d="M38.8,39.6c0,0.1,0.2,0.2,0.3,0.2l1.5-0.3c0.2,0,0.2-0.2,0.2-0.3l0,0c0-0.2-0.2-0.2-0.3-0.2L39,39.3
				C38.8,39.3,38.7,39.5,38.8,39.6L38.8,39.6z"/>
			<path fill="#F4E49F" d="M35.1,37.8c0,0.1,0.2,0.2,0.3,0.2l1.5-0.3c0.1,0,0.2-0.2,0.2-0.3l0,0c0-0.2-0.2-0.2-0.3-0.2l-1.5,0.3
				C35.2,37.5,35.1,37.7,35.1,37.8L35.1,37.8z"/>
		</g>
		<g>
			<path fill="#F4E49F" d="M46.1,55.5c-0.1,0.2,0,0.4,0.2,0.5l1.9,1c0.2,0.1,0.4,0,0.5-0.2l0,0c0.1-0.2,0-0.4-0.2-0.5l-1.9-1
				C46.5,55.3,46.2,55.3,46.1,55.5L46.1,55.5z"/>
			<path fill="#F4E49F" d="M45,56.4c-0.1,0.1-0.1,0.2-0.1,0.3l0.7,1.1c0.1,0.1,0.2,0.1,0.3,0.1l0,0c0.1-0.1,0.1-0.2,0.1-0.3
				l-0.7-1.1C45.3,56.4,45.1,56.3,45,56.4L45,56.4z"/>
			<path fill="#F4E49F" d="M36.3,58.7c-0.1,0.1-0.1,0.2-0.1,0.3l0.7,1.1c0.1,0.1,0.2,0.1,0.3,0.1l0,0c0.1-0.1,0.1-0.2,0.1-0.3
				l-0.7-1.1C36.5,58.7,36.4,58.7,36.3,58.7L36.3,58.7z"/>
			<path fill="#F4E49F" d="M34.2,59.8c0,0.1,0,0.2,0.1,0.3l1,0.5c0.1,0,0.2,0,0.3-0.1l0,0c0-0.1,0-0.2-0.1-0.3l-1-0.5
				C34.4,59.7,34.2,59.7,34.2,59.8L34.2,59.8z"/>
			<path fill="#F4E49F" d="M47.1,53.1c-0.1,0.1-0.2,0.3-0.1,0.4l1.1,1.4c0.1,0.1,0.3,0.2,0.4,0.1l0,0c0.1-0.1,0.2-0.3,0.1-0.4
				l-1.1-1.4C47.4,53.1,47.2,53,47.1,53.1L47.1,53.1z"/>
			<path fill="#F4E49F" d="M42.7,54.9c-0.1,0.1-0.1,0.3-0.1,0.4l0.9,1.2c0.1,0.1,0.3,0.1,0.4,0.1l0,0c0.1-0.1,0.1-0.3,0.1-0.4
				L43,54.9C43,54.8,42.8,54.8,42.7,54.9L42.7,54.9z"/>
			<path fill="#F4E49F" d="M38.8,59.3c0,0.1,0,0.3,0.2,0.3l1.5,0.4c0.1,0,0.3,0,0.3-0.2l0,0c0-0.1,0-0.3-0.2-0.3l-1.5-0.4
				C39,59,38.8,59.1,38.8,59.3L38.8,59.3z"/>
			<path fill="#F4E49F" d="M42.2,57.2c0,0.1,0,0.3,0.2,0.3l1.5,0.4c0.1,0,0.3,0,0.3-0.2l0,0c0-0.1,0-0.3-0.2-0.3L42.6,57
				C42.4,57,42.3,57,42.2,57.2L42.2,57.2z"/>
			<path fill="#F4E49F" d="M39.8,53.9c0,0.1,0,0.3,0.2,0.3l1.5,0.4c0.1,0,0.3,0,0.3-0.2l0,0c0-0.1,0-0.3-0.2-0.3l-1.5-0.4
				C40,53.6,39.9,53.7,39.8,53.9L39.8,53.9z"/>
		</g>
		<g>
			<path fill="#F4E49F" d="M49.7,48.4c0.1,0.2,0.4,0.2,0.5,0l1.6-1.4c0.2-0.1,0.2-0.4,0-0.5l0,0c-0.1-0.2-0.4-0.2-0.5,0l-1.6,1.4
				C49.6,48,49.6,48.2,49.7,48.4L49.7,48.4z"/>
			<path fill="#F4E49F" d="M50.1,49.7c0,0.1,0.2,0.2,0.3,0.2l1.3-0.3c0.1,0,0.2-0.2,0.2-0.3l0,0c0-0.1-0.2-0.2-0.3-0.2l-1.3,0.3
				C50.2,49.5,50.1,49.6,50.1,49.7L50.1,49.7z"/>
			<path fill="#F4E49F" d="M49,58.7c0,0.1,0.2,0.2,0.3,0.2l1.3-0.3c0.1,0,0.2-0.2,0.2-0.3l0,0c0-0.1-0.2-0.2-0.3-0.2l-1.3,0.3
				C49.1,58.5,49,58.6,49,58.7L49,58.7z"/>
			<path fill="#F4E49F" d="M49.2,61.1c0.1,0.1,0.2,0.1,0.3,0l0.8-0.7c0.1-0.1,0.1-0.2,0-0.3l0,0c-0.1-0.1-0.2-0.1-0.3,0l-0.8,0.7
				C49.2,60.9,49.2,61,49.2,61.1L49.2,61.1z"/>
			<path fill="#F4E49F" d="M47.9,46.6c0,0.2,0.2,0.3,0.4,0.2l1.7-0.5c0.2,0,0.3-0.2,0.2-0.4l0,0c0-0.2-0.2-0.3-0.4-0.2l-1.7,0.5
				C47.9,46.3,47.8,46.4,47.9,46.6L47.9,46.6z"/>
			<path fill="#F4E49F" d="M47.8,51.4c0,0.1,0.2,0.2,0.3,0.2l1.5-0.4c0.1,0,0.2-0.2,0.2-0.3l0,0c0-0.1-0.2-0.2-0.3-0.2L48,51
				C47.9,51.1,47.8,51.2,47.8,51.4L47.8,51.4z"/>
			<path fill="#F4E49F" d="M50.5,56.6c0.1,0.1,0.3,0.1,0.4,0l1-1.2c0.1-0.1,0.1-0.3,0-0.4l0,0c-0.1-0.1-0.3-0.1-0.4,0l-1,1.2
				C50.3,56.3,50.3,56.5,50.5,56.6L50.5,56.6z"/>
			<path fill="#F4E49F" d="M49.8,52.6c0.1,0.1,0.3,0.1,0.4,0l0.9-1.2c0.1-0.1,0.1-0.3,0-0.4l0,0c-0.1-0.1-0.3-0.1-0.4,0l-0.9,1.2
				C49.7,52.4,49.7,52.5,49.8,52.6L49.8,52.6z"/>
			<path fill="#F4E49F" d="M45.8,53.6c0.1,0.1,0.3,0.1,0.4,0l0.9-1.2c0.1-0.1,0.1-0.3,0-0.4l0,0c-0.1-0.1-0.3-0.1-0.4,0l-0.9,1.2
				C45.7,53.4,45.7,53.5,45.8,53.6L45.8,53.6z"/>
		</g>
		<g>
			<path fill="#C95039" d="M42.7,37.3c0.1-0.1,0.1-0.1,0.2-0.2c0.6-0.9-0.6-2.6-2.6-3.9c-1.7-1.1-3.5-1.6-4.3-1.1l0,0
				c-0.8,0.5-2.6,0.1-4.4-1.1c-1.6-1.1-2.7-2.4-2.7-3.4c-0.3,0.2-0.6,0.4-0.8,0.8l-1.7,2.8c-0.1,0.2-0.2-0.2-0.3,0.8h0
				c-0.1,0-0.1-0.1-0.2-0.1c-0.6,0.9,0.6,2.5,2.6,3.8c1.8,1.2,3.6,1.5,4.4,1c0,0,0,0,0,0c0.8-0.5,2.6,0,4.3,1.1
				c1.6,1.1,2.7,2.4,2.7,3.4c0.3-0.2,0.6-0.4,0.8-0.8l1.7-2.5C42.6,37.7,42.7,37.5,42.7,37.3z M35.8,32.2
				C35.8,32.2,35.8,32.2,35.8,32.2C35.8,32.2,35.8,32.2,35.8,32.2z M30.2,32.3c0.1,0.1,0.2,0.1,0.4,0.2
				C30.5,32.5,30.3,32.4,30.2,32.3z M27.4,31C27.4,31,27.4,31,27.4,31C27.4,31,27.4,31,27.4,31z M27.6,31.3
				C27.6,31.3,27.6,31.3,27.6,31.3C27.6,31.3,27.6,31.3,27.6,31.3z M27.9,31.3C27.9,31.3,27.9,31.4,27.9,31.3
				C27.9,31.4,27.9,31.3,27.9,31.3z M28.2,31.4c0,0,0.1,0,0.1,0C28.2,31.4,28.2,31.4,28.2,31.4z M28.5,31.5c0,0,0.1,0,0.1,0.1
				C28.6,31.5,28.5,31.5,28.5,31.5z M28.8,31.6c0.1,0,0.1,0,0.2,0.1C28.9,31.7,28.9,31.6,28.8,31.6z M29.2,31.8
				c0.1,0,0.1,0.1,0.2,0.1C29.3,31.8,29.2,31.8,29.2,31.8z M29.5,31.9c0.1,0,0.1,0.1,0.2,0.1C29.6,32,29.6,32,29.5,31.9z M29.9,32.1
				c0.1,0,0.2,0.1,0.2,0.1C30,32.2,29.9,32.1,29.9,32.1z M33.1,36.6c0,0,0.1-0.1,0.1-0.1C33.2,36.5,33.1,36.6,33.1,36.6z M38.6,36.6
				c-0.1-0.1-0.2-0.1-0.4-0.2C38.4,36.4,38.5,36.5,38.6,36.6z M41.5,38C41.5,38,41.5,38,41.5,38C41.5,38,41.5,38,41.5,38z
				 M41.3,37.6C41.2,37.6,41.2,37.6,41.3,37.6C41.2,37.6,41.2,37.6,41.3,37.6z M41,37.5c0,0-0.1,0-0.1,0
				C40.9,37.5,40.9,37.5,41,37.5z M40.7,37.5c0,0-0.1,0-0.1,0C40.6,37.5,40.6,37.5,40.7,37.5z M40.4,37.4c0,0-0.1,0-0.2-0.1
				C40.3,37.3,40.3,37.4,40.4,37.4z M40,37.3c-0.1,0-0.1,0-0.2-0.1C39.9,37.2,40,37.2,40,37.3z M39.7,37.1c-0.1,0-0.1-0.1-0.2-0.1
				C39.6,37.1,39.6,37.1,39.7,37.1z M39.3,37c-0.1,0-0.1-0.1-0.2-0.1C39.2,36.9,39.3,36.9,39.3,37z M39,36.8c-0.1,0-0.2-0.1-0.2-0.1
				C38.8,36.7,38.9,36.7,39,36.8z"/>
			<path fill="#AD361A" d="M42.9,37.2c0.6-0.9-0.6-2.6-2.6-3.9c-1.5-1-3.1-1.4-4-1.2l-3,4.6c0.9-0.2,2.5,0.2,4,1.2
				c1.6,1.1,2.7,2.4,2.7,3.4c0.3-0.2,0.6-0.4,0.8-0.8l1.7-2.5c0.1-0.2,0.2-0.4,0.3-0.6C42.8,37.3,42.9,37.2,42.9,37.2z"/>
			<g>
				<path fill="#ED8A72" d="M38.5,36c-1.7-1.1-3.5-1.6-4.3-1.1c0,0,0,0,0,0c-0.8,0.5-2.6,0.1-4.4-1.1c-2-1.3-3-3.3-2.4-4.1
					c0-0.1-0.1,0.1,0,0c0,0,0,0,0,0c0.1-0.2,0.1-0.2,0.3-0.4l-0.4,0.3C27,29.8,26.9,30,26.9,30h0c-0.1,0-0.1,0.3-0.2,0.4
					c-0.6,0.9,0.6,2.7,2.6,4c1.8,1.2,3.6,1.6,4.4,1.1c0,0,0,0,0,0c0.8-0.5,2.6,0,4.3,1.1c1.6,1.1,2.7,2.4,2.7,3.4
					c0.3-0.2,0.6-0.4,0.8-0.8l0.4-0.6c-0.2,0.3-0.5,0.6-0.8,0.8C41.2,38.5,40.1,37.1,38.5,36z"/>
				<path fill="#ED8A72" d="M39.5,34.4c-1.7-1.1-3.5-1.6-4.3-1.1c0,0,0,0,0,0c-0.8,0.5-2.6,0.1-4.4-1.1c-2-1.3-3.2-3.1-2.6-3.9
					c0-0.1,0.1-0.1,0.2-0.2c0,0,0,0,0,0c0,0,0,0,0,0l-0.1,0.1c-0.1,0.2-0.2,0.4-0.3,0.6c0,0,0,0,0,0c-0.1,0.1-0.1,0.1-0.2,0.2
					c-0.6,0.9,0.6,2.6,2.6,3.9c1.8,1.2,3.6,1.6,4.4,1.1c0,0,0,0,0,0c0.8-0.5,2.6,0,4.3,1.1c1.6,1.1,2.7,2.4,2.7,3.4
					c0.3-0.2,0.6-0.4,0.8-0.8l0.1-0.3c-0.2,0.3-0.2,0.2-0.5,0.4C42.2,36.8,41.2,35.5,39.5,34.4z"/>
			</g>
		</g>
		<g>
			<path fill="#C95039" d="M43.2,57.9c0,0,0,0.1,0,0.1c0,0.4,2,0.9,4.4,0.7c2-0.2,3.7-0.7,4.2-0.7h0c0.3-1,2.1-1,4.2-1.2
				c1.9-0.1,3.6-0.1,4.2,0.1c0.1-0.1,0.2-0.4,0.2-0.5l-0.1-1.2c0-0.1,0-0.2-0.1-0.2h0c0,0,0-0.2,0-0.2c0-0.4-2-0.7-4.4-0.5
				c-2.1,0.2-3.9,0.6-4.2,1c0,0,0,0,0,0c-0.4,0.4-2.1,0.8-4.2,0.9c-1.9,0.1-3.6,0-4.2-0.3C43.1,56,43,56.2,43,56.4l0.1,1.3
				C43.1,57.8,43.2,57.9,43.2,57.9z M51.8,57.5C51.8,57.5,51.8,57.5,51.8,57.5C51.8,57.5,51.8,57.5,51.8,57.5z M56.3,55.8
				c-0.1,0-0.3,0-0.4,0C56,55.8,56.2,55.8,56.3,55.8z M59.3,55.3C59.3,55.3,59.3,55.3,59.3,55.3C59.3,55.3,59.3,55.3,59.3,55.3z
				 M59.1,55.3C59,55.3,59,55.3,59.1,55.3C59,55.3,59,55.3,59.1,55.3z M58.8,55.4C58.8,55.4,58.8,55.4,58.8,55.4
				C58.8,55.4,58.8,55.4,58.8,55.4z M58.5,55.5c0,0-0.1,0-0.1,0C58.4,55.5,58.5,55.5,58.5,55.5z M58.2,55.5c-0.1,0-0.1,0-0.2,0
				C58.1,55.5,58.2,55.5,58.2,55.5z M57.9,55.6c-0.1,0-0.1,0-0.2,0C57.8,55.6,57.8,55.6,57.9,55.6z M57.5,55.6c-0.1,0-0.1,0-0.2,0
				C57.4,55.7,57.5,55.7,57.5,55.6z M57.1,55.7c-0.1,0-0.2,0-0.2,0C57,55.7,57.1,55.7,57.1,55.7z M56.7,55.7c-0.1,0-0.2,0-0.3,0
				C56.6,55.8,56.7,55.8,56.7,55.7z M51.5,55.3C51.5,55.3,51.5,55.3,51.5,55.3C51.5,55.3,51.5,55.3,51.5,55.3z M47,56.9
				c0.1,0,0.3,0,0.4,0C47.3,56.9,47.2,56.9,47,56.9z M44.1,57.5C44.1,57.5,44.1,57.5,44.1,57.5C44.1,57.5,44.1,57.5,44.1,57.5z
				 M44.3,57.4C44.3,57.4,44.3,57.4,44.3,57.4C44.3,57.4,44.3,57.4,44.3,57.4z M44.6,57.3C44.6,57.3,44.6,57.3,44.6,57.3
				C44.6,57.3,44.6,57.3,44.6,57.3z M44.8,57.3c0,0,0.1,0,0.1,0C44.9,57.3,44.9,57.3,44.8,57.3z M45.2,57.2c0,0,0.1,0,0.2,0
				C45.3,57.2,45.2,57.2,45.2,57.2z M45.5,57.2c0.1,0,0.1,0,0.2,0C45.6,57.1,45.6,57.1,45.5,57.2z M45.9,57.1c0.1,0,0.1,0,0.2,0
				C46,57.1,45.9,57.1,45.9,57.1z M46.2,57c0.1,0,0.2,0,0.2,0C46.4,57,46.3,57,46.2,57z M46.6,57c0.1,0,0.2,0,0.3,0
				C46.8,57,46.7,57,46.6,57z"/>
			<path fill="#AD361A" d="M43.2,58c0,0.4,2,0.7,4.4,0.5c1.8-0.1,3.3-0.5,4-0.8l-0.2-2.4c-0.6,0.3-2.2,0.7-4,0.8
				c-1.9,0.1-3.6,0-4.2-0.3C43.1,56,43,56.2,43,56.4l0.1,1.3c0,0.1,0,0.2,0.1,0.3C43.2,58,43.2,58,43.2,58z"/>
			<g>
				<path fill="#ED8A72" d="M47.5,57.1c2.1-0.2,3.8-0.6,4.2-0.9c0,0,0,0,0,0c0.3-0.4,2.1-0.8,4.2-1c2.4-0.2,4.4,0,4.4,0.5
					c0,0,0,0.1,0,0.1c0,0,0,0,0,0c0.1,0.1,0.1,0.2,0.1,0.3l0-0.5c0-0.1,0-0.5-0.1-0.5c0,0,0,0,0,0c0,0,0,0.1,0,0.1
					c0-0.4-2-0.6-4.4-0.4c-2.1,0.2-3.9,0.6-4.2,1c0,0,0,0,0,0c-0.4,0.4-2.1,0.8-4.2,1c-1.9,0.1-3.6,0-4.2-0.2
					c-0.1,0.2-0.2,0.3-0.2,0.5l0,0.3c0-0.2,0.1-0.3,0.2-0.5C43.9,57.1,45.5,57.2,47.5,57.1z"/>
				<path fill="#ED8A72" d="M47.5,57.9c2.1-0.2,3.8-0.6,4.2-0.9c0,0,0,0,0,0c0.3-0.4,2.1-0.8,4.2-1c2.4-0.2,4.4,0,4.4,0.5
					c0,0,0,0.1,0,0.1l0,0c0.1,0.1-0.1,0.2,0,0.3l0.1-0.4c0-0.1,0-0.4-0.1-0.4h0c0,0,0,0.1,0,0c0-0.4-2-0.6-4.4-0.4
					c-2.1,0.2-3.9,0.6-4.2,1c0,0,0,0,0,0c-0.4,0.4-2.1,0.8-4.2,1c-1.9,0.1-3.6,0-4.2-0.2c-0.1,0.2-0.2,0.3-0.2,0.5l0.1,0.2
					c0-0.2,0.1-0.1,0.2-0.4C43.9,57.9,45.6,58.1,47.5,57.9z"/>
			</g>
		</g>
		<g>
			<circle fill="#E06027" cx="20" cy="52.4" r="1"/>
			<circle fill="#FF855A" cx="20.1" cy="52.2" r="0.8"/>
		</g>
		<g>
			<circle fill="#E06027" cx="14.5" cy="60.1" r="1"/>
			<circle fill="#FF855A" cx="14.4" cy="59.9" r="0.8"/>
		</g>
		<g>
			<path fill="#77003C" d="M19.4,55.1c-1-0.4-2.1,0-2.4,0.9c-0.3,0.7,0.3,0.9,1.1,1.2c-0.1,0.1-0.2,0.3-0.2,0.4
				c-0.2,0.6,0.1,0.5,0.4,0.6c0.3,0.1,0.5,0.4,0.7-0.2c0.1-0.2,0.1-0.3,0.1-0.5c0.8,0.3,1.3,0.6,1.6-0.1
				C21,56.5,20.4,55.5,19.4,55.1z"/>
			<path fill="#440029" d="M17.8,57.6c-0.2,0.6,0.1,0.5,0.4,0.6c0.3,0.1,0.5,0.4,0.7-0.2c0.1-0.2,0.1-0.3,0.1-0.5
				c0.8,0.3,1.3,0.6,1.6-0.1c0.3-0.9-0.3-1.9-1.3-2.3"/>
		</g>
		<g>
			<path fill="#74B208" d="M22.6,60.3c0-0.3-0.1-0.6-0.4-0.7c-0.3-0.1-0.6,0.1-0.7,0.3c-0.3-0.1-0.6,0.1-0.7,0.4
				c-0.1,0.3,0.1,0.7,0.4,0.8c0.2,0.1,0.5,0,0.6-0.2c0,0.2,0.2,0.4,0.4,0.5c0.3,0.1,0.7-0.1,0.8-0.4C23.1,60.7,22.9,60.4,22.6,60.3z
				"/>
			<path fill="#52A305" d="M21.1,61.1c0.2,0.1,0.5,0,0.6-0.2c0,0.2,0.2,0.4,0.4,0.5c0.3,0.1,0.7-0.1,0.8-0.4
				c0.1-0.3-0.1-0.6-0.4-0.8"/>
			<path fill="#52A305" d="M21.8,60.9c0,0.2,0.2,0.4,0.4,0.5c0.3,0.1,0.7-0.1,0.8-0.4c0.1-0.3-0.1-0.6-0.4-0.8
				c0-0.3-0.1-0.6-0.4-0.7"/>
			
				<ellipse transform="matrix(0.9413 -0.3376 0.3376 0.9413 -19.0655 10.6869)" fill="#9CD827" cx="21.2" cy="60.2" rx="0.2" ry="0.1"/>
			
				<ellipse transform="matrix(0.9415 -0.337 0.337 0.9415 -18.8591 10.8683)" fill="#9CD827" cx="21.9" cy="59.8" rx="0.2" ry="0.1"/>
		</g>
		<g>
			<path fill="#C95039" d="M6.2,60.8c0,0.1,0,0.1,0.1,0.2c0.5,0.6,2.4-0.3,4.2-1.8c1.5-1.4,2.5-2.8,2.4-3.6l0,0
				c-0.1-0.7,0.8-2.3,2.4-3.7c1.5-1.3,3-2.1,3.7-2c0-0.4-0.2-0.5-0.4-0.8l-1.4-1.7C17.2,47.2,17,47.1,17,47v0c0-0.1-0.1-0.1-0.1-0.2
				c-0.5-0.6-2.4,0.3-4.2,1.8c-1.6,1.4-2.6,3-2.5,3.7c0,0,0,0,0,0c0.1,0.8-0.9,2.2-2.4,3.6c-1.5,1.3-3,2.1-3.7,2
				c0,0.3,0.2,0.5,0.4,0.8l1.5,1.7C6,60.6,6.1,60.7,6.2,60.8z M12.9,55.3C12.9,55.3,12.9,55.3,12.9,55.3
				C12.9,55.3,12.9,55.3,12.9,55.3z M14.8,50.5c-0.1,0.1-0.2,0.2-0.3,0.3C14.6,50.7,14.7,50.6,14.8,50.5z M16.7,48.1
				C16.7,48.1,16.7,48.1,16.7,48.1C16.7,48.1,16.7,48.1,16.7,48.1z M16.6,48.3C16.6,48.3,16.5,48.4,16.6,48.3
				C16.5,48.4,16.6,48.3,16.6,48.3z M16.4,48.6C16.4,48.6,16.4,48.6,16.4,48.6C16.4,48.6,16.4,48.6,16.4,48.6z M16.3,48.8
				c0,0,0,0.1-0.1,0.1C16.2,48.9,16.2,48.8,16.3,48.8z M16.1,49.1c0,0-0.1,0.1-0.1,0.1C16,49.1,16,49.1,16.1,49.1z M15.9,49.3
				c0,0-0.1,0.1-0.1,0.1C15.8,49.4,15.8,49.4,15.9,49.3z M15.6,49.6c0,0.1-0.1,0.1-0.1,0.2C15.5,49.7,15.6,49.7,15.6,49.6z
				 M15.4,49.9c-0.1,0.1-0.1,0.1-0.2,0.2C15.3,50,15.3,50,15.4,49.9z M15.1,50.2c-0.1,0.1-0.1,0.1-0.2,0.2
				C15,50.3,15,50.3,15.1,50.2z M10.2,52.5c0,0,0,0.1,0.1,0.1C10.3,52.6,10.3,52.5,10.2,52.5z M8.3,57.3c0.1-0.1,0.2-0.2,0.3-0.3
				C8.5,57.1,8.4,57.2,8.3,57.3z M6.4,59.7C6.4,59.7,6.4,59.6,6.4,59.7C6.4,59.6,6.4,59.7,6.4,59.7z M6.5,59.5
				C6.6,59.4,6.6,59.4,6.5,59.5C6.6,59.4,6.6,59.4,6.5,59.5z M6.7,59.2C6.7,59.2,6.7,59.2,6.7,59.2C6.7,59.2,6.7,59.2,6.7,59.2z
				 M6.9,59c0,0,0-0.1,0.1-0.1C6.9,58.9,6.9,58.9,6.9,59z M7,58.7c0,0,0.1-0.1,0.1-0.1C7.1,58.6,7.1,58.7,7,58.7z M7.3,58.4
				c0,0,0.1-0.1,0.1-0.1C7.3,58.3,7.3,58.4,7.3,58.4z M7.5,58.1c0,0,0.1-0.1,0.1-0.2C7.6,58,7.5,58.1,7.5,58.1z M7.8,57.9
				c0.1-0.1,0.1-0.1,0.2-0.2C7.9,57.7,7.8,57.8,7.8,57.9z M8,57.6c0.1-0.1,0.1-0.1,0.2-0.2C8.2,57.4,8.1,57.5,8,57.6z"/>
			<path fill="#AD361A" d="M6.3,60.9c0.5,0.6,2.4-0.3,4.2-1.8c1.3-1.2,2.3-2.5,2.4-3.3l-2.7-3.1C10,53.5,9.1,54.8,7.8,56
				c-1.5,1.3-3,2.1-3.7,2c0,0.3,0.2,0.5,0.4,0.8l1.5,1.7c0.1,0.1,0.2,0.2,0.4,0.3C6.3,60.8,6.3,60.9,6.3,60.9z"/>
			<g>
				<path fill="#ED8A72" d="M8.7,57.2c1.5-1.4,2.3-2.9,2.3-3.6c0,0,0,0,0,0c0-0.7,1-2.3,2.6-3.7c1.8-1.6,3.7-2.4,4.3-1.8
					c0,0,0.2,0.1,0.2,0.2c0,0,0,0,0,0c0,0.1,0.3,0.2,0.4,0.3L18,48.1c-0.1-0.1-0.2-0.2-0.4-0.3c0,0,0,0,0,0c0-0.1,0-0.1-0.1-0.2
					c-0.5-0.6-2.4,0.3-4.2,1.8c-1.6,1.4-2.6,2.9-2.4,3.7c0,0,0,0,0,0c0.1,0.8-0.9,2.2-2.4,3.6c-1.5,1.3-3,2.1-3.7,2
					c0,0.3,0.2,0.5,0.4,0.8L5.4,60c-0.2-0.2-0.4-0.5-0.4-0.8C5.8,59.3,7.2,58.5,8.7,57.2z"/>
				<path fill="#ED8A72" d="M9.8,58.3c1.5-1.4,2.5-2.9,2.4-3.6c0,0,0,0,0,0c-0.1-0.7,0.8-2.3,2.4-3.7c1.8-1.6,3.8-2.3,4.3-1.7
					c0,0,0-0.1,0,0c0,0,0,0,0,0c0,0.1,0,0.2,0.1,0.3l0-0.4C19.1,49.1,19,49,19,48.9c0,0,0,0,0,0c0-0.1-0.3-0.1-0.3-0.2
					c-0.5-0.6-2.5,0.3-4.3,1.8c-1.6,1.4-2.6,2.9-2.5,3.7c0,0,0,0,0,0C12,55,11,56.5,9.4,57.9c-1.5,1.3-3,2.1-3.8,2
					c0,0.3,0.2,0.5,0.4,0.8l0.2,0.1C6,60.5,6.1,60.6,6,60.3C6.8,60.4,8.3,59.6,9.8,58.3z"/>
			</g>
		</g>
		<g>
			<path fill="#77003C" d="M46.2,50.3c-1.1,0.3-1.8,1.2-1.5,2.1c0.2,0.8,0.8,0.6,1.6,0.3c0,0.2,0,0.3,0.1,0.5
				c0.1,0.6,0.4,0.4,0.7,0.3c0.3-0.1,0.6,0,0.5-0.6c0-0.2-0.1-0.3-0.2-0.5c0.8-0.2,1.4-0.3,1.3-1C48.3,50.6,47.2,50.1,46.2,50.3z"/>
			<path fill="#440029" d="M46.3,53.2c0.1,0.6,0.4,0.4,0.7,0.3c0.3-0.1,0.6,0,0.5-0.6c0-0.2-0.1-0.3-0.2-0.5c0.8-0.2,1.4-0.3,1.3-1
				c-0.2-0.9-1.3-1.4-2.3-1.2"/>
		</g>
		<g>
			<polygon fill="#FFE36E" points="50.7,47.9 48.9,46.1 48.1,48.5 			"/>
			<polygon fill="#FFCF03" points="50.7,47.9 48.9,46.1 49.2,48.3 			"/>
		</g>
	</g>
</g>
</svg>
