<?xml version="1.0" encoding="utf-8"?>
<!-- Generator: Adobe Illustrator 16.0.0, SVG Export Plug-In . SVG Version: 6.00 Build 0)  -->
<!DOCTYPE svg PUBLIC "-//W3C//DTD SVG 1.1//EN" "http://www.w3.org/Graphics/SVG/1.1/DTD/svg11.dtd">
<svg version="1.1" id="Layer_1" xmlns="http://www.w3.org/2000/svg" xmlns:xlink="http://www.w3.org/1999/xlink" x="0px" y="0px"
	 width="64px" height="64px" viewBox="0 0 64 64" enable-background="new 0 0 64 64" xml:space="preserve">
<g>
	<polygon fill="#2D9EAA" points="45.4,63 18.6,63 7.5,31 56.5,31 	"/>
	<polyline fill="#18899B" points="8,31 56.5,31 45.4,63 	"/>
	<polygon fill="#99CCCE" points="41.2,63 22.8,63 15.3,31 48.7,31 	"/>
	<polyline fill="#88BCBC" points="16,31 48.7,31 41.2,63 	"/>
	<polygon fill="#18899B" points="35.6,63 28.4,63 25.5,31 38.5,31 	"/>
	<polyline fill="#2D9EAA" points="35,63 28.4,63 25.5,31 	"/>
	<polygon fill="#0A6077" points="56.5,31 7.5,31 10.9,23.9 53.2,24 	"/>
	<polygon fill="#02445B" points="51,31 13,31 10.8,24 53.2,24 	"/>
	<polygon fill="#EFD27F" points="39,54 25,54 22.8,40 41.2,40 	"/>
	<polyline fill="#E2B544" points="23,40 41.2,40 39.2,53.4 	"/>
	<g>
		<circle fill="#0A6077" cx="26" cy="42.6" r="0.8"/>
		<circle fill="#0A6077" cx="29" cy="42.6" r="0.8"/>
		<circle fill="#0A6077" cx="32" cy="42.6" r="0.8"/>
		<circle fill="#0A6077" cx="35" cy="42.6" r="0.8"/>
		<circle fill="#0A6077" cx="38" cy="42.6" r="0.8"/>
	</g>
	<g>
		<path fill="#0A6077" d="M27.4,52.1c0,0.4-0.3,0.7-0.7,0.7c-0.4,0-0.7-0.3-0.7-0.7c0-0.4,0.3-0.7,0.7-0.7
			C27.1,51.4,27.4,51.7,27.4,52.1z"/>
		<circle fill="#0A6077" cx="29.4" cy="52.1" r="0.7"/>
		<circle fill="#0A6077" cx="32" cy="52.1" r="0.7"/>
		<circle fill="#0A6077" cx="34.6" cy="52.1" r="0.7"/>
		<circle fill="#0A6077" cx="37.3" cy="52.1" r="0.7"/>
	</g>
	<g>
		<path fill="#EFD27F" d="M23.7,23.1c-0.6-1.2-1.9-1.8-3.2-1.4c-1.3,0.4-2.1,1.6-1.9,3c-1.3,0.5-2.1,1.9-1.7,3.3
			c0.4,1.4,1.9,2.3,3.4,1.8c1.1-0.3,1.8-1.2,1.9-2.3c0.7,0.8,1.8,1.2,2.9,0.9c1.4-0.4,2.3-1.9,1.8-3.4
			C26.5,23.5,25.1,22.7,23.7,23.1z"/>
		<path fill="#E2B544" d="M20.3,29.7c1.1-0.3,1.8-1.2,1.9-2.3c0.7,0.8,1.8,1.2,2.9,0.9c1.4-0.4,2.3-1.9,1.8-3.4
			c-0.4-1.4-1.8-2.2-3.2-1.9"/>
		<path fill="#E2B544" d="M22.2,27.4c0.7,0.8,1.8,1.2,2.9,0.9c1.4-0.4,2.3-1.9,1.8-3.4c-0.4-1.4-1.8-2.2-3.2-1.9
			c-0.6-1.2-1.9-1.8-3.2-1.4"/>
		<path fill="#FFF0B0" d="M18.9,25.3c0.2,0.2,0.1,0.6-0.2,1.1c-0.3,0.4-0.8,0.7-1,0.5c-0.2-0.2-0.1-0.6,0.2-1.1
			C18.2,25.3,18.7,25.1,18.9,25.3z"/>
		<path fill="#FFF0B0" d="M20.3,22.2c0.2,0.1,0.1,0.5-0.2,0.9c-0.3,0.4-0.7,0.6-0.8,0.4c-0.2-0.1-0.1-0.5,0.2-0.9
			C19.8,22.3,20.1,22.1,20.3,22.2z"/>
	</g>
	<g>
		<path fill="#EFD27F" d="M47.6,3.7c0.1-1.3-0.7-2.6-2-2.9c-1.3-0.4-2.6,0.3-3.2,1.5c-1.4-0.3-2.8,0.6-3.2,1.9
			c-0.4,1.5,0.5,2.9,1.9,3.3c1.1,0.3,2.2-0.1,2.8-0.9c0.2,1,0.9,1.9,2,2.2c1.5,0.4,3-0.5,3.3-1.9C49.8,5.6,49,4.2,47.6,3.7z"/>
		<path fill="#E2B544" d="M41.2,7.6c1.1,0.3,2.2-0.1,2.8-0.9c0.2,1,0.9,1.9,2,2.2c1.5,0.4,3-0.5,3.3-1.9c0.4-1.4-0.4-2.8-1.7-3.3"/>
		<path fill="#E2B544" d="M44.1,6.7c0.2,1,0.9,1.9,2,2.2c1.5,0.4,3-0.5,3.3-1.9c0.4-1.4-0.4-2.8-1.7-3.3c0.1-1.3-0.7-2.6-2-2.9"/>
		<path fill="#FFF0B0" d="M42.4,3c0.1,0.2-0.3,0.6-0.8,0.8c-0.5,0.2-1,0.2-1.1-0.1c-0.1-0.2,0.3-0.6,0.8-0.8
			C41.8,2.8,42.3,2.8,42.4,3z"/>
		<path fill="#FFF0B0" d="M45.2,1.2c0.1,0.2-0.2,0.5-0.7,0.7c-0.4,0.2-0.9,0.1-1-0.1c-0.1-0.2,0.2-0.5,0.7-0.7
			C44.7,1,45.1,1,45.2,1.2z"/>
	</g>
	<g>
		<path fill="#EFD27F" d="M30.5,3.2C30,2.4,29,2.1,28.1,2.4c-0.9,0.4-1.3,1.3-1.1,2.2c-0.9,0.4-1.3,1.5-0.9,2.5c0.4,1,1.5,1.4,2.5,1
			c0.7-0.3,1.2-1,1.2-1.8c0.5,0.5,1.4,0.7,2.1,0.4c1-0.4,1.4-1.5,1-2.5C32.5,3.3,31.4,2.9,30.5,3.2z"/>
		<path fill="#E2B544" d="M28.6,8.1c0.7-0.3,1.2-1,1.2-1.8c0.5,0.5,1.4,0.7,2.1,0.4c1-0.4,1.4-1.5,1-2.5c-0.4-0.9-1.4-1.4-2.4-1.1"
			/>
		<path fill="#E2B544" d="M29.7,6.4c0.5,0.5,1.4,0.7,2.1,0.4c1-0.4,1.4-1.5,1-2.5c-0.4-0.9-1.4-1.4-2.4-1.1C30,2.4,29,2.1,28.1,2.4"
			/>
		<ellipse transform="matrix(0.5133 -0.8582 0.8582 0.5133 8.1586 25.8392)" fill="#FFF0B0" cx="26.9" cy="5.7" rx="0.7" ry="0.3"/>
		<path fill="#FFF0B0" d="M28,2.9c0.1,0.1,0.1,0.4-0.1,0.7c-0.2,0.3-0.4,0.5-0.6,0.4c-0.1-0.1-0.1-0.4,0.1-0.7
			C27.6,3,27.9,2.8,28,2.9z"/>
	</g>
	<g>
		<path fill="#EFD27F" d="M52.3,19.8c-0.1-0.8-0.7-1.5-1.6-1.5c-0.8,0-1.6,0.5-1.7,1.3c-0.9,0-1.6,0.7-1.7,1.6
			c-0.1,0.9,0.7,1.7,1.6,1.8c0.7,0,1.3-0.3,1.6-0.9c0.2,0.6,0.8,1.1,1.5,1.1c0.9,0.1,1.7-0.7,1.8-1.6C53.8,20.7,53.2,19.9,52.3,19.8
			z"/>
		<path fill="#E2B544" d="M48.9,22.9c0.7,0,1.3-0.3,1.6-0.9c0.2,0.6,0.8,1.1,1.5,1.1c0.9,0.1,1.7-0.7,1.8-1.6
			c0.1-0.9-0.6-1.6-1.5-1.8"/>
		<path fill="#E2B544" d="M50.5,22c0.2,0.6,0.8,1.1,1.5,1.1c0.9,0.1,1.7-0.7,1.8-1.6c0.1-0.9-0.6-1.6-1.5-1.8
			c-0.1-0.8-0.7-1.5-1.6-1.5"/>
		<path fill="#FFF0B0" d="M49,20.1c0.1,0.1-0.1,0.4-0.4,0.6c-0.3,0.2-0.6,0.2-0.7,0.1c-0.1-0.1,0.1-0.4,0.4-0.6
			C48.6,20,48.9,19.9,49,20.1z"/>
		<path fill="#FFF0B0" d="M50.5,18.6c0.1,0.1-0.1,0.3-0.3,0.5c-0.2,0.2-0.5,0.2-0.6,0.1c-0.1-0.1,0.1-0.3,0.3-0.5
			C50.2,18.5,50.4,18.5,50.5,18.6z"/>
	</g>
	<g>
		<path fill="#EFD27F" d="M34.2,26c-0.1-0.8-0.7-1.5-1.6-1.5c-0.8,0-1.6,0.5-1.7,1.3c-0.9,0-1.6,0.7-1.7,1.6
			c-0.1,0.9,0.7,1.7,1.6,1.8c0.7,0,1.3-0.3,1.6-0.9c0.2,0.6,0.8,1.1,1.5,1.1c0.9,0.1,1.7-0.7,1.8-1.6C35.7,26.9,35.1,26.1,34.2,26z"
			/>
		<path fill="#E2B544" d="M30.8,29.1c0.7,0,1.3-0.3,1.6-0.9c0.2,0.6,0.8,1.1,1.5,1.1c0.9,0.1,1.7-0.7,1.8-1.6
			c0.1-0.9-0.6-1.6-1.5-1.8"/>
		<path fill="#E2B544" d="M32.4,28.2c0.2,0.6,0.8,1.1,1.5,1.1c0.9,0.1,1.7-0.7,1.8-1.6c0.1-0.9-0.6-1.6-1.5-1.8
			c-0.1-0.8-0.7-1.5-1.6-1.5"/>
		<ellipse transform="matrix(0.8371 -0.547 0.547 0.8371 -9.5931 20.9758)" fill="#FFF0B0" cx="30.4" cy="26.6" rx="0.6" ry="0.3"/>
		<path fill="#FFF0B0" d="M32.4,24.8c0.1,0.1-0.1,0.3-0.3,0.5c-0.2,0.2-0.5,0.2-0.6,0.1c-0.1-0.1,0.1-0.3,0.3-0.5
			C32.1,24.7,32.4,24.7,32.4,24.8z"/>
	</g>
	<g>
		<path fill="#EFD27F" d="M48.8,13.4c-0.1-0.8-0.7-1.5-1.6-1.5c-0.8,0-1.6,0.5-1.7,1.3c-0.9,0-1.6,0.7-1.7,1.6
			c-0.1,0.9,0.7,1.7,1.6,1.8c0.7,0,1.3-0.3,1.6-0.9c0.2,0.6,0.8,1.1,1.5,1.1c0.9,0.1,1.7-0.7,1.8-1.6C50.4,14.3,49.7,13.5,48.8,13.4
			z"/>
		<path fill="#E2B544" d="M45.5,16.5c0.7,0,1.3-0.3,1.6-0.9c0.2,0.6,0.8,1.1,1.5,1.1c0.9,0.1,1.7-0.7,1.8-1.6
			c0.1-0.9-0.6-1.6-1.5-1.8"/>
		<path fill="#E2B544" d="M47.1,15.6c0.2,0.6,0.8,1.1,1.5,1.1c0.9,0.1,1.7-0.7,1.8-1.6c0.1-0.9-0.6-1.6-1.5-1.8
			c-0.1-0.8-0.7-1.5-1.6-1.5"/>
		<path fill="#FFF0B0" d="M45.6,13.7c0.1,0.1-0.1,0.4-0.4,0.6c-0.3,0.2-0.6,0.2-0.7,0.1c-0.1-0.1,0.1-0.4,0.4-0.6
			C45.2,13.6,45.5,13.5,45.6,13.7z"/>
		<path fill="#FFF0B0" d="M47,12.2c0.1,0.1-0.1,0.3-0.3,0.5c-0.2,0.2-0.5,0.2-0.6,0.1c-0.1-0.1,0.1-0.3,0.3-0.5
			C46.7,12.1,47,12.1,47,12.2z"/>
	</g>
	<g>
		<path fill="#EFD27F" d="M29.4,11.5c-0.1-0.5-0.5-1-1-1c-0.6,0-1,0.3-1.1,0.9c-0.6,0-1.1,0.5-1.1,1c0,0.6,0.4,1.1,1,1.2
			c0.5,0,0.9-0.2,1.1-0.6c0.1,0.4,0.5,0.7,1,0.7c0.6,0,1.1-0.4,1.2-1C30.4,12.1,29.9,11.6,29.4,11.5z"/>
		<path fill="#E2B544" d="M27.1,13.6c0.5,0,0.9-0.2,1.1-0.6c0.1,0.4,0.5,0.7,1,0.7c0.6,0,1.1-0.4,1.2-1c0-0.6-0.4-1.1-1-1.2"/>
		<path fill="#E2B544" d="M28.2,13c0.1,0.4,0.5,0.7,1,0.7c0.6,0,1.1-0.4,1.2-1c0-0.6-0.4-1.1-1-1.2c-0.1-0.5-0.5-1-1-1"/>
		<path fill="#FFF0B0" d="M27.2,11.7c0.1,0.1-0.1,0.3-0.2,0.4c-0.2,0.1-0.4,0.2-0.4,0.1c-0.1-0.1,0-0.3,0.2-0.4
			C26.9,11.6,27.1,11.6,27.2,11.7z"/>
		<path fill="#FFF0B0" d="M28.2,10.7c0.1,0.1,0,0.2-0.2,0.3c-0.2,0.1-0.3,0.1-0.4,0.1c0-0.1,0-0.2,0.2-0.3
			C28,10.7,28.1,10.6,28.2,10.7z"/>
	</g>
	<g>
		<path fill="#EFD27F" d="M42.2,18c-0.1-0.5-0.5-1-1-1c-0.5,0-1,0.3-1.1,0.9c-0.6,0-1.1,0.5-1.1,1c0,0.6,0.4,1.1,1,1.2
			c0.5,0,0.9-0.2,1.1-0.6c0.1,0.4,0.5,0.7,1,0.7c0.6,0,1.1-0.4,1.2-1C43.2,18.5,42.8,18,42.2,18z"/>
		<path fill="#E2B544" d="M40,20.1c0.5,0,0.9-0.2,1.1-0.6c0.1,0.4,0.5,0.7,1,0.7c0.6,0,1.1-0.4,1.2-1c0-0.6-0.4-1.1-1-1.2"/>
		<path fill="#E2B544" d="M41,19.4c0.1,0.4,0.5,0.7,1,0.7c0.6,0,1.1-0.4,1.2-1c0-0.6-0.4-1.1-1-1.2c-0.1-0.5-0.5-1-1-1"/>
		<path fill="#FFF0B0" d="M40,18.1c0.1,0.1-0.1,0.3-0.2,0.4c-0.2,0.1-0.4,0.2-0.4,0.1c-0.1-0.1,0.1-0.3,0.2-0.4
			C39.8,18.1,40,18.1,40,18.1z"/>
		<path fill="#FFF0B0" d="M41,17.2c0.1,0.1,0,0.2-0.2,0.3c-0.2,0.1-0.3,0.1-0.4,0.1c0-0.1,0-0.2,0.2-0.3C40.8,17.1,41,17.1,41,17.2z
			"/>
	</g>
	<g>
		<path fill="#EFD27F" d="M16.5,18.8C16,18,15,17.6,14.2,18c-0.9,0.4-1.3,1.3-1.1,2.2c-0.9,0.4-1.3,1.5-0.9,2.5c0.4,1,1.5,1.4,2.5,1
			c0.7-0.3,1.2-1,1.2-1.8c0.5,0.5,1.3,0.7,2.1,0.4c1-0.4,1.4-1.5,1-2.5C18.5,18.9,17.5,18.5,16.5,18.8z"/>
		<path fill="#E2B544" d="M14.6,23.7c0.7-0.3,1.2-1,1.2-1.8c0.5,0.5,1.3,0.7,2.1,0.4c1-0.4,1.4-1.5,1-2.5c-0.4-0.9-1.4-1.4-2.4-1.1"
			/>
		<path fill="#E2B544" d="M15.8,22c0.5,0.5,1.3,0.7,2.1,0.4c1-0.4,1.4-1.5,1-2.5c-0.4-0.9-1.4-1.4-2.4-1.1C16,18,15,17.6,14.2,18"/>
		<path fill="#FFF0B0" d="M13.3,20.7c0.2,0.1,0.1,0.4-0.1,0.8c-0.2,0.3-0.5,0.5-0.6,0.4c-0.2-0.1-0.1-0.4,0.1-0.8
			C12.8,20.8,13.1,20.6,13.3,20.7z"/>
		<path fill="#FFF0B0" d="M14.1,18.5c0.1,0.1,0.1,0.4-0.1,0.7c-0.2,0.3-0.4,0.5-0.6,0.4c-0.1-0.1-0.1-0.4,0.1-0.7
			C13.7,18.6,14,18.4,14.1,18.5z"/>
	</g>
	<g>
		<path fill="#EFD27F" d="M33.2,17.2c-0.3-1.3-1.5-2.2-2.9-2c-1.3,0.1-2.4,1.2-2.5,2.5c-1.4,0.2-2.4,1.5-2.3,2.9
			c0.1,1.5,1.5,2.6,3,2.5c1.1-0.1,2-0.9,2.3-1.8c0.5,0.9,1.5,1.5,2.6,1.4c1.5-0.1,2.6-1.5,2.5-3C35.8,18.2,34.6,17.2,33.2,17.2z"/>
		<path fill="#E2B544" d="M28.5,23.1c1.1-0.1,2-0.9,2.3-1.8c0.5,0.9,1.5,1.5,2.6,1.4c1.5-0.1,2.6-1.5,2.5-3
			c-0.1-1.4-1.3-2.5-2.8-2.5"/>
		<path fill="#E2B544" d="M30.8,21.2c0.5,0.9,1.5,1.5,2.6,1.4c1.5-0.1,2.6-1.5,2.5-3c-0.1-1.4-1.3-2.5-2.8-2.5
			c-0.3-1.3-1.5-2.2-2.9-2"/>
		<path fill="#FFF0B0" d="M28,18.4c0.2,0.2,0,0.6-0.4,1c-0.4,0.4-0.9,0.5-1.1,0.3c-0.2-0.2,0-0.6,0.5-1C27.4,18.3,27.8,18.2,28,18.4
			z"/>
		<path fill="#FFF0B0" d="M30,15.7c0.2,0.2,0,0.6-0.4,0.9c-0.4,0.3-0.8,0.4-0.9,0.3c-0.1-0.2,0-0.6,0.4-0.9
			C29.5,15.7,29.9,15.6,30,15.7z"/>
	</g>
	<g>
		<path fill="#EFD27F" d="M40.3,10.1c0-1.3-1-2.4-2.4-2.6c-1.3-0.2-2.6,0.7-2.9,1.9c-1.4-0.1-2.7,0.9-2.9,2.4
			c-0.2,1.5,0.9,2.9,2.4,3.1c1.1,0.1,2.1-0.4,2.7-1.3c0.3,1,1.2,1.8,2.3,1.9c1.5,0.2,2.9-0.9,3.1-2.4C42.6,11.6,41.7,10.3,40.3,10.1
			z"/>
		<path fill="#E2B544" d="M34.4,14.8c1.1,0.1,2.1-0.4,2.7-1.3c0.3,1,1.2,1.8,2.3,1.9c1.5,0.2,2.9-0.9,3.1-2.4c0.2-1.4-0.8-2.7-2.2-3
			"/>
		<path fill="#E2B544" d="M37.1,13.5c0.3,1,1.2,1.8,2.3,1.9c1.5,0.2,2.9-0.9,3.1-2.4c0.2-1.4-0.8-2.7-2.2-3c0-1.3-1-2.4-2.4-2.6"/>
		<path fill="#FFF0B0" d="M34.9,10.1c0.1,0.2-0.2,0.6-0.7,0.9c-0.5,0.3-1,0.3-1.1,0.1c-0.1-0.2,0.2-0.6,0.7-0.9
			C34.3,9.9,34.8,9.9,34.9,10.1z"/>
		<path fill="#FFF0B0" d="M37.5,8c0.1,0.2-0.1,0.5-0.6,0.8C36.5,9,36.1,9,36,8.8c-0.1-0.2,0.1-0.5,0.6-0.8C37,7.8,37.4,7.8,37.5,8z"
			/>
	</g>
	<g>
		<path fill="#EFD27F" d="M45.8,23.7c0-1.3-1-2.4-2.4-2.6c-1.3-0.2-2.6,0.7-2.9,1.9c-1.4-0.1-2.7,0.9-2.9,2.4
			c-0.2,1.5,0.9,2.9,2.3,3.1c1.1,0.1,2.1-0.4,2.7-1.3c0.3,1,1.2,1.8,2.3,1.9c1.5,0.2,2.9-0.9,3.1-2.3C48.1,25.2,47.2,23.9,45.8,23.7
			z"/>
		<path fill="#E2B544" d="M39.9,28.4c1.1,0.1,2.1-0.4,2.7-1.3c0.3,1,1.2,1.8,2.3,1.9c1.5,0.2,2.9-0.9,3.1-2.3c0.2-1.4-0.8-2.7-2.2-3
			"/>
		<path fill="#E2B544" d="M42.6,27.1c0.3,1,1.2,1.8,2.3,1.9c1.5,0.2,2.9-0.9,3.1-2.3c0.2-1.4-0.8-2.7-2.2-3c0-1.3-1-2.4-2.4-2.6"/>
		<path fill="#FFF0B0" d="M40.5,23.7c0.1,0.2-0.2,0.6-0.7,0.9c-0.5,0.3-1,0.3-1.1,0.1c-0.1-0.2,0.2-0.6,0.7-0.9
			C39.8,23.5,40.3,23.5,40.5,23.7z"/>
		<path fill="#FFF0B0" d="M43,21.5c0.1,0.2-0.1,0.5-0.6,0.8c-0.4,0.2-0.8,0.3-0.9,0.1c-0.1-0.2,0.1-0.5,0.6-0.8
			C42.5,21.4,42.9,21.3,43,21.5z"/>
	</g>
	<g>
		<path fill="#EFD27F" d="M22.5,11.3c0-1.3-1-2.4-2.4-2.6c-1.3-0.2-2.6,0.7-2.9,1.9c-1.4-0.1-2.7,0.9-2.9,2.4
			c-0.2,1.5,0.9,2.9,2.4,3.1c1.1,0.1,2.1-0.4,2.7-1.3c0.3,1,1.2,1.8,2.3,1.9c1.5,0.2,2.9-0.9,3.1-2.3C24.8,12.9,23.9,11.6,22.5,11.3
			z"/>
		<path fill="#E2B544" d="M16.6,16c1.1,0.1,2.1-0.4,2.7-1.3c0.3,1,1.2,1.8,2.3,1.9c1.5,0.2,2.9-0.9,3.1-2.3c0.2-1.4-0.8-2.7-2.2-3"
			/>
		<path fill="#E2B544" d="M19.3,14.7c0.3,1,1.2,1.8,2.3,1.9c1.5,0.2,2.9-0.9,3.1-2.3c0.2-1.4-0.8-2.7-2.2-3c0-1.3-1-2.4-2.4-2.6"/>
		<path fill="#FFF0B0" d="M17.1,11.4c0.1,0.2-0.2,0.6-0.7,0.9c-0.5,0.3-1,0.3-1.1,0.1c-0.1-0.2,0.2-0.6,0.7-0.9
			C16.5,11.2,17,11.1,17.1,11.4z"/>
		<path fill="#FFF0B0" d="M19.7,9.2c0.1,0.2-0.1,0.5-0.6,0.8c-0.4,0.2-0.8,0.3-1,0.1c-0.1-0.2,0.1-0.5,0.6-0.8
			C19.2,9,19.6,9,19.7,9.2z"/>
	</g>
</g>
</svg>
