<?xml version="1.0" encoding="utf-8"?>
<!-- Generator: Adobe Illustrator 16.0.0, SVG Export Plug-In . SVG Version: 6.00 Build 0)  -->
<!DOCTYPE svg PUBLIC "-//W3C//DTD SVG 1.1//EN" "http://www.w3.org/Graphics/SVG/1.1/DTD/svg11.dtd">
<svg version="1.1" id="Layer_1" xmlns="http://www.w3.org/2000/svg" xmlns:xlink="http://www.w3.org/1999/xlink" x="0px" y="0px"
	 width="64px" height="64px" viewBox="0 0 64 64" enable-background="new 0 0 64 64" xml:space="preserve">
<g>
	<polygon fill="#D63834" points="43.3,61.8 20.6,61.8 23.6,54 40.4,54 	"/>
	<polyline fill="#8E0404" points="24,54 40.4,54 43.3,61.8 40,62 	"/>
	<path fill="#494949" d="M1.3,30C2.7,46,15.9,58,32,58c16.1,0,29.4-12,30.7-28H1.3z"/>
	<path fill="#FFFFFF" d="M62.2,27.6c0-1.9-1.5-3.4-3.4-3.4c-0.3,0-0.6,0.1-0.9,0.1c0.2-0.4,0.4-0.9,0.4-1.5c0-1.7-1.4-3.1-3.1-3.1
		c-0.5,0-0.9,0.1-1.3,0.3c-0.6-0.5-1.2-1-1.8-1.5c0.3-0.5,0.5-1,0.5-1.6c0-1.7-1.4-3.1-3.1-3.1c-1.2,0-2.2,0.7-2.7,1.7
		c-0.5-0.2-1-0.4-1.6-0.7c-0.2-1.1-0.9-2-1.9-2.5c-0.3-2.8-2.6-5-5.5-5c-1.8,0-3.5,0.9-4.5,2.3C32.9,9.3,32.2,9,31.4,9
		c-1.5,0-2.7,1-3.1,2.3c-0.6-0.7-1.4-1.1-2.4-1.1c-1.5,0-2.7,1-3,2.4c-0.6-0.6-1.4-1-2.4-1c-1.8,0-3.3,1.5-3.3,3.3
		c0,0.1,0,0.2,0,0.4c-0.8-0.9-1.9-1.4-3.2-1.4c-2.3,0-4.2,1.9-4.2,4.2c0,0.5,0.1,0.9,0.2,1.3c-0.5-0.3-1.1-0.5-1.7-0.5
		c-1.8,0-3.3,1.5-3.3,3.3c0,0.5,0.1,1,0.4,1.5c-0.1,0-0.2,0-0.2,0c-2.1,0-3.8,1.7-3.8,3.8c0,1.6,0.9,3.1,2.3,3.7
		c0,0.2-0.1-0.1-0.1,0.9h56.8c0-1-0.1-0.8-0.1-1.1C61.4,30.3,62.2,28.9,62.2,27.6z"/>
	<path fill="#EFEEE8" d="M62.2,29.1c0-1.2-1.5-2.1-3.4-2.1c-0.3,0-0.6,0-0.9,0.1c0.2-0.3,0.4-0.6,0.4-0.9c0-1.1-1.4-1.9-3.1-1.9
		c-0.5,0-0.9,0.1-1.3,0.2c-0.6-0.3-1.2-0.6-1.8-0.9c0.3-0.3,0.5-0.6,0.5-1c0-1.1-1.4-1.9-3.1-1.9c-1.2,0-2.2,0.4-2.7,1
		c-0.5-0.1-1-0.3-1.6-0.4c-0.2-0.7-0.9-1.3-1.9-1.6c-0.3-1.8-2.6-3.1-5.5-3.1c-1.8,0-3.5,0.6-4.5,1.4c-0.6-0.3-1.3-0.5-2.1-0.5
		c-1.5,0-2.7,0.6-3.1,1.4c-0.6-0.4-1.4-0.7-2.4-0.7c-1.5,0-2.7,0.6-3,1.5c-0.6-0.4-1.4-0.6-2.4-0.6c-1.8,0-3.3,0.9-3.3,2.1
		c0,0.1,0,0.2,0,0.2c-0.8-0.6-1.9-0.9-3.2-0.9c-2.3,0-4.2,1.2-4.2,2.7c0,0.3,0.1,0.6,0.2,0.8c-0.5-0.2-1.1-0.3-1.7-0.3
		c-1.8,0-3.3,0.9-3.3,2.1c0,0.3,0.1,0.6,0.4,0.9c-0.1,0-0.2,0-0.2,0c-2.1,0-3.8,1.1-3.8,2.4c0,1,0.9,2.1,2.3,2.4
		c0,0.1-0.1-0.3-0.1,0.7h56.8c0-1-0.1-0.6-0.1-0.8C61.4,30.9,62.2,29.9,62.2,29.1z"/>
	<path fill="#D8D5CA" d="M39,32h21.4c0-1-0.1-0.6-0.1-0.8c1.1-0.3,1.9-1.2,1.9-2c0-1.2-1.5-2.2-3.4-2.2c-0.3,0-0.6,0-0.9,0.1
		c0.2-0.3,0.4-0.6,0.4-1c0-1.1-1.4-1.9-3.1-1.9c-0.5,0-0.9,0.1-1.3,0.2c-0.6-0.3-1.2-0.6-1.8-0.9c0.3-0.3,0.5-0.6,0.5-1
		c0-1.1-1.4-1.9-3.1-1.9c-1.2,0-2.2,0.4-2.7,1c-0.5-0.1-1-0.3-1.6-0.4c-0.2-0.7-1.1-1.1-2-1.4"/>
	<path d="M32,58c16.1,0,29.3-12,30.7-28H1.3"/>
	<path fill="#F7D772" d="M60.9,38c0.4-1,0.7-3,1-4h-60c0.3,1,0.7,3,1.2,4H60.9z"/>
	<path fill="#EFA348" d="M10,38h50.9c0.4-1,0.9-2.9,1.2-4H6"/>
	<g>
		<ellipse fill="#F7D772" cx="25.9" cy="59.5" rx="1.1" ry="0.7"/>
		<ellipse fill="#F7D772" cx="30" cy="59.5" rx="1.1" ry="0.7"/>
		<ellipse fill="#F7D772" cx="34" cy="59.5" rx="1.1" ry="0.7"/>
		<ellipse fill="#F7D772" cx="38.1" cy="59.5" rx="1.1" ry="0.7"/>
	</g>
	<g>
		<path fill="#F7D772" d="M20.1,44.5c0-0.5-1.1-0.9-2.5-0.9c-0.1,0-0.1,0-0.2,0c0,0,0.1-0.1,0.1-0.1c1-1,1.5-2,1.1-2.4
			c-0.3-0.3-1.4,0.2-2.4,1.1c0,0-0.1,0.1-0.1,0.1c0-0.1,0-0.1,0-0.2c0-1.4-0.4-2.5-0.9-2.5s-0.9,1.1-0.9,2.5c0,0.1,0,0.1,0,0.2
			c0,0-0.1-0.1-0.1-0.1c-1-1-2-1.5-2.4-1.1c-0.3,0.3,0.2,1.4,1.1,2.4c0,0,0.1,0.1,0.1,0.1c-0.1,0-0.1,0-0.2,0
			c-1.4,0-2.5,0.4-2.5,0.9c0,0.5,1.1,0.9,2.5,0.9c0.1,0,0.1,0,0.2,0c0,0-0.1,0.1-0.1,0.1c-1,1-1.5,2-1.1,2.4
			c0.3,0.3,1.4-0.2,2.4-1.1c0,0,0.1-0.1,0.1-0.1c0,0.1,0,0.1,0,0.2c0,1.4,0.4,2.5,0.9,2.5s0.9-1.1,0.9-2.5c0-0.1,0-0.1,0-0.2
			c0,0,0.1,0.1,0.1,0.1c1,1,2,1.5,2.4,1.1c0.3-0.3-0.2-1.4-1.1-2.4c0,0-0.1-0.1-0.1-0.1c0.1,0,0.1,0,0.2,0
			C18.9,45.4,20.1,45,20.1,44.5z M15.3,45.4c-0.5,0-0.9-0.4-0.9-0.9s0.4-0.9,0.9-0.9c0.5,0,0.9,0.4,0.9,0.9S15.8,45.4,15.3,45.4z"/>
		<path fill="#F7D772" d="M31.2,44.5c0-0.5-1.1-0.9-2.5-0.9c-0.1,0-0.1,0-0.2,0c0,0,0.1-0.1,0.1-0.1c1-1,1.5-2,1.1-2.4
			c-0.3-0.3-1.4,0.2-2.4,1.1c0,0-0.1,0.1-0.1,0.1c0-0.1,0-0.1,0-0.2c0-1.4-0.4-2.5-0.9-2.5s-0.9,1.1-0.9,2.5c0,0.1,0,0.1,0,0.2
			c0,0-0.1-0.1-0.1-0.1c-1-1-2-1.5-2.4-1.1c-0.3,0.3,0.2,1.4,1.1,2.4c0,0,0.1,0.1,0.1,0.1c-0.1,0-0.1,0-0.2,0
			c-1.4,0-2.5,0.4-2.5,0.9c0,0.5,1.1,0.9,2.5,0.9c0.1,0,0.1,0,0.2,0c0,0-0.1,0.1-0.1,0.1c-1,1-1.5,2-1.1,2.4
			c0.3,0.3,1.4-0.2,2.4-1.1c0,0,0.1-0.1,0.1-0.1c0,0.1,0,0.1,0,0.2c0,1.4,0.4,2.5,0.9,2.5s0.9-1.1,0.9-2.5c0-0.1,0-0.1,0-0.2
			c0,0,0.1,0.1,0.1,0.1c1,1,2,1.5,2.4,1.1s-0.2-1.4-1.1-2.4c0,0-0.1-0.1-0.1-0.1c0.1,0,0.1,0,0.2,0C30.1,45.4,31.2,45,31.2,44.5z
			 M26.4,45.4c-0.5,0-0.9-0.4-0.9-0.9s0.4-0.9,0.9-0.9c0.5,0,0.9,0.4,0.9,0.9S26.9,45.4,26.4,45.4z"/>
		<path fill="#F7D772" d="M42.4,44.5c0-0.5-1.1-0.9-2.5-0.9c-0.1,0-0.1,0-0.2,0c0,0,0.1-0.1,0.1-0.1c1-1,1.5-2,1.1-2.4
			c-0.3-0.3-1.4,0.2-2.4,1.1c0,0-0.1,0.1-0.1,0.1c0-0.1,0-0.1,0-0.2c0-1.4-0.4-2.5-0.9-2.5s-0.9,1.1-0.9,2.5c0,0.1,0,0.1,0,0.2
			c0,0-0.1-0.1-0.1-0.1c-1-1-2-1.5-2.4-1.1c-0.3,0.3,0.2,1.4,1.1,2.4c0,0,0.1,0.1,0.1,0.1c-0.1,0-0.1,0-0.2,0
			c-1.4,0-2.5,0.4-2.5,0.9c0,0.5,1.1,0.9,2.5,0.9c0.1,0,0.1,0,0.2,0c0,0-0.1,0.1-0.1,0.1c-1,1-1.5,2-1.1,2.4
			c0.3,0.3,1.4-0.2,2.4-1.1c0,0,0.1-0.1,0.1-0.1c0,0.1,0,0.1,0,0.2c0,1.4,0.4,2.5,0.9,2.5s0.9-1.1,0.9-2.5c0-0.1,0-0.1,0-0.2
			c0,0,0.1,0.1,0.1,0.1c1,1,2,1.5,2.4,1.1c0.3-0.3-0.2-1.4-1.1-2.4c0,0-0.1-0.1-0.1-0.1c0.1,0,0.1,0,0.2,0
			C41.2,45.4,42.4,45,42.4,44.5z M37.6,45.4c-0.5,0-0.9-0.4-0.9-0.9s0.4-0.9,0.9-0.9c0.5,0,0.9,0.4,0.9,0.9S38.1,45.4,37.6,45.4z"/>
		<path fill="#F7D772" d="M53.5,44.5c0-0.5-1.1-0.9-2.5-0.9c-0.1,0-0.1,0-0.2,0c0,0,0.1-0.1,0.1-0.1c1-1,1.5-2,1.1-2.4
			c-0.3-0.3-1.4,0.2-2.4,1.1c0,0-0.1,0.1-0.1,0.1c0-0.1,0-0.1,0-0.2c0-1.4-0.4-2.5-0.9-2.5s-0.9,1.1-0.9,2.5c0,0.1,0,0.1,0,0.2
			c0,0-0.1-0.1-0.1-0.1c-1-1-2-1.5-2.4-1.1c-0.3,0.3,0.2,1.4,1.1,2.4c0,0,0.1,0.1,0.1,0.1c-0.1,0-0.1,0-0.2,0
			c-1.4,0-2.5,0.4-2.5,0.9c0,0.5,1.1,0.9,2.5,0.9c0.1,0,0.1,0,0.2,0c0,0-0.1,0.1-0.1,0.1c-1,1-1.5,2-1.1,2.4
			c0.3,0.3,1.4-0.2,2.4-1.1c0,0,0.1-0.1,0.1-0.1c0,0.1,0,0.1,0,0.2c0,1.4,0.4,2.5,0.9,2.5s0.9-1.1,0.9-2.5c0-0.1,0-0.1,0-0.2
			c0,0,0.1,0.1,0.1,0.1c1,1,2,1.5,2.4,1.1c0.3-0.3-0.2-1.4-1.1-2.4c0,0-0.1-0.1-0.1-0.1c0.1,0,0.1,0,0.2,0
			C52.4,45.4,53.5,45,53.5,44.5z M48.7,45.4c-0.5,0-0.9-0.4-0.9-0.9s0.4-0.9,0.9-0.9c0.5,0,0.9,0.4,0.9,0.9S49.2,45.4,48.7,45.4z"/>
	</g>
	<g>
		<g>
			<polygon fill="#D63834" points="44,24.3 41.3,23.2 48.9,1.8 53.3,3.6 			"/>
			<polygon fill="#8E0404" points="44,24.3 42.4,23.7 51.1,4.6 53.3,3.6 			"/>
			<path fill="#C1BBA8" d="M45.5,25.8c-0.2,0.5-0.7,0.7-1.2,0.5l-4.7-1.9c-0.5-0.2-0.7-0.7-0.5-1.2l0,0c0.2-0.5,0.7-0.7,1.2-0.5
				l4.7,1.9C45.5,24.8,45.7,25.4,45.5,25.8L45.5,25.8z"/>
		</g>
		<polygon fill="#ED7777" points="49.1,2 51.1,4.6 49.3,8.7 		"/>
	</g>
	<g>
		<g>
			<polygon fill="#D63834" points="48.8,27.2 46.5,25.6 58.6,6.4 62.4,9.1 			"/>
			<polygon fill="#8E0404" points="48.8,27.2 47.4,26.3 60.1,9.6 62.4,9.1 			"/>
			<path fill="#C1BBA8" d="M50,29.1c-0.3,0.4-0.8,0.5-1.3,0.2l-4.1-2.8c-0.4-0.3-0.5-0.8-0.2-1.3l0,0c0.3-0.4,0.8-0.5,1.3-0.2
				l4.1,2.8C50.1,28.1,50.2,28.7,50,29.1L50,29.1z"/>
		</g>
		<polygon fill="#ED7777" points="58.6,6.7 60.1,9.6 57.3,13.3 		"/>
	</g>
	<path fill="#8E0404" d="M43.3,61.8c0,0.2-5,0.4-11.3,0.4S20.6,62,20.6,61.8s5.1-0.4,11.4-0.4S43.3,61.5,43.3,61.8z"/>
</g>
</svg>
