<?xml version="1.0" encoding="utf-8"?>
<!-- Generator: Adobe Illustrator 16.0.0, SVG Export Plug-In . SVG Version: 6.00 Build 0)  -->
<!DOCTYPE svg PUBLIC "-//W3C//DTD SVG 1.1//EN" "http://www.w3.org/Graphics/SVG/1.1/DTD/svg11.dtd">
<svg version="1.1" id="Layer_1" xmlns="http://www.w3.org/2000/svg" xmlns:xlink="http://www.w3.org/1999/xlink" x="0px" y="0px"
	 width="64px" height="64px" viewBox="0 0 64 64" enable-background="new 0 0 64 64" xml:space="preserve">
<g>
	<path fill="#0F8433" d="M55.2,8.5c-0.9-0.8-2.1-0.9-3.1-0.5c0.3-1.3-0.2-2.7-1.4-3.3c-1.3-0.7-2.9-0.4-3.8,0.7
		c0-1.3-0.9-2.6-2.3-2.9c-0.7-0.2-1.4-0.1-1.9,0.2C42,2,41.2,1.6,40.3,1.4c-1.5-0.2-2.8,0.5-3.6,1.6c-0.6-1.6-2.2-2.6-3.9-2.4
		c-1.9,0.2-3.3,1.7-3.4,3.5c-1-1.4-2.8-2-4.5-1.4c-2,0.7-3,2.9-2.2,4.9l4.9,13.2c-2.1,1.7-3.5,4.4-3.5,7.5c0,5.2,4,9.4,8.9,9.4
		s8.9-4.2,8.9-9.4c0-0.7-0.1-1.5-0.2-2.2c1,0.2,2-0.2,2.7-1l11-12.4C56.5,11.5,56.4,9.6,55.2,8.5z"/>
	<path fill="#026824" d="M52.5,10.9c-0.8-0.7-1.9-0.9-2.8-0.5c0.3-1.2-0.2-2.4-1.3-3C47.2,6.7,45.7,7,44.9,8c0-1.2-0.8-2.4-2.1-2.7
		c-0.6-0.2-1.2-0.1-1.8,0.2c-0.5-0.6-1.3-1-2.2-1.1c-1.3-0.2-2.6,0.5-3.3,1.5c-0.5-1.4-2-2.4-3.6-2.2c-1.7,0.2-3,1.5-3.2,3.2
		c-0.9-1.3-2.6-1.9-4.1-1.3c-1.8,0.7-2.7,2.7-2,4.5l4.5,12.1c-2,1.6-3.2,4.1-3.2,6.9c0,4.8,3.7,8.6,8.2,8.6c4.5,0,8.2-3.9,8.2-8.6
		c0-0.7-0.1-1.3-0.2-2c0.9,0.1,1.9-0.1,2.5-0.9l10.1-11.4C53.7,13.6,53.6,11.9,52.5,10.9z"/>
	<path fill="#003F12" d="M48.1,14.8c-0.7-0.6-1.6-0.7-2.4-0.4c0.2-1-0.2-2.1-1.1-2.6c-1-0.6-2.3-0.3-3,0.6c0-1.1-0.7-2-1.8-2.3
		c-0.5-0.1-1.1-0.1-1.5,0.2c-0.5-0.5-1.1-0.9-1.8-1c-1.2-0.1-2.2,0.4-2.8,1.3c-0.5-1.2-1.7-2.1-3.1-1.9c-1.5,0.1-2.6,1.3-2.7,2.7
		c-0.8-1.1-2.2-1.6-3.5-1.1c-1.5,0.6-2.3,2.3-1.8,3.9l3.9,10.4c-1.7,1.3-2.8,3.5-2.8,5.9c0,4.1,3.1,7.4,7,7.4s7-3.3,7-7.4
		c0-0.6-0.1-1.2-0.2-1.7c0.8,0.1,1.6-0.1,2.1-0.8l8.6-9.7C49.2,17.1,49.1,15.6,48.1,14.8z"/>
	<g>
		<circle fill="#00A057" cx="17.5" cy="15.8" r="11.9"/>
		<path fill="#008730" d="M17.5,3.9c6.6,0,11.9,5.3,11.9,11.9c0,6.6-5.3,11.9-11.9,11.9"/>
		<circle fill="#E9F98C" cx="17.5" cy="15.8" r="9.5"/>
		<path fill="#BEE874" d="M24.2,9.1c3.7,3.7,3.7,9.8,0,13.5c-3.7,3.7-9.8,3.7-13.5,0"/>
		<g>
			<g>
				<g>
					<path fill="#80C612" d="M16,10.2L16,10.2l1.5,3.5l1.5-3.5l0,0c0.1-0.2,0.1-0.4,0.1-0.7c0-0.9-0.7-1.6-1.6-1.6
						c-0.9,0-1.6,0.7-1.6,1.6C15.9,9.8,15.9,10,16,10.2z"/>
					<path fill="#80C612" d="M12.7,13.1L12.7,13.1l3.5,1.4L14.8,11l0,0c-0.1-0.2-0.2-0.4-0.4-0.6c-0.6-0.6-1.6-0.6-2.3,0
						c-0.6,0.6-0.6,1.6,0,2.3C12.3,12.9,12.5,13,12.7,13.1z"/>
					<path fill="#80C612" d="M20.7,10.8L20.7,10.8l-1.4,3.5l3.5-1.4l0,0c0.2-0.1,0.4-0.2,0.6-0.4c0.6-0.6,0.6-1.6,0-2.3
						c-0.6-0.6-1.6-0.6-2.3,0C20.9,10.4,20.8,10.6,20.7,10.8z"/>
					<path fill="#80C612" d="M22.6,18.8L22.6,18.8l-3.5-1.4l1.4,3.5l0,0c0.1,0.2,0.2,0.4,0.4,0.6c0.6,0.6,1.6,0.6,2.3,0
						c0.6-0.6,0.6-1.6,0-2.3C23,19,22.8,18.9,22.6,18.8z"/>
					<path fill="#80C612" d="M19,21.4L19,21.4l-1.5-3.5L16,21.4l0,0c-0.1,0.2-0.1,0.4-0.1,0.7c0,0.9,0.7,1.6,1.6,1.6
						c0.9,0,1.6-0.7,1.6-1.6C19.1,21.8,19,21.6,19,21.4z"/>
				</g>
				<g>
					<path fill="#80C612" d="M23.1,14.3L23.1,14.3l-3.5,1.5l3.5,1.5l0,0c0.2,0.1,0.4,0.1,0.7,0.1c0.9,0,1.6-0.7,1.6-1.6
						c0-0.9-0.7-1.6-1.6-1.6C23.5,14.2,23.3,14.2,23.1,14.3z"/>
					<path fill="#80C612" d="M11.9,17.3L11.9,17.3l3.5-1.5l-3.5-1.5l0,0c-0.2-0.1-0.4-0.1-0.7-0.1c-0.9,0-1.6,0.7-1.6,1.6
						c0,0.9,0.7,1.6,1.6,1.6C11.5,17.4,11.7,17.4,11.9,17.3z"/>
				</g>
			</g>
			<g>
				<g>
					<path fill="#80C612" d="M14.6,20.8L14.6,20.8l1.4-3.5l-3.5,1.4l0,0c-0.2,0.1-0.4,0.2-0.6,0.4c-0.6,0.6-0.6,1.6,0,2.3
						c0.6,0.6,1.6,0.6,2.3,0C14.4,21.2,14.5,21,14.6,20.8z"/>
				</g>
			</g>
		</g>
	</g>
	<g>
		<path fill="#82C60A" d="M41.2,6.3L41.2,6.3L41.2,6.3L41.2,6.3c-0.4,5.8-5.3,8.7-2.9,14.6c1.4,3.4,5.2,4.3,9.6,5.1l0,0l0.1,0h0
			c3-3,5.4-6.3,4.5-9.9C50.7,10,45,10.7,41.2,6.3z"/>
		<path fill="#5EA304" d="M47.9,26L47.9,26L47.9,26L47.9,26c3-3,5.5-6.4,4.5-9.9C50.7,10,45,10.7,41.2,6.3l0,0l-0.1,0l0,0"/>
		<g>
			<polygon fill="#74B208" points="44.2,15 40.3,14.1 44.6,16.2 46.6,12 			"/>
			<polygon fill="#74B208" points="46.4,21.6 42.6,20.7 46.8,22.8 48.9,18.6 			"/>
			<polygon fill="#74B208" points="45.3,18.3 40.9,17.2 45.7,19.6 48.1,14.8 			"/>
		</g>
	</g>
	<g>
		<path fill="#82C60A" d="M57,5.9L57,5.9L57,5.9L57,5.9c-2,3.8-6.5,4.3-6.8,9.1c-0.2,2.8,2.1,5,4.8,7h0h0h0c3.1-2,5.8-2.7,6.3-5.4
			C62.3,11.9,58,10.2,57,5.9z"/>
		<path fill="#5EA304" d="M55,22L55,22L55,22L55,22c3.2-2,5.8-2.7,6.3-5.4c0.9-4.7-3.3-6.4-4.3-10.7v0v0V6"/>
		<g>
			<polygon fill="#74B208" points="56.2,12.9 53.9,10.9 56.1,13.8 58.9,11.6 			"/>
			<polygon fill="#74B208" points="55.5,18.1 53.2,16.2 55.4,19 58.2,16.9 			"/>
			<polygon fill="#74B208" points="55.9,15.4 53.3,13.2 55.7,16.5 58.9,14 			"/>
		</g>
	</g>
	<g>
		<path fill="#AF0547" d="M61.1,28.7c-1.4,5.7-5,3.9-9.8,2.7c-4.8-1.1-8.8-1.2-7.5-6.9c1.4-5.7,6.9-11.7,11.7-10.6
			C60.3,15.1,62.5,23,61.1,28.7z"/>
		<path fill="#84003C" d="M55.6,13.9c4.8,1.1,7,9,5.6,14.7c-1.4,5.7-5,3.9-9.8,2.7"/>
		<g>
			
				<ellipse transform="matrix(0.9723 0.2337 -0.2337 0.9723 8.7887 -11.1243)" fill="#5EA304" cx="51.3" cy="31.5" rx="4" ry="0.6"/>
		</g>
		<g>
			<path fill="#527C00" d="M51.5,30.9c2.1,0.5,3.8,1.2,3.7,1.6c-0.1,0.3-1.9,0.2-4-0.3"/>
		</g>
		
			<ellipse transform="matrix(0.5008 0.8656 -0.8656 0.5008 39.8492 -36.6286)" fill="#D12269" cx="51.7" cy="16.2" rx="1" ry="3.2"/>
		<g>
			<g>
				<circle fill="#680034" cx="48" cy="25.1" r="0.7"/>
				<circle fill="#680034" cx="46.2" cy="27.6" r="0.7"/>
				<circle fill="#680034" cx="50.8" cy="23" r="0.7"/>
				<circle fill="#680034" cx="49" cy="20.1" r="0.6"/>
				<circle fill="#680034" cx="47" cy="22.2" r="0.6"/>
				<circle fill="#680034" cx="52.6" cy="19.7" r="0.5"/>
				<circle fill="#680034" cx="51.2" cy="17.4" r="0.5"/>
				<circle fill="#680034" cx="53.7" cy="15.8" r="0.4"/>
				<circle fill="#680034" cx="50.4" cy="28.3" r="0.7"/>
			</g>
			<g>
				<circle fill="#C1145A" cx="57.2" cy="27.3" r="0.7"/>
				<circle fill="#C1145A" cx="57.7" cy="30.4" r="0.7"/>
				<circle fill="#C1145A" cx="55.6" cy="24.2" r="0.7"/>
				<circle fill="#C1145A" cx="58.6" cy="22.4" r="0.6"/>
				<circle fill="#C1145A" cx="59.5" cy="25.2" r="0.6"/>
				<circle fill="#C1145A" cx="55.6" cy="20.4" r="0.5"/>
				<circle fill="#C1145A" cx="57.9" cy="19" r="0.5"/>
				<circle fill="#C1145A" cx="56.3" cy="16.5" r="0.4"/>
				<circle fill="#C1145A" cx="53.7" cy="29.1" r="0.7"/>
			</g>
		</g>
	</g>
	<g>
		<path fill="#AF0547" d="M48.4,27.7c-0.2,4.5-3.2,3.7-6.9,3.5c-3.7-0.1-6.8,0.4-6.6-4c0.2-4.5,3.4-9.8,7.1-9.7
			C45.8,17.7,48.6,23.3,48.4,27.7z"/>
		<path fill="#84003C" d="M42,17.5c3.7,0.1,6.6,5.7,6.4,10.2c-0.2,4.5-3.2,3.7-6.9,3.5"/>
		<g>
			
				<ellipse transform="matrix(0.9993 3.839626e-02 -3.839626e-02 0.9993 1.2327 -1.5707)" fill="#5EA304" cx="41.5" cy="31.3" rx="3.1" ry="0.5"/>
		</g>
		<g>
			<path fill="#527C00" d="M41.5,30.8c1.7,0.1,3,0.3,3,0.6c0,0.3-1.4,0.4-3.1,0.4"/>
		</g>
		
			<ellipse transform="matrix(0.6608 0.7506 -0.7506 0.6608 28.2698 -22.9122)" fill="#D12269" cx="39.5" cy="19.8" rx="0.7" ry="2.4"/>
		<g>
			<g>
				<circle fill="#680034" cx="38.1" cy="27" r="0.5"/>
				<circle fill="#680034" cx="37.1" cy="29.2" r="0.5"/>
				<circle fill="#680034" cx="39.9" cy="25" r="0.5"/>
				<circle fill="#680034" cx="38.1" cy="23.1" r="0.4"/>
				<circle fill="#680034" cx="36.8" cy="25" r="0.4"/>
				<circle fill="#680034" cx="40.7" cy="22.3" r="0.4"/>
				<circle fill="#680034" cx="39.3" cy="20.7" r="0.4"/>
				<circle fill="#680034" cx="40.9" cy="19.2" r="0.3"/>
				<circle fill="#680034" cx="40.3" cy="29" r="0.5"/>
			</g>
			<g>
				<circle fill="#C1145A" cx="45.3" cy="27.3" r="0.5"/>
				<circle fill="#C1145A" cx="46.1" cy="29.5" r="0.5"/>
				<circle fill="#C1145A" cx="43.6" cy="25.2" r="0.5"/>
				<circle fill="#C1145A" cx="45.6" cy="23.4" r="0.4"/>
				<circle fill="#C1145A" cx="46.6" cy="25.4" r="0.4"/>
				<circle fill="#C1145A" cx="43" cy="22.4" r="0.4"/>
				<path fill="#C1145A" d="M44.2,20.9c0,0.2,0.1,0.4,0.3,0.4c0.2,0,0.4-0.1,0.4-0.3c0-0.2-0.1-0.4-0.3-0.4
					C44.4,20.6,44.2,20.7,44.2,20.9z"/>
				<circle fill="#C1145A" cx="43" cy="19.3" r="0.3"/>
				<circle fill="#C1145A" cx="42.9" cy="29.1" r="0.5"/>
			</g>
		</g>
	</g>
	<path fill="#E9F98C" d="M38.8,32.4c0,0-14-14.8-19.5-13.5s-3.5,5.7-3.5,5.7s-4.5-1.3-5.8,1.2c-1.3,2.5-3.7,3.7-3.7,3.7l-2.2,2.3
		L7.5,35l34.2,0.7L38.8,32.4z"/>
	<path fill="#BEE874" d="M35.9,31.7c0,0-11.5-12.2-16-11.1S17,25.3,17,25.3s-3.7-1.1-4.8,1c-1.1,2.1-3,3-3,3l-1.8,1.9l2.7,2.7
		l28.1,0.5L35.9,31.7z"/>
	<path fill="#80C612" d="M36.2,33c0,0-11.3-11.9-15.7-10.9c-4.4,1.1-2.8,4.6-2.8,4.6s-3.6-1.1-4.7,0.9c-1.1,2-2.9,2.9-2.9,2.9
		l-1.7,1.9l2.7,2.7l27.5,0.5L36.2,33z"/>
	<path fill="#008730" d="M36.3,34.2c0,0-10.7-11.4-15-10.4c-4.2,1-2.7,4.3-2.7,4.3s-3.5-1-4.5,0.9c-1,1.9-2.8,2.8-2.8,2.8l-1.7,1.8
		l2.6,2.6l26.2,0.5L36.3,34.2z"/>
	<path fill="#026824" d="M37.4,35.8c0,0-10.7-11.4-15-10.4c-4.2,1-2.7,4.3-2.7,4.3s-3.5-1-4.5,0.9c-1,1.9-2.8,2.8-2.8,2.8l-1.7,1.8
		l2.6,2.6l26.2,0.5L37.4,35.8z"/>
	<g>
		<g>
			<circle fill="#D32E26" cx="6.9" cy="23.3" r="3.5"/>
			<path fill="#B20202" d="M8,20c1.8,0.6,2.8,2.6,2.3,4.4c-0.6,1.8-2.6,2.8-4.4,2.3"/>
			
				<ellipse transform="matrix(0.4706 -0.8824 0.8824 0.4706 -17.0697 16.0292)" fill="#F24141" cx="4.8" cy="22.2" rx="1.6" ry="0.6"/>
		</g>
		<path fill="#3D1704" d="M6,20.6c0.1,0.2,0,0.4-0.2,0.5l0,0c-0.2,0.1-0.4,0-0.5-0.2l-1.2-2.3c-0.1-0.2,0-0.4,0.2-0.5l0,0
			c0.2-0.1,0.4,0,0.5,0.2L6,20.6z"/>
		<path fill="#3D1704" d="M5,16.3c0.1-0.2,0.3-0.2,0.5-0.1l0,0c0.2,0.1,0.3,0.3,0.2,0.5l-1,1.8c-0.1,0.2-0.3,0.2-0.5,0.1l0,0
			C4,18.5,3.9,18.3,4,18.2L5,16.3z"/>
	</g>
	<g>
		<g>
			<circle fill="#D32E26" cx="6.1" cy="28.1" r="3.5"/>
			<path fill="#B20202" d="M5.3,24.7c1.9-0.4,3.8,0.7,4.2,2.6c0.4,1.9-0.7,3.8-2.6,4.2"/>
			
				<ellipse transform="matrix(-4.955281e-02 -0.9988 0.9988 -4.955281e-02 -24.2456 33.3484)" fill="#F24141" cx="3.7" cy="28.2" rx="1.6" ry="0.6"/>
		</g>
		<path fill="#3D1704" d="M3.9,26.2c0.2,0.1,0.2,0.4,0.1,0.6l0,0C3.9,27,3.7,27,3.5,26.9l-2.2-1.4C1.1,25.4,1,25.2,1.1,25l0,0
			c0.1-0.2,0.4-0.2,0.6-0.1L3.9,26.2z"/>
	</g>
	<g>
		<g>
			<path fill="#1BE2D8" d="M2.2,32c2.8,20,15.2,29.7,30.2,29.7c15,0,27.4-9.7,30.2-29.7H2.2z"/>
			<path fill="#06C6C1" d="M32.3,61.7c15,0,27.5-9.7,30.3-29.7H2"/>
			<path fill="#07A5A5" d="M32.4,61.2c15,0,27.4-9.4,30.2-29.7l-30.4,0.2"/>
			<rect x="24" y="60" fill="#1BE2D8" width="17" height="3"/>
			<g>
				<path fill="#058A91" d="M33.7,61.7c14.1-0.5,26-10.1,28.8-29.2L33.7,61.7z"/>
			</g>
			<rect x="24" y="60" fill="#028399" width="17" height="3"/>
			<polyline fill="#006177" points="24,60 41,60 41,63 			"/>
		</g>
		<polygon fill="#07A5A5" points="37.6,40.2 2.3,32 38.8,32 		"/>
		<path fill="#028399" d="M62.9,31.5c0,0.6-0.7,1.5-1.2,1.5H3.5c-0.6,0-1.7-0.8-1.7-1.4l0,0c0-1,0.7-1.6,1.4-1.6h58.4
			C62.2,30,62.9,30.6,62.9,31.5L62.9,31.5z"/>
		<path fill="#006177" d="M62.9,31.5L62.9,31.5c0,0.7-0.6,1.5-1.2,1.5H3c-0.7,0-1.2-0.7-1.2-1.4l0,0"/>
		<g>
			<circle fill="#028399" cx="13.6" cy="38.7" r="1.6"/>
			<circle fill="#028399" cx="23" cy="38.7" r="1.6"/>
			<circle fill="#028399" cx="32.4" cy="38.7" r="1.6"/>
			<circle fill="#028399" cx="41.7" cy="38.7" r="1.6"/>
			<circle fill="#028399" cx="51.1" cy="38.7" r="1.6"/>
		</g>
		<g>
			<path fill="#006177" d="M13.6,37.2c0.9,0,1.6,0.7,1.6,1.6s-0.7,1.6-1.6,1.6"/>
			<path fill="#006177" d="M23,37.2c0.9,0,1.6,0.7,1.6,1.6s-0.7,1.6-1.6,1.6"/>
			<path fill="#006177" d="M32.4,37.2c0.9,0,1.6,0.7,1.6,1.6s-0.7,1.6-1.6,1.6"/>
			<path fill="#006177" d="M41.7,37.2c0.9,0,1.6,0.7,1.6,1.6s-0.7,1.6-1.6,1.6"/>
			<path fill="#006177" d="M51.1,37.2c0.9,0,1.6,0.7,1.6,1.6s-0.7,1.6-1.6,1.6"/>
		</g>
		<g>
			<polygon fill="#006177" points="20.1,44.3 17,41.3 10.9,47.3 17,53.4 20.1,50.3 17,47.3 			"/>
			<polygon fill="#028399" points="26.2,44.3 23.1,41.3 20.1,44.3 23.1,47.3 20.1,50.3 23.1,53.4 26.2,50.3 23.2,47.3 			"/>
			<polygon fill="#006177" points="32.4,44.3 29.3,41.3 26.2,44.3 29.2,47.3 26.2,50.3 29.3,53.4 32.4,50.3 29.4,47.3 			"/>
			<polygon fill="#006177" points="38.5,44.3 35.4,41.3 32.4,44.3 35.4,47.3 32.4,50.3 35.4,53.4 38.5,50.3 35.5,47.3 			"/>
			<polygon fill="#028399" points="44.7,44.3 41.6,41.3 38.5,44.3 41.5,47.3 38.5,50.3 41.6,53.4 44.7,50.3 41.7,47.3 			"/>
			<polygon fill="#006177" points="53.8,47.3 47.8,41.3 44.7,44.3 47.7,47.3 44.7,50.3 47.8,53.4 			"/>
		</g>
		<path fill="#1BE2D8" d="M62,35c0.1,0,0.1-1,0.2-1H2.6c0.1,0,0.1,1,0.2,1H62z"/>
		<path fill="#42BAC6" d="M10,31.5c0,0.3-0.2,0.5-0.5,0.5h-6C3.2,32,3,31.8,3,31.5l0,0C3,31.2,3.2,31,3.5,31h6
			C9.8,31,10,31.2,10,31.5L10,31.5z"/>
		<ellipse transform="matrix(0.859 -0.512 0.512 0.859 -20.155 9.6344)" fill="#9DFCF3" cx="7.4" cy="41.4" rx="1.7" ry="4.9"/>
	</g>
	<path fill="#F4F1E6" d="M44.8,21.9c5.5-0.3,10.2,2.1,11.1,5.3c0.1-0.4,0.1-0.7,0.1-1.1c-0.2-3.8-5.2-6.7-11.3-6.4
		c-6.1,0.3-10.9,3.6-10.7,7.4c0,0.4,0.1,0.7,0.2,1.1C34.8,24.9,39.3,22.2,44.8,21.9z"/>
	<path fill="#F4F1E6" d="M42.9,24.6c4.4,0.3,7.9,2.5,8.4,5.2c0.1-0.3,0.1-0.6,0.2-0.8c0.2-3.1-3.6-5.8-8.4-6.1
		c-4.8-0.3-8.9,1.9-9.1,5c0,0.3,0,0.6,0.1,0.9C34.7,26.1,38.5,24.3,42.9,24.6z"/>
	<g>
		<path fill="#77003C" d="M6.9,3.2c-1.3-0.6-2.8-0.1-3.3,1C3.2,5.2,4,5.4,5,5.8C4.9,6,4.8,6.2,4.7,6.4C4.3,7.2,4.8,7.1,5.1,7.3
			c0.4,0.2,0.6,0.5,1-0.3c0.1-0.2,0.2-0.4,0.2-0.6c1,0.5,1.7,0.9,2.2-0.1C8.9,5.2,8.2,3.8,6.9,3.2z"/>
		<path fill="#440029" d="M4.7,6.4C4.3,7.2,4.8,7.1,5.1,7.3c0.4,0.2,0.6,0.5,1-0.3c0.1-0.2,0.2-0.4,0.2-0.6c1,0.5,1.7,0.9,2.2-0.1
			c0.5-1.1-0.2-2.5-1.5-3.1"/>
	</g>
	<g>
		<path fill="#77003C" d="M3.2,9.1c-1,0.5-1.5,1.7-1,2.5c0.4,0.7,0.9,0.4,1.7-0.1c0,0.2,0.1,0.3,0.2,0.5c0.3,0.6,0.5,0.3,0.8,0.2
			c0.3-0.2,0.6-0.1,0.3-0.7C5,11.3,4.9,11.2,4.8,11c0.8-0.4,1.4-0.6,1-1.3C5.4,8.8,4.2,8.6,3.2,9.1z"/>
		<path fill="#440029" d="M4,12c0.3,0.6,0.5,0.3,0.8,0.2c0.3-0.2,0.6-0.1,0.3-0.7C5,11.3,4.9,11.2,4.8,11c0.8-0.4,1.4-0.6,1-1.3
			C5.4,8.8,4.2,8.6,3.2,9.1"/>
	</g>
	<g>
		<path fill="#77003C" d="M54.3,2.1c-1,0.5-1.5,1.7-1,2.5C53.6,5.3,54.2,5,55,4.5c0,0.2,0.1,0.3,0.2,0.5c0.3,0.6,0.5,0.3,0.8,0.2
			c0.3-0.2,0.6-0.1,0.3-0.7C56.1,4.3,56,4.2,55.9,4c0.8-0.4,1.4-0.6,1-1.3C56.5,1.8,55.3,1.6,54.3,2.1z"/>
		<path fill="#440029" d="M55.1,5c0.3,0.6,0.5,0.3,0.8,0.2c0.3-0.2,0.6-0.1,0.3-0.7C56.1,4.3,56,4.2,55.9,4c0.8-0.4,1.4-0.6,1-1.3
			c-0.4-0.9-1.6-1.1-2.7-0.6"/>
	</g>
</g>
</svg>
