<?xml version="1.0" encoding="utf-8"?>
<!-- Generator: Adobe Illustrator 16.0.0, SVG Export Plug-In . SVG Version: 6.00 Build 0)  -->
<!DOCTYPE svg PUBLIC "-//W3C//DTD SVG 1.1//EN" "http://www.w3.org/Graphics/SVG/1.1/DTD/svg11.dtd">
<svg version="1.1" id="Layer_1" xmlns="http://www.w3.org/2000/svg" xmlns:xlink="http://www.w3.org/1999/xlink" x="0px" y="0px"
	 width="64px" height="64px" viewBox="0 0 64 64" enable-background="new 0 0 64 64" xml:space="preserve">
<g>
	<g>
		<path fill="#9DEDE9" d="M28.7,51.6c0,12.5-5.5,11.3-12.4,11.3C9.5,62.9,4,64.1,4,51.6c0-12.5,5.5-31.1,12.4-31.1
			C23.2,20.5,28.7,39.1,28.7,51.6z"/>
		<path fill="#7CDADD" d="M22.4,51.6c0,12.5-2.7,11.3-6,11.3c-3.3,0-6,1.2-6-11.3c0-12.5,2.7-31.1,6-31.1
			C19.7,20.5,22.4,39.1,22.4,51.6z"/>
		<path fill="#DDDBA8" d="M5.1,41C4.3,45,4,48.3,4,51.6c0,12.5,5.5,11.3,12.4,11.3c6.8,0,12.4,1.2,12.4-11.3c0-3.3-0.2-6.7-1.1-10.7
			H5.1z"/>
		<path fill="#C6C291" d="M22.4,51.6c0-3.3-0.2-6.6-0.5-10.6H10.9c-0.3,4-0.5,7.3-0.5,10.6c0,9.9,1.7,11.2,4.1,11.3
			c0.6,0,1.3,0,1.9,0c0.7,0,1.3,0,1.9,0C20.7,62.8,22.4,61.6,22.4,51.6z"/>
		<path fill="#F2C300" d="M25,21.7c0,0.9-0.7,1.3-1.5,1.3H9.2C8.5,23,8,22.6,8,21.7v-7.9C8,12.8,8.5,12,9.2,12h14.3
			c0.8,0,1.5,0.8,1.5,1.8V21.7z"/>
		<path fill="#F79E00" d="M25,14v7.7c0,0.9-0.7,1.3-1.5,1.3H9.2C8.5,23,8,22.6,8,21.7V14H25z"/>
		<path fill="#F47F00" d="M8,14h17v7.7c0,0.9-0.7,1.3-1.5,1.3"/>
		<path fill="#D85B07" d="M17.9,18.6c0,0.8-0.7,1.5-1.5,1.5c-0.8,0-1.5-0.7-1.5-1.5c0-0.8,0.7-1.5,1.5-1.5
			C17.2,17.1,17.9,17.7,17.9,18.6z"/>
		<ellipse transform="matrix(0.3421 -0.9397 0.9397 0.3421 -21.6055 29.0244)" fill="#C7FFFB" cx="9.9" cy="29.9" rx="5.4" ry="1"/>
		<path fill="#EFECC7" d="M6.8,43.1c0.8,0,1.4,2.4,1.4,5.4c0,3-0.7,5.4-1.5,5.4c-0.8,0-1.4-2.4-1.3-5.4C5.4,45.5,6.1,43.1,6.8,43.1z
			"/>
	</g>
	<polygon fill="#9DEDE9" points="41.1,63 34.8,55 42.1,14 52.7,14 60,55 53.7,63 	"/>
	<polygon fill="#7CDADD" points="43.9,63 40.5,55 44.5,14 50.3,14 54.3,55 50.9,63 	"/>
	<path fill="#7BBF10" d="M56,10.7c0,0.9-0.7,1.3-1.5,1.3H40.3c-0.8,0-1.3-0.4-1.3-1.3V2.8C39,1.8,39.5,1,40.3,1h14.3
		C55.3,1,56,1.8,56,2.8V10.7z"/>
	<path fill="#5EA304" d="M56,3v7.7c0,0.9-0.7,1.3-1.5,1.3H40.3c-0.8,0-1.3-0.4-1.3-1.3V3H56z"/>
	<path fill="#068C09" d="M39,3h17v7.7c0,0.9-0.7,1.3-1.5,1.3"/>
	<circle fill="#007200" cx="47.4" cy="7.5" r="1.5"/>
	<polygon fill="#DDDBA8" points="34.8,55 41.1,63 53.7,63 60,55 57.3,40 37.5,40 	"/>
	<polygon fill="#C6C291" points="52.9,40 41.9,40 40.5,54.9 43.9,63 50.9,63 54.3,54.9 	"/>
	<polygon fill="#C7FFFB" points="40.1,32.9 40.6,29.9 42.6,16 43.8,16 	"/>
	<polygon fill="#EFECC7" points="39.8,55 35.4,55 37.6,41.6 37.6,41.6 	"/>
</g>
</svg>
