<?xml version="1.0" encoding="utf-8"?>
<!-- Generator: Adobe Illustrator 16.0.0, SVG Export Plug-In . SVG Version: 6.00 Build 0)  -->
<!DOCTYPE svg PUBLIC "-//W3C//DTD SVG 1.1//EN" "http://www.w3.org/Graphics/SVG/1.1/DTD/svg11.dtd">
<svg version="1.1" id="Layer_1" xmlns="http://www.w3.org/2000/svg" xmlns:xlink="http://www.w3.org/1999/xlink" x="0px" y="0px"
	 width="64px" height="64px" viewBox="0 0 64 64" enable-background="new 0 0 64 64" xml:space="preserve">
<g>
	<g>
		<path fill="#D31818" d="M57.5,22.3c0,8.5-11.4,15.4-25.5,15.4c-14.1,0-25.5-6.9-25.5-15.4s11.4,0.9,25.5,0.9
			C46.1,23.2,57.5,13.8,57.5,22.3z"/>
		<path fill="#A80000" d="M57.5,22.3c0,8.5-11.4,15.4-25.5,15.4c-14.1,0-25.5-6.9-25.5-15.4s11.4,4.9,25.5,4.9
			C46.1,27.2,57.5,13.8,57.5,22.3z"/>
		<path fill="#870000" d="M57.5,22.3c0,8.5-11.4,15.4-25.5,15.4c-14.1,0-25.5-6.9-25.5-15.4S17.9,33.2,32,33.2
			C46.1,33.2,57.5,13.8,57.5,22.3z"/>
		<g>
			<g>
				<path fill="#A80000" d="M6.2,13.7l-5.8,6.3C3,21.9,6,22.3,7.5,20.7C8.9,19.1,8.3,16.1,6.2,13.7z"/>
				<path fill="#870000" d="M5.1,16.5l-4.7,3.5C3,21.9,6,22.3,7.5,20.7C8.9,19.1,7.3,18.9,5.1,16.5z"/>
				<path fill="#D31818" d="M8.8,18.3c0.3,0.3,0.4,0.7,0.1,1l-2.3,2.6c-0.2,0.3-0.7,0.3-1,0l0,0c-0.3-0.3-0.4-0.7-0.1-1l2.3-2.6
					C8.1,18.1,8.5,18.1,8.8,18.3L8.8,18.3z"/>
			</g>
			<g>
				<path fill="#A80000" d="M57.8,13.7l5.8,6.3c-2.6,1.9-5.6,2.3-7.1,0.7C55.1,19.1,55.7,16.1,57.8,13.7z"/>
				<path fill="#870000" d="M58.9,16.5l4.7,3.5c-2.6,1.9-5.6,2.3-7.1,0.7C55.1,19.1,56.7,18.9,58.9,16.5z"/>
				<path fill="#D31818" d="M55.2,18.3c-0.3,0.3-0.4,0.7-0.1,1l2.3,2.6c0.3,0.3,0.7,0.3,1,0l0,0c0.3-0.3,0.4-0.7,0.1-1l-2.3-2.6
					C55.9,18.1,55.5,18.1,55.2,18.3L55.2,18.3z"/>
			</g>
		</g>
		<g>
			
				<ellipse transform="matrix(0.9449 -0.3273 0.3273 0.9449 -4.543 16.4915)" fill="#F76F54" cx="46.7" cy="21.7" rx="3.3" ry="0.5"/>
			
				<ellipse transform="matrix(-0.9449 -0.3273 0.3273 -0.9449 26.4714 47.9437)" fill="#F76F54" cx="17.3" cy="21.7" rx="3.3" ry="0.5"/>
		</g>
	</g>
	<ellipse transform="matrix(0.9849 0.1731 -0.1731 0.9849 6.4553 -4.0306)" fill="#D31818" cx="26.3" cy="35" rx="2.9" ry="1"/>
	<ellipse transform="matrix(-0.9849 0.1731 -0.1731 -0.9849 85.0565 62.5821)" fill="#D31818" cx="39.8" cy="35" rx="2.9" ry="1"/>
	<ellipse fill="#D31818" cx="32.8" cy="35.5" rx="2.5" ry="0.7"/>
	<path fill="#333333" d="M25,45L25,45c0.3,4,3,6.5,6,7.2v8.6c0,1.3,0.6,1.3,1.5,1.3s1.5,0,1.5-1.3v-8.6c4-0.7,6.3-3.2,6.6-7.2l0,0
		l0,0l0,0l0,0l-0.1-10.6c-1,0.2-1.5,0.3-2.5,0.5v6.4c0,0-0.5-0.2-0.7-0.2H34v-5.8c-1,0-1.1,0.1-1.8,0.1c-0.1,0-0.2,0-0.2,0V41h-4
		c-0.2,0-1.1,0.1-1,0.2V35c0-0.1-1-0.2-2-0.3V45L25,45"/>
	<path d="M31,52v8.8c0,1.3,0.6,1.3,1.5,1.3s1.5,0,1.5-1.3v-8.6c4-0.7,6.3-3.2,6.6-7.2l0,0l0,0c0-0.1,0,0,0,0l0,0l-0.1-10.6
		c-1,0.2-1.5,0.3-2.5,0.5v6.4c0,0-0.2-0.2-0.7-0.2H34v-5.8c-1,0-1.4,0-2.1,0"/>
	<path fill="#870000" d="M20,16.5c0,0.3-0.2,0.5-0.5,0.5l0,0c-0.3,0-0.5-0.2-0.5-0.5v-11C19,5.2,19.2,5,19.5,5l0,0
		C19.8,5,20,5.2,20,5.5V16.5z"/>
	<path fill="#870000" d="M25,13.5c0,0.3-0.2,0.5-0.5,0.5l0,0c-0.3,0-0.5-0.2-0.5-0.5v-11C24,2.2,24.2,2,24.5,2l0,0
		C24.8,2,25,2.2,25,2.5V13.5z"/>
	<path fill="#870000" d="M39,16.5c0,0.3-0.2,0.5-0.5,0.5l0,0c-0.3,0-0.5-0.2-0.5-0.5v-11C38,5.2,38.2,5,38.5,5l0,0
		C38.8,5,39,5.2,39,5.5V16.5z"/>
	<path fill="#870000" d="M43,13.5c0,0.3-0.2,0.5-0.5,0.5l0,0c-0.3,0-0.5-0.2-0.5-0.5v-11C42,2.2,42.2,2,42.5,2l0,0
		C42.8,2,43,2.2,43,2.5V13.5z"/>
</g>
</svg>
