<?xml version="1.0" encoding="utf-8"?>
<!-- Generator: Adobe Illustrator 16.0.0, SVG Export Plug-In . SVG Version: 6.00 Build 0)  -->
<!DOCTYPE svg PUBLIC "-//W3C//DTD SVG 1.1//EN" "http://www.w3.org/Graphics/SVG/1.1/DTD/svg11.dtd">
<svg version="1.1" id="Layer_1" xmlns="http://www.w3.org/2000/svg" xmlns:xlink="http://www.w3.org/1999/xlink" x="0px" y="0px"
	 width="64px" height="64px" viewBox="0 0 64 64" enable-background="new 0 0 64 64" xml:space="preserve">
<g>
	<g>
		<path fill="#EFAC8E" d="M63,30.9L49.3,32c-9.8-2.3-22.7-3.6-31.7-1.5c-4.6,1.1-8.3,2.8-10.9,4.8L1,38.1V44c0,2.8,0,5.7,1,8.2
			c4.1,10.5,21.1,7.2,30.5-0.2c16.6-13.1,30.5-10.8,30.4-14.1l0.1,0V30.9z"/>
		<path fill="#E29779" d="M32.6,52C49.2,38.9,63.1,41.2,63,37.9l0,0v-7L49.3,32c-9.8-2.3-7.4-6.4-16.3-4.2"/>
		<path fill="#F9E4D9" d="M63,30.6c0.8,3.7-13.3,0.7-30.5,13.9C22.9,51.8,6,54.8,2,44.3c-2.9-7.6-0.2-17.9,15.8-21.5
			S62.2,26.9,63,30.6z"/>
		<path fill="#EFCEBF" d="M17.8,22.8c16-3.6,44.4,4.1,45.2,7.8c0.8,3.7-13.3,0.7-30.5,13.9"/>
		<path fill="#C95039" d="M58.6,30.2c0.7,3.3-11.9,0.6-27.2,12.4c-8.5,6.5-23.6,9.2-27.2-0.2C1.6,35.6,4,26.5,18.3,23.3
			C32.5,20.1,57.8,26.9,58.6,30.2z"/>
		<path fill="#AF3727" d="M18.3,23.3c14.3-3.2,39.6,3.6,40.3,6.9c0.7,3.3-11.9,0.6-27.2,12.4"/>
		<ellipse fill="#E29779" cx="23.5" cy="29.9" rx="2.7" ry="1.1"/>
		<ellipse fill="#F9E4D9" cx="23.5" cy="29.9" rx="1.6" ry="0.6"/>
		<ellipse transform="matrix(0.7886 0.6149 -0.6149 0.7886 21.6324 1.5185)" fill="#DB7F63" cx="8.6" cy="32.2" rx="1.9" ry="5.8"/>
		<ellipse fill="#AF3727" cx="20.7" cy="38.8" rx="1.8" ry="0.9"/>
		<ellipse fill="#AF3727" cx="13.4" cy="42" rx="2.9" ry="1.4"/>
		<ellipse fill="#AF3727" cx="17.3" cy="33.6" rx="1.3" ry="0.7"/>
		<ellipse fill="#C95039" cx="36.4" cy="31.9" rx="1.3" ry="0.7"/>
		<ellipse fill="#C95039" cx="33.9" cy="26" rx="1.9" ry="1"/>
	</g>
	<g>
		<path fill="#80C414" d="M48,50.5c0,1.6-1.6,2.8-3.6,2.8s-3.6-1.3-3.6-2.8c0-1.6,1.6-0.8,3.6-0.8S48,49,48,50.5z"/>
		<path fill="#5EA304" d="M44.5,49.7c2,0,3.6-0.7,3.6,0.8c0,1.6-1.6,2.8-3.6,2.8"/>
		
			<ellipse transform="matrix(0.9943 0.1067 -0.1067 0.9943 5.6139 -4.2567)" fill="#ADE542" cx="42.6" cy="50.3" rx="1.3" ry="0.5"/>
	</g>
	<g>
		<path fill="#80C414" d="M58.7,56.4c-0.5,1.5-2.4,2.2-4.3,1.6c-1.9-0.6-3-2.3-2.5-3.8c0.5-1.5,1.8-0.3,3.6,0.3
			C57.4,55.1,59.2,54.9,58.7,56.4z"/>
		<path fill="#5EA304" d="M55.6,54.5c1.9,0.6,3.6,0.4,3.1,1.9s-2.4,2.2-4.3,1.6"/>
		
			<ellipse transform="matrix(0.913 0.4079 -0.4079 0.913 26.8825 -17.1067)" fill="#ADE542" cx="53.6" cy="54.5" rx="1.3" ry="0.5"/>
	</g>
	<g>
		<path fill="#80C414" d="M58.3,44.5c0.6,1.4-0.3,3.2-2.1,4c-1.8,0.8-3.8,0.3-4.4-1.1s1.1-1.4,2.9-2.2
			C56.5,44.4,57.7,43.1,58.3,44.5z"/>
		<path fill="#5EA304" d="M54.7,45.2c1.8-0.8,3-2.1,3.6-0.7c0.6,1.4-0.3,3.2-2.1,4"/>
		<path fill="#ADE542" d="M54.4,46.1c0.1,0.3-0.4,0.7-1.1,0.9c-0.7,0.2-1.3,0.2-1.4-0.1c-0.1-0.3,0.4-0.7,1.1-0.9
			C53.7,45.8,54.3,45.9,54.4,46.1z"/>
	</g>
	<ellipse fill="#99261D" cx="23" cy="24.9" rx="4" ry="0.9"/>
	<path d="M24,24.5c0,0.3-0.5,0.6-1,0.6l0,0c-0.5,0-1-0.3-1-0.6V5.7c0-0.3,0.5-0.6,1-0.6l0,0c0.5,0,1,0.3,1,0.6V24.5z"/>
	<rect x="24" y="6" fill="#80C414" width="9" height="7"/>
	<polyline fill="#5EA304" points="24,6 33,6 33,13 	"/>
</g>
</svg>
