<?xml version="1.0" encoding="utf-8"?>
<!-- Generator: Adobe Illustrator 16.0.0, SVG Export Plug-In . SVG Version: 6.00 Build 0)  -->
<!DOCTYPE svg PUBLIC "-//W3C//DTD SVG 1.1//EN" "http://www.w3.org/Graphics/SVG/1.1/DTD/svg11.dtd">
<svg version="1.1" id="Layer_1" xmlns="http://www.w3.org/2000/svg" xmlns:xlink="http://www.w3.org/1999/xlink" x="0px" y="0px"
	 width="64px" height="64px" viewBox="0 0 64 64" enable-background="new 0 0 64 64" xml:space="preserve">
<g>
	<path fill="#F2B233" d="M63,15.2c-7.9-1.9-18.9-3.1-31.1-3.1c-12.1,0-23,1.2-30.9,3V55h62V29.5c0,0,0,0,0,0V15.2z"/>
	<path fill="#F28C27" d="M63,21.1c-7.9-1.6-18.9-2.6-31.1-2.6c-12.1,0-23,1-30.9,2.6V55h62V33.3c0,0,0,0,0,0V21.1z"/>
	<path fill="#211814" d="M63,33c-7.9-1.1-18.9-1.7-31.1-1.7c-12.1,0-23,0.6-30.9,1.7V55h62V40.8c0,0,0,0,0,0V33z"/>
	<g>
		<g>
			<path fill="#82C60A" d="M24,9L24,9L24,9L24,9c0.2,5.4-4.2,8.7-1.4,14c1.6,3.1,5.2,4,9.4,4h0l0-0.1v0c3-3.3,4.5-6.4,3.3-9.6
				C33.2,11.7,27.9,12.8,24,9z"/>
			<path fill="#5EA304" d="M32,27L32,27L32,27v-0.1c3-3.3,4.5-6.4,3.3-9.6C33.2,11.7,28,12.8,24,9v0l0,0l0,0.1"/>
			<g>
				<polygon fill="#74B208" points="27.6,16.9 23.9,16.4 28,18 29.6,13.9 				"/>
				<polygon fill="#74B208" points="30.2,22.9 26.6,22.4 30.7,24 32.3,19.8 				"/>
				<polygon fill="#74B208" points="28.9,19.9 24.7,19.3 29.4,21.1 31.2,16.4 				"/>
			</g>
		</g>
		<g>
			<path fill="#82C60A" d="M43.2,13.4L43.2,13.4L43.2,13.4L43.2,13.4c-4.3,2.2-8.5,0-11.7,4.2c-1.8,2.5-0.8,5.6,0.5,9l0,0.1l0,0.2h0
				c3.6,0,6.9,1,9-1.2C44.6,21.9,41.7,18,43.2,13.4z"/>
			<path fill="#5EA304" d="M32,26.7l0,0.1l0,0.2h0c3.6,0,6.9,1,9-1.2c3.6-3.9,0.7-7.7,2.2-12.3l0,0l0,0l0,0"/>
			<g>
				<polygon fill="#74B208" points="38.2,19.3 37.2,16.2 37.5,20.1 41.5,19.8 				"/>
				<polygon fill="#74B208" points="34.5,23.8 33.5,20.7 33.8,24.6 37.7,24.2 				"/>
				<polygon fill="#74B208" points="36.4,21.5 35.2,18 35.6,22.4 40.1,22 				"/>
			</g>
		</g>
		<g>
			<g>
				<path fill="#057C5D" d="M32,42.1C32,42.1,32,42.1,32,42.1C32,42.1,32,42.1,32,42.1V27L2.3,26.7l0,15.3c0,0,0,0,0,0
					c0,0,0.3-0.1,0,0l0,0l0,0c0.1,2,6.7,5,14.8,5c8.1,0,14.7-3,14.8-5L32,42.1L32,42.1z"/>
				<path fill="#025642" d="M2.3,42C2.3,42.1,2.3,42.1,2.3,42"/>
				<path fill="#025642" d="M17.1,47c8.1,0,14.7-3,14.8-5H32v0.1c0,0,0,0,0,0c0,0,0,0,0,0V27H3"/>
				<ellipse fill="#FFFFFF" cx="17.1" cy="26.7" rx="14.8" ry="3.9"/>
				<path fill="#E1EFEB" d="M17.1,22.8c8.2,0,14.8,1.8,14.8,3.9c0,2.2-6.6,3.9-14.8,3.9"/>
				<ellipse fill="#F4B425" cx="17.1" cy="26.2" rx="8.5" ry="2.3"/>
				<path fill="#F28C27" d="M17.1,24c4.7,0,8.5,1,8.5,2.3s-3.8,2.3-8.5,2.3"/>
				<path fill="#0CAD7F" d="M3.1,30.7C3.1,30.8,3,30.8,3.1,30.7L3,41.1c0,0.2,0.3,1.5,0.5,1.5c0.2,0,0.5-0.2,0.5-0.4v-11
					C4,31.1,3.3,30.9,3.1,30.7z"/>
			</g>
			<g>
				<path fill="#025642" d="M61,42.1C61,42.1,61,42.1,61,42.1C61,42.1,61,42.1,61,42.1V27H32v15c0,0,0,0,0,0c0,0,0,0,0,0V42h-0.1
					c0.1,2,6.7,5,14.8,5c8.1,0,14.7-3,14.8-5L61,42.1L61,42.1z"/>
				<path fill="#025642" d="M31.9,42C31.9,42.1,31.8,42.1,31.9,42"/>
				<path fill="#00382D" d="M46.7,47.3c8.1,0,14.6-3.3,14.7-5.3H61v0.1c0,0,0,0,0,0c0,0,0.4-0.1,0.4-0.1l0-15.3L32,27"/>
				<ellipse fill="#FFFFFF" cx="46.7" cy="26.7" rx="14.8" ry="3.9"/>
				<path fill="#E1EFEB" d="M46.7,22.8c8.2,0,14.8,1.8,14.8,3.9c0,2.2-6.6,3.9-14.8,3.9"/>
				<ellipse fill="#71D331" cx="46.7" cy="26.2" rx="8.5" ry="2.3"/>
				<path fill="#62B730" d="M46.7,24c4.7,0,8.5,1,8.5,2.3s-3.8,2.3-8.5,2.3"/>
				<path fill="#0CAD7F" d="M33.1,30.7C33.1,30.8,33,30.8,33.1,30.7L33,41.1c0,0.2,0.3,1.5,0.5,1.5s0.5-0.2,0.5-0.4v-11
					C33,31.1,33.3,30.9,33.1,30.7z"/>
			</g>
			<g>
				<path fill="#057C5D" d="M48.8,50C48.8,50,48.8,50,48.8,50C48.7,50.3,48.8,50,48.8,50l0-16H19.2l0,15.8c0,0,0,0,0,0s0,0,0,0l0,0
					l0,0c0.1,2,6.7,5,14.8,5C42.2,54.9,48.7,52,48.8,50L48.8,50L48.8,50z"/>
				<path fill="#025642" d="M19.2,49.7C19.2,49.7,19.2,49.7,19.2,49.7"/>
				<path fill="#025642" d="M34,54.9c8.1,0,14.7-2.9,14.8-4.9l0,0l0,0c-0.2,0.2,0,0,0,0s0,0,0,0l0-15.6L19,34"/>
				<ellipse fill="#FFFFFF" cx="34" cy="34.4" rx="14.8" ry="3.9"/>
				<path fill="#E1EFEB" d="M34,30.4c8.2,0,14.8,1.8,14.8,3.9c0,2.2-6.6,3.9-14.8,3.9"/>
				<ellipse fill="#EF7373" cx="34" cy="33.9" rx="8.5" ry="2.3"/>
				<path fill="#ED4545" d="M34,31.7c4.7,0,8.5,1,8.5,2.3c0,1.2-3.8,2.3-8.5,2.3"/>
				<path fill="#0CAD7F" d="M20.1,38.4C20.1,38.4,20,38.5,20.1,38.4L20,48.8c0,0.2,0.3,1.5,0.5,1.5c0.2,0,0.5-0.2,0.5-0.4v-11
					C21,38.7,20.3,38.6,20.1,38.4z"/>
			</g>
		</g>
	</g>
</g>
</svg>
