<?xml version="1.0" encoding="utf-8"?>
<!-- Generator: Adobe Illustrator 16.0.0, SVG Export Plug-In . SVG Version: 6.00 Build 0)  -->
<!DOCTYPE svg PUBLIC "-//W3C//DTD SVG 1.1//EN" "http://www.w3.org/Graphics/SVG/1.1/DTD/svg11.dtd">
<svg version="1.1" id="Layer_1" xmlns="http://www.w3.org/2000/svg" xmlns:xlink="http://www.w3.org/1999/xlink" x="0px" y="0px"
	 width="64px" height="64px" viewBox="0 0 64 64" enable-background="new 0 0 64 64" xml:space="preserve">
<g>
	<path fill="#CEAB4A" d="M62.5,50C59.7,29,47,14.4,31.8,14.4S3.8,29,1,50H62.5z"/>
	<path fill="#B28E32" d="M1,50h61.5C59.7,29,47,14.4,31.8,14.4"/>
	<g>
		<polygon fill="#88C600" points="13.5,30.2 11.4,36.7 4.8,34.6 4.6,23.6 		"/>
		<polygon fill="#3AAD0B" points="13.5,30.2 11.4,36.7 9.3,32.3 4.6,23.6 		"/>
	</g>
	<g>
		<polygon fill="#88C600" points="9,35.8 9.2,40.3 4.7,40.5 2.1,33.7 		"/>
		<polygon fill="#3AAD0B" points="9,35.8 9.2,40.3 6.9,38 2.1,33.7 		"/>
	</g>
	<g>
		<path fill="#722F01" d="M35,35c0,6.1-5.1,11-11.2,11h-1.1C16.6,46,12,41.2,12,35V31c0-6.1,4.6-11,10.7-11h1.1
			C29.9,20,35,24.9,35,31V35z"/>
		<path fill="#562300" d="M23,20h0.8C29.9,20,35,24.9,35,31V35c0,6.1-5.1,11-11.2,11H23"/>
		
			<ellipse transform="matrix(-0.7557 -0.6549 0.6549 -0.7557 12.9142 55.5303)" fill="#994207" cx="16.8" cy="25.4" rx="1.7" ry="4"/>
	</g>
	<g>
		<path fill="#722F01" d="M42.3,39.7C39,44.9,32.1,46.4,27,43.1L26,42.5c-5.2-3.3-6.7-10.1-3.4-15.3l2.2-3.4
			c3.3-5.2,10.1-6.7,15.3-3.4L41,21c5.2,3.3,6.7,10.1,3.4,15.3L42.3,39.7z"/>
		<path fill="#562300" d="M40.1,20.4L41,21c5.2,3.3,6.7,10.1,3.4,15.3l-2.2,3.4C39,44.9,32.1,46.4,27,43.1L26,42.5"/>
		
			<ellipse transform="matrix(-0.2882 -0.9576 0.9576 -0.2882 20.5156 58.9266)" fill="#994207" cx="32.2" cy="21.8" rx="1.7" ry="4"/>
	</g>
	<g>
		<path fill="#EF112C" d="M50.3,27.5c-1.9,5.6-4.7,9.6-6.3,9.1c-1.6-0.5-1.4-5.5,0.5-11c1.9-5.6,3.4-5.8,5-5.3
			C51.1,20.8,52.2,22,50.3,27.5z"/>
		<path fill="#B20026" d="M49.6,20.3c1.6,0.5,2.6,1.7,0.8,7.2c-1.9,5.6-4.7,9.6-6.3,9.1"/>
		
			<ellipse transform="matrix(0.9479 0.3187 -0.3187 0.9479 10.0812 -14.1895)" fill="#B20026" cx="48.4" cy="23.7" rx="1.8" ry="0.6"/>
		
			<ellipse transform="matrix(0.9478 0.3189 -0.3189 0.9478 10.8405 -13.8026)" fill="#B20026" cx="47.6" cy="26.2" rx="1.8" ry="0.6"/>
		
			<ellipse transform="matrix(0.9479 0.3187 -0.3187 0.9479 11.5796 -13.3966)" fill="#B20026" cx="46.7" cy="28.7" rx="1.8" ry="0.6"/>
		
			<ellipse transform="matrix(0.9478 0.3189 -0.3189 0.9478 12.3365 -13.0058)" fill="#B20026" cx="45.9" cy="31.2" rx="1.8" ry="0.6"/>
		
			<ellipse transform="matrix(-0.5286 -0.8489 0.8489 -0.5286 55.125 72.9974)" fill="#F97A90" cx="47.8" cy="21.2" rx="0.6" ry="1.1"/>
	</g>
	<g>
		<path fill="#EF112C" d="M11.8,42.8C6.5,45.2,1.6,46,0.9,44.4c-0.7-1.5,3.1-4.7,8.4-7.2c5.3-2.4,6.6-1.5,7.3,0
			C17.3,38.8,17.1,40.4,11.8,42.8z"/>
		<path fill="#B20026" d="M16.6,37.3c0.7,1.5,0.6,3.1-4.8,5.5C6.5,45.2,1.6,46,0.9,44.4"/>
		
			<ellipse transform="matrix(0.4143 0.9101 -0.9101 0.4143 43.0883 10.647)" fill="#B20026" cx="13.3" cy="38.8" rx="1.8" ry="0.6"/>
		
			<ellipse transform="matrix(0.4137 0.9104 -0.9104 0.4137 42.6948 13.4798)" fill="#B20026" cx="10.9" cy="39.9" rx="1.8" ry="0.6"/>
		<ellipse transform="matrix(0.4143 0.9101 -0.9101 0.4143 42.2659 16.2688)" fill="#B20026" cx="8.5" cy="41" rx="1.8" ry="0.6"/>
		
			<ellipse transform="matrix(0.4139 0.9103 -0.9103 0.4139 41.8658 19.0971)" fill="#B20026" cx="6.1" cy="42.1" rx="1.8" ry="0.6"/>
		
			<ellipse transform="matrix(0.259 -0.9659 0.9659 0.259 -24.5038 41.3894)" fill="#F97A90" cx="14.7" cy="36.7" rx="0.6" ry="1.1"/>
	</g>
	<g>
		<path fill="#82C60A" d="M62.3,24.5L62.3,24.5L62.3,24.5L62.3,24.5c-4.6,1.9-8.6-0.7-12.2,3.4C48,30.3,49,33.6,50,37.3v0l-0.1,0
			l0,0c3.7,1,6.9,1.7,9.3-0.4C63.2,33.2,60.4,29.1,62.3,24.5z"/>
		<path fill="#5EA304" d="M50,37v0.3l-0.1,0l0,0c3.7,1,6.9,1.7,9.3-0.4c4.1-3.7,1.3-7.8,3.2-12.4l0,0l0,0l0.1-0.1"/>
		<g>
			<polygon fill="#74B208" points="56.7,30.2 56,26.9 56,31 60.1,30.9 			"/>
			<polygon fill="#74B208" points="52.5,34.5 51.8,31.2 51.8,35.2 55.9,35.2 			"/>
			<polygon fill="#74B208" points="54.7,32.3 53.8,28.5 53.8,33.1 58.4,33.1 			"/>
		</g>
	</g>
	<path fill="#F4F1E6" d="M32.2,24.2c5.5-0.3,10.2,2.1,11.1,5.3c0.1-0.4,0.1-0.7,0.1-1.1c-0.2-3.8-5.2-6.7-11.3-6.4
		c-6.1,0.3-10.9,3.6-10.7,7.4c0,0.4,0.1,0.7,0.2,1.1C22.2,27.2,26.7,24.4,32.2,24.2z"/>
	<g>
		<path fill="#82C60A" d="M63.2,36.2L63.2,36.2L63.2,36.2L63.2,36.2c-4.6,1.9-8.6-0.7-12.2,3.4c-2.1,2.4-1,5.7,0,9.4v0l-0.2,0l0,0
			c3.7,1,6.9,1.7,9.2-0.4C64.1,44.9,61.3,40.7,63.2,36.2z"/>
		<path fill="#5EA304" d="M51,49L51,49l-0.2,0l0,0c3.7,1,6.9,1.7,9.2-0.4c4.1-3.7,1.3-7.8,3.2-12.4l0,0l-0.1,0l0.2,0.1"/>
		<g>
			<polygon fill="#74B208" points="57.6,41.8 56.8,38.5 56.9,42.6 60.9,42.5 			"/>
			<polygon fill="#74B208" points="53.4,46.1 52.6,42.8 52.7,46.9 56.7,46.8 			"/>
			<polygon fill="#74B208" points="55.6,43.9 54.7,40.2 54.7,44.8 59.3,44.7 			"/>
		</g>
	</g>
	<path fill="#FFDC6C" d="M62.5,50C59.7,37,47,27.2,31.8,27.2S3.8,37,1,50H62.5z"/>
	<path fill="#EABB47" d="M19,50h43.5c-2.8-13-15.7-22.8-31-22.8"/>
	<circle fill="#F4CB56" cx="11.5" cy="39.7" r="1.2"/>
	<circle fill="#FFDC6C" cx="32.8" cy="44.9" r="1.2"/>
	<circle fill="#FFDC6C" cx="50.1" cy="43.8" r="1.2"/>
	<circle fill="#FFDC6C" cx="37.4" cy="40.4" r="1.2"/>
	<circle fill="#B28E32" cx="49.3" cy="38.9" r="1.2"/>
	<circle fill="#FFDC6C" cx="40.5" cy="35.2" r="2"/>
	<circle fill="#FFDC6C" cx="42.7" cy="40.9" r="0.6"/>
	<circle fill="#FFDC6C" cx="32.4" cy="36.7" r="0.7"/>
	<circle fill="#F4CB56" cx="21.4" cy="35.7" r="1.2"/>
	<circle fill="#CEAB4A" cx="24.2" cy="31.7" r="1.2"/>
	<circle fill="#B28E32" cx="56.1" cy="45.8" r="1.5"/>
	<circle fill="#B28E32" cx="41.8" cy="45.7" r="0.6"/>
	<circle fill="#B28E32" cx="26.6" cy="45.6" r="0.6"/>
	<circle fill="#B28E32" cx="34.4" cy="32.6" r="0.6"/>
	<circle fill="#F4CB56" cx="14.3" cy="44.7" r="0.6"/>
	<circle fill="#CEAB4A" cx="17.3" cy="41.2" r="0.6"/>
	<circle fill="#CEAB4A" cx="7.2" cy="46.4" r="1.3"/>
	<path fill="#F4F1E6" d="M36.4,19.9c4.7,1.8,7.6,5.7,7.1,9.1c0.2-0.3,0.4-0.6,0.5-0.9c1.4-3.6-1.7-8.1-6.8-10.1
		c-5.2-2-10.5-0.8-11.9,2.8c-0.1,0.3-0.2,0.7-0.3,1C26.9,18.9,31.7,18,36.4,19.9z"/>
</g>
</svg>
