<?xml version="1.0" encoding="utf-8"?>
<!-- Generator: Adobe Illustrator 16.0.0, SVG Export Plug-In . SVG Version: 6.00 Build 0)  -->
<!DOCTYPE svg PUBLIC "-//W3C//DTD SVG 1.1//EN" "http://www.w3.org/Graphics/SVG/1.1/DTD/svg11.dtd">
<svg version="1.1" id="Layer_1" xmlns="http://www.w3.org/2000/svg" xmlns:xlink="http://www.w3.org/1999/xlink" x="0px" y="0px"
	 width="64px" height="64px" viewBox="0 0 64 64" enable-background="new 0 0 64 64" xml:space="preserve">
<g>
	<path fill="#026824" d="M0.8,17C1.2,34,15,47.5,32,47.5S62.8,34,63.2,17H0.8z"/>
	<path fill="#B5D861" d="M32,17v26.8C17,43.7,4.9,32,4.5,17H32z"/>
	<path fill="#00591B" d="M32,17v30.5C49,47.5,62.8,34,63.2,17H32z"/>
	<path fill="#96C639" d="M32,17v26.8C47,43.7,59.3,32,59.6,17H32z"/>
	<path fill="#C92B00" d="M8.2,17C8.5,30,19,40.3,32,40.3C45,40.3,55.5,30,55.8,17H8.2z"/>
	<path fill="#9E1600" d="M32,17v23.3C45,40.2,55.5,30,55.8,17H32z"/>
	<g>
		<g>
			<g>
				<path fill="#441F06" d="M15.8,23.5L15.8,23.5l3.9-2.5l-4.3-1l0,0c-0.3-0.1-0.5-0.1-0.8,0c-1,0.2-1.8,1.2-1.6,2.3
					c0.1,1.1,1.1,1.8,2.1,1.6C15.4,23.7,15.6,23.6,15.8,23.5z"/>
				<path fill="#773D0E" d="M19.7,20.9l-4.3-1l0,0c-0.3-0.1-0.5-0.1-0.8,0c-1,0.2-1.8,1.2-1.6,2.3"/>
			</g>
			<g>
				<path fill="#441F06" d="M21.3,29.3L21.3,29.3l0.6-4.6L18.3,27l0,0c0,0.1-0.5,0.5-0.6,0.8c-0.6,0.9-0.2,2.1,0.7,2.8
					c0.9,0.6,2.1,0.4,2.7-0.5C21.1,29.8,21.3,29.6,21.3,29.3z"/>
				<path fill="#773D0E" d="M21.9,24.7L18.3,27l0,0c-0.2,0.1-0.5,0.5-0.6,0.8c-0.6,0.9-0.2,2.1,0.7,2.8"/>
			</g>
			<g>
				<path fill="#441F06" d="M25.2,34.2L25.2,34.2l0.1-2.2L24,33.5v0c0,0.1-0.3,0.3-0.3,0.4c-0.2,0.5-0.1,0.9,0.4,1.1
					c0.5,0.2,1,0,1.1-0.5C25.3,34.5,25.2,34.3,25.2,34.2z"/>
				<path fill="#773D0E" d="M25.3,32L24,33.5v0c0,0-0.3,0.3-0.3,0.4c-0.2,0.5-0.1,0.9,0.4,1.1"/>
			</g>
			<g>
				<path fill="#441F06" d="M29.5,28.5L29.5,28.5L28.6,25l-1.9,2.8l0,0c-0.1,0.2-0.2,0.4-0.2,0.6c-0.1,0.8,0.4,1.6,1.2,1.8
					c0.8,0.2,1.6-0.3,1.7-1.1C29.5,28.9,29.5,28.7,29.5,28.5z"/>
				<path fill="#773D0E" d="M28.6,25l-1.9,2.8l0,0c-0.1,0.2-0.2,0.4-0.2,0.6c-0.1,0.8,0.4,1.6,1.2,1.8"/>
			</g>
			<g>
				<path fill="#441F06" d="M26.4,22.8L26.4,22.8l1.1-3.1L25,20.9v0c-0.3,0.1-0.6,0.2-0.7,0.3c-0.5,0.6-0.5,1.4,0,1.9
					c0.5,0.5,1.3,0.7,1.8,0.1C26.2,23.1,26.4,22.8,26.4,22.8z"/>
				<path fill="#773D0E" d="M27.5,19.7L25,20.9v0c-0.2,0.1-0.6,0.2-0.7,0.3c-0.5,0.6-0.5,1.4,0,1.9"/>
			</g>
			<g>
				<path fill="#441F06" d="M40.3,21L40.3,21l-3.1-1.3l1.1,2.3h0c0.2,0.4,0.4,0.8,0.5,1c0.6,0.5,1.2,0.5,1.8,0
					c0.5-0.5,0.7-1.3,0.1-1.7C40.6,21.1,40.3,21,40.3,21z"/>
				<path fill="#773D0E" d="M37.2,19.7l1.1,2.3h0c0.2,0.4,0.4,0.8,0.5,1c0.6,0.5,1.2,0.5,1.8,0"/>
			</g>
		</g>
		<g>
			<g>
				<path fill="#441F06" d="M48.2,23.5L48.2,23.5l-3.9-2.5l4.3-1l0,0c0.3-0.1,0.5-0.1,0.8,0c1,0.2,1.8,1.2,1.6,2.3
					c-0.1,1.1-1.1,1.8-2.1,1.6C48.6,23.7,48.4,23.6,48.2,23.5z"/>
				<path fill="#773D0E" d="M44.3,20.9l4.3-1l0,0c0.3-0.1,0.5-0.1,0.8,0c1,0.2,1.8,1.2,1.6,2.3"/>
			</g>
			<g>
				<path fill="#441F06" d="M42.7,29.3L42.7,29.3l-0.6-4.6l3.9,2.5v0c0,0.1,0.2,0.3,0.4,0.6c0.6,0.9,0.2,2.1-0.7,2.8
					c-0.9,0.6-2.1,0.4-2.7-0.5C42.9,29.8,42.7,29.6,42.7,29.3z"/>
				<path fill="#773D0E" d="M42.1,24.7l3.9,2.5v0c0.2,0.2,0.2,0.3,0.4,0.6c0.6,0.9,0.3,2.1-0.6,2.8"/>
			</g>
			<g>
				<path fill="#441F06" d="M38.8,34.2L38.8,34.2L38.7,32l1.3,1.5v0c0,0.1,0.4,0.4,0.4,0.5c0.2,0.5,0,0.8-0.5,1
					c-0.5,0.2-1,0-1.1-0.5C38.7,34.5,38.8,34.3,38.8,34.2z"/>
				<path fill="#773D0E" d="M38.7,32l1.3,1.5v0c0.1,0.1,0.4,0.4,0.4,0.5c0.2,0.5,0,0.8-0.5,1"/>
			</g>
			<g>
				<path fill="#441F06" d="M34.5,28.5L34.5,28.5l0.8-3.4l1.9,2.8l0,0c0.1,0.2,0.2,0.4,0.2,0.6c0.1,0.8-0.4,1.6-1.2,1.8
					c-0.8,0.2-1.6-0.3-1.7-1.1C34.5,28.9,34.5,28.7,34.5,28.5z"/>
				<path fill="#773D0E" d="M35.4,25l1.9,2.8l0,0c0.1,0.2,0.2,0.4,0.2,0.6c0.1,0.8-0.4,1.6-1.2,1.8"/>
			</g>
		</g>
	</g>
	<polygon fill="#EF441D" points="31.3,17.1 19,18.9 9.3,17 31.5,17 	"/>
</g>
</svg>
