<svg id="Layer_1" xmlns="http://www.w3.org/2000/svg" xmlns:xlink="http://www.w3.org/1999/xlink" width="64" height="64" viewBox="0 0 64 64" enable-background="new 0 0 64 64"><g><path fill="#efd27f" d="M32 1.7C15.2 1.7 1.7 15.2 1.7 32S15.2 62.3 32 62.3c16.8.0 30.3-13.6 30.3-30.3S48.8 1.7 32 1.7zm0 41c-5.9.0-10.7-4.8-10.7-10.7S26.1 21.3 32 21.3 42.7 26.1 42.7 32 37.9 42.7 32 42.7z"/><path fill="#e2a050" d="M32 3.6C16.3 3.6 3.6 16.3 3.6 32S16.3 60.4 32 60.4 60.4 47.7 60.4 32 47.7 3.6 32 3.6zM32 42c-5.5.0-10-4.5-10-10s4.5-10 10-10 10 4.5 10 10-4.5 10-10 10z"/><g><path fill="#d38939" d="M52.1 11.9l-13 13c0 0 .1.1.1.1C43 29 43 35.2 39.1 39.1c-3.9 3.9-10.3 3.9-14.2.0l-13 13C23 63.2 41 63.2 52.1 52.1 63.2 41 63.2 23 52.1 11.9z"/><path fill="#d38939" d="M25 39 24.9 39.1 25 39z"/></g><path fill="#efd27f" d="M18.6 7.1c1 1-.6 4.4-3.7 7.5-3.1 3.1-6.4 4.8-7.4 3.8-1-1 .6-4.4 3.7-7.5C14.2 7.8 17.5 6.1 18.6 7.1z"/><path fill="#ffefc7" d="M16.8 7.6c.5.5-1 2.9-3.4 5.3-2.4 2.4-4.8 4-5.3 3.5-.5-.5 1-2.9 3.4-5.3C13.9 8.6 16.3 7.1 16.8 7.6z"/><g><path fill="#f2498a" d="M54.9 40.1c.2-.2.5-.4.7-.6 2-1.3 3.3-3.5 3.3-6 0-.9-.2-1.7-.5-2.5C58 27.7 56 25 53.3 23.6c-.1-.2-.2-.4-.3-.7.1-.4.1-.9.1-1.3.0-4.4-2.9-8.2-6.9-9.5-1.8-2.8-4.9-4.7-8.4-4.7-1.3.0-2.6.3-3.8.7-1.8-1.8-4.2-2.8-7-2.8-4.4.0-8.2 2.9-9.5 6.9-3.5.8-6.4 3.4-7.4 6.8-3 1.7-5.1 5-5.1 8.7.0 2.3.8 4.3 2 6C7 34.2 7 34.8 7 35.3c0 2 .6 3.9 1.6 5.4-.2.6-.2 1.3-.2 2 0 3 1.6 5.6 3.9 7 1.6 3.4 5 5.7 9 5.7.2.0.3.0.5.0 1.3 1.2 2.9 1.9 4.8 1.9.3.0.6.0 1-.1 1.5 1 3.3 1.5 5.3 1.5 2.5.0 4.7-.9 6.5-2.4.1.0.2.0.4.0 4.6.0 8.5-3.1 9.6-7.4 3.3-.6 5.9-3.5 5.9-7C55.1 41.3 55 40.7 54.9 40.1zM32 42.7c-5.9.0-10.7-4.8-10.7-10.7S26.1 21.3 32 21.3 42.7 26.1 42.7 32 37.9 42.7 32 42.7z"/></g><g><path fill="#d61e69" d="M30.2 53.8c.2.2.5.3.7.5 1.5 1.5 3.8 2.2 6 1.7.8-.2 1.5-.5 2.1-.9 2.7-1.1 4.6-3.3 5.3-6 .2-.1.4-.2.5-.4.4.0.8-.1 1.2-.2 3.9-.9 6.6-4.2 6.9-8 2.1-2.1 3.1-5.2 2.3-8.4-.3-1.2-.8-2.2-1.4-3.1 1.2-1.9 1.6-4.3 1-6.7-.9-3.9-4.2-6.6-8-6.9-1.4-2.9-4.3-4.9-7.5-5.1-2.1-2.3-5.4-3.4-8.7-2.6-2 .5-3.6 1.6-4.8 3-.5.0-1 .1-1.5.2-1.8.4-3.3 1.3-4.4 2.5-.6.0-1.2.1-1.8.2-2.6.6-4.5 2.5-5.3 4.9-2.6 2.1-3.9 5.6-3.1 9 0 .2.1.3.1.4-.7 1.4-1 3-.6 4.6.1.3.2.6.3.8-.5 1.5-.6 3.2-.2 4.9.5 2.2 1.8 3.9 3.4 5.2.0.1.0.2.1.3 1 4 4.5 6.8 8.5 6.9 1.2 2.8 4.3 4.4 7.4 3.7C29.2 54.2 29.7 54 30.2 53.8zM23.1 34.3c-1.2-5.2 2-10.4 7.1-11.6 5.2-1.2 10.4 2 11.6 7.1 1.2 5.2-2 10.4-7.1 11.6C29.6 42.7 24.4 39.5 23.1 34.3z"/></g><ellipse transform="matrix(0.7827 -0.6224 0.6224 0.7827 -0.3485 15.9671)" fill="#ffa1c7" cx="22.7" cy="8.5" rx="3.1" ry="1"/><ellipse transform="matrix(0.4051 -0.9143 0.9143 0.4051 -18.1519 21.6675)" fill="#ffa1c7" cx="7.6" cy="24.8" rx="2.8" ry=".9"/><path fill="#ffa1c7" d="M9.9 42.3c.3-.1.8.7 1.1 1.7.2 1 .2 1.9-.2 2-.3.1-.8-.7-1.1-1.7S9.5 42.4 9.9 42.3z"/><path fill="#ffa1c7" d="M14.2 49.9c.3-.4 1.6.1 2.9 1.1 1.3 1 2 2.2 1.7 2.6-.3.4-1.6-.1-2.9-1.1C14.6 51.5 13.9 50.3 14.2 49.9z"/><ellipse transform="matrix(-0.331 -0.9436 0.9436 -0.331 -18.7911 47.1856)" fill="#ffa1c7" cx="7.3" cy="30.3" rx="1.6" ry=".5"/><path fill="#ffefc7" d="M24 18.1c0 .5-.4.9-.9.9h-.2c-.5.0-.9-.4-.9-.9v-4.2c0-.5.4-.9.9-.9h.2c.5.0.9.4.9.9V18.1z"/><path fill="#a0d128" d="M31.9 17c.4.3.5.8.2 1.2v0c-.3.4-.8.5-1.2.2l-3.7-2.7c-.4-.3-.5-.8-.2-1.2v0c.3-.4.8-.5 1.2-.2L31.9 17z"/><path fill="#a0d128" d="M18.6 34.5c.5.1.8.5.8 1v0c-.1.5-.5.8-1 .8l-4.6-.5c-.5-.1-.8-.5-.8-1v0c.1-.5.5-.8 1-.8l4.6.5z"/><path fill="#a0d128" d="M31.9 48c.5.0.9.3.9.8v0c0 .5-.3.9-.8 1l-4.6.4c-.5.0-.9-.3-.9-.8v0c0-.5.3-.9.8-1L31.9 48z"/><path fill="#ffefc7" d="M20.8 44.9c-.5.2-1-.1-1.1-.5v0c-.2-.5.1-1 .5-1.1l4.3-1.6c.5-.2 1 .1 1.1.5v0c.2.5-.1 1-.5 1.1L20.8 44.9z"/><path fill="#ffefc7" d="M40.3 19.9c-.4-.2-.6-.8-.4-1.2v0c.2-.4.8-.6 1.2-.4l4.1 2.2c.4.2.6.8.4 1.2v0c-.2.4-.8.6-1.2.4L40.3 19.9z"/><path fill="#ffefc7" d="M15.4 28.7c-.3.2-.8.0-1.1-.4v0c-.3-.4-.2-.9.1-1.1l3.1-1.9c.3-.2.8.0 1 .4v0c.3.4.2.9-.1 1.1L15.4 28.7z"/><path fill="#91edea" d="M37.8 16c0 .4-.4.7-.9.7v0c-.5.0-.9-.3-.9-.7v-3.7c0-.4.4-.7.9-.7v0c.5.0.9.3.9.7V16z"/><path fill="#91edea" d="M18.1 42.5c0 .4-.4.7-.9.7v0c-.5.0-.9-.3-.9-.7v-3.7c0-.4.4-.7.9-.7v0c.5.0.9.3.9.7V42.5z"/><path fill="#91edea" d="M47.9 34.3c-.3.2-.8.1-1.1-.3v0c-.3-.4-.3-.9.0-1.1l2.9-2.2c.3-.2.8-.1 1.1.3v0c.3.4.3.9.0 1.1L47.9 34.3z"/><path fill="#91edea" d="M19 19.6c.3.2.3.7.0 1.1v0c-.3.4-.8.5-1.1.3l-2.9-2.2c-.3-.2-.3-.7.0-1.1v0c.3-.4.8-.5 1.1-.3L19 19.6z"/><path fill="#91edea" d="M39.4 43c-.4.0-.7-.4-.7-.9v0c0-.5.3-.9.7-.9l3.7.1c.4.0.7.4.7.9v0c0 .5-.3.9-.7.9L39.4 43z"/><path fill="#a0d128" d="M45.6 28.3c-.4.0-.7-.4-.7-.9v0c0-.5.3-.9.7-.9l3.7.1c.4.0.7.4.7.9v0c0 .5-.3.9-.7.9L45.6 28.3z"/><path fill="#ffefc7" d="M44.7 39c-.3-.2-.4-.7-.1-1.1v0c.3-.4.8-.5 1.1-.3l3 2.1c.3.2.4.7.1 1.1v0c-.3.4-.8.5-1.1.3L44.7 39z"/><path fill="#ffefc7" d="M36.5 46c-.2-.3.0-.8.4-1v0c.4-.2.9-.2 1.1.2l1.9 3.2c.2.3.0.8-.4 1v0c-.4.2-.9.2-1.1-.1L36.5 46z"/><path fill="#99004d" d="M23.1 34.3c-1.2-5.2 2-10.4 7.1-11.6 5.2-1.2 10.4 2 11.6 7.1.0.1.1.3.1.4.0-.7-.1-1.4-.3-2.1-1.5-6.1-7.6-9.9-13.8-8.5-6.1 1.5-9.9 7.6-8.5 13.8 1.5 6.1 7.6 9.9 13.8 8.5.5-.1.9-.3 1.3-.4C29.4 42.6 24.3 39.4 23.1 34.3z"/><circle fill="#efd27f" cx="14.2" cy="22.6" r=".8"/><circle fill="#efd27f" cx="44.5" cy="31.3" r=".8"/><circle fill="#ffce00" cx="12.2" cy="31.3" r=".8"/><circle fill="#ffce00" cx="47.7" cy="43.9" r=".8"/><circle fill="#ffce00" cx="20.6" cy="39.9" r=".5"/><circle fill="#ffce00" cx="50.5" cy="35.8" r=".5"/><circle fill="#91edea" cx="17.1" cy="31.3" r=".5"/><circle fill="#91edea" cx="42.5" cy="23.9" r=".5"/><circle fill="#ffefc7" cx="13.9" cy="39.2" r=".5"/><circle fill="#ffce00" cx="42" cy="15.2" r=".8"/><circle fill="#ffce00" cx="24.5" cy="46.2" r=".8"/><circle fill="#91edea" cx="31.9" cy="44.8" r=".8"/><circle fill="#ffce00" cx="43" cy="45.8" r=".8"/><circle fill="#efd27f" cx="32.5" cy="11.8" r=".8"/><circle fill="#efd27f" cx="48.6" cy="23.3" r=".8"/></g></svg>