<?xml version="1.0" encoding="utf-8"?>
<!-- Generator: Adobe Illustrator 16.0.0, SVG Export Plug-In . SVG Version: 6.00 Build 0)  -->
<!DOCTYPE svg PUBLIC "-//W3C//DTD SVG 1.1//EN" "http://www.w3.org/Graphics/SVG/1.1/DTD/svg11.dtd">
<svg version="1.1" id="Layer_1" xmlns="http://www.w3.org/2000/svg" xmlns:xlink="http://www.w3.org/1999/xlink" x="0px" y="0px"
	 width="64px" height="64px" viewBox="0 0 64 64" enable-background="new 0 0 64 64" xml:space="preserve">
<g>
	<polygon fill="#960909" points="53.2,34 10.8,34 10.5,29 53.5,29 	"/>
	<g>
		<g>
			<g>
				<polygon fill="#FFFBC7" points="39.7,37.4 45.5,38.2 49.7,2.7 45.1,2.1 				"/>
				<polygon fill="#F7D772" points="39.7,37.4 45.5,38.2 48.2,4.4 45.1,2.1 				"/>
				<polygon fill="#EFA348" points="45.1,2.1 47.6,4.3 41.8,37.7 39.7,37.4 				"/>
			</g>
			<g>
				<polygon fill="#FFFBC7" points="39.3,37.4 44.8,39.4 56.9,5.8 52.6,4.2 				"/>
				<polygon fill="#F7D772" points="39.3,37.4 44.8,39.4 55.1,7.1 52.6,4.2 				"/>
				<polygon fill="#EFA348" points="52.6,4.2 54.6,6.9 41.3,38.1 39.3,37.4 				"/>
			</g>
			<g>
				<polygon fill="#FFFBC7" points="41.5,39.9 46.8,42.6 62.3,10.4 58.2,8.4 				"/>
				<polygon fill="#F7D772" points="41.5,39.9 46.8,42.6 60.4,11.5 58.2,8.4 				"/>
				<polygon fill="#EFA348" points="58.2,8.4 59.9,11.3 43.5,40.9 41.5,39.9 				"/>
			</g>
			<g>
				<polygon fill="#FFFBC7" points="38.1,37 43.9,37 43.3,1 38.7,1 				"/>
				<polygon fill="#F7D772" points="38.1,37 43.9,37 42.1,3.1 38.7,1.3 				"/>
				<polygon fill="#EFA348" points="38.7,1.3 41.5,3.1 40.2,37 38.1,37 				"/>
			</g>
			<g>
				<polygon fill="#FFFBC7" points="31.7,37 37.5,37 36.9,1 32.3,1 				"/>
				<polygon fill="#F7D772" points="31.7,37 37.5,37 35.7,3.1 32.3,1.3 				"/>
				<polygon fill="#EFA348" points="32.3,1.3 35.1,3.1 33.8,37 31.7,37 				"/>
			</g>
			<g>
				<polygon fill="#FFFBC7" points="37,45.2 42,48.4 60.7,18 56.9,15.5 				"/>
				<polygon fill="#F7D772" points="37,45.2 42,48.4 58.7,18.9 56.9,15.5 				"/>
				<polygon fill="#EFA348" points="56.9,15.5 58.2,18.6 38.9,46.4 37,45.2 				"/>
			</g>
			<g>
				<polygon fill="#FFFBC7" points="33.6,44.5 39.5,44.9 41.7,9.3 37.1,8.9 				"/>
				<polygon fill="#F7D772" points="33.6,44.5 39.5,44.9 40.3,11.1 37.1,8.9 				"/>
				<polygon fill="#EFA348" points="37.1,8.9 39.7,11 35.8,44.7 33.6,44.5 				"/>
			</g>
			<g>
				<polygon fill="#FFFBC7" points="32,52.3 37.8,52.6 38.8,16.9 34.2,16.7 				"/>
				<polygon fill="#F7D772" points="32,52.3 37.8,52.6 37.5,18.7 34.2,16.7 				"/>
				<polygon fill="#EFA348" points="34.2,16.7 37,18.6 34.1,52.4 32,52.3 				"/>
			</g>
			<g>
				<polygon fill="#FFFBC7" points="37.5,45 43.1,46.6 52.1,12.1 47.7,10.8 				"/>
				<polygon fill="#F7D772" points="37.5,45 43.1,46.6 50.4,13.5 47.7,10.8 				"/>
				<polygon fill="#EFA348" points="47.7,10.8 49.9,13.4 39.6,45.6 37.5,45 				"/>
			</g>
			<g>
				<polygon fill="#FFFBC7" points="35.7,52 41.5,53 46.6,17.6 42,16.9 				"/>
				<polygon fill="#F7D772" points="35.7,52 41.5,53 45.1,19.3 42,16.9 				"/>
				<polygon fill="#EFA348" points="42,16.9 44.5,19.2 37.8,52.4 35.7,52 				"/>
			</g>
		</g>
		<g>
			<g>
				<polygon fill="#FFFBC7" points="24.3,37.4 18.5,38.2 14.3,2.7 18.9,2.1 				"/>
				<polygon fill="#F7D772" points="24.3,37.4 18.5,38.2 15.8,4.4 18.9,2.1 				"/>
				<polygon fill="#EFA348" points="18.9,2.1 16.4,4.3 22.2,37.7 24.3,37.4 				"/>
			</g>
			<g>
				<polygon fill="#FFFBC7" points="24.7,37.4 19.2,39.4 7.1,5.8 11.4,4.2 				"/>
				<polygon fill="#F7D772" points="24.7,37.4 19.2,39.4 8.9,7.1 11.4,4.2 				"/>
				<polygon fill="#EFA348" points="11.4,4.2 9.4,6.9 22.7,38.1 24.7,37.4 				"/>
			</g>
			<g>
				<polygon fill="#FFFBC7" points="22.5,39.9 17.2,42.6 1.7,10.4 5.8,8.4 				"/>
				<polygon fill="#F7D772" points="22.5,39.9 17.2,42.6 3.6,11.5 5.8,8.4 				"/>
				<polygon fill="#EFA348" points="5.8,8.4 4.1,11.3 20.5,40.9 22.5,39.9 				"/>
			</g>
			<g>
				<polygon fill="#FFFBC7" points="25.9,37 20.1,37 20.7,1 25.3,1 				"/>
				<polygon fill="#F7D772" points="25.9,37 20.1,37 21.9,3.1 25.3,1.3 				"/>
				<polygon fill="#EFA348" points="25.3,1.3 22.5,3.1 23.8,37 25.9,37 				"/>
			</g>
			<g>
				<polygon fill="#FFFBC7" points="32.3,37 26.5,37 27.1,1 31.7,1 				"/>
				<polygon fill="#F7D772" points="32.3,37 26.5,37 28.3,3.1 31.7,1.3 				"/>
				<polygon fill="#EFA348" points="31.7,1.3 28.9,3.1 30.2,37 32.3,37 				"/>
			</g>
			<g>
				<polygon fill="#FFFBC7" points="35,44 29.1,44 29.7,8 34.3,8 				"/>
				<polygon fill="#F7D772" points="35,44 29.1,44 30.9,9.9 34.3,8.2 				"/>
				<polygon fill="#EFA348" points="34.3,8.1 31.5,10.1 32.8,44 35,44 				"/>
			</g>
			<g>
				<polygon fill="#FFFBC7" points="27,45.2 22,48.4 3.3,18 7.1,15.5 				"/>
				<polygon fill="#F7D772" points="27,45.2 22,48.4 5.3,18.9 7.1,15.5 				"/>
				<polygon fill="#EFA348" points="7.1,15.5 5.8,18.6 25.1,46.4 27,45.2 				"/>
			</g>
			<g>
				<polygon fill="#FFFBC7" points="30.4,44.5 24.5,44.9 22.3,9.3 26.9,8.9 				"/>
				<polygon fill="#F7D772" points="30.4,44.5 24.5,44.9 23.7,11.1 26.9,8.9 				"/>
				<polygon fill="#EFA348" points="26.9,8.9 24.3,11 28.2,44.7 30.4,44.5 				"/>
			</g>
			<g>
				<polygon fill="#FFFBC7" points="32,52.3 26.2,52.6 25.2,16.9 29.8,16.7 				"/>
				<polygon fill="#F7D772" points="32,52.3 26.2,52.6 26.5,18.7 29.8,16.7 				"/>
				<polygon fill="#EFA348" points="29.8,16.7 27,18.6 29.9,52.4 32,52.3 				"/>
			</g>
			<g>
				<polygon fill="#FFFBC7" points="26.5,45 20.9,46.6 11.9,12.1 16.3,10.8 				"/>
				<polygon fill="#F7D772" points="26.5,45 20.9,46.6 13.6,13.5 16.3,10.8 				"/>
				<polygon fill="#EFA348" points="16.3,10.8 14.1,13.4 24.4,45.6 26.5,45 				"/>
			</g>
			<g>
				<polygon fill="#FFFBC7" points="28.3,52 22.5,53 17.4,17.6 22,16.9 				"/>
				<polygon fill="#F7D772" points="28.3,52 22.5,53 18.9,19.3 22,16.9 				"/>
				<polygon fill="#EFA348" points="22,16.9 19.5,19.2 26.2,52.4 28.3,52 				"/>
			</g>
		</g>
	</g>
	<polygon fill="#BA1515" points="48.6,63 15.4,63 11.4,34 52.6,34 	"/>
	<polygon fill="#D32020" points="48.6,63 15.4,63 25.4,34 38.6,34 	"/>
	<polygon fill="#BF1111" points="48.6,63 15.4,63 25.4,52 38.6,52 	"/>
	<polygon fill="#960909" points="48.6,63 15.4,63 25.4,58 38.6,58 	"/>
	<g>
		<path fill="#FFFFFF" d="M32,39.2c-5,0-9.1,4.1-9.1,9.1s4.1,9.1,9.1,9.1c5,0,9.1-4.1,9.1-9.1S37,39.2,32,39.2z M32,54
			c-3.2,0-5.7-2.6-5.7-5.7s2.6-5.7,5.7-5.7s5.7,2.6,5.7,5.7S35.2,54,32,54z"/>
	</g>
	<g>
		<path fill="#DDDDDD" d="M32,57.3c5,0,9.1-4.1,9.1-9.1S37,39.2,32,39.2 M32,42.5c3.2,0,5.7,2.6,5.7,5.7S35.2,54,32,54"/>
	</g>
	<g opacity="0.2">
		<rect x="11" y="31" fill="#960909" width="42" height="3"/>
	</g>
</g>
</svg>
