<svg id="Layer_1" xmlns="http://www.w3.org/2000/svg" xmlns:xlink="http://www.w3.org/1999/xlink" width="64" height="64" viewBox="0 0 64 64" enable-background="new 0 0 64 64"><g><path fill="#960909" d="M53.2 34H10.8L10.5 29h43z"/><g><g><g><path fill="#fffbc7" d="M39.7 37.4 45.5 38.2 49.7 2.7 45.1 2.1z"/><path fill="#f7d772" d="M39.7 37.4 45.5 38.2 48.2 4.4 45.1 2.1z"/><path fill="#efa348" d="M45.1 2.1 47.6 4.3 41.8 37.7 39.7 37.4z"/></g><g><path fill="#fffbc7" d="M39.3 37.4l5.5 2L56.9 5.8 52.6 4.2z"/><path fill="#f7d772" d="M39.3 37.4l5.5 2L55.1 7.1 52.6 4.2z"/><path fill="#efa348" d="M52.6 4.2l2 2.7L41.3 38.1 39.3 37.4z"/></g><g><path fill="#fffbc7" d="M41.5 39.9 46.8 42.6 62.3 10.4 58.2 8.4z"/><path fill="#f7d772" d="M41.5 39.9 46.8 42.6 60.4 11.5 58.2 8.4z"/><path fill="#efa348" d="M58.2 8.4 59.9 11.3 43.5 40.9l-2-1z"/></g><g><path fill="#fffbc7" d="M38.1 37H43.9L43.3 1H38.7z"/><path fill="#f7d772" d="M38.1 37H43.9L42.1 3.1 38.7 1.3z"/><path fill="#efa348" d="M38.7 1.3 41.5 3.1 40.2 37H38.1z"/></g><g><path fill="#fffbc7" d="M31.7 37H37.5L36.9 1H32.3z"/><path fill="#f7d772" d="M31.7 37H37.5L35.7 3.1 32.3 1.3z"/><path fill="#efa348" d="M32.3 1.3 35.1 3.1 33.8 37H31.7z"/></g><g><path fill="#fffbc7" d="M37 45.2 42 48.4 60.7 18 56.9 15.5z"/><path fill="#f7d772" d="M37 45.2 42 48.4 58.7 18.9 56.9 15.5z"/><path fill="#efa348" d="M56.9 15.5 58.2 18.6 38.9 46.4 37 45.2z"/></g><g><path fill="#fffbc7" d="M33.6 44.5 39.5 44.9 41.7 9.3 37.1 8.9z"/><path fill="#f7d772" d="M33.6 44.5 39.5 44.9 40.3 11.1 37.1 8.9z"/><path fill="#efa348" d="M37.1 8.9 39.7 11 35.8 44.7 33.6 44.5z"/></g><g><path fill="#fffbc7" d="M32 52.3 37.8 52.6l1-35.7L34.2 16.7z"/><path fill="#f7d772" d="M32 52.3 37.8 52.6 37.5 18.7 34.2 16.7z"/><path fill="#efa348" d="M34.2 16.7 37 18.6 34.1 52.4 32 52.3z"/></g><g><path fill="#fffbc7" d="M37.5 45 43.1 46.6l9-34.5L47.7 10.8z"/><path fill="#f7d772" d="M37.5 45 43.1 46.6 50.4 13.5 47.7 10.8z"/><path fill="#efa348" d="M47.7 10.8 49.9 13.4 39.6 45.6 37.5 45z"/></g><g><path fill="#fffbc7" d="M35.7 52 41.5 53 46.6 17.6 42 16.9z"/><path fill="#f7d772" d="M35.7 52 41.5 53 45.1 19.3 42 16.9z"/><path fill="#efa348" d="M42 16.9 44.5 19.2 37.8 52.4 35.7 52z"/></g></g><g><g><path fill="#fffbc7" d="M24.3 37.4 18.5 38.2 14.3 2.7 18.9 2.1z"/><path fill="#f7d772" d="M24.3 37.4 18.5 38.2 15.8 4.4 18.9 2.1z"/><path fill="#efa348" d="M18.9 2.1 16.4 4.3 22.2 37.7 24.3 37.4z"/></g><g><path fill="#fffbc7" d="M24.7 37.4l-5.5 2L7.1 5.8 11.4 4.2z"/><path fill="#f7d772" d="M24.7 37.4l-5.5 2L8.9 7.1 11.4 4.2z"/><path fill="#efa348" d="M11.4 4.2l-2 2.7L22.7 38.1 24.7 37.4z"/></g><g><path fill="#fffbc7" d="M22.5 39.9 17.2 42.6 1.7 10.4l4.1-2z"/><path fill="#f7d772" d="M22.5 39.9 17.2 42.6 3.6 11.5 5.8 8.4z"/><path fill="#efa348" d="M5.8 8.4 4.1 11.3 20.5 40.9l2-1z"/></g><g><path fill="#fffbc7" d="M25.9 37H20.1L20.7 1H25.3z"/><path fill="#f7d772" d="M25.9 37H20.1L21.9 3.1 25.3 1.3z"/><path fill="#efa348" d="M25.3 1.3 22.5 3.1 23.8 37H25.9z"/></g><g><path fill="#fffbc7" d="M32.3 37H26.5L27.1 1H31.7z"/><path fill="#f7d772" d="M32.3 37H26.5L28.3 3.1 31.7 1.3z"/><path fill="#efa348" d="M31.7 1.3 28.9 3.1 30.2 37H32.3z"/></g><g><path fill="#fffbc7" d="M35 44H29.1L29.7 8H34.3z"/><path fill="#f7d772" d="M35 44H29.1L30.9 9.9 34.3 8.2z"/><path fill="#efa348" d="M34.3 8.1 31.5 10.1 32.8 44H35z"/></g><g><path fill="#fffbc7" d="M27 45.2 22 48.4 3.3 18l3.8-2.5z"/><path fill="#f7d772" d="M27 45.2 22 48.4 5.3 18.9 7.1 15.5z"/><path fill="#efa348" d="M7.1 15.5 5.8 18.6 25.1 46.4 27 45.2z"/></g><g><path fill="#fffbc7" d="M30.4 44.5 24.5 44.9 22.3 9.3 26.9 8.9z"/><path fill="#f7d772" d="M30.4 44.5 24.5 44.9 23.7 11.1 26.9 8.9z"/><path fill="#efa348" d="M26.9 8.9 24.3 11 28.2 44.7 30.4 44.5z"/></g><g><path fill="#fffbc7" d="M32 52.3 26.2 52.6l-1-35.7L29.8 16.7z"/><path fill="#f7d772" d="M32 52.3 26.2 52.6 26.5 18.7 29.8 16.7z"/><path fill="#efa348" d="M29.8 16.7 27 18.6 29.9 52.4 32 52.3z"/></g><g><path fill="#fffbc7" d="M26.5 45 20.9 46.6 11.9 12.1 16.3 10.8z"/><path fill="#f7d772" d="M26.5 45 20.9 46.6 13.6 13.5 16.3 10.8z"/><path fill="#efa348" d="M16.3 10.8 14.1 13.4 24.4 45.6 26.5 45z"/></g><g><path fill="#fffbc7" d="M28.3 52 22.5 53 17.4 17.6 22 16.9z"/><path fill="#f7d772" d="M28.3 52 22.5 53 18.9 19.3 22 16.9z"/><path fill="#efa348" d="M22 16.9 19.5 19.2 26.2 52.4 28.3 52z"/></g></g></g><path fill="#ba1515" d="M48.6 63H15.4l-4-29H52.6z"/><path fill="#d32020" d="M48.6 63H15.4L25.4 34H38.6z"/><path fill="#bf1111" d="M48.6 63H15.4L25.4 52H38.6z"/><path fill="#960909" d="M48.6 63H15.4L25.4 58H38.6z"/><g><path fill="#fff" d="M32 39.2c-5 0-9.1 4.1-9.1 9.1s4.1 9.1 9.1 9.1c5 0 9.1-4.1 9.1-9.1S37 39.2 32 39.2zM32 54c-3.2.0-5.7-2.6-5.7-5.7s2.6-5.7 5.7-5.7 5.7 2.6 5.7 5.7S35.2 54 32 54z"/></g><g><path fill="#ddd" d="M32 57.3c5 0 9.1-4.1 9.1-9.1S37 39.2 32 39.2M32 42.5c3.2.0 5.7 2.6 5.7 5.7S35.2 54 32 54"/></g><g opacity=".2"><path fill="#960909" d="M11 31h42v3H11z"/></g></g></svg>