<?xml version="1.0" encoding="utf-8"?>
<!-- Generator: Adobe Illustrator 16.0.0, SVG Export Plug-In . SVG Version: 6.00 Build 0)  -->
<!DOCTYPE svg PUBLIC "-//W3C//DTD SVG 1.1//EN" "http://www.w3.org/Graphics/SVG/1.1/DTD/svg11.dtd">
<svg version="1.1" id="Layer_1" xmlns="http://www.w3.org/2000/svg" xmlns:xlink="http://www.w3.org/1999/xlink" x="0px" y="0px"
	 width="64px" height="64px" viewBox="0 0 64 64" enable-background="new 0 0 64 64" xml:space="preserve">
<g>
	<path fill="#EFD27F" d="M32,1.7C15.2,1.7,1.7,15.2,1.7,32S15.2,62.3,32,62.3c16.8,0,30.3-13.6,30.3-30.3S48.8,1.7,32,1.7z M32,42.7
		c-5.9,0-10.7-4.8-10.7-10.7S26.1,21.3,32,21.3S42.7,26.1,42.7,32S37.9,42.7,32,42.7z"/>
	<path fill="#E2A050" d="M32,3.6C16.3,3.6,3.6,16.3,3.6,32S16.3,60.4,32,60.4S60.4,47.7,60.4,32S47.7,3.6,32,3.6z M32,42
		c-5.5,0-10-4.5-10-10s4.5-10,10-10s10,4.5,10,10S37.5,42,32,42z"/>
	<g>
		<path fill="#D38939" d="M52.1,11.9l-13,13c0,0,0.1,0.1,0.1,0.1C43,29,43,35.2,39.1,39.1c-3.9,3.9-10.3,3.9-14.2,0l-13,13
			C23,63.2,41,63.2,52.1,52.1C63.2,41,63.2,23,52.1,11.9z"/>
		<polygon fill="#D38939" points="25,39 24.9,39.1 25,39 		"/>
	</g>
	<path fill="#EFD27F" d="M18.6,7.1c1,1-0.6,4.4-3.7,7.5c-3.1,3.1-6.4,4.8-7.4,3.8c-1-1,0.6-4.4,3.7-7.5C14.2,7.8,17.5,6.1,18.6,7.1z
		"/>
	<path fill="#FFEFC7" d="M16.8,7.6c0.5,0.5-1,2.9-3.4,5.3c-2.4,2.4-4.8,4-5.3,3.5c-0.5-0.5,1-2.9,3.4-5.3
		C13.9,8.6,16.3,7.1,16.8,7.6z"/>
	<g>
		<path fill="#F2498A" d="M54.9,40.1c0.2-0.2,0.5-0.4,0.7-0.6c2-1.3,3.3-3.5,3.3-6c0-0.9-0.2-1.7-0.5-2.5C58,27.7,56,25,53.3,23.6
			c-0.1-0.2-0.2-0.4-0.3-0.7c0.1-0.4,0.1-0.9,0.1-1.3c0-4.4-2.9-8.2-6.9-9.5c-1.8-2.8-4.9-4.7-8.4-4.7c-1.3,0-2.6,0.3-3.8,0.7
			c-1.8-1.8-4.2-2.8-7-2.8c-4.4,0-8.2,2.9-9.5,6.9c-3.5,0.8-6.4,3.4-7.4,6.8c-3,1.7-5.1,5-5.1,8.7c0,2.3,0.8,4.3,2,6
			C7,34.2,7,34.8,7,35.3c0,2,0.6,3.9,1.6,5.4c-0.2,0.6-0.2,1.3-0.2,2c0,3,1.6,5.6,3.9,7c1.6,3.4,5,5.7,9,5.7c0.2,0,0.3,0,0.5,0
			c1.3,1.2,2.9,1.9,4.8,1.9c0.3,0,0.6,0,1-0.1c1.5,1,3.3,1.5,5.3,1.5c2.5,0,4.7-0.9,6.5-2.4c0.1,0,0.2,0,0.4,0
			c4.6,0,8.5-3.1,9.6-7.4c3.3-0.6,5.9-3.5,5.9-7C55.1,41.3,55,40.7,54.9,40.1z M32,42.7c-5.9,0-10.7-4.8-10.7-10.7
			S26.1,21.3,32,21.3S42.7,26.1,42.7,32S37.9,42.7,32,42.7z"/>
	</g>
	<g>
		<path fill="#D61E69" d="M30.2,53.8c0.2,0.2,0.5,0.3,0.7,0.5c1.5,1.5,3.8,2.2,6,1.7c0.8-0.2,1.5-0.5,2.1-0.9c2.7-1.1,4.6-3.3,5.3-6
			c0.2-0.1,0.4-0.2,0.5-0.4c0.4,0,0.8-0.1,1.2-0.2c3.9-0.9,6.6-4.2,6.9-8c2.1-2.1,3.1-5.2,2.3-8.4c-0.3-1.2-0.8-2.2-1.4-3.1
			c1.2-1.9,1.6-4.3,1-6.7c-0.9-3.9-4.2-6.6-8-6.9c-1.4-2.9-4.3-4.9-7.5-5.1c-2.1-2.3-5.4-3.4-8.7-2.6c-2,0.5-3.6,1.6-4.8,3
			c-0.5,0-1,0.1-1.5,0.2c-1.8,0.4-3.3,1.3-4.4,2.5c-0.6,0-1.2,0.1-1.8,0.2c-2.6,0.6-4.5,2.5-5.3,4.9c-2.6,2.1-3.9,5.6-3.1,9
			c0,0.2,0.1,0.3,0.1,0.4c-0.7,1.4-1,3-0.6,4.6c0.1,0.3,0.2,0.6,0.3,0.8c-0.5,1.5-0.6,3.2-0.2,4.9c0.5,2.2,1.8,3.9,3.4,5.2
			c0,0.1,0,0.2,0.1,0.3c1,4,4.5,6.8,8.5,6.9c1.2,2.8,4.3,4.4,7.4,3.7C29.2,54.2,29.7,54,30.2,53.8z M23.1,34.3
			c-1.2-5.2,2-10.4,7.1-11.6c5.2-1.2,10.4,2,11.6,7.1c1.2,5.2-2,10.4-7.1,11.6C29.6,42.7,24.4,39.5,23.1,34.3z"/>
	</g>
	<ellipse transform="matrix(0.7827 -0.6224 0.6224 0.7827 -0.3485 15.9671)" fill="#FFA1C7" cx="22.7" cy="8.5" rx="3.1" ry="1"/>
	
		<ellipse transform="matrix(0.4051 -0.9143 0.9143 0.4051 -18.1519 21.6675)" fill="#FFA1C7" cx="7.6" cy="24.8" rx="2.8" ry="0.9"/>
	<path fill="#FFA1C7" d="M9.9,42.3c0.3-0.1,0.8,0.7,1.1,1.7c0.2,1,0.2,1.9-0.2,2c-0.3,0.1-0.8-0.7-1.1-1.7S9.5,42.4,9.9,42.3z"/>
	<path fill="#FFA1C7" d="M14.2,49.9c0.3-0.4,1.6,0.1,2.9,1.1c1.3,1,2,2.2,1.7,2.6c-0.3,0.4-1.6-0.1-2.9-1.1
		C14.6,51.5,13.9,50.3,14.2,49.9z"/>
	
		<ellipse transform="matrix(-0.331 -0.9436 0.9436 -0.331 -18.7911 47.1856)" fill="#FFA1C7" cx="7.3" cy="30.3" rx="1.6" ry="0.5"/>
	<path fill="#FFEFC7" d="M24,18.1c0,0.5-0.4,0.9-0.9,0.9h-0.2c-0.5,0-0.9-0.4-0.9-0.9v-4.2c0-0.5,0.4-0.9,0.9-0.9h0.2
		c0.5,0,0.9,0.4,0.9,0.9V18.1z"/>
	<path fill="#A0D128" d="M31.9,17c0.4,0.3,0.5,0.8,0.2,1.2l0,0c-0.3,0.4-0.8,0.5-1.2,0.2l-3.7-2.7c-0.4-0.3-0.5-0.8-0.2-1.2l0,0
		c0.3-0.4,0.8-0.5,1.2-0.2L31.9,17z"/>
	<path fill="#A0D128" d="M18.6,34.5c0.5,0.1,0.8,0.5,0.8,1l0,0c-0.1,0.5-0.5,0.8-1,0.8l-4.6-0.5c-0.5-0.1-0.8-0.5-0.8-1l0,0
		c0.1-0.5,0.5-0.8,1-0.8L18.6,34.5z"/>
	<path fill="#A0D128" d="M31.9,48c0.5,0,0.9,0.3,0.9,0.8l0,0c0,0.5-0.3,0.9-0.8,1l-4.6,0.4c-0.5,0-0.9-0.3-0.9-0.8l0,0
		c0-0.5,0.3-0.9,0.8-1L31.9,48z"/>
	<path fill="#FFEFC7" d="M20.8,44.9c-0.5,0.2-1-0.1-1.1-0.5l0,0c-0.2-0.5,0.1-1,0.5-1.1l4.3-1.6c0.5-0.2,1,0.1,1.1,0.5l0,0
		c0.2,0.5-0.1,1-0.5,1.1L20.8,44.9z"/>
	<path fill="#FFEFC7" d="M40.3,19.9c-0.4-0.2-0.6-0.8-0.4-1.2l0,0c0.2-0.4,0.8-0.6,1.2-0.4l4.1,2.2c0.4,0.2,0.6,0.8,0.4,1.2l0,0
		c-0.2,0.4-0.8,0.6-1.2,0.4L40.3,19.9z"/>
	<path fill="#FFEFC7" d="M15.4,28.7c-0.3,0.2-0.8,0-1.1-0.4l0,0c-0.3-0.4-0.2-0.9,0.1-1.1l3.1-1.9c0.3-0.2,0.8,0,1,0.4l0,0
		c0.3,0.4,0.2,0.9-0.1,1.1L15.4,28.7z"/>
	<path fill="#91EDEA" d="M37.8,16c0,0.4-0.4,0.7-0.9,0.7l0,0c-0.5,0-0.9-0.3-0.9-0.7l0-3.7c0-0.4,0.4-0.7,0.9-0.7l0,0
		c0.5,0,0.9,0.3,0.9,0.7L37.8,16z"/>
	<path fill="#91EDEA" d="M18.1,42.5c0,0.4-0.4,0.7-0.9,0.7l0,0c-0.5,0-0.9-0.3-0.9-0.7l0-3.7c0-0.4,0.4-0.7,0.9-0.7l0,0
		c0.5,0,0.9,0.3,0.9,0.7L18.1,42.5z"/>
	<path fill="#91EDEA" d="M47.9,34.3c-0.3,0.2-0.8,0.1-1.1-0.3l0,0c-0.3-0.4-0.3-0.9,0-1.1l2.9-2.2c0.3-0.2,0.8-0.1,1.1,0.3l0,0
		c0.3,0.4,0.3,0.9,0,1.1L47.9,34.3z"/>
	<path fill="#91EDEA" d="M19,19.6c0.3,0.2,0.3,0.7,0,1.1l0,0c-0.3,0.4-0.8,0.5-1.1,0.3l-2.9-2.2c-0.3-0.2-0.3-0.7,0-1.1l0,0
		c0.3-0.4,0.8-0.5,1.1-0.3L19,19.6z"/>
	<path fill="#91EDEA" d="M39.4,43c-0.4,0-0.7-0.4-0.7-0.9l0,0c0-0.5,0.3-0.9,0.7-0.9l3.7,0.1c0.4,0,0.7,0.4,0.7,0.9l0,0
		c0,0.5-0.3,0.9-0.7,0.9L39.4,43z"/>
	<path fill="#A0D128" d="M45.6,28.3c-0.4,0-0.7-0.4-0.7-0.9l0,0c0-0.5,0.3-0.9,0.7-0.9l3.7,0.1c0.4,0,0.7,0.4,0.7,0.9l0,0
		c0,0.5-0.3,0.9-0.7,0.9L45.6,28.3z"/>
	<path fill="#FFEFC7" d="M44.7,39c-0.3-0.2-0.4-0.7-0.1-1.1l0,0c0.3-0.4,0.8-0.5,1.1-0.3l3,2.1c0.3,0.2,0.4,0.7,0.1,1.1l0,0
		c-0.3,0.4-0.8,0.5-1.1,0.3L44.7,39z"/>
	<path fill="#FFEFC7" d="M36.5,46c-0.2-0.3,0-0.8,0.4-1l0,0c0.4-0.2,0.9-0.2,1.1,0.2l1.9,3.2c0.2,0.3,0,0.8-0.4,1l0,0
		c-0.4,0.2-0.9,0.2-1.1-0.1L36.5,46z"/>
	<path fill="#99004D" d="M23.1,34.3c-1.2-5.2,2-10.4,7.1-11.6c5.2-1.2,10.4,2,11.6,7.1c0,0.1,0.1,0.3,0.1,0.4c0-0.7-0.1-1.4-0.3-2.1
		c-1.5-6.1-7.6-9.9-13.8-8.5c-6.1,1.5-9.9,7.6-8.5,13.8c1.5,6.1,7.6,9.9,13.8,8.5c0.5-0.1,0.9-0.3,1.3-0.4
		C29.4,42.6,24.3,39.4,23.1,34.3z"/>
	<circle fill="#EFD27F" cx="14.2" cy="22.6" r="0.8"/>
	<circle fill="#EFD27F" cx="44.5" cy="31.3" r="0.8"/>
	<circle fill="#FFCE00" cx="12.2" cy="31.3" r="0.8"/>
	<circle fill="#FFCE00" cx="47.7" cy="43.9" r="0.8"/>
	<circle fill="#FFCE00" cx="20.6" cy="39.9" r="0.5"/>
	<circle fill="#FFCE00" cx="50.5" cy="35.8" r="0.5"/>
	<circle fill="#91EDEA" cx="17.1" cy="31.3" r="0.5"/>
	<circle fill="#91EDEA" cx="42.5" cy="23.9" r="0.5"/>
	<circle fill="#FFEFC7" cx="13.9" cy="39.2" r="0.5"/>
	<circle fill="#FFCE00" cx="42" cy="15.2" r="0.8"/>
	<circle fill="#FFCE00" cx="24.5" cy="46.2" r="0.8"/>
	<circle fill="#91EDEA" cx="31.9" cy="44.8" r="0.8"/>
	<circle fill="#FFCE00" cx="43" cy="45.8" r="0.8"/>
	<circle fill="#EFD27F" cx="32.5" cy="11.8" r="0.8"/>
	<circle fill="#EFD27F" cx="48.6" cy="23.3" r="0.8"/>
</g>
</svg>
