<?xml version="1.0" encoding="utf-8"?>
<!-- Generator: Adobe Illustrator 16.0.0, SVG Export Plug-In . SVG Version: 6.00 Build 0)  -->
<!DOCTYPE svg PUBLIC "-//W3C//DTD SVG 1.0//EN" "http://www.w3.org/TR/2001/REC-SVG-20010904/DTD/svg10.dtd">
<svg version="1.0" id="Layer_1" xmlns="http://www.w3.org/2000/svg" xmlns:xlink="http://www.w3.org/1999/xlink" x="0px" y="0px"
	 width="100px" height="100px" viewBox="0 0 100 100" enable-background="new 0 0 100 100" xml:space="preserve">
<path d="M80,40c0-16.569-13.438-30-30-30c-16.569,0-30,13.431-30,30H80z"/>
<path d="M80,83.333C80,87.019,77.012,90,73.333,90H26.667C22.985,90,20,87.012,20,83.333H80z"/>
<path d="M80,48.333c0,1.833-1.501,3.334-3.333,3.334H23.333c-1.832,0-3.333-1.501-3.333-3.334l0,0C20,46.501,21.501,45,23.333,45
	h53.334C78.499,45,80,46.501,80,48.333L80,48.333z"/>
<path d="M80,75c0,1.829-1.501,3.333-3.333,3.333H23.333C21.501,78.333,20,76.829,20,75l0,0c0-1.836,1.501-3.333,3.333-3.333h53.334
	C78.499,71.667,80,73.164,80,75L80,75z"/>
<path d="M80,57.976V65c-3.704-1.53-8.001-1.653-12.002,0c-4.001,1.66-8.294,1.536-11.999,0c-3.707-1.53-7.998-1.653-12.002,0
	c-3.997,1.66-8.294,1.536-11.998,0c-3.705-1.53-8.002-1.653-11.999,0v-7.024c4.798-1.348,9.87-1.068,14.551,0.865
	c2.227,0.925,4.671,0.925,6.892,0.007c5.518-2.292,11.592-2.292,17.105-0.007c2.224,0.925,4.672,0.932,6.895,0
	C70.12,56.907,75.195,56.628,80,57.976z"/>
</svg>
