<svg xmlns="http://www.w3.org/2000/svg" viewBox="0 0 50.01 64"><defs><style>.cls-1{fill:#f5baa4;}.cls-1,.cls-2,.cls-3,.cls-4{fill-rule:evenodd;}.cls-2{fill:#ebebeb;}.cls-3{fill:#ffd7bd;}.cls-4{fill:#d6d6d6;}.cls-5{fill:#1a1a1a;}</style></defs><title>chef_512px</title><g id="Layer_2" data-name="Layer 2"><g id="chef"><path class="cls-1" d="M30.78,38.21a11.37,11.37,0,0,1-11.54,0v7.22c.88,1.25,3.73,2.13,5.77,2.13a8,8,0,0,0,3.83-.71,4.47,4.47,0,0,0,1.94-1.43V38.21Z"/><path class="cls-2" d="M32.94,7.4c.37-8.68-16.22-8.4-16.22,0C6,7.4,5.93,18.6,12.41,20.68v6.41H37.59V20.6c6.23-2.27,6-13.2-4.65-13.2Z"/><path class="cls-3" d="M36.75,27.09H13.26a12.82,12.82,0,0,0-.09,1.53,12.52,12.52,0,0,0,6.07,10.85,11.37,11.37,0,0,0,11.54,0,12.52,12.52,0,0,0,6.07-10.85,12.82,12.82,0,0,0-.09-1.53Z"/><path class="cls-2" d="M28.84,45.59A10,10,0,0,1,25,46.3c-2.64,0-4.89-.89-5.77-2.13V42.52c-4.79,0-15.24,3.9-18,14.1C.09,60.88,3.2,63,7,63h24.4V50Z"/><path class="cls-4" d="M48.76,56.62c-2-7.51-10.15-14.09-18-14.1v1.64a4.45,4.45,0,0,1-1.94,1.43L31.37,50V63H43c3.77,0,6.88-2.12,5.72-6.38Z"/><path class="cls-5" d="M25.05,20.46a1,1,0,0,0,1-1V11.11a1,1,0,1,0-2,0v8.35A1,1,0,0,0,25.05,20.46Z"/><path class="cls-5" d="M19.44,19.84a1,1,0,1,0,1.46-1.37,5.07,5.07,0,0,1-1.15-4.4,3.08,3.08,0,0,1,1-2,1,1,0,1,0-.87-1.8,4.7,4.7,0,0,0-2.07,3.44A7.07,7.07,0,0,0,19.44,19.84Z"/><path class="cls-5" d="M29.26,12.38a3.07,3.07,0,0,1,1,2,5.07,5.07,0,0,1-1.15,4.4,1,1,0,1,0,1.46,1.37A7.07,7.07,0,0,0,32.21,14a4.7,4.7,0,0,0-2.07-3.44,1,1,0,0,0-.87,1.8Z"/><path class="cls-5" d="M20.81,51.4h0a1,1,0,0,0-1,1,1,1,0,0,0,1,1,1,1,0,0,0,0-2Z"/><path class="cls-5" d="M20.81,56.41h0a1,1,0,0,0-1,1,1,1,0,0,0,1,1,1,1,0,0,0,0-2Z"/><path class="cls-5" d="M25.8,51.4h0a1,1,0,0,0-1,1,1,1,0,0,0,1,1,1,1,0,1,0,0-2Z"/><path class="cls-5" d="M25.8,56.41h0a1,1,0,0,0-1,1,1,1,0,0,0,1,1,1,1,0,0,0,0-2Z"/><path class="cls-5" d="M49.73,56.35C47.65,48.65,39.58,42.1,31.78,41.57V40a13.55,13.55,0,0,0,6.07-11.38c0-.2,0-.38,0-.58a1,1,0,0,0,.78-1V21.26a7.49,7.49,0,0,0,4.13-6.76,7.58,7.58,0,0,0-2.42-5.6,10.09,10.09,0,0,0-6.39-2.48,6.45,6.45,0,0,0-3.19-5,11.94,11.94,0,0,0-11.26-.09,6.84,6.84,0,0,0-3.66,5.06A10,10,0,0,0,9.41,8.89a7.64,7.64,0,0,0,2,12.49v5.71a1,1,0,0,0,.8,1c0,.19,0,.38,0,.57A13.55,13.55,0,0,0,18.24,40v1.57C13.12,42,3.09,46,.28,56.35A5.7,5.7,0,0,0,1,61.54,7.29,7.29,0,0,0,7,64H43A7.29,7.29,0,0,0,49,61.55,5.7,5.7,0,0,0,49.73,56.35ZM14.59,20A5.4,5.4,0,0,1,9,14.45a5.56,5.56,0,0,1,1.77-4.11,8.54,8.54,0,0,1,6-2,1,1,0,0,0,1-1,4.82,4.82,0,0,1,2.71-4.28,9.94,9.94,0,0,1,9.24.05,4.43,4.43,0,0,1,2.27,4.19s0,0,0,0h0v0a.53.53,0,0,0,.05.25,1,1,0,0,0,.95.73,8.59,8.59,0,0,1,6,2,5.6,5.6,0,0,1,1.79,4.14A5.35,5.35,0,0,1,35.17,20a1,1,0,1,0,0,2,8.51,8.51,0,0,0,1.42-.13v4.2H13.41V21.92a8.65,8.65,0,0,0,1.19.09,1,1,0,0,0,0-2Zm-.42,8.61c0-.18,0-.35,0-.53H35.81c0,.18,0,.35,0,.53C35.84,34.92,31,40,25,40S14.18,34.92,14.18,28.62Zm15.6,12.45v2.74A6.86,6.86,0,0,1,25,45.3a6.89,6.89,0,0,1-4.77-1.49V41.07a12.2,12.2,0,0,0,9.54,0ZM30.37,62H10.94V58.58a1,1,0,0,0-2,0V62H7a5.36,5.36,0,0,1-4.34-1.67,3.81,3.81,0,0,1-.43-3.45c2.39-8.82,11.08-12.81,16-13.3v.6a1,1,0,0,0,.18.58C19.52,46.3,22.1,47.3,25,47.3a11.4,11.4,0,0,0,3.37-.5l2,3.46Zm17-1.67A5.36,5.36,0,0,1,43,62H39.27V58.58a1,1,0,0,0-2,0V62h-4.9V50s0,0,0-.06a1.6,1.6,0,0,0-.1-.38s0,0,0-.06l-2-3.51a4.72,4.72,0,0,0,1.38-1.24,1,1,0,0,0,.18-.57v-.59c7,.53,14.15,6.4,16,13.31A3.82,3.82,0,0,1,47.37,60.33Z"/></g></g></svg>