<?xml version="1.0" encoding="utf-8"?>
<!-- Generator: Adobe Illustrator 16.0.0, SVG Export Plug-In . SVG Version: 6.00 Build 0)  -->
<!DOCTYPE svg PUBLIC "-//W3C//DTD SVG 1.0//EN" "http://www.w3.org/TR/2001/REC-SVG-20010904/DTD/svg10.dtd">
<svg version="1.0" id="Layer_1" xmlns="http://www.w3.org/2000/svg" xmlns:xlink="http://www.w3.org/1999/xlink" x="0px" y="0px"
	 width="100px" height="100px" viewBox="0 0 100 100" enable-background="new 0 0 100 100" xml:space="preserve">
<path d="M90,26.667l-10-10H20l-10,10l4.714,4.714l6.143-6.143l5.811,58.096h46.666l5.811-58.096l6.143,6.143L90,26.667z
	 M45.794,47.533L31.628,65.947l-3.506-35.069L33.333,40H40L45.794,47.533z M48.411,40h18.256l5.211-9.121l-3.506,35.073L48.411,40z
	 M68.513,23.333l-5.717,10H37.2l-5.713-10H68.513z M32.702,76.668l-0.117-1.146l0.013,0.104L50,52.998l17.405,22.631l-0.104,1.039
	H32.702z"/>
</svg>
