<?xml version="1.0" encoding="utf-8"?>
<!-- Generator: Adobe Illustrator 16.0.0, SVG Export Plug-In . SVG Version: 6.00 Build 0)  -->
<!DOCTYPE svg PUBLIC "-//W3C//DTD SVG 1.0//EN" "http://www.w3.org/TR/2001/REC-SVG-20010904/DTD/svg10.dtd">
<svg version="1.0" id="Layer_1" xmlns="http://www.w3.org/2000/svg" xmlns:xlink="http://www.w3.org/1999/xlink" x="0px" y="0px"
	 width="100px" height="100px" viewBox="0 0 100 100" enable-background="new 0 0 100 100" xml:space="preserve">
<path d="M16.667,76.667C16.667,84.023,22.637,90,30,90h20l0,0c7.36,0,13.333-5.97,13.333-13.333H16.667z"/>
<path d="M63.333,56.667c0-11.042-8.951-20-20-20h-6.666c-11.042,0-20,8.951-20,20H63.333z"/>
<path d="M13.333,71.667c-1.829,0-3.333-1.504-3.333-3.334V65c0-1.836,1.501-3.333,3.333-3.333h53.334C68.499,61.667,70,63.171,70,65
	v3.333c0,1.83-1.501,3.334-3.333,3.334H13.333z"/>
<path d="M76.872,23.333L80.205,10h-6.872L70,23.333H43.333l0.671,6.699c14.036,0.352,25.384,11.582,25.94,25.566
	c3.9,1.367,6.723,5.046,6.723,9.401v3.333c0,4.355-2.822,8.034-6.723,9.401c-0.247,4.7-2.119,8.972-5.074,12.266h18.463L90,23.333
	H76.872z"/>
</svg>
