<svg xmlns="http://www.w3.org/2000/svg" viewBox="0 0 512 512"><title>Artboard 144</title><g id="Apple"><path d="M320,21.33333c-64,0-85.33333,42.66667-85.33333,85.33334H256q0-64,64-64Z" style="fill:#7d1a00"/><path d="M341.33333,64c-64,0-64,21.33333-85.33333,21.33333S234.66667,64,170.66667,64,21.33333,106.66667,21.33333,213.33333s64,102.4,64,172.8S128,490.66667,170.66667,490.66667c64,0,64-21.33334,85.33333-21.33334s21.33333,21.33334,85.33333,21.33334c42.66667,0,85.33334-34.13334,85.33334-104.53334,0-66.13333,64-66.13333,64-172.8S405.33333,64,341.33333,64Z" style="fill:#c82e25"/><path d="M170.66667,490.66667c-41.10417,0-85.33334-32.70834-85.33334-104.53125,0-31.5625-13.13541-48.46875-27.04166-66.375l33.69791-26.17709C107.1875,313.15625,128,339.94792,128,386.13542,128,431.80208,150.97917,448,170.66667,448c29.14583,0,37.55208-4.85417,44.96875-9.13542,7.875-4.55208,21.08333-12.19791,40.36458-12.19791s32.48958,7.64583,40.38542,12.21875l-21.375,36.91666c-6-3.46875-11.1875-6.46875-19.01042-6.46875s-13.01042,3-19.01042,6.46875C223.40625,483.64583,208.13542,490.66667,170.66667,490.66667Z" style="fill:#af0a00"/><path d="M341.33333,490.66667c-37.45833,0-52.72916-7.02084-66.28125-14.84375l42.64584-73.90625c2.85416,1.64583,5.57291,3.20833,20.53125,3.39583,1.15625-2.375,3.10416-8.03125,3.10416-19.17708,0-57.9375,26.34375-92.51042,43.78125-115.38542,14.30209-18.78125,20.21875-26.55208,20.21875-57.41667,0-60.91666-53.3125-64-64-64V64c60.03125,0,149.33334,39.77083,149.33334,149.33333,0,59.65625-20.01042,85.92709-37.65625,109.10417C438.86458,341,426.66667,357,426.66667,386.13542,426.66667,457.95833,382.4375,490.66667,341.33333,490.66667Z" style="fill:#af0a00"/><ellipse cx="149.33333" cy="170.66667" rx="74.28127" ry="51.69959" transform="translate(-76.94084 155.58172) rotate(-45)" style="fill:#d2514a"/><ellipse cx="117.33333" cy="160" rx="39.17953" ry="22.63364" transform="translate(-78.77095 129.83011) rotate(-45)" style="fill:#de807a"/></g></svg>