<svg xmlns="http://www.w3.org/2000/svg" viewBox="0 0 512 512"><title>Artboard 130</title><g id="Avocado"><path d="M320,106.66667c0-64-21.33333-85.33334-64-85.33334s-64,21.33334-64,85.33334S85.33333,213.33333,85.33333,320s64,170.66667,170.66667,170.66667,170.66667-64,170.66667-170.66667S320,170.66667,320,106.66667Z" style="fill:#e0d4b7"/><circle cx="341.33333" cy="256" r="21.33333" style="fill:#d4c3a2"/><path d="M405.33331,320a21.33332,21.33332,0,1,0,19.526,29.90894q.815-6.527,1.26014-13.31763A21.32847,21.32847,0,0,0,405.33331,320Z" style="fill:#d4c3a2"/><path d="M128,320H106.66667c0-52.25,30.98958-88.65625,58.33333-120.77083,23.77083-27.91667,48.33333-56.77084,48.33333-92.5625,0-54.42709,13.76042-64,42.66667-64V64c-15.08333,0-21.33333,0-21.33333,42.66667,0,43.64583-27.15625,75.53125-53.40625,106.375C153.86458,245.21875,128,275.60417,128,320Z" style="fill:#eae2ce"/><path d="M256,490.66667C149.13542,490.66667,85.33333,426.86458,85.33333,320h21.33334c0,94.90625,54.42708,149.33333,149.33333,149.33333S405.33333,414.90625,405.33333,320c0-52.26042-31-88.66667-58.35416-120.79167-24.84375-29.17708-48.3125-56.73958-48.3125-92.54166,0-59.29167-18.48959-64-42.66667-64V21.33333c45.45833,0,64,24.71875,64,85.33334,0,27.94791,21,52.60416,43.22917,78.70833,29.72916,34.92708,63.4375,74.51042,63.4375,134.625C426.66667,426.86458,362.86458,490.66667,256,490.66667Z" style="fill:#d4c3a2"/><path d="M256,448c-58.8125,0-106.66667-53.07292-106.66667-118.30208h21.33334c0,53.46875,38.28125,96.96875,85.33333,96.96875s85.33333-43.5,85.33333-96.96875c0-52.70834-38.0625-116.36459-85.33333-116.36459V192c61.05208,0,106.66667,72.69792,106.66667,137.69792C362.66667,394.92708,314.8125,448,256,448Z" style="fill:#d4c3a2"/><path d="M341.33333,329.697c0,53.55488-38.205,96.9697-85.33333,96.9697s-85.33333-43.41482-85.33333-96.9697S208.8717,213.33333,256,213.33333,341.33333,276.14208,341.33333,329.697Z" style="fill:#993b17"/><path d="M256,426.66667V384c23.53125,0,42.66667-24.36458,42.66667-54.30208,0-37.28125-27-73.69792-42.66667-73.69792V213.33333c47.27083,0,85.33333,63.65625,85.33333,116.36459C341.33333,383.16667,303.05208,426.66667,256,426.66667Z" style="fill:#8b2800"/><circle cx="256" cy="384" r="21.33333" style="fill:#8b2800"/><circle cx="288" cy="288" r="10.66667" style="fill:#8b2800"/><circle cx="266.66667" cy="309.33333" r="10.66667" style="fill:#8b2800"/><path d="M181.26042,213.04167l-16.25-13.83334c23.76041-27.89583,48.32291-56.75,48.32291-92.54166h21.33334C234.66667,150.3125,207.51042,182.19792,181.26042,213.04167Z" style="fill:#f3eee3"/><ellipse cx="234.66667" cy="288" rx="34.61713" ry="16.73864" transform="translate(-126.86463 373.48431) rotate(-64.12963)" style="fill:#b7745a"/><circle cx="234.66667" cy="128" r="21.33333" style="fill:#f3eee3"/><circle cx="202.66667" cy="181.33333" r="10.66667" style="fill:#f3eee3"/><circle cx="149.33333" cy="277.33333" r="21.33333" style="fill:#eae2ce"/><circle cx="256" cy="192" r="21.33333" style="fill:#d4c3a2"/></g></svg>