<svg xmlns="http://www.w3.org/2000/svg" viewBox="0 0 512 512"><title>Artboard 102</title><g id="Cake"><path d="M358.02053,86.25948C298.09356,80.10181,303.61164,106.66667,256,106.66667c-42.66667,0-42.66667,42.66666-85.33333,42.66666S128,192,85.33333,192c-18.58723,0-33.1258,8.09731-43.61572,17.23693C28.33638,220.89568,21.33333,238.2522,21.33333,256V426.66667H490.66667V234.66536C490.66645,158.69536,433.59263,94.02472,358.02053,86.25948Z" style="fill:#fee3aa"/><rect x="21.33333" y="341.33333" width="469.33333" height="85.33333" style="fill:#c99884"/><path d="M448,362.66667c-15.08333,0-23.05208-7.96875-28.875-13.79167-5.22917-5.22917-7.79167-7.54167-13.79167-7.54167s-8.5625,2.3125-13.79166,7.54167c-5.82292,5.82292-13.79167,13.79167-28.875,13.79167s-23.05209-7.96875-28.875-13.79167C328.5625,343.64583,326,341.33333,320,341.33333s-8.5625,2.3125-13.79167,7.54167c-5.82291,5.82292-13.79166,13.79167-28.875,13.79167s-23.05208-7.96875-28.875-13.79167c-5.22916-5.22917-7.79166-7.54167-13.79166-7.54167s-8.5625,2.3125-13.79167,7.54167c-5.82292,5.82292-13.79167,13.79167-28.875,13.79167s-23.05208-7.96875-28.875-13.79167c-5.22917-5.22917-7.79167-7.54167-13.79167-7.54167s-8.5625,2.3125-13.79166,7.54167c-5.82292,5.82292-13.79167,13.79167-28.875,13.79167s-23.05209-7.96875-28.875-13.79167C72.5625,343.64583,70,341.33333,64,341.33333s-8.5625,2.3125-13.79167,7.54167c-5.82291,5.82292-13.79166,13.79167-28.875,13.79167V341.33333c6,0,8.5625-2.3125,13.79167-7.54166C40.94792,327.96875,48.91667,320,64,320s23.05208,7.96875,28.875,13.79167c5.22917,5.22916,7.79167,7.54166,13.79167,7.54166s8.5625-2.3125,13.79166-7.54166C126.28125,327.96875,134.25,320,149.33333,320s23.05209,7.96875,28.875,13.79167C183.4375,339.02083,186,341.33333,192,341.33333s8.5625-2.3125,13.79167-7.54166C211.61458,327.96875,219.58333,320,234.66667,320s23.05208,7.96875,28.875,13.79167c5.22916,5.22916,7.79166,7.54166,13.79166,7.54166s8.5625-2.3125,13.79167-7.54166C296.94792,327.96875,304.91667,320,320,320s23.05208,7.96875,28.875,13.79167c5.22917,5.22916,7.79167,7.54166,13.79167,7.54166s8.5625-2.3125,13.79166-7.54166C382.28125,327.96875,390.25,320,405.33333,320s23.05209,7.96875,28.875,13.79167C439.4375,339.02083,442,341.33333,448,341.33333s8.5625-2.3125,13.79167-7.54166C467.61458,327.96875,475.58333,320,490.66667,320v21.33333c-6,0-8.5625,2.3125-13.79167,7.54167C471.05208,354.69792,463.08333,362.66667,448,362.66667Z" style="fill:#a34e2d"/><path d="M358.02053,86.25948C298.09356,80.10181,303.61164,106.66667,256,106.66667c-42.66667,0-42.66667,42.66666-85.33333,42.66666S128,192,85.33333,192c-18.58723,0-33.1258,8.09731-43.61572,17.23693C28.33638,220.89568,21.33333,238.2522,21.33333,256v21.33335c15.08334,0,23.05209-7.96875,28.875-13.79166C55.4375,258.3125,58,256,64,256s8.5625,2.3125,13.79167,7.54167c5.82291,5.82291,13.79166,13.79166,28.875,13.79166s23.05208-7.96875,28.875-13.79166C140.77083,258.3125,143.33333,256,149.33333,256s8.5625,2.3125,13.79167,7.54167c5.82292,5.82291,13.79167,13.79166,28.875,13.79166s23.05208-7.96875,28.875-13.79166C226.10417,258.3125,228.66667,256,234.66667,256s8.5625,2.3125,13.79166,7.54167c5.82292,5.82291,13.79167,13.79166,28.875,13.79166s23.05209-7.96875,28.875-13.79166C311.4375,258.3125,314,256,320,256s8.5625,2.3125,13.79167,7.54167c5.82291,5.82291,13.79166,13.79166,28.875,13.79166s23.05208-7.96875,28.875-13.79166C396.77083,258.3125,399.33333,256,405.33333,256s8.5625,2.3125,13.79167,7.54167c5.82292,5.82291,13.79167,13.79166,28.875,13.79166s23.05208-7.96875,28.875-13.79166C482.10417,258.3125,484.66667,256,490.66667,256V234.66536C490.66645,158.69536,433.59263,94.02472,358.02053,86.25948Z" style="fill:#993b17"/><path d="M362.66667,256c-6.25,0-9.25-3-13.79167-7.54167-5.8125-5.82291-13.77083-13.79166-28.875-13.79166s-23.0625,7.96875-28.86458,13.78125C286.58333,253,283.58333,256,277.33333,256s-9.25-3-13.79166-7.54167c-5.8125-5.82291-13.77084-13.79166-28.875-13.79166s-23.0625,7.96875-28.86459,13.78125C201.25,253,198.25,256,192,256s-9.25-3-13.79167-7.54167c-5.8125-5.82291-13.77083-13.79166-28.875-13.79166s-23.0625,7.96875-28.86458,13.78125C115.91667,253,112.91667,256,106.66667,256s-9.25-3-13.79167-7.54167c-4.32292-4.32291-10.21875-10.23958-19.53125-12.65625l5.35417-20.64583c13.80208,3.57292,22.5,11.51042,27.96875,16.92708,7.26041-7.19791,20.125-18.75,42.66666-18.75s35.39584,11.55209,42.66667,18.75c7.26042-7.19791,20.125-18.75,42.66667-18.75s35.39583,11.55209,42.66666,18.75c7.26042-7.19791,20.125-18.75,42.66667-18.75s35.39583,11.55209,42.66667,18.75c7.26041-7.19791,20.125-18.75,42.66666-18.75,23.94792,0,36.96875,13.04167,43.96875,20.05209l-15.10416,15.0625c-5.80209-5.8125-13.76042-13.78125-28.86459-13.78125s-23.0625,7.96875-28.86458,13.78125C371.91667,253,368.91667,256,362.66667,256Z" style="fill:#a34e2d"/><path d="M448,277.33333c-15.0625,0-23.02083-7.94791-28.83333-13.75C413.77083,258.17708,411.35417,256,405.33333,256s-8.4375,2.17708-13.78125,7.53125c-5.86458,5.85417-13.82291,13.80208-28.88541,13.80208s-23.02084-7.94791-28.83334-13.75C328.4375,258.17708,326.02083,256,320,256s-8.4375,2.17708-13.78125,7.53125c-5.86458,5.85417-13.82292,13.80208-28.88542,13.80208s-23.02083-7.94791-28.83333-13.75C243.10417,258.17708,240.6875,256,234.66667,256s-8.4375,2.17708-13.78125,7.53125C215.02083,269.38542,207.0625,277.33333,192,277.33333s-23.02083-7.94791-28.83333-13.75C157.77083,258.17708,155.35417,256,149.33333,256s-8.4375,2.17708-13.78125,7.53125c-5.86458,5.85417-13.82291,13.80208-28.88541,13.80208s-23.02084-7.94791-28.83334-13.75C72.4375,258.17708,70.02083,256,64,256s-8.4375,2.17708-13.78125,7.53125c-3.39583,3.39583-7.61458,7.61458-13.61458,10.48958l-9.20834-19.25c2.70834-1.29166,5.03125-3.61458,7.72917-6.3125,5.80208-5.8125,13.76042-13.79166,28.875-13.79166s23.07292,7.97916,28.88542,13.80208C97.98958,253.5625,100.69792,256,106.66667,256s8.67708-2.4375,13.77083-7.52083c5.82292-5.83334,13.78125-13.8125,28.89583-13.8125s23.07292,7.97916,28.88542,13.80208C183.32292,253.5625,186.03125,256,192,256s8.67708-2.4375,13.77083-7.52083c5.82292-5.83334,13.78125-13.8125,28.89584-13.8125s23.07291,7.97916,28.88541,13.80208C268.65625,253.5625,271.36458,256,277.33333,256s8.67709-2.4375,13.77084-7.52083c5.82291-5.83334,13.78125-13.8125,28.89583-13.8125s23.07292,7.97916,28.88542,13.80208C353.98958,253.5625,356.69792,256,362.66667,256s8.67708-2.4375,13.77083-7.52083c5.82292-5.83334,13.78125-13.8125,28.89583-13.8125s23.07292,7.97916,28.88542,13.80208C439.32292,253.5625,442.03125,256,448,256s8.67708-2.4375,13.77083-7.52083a70.20943,70.20943,0,0,1,7.5625-6.83334v-6.97916c0-69.42709-56.45833-126.84375-125.85416-127.97917l.35416-21.33333c80.95834,1.33333,146.83334,68.3125,146.83334,149.3125V256l-6.09375,1.20833c-2.59375,1.22917-4.84375,3.47917-7.69792,6.33334C471.02083,269.38542,463.0625,277.33333,448,277.33333Z" style="fill:#7d1a00"/><path d="M98.47917,240.15625a66.07351,66.07351,0,0,1-28.58334-6.61458l9.48959-19.10417c3.42708,1.63542,33.8125,15.29167,49.73958-16.54167,13.61458-27.22916,35.91667-27.22916,52.20833-27.22916,16.69792,0,25.75-.6875,33.125-15.4375,17.57292-35.13542,40.98959-32.85417,58.05209-31.15625,13.64583,1.30208,20.52083,2.01041,27.28125-11.51042l19.08333,9.54167c-13.32292,26.64583-33.64583,24.65625-48.44792,23.19791-15.59375-1.53125-25.88541-2.54166-36.88541,19.46875C219.92708,192,197.625,192,181.33333,192c-16.69791,0-25.75.6875-33.125,15.4375C135.61458,232.61458,115.97917,240.15625,98.47917,240.15625Z" style="fill:#a34e2d"/><path d="M148.20833,207.4375,129.125,197.89583c13.61458-27.22916,35.91667-27.22916,52.20833-27.22916,16.69792,0,25.75-.6875,33.125-15.4375,17.57292-35.13542,40.98959-32.85417,58.05209-31.15625,13.64583,1.30208,20.52083,2.01041,27.28125-11.51042l19.08333,9.54167c-13.32292,26.64583-33.64583,24.65625-48.44792,23.19791-15.59375-1.53125-25.88541-2.54166-36.88541,19.46875C219.92708,192,197.625,192,181.33333,192,164.63542,192,155.58333,192.6875,148.20833,207.4375Z" style="fill:#b7745a"/><path d="M490.66667,256c-6.25,0-9.09375,2.83333-13.79167,7.54167-5.82292,5.82291-13.79167,13.79166-28.875,13.79166s-23.05208-7.96875-28.875-13.79166C414.42708,258.83333,411.58333,256,405.33333,256s-9.09375,2.83333-13.79166,7.54167c-5.82292,5.82291-13.79167,13.79166-28.875,13.79166s-23.05209-7.96875-28.875-13.79166C329.09375,258.83333,326.25,256,320,256s-9.09375,2.83333-13.79167,7.54167c-5.82291,5.82291-13.79166,13.79166-28.875,13.79166s-23.05208-7.96875-28.875-13.79166C243.76042,258.83333,240.91667,256,234.66667,256s-9.09375,2.83333-13.79167,7.54167c-5.82292,5.82291-13.79167,13.79166-28.875,13.79166s-23.05208-7.96875-28.875-13.79166C158.42708,258.83333,155.58333,256,149.33333,256s-9.09375,2.83333-13.79166,7.54167c-5.82292,5.82291-13.79167,13.79166-28.875,13.79166s-23.05209-7.96875-28.875-13.79166C73.09375,258.83333,70.25,256,64,256s-9.09375,2.83333-13.79167,7.54167c-5.82291,5.82291-13.79166,13.79166-28.875,13.79166v21.33334c22.52084,0,35.39584-11.55209,42.66667-18.75,7.27083,7.19791,20.14583,18.75,42.66667,18.75s35.39583-11.55209,42.66666-18.75c7.27084,7.19791,20.14584,18.75,42.66667,18.75s35.39583-11.55209,42.66667-18.75c7.27083,7.19791,20.14583,18.75,42.66666,18.75s35.39584-11.55209,42.66667-18.75c7.27083,7.19791,20.14583,18.75,42.66667,18.75s35.39583-11.55209,42.66666-18.75c7.27084,7.19791,20.14584,18.75,42.66667,18.75,22.59375,0,35.40885-11.58073,42.66667-18.77084Z" style="fill:#fdcf6d"/><path d="M490.66667,362.66667V352l-.17709,10.66667Z" style="fill:#b7745a"/><path d="M490.66667,341.33333c-6.25,0-9.09375,2.83334-13.79167,7.54167-5.82292,5.82292-13.79167,13.79167-28.875,13.79167s-23.05208-7.96875-28.875-13.79167c-4.69792-4.70833-7.54167-7.54167-13.79167-7.54167s-9.09375,2.83334-13.79166,7.54167c-5.82292,5.82292-13.79167,13.79167-28.875,13.79167s-23.05209-7.96875-28.875-13.79167c-4.69792-4.70833-7.54167-7.54167-13.79167-7.54167s-9.09375,2.83334-13.79167,7.54167c-5.82291,5.82292-13.79166,13.79167-28.875,13.79167s-23.05208-7.96875-28.875-13.79167c-4.69791-4.70833-7.54166-7.54167-13.79166-7.54167s-9.09375,2.83334-13.79167,7.54167c-5.82292,5.82292-13.79167,13.79167-28.875,13.79167s-23.05208-7.96875-28.875-13.79167c-4.69792-4.70833-7.54167-7.54167-13.79167-7.54167s-9.09375,2.83334-13.79166,7.54167c-5.82292,5.82292-13.79167,13.79167-28.875,13.79167s-23.05209-7.96875-28.875-13.79167C73.09375,344.16667,70.25,341.33333,64,341.33333s-9.09375,2.83334-13.79167,7.54167c-5.82291,5.82292-13.79166,13.79167-28.875,13.79167V384C43.85417,384,56.72917,372.44792,64,365.25,71.27083,372.44792,84.14583,384,106.66667,384s35.39583-11.55208,42.66666-18.75C156.60417,372.44792,169.47917,384,192,384s35.39583-11.55208,42.66667-18.75C241.9375,372.44792,254.8125,384,277.33333,384S312.72917,372.44792,320,365.25c7.27083,7.19792,20.14583,18.75,42.66667,18.75s35.39583-11.55208,42.66666-18.75C412.60417,372.44792,425.47917,384,448,384c22.59375,0,35.40885-11.58073,42.66667-18.77083Z" style="fill:#b7745a"/></g></svg>