<svg xmlns="http://www.w3.org/2000/svg" viewBox="0 0 512 512"><title>Artboard 106</title><g id="Canned_Softdrink" data-name="Canned Softdrink"><path d="M362.66667,21.33333H149.33333V42.66654l-30.16993,30.17a42.6667,42.6667,0,0,0-12.49673,30.16985V408.99355a42.66666,42.66666,0,0,0,12.49677,30.16989l30.16989,30.16989v21.33334H362.66667V469.33333l30.16989-30.16989a42.66666,42.66666,0,0,0,12.49677-30.16989V103.00645a42.66666,42.66666,0,0,0-12.49677-30.16989L362.66667,42.66667Z" style="fill:#c11107"/><rect x="128" y="21.33333" width="256" height="21.33333" style="fill:#afa8a8"/><rect x="128" y="469.33333" width="256" height="21.33333" style="fill:#afa8a8"/><path d="M277.33333,408.99355V103.00645a42.66666,42.66666,0,0,0-12.49677-30.16989L234.66667,42.66667V21.33333H149.33333V42.66667L119.16344,72.83656a42.66666,42.66666,0,0,0-12.49677,30.16989v305.9871a42.66666,42.66666,0,0,0,12.49677,30.16989l30.16989,30.16989v21.33334h85.33334V469.33333l30.16989-30.16989A42.66666,42.66666,0,0,0,277.33333,408.99355Z" style="fill:#cd3e36"/><rect x="128" y="21.33333" width="128" height="21.33333" style="fill:#d5d1d1"/><rect x="128" y="469.33333" width="128" height="21.33333" style="fill:#d5d1d1"/><path d="M192.44167,469.33333C192.44167,320,320,341.33333,320,256c0-149.33333,85.33333-85.33333,85.33333-170.66667V192S320,192,320,277.33333c0,64-44.91292,42.66667-44.91292,192Z" style="fill:#d5d1d1"/><path d="M276.64062,426.75651s.42709-5.91276.69271-8.66406V323.29557c-37.08724,27.13933-84.89192,54.57292-84.89192,146.03776h42.22526Z" style="fill:#edebeb"/><path d="M298.8875,469.33333c-.22083-42.66666,42.44583-67.66022,42.44583-128,0-85.33333,64-65.8882,64-107.61077V320s-64,0-64,42.66667V469.33333Z" style="fill:#d5d1d1"/><rect x="128" y="106.66667" width="21.33333" height="298.66667" style="fill:#d96c66"/><rect x="128" y="170.66667" width="21.33333" height="170.66667" style="fill:#e59b96"/><rect x="149.33333" y="42.66667" width="85.33333" height="21.33333" style="fill:#c82e25"/><rect x="256" y="42.66667" width="106.66667" height="21.33333" style="fill:#af0a00"/></g></svg>