<svg xmlns="http://www.w3.org/2000/svg" viewBox="0 0 512 512"><title>Artboard 141</title><g id="Carrot"><path d="M21.33333,426.184v.00009a64.48255,64.48255,0,0,0,64.48255,64.48255H85.816a64.4825,64.4825,0,0,0,37.75392-12.20789L438.00661,251.36559a127.04185,127.04185,0,0,0,52.66006-102.9902v-.00019A127.04187,127.04187,0,0,0,363.6248,21.33333h-.00019a127.04185,127.04185,0,0,0-102.9902,52.66006L33.54122,388.43011A64.4825,64.4825,0,0,0,21.33333,426.184Z" style="fill:#ef7f00"/><rect x="81.04795" y="223.9989" width="243.23742" height="42.66887" transform="translate(-115.41063 254.77035) rotate(-52.13974)" style="fill:#f59707"/><rect x="144.26769" y="220.77494" width="121.81879" height="42.66887" transform="translate(-111.8956 255.50705) rotate(-52.13974)" style="fill:#fdbc34"/><path d="M85.8125,490.66667A64.55458,64.55458,0,0,1,21.33333,426.1875H64A21.825,21.825,0,0,0,98.59375,443.875l314.4375-227.09375A84.62417,84.62417,0,0,0,448,148.375a83.51924,83.51924,0,0,0-17-50.72917L465.04167,71.9375a125.85724,125.85724,0,0,1,25.625,76.4375,127.40543,127.40543,0,0,1-52.65625,102.98958L123.57292,478.45833A64.0471,64.0471,0,0,1,85.8125,490.66667Z" style="fill:#e76400"/><path d="M442.95833,170.66667c-22.25,0-47.88541-12.35417-68.57291-33.05209-14.95834-14.9375-25.76042-32.69791-30.4375-49.98958l20.58333-5.5625c3.71875,13.73958,12.57292,28.11458,24.9375,40.46875C414.26042,147.32292,447.88542,156.58333,462.25,142.25l15.08333,15.08333C468.61458,166.05208,456.72917,170.66667,442.95833,170.66667Z" style="fill:#e76400"/><ellipse cx="416" cy="96" rx="37.52818" ry="65.41098" transform="translate(53.96133 322.27417) rotate(-45)" style="fill:#fdbc34"/><ellipse cx="394.66667" cy="96" rx="19.54823" ry="40.80342" transform="translate(47.71294 307.18923) rotate(-45)" style="fill:#f59707"/><path d="M138.66667,426.66667c-42.1875,0-53.33334-34.88542-53.33334-53.33334H96l10.66667-.0625c.0625,5.35417,1.88541,32.0625,32,32.0625Z" style="fill:#e76400"/><path d="M245.33333,362.66667c-56.70833,0-87.22916-46.63542-95.44791-71.29167l20.22916-6.77083c.78125,2.3125,19.89584,56.72916,75.21875,56.72916Z" style="fill:#e76400"/><path d="M330.66667,298.66667c-92.59375,0-116.78125-92.47917-117.01042-93.41667l20.6875-5.19792c.80208,3.15625,20.57292,77.28125,96.32292,77.28125Z" style="fill:#e76400"/><path d="M330.66667,320C216.57292,320,192.4375,205.90625,192.20833,204.76042l20.91667-4.20834c.8125,4.01042,21.125,98.11459,117.54167,98.11459Z" style="fill:#f59707"/><path d="M392.57292,255.79167c-112-22.39584-135.3125-110.78125-136.25-114.54167l20.6875-5.20833c.82291,3.22916,21.40625,79.16666,119.75,98.83333Z" style="fill:#f59707"/><path d="M245.33333,384c-92.59375,0-116.78125-92.47917-117.01041-93.41667l20.6875-5.19791c.80208,3.15625,20.57291,77.28125,96.32291,77.28125Z" style="fill:#f59707"/><path d="M138.66667,448c-48.69792,0-72.55209-46.58333-73.54167-48.5625l19.0625-9.57292c.1875.375,19.10417,36.80209,54.47917,36.80209Z" style="fill:#f59707"/><path d="M416,234.66667c-137.08333,0-138.66667-116.15625-138.66667-117.33334l21.33334-.03125c.02083,3.91667,1.92708,96.03125,117.33333,96.03125Z" style="fill:#e76400"/></g></svg>