<svg xmlns="http://www.w3.org/2000/svg" viewBox="0 0 512 512"><title>Artboard 133</title><g id="Chery"><path d="M320,64s-21.33333-42.66667-85.33333-42.66667S149.33333,64,149.33333,64s21.33334,42.66667,85.33334,42.66667S320,64,320,64Z" style="fill:#ef7f00"/><path d="M320,42.66667h.00011A106.66656,106.66656,0,0,1,426.66667,149.33323v.00011a0,0,0,0,1,0,0h-.00011A106.66656,106.66656,0,0,1,320,42.66677v-.00011A0,0,0,0,1,320,42.66667Z" style="fill:#f59707"/><circle cx="362.66667" cy="362.66667" r="128" style="fill:#af0a00"/><path d="M234.66667,362.66667a127.19857,127.19857,0,0,0,18.80208,66.53125A127.80441,127.80441,0,0,0,429.19792,253.46875,127.80441,127.80441,0,0,0,234.66667,362.66667Z" style="fill:#c11107"/><path d="M298.66667,362.66667H256A106.79223,106.79223,0,0,1,362.66667,256v42.66667A64.07,64.07,0,0,0,298.66667,362.66667Z" style="fill:#cd3e36"/><circle cx="362.66667" cy="277.33333" r="21.33333" style="fill:#af0a00"/><path d="M362.66667,277.33333H341.33333c0-48.65625-21.1875-67.95833-43.61458-88.39583-19.21875-17.52083-39.10417-35.625-41.6875-70.82292-.95833-13.03125,5.04167-39.3125,21.38542-56.90625A56.79988,56.79988,0,0,1,320,42.66667V64a35.00256,35.00256,0,0,0-26.94792,11.72917c-12.125,13.05208-16.30208,33.34375-15.75,40.82291,1.96875,26.70834,17.17709,40.57292,34.78125,56.61459C335.79167,194.77083,362.66667,219.26042,362.66667,277.33333Z" style="fill:#e76400"/><circle cx="149.33333" cy="362.66667" r="128" style="fill:#c82e25"/><path d="M21.33333,362.66667a127.19858,127.19858,0,0,0,18.80209,66.53125A127.8044,127.8044,0,0,0,215.86458,253.46875,127.80441,127.80441,0,0,0,21.33333,362.66667Z" style="fill:#cd3e36"/><circle cx="170.66667" cy="277.33333" r="21.33333" style="fill:#c82e25"/><path d="M170.66667,277.33333H149.33333c0-41.72916,18.64584-60.35416,35.10417-76.78125,15.5-15.48958,28.89583-28.85416,28.89583-61.88541,0-96,64.1875-96,106.66667-96V64c-43.88542,0-85.33333,0-85.33333,74.66667,0,41.875-18.67709,60.52083-35.15625,76.97916C184.03125,231.10417,170.66667,244.44792,170.66667,277.33333Z" style="fill:#f59707"/><circle cx="320" cy="42.66667" r="21.33333" style="fill:#993b17"/><path d="M85.33333,362.66667H42.66667A106.79223,106.79223,0,0,1,149.33333,256v42.66667A64.07,64.07,0,0,0,85.33333,362.66667Z" style="fill:#d96c66"/></g></svg>