<svg xmlns="http://www.w3.org/2000/svg" viewBox="0 0 512 512"><title>Artboard 135</title><g id="Chocolate_Bar" data-name="Chocolate Bar"><rect x="25.30755" y="169.90861" width="482.71823" height="150.84945" transform="translate(-95.37201 260.41828) rotate(-45)" style="fill:#8b2800"/><polygon points="384 21.333 384 51.5 460.5 128 149.333 439.167 65.292 355.125 50.208 370.208 149.333 469.333 490.667 128 384 21.333" style="fill:#7d1a00"/><rect x="216.99355" y="174.32689" width="120.67956" height="120.67956" transform="translate(-84.70534 264.83656) rotate(-45)" style="fill:#a34e2d"/><polygon points="277.333 320 277.333 298.667 341.333 234.667 277.333 170.667 277.333 149.333 363.768 233.565 277.333 320" style="fill:#993b17"/><polygon points="213.333 234.667 277.333 298.667 277.333 277.333 234.667 234.667 213.333 234.667" style="fill:#c99884"/><polygon points="213.333 234.667 277.333 170.667 277.333 192 234.667 234.667 213.333 234.667" style="fill:#ad6143"/><path d="M21.33333,362.66667l128,128L298.66667,341.33333v-.00012A127.99988,127.99988,0,0,0,170.66679,213.33333h-.00012Z" style="fill:#c82e25"/><path d="M21.33333,362.66667l128,128L298.66667,341.33333v-.00012A127.99988,127.99988,0,0,0,170.66679,213.33333h-.00012Z" style="fill:#c82e25"/><path d="M298.27083,331.14583a127.9561,127.9561,0,0,0-37.125-80.29166l-30.16666,30.1875a85.17027,85.17027,0,0,1,23.47916,44.15625l-105.125,105.13281v60.33594L299.04167,340.95833Z" style="fill:#c11107"/><rect x="323.66022" y="67.66022" width="120.67956" height="120.67956" transform="translate(21.96133 309.01934) rotate(-45)" style="fill:#a34e2d"/><polygon points="384 213.333 384 192 448 128 384 64 384 42.667 470.435 126.898 384 213.333" style="fill:#993b17"/><polygon points="320 128 384 192 384 170.667 341.333 128 320 128" style="fill:#b7745a"/><polygon points="320 128 384 64 384 85.333 341.333 128 320 128" style="fill:#ad6143"/><rect x="63.24194" y="309.33561" width="150.84945" height="42.66211" transform="translate(-193.20212 194.90216) rotate(-45)" style="fill:#d2514a"/><rect x="106.28764" y="304.00228" width="75.42472" height="42.66211" transform="translate(-187.86878 197.1113) rotate(-45)" style="fill:#e59b96"/></g></svg>