<svg xmlns="http://www.w3.org/2000/svg" viewBox="0 0 512 512"><title>Artboard 109</title><g id="Coffee_Cup" data-name="Coffee Cup"><path d="M448,85.33333C448,128,405.33333,128,405.33333,128,384,128,384,149.33333,384,149.33333c0,21.33334-21.33333,21.33334-21.33333,21.33334C341.33333,170.66667,341.33333,192,341.33333,192c0,21.33333-21.33333,21.33333-21.33333,21.33333v21.33334H84.60878c.72455-42.66667,22.05789-64,64.72455-64,21.33334,0,21.33334-21.33334,21.33334-21.33334C170.66667,128,192,128,192,128c21.33333,0,21.33333-21.33333,21.33333-21.33333,0-21.33334,21.33334-21.33334,21.33334-21.33334h42.66669v21.33335A21.33331,21.33331,0,0,0,298.66666,128h0A21.33331,21.33331,0,0,0,320,106.66678v-.0002a21.33333,21.33333,0,0,1,21.33333-21.33325Z" style="fill:#f3eee3"/><path d="M234.66667,213.33333H21.33333v128C21.33333,426.66667,106.66667,448,106.66667,448s0,21.33333,21.33333,21.33333H341.33333c21.33334,0,21.33334-21.33333,21.33334-21.33333S448,426.66667,448,341.33333v-128Z" style="fill:#eae2ce"/><path d="M170.66667,448S256,426.66667,256,341.33333v-128H448v128C448,426.66667,362.66667,448,362.66667,448s0,21.33333-21.33334,21.33333H170.66667Z" style="fill:#e0d4b7"/><path d="M234.66667,256h-192v85.33333C42.66667,384,85.33333,426.66667,128,426.66667H341.33333c42.66667,0,85.33334-42.66667,85.33334-85.33334V256Z" style="fill:#993b17"/><path d="M42.66667,256v85.33333c0,32.64844,25.02734,65.12761,55.875,78.65886C80.23568,403.58333,64,378.55078,64,341.33333V256Z" style="fill:#c28a73"/><path d="M256,341.33333c0,42.66667-21.33333,69.33334-42.66667,85.33334h128c42.66667,0,85.33334-42.66667,85.33334-85.33334V256H256Z" style="fill:#8b2800"/><path d="M362.66667,256V422.84635c34.44791-10.96744,64-46.05338,64-81.513V256Z" style="fill:#7d1a00"/><path d="M149.33333,405.33333a64.07,64.07,0,0,1-64-64v-64H128v64a21.36113,21.36113,0,0,0,21.33333,21.33334Z" style="fill:#ad6143"/><rect x="85.33333" y="277.33333" width="42.66667" height="42.66667" style="fill:#c99884"/><rect x="42.66667" y="213.33333" width="192" height="21.33333" style="fill:#f3eee3"/><path d="M362.66667,256v0A21.33331,21.33331,0,0,0,384,277.33333h21.3334A42.66663,42.66663,0,0,1,448,320V320a42.66663,42.66663,0,0,1-42.66662,42.66663H384A21.33331,21.33331,0,0,0,362.66667,384v0A21.33331,21.33331,0,0,0,384,405.33333h21.33344a85.33324,85.33324,0,0,0,85.33325-85.33324v-.00018a85.33324,85.33324,0,0,0-85.33325-85.33324H384A21.33331,21.33331,0,0,0,362.66667,256Z" style="fill:#eae2ce"/><path d="M405.33333,384H384V362.66667h21.33333A42.70887,42.70887,0,0,0,448,320h21.33333A64.07,64.07,0,0,1,405.33333,384Z" style="fill:#d4c3a2"/><path d="M457.86458,283.42708A64.11362,64.11362,0,0,0,405.33333,256H384V234.66667h21.33333a85.51366,85.51366,0,0,1,70.03125,36.55208Z" style="fill:#f3eee3"/></g></svg>