<svg xmlns="http://www.w3.org/2000/svg" viewBox="0 0 512 512"><title>Artboard 140</title><g id="Cookie"><path d="M426.66667,192a85.33339,85.33339,0,0,1-85.33334-85.33333A85.33339,85.33339,0,0,1,256,21.33333C126.39714,21.33333,21.33333,126.39714,21.33333,256S126.39714,490.66667,256,490.66667,490.66667,385.60286,490.66667,256a233.66731,233.66731,0,0,0-14.35287-80.17188A84.67843,84.67843,0,0,1,426.66667,192Z" style="fill:#993b17"/><path d="M85.33333,256H64c0-88.59375,62.64583-167.29167,148.96875-187.13542l4.77083,20.79167C141.02083,107.29167,85.33333,177.25,85.33333,256Z" style="fill:#a34e2d"/><path d="M256,490.66667C126.60417,490.66667,21.33333,385.39583,21.33333,256H64c0,105.86458,86.13542,192,192,192s192-86.13542,192-192a185.72078,185.72078,0,0,0-1.42708-22.89583,126.68416,126.68416,0,0,1-19.90625,1.5625,128.03966,128.03966,0,0,1-122.5-90.82292A127.50973,127.50973,0,0,1,216.125,47.9375l41.72917-8.85417a86.16746,86.16746,0,0,0,67.83333,66.15625l14.39583,2.67709,2.67709,14.39583A85.35715,85.35715,0,0,0,426.66667,192a83.54259,83.54259,0,0,0,29.29166-5.27083l22.53125-8.39584,5.65625,23.36459A231.57742,231.57742,0,0,1,490.66667,256C490.66667,385.39583,385.39583,490.66667,256,490.66667Z" style="fill:#8b2800"/><path d="M96,256V234.66667a32.035,32.035,0,0,0,32-32h21.33333A53.39611,53.39611,0,0,1,96,256Z" style="fill:#8b2800"/><circle cx="96" cy="202.66667" r="32" style="fill:#7d1a00"/><path d="M245.33333,341.33333V320a32.035,32.035,0,0,0,32-32h21.33334A53.39612,53.39612,0,0,1,245.33333,341.33333Z" style="fill:#8b2800"/><circle cx="245.33333" cy="288" r="32" style="fill:#7d1a00"/><path d="M245.33333,192V170.66667a32.035,32.035,0,0,0,32-32h21.33334A53.39612,53.39612,0,0,1,245.33333,192Z" style="fill:#8b2800"/><circle cx="245.33333" cy="138.66667" r="32" style="fill:#7d1a00"/><path d="M330.66667,469.33333A53.39612,53.39612,0,0,1,277.33333,416h21.33334a32,32,0,0,0,64,0H384A53.39611,53.39611,0,0,1,330.66667,469.33333Z" style="fill:#8b2800"/><circle cx="330.66667" cy="416" r="32" style="fill:#7d1a00"/><path d="M384,256V234.66667a21.36112,21.36112,0,0,0,21.33333-21.33334h21.33334A42.70887,42.70887,0,0,1,384,256Z" style="fill:#8b2800"/><circle cx="384" cy="213.33333" r="21.33333" style="fill:#7d1a00"/><path d="M106.66667,405.33333V384A21.36113,21.36113,0,0,0,128,362.66667h21.33333A42.70885,42.70885,0,0,1,106.66667,405.33333Z" style="fill:#8b2800"/><circle cx="106.66667" cy="362.66667" r="21.33333" style="fill:#7d1a00"/><circle cx="421.33333" cy="336" r="16" style="fill:#8b2800"/><circle cx="341.33333" cy="288" r="21.33333" style="fill:#8b2800"/><circle cx="213.33333" cy="362.66667" r="21.33333" style="fill:#8b2800"/><circle cx="448" cy="234.66667" r="21.33333" style="fill:#8b2800"/><circle cx="128" cy="298.66667" r="21.33333" style="fill:#8b2800"/><circle cx="234.66667" cy="213.33333" r="21.33333" style="fill:#8b2800"/><circle cx="149.33333" cy="128" r="21.33333" style="fill:#a34e2d"/></g></svg>