<svg xmlns="http://www.w3.org/2000/svg" viewBox="0 0 512 512"><title>Artboard 139</title><g id="Corn"><path d="M106.66667,128V234.66684A170.66649,170.66649,0,0,0,277.33316,405.33333h.00017V298.6665A170.66649,170.66649,0,0,0,106.66684,128Z" style="fill:#a34e2d"/><path d="M242.875,379.97917A148.78528,148.78528,0,0,1,128,234.66667v-70.9375h21.33333v70.9375a127.54935,127.54935,0,0,0,98.45834,124.5625Z" style="fill:#ad6143"/><rect x="128" y="163.72917" width="21.33333" height="70.9375" style="fill:#c28a73"/><path d="M405.33333,128V234.66684A170.66649,170.66649,0,0,1,234.66684,405.33333h-.00017V298.6665A170.66649,170.66649,0,0,1,405.33316,128Z" style="fill:#993b17"/><path d="M341.33333,140.52214v8.81119l7.10417,1.20834a21.34646,21.34646,0,0,1,0,40.25L341.33333,192v42.66667l7.10417,1.20833a21.34646,21.34646,0,0,1,0,40.25l-7.10417,2.52083V320h21.33334V292.94792a42.66234,42.66234,0,0,0,0-73.89584v-11.4375a42.66234,42.66234,0,0,0,0-73.89583v-.125A169.25578,169.25578,0,0,0,341.33333,140.52214Z" style="fill:#8b2800"/><rect x="213.33333" y="384" width="85.33333" height="106.66667" rx="42.66662" ry="42.66662" style="fill:#993b17"/><path d="M256,490.66667V469.33333A21.35442,21.35442,0,0,0,277.33333,448V426.66667h21.33334V448A42.71556,42.71556,0,0,1,256,490.66667Z" style="fill:#8b2800"/><path d="M341.33333,234.66667V192a21.33334,21.33334,0,1,0,0-42.66667V128c0-21.33333-21.33333-21.33333-21.33333-21.33333V85.33333C320,64,298.66667,64,298.66667,64S277.33333,21.33333,256,21.33333,213.33333,64,213.33333,64,192,64,192,85.33333v21.33334s-21.33333,0-21.33333,21.33333V362.66667c0,64,21.33333,85.33333,64,85.33333h42.66666c42.66667,0,64-21.33333,64-85.33333V277.33333a21.33333,21.33333,0,1,0,0-42.66666Z" style="fill:#fdab00"/><path d="M277.33333,85.33333v21.33334S256,106.66667,256,128v21.33333A21.33333,21.33333,0,0,0,256,192v42.66667a21.33333,21.33333,0,0,0,0,42.66666v85.33334c0,52.10286,14.388,75.63021,42.66667,82.6875,28.27994-7.05729,42.66666-30.58464,42.66666-82.6875V277.33333a21.33333,21.33333,0,1,0,0-42.66666V192a21.33334,21.33334,0,1,0,0-42.66667V128c0-21.33333-21.33333-21.33333-21.33333-21.33333V85.33333C320,64,298.66667,64,298.66667,64S277.33333,64,277.33333,85.33333Z" style="fill:#f59707"/><circle cx="192" cy="128" r="21.33333" style="fill:#fdbc34"/><circle cx="213.33333" cy="85.33333" r="21.33333" style="fill:#fdbc34"/><circle cx="202.66667" cy="74.66667" r="10.66667" style="fill:#fee3aa"/><circle cx="256" cy="85.33333" r="21.33333" style="fill:#fdbc34"/><circle cx="234.66667" cy="128" r="21.33333" style="fill:#fdbc34"/><circle cx="213.33333" cy="170.66667" r="21.33333" style="fill:#fdbc34"/><circle cx="192" cy="213.33333" r="21.33333" style="fill:#fdbc34"/><circle cx="170.66667" cy="170.66667" r="21.33333" style="fill:#fdbc34"/><circle cx="298.66667" cy="170.66667" r="21.33333" style="fill:#fdab00"/><circle cx="256" cy="170.66667" r="21.33333" style="fill:#fdbc34"/><circle cx="213.33333" cy="341.33333" r="21.33333" style="fill:#fdbc34"/><circle cx="170.66667" cy="341.33333" r="21.33333" style="fill:#fdbc34"/><circle cx="298.66667" cy="341.33333" r="21.33333" style="fill:#fdab00"/><circle cx="341.33333" cy="341.33333" r="21.33333" style="fill:#fdab00"/><circle cx="256" cy="341.33333" r="21.33333" style="fill:#fdbc34"/><circle cx="234.66667" cy="213.33333" r="21.33333" style="fill:#fdbc34"/><circle cx="277.33333" cy="213.33333" r="21.33333" style="fill:#fdab00"/><circle cx="192" cy="298.66667" r="21.33333" style="fill:#fdbc34"/><circle cx="181.33333" cy="288" r="10.66667" style="fill:#fee3aa"/><circle cx="245.33333" cy="330.66667" r="10.66667" style="fill:#fee3aa"/><circle cx="234.66667" cy="298.66667" r="21.33333" style="fill:#fdbc34"/><circle cx="277.33333" cy="298.66667" r="21.33333" style="fill:#fdab00"/><circle cx="192" cy="384" r="21.33333" style="fill:#fdbc34"/><circle cx="234.66667" cy="384" r="21.33333" style="fill:#fdbc34"/><circle cx="277.33333" cy="384" r="21.33333" style="fill:#fdbc34"/><circle cx="320" cy="384" r="21.33333" style="fill:#fdab00"/><circle cx="277.33333" cy="128" r="21.33333" style="fill:#fdab00"/><circle cx="170.66667" cy="256" r="21.33333" style="fill:#fdbc34"/><circle cx="213.33333" cy="256" r="21.33333" style="fill:#fdbc34"/><circle cx="256" cy="256" r="21.33333" style="fill:#fdbc34"/><path d="M234.66667,448H341.33333C384,448,448,405.33333,448,298.66667H383.99985A149.33318,149.33318,0,0,0,234.66667,447.99985Z" style="fill:#a34e2d"/><path d="M301.79167,380.125l-16.45834-13.60417A127.70753,127.70753,0,0,1,384,320v21.33333A106.37242,106.37242,0,0,0,301.79167,380.125Z" style="fill:#8b2800"/><path d="M341.33333,448h-83.5625V405.33333h83.5625c21.20834,0,57.10417-23.70833,63.125-87.33333l42.45834,4C438.20833,414.44792,379,448,341.33333,448Z" style="fill:#993b17"/><path d="M290.58333,426.34375l-5.1875-20.6875c.8125-.20833,81.22917-21.41667,121.0625-101.09375l19.08334,9.54167C381.1875,402.80208,294.27083,425.42708,290.58333,426.34375Z" style="fill:#ad6143"/><path d="M298.66667,448H277.33333c0-82.34375-67-149.33333-149.33333-149.33333V277.33333C222.10417,277.33333,298.66667,353.89583,298.66667,448Z" style="fill:#993b17"/><path d="M277.33333,448H170.66667C128,448,64,405.33333,64,298.66667h64.00015A149.33318,149.33318,0,0,1,277.33333,447.99985Z" style="fill:#b7745a"/><path d="M216.08333,387.92708A106.68287,106.68287,0,0,0,128,341.33333V320a128.08345,128.08345,0,0,1,105.70833,55.88542Z" style="fill:#a34e2d"/><path d="M254.22917,448h-83.5625C133,448,73.79167,414.44792,65.08333,322l42.45834-4c6.02083,63.625,41.91666,87.33333,63.125,87.33333h83.5625Z" style="fill:#ad6143"/><circle cx="245.33333" cy="74.66667" r="10.66667" style="fill:#fee3aa"/><circle cx="288" cy="74.66667" r="10.66667" style="fill:#fdab00"/><circle cx="309.33333" cy="117.33333" r="10.66667" style="fill:#fdab00"/><circle cx="330.66667" cy="160" r="10.66667" style="fill:#fdab00"/><circle cx="330.66667" cy="245.33333" r="10.66667" style="fill:#fdab00"/><circle cx="181.33333" cy="117.33333" r="10.66667" style="fill:#fee3aa"/><circle cx="224" cy="117.33333" r="10.66667" style="fill:#fee3aa"/><circle cx="160" cy="160" r="10.66667" style="fill:#fee3aa"/><circle cx="202.66667" cy="160" r="10.66667" style="fill:#fee3aa"/><circle cx="245.33333" cy="160" r="10.66667" style="fill:#fee3aa"/><circle cx="224" cy="288" r="10.66667" style="fill:#fee3aa"/><circle cx="160" cy="245.33333" r="10.66667" style="fill:#fee3aa"/><circle cx="202.66667" cy="245.33333" r="10.66667" style="fill:#fee3aa"/><circle cx="245.33333" cy="245.33333" r="10.66667" style="fill:#fee3aa"/><circle cx="181.33333" cy="202.66667" r="10.66667" style="fill:#fee3aa"/><circle cx="224" cy="202.66667" r="10.66667" style="fill:#fee3aa"/><circle cx="266.66667" cy="202.66667" r="10.66667" style="fill:#fdcf6d"/><circle cx="266.66667" cy="288" r="10.66667" style="fill:#fdcf6d"/><circle cx="266.66667" cy="117.33333" r="10.66667" style="fill:#fdcf6d"/><circle cx="288" cy="160" r="10.66667" style="fill:#fdcf6d"/><path d="M266.66667,448C127.41667,448,64,376.11458,64,309.33333H85.33333c0,56.51042,56.75,117.33334,181.33334,117.33334Z" style="fill:#a34e2d"/><path d="M264.91667,426.52083C133.0625,404.55208,88.29167,317.78125,86.45833,314.10417l19.0625-9.57292c.41667.8125,42.29167,80.84375,162.89584,100.94792Z" style="fill:#c99884"/><path d="M309.33333,448l-.04166-21.33333c4-.02084,98-1.95834,117.52083-119.08334l21.04167,3.5C425.29167,446.4375,310.5,448,309.33333,448Z" style="fill:#8b2800"/><rect x="234.66667" y="448" width="21.33333" height="21.33333" style="fill:#ad6143"/></g></svg>