<svg xmlns="http://www.w3.org/2000/svg" viewBox="0 0 512 512"><title>Artboard 145</title><g id="Crab"><path d="M448,128V106.66667a85.33256,85.33256,0,0,0-85.33333-85.33334l42.66666,85.33334L320,64a85.33339,85.33339,0,0,0,85.33333,85.33333h21.33334V192a85.33256,85.33256,0,0,0-85.33334,85.33333l21.33334,21.33334A85.33339,85.33339,0,0,0,448,213.33333s42.66667,0,42.66667-42.66666S448,128,448,128Z" style="fill:#c82e25"/><path d="M106.66667,149.33333A85.33339,85.33339,0,0,0,192,64l-85.33333,42.66667,42.66666-85.33334A85.33256,85.33256,0,0,0,64,106.66667V128s-42.66667,0-42.66667,42.66667S64,213.33333,64,213.33333a85.33339,85.33339,0,0,0,85.33333,85.33334l21.33334-21.33334A85.33256,85.33256,0,0,0,85.33333,192V149.33333Z" style="fill:#c82e25"/><path d="M362.79167,298.79167l-18.20834-18.20834L359.66667,265.5l11.29166,11.30208a64.04776,64.04776,0,0,0,55.70834-63.46875l.125-21.08333L447.8125,192c8.04167-.09375,21.52083-2.98958,21.52083-21.33333,0-4.65625,0-18.84375-18.52083-21.125l2.625-21.16667c23.3125,2.86458,37.22917,18.67708,37.22917,42.29167,0,29.125-21.39584,42.41666-42.60417,42.66666l-.0625.0625a85.33931,85.33931,0,0,1-80.4375,85.125Z" style="fill:#af0a00"/><path d="M144.4375,298.52083A85.35355,85.35355,0,0,1,64,213.33333c-21.29167-.25-42.66667-13.54166-42.66667-42.66666C21.33333,147.0625,35.25,131.25,58.5625,128.375l2.625,21.16667c-18.52083,2.29166-18.52083,16.46875-18.52083,21.125,0,18.34375,13.4375,21.23958,21.45833,21.33333H85.33333v21.33333a64.02139,64.02139,0,0,0,60.3125,63.89584Z" style="fill:#af0a00"/><path d="M128,320a63.99984,63.99984,0,0,0-64,64s-42.66667,0-42.66667,42.66667S64,469.33333,64,469.33333V426.66667l21.33333-21.33334a63.99983,63.99983,0,0,0,64-64Z" style="fill:#c82e25"/><path d="M64,457.02083H42.66667v-39.1875L76.5,384h8.83333A42.87417,42.87417,0,0,0,127.875,344.73958l21.25,1.6875a64.28284,64.28284,0,0,1-63.79167,58.90625L64,426.66667Z" style="fill:#af0a00"/><path d="M384,320a63.99984,63.99984,0,0,1,64,64s42.66667,0,42.66667,42.66667S448,469.33333,448,469.33333V426.66667l-21.33333-21.33334a63.99983,63.99983,0,0,1-64-64Z" style="fill:#c82e25"/><path d="M469.33333,457.02083H448V426.66667l-21.33333-21.33334A64.28284,64.28284,0,0,1,362.875,346.42708l21.25-1.6875A42.87417,42.87417,0,0,0,426.66667,384H435.5l33.83333,33.83333Z" style="fill:#af0a00"/><path d="M192,405.33333,170.66667,384l-4.50391,2.2513A69.03659,69.03659,0,0,0,128,448a42.66711,42.66711,0,0,0,42.66667,42.66667c0-21.33334-21.33334-42.66667-21.33334-42.66667A42.66711,42.66711,0,0,0,192,405.33333Z" style="fill:#c82e25"/><path d="M146.75,481.10417a72.26868,72.26868,0,0,0-12.54167-18.05209l15.125-15.04166A92.53247,92.53247,0,0,1,166.125,472.20833ZM149.33333,448H139.625V426.66667h9.70833a21.36363,21.36363,0,0,0,21.14584-18.5625l21.16666,2.75A42.75744,42.75744,0,0,1,149.33333,448Z" style="fill:#af0a00"/><path d="M320,405.33333,341.33333,384l4.50391,2.2513A69.03659,69.03659,0,0,1,384,448a42.66711,42.66711,0,0,1-42.66667,42.66667c0-21.33334,21.33334-42.66667,21.33334-42.66667A42.66711,42.66711,0,0,1,320,405.33333Z" style="fill:#c82e25"/><path d="M360.3125,486.20833l-9.5-19.10416a21.34825,21.34825,0,0,0,11.625-15.92709l21.08333,3.14584A42.64359,42.64359,0,0,1,360.3125,486.20833ZM362.66667,448a42.77313,42.77313,0,0,1-42.3125-37.14583l21.16666-2.75a21.36363,21.36363,0,0,0,21.14584,18.5625Z" style="fill:#af0a00"/><path d="M106.66667,149.33333V128a63.98493,63.98493,0,0,0,62.04166-48.22917L189.375,85.04167A85.29255,85.29255,0,0,1,106.66667,149.33333Z" style="fill:#af0a00"/><rect x="53.07317" y="71.73834" width="107.58282" height="21.33582" transform="translate(-14.6331 141.13564) rotate(-63.43495)" style="fill:#af0a00"/><rect x="394.46751" y="28.61484" width="21.33582" height="107.58282" transform="translate(5.90878 189.84735) rotate(-26.56009)" style="fill:#af0a00"/><path d="M405.33333,149.33333A85.29255,85.29255,0,0,1,322.625,85.04167l20.66667-5.27084A63.98493,63.98493,0,0,0,405.33333,128Z" style="fill:#af0a00"/><path d="M143.11719,405a68.972,68.972,0,0,0-10.91276,19.74609,145.61992,145.61992,0,0,0,28.64323,21.48177,42.41755,42.41755,0,0,0,21.01692-13.58593A128.70247,128.70247,0,0,1,143.11719,405Z" style="fill:#af0a00"/><path d="M368.88281,405a128.70247,128.70247,0,0,1-38.74739,27.64193,42.41755,42.41755,0,0,0,21.01692,13.58593,145.61992,145.61992,0,0,0,28.64323-21.48177A68.972,68.972,0,0,0,368.88281,405Z" style="fill:#af0a00"/><path d="M402.70443,288.25781a85.24532,85.24532,0,0,0,18.36979-12.99088c-8.52474-25.07683-26.74089-45.32422-53.20964-59.543a85.33633,85.33633,0,0,0-13.71875,17.14323C379.6901,245.76693,396.543,264.62891,402.70443,288.25781Z" style="fill:#af0a00"/><path d="M90.92578,275.26693a85.24532,85.24532,0,0,0,18.36979,12.99088c6.16146-23.6289,23.01433-42.49088,48.5586-55.39062A85.33633,85.33633,0,0,0,144.13542,215.724C117.66667,229.94271,99.45052,250.1901,90.92578,275.26693Z" style="fill:#af0a00"/><path d="M129.431,387.543a139.659,139.659,0,0,1-22.03776-63.849A63.39331,63.39331,0,0,0,87.3125,334.97656,160.33436,160.33436,0,0,0,111.41536,399.668,63.96856,63.96856,0,0,0,129.431,387.543Z" style="fill:#af0a00"/><path d="M424.6875,334.97656A63.39331,63.39331,0,0,0,404.60677,323.694,139.659,139.659,0,0,1,382.569,387.543a63.96856,63.96856,0,0,0,18.01563,12.125A160.33436,160.33436,0,0,0,424.6875,334.97656Z" style="fill:#af0a00"/><path d="M405.33333,309.33333C405.33333,374.13474,362.66667,448,256,448S106.66667,374.13474,106.66667,309.33333s66.85881-96,149.33333-96S405.33333,244.53192,405.33333,309.33333Z" style="fill:#c82e25"/><ellipse cx="192" cy="298.66667" rx="53.95772" ry="26.97886" transform="translate(-154.95373 223.24194) rotate(-45)" style="fill:#d96c66"/><ellipse cx="160" cy="373.33333" rx="13.48943" ry="6.74471" transform="translate(-217.12362 222.48389) rotate(-45)" style="fill:#d96c66"/><path d="M256,448V405.33333c78.64583,0,106.66667-49.59375,106.66667-96C362.66667,269.96875,305.20833,256,256,256V213.33333c92.10417,0,149.33333,36.78125,149.33333,96C405.33333,378.35417,359.16667,448,256,448Z" style="fill:#c11107"/><circle cx="181.33333" cy="245.33333" r="32" style="fill:#2b1718"/><circle cx="202.66667" cy="224" r="10.66667" style="fill:#afa8a8"/><circle cx="330.66667" cy="245.33333" r="32" style="fill:#2b1718"/><circle cx="352" cy="224" r="10.66667" style="fill:#afa8a8"/><circle cx="277.33333" cy="405.33333" r="21.33333" style="fill:#c11107"/><circle cx="352" cy="352" r="32" style="fill:#c11107"/><circle cx="181.33333" cy="394.66667" r="10.66667" style="fill:#c11107"/><circle cx="288" cy="288" r="10.66667" style="fill:#c11107"/><circle cx="266.66667" cy="309.33333" r="10.66667" style="fill:#c11107"/><circle cx="224" cy="373.33333" r="10.66667" style="fill:#c11107"/><path d="M107.875,239.39583A27.22628,27.22628,0,0,0,85.20833,224l.125-21.33333c1.14584,0,28.3125.3125,41.66667,27.27083Z" style="fill:#d96c66"/><path d="M393.5625,239.39583l-19.125-9.45833c13.35417-26.95833,40.52083-27.27083,41.66667-27.27083L416.22917,224A27.22628,27.22628,0,0,0,393.5625,239.39583Z" style="fill:#d96c66"/><rect x="64" y="149.33333" width="21.33333" height="42.66667" style="fill:#d2514a"/><rect x="426.66667" y="149.33333" width="21.33333" height="42.66667" style="fill:#d2514a"/><path d="M85.33333,373.45833,64,373.33333c0-12.86458,8.52083-32,32-32v21.33334C87.41667,362.66667,85.45833,368.53125,85.33333,373.45833Z" style="fill:#d2514a"/><path d="M426.66667,373.45833c-.125-4.92708-2.08334-10.79166-10.66667-10.79166V341.33333c23.47917,0,32,19.13542,32,32H437.33333Z" style="fill:#d2514a"/></g></svg>