<svg xmlns="http://www.w3.org/2000/svg" viewBox="0 0 512 512"><title>Artboard 1</title><g id="Croisan"><path d="M114.95257,490.66667h3.19006a31.19071,31.19071,0,0,0,31.1907-31.19071v0a30.72951,30.72951,0,0,0-6.42756-18.934C136.62414,432.46131,128,418.89732,128,405.33333c0-42.66666,21.33333-64,21.33333-64l-106.66666-64s-21.33334,21.33334-21.33334,85.33334c0,69.3965,56.436,110.575,77.516,123.53546A30.5487,30.5487,0,0,0,114.95257,490.66667Z" style="fill:#e76400"/><path d="M490.66667,114.95257v3.19006a31.19071,31.19071,0,0,1-31.19071,31.1907h0a30.72951,30.72951,0,0,1-18.934-6.42756C432.46131,136.62414,418.89732,128,405.33333,128c-42.66666,0-64,21.33333-64,21.33333l-64-106.66666s21.33334-21.33334,85.33334-21.33334c69.3965,0,110.575,56.436,123.53546,77.516A30.5487,30.5487,0,0,1,490.66667,114.95257Z" style="fill:#e76400"/><path d="M459.47917,149.33333a30.54382,30.54382,0,0,1-18.98959-6.46875C433.38542,137.33333,419.29167,128,405.33333,128c-17.63541,0-33.66666,3.51042-47.65625,10.44792l-18.94791-38.22917c19.9375-9.875,42.34375-14.88542,66.60416-14.88542a78.52866,78.52866,0,0,1,15.46875,1.57292C406.08333,74.41667,386.625,64,362.66667,64V21.33333c68.48958,0,109.19791,54.20834,123.53125,77.51042a30.66332,30.66332,0,0,1,4.46875,16.10417v3.19791A31.22145,31.22145,0,0,1,459.47917,149.33333Zm-9.63542-28.14583a.14391.14391,0,0,0,.03125.04167A.14391.14391,0,0,1,449.84375,121.1875Zm16.83333-12.01042a.18285.18285,0,0,0,.05209.04167A.18285.18285,0,0,1,466.67708,109.17708Z" style="fill:#ef7f00"/><path d="M21.33333,277.33333c0-42.66666,42.66667-106.66666,64-106.66666,42.66667,0,128,85.33333,128,106.66666s-42.66666,85.33334-64,85.33334S21.33333,325.03612,21.33333,277.33333Z" style="fill:#e76400"/><path d="M149.33337,362.66663c10.16809,0,25.18091-14.54163,38.112-32.07038a223.38031,223.38031,0,0,0,15.74451-24.77093c4.74445-8.83625,8.2005-17.10846,9.53345-23.42536l-41.83789-7.82708c-1.91669,8.02087-18.76044,34.125-28.41669,44.14587C117.48962,312.6875,68.72919,288.02081,64,277.33331H21.33337C21.33337,325.03607,128,362.66663,149.33337,362.66663Z" style="fill:#ef7f00"/><path d="M277.33333,21.33333c-42.66666,0-106.66666,42.66667-106.66666,64,0,42.66667,85.33333,128,106.66666,128s85.33334-42.66666,85.33334-64S325.03612,21.33333,277.33333,21.33333Z" style="fill:#cc4900"/><path d="M318.67706,142.29169c-10.16662,9.76037-35.55206,26.5625-44.14581,28.5625l7.96619,41.84845c24.95086-5.33423,80.16925-43.55237,80.16925-63.36933,0-21.33331-37.63056-128-85.33338-128l-1.82287,42.40625C287.8125,68.6875,312.55206,117.26044,318.67706,142.29169Z" style="fill:#ef7f00"/><path d="M298.66667,298.66667c-42.66667,42.66666-64,42.66666-85.33334,42.66666s-192-127.96875-192-170.651S128,21.33333,192.89105,21.33333c41.77562,0,148.44228,170.66667,148.44228,213.33334C341.33333,256,298.66667,298.66667,298.66667,298.66667Z" style="fill:#cc4900"/><path d="M108.26042,178.625l-35.5625-23.58333c19.40625-29.26042,69.5-74.69792,102.59375-87.23959l15.125,39.89584C168.48958,116,124.72917,153.78125,108.26042,178.625Z" style="fill:#e76400"/><path d="M215.30208,341.33333l-.10416-42.66666c13.45833-.03125,23.1875-.05209,53.29166-30.15625,14.66667-14.70834,26.17709-30.40625,29.875-36.96875-5.61458-32.53125-87.13541-157-111.28125-168.4375l9.94792-41.36459c41.25,8.15625,144.30208,169.33334,144.30208,212.92709l-.17708,2.78125c-2.79167,21.21875-42.08333,60.8125-42.47917,61.20833C259.22917,338.10417,238.41667,341.28125,215.30208,341.33333Zm84.09375-111.86458Z" style="fill:#e76400"/><circle cx="202.66667" cy="160" r="10.66667" style="fill:#fdab00"/><circle cx="160" cy="245.33333" r="10.66667" style="fill:#fdab00"/><circle cx="245.33333" cy="245.33333" r="10.66667" style="fill:#fdab00"/><circle cx="53.33333" cy="394.66667" r="10.66667" style="fill:#fdbc34"/><circle cx="96" cy="458.66667" r="10.66667" style="fill:#ef7f00"/><circle cx="288" cy="74.66667" r="10.66667" style="fill:#ef7f00"/><circle cx="266.66667" cy="53.33333" r="10.66667" style="fill:#ef7f00"/><circle cx="352" cy="53.33333" r="10.66667" style="fill:#fdbc34"/><circle cx="53.33333" cy="266.66667" r="10.66667" style="fill:#ef7f00"/><circle cx="117.33333" cy="309.33333" r="10.66667" style="fill:#ef7f00"/><circle cx="117.33333" cy="160" r="10.66667" style="fill:#fdcf6d"/><circle cx="138.66667" cy="96" r="10.66667" style="fill:#fdcf6d"/><circle cx="74.66667" cy="160" r="10.66667" style="fill:#fdcf6d"/><path d="M149.30682,460.52679c.0116-.3496.02655-.69842.02655-1.05084v-.00006a30.72962,30.72962,0,0,0-6.42761-18.934C136.62415,432.4613,128,418.89728,128,405.33331c0-21.58685,5.46063-37.70324,10.85657-48.36841l-38.63782-18.23577c-9.875,19.9375-14.88538,42.34375-14.88538,66.60418,0,25.32294,12.95832,47.32294,23.875,61.38544l.84766,1.29034L98.8125,486.16663a30.27626,30.27626,0,0,0,13.77185,4.40741c.06934.00506.1377.01574.207.02038.66455.0445,1.33368.064,2.00519.06714.05218.00024.10376.00507.156.00507h3.19006c.35919,0,.71478-.01508,1.071-.0271A31.21434,31.21434,0,0,0,149.30682,460.52679Z" style="fill:#ef7f00"/></g></svg>