<svg xmlns="http://www.w3.org/2000/svg" viewBox="0 0 512 512"><title>Artboard 132</title><g id="Cucumber"><path d="M52.26134,459.7387l.00006,0a105.5945,105.5945,0,0,0,149.33318,0l59.59093-70.32754a1100.88418,1100.88418,0,0,1,128.2257-128.2257l70.32754-59.59093a105.5945,105.5945,0,0,0,0-149.33318l0-.00006A101.50848,101.50848,0,0,0,335.56559,37.09816L310.40526,52.26135A758.54653,758.54653,0,0,0,52.26135,310.40526L37.09816,335.56559A101.50848,101.50848,0,0,0,52.26134,459.7387Z" style="fill:#fdab00"/><path d="M73.63542,357.58333,55.36458,346.5625l15.16667-25.14583A739.867,739.867,0,0,1,321.41667,70.53125l25.15625-15.16667a80.18582,80.18582,0,0,1,41.35416-11.5V65.19792a58.81349,58.81349,0,0,0-30.34375,8.4375L332.4375,88.80208A718.32077,718.32077,0,0,0,88.80208,332.4375Z" style="fill:#fdbc34"/><path d="M126.92708,490.66667a104.87048,104.87048,0,0,1-74.66666-30.92709l30.16666-30.16666A62.51323,62.51323,0,0,0,126.92708,448c16.55209,0,32.35417-6.26042,43.34375-17.1875l58.375-68.98958a1147.02663,1147.02663,0,0,1,133.17709-133.1875L430.875,170.21875c23.22917-23.33333,23.22917-63.25-1.30208-87.79167l30.16666-30.16666a105.70375,105.70375,0,0,1,0,149.33333l-70.34375,59.60417A1103.80472,1103.80472,0,0,0,261.19792,389.40625l-59.61459,70.33333A105.2035,105.2035,0,0,1,126.92708,490.66667Z" style="fill:#f59707"/><path d="M124.875,487.54167l-15.08333-15.08334L259.125,323.125C372.0625,210.1875,428.78125,141.0625,448.79167,91.96875l19.75,8.0625c-21.14584,51.875-79.26042,123.11458-194.33334,238.17708Z" style="fill:#ef7f00"/><path d="M104.89583,467.73958l-19.30208-9.08333c.92708-2,24.10417-50.10417,130.86458-156.86458,40.98959-40.98959,78.13542-73.58334,110.90625-102.33334,50.86459-44.61458,87.60417-76.85416,100.09375-107.48958l19.75,8.0625c-14.38541,35.29167-52.71875,68.91667-105.77083,115.45833C308.90625,244.03125,272.04167,276.375,231.54167,316.875,128.26042,420.15625,105.11458,467.27083,104.89583,467.73958Z" style="fill:#fdbc34"/><path d="M83.54167,464.58333,65.79167,452.75c12.51041-18.77083,23.17708-39.48958,34.46875-61.42708C126.38542,340.55208,156,283,217.60417,236.80208c34.25-25.69791,46.39583-47.03125,59.23958-69.61458,17.80208-31.29167,36.19792-63.63542,113.05208-102.0625l9.54167,19.08333c-71.05208,35.52084-87.08333,63.69792-104.05208,93.52084-13.36459,23.48958-27.17709,47.78125-64.98959,76.13541-57.66666,43.26042-84.86458,96.10417-111.16666,147.21875C107.65625,423.57292,96.72917,444.8125,83.54167,464.58333Z" style="fill:#ef7f00"/><path d="M83.54167,464.58333,65.79167,452.75c14.38541-21.57292,23.78125-45.90625,33.72916-71.65625,18.30209-47.34375,39.03125-101.01042,96.75-144.29167,30.67709-23.01041,46.5625-48.46875,63.39584-75.41666,27.82291-44.5625,56.59375-90.64584,153.40625-118.3125l5.85416,20.52083C330.01042,88.98958,304.63542,129.64583,277.76042,172.6875c-17.125,27.42708-34.83334,55.78125-68.69792,81.17708-52.8125,39.61459-71.53125,88.0625-89.63542,134.91667C109.04167,415.66667,99.22917,441.05208,83.54167,464.58333Z" style="fill:#f59707"/><path d="M125.90625,276.95833l-17.16667-12.6875a743.136,743.136,0,0,1,115.71875-123.9375l13.83334,16.25A720.70279,720.70279,0,0,0,125.90625,276.95833Z" style="fill:#fdcf6d"/></g></svg>