<svg xmlns="http://www.w3.org/2000/svg" viewBox="0 0 512 512"><title>Artboard 157</title><g id="Donut"><path d="M490.66667,244.77193C490.66667,133.15186,385.60286,42.66667,256,42.66667S21.33333,133.15186,21.33333,244.77193v22.45614c0,111.6187,105.06381,202.10526,234.66667,202.10526s234.66667-90.48656,234.66667-202.10526ZM256,312.14035c-44.74089,0-82.91667-23.24973-98.75521-56.14035C173.08333,223.108,211.25911,199.85965,256,199.85965S338.91667,223.108,354.75521,256C338.91667,288.89062,300.74089,312.14035,256,312.14035Z" style="fill:#fdbc34"/><path d="M256,469.33333c-129.39583,0-234.66667-90.66666-234.66667-202.10416V244.77083H64v22.45834c0,87.91666,86.125,159.4375,192,159.4375s192-71.52084,192-159.4375V244.77083h42.66667v22.45834C490.66667,378.66667,385.39583,469.33333,256,469.33333Z" style="fill:#f59707"/><path d="M469.33333,170.66667C448,149.33333,469.33333,128,448,106.66667c-15.21094-15.21094-41.8099-11.59375-64-21.33334C378.05729,81.29036,365.55078,66.88411,362.66667,64,341.33333,42.66667,256,42.66667,256,42.66667H213.33333C170.66667,42.66667,149.33333,64,128,64S85.33333,85.33333,85.33333,85.33333,64,106.66667,64.45182,128c0,0-.45182,21.33333-21.78515,42.66667s-21.33334,42.66666-21.33334,42.66666,0,21.33334,21.33334,42.66667a30.4,30.4,0,0,1,8.2513,13.91536c.27864.77865.47135,1.59636.76172,2.36849,2.806,15.905-9.013,31.8112-9.013,47.71615C42.66667,341.33333,64,341.33333,64,341.33333c21.33333,0,21.33333,21.33334,21.33333,21.33334C85.33333,384,106.66667,384,106.66667,384,128,384,128,405.33333,128,405.33333c0,21.33334,21.33333,21.33334,21.33333,21.33334s21.33334,0,21.33334-21.33334S192,384,192,384c21.33333,0,21.33333,21.33333,21.33333,21.33333S213.33333,448,256,448s42.66667-42.66667,42.66667-42.66667C298.66667,384,320,384,320,384s21.33333,0,21.33333,21.33333,21.33334,21.33334,21.33334,21.33334C384,426.66667,384,405.33333,384,405.33333V384c0-21.33333,21.33333-21.33333,21.33333-21.33333s21.33334,0,21.33334-21.33334S448,320,448,320c21.33333,0,21.33333-21.33333,21.33333-21.33333,0-20.56771,21.33334-21.33334,21.33334-64C490.66667,213.33333,490.66667,192,469.33333,170.66667Zm-106.66666,32c0,41.23724-47.75651,74.66666-106.66667,74.66666s-106.66667-33.42942-106.66667-74.66666S197.08984,128,256,128,362.66667,161.42942,362.66667,202.66667Z" style="fill:#993b17"/><path d="M256,341.33333c-95.70833,0-170.66667-60.91666-170.66667-138.66666a117.39278,117.39278,0,0,1,1.04167-15.625L107.5,189.875a96.29355,96.29355,0,0,0-.83333,12.79167C106.66667,268.45833,172.27083,320,256,320s149.33333-51.54167,149.33333-117.33333h21.33334C426.66667,280.41667,351.70833,341.33333,256,341.33333Z" style="fill:#ad6143"/><path d="M256,341.33333c-42,0-82.08333-12-112.85417-33.8125l12.33334-17.41666C182.6875,309.375,218.375,320,256,320c34.5625,0,66.77083-8.64583,93.14583-25l11.25,18.125C330.625,331.58333,294.52083,341.33333,256,341.33333Z" style="fill:#c28a73"/><path d="M419.54167,138.125c-2.33334-1.08333-11.54167-2.77083-15-3.39583-11.45834-2.08334-24.1875-4.39584-37.70834-10.33334l-6.8125-3.77083c-7.91666-5.375-15.75-13.64583-25.16666-23.875l-1.25-1.41667c-6.95834-3.70833-39.6875-9.95833-77.625-10H213.33333c-16.54166,0-27.85416,4.70834-40.97916,10.14584-12.6875,5.25-27.04167,11.1875-44.35417,11.1875a60.20222,60.20222,0,0,0-12.45833,8.79166c-4.54167,4.6875-8.14584,11.58334-8.4375,13.5625l-21.3125-.33333c0-9.70833,8.77083-22.25,14.66666-28.3125C105.64583,95.33333,118.875,85.33333,128,85.33333c13.08333,0,24.29167-4.64583,36.16667-9.5625C178.125,69.97917,192.54167,64,213.33333,64H256c28.8125.04167,77.625,4.6875,90.95833,14.58333l3.72917,3.85417C358.75,91.1875,366,98.89583,372,102.97917l3.4375,1.89583c11.20833,4.91667,22.60417,7,32.66667,8.8125,15.1875,2.77083,21.14583,4.39583,24.8125,8.0625l-7.54167,7.54167Z" style="fill:#ad6143"/><path d="M366.8125,124.375l-6.79167-3.75c-7.91666-5.375-15.75-13.64583-25.16666-23.875l-1.25-1.41667c-6.95834-3.70833-39.66667-9.95833-77.625-10H213.33333V64H256c28.79167.04167,77.625,4.6875,90.95833,14.58333l3.72917,3.85417C358.75,91.1875,366,98.89583,372,102.97917l3.4375,1.89583Z" style="fill:#c28a73"/><path d="M256,448c-29.125,0-42.41667-21.39583-42.66667-42.60417,0-.33333-.25-21.39583-21.33333-21.39583-.20833,0-21.33333.25-21.33333,21.33333,0,12.625-8.3125,21-21.1875,21.33334C136.41667,426.33333,128,417.75,128,405.33333,128,405.125,127.75,384,106.66667,384c-13.0625-.33333-21.33334-8.70833-21.33334-21.33333,0-.20834-.25-21.33334-21.33333-21.33334C50.9375,341,42.66667,332.625,42.66667,320c0-7.1875,2.41666-14.39583,4.72916-21.35417,2.89584-8.6875,5.83334-17.60416,4.29167-26.35416l-.5-1.54167A31.68679,31.68679,0,0,0,42.66667,256c-20.125-20.125-21.27084-40.25-21.33334-42.47917.16667-4.39583,1.89584-23.41666,21.33334-42.85416C63.58333,149.75,64.4375,128.875,64.45833,127.97917l21.33334.45833c-.0625,3.0625-1.375,30.64583-28.04167,57.3125-14.29167,14.29167-15.08333,27.75-15.08333,27.875h0c.02083,0,.83333,13.04167,15.08333,27.29167a52.621,52.621,0,0,1,14,24.10416l.70833,2.52084c2.70834,15.10416-1.4375,27.64583-4.77083,37.70833C65.85417,310.75,64,316.27083,64,320c27.70833,0,42.66667,21.97917,42.66667,42.66667,27.70833,0,42.66666,21.97916,42.66666,42.66666,0-27.70833,21.97917-42.66666,42.66667-42.66666,27.70833,0,42.66667,21.95833,42.66667,42.60416C234.75,413.1875,237.64583,426.66667,256,426.66667c18.33333,0,21.22917-13.4375,21.33333-21.45834,0-27.58333,21.97917-42.54166,42.66667-42.54166s42.66667,14.95833,42.66667,42.66666V384c0-27.70833,21.91666-42.66667,42.54166-42.66667.125-27.70833,22.10417-42.66666,42.79167-42.66666,0-15.10417,6.72917-24.72917,11.625-31.72917,5.22917-7.45833,9.70833-13.83333,9.70833-32.27083,0-19.64584,0-33.83334-15.08333-48.91667-16.91667-16.91667-16.91667-35.0625-16.91667-47.08333,0-9.70834-.1875-12.6875-4.41666-16.91667L448,106.66667c10.66667,10.66666,10.66667,21.52083,10.66667,32,0,10.97916,0,21.33333,10.66666,32,21.33334,21.33333,21.33334,43.02083,21.33334,64,0,25.16666-7.5,35.85416-13.52084,44.4375-4.20833,6.02083-7.8125,11.16666-7.8125,19.5625C469,311.72917,460.625,320,448,320c-.20833,0-21.33333.25-21.33333,21.33333,0,12.625-8.3125,21-21.1875,21.33334C405,362.66667,384,362.91667,384,384v21.33333c-.33333,13.0625-8.70833,21.33334-21.33333,21.33334-13.0625-.33334-21.33334-8.70834-21.33334-21.33334C341.33333,384.25,320.20833,384,320,384s-21.33333.25-21.33333,21.33333C298.41667,426.625,285.125,448,256,448Z" style="fill:#8b2800"/><circle cx="128" cy="320" r="21.33333" style="fill:#7d1a00"/><circle cx="170.66667" cy="106.66667" r="21.33333" style="fill:#7d1a00"/><circle cx="85.33333" cy="192" r="21.33333" style="fill:#7d1a00"/><circle cx="426.66667" cy="277.33333" r="21.33333" style="fill:#7d1a00"/><circle cx="320" cy="341.33333" r="21.33333" style="fill:#7d1a00"/><circle cx="213.33333" cy="320" r="21.33333" style="fill:#7d1a00"/><circle cx="256" cy="64" r="21.33333" style="fill:#7d1a00"/><circle cx="362.66667" cy="85.33333" r="21.33333" style="fill:#7d1a00"/><circle cx="426.66667" cy="170.66667" r="21.33333" style="fill:#7d1a00"/><path d="M256,298.66667c-70.58333,0-128-43.0625-128-96h21.33333c0,41.16666,47.85417,74.66666,106.66667,74.66666s106.66667-33.5,106.66667-74.66666H384C384,255.60417,326.58333,298.66667,256,298.66667Z" style="fill:#8b2800"/><path d="M362.66667,202.66667H320c0-12.75-25.52083-32-64-32s-64,19.25-64,32H149.33333C149.33333,161.5,197.1875,128,256,128S362.66667,161.5,362.66667,202.66667Z" style="fill:#f59707"/></g></svg>