<svg xmlns="http://www.w3.org/2000/svg" viewBox="0 0 512 512"><title>Artboard 131</title><g id="Eggplant"><path d="M234.66667,490.66667c-64,0-128-64-128-170.66667C106.66667,192,192,85.33333,256,85.33333q64,0,64,64C320,192,298.66667,213.33333,298.66667,256c0,64,42.66666,64,42.66666,128C341.33333,469.33333,277.33333,490.66667,234.66667,490.66667Z" style="fill:#c11107"/><path d="M298.66667,362.66667c0-64-42.66667-64-42.66667-128C256,192,277.33333,170.66667,277.33333,128c0-17.77734-3.92578-31.62891-11.33333-42-3.25911-.29557-6.444-.66667-10-.66667C192,85.33333,106.66667,192,106.66667,320c0,57.02244,18.32052,101.776,45.133,131.12811,10.20817,11.17507,24.82563,18.16705,39.96127,18.20492q.11953.0003.23906.0003C234.66667,469.33333,298.66667,448,298.66667,362.66667Z" style="fill:#cd3e36"/><path d="M150.72917,389.28125c-8-20.61458-12.0625-43.92708-12.0625-69.28125a262.41821,262.41821,0,0,1,6.01041-55.85417l41.6875,9.08334A219.56252,219.56252,0,0,0,181.33333,320c0,20.05208,3.08334,38.16667,9.16667,53.84375Z" style="fill:#de807a"/><path d="M234.66667,234.66667H213.33333v-44.8125c-16.48958-3.5-30.3125-11.25-41.19791-23.09375l15.70833-14.4375c9.32292,10.14583,21.875,16.15625,37.32292,17.84375l9.5,1.04166v42.125c.6875-.01041,17.47916-.32291,36.04166-15.36458l13.4375,16.58333C260,234.10417,237.1875,234.66667,234.66667,234.66667Z" style="fill:#c11107"/><path d="M170.66667,106.66667s0,64,64,64v42.66666S256,213.33333,277.33333,192c0,0,21.33334,21.33333,42.66667,21.33333,0,0,21.33333-42.66666,21.33333-85.33333s-21.33333-64-64-64S192,85.33333,170.66667,106.66667Z" style="fill:#fdab00"/><path d="M234.66667,215.34375V170.66667c-42.70834,0-60.90625-30.28125-63.69792-58.61459l21.22917-2.08333c1.44791,14.69792,8.88541,39.36458,42.46875,39.36458H256v33.08334a64.08337,64.08337,0,0,0,6.25-5.5l15.0625-15L292.38542,176.875a72.22,72.22,0,0,0,15.16666,11.09375C312.94792,173.52083,320,150.36458,320,128c0-31.10417-11.5625-42.66667-42.66667-42.66667V64c43.0625,0,64,20.9375,64,64,0,31.20833-11.29166,62.27083-18.01041,78.01042l-3.58334,8.35416-8.82291-2.20833c-17.51042-4.38542-32.90625-19.48958-33.5625-20.125L277.33333,192l-.01041.02083a76.77449,76.77449,0,0,1-28.47917,18.38542Z" style="fill:#f59707"/><path d="M341.33333,128H320c0-26.78125-9.375-34.54167-17.54167-38.3125l8.9375-19.375C331.54167,79.61458,341.33333,98.48958,341.33333,128Z" style="fill:#ef7f00"/><path d="M298.66667,85.33333S298.66667,64,320,42.66667s42.66667-21.33334,42.66667-21.33334S384,21.33333,384,42.66667,362.66667,64,362.66667,64,320,64,320,85.33333Z" style="fill:#fdab00"/><path d="M321.35417,79.02083c.099-.20442.28645-.23958.39843-.41927,7.82683-14.41536,40.13021-14.59765,40.78386-14.599l-.00521-21.33593c-11.043,0-47.875,1.96354-60.19922,26.79687-3.53125,9.332-3.66536,15.86979-3.66536,15.86979H320a13.69951,13.69951,0,0,1,1.62109-6.22786Z" style="fill:#f59707"/><path d="M208.58333,126.20833l-11.83333-17.75c1.41667-.94791,35.20833-23.125,80.58333-23.125v21.33334C238.34375,106.66667,208.875,126.01042,208.58333,126.20833Z" style="fill:#fdcf6d"/></g></svg>