<svg xmlns="http://www.w3.org/2000/svg" viewBox="0 0 512 512"><title>Artboard 119</title><g id="Fish_Meat" data-name="Fish Meat"><path d="M490.66667,213.33333c0-82.47526-85.33334-170.66666-234.66667-170.66666-170.66667,0-234.66667,109.52474-234.66667,192v64c0,82.474,83.73047,170.66666,213.33334,170.66666,170.66666,0,256-109.526,256-192ZM324.41667,224c13.1289-6.55859,30.10807-10.66667,48.91666-10.66667S409.12109,217.44141,422.25,224c-13.12891,6.55859-30.10807,10.66667-48.91667,10.66667S337.54557,230.55859,324.41667,224Z" style="fill:#3b292a"/><path d="M324.41667,224c13.1289-6.55859,30.10807-10.66667,48.91666-10.66667S409.12109,217.44141,422.25,224c-13.12891,6.55859-30.10807,10.66667-48.91667,10.66667H490.66667V213.33333c0-82.47526-85.33334-170.66666-234.66667-170.66666-170.66667,0-234.66667,109.52474-234.66667,192h352C354.52474,234.66667,337.54557,230.55859,324.41667,224Z" style="fill:#7d1a00"/><path d="M256,42.66667c-170.66667,0-234.66667,109.52474-234.66667,192,0,82.474,83.73047,170.66666,213.33334,170.66666,170.66666,0,256-109.526,256-192C490.66667,130.85807,405.33333,42.66667,256,42.66667Zm117.33333,192c-41.23779,0-74.66666-19.10287-74.66666-42.66667,0-23.5651,33.42887-42.66667,74.66666-42.66667S448,168.4349,448,192C448,215.5638,414.57113,234.66667,373.33333,234.66667Z" style="fill:#cd3e36"/><path d="M42.66667,213.33333H32V192H42.66667c3.79166-.4375,17.1875-8.29167,25.1875-12.97917,22.64583-13.25,50.72916-29.6875,81.47916-29.6875,23.97917,0,46.95834,5.75,69.16667,11.3125,20.75,5.17709,40.1875,10.02084,58.83333,10.02084H288V192H277.33333c-21.27083,0-41.9375-5.15625-63.8125-10.61458-21.16666-5.29167-42.83333-10.71875-64.1875-10.71875-24.95833,0-50.27083,14.8125-70.60416,26.71875C61.8125,207.29167,51.08333,213.33333,42.66667,213.33333Z" style="fill:#c82e25"/><path d="M64,234.66667H42.66667C42.66667,99.66667,182.20833,64,256,64V85.33333C189.58333,85.33333,64,116.54167,64,234.66667Z" style="fill:#d96c66"/><path d="M234.66667,405.33333c-127.60417,0-213.33334-88.25-213.33334-170.66666H42.66667c0,72.11458,77.14583,149.33333,192,149.33333C394.75,384,469.33333,282.15625,469.33333,213.33333h21.33334C490.66667,290.76042,409.3125,405.33333,234.66667,405.33333Z" style="fill:#7d1a00"/><path d="M147.83333,362.5625c-80.60416-11.51042-103.8125-89.64583-104.75-92.96875l20.5-5.88542c.8125,2.78125,20.5625,68.20834,87.25,77.72917Z" style="fill:#ecb8b5"/><path d="M106.66667,224.02083,85.33333,224c0-1.13542,1.29167-114.40625,113.375-159.23958l7.91667,19.8125C108.22917,123.92708,106.6875,219.95833,106.66667,224.02083Z" style="fill:#ecb8b5"/><path d="M298.66667,384c-157.33334,0-170.52084-136.40625-170.625-137.78125l21.25-1.79167c.4375,4.82292,12,118.23959,149.375,118.23959Z" style="fill:#ecb8b5"/><path d="M172.6875,338.27083c-39.85417-39.55208-44.47917-89.92708-44.64583-92.05208l21.25-1.80208c.04166.44791,4.33333,44.86458,38.4375,78.70833Z" style="fill:#d96c66"/><path d="M384,298.66667c-114.75,0-127.79167-93.72917-127.91667-94.67709l21.16667-2.6875c.41667,3.10417,11.22917,76.03125,106.75,76.03125Z" style="fill:#ecb8b5"/><path d="M301.16667,275.40625c-39.1875-27.67708-44.85417-69.64583-45.08334-71.41667l21.16667-2.6875c.04167.34375,4.9375,34.59375,36.20833,56.6875Z" style="fill:#d96c66"/><path d="M341.33333,341.33333c-124.64583,0-148.89583-114.09375-149.125-115.23958l20.91667-4.20833c.8125,4,21.33333,98.11458,128.20833,98.11458Z" style="fill:#ecb8b5"/><path d="M234.20833,300.57292c-33.33333-32.61459-41.66666-72.79167-42-74.47917l20.91667-4.20833c.0625.35416,7.54167,35.58333,36,63.4375Z" style="fill:#d96c66"/><path d="M191.95833,203.55208l-21.25-1.77083C170.8125,200.40625,184,64,341.33333,64V85.33333C203.39583,85.33333,192.375,198.72917,191.95833,203.55208Z" style="fill:#ecb8b5"/><path d="M255.66667,205.28125l-20.6875-5.19792c.25-.9375,24.4375-93.41666,117.02083-93.41666,66.5,0,90.375,21.95833,92.875,24.45833l-15.08333,15.08333C429.72917,146.15625,409.60417,128,352,128,276.25,128,256.47917,202.125,255.66667,205.28125Z" style="fill:#ecb8b5"/><path d="M149.33333,277.33333c-24.83333,0-43.5625-6.25-60.08333-11.77083C73.83333,260.42708,60.52083,256,42.66667,256H32V234.66667H42.66667c21.33333,0,37.58333,5.41666,53.3125,10.65625C112.4375,250.8125,127.97917,256,149.33333,256c21.33334,0,43.02084-10.84375,64-21.33333,21.9375-10.96875,42.66667-21.33334,64-21.33334H288v21.33334H277.33333c-16.29166,0-34.83333,9.27083-54.45833,19.08333C199.6875,265.34375,175.70833,277.33333,149.33333,277.33333Z" style="fill:#d96c66"/><path d="M42.66667,213.33333c21.33333,0,64-42.66666,106.66666-42.66666S234.66667,192,277.33333,192v21.33333C234.66667,213.33333,192,256,149.33333,256s-64-21.33333-106.66666-21.33333Z" style="fill:#ecb8b5"/><path d="M149.33333,256C128,256,111.75,250.58333,96.02083,245.34375c-13.875-4.625-26.95833-8.98958-43.52083-10.29167l1.66667-21.27083c19.1875,1.51042,34.125,6.5,48.58333,11.32292,15.41667,5.13541,28.72917,9.5625,46.58333,9.5625,16.29167,0,34.83334-9.27084,54.45834-19.08334,19.5-9.75,39.66666-19.83333,61.45833-22.76041l2.83333,21.14583c-18.25,2.44792-36.8125,11.72917-54.75,20.69792C191.39583,245.63542,170.66667,256,149.33333,256Z" style="fill:#e59b96"/><path d="M469.33333,192H448c0-23.53125-33.5-42.66667-74.66667-42.66667S298.66667,168.46875,298.66667,192H277.33333c0-36.48958,41.27084-64,96-64S469.33333,155.51042,469.33333,192Z" style="fill:#c11107"/></g></svg>