<svg xmlns="http://www.w3.org/2000/svg" viewBox="0 0 512 512"><title>Artboard 112</title><g id="French_Fries" data-name="French Fries"><polygon points="42.667 234.667 42.667 106.667 128 106.667 128 128 170.667 128 170.667 85.333 384 85.333 384 64 469.333 64 469.333 234.667 42.667 234.667" style="fill:#cc4900"/><rect x="277.33333" y="21.33333" width="85.33333" height="320" style="fill:#e76400"/><rect x="298.66667" y="42.66667" width="21.33333" height="320" style="fill:#cc4900"/><rect x="64" y="64" width="85.33333" height="298.66667" style="fill:#f59707"/><rect x="85.33333" y="85.33333" width="21.33333" height="298.66667" style="fill:#fdab00"/><rect x="85.33333" y="128" width="21.33333" height="106.66667" style="fill:#fdbc34"/><polygon points="64 161.833 64 234.667 149.333 234.667 149.333 149.333 76.5 149.333 64 161.833" style="fill:#ef7f00"/><rect x="298.66667" y="64" width="85.33333" height="320" transform="translate(258.36614 -175.75103) rotate(45)" style="fill:#f59707"/><rect x="334.32689" y="149.33447" width="120.67956" height="21.33105" transform="translate(2.45811 325.93439) rotate(-45)" style="fill:#fdbc34"/><polygon points="298.667 327.007 320 305.673 320 184.993 298.667 206.327 298.667 327.007" style="fill:#ef7f00"/><rect x="213.33333" y="42.66667" width="85.33333" height="320" style="fill:#fdab00"/><rect x="128" y="21.33333" width="85.33333" height="320" style="fill:#fdbc34"/><rect x="149.33333" y="42.66667" width="21.33333" height="298.66667" style="fill:#fdcf6d"/><rect x="149.33333" y="85.33333" width="21.33333" height="42.66667" style="fill:#fee3aa"/><rect x="192" y="21.33333" width="21.33333" height="320" style="fill:#fdab00"/><rect x="213.33335" y="64" width="21.33333" height="277.33333" style="fill:#f59707"/><polygon points="270.327 234.667 391.007 234.667 455.921 169.753 435.5 149.333 355.66 149.333 270.327 234.667" style="fill:#ef7f00"/><polygon points="298.667 234.667 320 234.667 320 184.993 298.667 206.327 298.667 234.667" style="fill:#e76400"/><path d="M213.33333,205.57682v29.08985h85.33334V205.67708c-11.33334,4.59636-25.3724,7.65625-42.66667,7.65625C238.67708,213.33333,224.6849,210.21094,213.33333,205.57682Z" style="fill:#f59707"/><path d="M128,234.66667h85.33333V205.57682c-33.207-13.55468-43.27083-40.30208-43.76041-41.66015l-4.86459-14.58334H128Z" style="fill:#f59707"/><path d="M426.66667,170.66667h-64s-21.33334,64-106.66667,64-106.66667-64-106.66667-64h-64l-64,64L64,448l42.66667,42.66667s64-21.33334,149.33333-21.33334,149.33333,21.33334,149.33333,21.33334L448,448l42.66667-213.33333Z" style="fill:#c11107"/><path d="M126.20833,463.0625,108.89583,203.375l21.29167-1.41667,15.67708,235.23959A595.969,595.969,0,0,1,256,426.66667V448a574.21977,574.21977,0,0,0-117.73958,12.48958Z" style="fill:#c82e25"/><rect x="115.98688" y="255.9963" width="21.33874" height="106.78865" transform="translate(-20.30178 9.11125) rotate(-3.81445)" style="fill:#d2514a"/><path d="M405.35417,490.38542l-12.57292-3.40625C368.44792,480.39583,318.3125,469.33333,256,469.33333V448a564.911,564.911,0,0,1,129.78125,15.1875L403.85417,192H376.15625C363.16667,215.11458,329.75,256,256,256c-80.70833,0-113.11458-48.96875-123.3125-70.02083l19.20833-9.29167c8.4375,17.42708,35.46875,57.97917,104.10417,57.97917s95.66667-40.55209,104.10417-57.97917l2.91666-6.02083h63.64584Z" style="fill:#af0a00"/><circle cx="256" cy="341.33333" r="64" style="fill:#fdab00"/><polygon points="426.667 170.667 405.333 490.667 448 448 490.667 234.667 426.667 170.667" style="fill:#af0a00"/><polygon points="85.333 170.667 106.667 490.667 64 448 21.333 234.667 85.333 170.667" style="fill:#d2514a"/></g></svg>