<svg xmlns="http://www.w3.org/2000/svg" viewBox="0 0 512 512"><title>Artboard 110</title><g id="Fresh_Water" data-name="Fresh Water"><path d="M298.66667,213.33333V170.66667c0-42.66667-42.66667-64-42.66667-64V64H149.33333v42.66667s-42.66666,21.33333-42.66666,64v42.66666c0,21.33334,21.33333,21.33334,21.33333,21.33334V256s-21.33333,0-21.33333,21.33333V384s0,21.33333,21.33333,21.33333v21.33334s-21.33333,0-21.33333,21.33333v21.33333c0,21.33334,21.33333,21.33334,21.33333,21.33334H277.33333s21.33334,0,21.33334-21.33334V448c0-21.33333-21.33334-21.33333-21.33334-21.33333V405.33333c21.33334,0,21.33334-21.33333,21.33334-21.33333V277.33333C298.66667,256,277.33333,256,277.33333,256V234.66667S298.66667,234.66667,298.66667,213.33333Z" style="fill:#afa8a8"/><path d="M234.66667,469.33333V448c0-21.33333-21.33334-21.33333-21.33334-21.33333V405.33333c21.33334,0,21.33334-21.33333,21.33334-21.33333V277.33333C234.66667,256,213.33333,256,213.33333,256V234.66667s21.33334,0,21.33334-21.33334V170.66667c0-42.66667-42.66667-64-42.66667-64V64H149.33333v42.66667s-42.66666,21.33333-42.66666,64v42.66666c0,21.33334,21.33333,21.33334,21.33333,21.33334V256s-21.33333,0-21.33333,21.33333V384s0,21.33333,21.33333,21.33333v21.33334s-21.33333,0-21.33333,21.33333v21.33333c0,21.33334,21.33333,21.33334,21.33333,21.33334h85.33333S234.66667,490.66667,234.66667,469.33333Z" style="fill:#d5d1d1"/><path d="M149.33333,213.33333H128V170.66667c0-27.44792,27.69792-43.19792,30.85417-44.90625l11.60416-6.10417L170.66667,106.5,192,106.83333l-.41667,25.80209-22.6875,11.94791c-.10416.05209-19.5625,10.98959-19.5625,26.08334Z" style="fill:#edebeb"/><path d="M128,234.66667V256s-21.33333,0-21.33333,21.33333V384s0,21.33333,21.33333,21.33333v21.33334s-21.33333,0-21.33333,21.33333v21.33333c0,21.33334,21.33333,21.33334,21.33333,21.33334H277.33333s21.33334,0,21.33334-21.33334V448c0-21.33333-21.33334-21.33333-21.33334-21.33333V405.33333c21.33334,0,21.33334-21.33333,21.33334-21.33333V277.33333C298.66667,256,277.33333,256,277.33333,256V234.66667Z" style="fill:#edebeb"/><rect x="106.66667" y="277.33333" width="192" height="106.66667" style="fill:#cd3e36"/><path d="M149.33333,21.33333H256a21.33333,21.33333,0,0,1,21.33333,21.33333V85.33333a0,0,0,0,1,0,0H128a0,0,0,0,1,0,0V42.66667A21.33333,21.33333,0,0,1,149.33333,21.33333Z" style="fill:#c11107"/><path d="M192,21.33333H149.33333A21.33272,21.33272,0,0,0,128,42.66667V85.33333h85.33333V42.66667A21.33272,21.33272,0,0,0,192,21.33333Z" style="fill:#cd3e36"/><path d="M256,234.66667H405.33333a0,0,0,0,1,0,0V469.33333A21.33333,21.33333,0,0,1,384,490.66667H277.33333A21.33333,21.33333,0,0,1,256,469.33333V234.66667A0,0,0,0,1,256,234.66667Z" style="fill:#afa8a8"/><path d="M384,277.33331v192H341.33331v21.33332H384a21.33326,21.33326,0,0,0,21.33331-21.33332v-192Z" style="fill:#988f8f"/><path d="M320,469.33333V234.66667H256V469.33333a21.33356,21.33356,0,0,0,21.33333,21.33334h21.33334A21.33356,21.33356,0,0,0,320,469.33333Z" style="fill:#d5d1d1"/><rect x="245.33333" y="309.33333" width="170.66667" height="106.66667" transform="translate(-32 693.33333) rotate(-90)" style="fill:#d5d1d1"/><rect x="213.33333" y="341.33333" width="170.66667" height="42.66667" transform="translate(-64 661.33333) rotate(-90)" style="fill:#edebeb"/><rect x="256" y="277.33333" width="42.66667" height="106.66667" style="fill:#cd3e36"/><rect x="149.33333" y="42.66667" width="21.33333" height="42.66667" style="fill:#c11107"/><rect x="170.66667" y="42.66667" width="21.33333" height="42.66667" style="fill:#d2514a"/><rect x="128" y="42.66667" width="21.33333" height="42.66667" style="fill:#d2514a"/><rect x="192" y="42.66667" width="21.33333" height="42.66667" style="fill:#c11107"/><rect x="213.33333" y="42.66667" width="21.33333" height="42.66667" style="fill:#c82e25"/><rect x="234.66667" y="42.66667" width="21.33333" height="42.66667" style="fill:#af0a00"/><rect x="128" y="234.66667" width="85.33333" height="21.33333" style="fill:#c5c0c0"/><rect x="128" y="405.33333" width="85.33333" height="21.33333" style="fill:#d5d1d1"/><rect x="192" y="85.33333" width="64" height="21.33333" style="fill:#988f8f"/><circle cx="373.33333" cy="309.33333" r="10.66667" style="fill:#edebeb"/><circle cx="181.33333" cy="458.66667" r="10.66667" style="fill:#d5d1d1"/><circle cx="160" cy="437.33333" r="10.66667" style="fill:#d5d1d1"/><circle cx="224" cy="437.33333" r="10.66667" style="fill:#d5d1d1"/><circle cx="224" cy="266.66667" r="10.66667" style="fill:#d5d1d1"/><circle cx="181.33333" cy="245.33333" r="10.66667" style="fill:#d5d1d1"/><circle cx="138.66667" cy="266.66667" r="10.66667" style="fill:#d5d1d1"/><circle cx="330.66667" cy="309.33333" r="10.66667" style="fill:#edebeb"/><circle cx="352" cy="288" r="10.66667" style="fill:#edebeb"/><circle cx="309.33333" cy="288" r="10.66667" style="fill:#d5d1d1"/><circle cx="309.33333" cy="330.66667" r="10.66667" style="fill:#d5d1d1"/><path d="M106.66667,277.33333V383.875c.00114.04036.01367.08333.01481.125H256V277.33333Z" style="fill:#c11107"/><rect x="128" y="277.33333" width="21.33333" height="106.66667" style="fill:#d96c66"/><rect x="135.11667" y="178.15" width="12.28333" height="61.41667" style="fill:#af0a00"/></g></svg>