<svg xmlns="http://www.w3.org/2000/svg" viewBox="0 0 512 512"><title>Artboard 107</title><g id="Gingerbread"><path d="M362.66667,320V277.33333l67.66015-67.66015a60.33978,60.33978,0,1,0-85.33333-85.33334l-8.03516,8.03516a84.4166,84.4166,0,0,0,4.375-25.70833,85.33333,85.33333,0,1,0-170.66666,0,84.4166,84.4166,0,0,0,4.375,25.70833l-8.03516-8.03516a60.33978,60.33978,0,1,0-85.33333,85.33334l67.66015,67.66015V320L81.67318,387.66016a60.33978,60.33978,0,1,0,85.33333,85.33333L256,384l88.99349,88.99349a60.33978,60.33978,0,1,0,85.33333-85.33333Z" style="fill:#a34e2d"/><path d="M362.66667,320V277.33333l67.66015-67.66015a60.33978,60.33978,0,1,0-85.33333-85.33334l-8.03516,8.03516a84.4166,84.4166,0,0,0,4.375-25.70833,85.33333,85.33333,0,1,0-170.66666,0,84.4166,84.4166,0,0,0,4.375,25.70833l-8.03516-8.03516a60.33978,60.33978,0,1,0-85.33333,85.33334l67.66015,67.66015V320L81.67318,387.66016a60.33978,60.33978,0,1,0,85.33333,85.33333L256,384l88.99349,88.99349a60.33978,60.33978,0,1,0,85.33333-85.33333Z" style="fill:#a34e2d"/><path d="M124.33333,469.33333a39.00136,39.00136,0,0,1-27.5625-66.59375l73.89584-73.89583V268.48958L96.75,194.59375A39.01609,39.01609,0,0,1,124.33333,128v21.33333a17.67768,17.67768,0,0,0-12.47916,30.1875L192,259.65625v78.02083L111.85417,417.8125A17.67768,17.67768,0,0,0,124.33333,448Z" style="fill:#ad6143"/><path d="M387.66667,469.33333a39.22351,39.22351,0,0,1-27.58334-11.42708L281.75,379.58333,296.83333,364.5l78.35417,78.33333A17.6783,17.6783,0,0,0,387.66667,448Z" style="fill:#ad6143"/><path d="M213.33333,106.66667H192a64.07,64.07,0,0,1,64-64V64A42.71556,42.71556,0,0,0,213.33333,106.66667Z" style="fill:#ad6143"/><path d="M124.33333,490.66667V469.33333a39.29718,39.29718,0,0,0,27.58334-11.42708L248.45833,361.375l15.08334,15.08333L167,472.98958A60.784,60.784,0,0,1,124.33333,490.66667Z" style="fill:#8b2800"/><path d="M387.66667,490.66667V469.33333A39.01609,39.01609,0,0,0,415.25,402.73958l-73.91667-73.90625V268.5L415.25,194.59375A39.01609,39.01609,0,0,0,387.66667,128a39.26284,39.26284,0,0,0-27.58334,11.4375l-13.97916,13.95833-32-19.47916,2.52083-7.97917A63.46527,63.46527,0,0,0,320,106.66667a64.07,64.07,0,0,0-64-64V21.33333a85.42441,85.42441,0,0,1,85.33333,85.33334,76.30337,76.30337,0,0,1-2.125,17.5625l3.6875,2.22916L345,124.34375a60.33242,60.33242,0,0,1,103,42.66667,59.96325,59.96325,0,0,1-17.66667,42.66666l-67.66666,67.65625V320l67.66666,67.65625a60.34715,60.34715,0,0,1-42.66666,103.01042Z" style="fill:#8b2800"/><path d="M159.95833,147.46875l-8.04166-8.04167A39.29722,39.29722,0,0,0,124.33333,128V106.66667A60.784,60.784,0,0,1,167,124.34375l8.04167,8.04167Z" style="fill:#8b2800"/><path d="M256,362.64583a42.51474,42.51474,0,0,1-30.16667-12.47916l15.08334-15.08334a21.331,21.331,0,0,0,30.16666-30.16666l15.08334-15.08334A42.64584,42.64584,0,0,1,256,362.64583Z" style="fill:#993b17"/><circle cx="256" cy="320" r="21.33333" style="fill:#fdbc34"/><path d="M256,277.3125a42.51471,42.51471,0,0,1-30.16667-12.47917L240.91667,249.75a21.33105,21.33105,0,1,0,30.16666-30.16667L286.16667,204.5A42.64584,42.64584,0,0,1,256,277.3125Z" style="fill:#993b17"/><circle cx="256" cy="234.66667" r="21.33333" style="fill:#fdbc34"/><circle cx="245.33333" cy="224" r="10.66667" style="fill:#fdcf6d"/><circle cx="245.33333" cy="309.33333" r="10.66667" style="fill:#fdcf6d"/><circle cx="224" cy="96" r="10.66667" style="fill:#fdbc34"/><circle cx="288" cy="96" r="10.66667" style="fill:#fdbc34"/><rect x="234.66667" y="128" width="42.66667" height="21.33333" style="fill:#fdbc34"/><path d="M94.41667,222.36458l-14.875-15.29166c3.89583-3.79167,5.79166-8.72917,5.79166-15.07292,0-12.625,8.27084-21,21.0625-21.33333C127.75,170.66667,128,149.54167,128,149.33333c0-12.625,8.27083-21,21.0625-21.33333,6.625,0,11.725-2.06653,15.4958-5.96236l15.17087,15.01444c-7.79167,8.03125-18.29167,12.28125-30.39584,12.28125C149.33333,170.02083,134.375,192,106.66667,192,106.66667,204.0625,102.4375,214.5625,94.41667,222.36458Z" style="fill:#993b17"/><path d="M124.33984,106.66669a60.33121,60.33121,0,0,0-44.96972,100.56A21.88786,21.88786,0,0,0,85.33325,192c0-21.33331,21.3335-21.33331,21.3335-21.33331C128,170.66669,128,149.33331,128,149.33331,128,128,149.33325,128,149.33325,128a22.05812,22.05812,0,0,0,15.22632-5.96362A60.33445,60.33445,0,0,0,124.33984,106.66669Z" style="fill:#fdbc34"/><path d="M85.33333,167.01042H64a60.40681,60.40681,0,0,1,60.33333-60.34375,58.90533,58.90533,0,0,1,16.70834,2.4375L135,129.5625C110.35417,122.1875,85.33333,141.92708,85.33333,167.01042Z" style="fill:#f59707"/><path d="M384,149.33331s0,21.33338,21.33325,21.33338c0,0,21.3335,0,21.3335,21.33331a23.53038,23.53038,0,0,0,5.84472,15.36407A58.51572,58.51572,0,0,0,448,167.00653,60.333,60.333,0,0,0,347.37866,122.0896,21.4191,21.4191,0,0,0,362.66675,128S384,128,384,149.33331Z" style="fill:#fdbc34"/><path d="M448,167.01042H426.66667a39.05239,39.05239,0,0,0-39-39.01042,37.23891,37.23891,0,0,0-10.64584,1.55208l-6.08333-20.4375a58.37133,58.37133,0,0,1,16.72917-2.44791A60.40681,60.40681,0,0,1,448,167.01042Z" style="fill:#f59707"/><path d="M170.66675,426.66663C170.66675,405.97913,155.75,384,128,384c0-12.13934-4.24609-22.62292-12.26758-30.39923L100.64575,368.6875c4,3.72913,6.021,8.88538,6.021,15.3125,0,12.625,8.3125,21,21.45825,21.33331,20.95825,0,21.20825,21.125,21.20825,21.33332,0,12.625,8.3125,21,21.4585,21.33337,6.26221,0,11.50561,2.07861,15.19214,6.016l15.07739-15.07721C193.38428,431.02057,182.66748,426.66663,170.66675,426.66663Z" style="fill:#993b17"/><path d="M149.33333,426.66667s0-21.33334-21.33333-21.33334c0,0-21.33333,0-21.33333-21.33333,0-7.42969-2.64714-12.15755-6.01953-15.3138l-18.974,18.974a60.33978,60.33978,0,1,0,85.33333,85.33333l18.974-18.974C182.82422,450.64714,178.09635,448,170.66667,448,170.66667,448,149.33333,448,149.33333,426.66667Z" style="fill:#fdbc34"/><path d="M124.33333,490.66667A60.40682,60.40682,0,0,1,64,430.32292H85.33333a39.00137,39.00137,0,0,0,66.58334,27.58333l7.0625-7.0625,15.08333,15.08333L167,472.98958A60.784,60.784,0,0,1,124.33333,490.66667Z" style="fill:#f59707"/><path d="M448,430.32682a60.33491,60.33491,0,0,0-17.67318-42.66666l-18.974-18.974c-3.37239,3.15625-6.01953,7.88411-6.01953,15.3138,0,21.33333-21.33333,21.33333-21.33333,21.33333-21.33333,0-21.33333,21.33334-21.33333,21.33334C362.66667,448,341.33333,448,341.33333,448c-7.42968,0-12.15755,2.64714-15.3138,6.01953l18.974,18.974A60.33978,60.33978,0,0,0,448,430.32682Z" style="fill:#fdbc34"/><path d="M387.66667,490.66667V469.33333A39.01609,39.01609,0,0,0,415.25,402.73958l-7-7,15.08333-15.08333,7,7a60.34715,60.34715,0,0,1-42.66666,103.01042Z" style="fill:#f59707"/><circle cx="352" cy="202.66667" r="10.66667" style="fill:#8b2800"/><circle cx="266.66667" cy="74.66667" r="10.66667" style="fill:#8b2800"/><circle cx="341.33333" cy="256" r="21.33333" style="fill:#8b2800"/><circle cx="170.66667" cy="384" r="21.33333" style="fill:#993b17"/><circle cx="362.66667" cy="362.66667" r="21.33333" style="fill:#8b2800"/><circle cx="309.33333" cy="309.33333" r="10.66667" style="fill:#993b17"/><circle cx="202.66667" cy="202.66667" r="10.66667" style="fill:#993b17"/><circle cx="298.66667" cy="170.66667" r="21.33333" style="fill:#8b2800"/><circle cx="181.33333" cy="160" r="10.66667" style="fill:#993b17"/></g></svg>