<svg xmlns="http://www.w3.org/2000/svg" viewBox="0 0 512 512"><title>Artboard 138</title><g id="Grape"><path d="M341.3334,21.33333s-.00007,64,63.99993,64c0,0-.00006,64,63.99994,64,0,0,.00006-64-42.6666-64,0,0,42.6666,0,42.6666-64,0,0-63.99994,0-63.99994,42.66667C405.33333,64,405.33333,21.33333,341.3334,21.33333Z" style="fill:#fdab00"/><path d="M384,149.33333H362.66667v-32C362.66667,75.14583,397.5625,64,416,64l.0625,21.33333c-5.35417.0625-32.0625,1.88542-32.0625,32Z" style="fill:#a34e2d"/><circle cx="96" cy="416" r="74.66667" style="fill:#d4c3a2"/><path d="M96,490.64583a74.12992,74.12992,0,0,1-52.79167-21.85416L73.375,438.625c12.08333,12.0625,33.16667,12.0625,45.25,0a32.02611,32.02611,0,0,0,0-45.23958l30.16667-30.1875A74.651,74.651,0,0,1,96,490.64583Z" style="fill:#c5af83"/><circle cx="138.66667" cy="288" r="74.66667" style="fill:#eae2ce"/><ellipse cx="106.66667" cy="277.33333" rx="24.30006" ry="17.87761" transform="translate(-164.86234 156.65378) rotate(-45)" style="fill:#f3eee3"/><path d="M138.66667,362.64583A74.12989,74.12989,0,0,1,85.875,340.79167L116.04167,310.625c12.08333,12.0625,33.16666,12.0625,45.25,0a32.02614,32.02614,0,0,0,0-45.23958l30.16666-30.1875a74.651,74.651,0,0,1-52.79166,127.44791Z" style="fill:#e0d4b7"/><circle cx="202.66667" cy="394.66667" r="74.66667" style="fill:#e0d4b7"/><ellipse cx="170.66667" cy="384" rx="24.30006" ry="17.87761" transform="translate(-221.54189 233.15055) rotate(-45)" style="fill:#eae2ce"/><path d="M202.66667,469.3125A74.1299,74.1299,0,0,1,149.875,447.45833l30.16667-30.16666c12.08333,12.0625,33.16666,12.0625,45.25,0a32.02615,32.02615,0,0,0,0-45.23959l30.16666-30.1875A74.651,74.651,0,0,1,202.66667,469.3125Z" style="fill:#d4c3a2"/><circle cx="245.33333" cy="309.33333" r="74.66667" style="fill:#d4c3a2"/><ellipse cx="192" cy="298.66667" rx="24.30006" ry="17.87761" transform="translate(-154.95373 223.24194) rotate(-45)" style="fill:#eae2ce"/><path d="M245.33333,383.97917A74.12989,74.12989,0,0,1,192.54167,362.125l30.16666-30.16667c12.08334,12.0625,33.16667,12.0625,45.25,0a32.02611,32.02611,0,0,0,0-45.23958l30.16667-30.1875a74.651,74.651,0,0,1-52.79167,127.44792Z" style="fill:#c5af83"/><circle cx="330.66667" cy="394.66667" r="74.66667" style="fill:#e0d4b7"/><ellipse cx="309.33333" cy="373.33333" rx="36.45009" ry="26.81642" transform="translate(-173.3849 328.0785) rotate(-45)" style="fill:#eae2ce"/><path d="M330.66667,469.3125A74.1299,74.1299,0,0,1,277.875,447.45833l30.16667-30.16666c12.08333,12.0625,33.16666,12.0625,45.25,0a32.02615,32.02615,0,0,0,0-45.23959l30.16666-30.1875A74.651,74.651,0,0,1,330.66667,469.3125Z" style="fill:#d4c3a2"/><circle cx="309.33333" cy="266.66667" r="74.66667" style="fill:#c5af83"/><path d="M309.33333,341.3125a74.12989,74.12989,0,0,1-52.79166-21.85417l30.16666-30.16666c12.08334,12.0625,33.16667,12.0625,45.25,0a32.02612,32.02612,0,0,0,0-45.23959l30.16667-30.1875A74.651,74.651,0,0,1,309.33333,341.3125Z" style="fill:#b99e69"/><circle cx="373.33333" cy="202.66667" r="74.66667" style="fill:#e0d4b7"/><ellipse cx="362.66667" cy="170.66667" rx="24.30006" ry="17.87761" transform="translate(-14.45695 306.43117) rotate(-45)" style="fill:#eae2ce"/><path d="M373.33333,277.3125a74.12989,74.12989,0,0,1-52.79166-21.85417l30.16666-30.16666c12.08334,12.0625,33.16667,12.0625,45.25,0a32.02612,32.02612,0,0,0,0-45.23959l30.16667-30.1875A74.651,74.651,0,0,1,373.33333,277.3125Z" style="fill:#d4c3a2"/><circle cx="416" cy="309.33333" r="74.66667" style="fill:#eae2ce"/><path d="M416,383.97917A74.12993,74.12993,0,0,1,363.20833,362.125L393.375,331.95833c12.08333,12.0625,33.16667,12.0625,45.25,0a32.02611,32.02611,0,0,0,0-45.23958l30.16667-30.1875A74.651,74.651,0,0,1,416,383.97917Z" style="fill:#e0d4b7"/><circle cx="288" cy="117.33333" r="74.66667" style="fill:#e0d4b7"/><path d="M288,191.97917A74.12993,74.12993,0,0,1,235.20833,170.125L265.375,139.95833c12.08333,12.0625,33.16667,12.0625,45.25,0a32.02611,32.02611,0,0,0,0-45.23958l30.16667-30.1875A74.651,74.651,0,0,1,288,191.97917Z" style="fill:#d4c3a2"/><circle cx="138.66667" cy="181.33333" r="74.66667" style="fill:#e0d4b7"/><ellipse cx="117.33333" cy="138.66667" rx="36.45009" ry="26.81642" transform="translate(-63.686 123.58172) rotate(-45)" style="fill:#eae2ce"/><path d="M138.66667,255.97917A74.1299,74.1299,0,0,1,85.875,234.125l30.16667-30.16667c12.08333,12.0625,33.16666,12.0625,45.25,0a32.02614,32.02614,0,0,0,0-45.23958l30.16666-30.1875a74.651,74.651,0,0,1-52.79166,127.44792Z" style="fill:#d4c3a2"/><circle cx="224" cy="181.33333" r="74.66667" style="fill:#eae2ce"/><path d="M224,255.97917A74.12993,74.12993,0,0,1,171.20833,234.125L201.375,203.95833c12.08333,12.0625,33.16667,12.0625,45.25,0a32.02611,32.02611,0,0,0,0-45.23958l30.16667-30.1875A74.651,74.651,0,0,1,224,255.97917Z" style="fill:#e0d4b7"/><ellipse cx="202.66667" cy="138.66667" rx="36.45009" ry="26.81642" transform="translate(-38.69245 183.9215) rotate(-45)" style="fill:#f3eee3"/><ellipse cx="266.66667" cy="74.66667" rx="36.45009" ry="26.81642" transform="translate(25.30755 210.43117) rotate(-45)" style="fill:#eae2ce"/><ellipse cx="394.66667" cy="288" rx="36.45009" ry="26.81642" transform="translate(-88.05156 363.42472) rotate(-45)" style="fill:#f3eee3"/><ellipse cx="53.33333" cy="394.66667" rx="36.45009" ry="26.81642" transform="translate(-263.4505 153.30755) rotate(-45)" style="fill:#e0d4b7"/></g></svg>