<?xml version="1.0" encoding="utf-8"?>
<!-- Generator: Adobe Illustrator 21.0.0, SVG Export Plug-In . SVG Version: 6.00 Build 0)  -->
<svg version="1.1" xmlns="http://www.w3.org/2000/svg" xmlns:xlink="http://www.w3.org/1999/xlink" x="0px" y="0px"
	 viewBox="0 0 512 512" style="enable-background:new 0 0 512 512;" xml:space="preserve">
<style type="text/css">
	.st0{fill:#2961A5;}
	.st1{fill:#E1902B;}
	.st2{fill:#DB4646;}
	.st3{fill:#DA7D71;}
	.st4{fill:#9EC853;}
	.st5{fill:#78BEDE;}
	.st6{fill:#C25F35;}
	.st7{fill:#605560;}
	.st8{fill:#43B06D;}
	.st9{fill:#9E3D30;}
	.st10{fill:#CF9158;}
	.st11{fill:#F5BB47;}
	.st12{fill:#BF7443;}
	.st13{fill:#E6E6E6;}
	.st14{fill:#ADADAD;}
	.st15{fill:#F7F7F8;}
	.st16{fill:#BABABA;}
	.st17{fill:#BFBFBF;}
	.st18{fill:#C9C9C9;}
	.st19{fill:#D4D4D4;}
	.st20{fill:#3D2A3D;}
	.st21{fill:#FF826E;}
	.st22{fill:#E6CA56;}
	.st23{fill:#4D917B;}
	.st24{fill:#FFC671;}
	.st25{fill:#69361E;}
	.st26{fill:#9B6A57;}
	.st27{fill:#82492E;}
	.st28{fill:#1F3049;}
	.st29{fill:#76B079;}
	.st30{fill:#240924;}
	.st31{fill:#E7AD84;}
	.st32{fill:#FFDBC5;}
	.st33{fill:#A3A3A3;}
	.st34{fill:#999999;}
	.st35{fill:#C4C4C4;}
	.st36{fill:#E88E98;}
	.st37{fill:#D1D1D1;}
	.st38{fill:#D8DDE3;}
	.st39{fill:#B5896C;}
	.st40{fill:#C94C4C;}
	.st41{fill:#F5F5F5;}
	.st42{fill:#B9BDC2;}
	.st43{fill:#E0374B;}
	.st44{fill:#D04E61;}
	.st45{fill:#DA9180;}
	.st46{fill:#E1651D;}
	.st47{fill:#632B16;}
	.st48{fill:#914627;}
	.st49{opacity:0.42;}
	.st50{fill:#D9C8BA;}
	.st51{fill:#F2EAE3;}
	.st52{opacity:0.29;fill:#F7F7F8;}
	.st53{opacity:0.62;fill:#F7F7F8;}
	.st54{opacity:0.65;}
	.st55{fill:#AB2424;}
	.st56{fill:#C7C7C7;}
	.st57{fill:#C2C2C2;}
	.st58{fill:#D6D6D6;}
	.st59{opacity:0.39;fill:#F7F7F8;}
	.st60{fill:#F77B63;}
	.st61{opacity:0.45;fill:#F7F7F8;}
	.st62{fill:#ACD663;}
	.st63{fill:#F5B57B;}
	.st64{fill:#B36442;}
	.st65{fill:#C9714A;}
	.st66{fill:#E9EB64;}
	.st67{fill:#F1CB58;}
	.st68{fill:#202020;}
	.st69{fill:#C9E874;}
	.st70{fill:#9F9F9F;}
	.st71{fill:#E0E0E0;}
	.st72{fill:#57646E;}
	.st73{fill:#572020;}
	.st74{fill:#D17F73;}
	.st75{fill:#FAC9AA;}
	.st76{fill:#376C7E;}
	.st77{fill:#DB5C5D;}
	.st78{fill:#F2BB99;}
	.st79{fill:#DB997D;}
	.st80{fill:#733D28;}
	.st81{fill:#F0BFA0;}
</style>
<g id="GUIDELINES">
</g>
<g id="Layer_9">
	<circle class="st2" cx="256" cy="256" r="256"/>
</g>
<g id="Layer_7">
	<g>
		<ellipse class="st17" cx="328.4" cy="203.9" rx="64.6" ry="58.7"/>
		<rect x="182" y="192" class="st18" width="141" height="188"/>
		<g>
			<circle class="st15" cx="187.6" cy="174.6" r="64.6"/>
			<polygon class="st15" points="346,239 193,239 193,110 346,145.2 			"/>
			<circle class="st15" cx="346" cy="192.2" r="47"/>
		</g>
		<g>
			<path class="st17" d="M323.1,203.2c0,10-3.3,19.3-10.7,26.2c-4.5,4.2-9.8,5.3-15.7,6c-9.4,1-18.8,2.1-28.2,3.1
				c-21.1,2.3-42.3,4.7-63.4,7c-6.7,0.7-6.8,11.3,0,10.6c22.9-2.5,45.8-5.1,68.7-7.6c8-0.9,16-1.8,24.1-2.7c10-1.1,18.2-4.4,25-12.1
				c7.4-8.3,10.7-19.5,10.7-30.5C333.7,196.4,323.2,196.4,323.1,203.2L323.1,203.2z"/>
		</g>
		<path class="st13" d="M170,341v49.6c0,7.1,5.7,12.4,12.9,12.4h138.5c7.1,0,12.6-5.3,12.6-12.4V341H170z"/>
		<rect x="182" y="239" class="st17" width="141" height="35"/>
		<g>
			<path class="st17" d="M353.1,214.2c-2.9,9.9-9.5,18.9-19.4,22.7c-10.3,4-22.3,1.4-32.7-0.8c-6.6-1.4-9.5,8.8-2.8,10.2
				c13.3,2.8,28.4,5.6,41.3-0.4c11.9-5.5,20-16.4,23.7-28.9C365.3,210.5,355.1,207.7,353.1,214.2L353.1,214.2z"/>
		</g>
	</g>
</g>
</svg>
