<svg xmlns="http://www.w3.org/2000/svg" viewBox="0 0 512 512"><title>Artboard 129</title><g id="Honey"><path d="M335.08464,27.582a21.33107,21.33107,0,0,0-30.16928,0c-5.10026,5.099-58.96484,58.96485-64,64a21.3329,21.3329,0,0,0,30.16928,30.16927c5.03645-5.03515,58.901-58.901,64-64A21.33106,21.33106,0,0,0,335.08464,27.582Z" style="fill:#a34e2d"/><path d="M256,128V106.66667l64-64h21.33333a21.23079,21.23079,0,0,1-6.25,15.08333l-64,63.98958A21.19017,21.19017,0,0,1,256,128Z" style="fill:#8b2800"/><path d="M362.66667,277.33333V256C384,256,384,234.66667,384,234.66667s0-21.33334-21.33333-21.33334H149.33333C128,213.33333,128,234.66667,128,234.66667S128,256,149.33333,256v21.33333s-42.66666,0-42.66666,42.66667V448c0,42.66667,42.66666,42.66667,42.66666,42.66667H362.66667s42.66666,0,42.66666-42.66667V320C405.33333,277.33333,362.66667,277.33333,362.66667,277.33333Z" style="fill:#c5c0c0"/><path d="M341.33333,490.66667V469.33333H362.625C370.52083,469.23958,384,466.34375,384,448V320c0-18.34375-13.4375-21.23958-21.45833-21.33333l.25-21.33334c21.16666.25,42.54166,13.54167,42.54166,42.66667V448c0,29.13542-21.39583,42.41667-42.58333,42.66667Z" style="fill:#afa8a8"/><path d="M341.33333,448V320c0-42.66667-42.66666-42.66667-42.66666-42.66667V256C320,256,320,234.66667,320,234.66667s0-21.33334-21.33333-21.33334H149.33333C128,213.33333,128,234.66667,128,234.66667S128,256,149.33333,256v21.33333s-42.66666,0-42.66666,42.66667V448c0,42.66667,42.66666,42.66667,42.66666,42.66667H298.66667S341.33333,490.66667,341.33333,448Z" style="fill:#d5d1d1"/><path d="M192,469.33333a64.07,64.07,0,0,1-64-64V330.66667a32.035,32.035,0,0,1,32-32h10.66667V320H160a10.68056,10.68056,0,0,0-10.66667,10.66667v74.66666A42.71556,42.71556,0,0,0,192,448Z" style="fill:#edebeb"/><rect x="149.33333" y="256" width="128" height="21.33333" style="fill:#c5c0c0"/><path d="M192,469.33333H320a64,64,0,0,0,64-64V362.66667S341.33333,320,277.33333,320,170.66667,341.33333,128,341.33333v64A64,64,0,0,0,192,469.33333Z" style="fill:#e76400"/><path d="M277.33333,320c-64,0-106.66666,21.33333-149.33333,21.33333v64a63.99983,63.99983,0,0,0,64,64H320a63.345,63.345,0,0,0,17.42448-2.70573A44.98385,44.98385,0,0,0,341.33333,448V334.57682A151.94559,151.94559,0,0,0,277.33333,320Z" style="fill:#ef7f00"/><path d="M192,469.33333a64.07,64.07,0,0,1-64-64v-64h21.33333v64A42.71556,42.71556,0,0,0,192,448Z" style="fill:#fdbc34"/><rect x="128" y="362.66667" width="21.33333" height="42.66667" style="fill:#fee3aa"/><circle cx="213.33333" cy="277.33333" r="21.33333" style="fill:#ef7f00"/><path d="M149.33333,213.33333c0,21.33334,21.33334,21.33334,21.33334,21.33334C192,234.66667,192,256,213.33333,256S234.66667,234.66667,256,234.66667,277.33333,256,298.66667,256,320,234.66667,341.33333,234.66667s21.33334-21.33334,21.33334-21.33334Z" style="fill:#e76400"/><path d="M170.66667,234.66667C192,234.66667,192,256,213.33333,256S234.66667,234.66667,256,234.66667,277.33333,256,298.66667,256,320,234.66667,320,234.66667s0-21.33334-21.33333-21.33334H149.33333C149.33333,234.66667,170.66667,234.66667,170.66667,234.66667Z" style="fill:#ef7f00"/><path d="M234.66667,234.66667h-64c-21.33334,0-21.33334-21.33334-21.33334-21.33334H256S256,234.66667,234.66667,234.66667Z" style="fill:#fdbc34"/><path d="M149.33333,127.99935c0-21.33333,21.05979-21.05914,21.05979-21.05914C170.66667,85.33333,192,85.33333,192,85.33333S192,64,213.33333,64c0,0,0-21.33333,21.33334-21.33333,0,0,18.90251-2.43131,53.33333,31.99951S320,128,320,128c0,21.33333-21.33333,21.33333-21.33333,21.33333s0,21.33334-21.33334,21.33334c0,0,0,21.33333-21.33333,21.33333,0,0-.00033,21.33333-21.33366,21.33333,0,0-18.11892,3.38713-53.18589-31.67984S149.33333,127.99935,149.33333,127.99935Z" style="fill:#ef7f00"/><path d="M181.47917,181.65625c-30-30.02083-32.22917-47.90625-32.20834-52.66667.08334-11.5,6.3125-19.53125,16.25-21.55208l5.3125-5.28125c1.875-9.4375,8.77084-14.70833,16.22917-16.30208l5.45833-5.44792c1.70834-8.55208,7.52084-14.375,15.95834-15.96875l5.375-5.36458c2.02083-10.11459,9.79166-16.40625,20.8125-16.40625,6.52083,0,24.45833,3.11458,53.33333,32L272.91667,89.75C248,64.83333,234.875,64,234.72917,64l-.10417,4.25L217.75,85.33333h-4.41667l-.10416,4.25-16.8125,17.08334H192l-.0625,4.36458-17.10417,17.17708-4.29166.0625c.0625.60417,1.39583,13.66667,26.02083,38.30209Z" style="fill:#fdbc34"/><rect x="181.33447" y="104.0785" width="21.33105" height="90.50967" transform="translate(-49.35911 179.50322) rotate(-45)" style="fill:#fdbc34"/><rect x="202.66781" y="82.74517" width="21.33105" height="90.50967" transform="translate(-28.02578 188.33978) rotate(-45)" style="fill:#fdbc34"/><rect x="224.00114" y="61.41183" width="21.33105" height="90.50967" transform="translate(-6.69245 197.17633) rotate(-45)" style="fill:#fdbc34"/><rect x="245.33447" y="40.0785" width="21.33105" height="90.50967" transform="translate(14.64089 206.01289) rotate(-45)" style="fill:#fdbc34"/><rect x="298.66667" y="256" width="64" height="21.33333" style="fill:#afa8a8"/></g></svg>