<svg xmlns="http://www.w3.org/2000/svg" viewBox="0 0 512 512"><title>Artboard 153</title><g id="Hot_Dog" data-name="Hot Dog"><path d="M351.61068,21.33333h-.00009a53.72267,53.72267,0,0,0-46.962,27.63263l-.0001.00019A658.10273,658.10273,0,0,1,48.96615,304.64844l-.00019.0001a53.72267,53.72267,0,0,0-27.63263,46.962v.00008A53.72265,53.72265,0,0,0,75.056,405.33332h.00046c182.4069,0,330.27688-147.87006,330.27688-330.27695V75.056A53.72265,53.72265,0,0,0,351.61068,21.33333Z" style="fill:#f59707"/><path d="M64,351.60417H21.33333a53.72751,53.72751,0,0,1,27.64584-46.95834A657.61065,657.61065,0,0,0,304.64583,48.95833L341.9375,69.66667A699.96389,699.96389,0,0,1,69.69792,341.9375,11.05076,11.05076,0,0,0,64,351.60417Z" style="fill:#ef7f00"/><path d="M21.33333,424.44392A66.13158,66.13158,0,0,1,55.7775,366.36054c41.9545-22.99232,115.12735-67.93206,178.88917-131.69387S343.36822,97.732,366.36054,55.7775a66.13158,66.13158,0,0,1,58.08338-34.44417h.0001A66.22265,66.22265,0,0,1,490.66667,87.556v.0001c0,43.28359-7.92681,86.34852-25.08161,126.08744-18.26937,42.32082-49.56723,95.672-102.91839,149.02315s-106.70233,84.649-149.02315,102.91839c-39.73892,17.1548-82.80385,25.08161-126.08744,25.08161H87.556A66.22265,66.22265,0,0,1,21.33333,424.444Z" style="fill:#cd3e36"/><path d="M87.55208,490.66667A66.29947,66.29947,0,0,1,21.33333,424.4375H64A23.57722,23.57722,0,0,0,87.55208,448c39.28125,0,76.01042-7.27083,109.17709-21.58333C245.61458,405.3125,291.29167,373.72917,332.5,332.5c41.20833-41.20833,72.80208-86.89583,93.91667-135.77083C440.73958,163.54167,448,126.8125,448,87.5625h42.66667c0,45.08333-8.4375,87.5-25.08334,126.08333-23.25,53.85417-57.875,103.97917-102.91666,149.02084-45.03125,45.04166-95.17709,79.66666-149.02084,102.91666C175.10417,482.22917,132.6875,490.66667,87.55208,490.66667Z" style="fill:#c11107"/><path d="M128,416H106.66667V405.33333A21.35442,21.35442,0,0,1,128,384a64.07,64.07,0,0,0,64-64V298.66667a21.35443,21.35443,0,0,1,21.33333-21.33334h21.33334a64.07,64.07,0,0,0,64-64V192A21.35442,21.35442,0,0,1,320,170.66667h21.33333a64.07,64.07,0,0,0,64-64,21.35443,21.35443,0,0,1,21.33334-21.33334h10.66666v21.33334H426.66667A85.42441,85.42441,0,0,1,341.33333,192H320v21.33333a85.42442,85.42442,0,0,1-85.33333,85.33334H213.33333V320A85.42441,85.42441,0,0,1,128,405.33333Z" style="fill:#c11107"/><path d="M64,405.33333a64.07,64.07,0,0,1,64-64A21.35442,21.35442,0,0,0,149.33333,320V298.66667a64.07,64.07,0,0,1,64-64h21.33334A21.35443,21.35443,0,0,0,256,213.33333V192a64.07,64.07,0,0,1,64-64h21.33333a21.35443,21.35443,0,0,0,21.33334-21.33333,64.07,64.07,0,0,1,64-64V85.33333a21.35443,21.35443,0,0,0-21.33334,21.33334,64.07,64.07,0,0,1-64,64H320A21.35442,21.35442,0,0,0,298.66667,192v21.33333a64.07,64.07,0,0,1-64,64H213.33333A21.35443,21.35443,0,0,0,192,298.66667V320a64.07,64.07,0,0,1-64,64,21.35442,21.35442,0,0,0-21.33333,21.33333Z" style="fill:#fee3aa"/><path d="M436.944,106.66667h-.0001a53.72263,53.72263,0,0,0-46.962,27.63262l-.00011.00019A658.1026,658.1026,0,0,1,134.29948,389.98177l-.00019.00011a53.72263,53.72263,0,0,0-27.63262,46.962v.00009a53.72264,53.72264,0,0,0,53.72266,53.72264h.00046c182.40689,0,330.27688-147.87,330.27688-330.27695v-.00038A53.72265,53.72265,0,0,0,436.944,106.66667Z" style="fill:#ef7f00"/><path d="M414.56561,151.7832l0,0c-12.85192-9.14013-30.98662-5.84547-39.24627,7.58926a658.10147,658.10147,0,0,1-241.38574,230.8121c-14.17744,7.86451-24.17592,21.54388-26.51253,37.58728v.00009c-5.013,34.41984,26.25055,62.26937,60.221,54.79534C311.073,451.01024,419.62152,326.51338,426.3369,175.27387A27.61853,27.61853,0,0,0,414.56561,151.7832Z" style="fill:#f59707"/><path d="M155.03125,427.27083l-20.72917-37.29166a657.56809,657.56809,0,0,0,255.67709-255.6875,53.72708,53.72708,0,0,1,100.6875,26.10416H448a11.06763,11.06763,0,0,0-20.73958-5.375A699.95387,699.95387,0,0,1,155.03125,427.27083Z" style="fill:#fdbc34"/><path d="M382.17708,225.85417l-34.5625-25a662.58138,662.58138,0,0,0,42.35417-66.5625,53.73364,53.73364,0,0,1,100.69792,26.10416H448a11.06763,11.06763,0,0,0-20.73958-5.375A702.46714,702.46714,0,0,1,382.17708,225.85417Z" style="fill:#fdcf6d"/><ellipse cx="373.33333" cy="373.33333" rx="12.13211" ry="8.96315" transform="translate(-154.63973 373.33333) rotate(-45)" style="fill:#fee3aa"/><ellipse cx="288" cy="437.33333" rx="12.13211" ry="8.96315" transform="translate(-224.88812 331.73872) rotate(-45)" style="fill:#fee3aa"/><ellipse cx="394.66667" cy="309.33333" rx="12.13211" ry="8.96315" transform="translate(-103.13651 369.67311) rotate(-45)" style="fill:#fee3aa"/><ellipse cx="437.33333" cy="288" rx="12.13211" ry="8.96315" transform="translate(-75.55479 393.59461) rotate(-45)" style="fill:#fee3aa"/><ellipse cx="330.66667" cy="394.66667" rx="12.13211" ry="8.96315" transform="translate(-182.22145 349.41183) rotate(-45)" style="fill:#fee3aa"/></g></svg>