<svg xmlns="http://www.w3.org/2000/svg" viewBox="0 0 512 512"><title>Artboard 117</title><g id="Ice_Cream_Pop" data-name="Ice Cream Pop"><rect x="213.33333" y="64" width="85.33333" height="426.66667" rx="42.66662" ry="42.66662" style="fill:#d7b2a4"/><path d="M298.66667,424.82943V403.37891c-12.81381,1.18489-26.957,1.95442-42.66667,1.95442s-29.85286-.76823-42.66667-1.95312v21.44922c12.90756,1.13541,27.11849,1.83724,42.66667,1.83724S285.75911,425.96615,298.66667,424.82943Z" style="fill:#c99884"/><path d="M256,490.66667V469.33333A21.35442,21.35442,0,0,0,277.33333,448V222.16667h21.33334V448A42.71556,42.71556,0,0,1,256,490.66667Z" style="fill:#c99884"/><path d="M256,21.33333c131.64479,0,130.65934,281.83936,128.57886,348.60705a20.988,20.988,0,0,1-14.32465,19.431c-18.80009,6.31963-56.88483,15.962-114.25421,15.962s-95.45412-9.64232-114.25421-15.962a20.988,20.988,0,0,1-14.32465-19.431C125.34066,303.17267,124.35516,21.33333,256,21.33333Z" style="fill:#fdbc34"/><path d="M256,21.33333c131.64479,0,130.65934,281.83936,128.57886,348.60705a20.988,20.988,0,0,1-14.32465,19.431c-18.80009,6.31963-56.88483,15.962-114.25421,15.962s-95.45412-9.64232-114.25421-15.962a20.988,20.988,0,0,1-14.32465-19.431C125.34066,303.17267,124.35516,21.33333,256,21.33333Z" style="fill:#fdbc34"/><path d="M256,21.33333V64c11.91667,0,21.39583,4.30208,30.75,13.95833C323.14583,115.5,344.58333,222.5625,342.3125,353.14583c-18.25,4.59375-46.95833,9.52084-86.3125,9.52084v42.66666c57.36979,0,95.45443-9.64323,114.25391-15.96224a20.99006,20.99006,0,0,0,14.32552-19.431C386.65885,303.17188,387.64453,21.33333,256,21.33333Z" style="fill:#f59707"/><path d="M213.33333,362.66667H170.66667c0-137.13542,10.14583-277.33334,85.33333-277.33334V128C248.875,128,213.33333,139.3125,213.33333,362.66667Z" style="fill:#fdcf6d"/><path d="M220.33333,219.34375l-42.29166-5.58333C182.22917,182,194.95833,85.33333,256,85.33333V128C247.22917,128,229.83333,147.23958,220.33333,219.34375Z" style="fill:#fee3aa"/><circle cx="341.33333" cy="362.66667" r="21.33333" style="fill:#f59707"/><circle cx="341.33333" cy="298.66667" r="21.33333" style="fill:#f59707"/><circle cx="245.33333" cy="330.66667" r="10.66667" style="fill:#f59707"/><circle cx="266.66667" cy="160" r="10.66667" style="fill:#f59707"/><circle cx="309.33333" cy="181.33333" r="10.66667" style="fill:#f59707"/><circle cx="245.33333" cy="245.33333" r="10.66667" style="fill:#f59707"/><circle cx="160" cy="245.33333" r="10.66667" style="fill:#fdcf6d"/><circle cx="160" cy="352" r="10.66667" style="fill:#fdcf6d"/><circle cx="213.33333" cy="298.66667" r="21.33333" style="fill:#fdcf6d"/><circle cx="277.33333" cy="85.33333" r="21.33333" style="fill:#f59707"/><circle cx="309.33333" cy="266.66667" r="10.66667" style="fill:#f59707"/></g></svg>