<svg xmlns="http://www.w3.org/2000/svg" viewBox="0 0 512 512"><title>Artboard 116</title><g id="Ice_Cream" data-name="Ice Cream"><path d="M384,149.33333H128c-21.33333,0-21.33333,21.33334-21.33333,21.33334S106.66667,192,128,192v42.66667s0,42.66666,42.66667,42.66666l64,213.33334h42.66666l64-213.33334C384,277.33333,384,234.66667,384,234.66667V192c21.33333,0,21.33333-21.33333,21.33333-21.33333S405.33333,149.33333,384,149.33333Z" style="fill:#ad6143"/><rect x="128" y="192" width="170.66667" height="21.33333" style="fill:#a34e2d"/><rect x="298.66667" y="192" width="85.33333" height="21.33333" style="fill:#993b17"/><rect x="326.24839" y="155.58172" width="30.16989" height="30.16989" transform="translate(-20.70534 291.34622) rotate(-45)" style="fill:#a34e2d"/><rect x="283.58172" y="198.24839" width="30.16989" height="30.16989" transform="translate(-63.37201 273.67311) rotate(-45)" style="fill:#993b17"/><rect x="240.91506" y="155.58172" width="30.16989" height="30.16989" transform="translate(-45.69889 231.00645) rotate(-45)" style="fill:#a34e2d"/><rect x="240.91506" y="240.91506" width="30.16989" height="30.16989" transform="translate(-106.03867 256) rotate(-45)" style="fill:#a34e2d"/><path d="M213.33333,277.33333V256a21.35443,21.35443,0,0,0,21.33334-21.33333V149.33333h42.66666v21.33334H256v64A42.71555,42.71555,0,0,1,213.33333,277.33333Z" style="fill:#993b17"/><path d="M298.66667,213.33333V192A21.35443,21.35443,0,0,0,320,170.66667V149.33333h21.33333v21.33334A42.71554,42.71554,0,0,1,298.66667,213.33333Z" style="fill:#993b17"/><rect x="155.58172" y="155.58172" width="30.16989" height="30.16989" transform="translate(-70.69245 170.66667) rotate(-45)" style="fill:#c28a73"/><rect x="155.58172" y="240.91506" width="30.16989" height="30.16989" transform="translate(-131.03223 195.66022) rotate(-45)" style="fill:#a34e2d"/><rect x="240.91506" y="326.24839" width="30.16989" height="30.16989" transform="translate(-166.37845 280.99355) rotate(-45)" style="fill:#a34e2d"/><rect x="240.91506" y="411.58172" width="30.16989" height="30.16989" transform="translate(-226.71823 305.98711) rotate(-45)" style="fill:#a34e2d"/><rect x="326.24839" y="240.91506" width="30.16989" height="30.16989" transform="translate(-81.04512 316.33978) rotate(-45)" style="fill:#a34e2d"/><polygon points="128 192 128 234.667 149.333 213.333 128 192" style="fill:#a34e2d"/><rect x="198.24839" y="198.24839" width="30.16989" height="30.16989" transform="translate(-88.36556 213.33333) rotate(-45)" style="fill:#c28a73"/><rect x="198.24839" y="283.58172" width="30.16989" height="30.16989" transform="translate(-148.70534 238.32689) rotate(-45)" style="fill:#a34e2d"/><rect x="283.58172" y="283.58172" width="30.16989" height="30.16989" transform="translate(-123.71178 298.66667) rotate(-45)" style="fill:#a34e2d"/><polygon points="213.333 362.667 200.206 375.794 207.238 399.238 213.333 405.333 234.667 384 213.333 362.667" style="fill:#a34e2d"/><polygon points="298.667 362.667 277.333 384 298.667 405.333 304.762 399.238 311.794 375.794 298.667 362.667" style="fill:#a34e2d"/><polygon points="362.667 213.333 384 234.667 384 192 362.667 213.333" style="fill:#993b17"/><path d="M256,21.33333a127.99966,127.99966,0,0,0-128,128S128,192,170.66667,192c0,0,21.33333,0,21.33333,21.33333v21.33334C192,256,213.33333,256,213.33333,256c21.33334,0,21.33334-21.33333,21.33334-21.33333v-64c0-21.33334,21.33333-21.33334,21.33333-21.33334s21.33333,0,21.33333,21.33334S298.66667,192,298.66667,192C320,192,320,170.66667,320,170.66667h0a21.33334,21.33334,0,0,1,21.33333-21.33334H384A127.99966,127.99966,0,0,0,256,21.33333Z" style="fill:#fdab00"/><path d="M256,21.33333V64a85.68224,85.68224,0,0,1,74.41667,43.60417A63.78209,63.78209,0,0,0,298.875,122.82292,65.749,65.749,0,0,0,256,106.66667c-26.8125,0-54.39583,17.38541-61.97917,47.3125a70.61969,70.61969,0,0,0-23.33333-4.78125c-.02083-.20834-.02083-.41667-.02083-.65625L128.013,149.625c.01693,1.62891.83464,42.375,42.65365,42.375,0,0,21.33333,0,21.33333,21.33333v21.33334C192,256,213.33333,256,213.33333,256c21.33334,0,21.33334-21.33333,21.33334-21.33333v-64c0-21.33334,21.33333-21.33334,21.33333-21.33334s21.33333,0,21.33333,21.33334S298.66667,192,298.66667,192C320,192,320,170.66667,320,170.66667a21.33272,21.33272,0,0,1,21.33333-21.33334H384A127.99966,127.99966,0,0,0,256,21.33333Z" style="fill:#f59707"/><path d="M298.66667,277.33333V256A21.35443,21.35443,0,0,0,320,234.66667h21.33333A42.71554,42.71554,0,0,1,298.66667,277.33333Z" style="fill:#993b17"/><circle cx="298.66667" cy="234.66667" r="21.33333" style="fill:#f59707"/><circle cx="181.33333" cy="138.66667" r="10.66667" style="fill:#ad6143"/><circle cx="256" cy="64" r="21.33333" style="fill:#f59707"/><circle cx="288" cy="117.33333" r="10.66667" style="fill:#993b17"/><circle cx="352" cy="138.66667" r="10.66667" style="fill:#993b17"/><circle cx="309.33333" cy="74.66667" r="10.66667" style="fill:#993b17"/><circle cx="160" cy="96" r="10.66667" style="fill:#ad6143"/><circle cx="224" cy="96" r="10.66667" style="fill:#ad6143"/><circle cx="224" cy="53.33333" r="10.66667" style="fill:#ad6143"/></g></svg>