<svg xmlns="http://www.w3.org/2000/svg" viewBox="0 0 512 512"><title>Artboard 123</title><g id="Jam"><path d="M362.66667,85.33333V42.66667H149.33333V85.33333c0,42.66667-64,42.66667-64,128V448A42.66712,42.66712,0,0,0,128,490.66667H384A42.66712,42.66712,0,0,0,426.66667,448V213.33333C426.66667,128,362.66667,128,362.66667,85.33333Z" style="fill:#c5c0c0"/><path d="M384,490.66667H341.33333V469.33333H384A21.36111,21.36111,0,0,0,405.33333,448V213.33333c0-40.79166-17.01041-56.82291-33.44791-72.32291-13.61459-12.82292-30.55209-28.78125-30.55209-55.67709h21.33334c0,17.67709,11.05208,28.09375,23.84375,40.15625,17.89583,16.86459,40.15625,37.84375,40.15625,87.84375V448A42.70887,42.70887,0,0,1,384,490.66667Z" style="fill:#afa8a8"/><path d="M320,448V213.33333C320,128,256,128,256,85.33333V42.66667H149.33333V85.33333c0,42.66667-64,42.66667-64,128V448A42.66712,42.66712,0,0,0,128,490.66667H277.33333A42.66711,42.66711,0,0,0,320,448Z" style="fill:#d5d1d1"/><rect x="106.66667" y="213.33333" width="21.33333" height="149.33333" style="fill:#edebeb"/><path d="M384,106.66667c0-21.33334-21.33333-21.33334-21.33333-21.33334V64a21.33333,21.33333,0,0,0,0-42.66667H149.33333a21.33334,21.33334,0,0,0,0,42.66667V85.33333S128,85.33333,128,106.66667c0,42.66666-42.66667,42.66666-42.66667,42.66666s0,21.33334,42.66667,21.33334,42.66667-21.33334,64-21.33334,42.66667,21.33334,64,21.33334,42.66667-21.33334,64-21.33334,21.33333,21.33334,64,21.33334,42.66667-21.33334,42.66667-21.33334S384,149.33333,384,106.66667Z" style="fill:#c11107"/><path d="M384,170.66667c-25,0-35.48958-7.41667-43.91667-13.38542-6.04166-4.27083-11.25-7.94792-20.08333-7.94792V128c15.61458,0,25.3125,6.85417,32.38542,11.85417,7.19791,5.09375,13.39583,9.47916,31.61458,9.47916,10.32292,0,16.27083-1.46875,19.4375-2.70833l7.75,19.875C404.09375,169.26042,394.94792,170.66667,384,170.66667Z" style="fill:#af0a00"/><rect x="149.33333" y="64" width="213.33333" height="21.33333" style="fill:#ef7f00"/><path d="M128,170.66667c42.66667,0,42.66667-21.33334,64-21.33334s42.66667,21.33334,64,21.33334,42.66667-21.33334,64-21.33334c0,0-42.66667,0-42.66667-42.66666C277.33333,85.33333,256,85.33333,256,85.33333V64a21.33333,21.33333,0,0,0,0-42.66667H149.33333a21.33334,21.33334,0,0,0,0,42.66667V85.33333S128,85.33333,128,106.66667c0,42.66666-42.66667,42.66666-42.66667,42.66666S85.33333,170.66667,128,170.66667Z" style="fill:#cd3e36"/><path d="M256,170.66667c-10.66667,0-21.03125-5.17709-32-10.66667-11-5.5-21.35417-10.66667-32-10.66667-8.83333,0-14.04167,3.67709-20.07292,7.94792C163.48958,163.25,153,170.66667,128,170.66667V149.33333c18.21875,0,24.41667-4.38541,31.60417-9.46875C166.6875,134.85417,176.38542,128,192,128c15.6875,0,29.38542,6.84375,41.47917,12.88542,8.33333,4.16666,16.89583,8.44791,22.52083,8.44791s14.1875-4.28125,22.45833-8.41666L288,160C277.03125,165.48958,266.66667,170.66667,256,170.66667Z" style="fill:#c11107"/><rect x="149.33333" y="64" width="106.66667" height="21.33333" style="fill:#fdab00"/><polygon points="341.333 64 320 64 341.333 213.333 362.667 213.333 341.333 64" style="fill:#fdbc34"/><circle cx="320" cy="64" r="21.33333" style="fill:#fdab00"/><polygon points="320 64 298.667 64 277.333 213.333 298.667 213.333 320 64" style="fill:#fdcf6d"/><path d="M405.33333,302.57079c0-20.41315-22.33872-32.13879-39.67382-21.35959-15.93667,9.90963-37.69184,17.45547-66.99284,17.45547-44.14794,0-71.16564-17.13024-98.77817-33.66566-41.04391-24.57863-93.22161,5.12243-93.22166,52.96292l-.00009,77.923a73.44629,73.44629,0,0,0,73.4463,73.44638H331.887A73.44637,73.44637,0,0,0,405.33333,395.887Z" style="fill:#c11107"/><path d="M298.66667,395.88672V302.57031a25.29932,25.29932,0,0,0-.54037-3.92968c-43.8138-.14584-70.74349-17.17448-98.23828-33.63933-41.043-24.57942-93.22135,5.1224-93.22135,52.96224v77.92318a73.44615,73.44615,0,0,0,73.44661,73.44661h45.10677A73.44616,73.44616,0,0,0,298.66667,395.88672Z" style="fill:#cd3e36"/><path d="M180.11458,469.33333a73.53021,73.53021,0,0,1-73.44791-73.44791V317.95833c0-38.15625,32.0625-61.78125,61.76041-61.78125v21.33334c-19.4375,0-40.42708,15.46875-40.42708,40.44791v77.92709A52.1691,52.1691,0,0,0,180.11458,448Z" style="fill:#de807a"/><rect x="149.33333" y="21.33333" width="106.66667" height="21.33333" style="fill:#d2514a"/><path d="M384,42.66667H298.66667V21.33333h64C384,21.33333,384,42.66667,384,42.66667Z" style="fill:#cd3e36"/><rect x="106.66667" y="320" width="21.33333" height="85.33333" style="fill:#ecb8b5"/></g></svg>