<svg xmlns="http://www.w3.org/2000/svg" viewBox="0 0 512 512"><title>Artboard 136</title><g id="Lemon"><path d="M489.92666,53.97231A31.899,31.899,0,0,0,458.02757,22.0732a43.69414,43.69414,0,0,0-7.33265,1.4307c-33.40554,8.27168-68.1147,7.19337-101.99382,1.14721-82.05942-14.64456-179.40447,20.3273-241.56352,82.48638-62.1592,62.15923-97.131,159.50375-82.48624,241.563,6.04627,33.87905,7.12469,68.58819-1.1471,101.99366a43.70015,43.70015,0,0,0-1.4309,7.33351A31.899,31.899,0,0,0,53.97243,489.9268a43.71454,43.71454,0,0,0,7.33555-1.43138c33.40494-8.27181,68.11361-7.193,101.99215-1.14679,82.05922,14.645,179.40358-20.32738,241.56294-82.48677,62.15908-62.15912,97.13046-159.50383,82.48572-241.56316-6.04641-33.88-7.12415-68.59006,1.1477-101.9965A43.6795,43.6795,0,0,0,489.92666,53.97231Z" style="fill:#fdbc34"/><ellipse cx="213.33333" cy="149.33333" rx="94.09104" ry="50.20415" transform="translate(-46.05255 126.30034) rotate(-29.91757)" style="fill:#fdcf6d"/><ellipse cx="224" cy="106.66667" rx="34.41039" ry="17.15964" transform="translate(-24.09653 105.29129) rotate(-25.14572)" style="fill:#fee3aa"/><circle cx="224" cy="394.66667" r="32" style="fill:#f59707"/><circle cx="394.66667" cy="288" r="32" style="fill:#f59707"/><ellipse cx="74.66667" cy="298.66667" rx="10.66667" ry="21.33333" style="fill:#fee3aa"/><ellipse cx="135.84461" cy="198.74436" rx="29.3919" ry="19.85393" transform="translate(-100.74552 154.26752) rotate(-45)" style="fill:#fee3aa"/><circle cx="330.66667" cy="74.66667" r="10.66667" style="fill:#fee3aa"/><circle cx="437.33333" cy="117.33333" r="32" style="fill:#f59707"/><circle cx="320" cy="341.33333" r="21.33333" style="fill:#f59707"/><circle cx="309.33333" cy="288" r="10.66667" style="fill:#f59707"/><circle cx="85.33333" cy="426.66667" r="21.33333" style="fill:#f59707"/><circle cx="330.66667" cy="138.66667" r="10.66667" style="fill:#f59707"/><ellipse cx="224" cy="266.66667" rx="39.24351" ry="22.52317" transform="translate(-122.94783 236.42907) rotate(-44.98882)" style="fill:#f59707"/><path d="M487.349,163.29818c-6.04688-33.88021-7.1237-68.58985,1.14713-101.9961a43.72757,43.72757,0,0,0,1.431-7.33073,31.8015,31.8015,0,0,0-21.32552-29.96354c-1.74609,5.86979-8.24739,11.70964-11.66406,13.81511L449.22917,42.375l-2.14584,8.6875c-9.02083,36.48958-9.60416,75.64583-1.72916,119.72917C457.25,237.35417,428.1875,321.19792,374.6875,374.69792,329.47917,419.91667,263.22917,448,201.8125,448a177.68548,177.68548,0,0,1-31.02083-2.65625c-43.54167-7.78125-83.72917-7.16667-119.75,1.73958L39.3125,450l-3.52083,11.55208a98.60354,98.60354,0,0,1-6.79558,16.09766,31.71487,31.71487,0,0,0,24.97657,12.27734,43.71342,43.71342,0,0,0,7.33593-1.43229c33.40495-8.27213,68.11329-7.19271,101.99219-1.14713,82.0586,14.64583,179.40234-20.32683,241.5625-82.48568C467.02214,342.70182,501.99349,245.35807,487.349,163.29818Z" style="fill:#f59707"/></g></svg>