<svg xmlns="http://www.w3.org/2000/svg" viewBox="0 0 512 512"><title>Artboard 118</title><g id="Lolipop_Candy" data-name="Lolipop Candy"><rect x="213.33333" y="192" width="85.33333" height="298.66667" rx="42.66662" ry="42.66662" style="fill:#fee3aa"/><path d="M256,192a42.66628,42.66628,0,0,0-42.66667,42.66667V400.41146a187.39519,187.39519,0,0,0,85.33334,0V234.66667A42.66628,42.66628,0,0,0,256,192Z" style="fill:#fdcf6d"/><path d="M256,490.66667V469.33333A21.35442,21.35442,0,0,0,277.33333,448V222.16667h21.33334V448A42.71556,42.71556,0,0,1,256,490.66667Z" style="fill:#fdcf6d"/><path d="M380.14323,182.72266a103.57893,103.57893,0,0,0-23.84375-44.724,96.07148,96.07148,0,0,0-45.66667-28.13542,98.33664,98.33664,0,0,0-26.83333-3.60677c-10.013.21484-20.26953,1.60026-29.63672,5.52865-10.83594,4.45573-16.0638,7.98177-23.02995,12.80208a110.07926,110.07926,0,0,0-18.23567,16.401,86.89916,86.89916,0,0,0-15.91928,25.38281c-2.806,5.95964-4.2539,14.53256-4.66015,22.5625l-64.11719-1.61718C126.556,215.30859,136.5,248.6875,156.332,272.05729c19.71094,23.83594,46.03255,39.09636,75.651,45.40625a121.75039,121.75039,0,0,0,46.0612.57682,151.76052,151.76052,0,0,0,40.30729-13.069,135.42137,135.42137,0,0,0,36.27474-25.3776c11.16927-11.10547,21.931-26.3112,26.776-45.92969C385.98568,211.66406,383.6237,198.8776,380.14323,182.72266Z" style="fill:#fdbc34"/><path d="M191.5835,95l-4.12573,6.10082c-1.8873,1.84341-2.89679,2.94068-3.95017,4.15865a92.41017,92.41017,0,0,0-6.6714,8.75622,119.58207,119.58207,0,0,0-11.2141,20.508,184.25274,184.25274,0,0,0-13.51837,50.05745,223.05128,223.05128,0,0,0-2.19454,27.15743l-.17556,6.29833a40.18432,40.18432,0,0,0,.10973,6.86891c.19751,1.3277.26334,2.76512.35112,4.50978a23.12337,23.12337,0,0,0,.46086,4.5427c2.26037,13.04653,7.92229,24.49106,17.31492,35.0029l7.48338,8.37217,16.76628-14.96676-7.48338-8.38314c-6.60556-7.38463-10.40212-14.96676-12.11386-25.98335-.08778-2.15065-.2414-4.31227-.50474-6.15568-.06584-.76809.02194-1.75564.13167-4.27936l.13167-5.79358a204.63474,204.63474,0,0,1,2.019-24.35939,161.96751,161.96751,0,0,1,11.8944-44.08831,99.7861,99.7861,0,0,1,9.21707-16.82114,69.32693,69.32693,0,0,1,5.0255-6.58362c.70225-.82295,1.36061-1.52521,3.90628-4.23546l5.74969-8.08688Z" style="fill:#f59707"/><path d="M258,298.61458l-3.5-.08333a61.86413,61.86413,0,0,1-8.08333-.5625c-29.875-2.86458-61.95834-18.08333-79.375-37.8125l-7.10417-8.04167,15.95833-14.14583,7.125,8.05208c13.66667,15.46875,41.375,28.40625,65.91667,30.77084a43.68605,43.68605,0,0,0,5.72917.40625l3.375.08333c2.08333-.0625,6.1875-.17708,9.77083-.51042a169.81663,169.81663,0,0,0,22.20833-3.07291c12.77084-2.54167,23.85417-6.96875,32.14584-12.8125,7.22916-5.125,11.64583-10.61459,14.70833-18.34375,3.29167-8.08334,4.8125-19.6875,4.45833-33.63542-1.16666-24.59375-8.85416-39.8125-24.91666-49.11458C307.64583,154.46875,296,150.6875,284.25,149.3125l2.5-21.1875c14.89583,1.75,29.29167,6.47917,40.54167,13.32292C349.5,154.30208,361.125,176.14583,362.64583,208.125c.45834,17.09375-1.625,31.66667-5.97916,42.375-4.54167,11.45833-11.60417,20.3125-22.1875,27.80208C323.75,285.86458,309.85417,291.5,294.25,294.60417a188.44988,188.44988,0,0,1-24.70833,3.42708C265.6875,298.39583,261.04167,298.53125,258,298.61458Z" style="fill:#f59707"/><path d="M281.12891,193.74219c-3.54688.81054-21.776-1.55819-25.00912-2.66211-7.04492-1.87492-12.70573-7.16887-17.27539-13.59367-8.95052-13.18026-13.04492-30.35506-14.00911-48.00814a114.79274,114.79274,0,0,1,12.92773-9.36092c2.26563-1.43953,4.72591-2.7832,7.1569-4.12142a94.03526,94.03526,0,0,1,9.24219-4.211c12.125-5.20776,27.33854-6.1569,38.7526-5.1626-13.00651,13.16456-22.6719,24.17351-23.58463,45.03036S281.12891,193.74219,281.12891,193.74219Z" style="fill:#cd3e36"/><path d="M239.0026,230.52083a47.21631,47.21631,0,0,1-16.75911-12.66276c-26.155,13.332-60.0599,13.71094-91.84766-1.29948a121.70443,121.70443,0,0,0,25.9362,55.4987C191.46224,269.67578,220.5026,253.38672,239.0026,230.52083Zm19.2487,4.00782c-4.0612,29.0638-24.95052,56-54.655,73.63411,17.75521,8.03646,38.22526,12.90885,59.60026,11.556,18.37891-29.65495,22.46745-62.4375,17.79558-91.46745C273.65234,231.73958,264.88542,234.28,258.2513,234.52865Zm81.71094-11.01954a50.80957,50.80957,0,0,0-19.974-10.11979c-7.3112-2.39583-14.27734-4.35416-21.67057-4.98437.32943,1.43229.13541,3.45443.33594,4.89583-.3112-.01432.11849-.02864-.13282.05208.082.14584-.21744,1.13542-1.599,2.84766,20.51041,20.98958,25.69791,55.27344,21.42968,88.77083,16.79688-8.54687,33.26042-19.43229,47.09245-37.91276C360.97135,249.53906,352.36328,233.4987,339.96224,223.50911Zm43.08854-25.20182c-2.32943-20.46094-10.5664-42.66015-26.7513-60.30859-37.418.95182-65.78906,25.46484-70.69662,53.64323,3.099.51692,5.48438,1.293,7.638,3.849C316.73307,178.22526,352.70833,180.71224,383.05078,198.30729Z" style="fill:#cd3e36"/><path d="M357.82031,246.94661c-4.4362-8.89453-10.05989-16.7513-17.03906-22.62109-.67839,7.1276-1.93229,13.36849-3.90625,18.21615-3.0625,7.72916-7.47917,13.21875-14.70833,18.34375-1.17318.82682-2.79037,1.39453-4.07162,2.16276a139.53233,139.53233,0,0,1,1.49479,23.2513,91.05594,91.05594,0,0,0,14.88933-7.9974C345.0625,270.8125,352.125,261.95833,356.66667,250.5,357.10938,249.41146,357.42448,248.11458,357.82031,246.94661Z" style="fill:#c11107"/><path d="M267.8125,276.77083c-3.58333.33334-7.6875.44792-9.77083.51042l-3.375-.08333a43.68605,43.68605,0,0,1-5.72917-.40625c-2.75-.26563-5.54687-.70573-8.35286-1.22526a118.44185,118.44185,0,0,1-16.84245,18.02083,126.52466,126.52466,0,0,0,22.67448,4.38151,61.86413,61.86413,0,0,0,8.08333.5625l3.5.08333c3.04167-.08333,7.6875-.21875,11.54167-.58333,1.53515-.10677,3.13151-.5,4.681-.64974a129.8197,129.8197,0,0,0,6.23177-22.35937C276.24089,275.64583,272.02214,276.474,267.8125,276.77083Z" style="fill:#c11107"/><path d="M200.88932,260.33854C178.00083,250.25733,173.22786,231.89714,172.6224,228c-.00782-.1862-.03516-.34766-.04428-.53385a111.70678,111.70678,0,0,1-22.7552-3.84506c.02864.3711-.02474.96355.02083,1.28386.19661,1.32812.263,2.76562.35026,4.51041a23.22372,23.22372,0,0,0,.46094,4.543c2.26041,13.04558,7.92317,24.49089,17.3151,35.00261l1.3724,1.53646c2.33333-.40235,4.42057-1.237,6.67708-1.78.08724.07422.15365.15625.24089.22916A118.47258,118.47258,0,0,0,200.88932,260.33854Z" style="fill:#c11107"/><path d="M329.79492,142.97119a88.25383,88.25383,0,0,0-21.90674,12.50318,66.08,66.08,0,0,1,8.52832,4.31726c.78955.45709,1.54834.93713,2.293,1.42761a44.66122,44.66122,0,0,1,18.04834,22.71759,104.604,104.604,0,0,1,23.28467,3.99383C355.53955,167.76172,345.52051,152.92639,329.79492,142.97119Z" style="fill:#c11107"/><path d="M428.25876,127.98274c-12.887-25.02764-33.95857-46.34285-57.47864-59.94311-23.56229-14.01736-48.62361-21.61422-74.44026-24.70412a158.1749,158.1749,0,0,0-41.32952.53028,169.74342,169.74342,0,0,0-39.45673,10.88427c-25.4279,10.33568-50.19262,29.23905-66.10694,54.85748-15.82239,25.65147-21.693,54.84714-21.56056,80.6674l85.33425.17867c.43115-29.72235,10.83719-46.34639,35.04772-56.88965a84.8055,84.8055,0,0,1,19.09041-5.26327,71.43374,71.43374,0,0,1,19.384-.17365c14.47141,1.69309,29.02488,6.31344,40.34239,13.21107,23.07132,13.34365,34.07973,35.47907,35.57683,67.031.40621,15.53122-1.29106,30.55366-5.95431,42.07085-4.64479,11.63919-11.7672,20.44691-22.24364,27.89174-10.455,7.35837-24.31792,13.10763-40.15417,16.26121a186.87006,186.87006,0,0,1-24.53789,3.43044c-4.07589.36911-8.74712.50714-12.4848.57668a89.86151,89.86151,0,0,1-10.38469-.58028c-29.70274-2.84891-62.40918-18.09521-79.86462-37.866l-63.55408,56.94483c18.31631,20.3318,40.095,34.944,62.68239,45.61058a222.93589,222.93589,0,0,0,72.13123,20.20815,174.35812,174.35812,0,0,0,20.00137,1.01031c6.40138-.11553,11.89308-.31292,17.92473-.81584a271.83912,271.83912,0,0,0,35.72526-5.02947c23.88645-4.904,48.7665-13.98063,71.58711-29.93851,22.829-15.708,42.27506-39.76968,52.39515-65.99514,10.40285-26.33229,12.6859-52.5145,11.98593-77.42164A176.93961,176.93961,0,0,0,428.25876,127.98274Z" style="fill:#fdbc34"/><path d="M172.28125,190.36719c.28-2.5599.55339-5.13542.86458-7.638A153.7599,153.7599,0,0,1,184.4375,140.875a94.729,94.729,0,0,1,8.75-15.96875,65.81314,65.81314,0,0,1,4.77083-6.25c.66667-.78125,1.29167-1.44792,3.70834-4.02083l5.45833-7.67709c6.612-10.29687,18.10286-32.18229,15.26042-54.54427-2.26823.82031-4.58073,1.41537-6.832,2.33594a144.29547,144.29547,0,0,0-14.10547,6.99349C200.78646,75.28255,193.59115,88.55078,189.45833,95l-3.34142,4.941a10.38812,10.38812,0,0,1-1.27459,1.53971c-1.3588,1.3519-2.18927,2.26286-3.05065,3.25883a87.72961,87.72961,0,0,0-6.33334,8.3125,113.52332,113.52332,0,0,0-10.64583,19.46875,174.91552,174.91552,0,0,0-12.83333,47.52084c-.41537,3.36328-.80078,6.8125-1.15365,10.28125Z" style="fill:#f59707"/><path d="M213.77083,180.86458l-21.20833-2.1875c3.22917-31.5,18.3125-52.08333,47.41667-64.78125a107.70734,107.70734,0,0,1,24.20833-6.69791c8.39583-1.25,14.9375-1.29167,24.89583-.28125l-2.16666,21.22916a71.40031,71.40031,0,0,0-19.5625.15625A85.1801,85.1801,0,0,0,248.25,133.5625C226.60417,143.01042,216.20833,157.1875,213.77083,180.86458Z" style="fill:#f59707"/><path d="M214.85286,175.776c-26.29947-13.35286-50.62369-36.15495-63.23177-68.60677-11.25781,16.66016-17.46875,35.54167-20.7526,53.4974,12.18359,11.60286,26.02734,20.58463,39.98568,27.72526,13.90364,7.26692,28.74088,11.63672,43.37109,12.21614a43.97644,43.97644,0,0,1-.71745-11.13932A78.01168,78.01168,0,0,1,214.85286,175.776Z" style="fill:#cd3e36"/><path d="M165.01693,132.09635c-.0586.138-.14714.28646-.20443.42448a174.17949,174.17949,0,0,0-12.33984,45.02605,195.21559,195.21559,0,0,0,18.38151,10.84505c.51562.26953,1.05208.46354,1.569.72526.23307-2.14323.46224-4.29558.72265-6.388a158.35305,158.35305,0,0,1,7.73177-31.668A127.37421,127.37421,0,0,1,165.01693,132.09635Z" style="fill:#c11107"/><path d="M238.666,138.52271c-8.02881-28.008-4.353-61.97846,7.14257-93.01325a170.69082,170.69082,0,0,0-30.25488,9.2406A143.66073,143.66073,0,0,0,195.4668,64.85913a6.30391,6.30391,0,0,1-1.68116,1.54749c-1.48437,34.10748,8.9961,65.80859,28.80909,87.22686A50.11179,50.11179,0,0,1,238.666,138.52271Z" style="fill:#cd3e36"/><path d="M201.6665,114.63538l5.4585-7.67707c6.50244-10.12707,17.06348-32.61743,14.7124-54.623-2.10156.76745-4.19775,1.5617-6.28369,2.41479a142.33061,142.33061,0,0,0-13.91992,6.57068c-.50635,8.52344-4.27979,18.225-7.48731,24.83826a125.81423,125.81423,0,0,0,6.46534,29.604C200.979,115.37238,201.15869,115.17578,201.6665,114.63538Z" style="fill:#c11107"/><path d="M234.60807,116.58464c-10.27994,5.17838-18.599,11.51953-25.05208,19.15625a98.49559,98.49559,0,0,0,13.2474,18.08593,46.71973,46.71973,0,0,1,6.80729-7.7539c.1289-.125.25-.25651.38021-.38021a55.60717,55.60717,0,0,1,8.66406-6.6836c.04557-.02864.07422-.0638.11979-.09244A119.19008,119.19008,0,0,1,234.60807,116.58464Z" style="fill:#c11107"/><path d="M185.59291,100.5938s-.31032.323-.85909.97952c-.9605.95867-1.97337,2.01868-3.02772,3.28388a81.07923,81.07923,0,0,0-6.2049,8.12966,115.55421,115.55421,0,0,0-10.76777,19.73529,174.4705,174.4705,0,0,0-12.7596,47.218c-1.01527,8.47163-2.06658,17.01776-2.07422,25.86381.02071,4.07613-.48644,9.51494-.07613,12.47214.46587,3.079.19207,6.35981.89646,9.30557,2.04933,11.96084,7.41848,22.62377,16.31764,32.57262l-63.55409,56.94418c-18.30223-20.08938-32.26177-46.9174-36.86906-75.091-1.391-6.97938-1.47892-13.96164-2.07976-20.96027-.49973-7.16044.06809-11.89115.0743-17.95615.0899-11.45469,1.37172-23.15421,2.8301-34.79441A259.21853,259.21853,0,0,1,86.60684,98.40035,200.45611,200.45611,0,0,1,105.061,64.82025a165.61007,165.61007,0,0,1,12.30661-16.01948c2.22532-2.61239,4.69045-5.24645,7.32972-7.8689a99.78541,99.78541,0,0,1,10.4689-9.17811s33.753-24.81114,60.17119,8.92345C213.93888,64.43027,185.59291,100.5938,185.59291,100.5938Z" style="fill:#fdbc34"/><path d="M258.45833,383.92708a179.50241,179.50241,0,0,1-20.16666-1,223.38632,223.38632,0,0,1-72.125-20.21875c-21.14584-10-39.5625-22.58333-54.77084-37.40625L96.625,308.94792c-15.72917-20.1875-26.20833-43.75-30.02083-66.9375A111.98,111.98,0,0,1,65,227.5l-.47917-6.58333a103.6872,103.6872,0,0,1-.0625-11.33334c.08334-2.48958.14584-4.40625.14584-6.48958.10416-11.01042,1.20833-21.86458,2.83333-34.80208A260.86338,260.86338,0,0,1,86.60417,98.39583,202.89293,202.89293,0,0,1,105.0625,64.8125,168.4233,168.4233,0,0,1,117.375,48.80208c2.20833-2.60416,4.6875-5.23958,7.29167-7.86458a108.173,108.173,0,0,1,10.47916-9.17708c3.625-2.4375,14.20834-8.80209,27.22917-8.80209V44.29167c-5.8125,0-11.70833,2.80208-14.47917,4.58333a85.86061,85.86061,0,0,0-8.0625,7.08333c-2.22916,2.22917-4.33333,4.42709-6.27083,6.72917A144.48648,144.48648,0,0,0,122.75,76.76042a178.4883,178.4883,0,0,0-16.54167,30.07291,238.8236,238.8236,0,0,0-17.625,64.20834c-1.5,12.11458-2.54166,22.27083-2.64583,32.15625,0,2.28125-.0625,4.47916-.14583,6.67708a91.42078,91.42078,0,0,0,.02083,9.55208l.45833,6.17709a92.63522,92.63522,0,0,0,1.33334,12.65625c3.29166,20.02083,12.29166,40.16666,25.375,57.01041l13.79166,15.26042c13.02084,12.66667,29.5,23.90625,48.47917,32.875a202.56375,202.56375,0,0,0,65.54167,18.33333,151.06459,151.06459,0,0,0,17.58333.85417c5.54167-.10417,10.5625-.28125,16.20833-.75a251.58271,251.58271,0,0,0,33.0625-4.65625c24.16667-4.96875,45.60417-13.90625,63.75-26.57292,19.91667-13.71875,36.16667-34.20833,44.66667-56.22916,7.95833-20.14584,11.29167-42.0625,10.52083-69.0625a155.49816,155.49816,0,0,0-17.25-67.51042c-10.66666-20.69792-28.625-39.39583-49.35416-51.36458C340.125,74.625,318.52083,67.47917,293.83333,64.52083a142.07488,142.07488,0,0,0-35.60416.42709l-3.33334-21.0625a161.2773,161.2773,0,0,1,41.45834-.55209c27.72916,3.32292,52.0625,11.40625,74.41666,24.70834C394.83333,81.9375,415.8125,103.8125,428.25,127.98958a176.49052,176.49052,0,0,1,19.66667,76.73959c.85416,29.96875-2.95834,54.57291-11.97917,77.41666-9.97917,25.85417-29.08333,49.9375-52.375,66-20.5,14.30209-44.60417,24.38542-71.60417,29.9375a274.35024,274.35024,0,0,1-35.72916,5.03125C270.22917,383.60417,264.79167,383.80208,258.45833,383.92708Z" style="fill:#f59707"/><path d="M160.37744,251.58282c-.39819-.53253-.79565-1.06524-1.2146-1.58544-28.125,8.02734-61.27344,6.10284-92.54834-7.99091.00952.05609.02124.11182.03076.16791.19727,1.19659.43018,2.38745.66089,3.57873A150.82744,150.82744,0,0,0,79.91772,282.593c2.13892,4.28784,4.48633,8.449,6.989,12.48217,17.49585.01795,54.74292-12.17413,54.74292-12.17413l.00122-.00043,25.38672-22.74633A76.54622,76.54622,0,0,1,160.37744,251.58282Z" style="fill:#cd3e36"/><path d="M150.23314,197.05472c-.41612,5.77061-.32317,11.70217-.55464,17.54446a123.99876,123.99876,0,0,0,1.04144,12.98248c-14.648-1.61094-29.2658-6.08678-43.70789-12.98636a428.70765,428.70765,0,0,1-41.93523-23.03289c1.17917-15.46086,2.92361-31.03385,6.55532-46.6611C95.79148,166.65417,122.78816,183.67852,150.23314,197.05472Z" style="fill:#cd3e36"/><path d="M164.73343,132.72215a155.65281,155.65281,0,0,0-9.79526,30.66762c-25.5154-17.03468-48.91416-38.25453-68.33133-64.98942a198.37918,198.37918,0,0,1,26.36743-44.31784C124.08,85.94183,142.91914,111.73011,164.73343,132.72215Z" style="fill:#cd3e36"/><path d="M395.91553,87.32812a156.38031,156.38031,0,0,0-44.749,19.53772A164.46217,164.46217,0,0,0,316.835,136.08026a83.03164,83.03164,0,0,1,10.25,5.25781,69.96185,69.96185,0,0,1,12.352,9.02118c25.34912-15.62854,56.63965-22.24939,90.49658-18.371C421.35156,115.47913,410.11182,99.53381,395.91553,87.32812Z" style="fill:#cd3e36"/><path d="M445.7474,183.67188c-30.53907-13.17969-62.83855-18.84506-92.08334-13.41146a82.80532,82.80532,0,0,1,7.63151,25.64713c29.61068,5.63672,58.67709,19.07162,85.58854,38.474A223.09806,223.09806,0,0,0,445.7474,183.67188Z" style="fill:#cd3e36"/><path d="M401.25635,250.30988a193.95729,193.95729,0,0,0-39.147-24.06861,86.93343,86.93343,0,0,1-5.40186,24.19867c-.32715.81989-.66992,1.62225-1.022,2.41455,22.97412,18.7143,39.792,46.12653,46.32812,80.01a149.7255,149.7255,0,0,0,24.42481-31.14374c.50879-.88171,1.01269-1.76574,1.5-2.65649l.00146-.00262a124.65851,124.65851,0,0,0,6.09766-12.77131C424.88135,272.17706,412.94531,260.06506,401.25635,250.30988Z" style="fill:#cd3e36"/><path d="M311.94824,378.08228a203.66745,203.66745,0,0,0,44.56592-14.45734c1.98633-16.66455,2.292-32.37171-.10645-48.03381a131.75624,131.75624,0,0,0-14.22949-43.56488c-.021.01684-.042.03308-.06347.04992a70.84288,70.84288,0,0,1-7.65088,6.2555,87.91328,87.91328,0,0,1-13.93848,7.9165l-.09326.05127c3.20264,29.67633-1.69531,61.6991-12.40527,92.56476C309.333,378.61176,310.64014,378.35388,311.94824,378.08228Z" style="fill:#cd3e36"/><path d="M209.1237,377.78906a201.47751,201.47751,0,0,0,51.11719,6.13281c15.23307-28.68749,26.6302-58.82617,31.92578-88.90169a230.1381,230.1381,0,0,1-33.099,3.57617C249.83984,327.25,232.40365,354.2487,209.1237,377.78906Z" style="fill:#cd3e36"/><path d="M200.4349,284.16016a210.72444,210.72444,0,0,1-80.66016,48.40494,210.24146,210.24146,0,0,0,42.707,28.02474c27.60677-18.24349,50.25912-40.40885,67.33984-65.58593A148.85623,148.85623,0,0,1,200.4349,284.16016Z" style="fill:#cd3e36"/><path d="M288.45117,128.85978a73.25439,73.25439,0,0,0-25.93555.76652C265.0612,100.02,278.319,69.897,300.00716,44.3125a194.79524,194.79524,0,0,1,50.10547,13.87736A192.72961,192.72961,0,0,0,288.45117,128.85978Z" style="fill:#cd3e36"/><path d="M110.2373,291.59711a130.82546,130.82546,0,0,1-19.96264-41.29065,145.86277,145.86277,0,0,1-23.66016-8.3c.00122.00659-.0061.01331-.00732.02a147.02467,147.02467,0,0,0,20.36719,53.03869C93.11011,294.96106,101.98242,293.48041,110.2373,291.59711Z" style="fill:#c11107"/><path d="M418.78516,266.87329q-1.25831,3.80192-2.72266,7.51209c-.43945,1.1383-.9082,2.26916-1.39111,3.39611a122.43146,122.43146,0,0,1-19.3794,31.13172,150.07226,150.07226,0,0,1,6.64942,23.84979,6.95579,6.95579,0,0,1,1.05908-.83758,146.10844,146.10844,0,0,0,31.20459-45.551A156.87638,156.87638,0,0,0,418.78516,266.87329Z" style="fill:#c11107"/><path d="M170.68066,341.17029A189.76032,189.76032,0,0,1,142.312,323.7439a243.72074,243.72074,0,0,1-22.95434,8.84887,204.16577,204.16577,0,0,0,42.75341,28.14789c6.59058-4.384,13.89185-9.56958,19.84986-14.33685-2.24121-.95917-4.47852-1.95178-6.71094-2.99756-1.48438-.70135-2.94727-1.42145-4.40039-2.15015C170.793,341.2276,170.73682,341.19885,170.68066,341.17029Z" style="fill:#c11107"/><path d="M240.7915,361.73956c-5.18457-.55078-10.272-1.34112-15.31738-2.25909a243.4438,243.4438,0,0,1-16.51611,18.3587,223.90241,223.90241,0,0,0,29.33887,5.07807,173.82287,173.82287,0,0,0,19.93652,1.00952c.48242-.01209.96875-.029,1.44775-.03614.20166-.0039.38379-.01306.583-.01824Q266.0166,373.03253,271,362.00909c-4.22656.27216-8.30859.50391-12.625.58466A151.07373,151.07373,0,0,1,240.7915,361.73956Z" style="fill:#c11107"/><path d="M67.4375,168.29163c-1.13647,9.04736-2.0083,17.06982-2.47144,24.84552,6.74244,3.65,15.41114,7.61108,20.9585,10.63629.00122-.19532.01294-.37891.01294-.57556.10425-9.88538,1.14575-20.04163,2.64575-32.15625q.73206-5.41717,1.676-10.71283c-6.00074-4.59565-12.90528-10.30848-18.67017-15.43952Q69.06482,156.31607,67.4375,168.29163Z" style="fill:#c11107"/><path d="M356.49609,363.37109a210.46834,210.46834,0,0,0,1.5586-24.5026,174.14856,174.14856,0,0,1-42.97005,16.431q-2.97267,11.76367-7.043,23.46614c1.30859-.2526,2.60807-.41145,3.91666-.68229A203.0581,203.0581,0,0,0,356.49609,363.37109Z" style="fill:#c11107"/><path d="M447.04785,234.49451a244.07375,244.07375,0,0,0,.86865-29.76752,181.5187,181.5187,0,0,0-1.82031-20.98016,212.19418,212.19418,0,0,0-23.40625-8.45777,160.08768,160.08768,0,0,1,3.89356,30.03382c.15625,5.48437.02441,10.62762-.16162,15.72009C433.33984,225.09064,440.37158,229.68347,447.04785,234.49451Z" style="fill:#c11107"/><path d="M428.25,127.98956A148.21392,148.21392,0,0,0,396.63135,87.098a183.39206,183.39206,0,0,0-23.49756,8.14319A130.61039,130.61039,0,0,1,405.52,131.03253a178.21737,178.21737,0,0,1,24.70752.86676C429.583,130.58667,428.92773,129.28076,428.25,127.98956Z" style="fill:#c11107"/><path d="M285.65527,63.83661c2.80664.15277,5.55567.37939,8.17823.6842a175.95247,175.95247,0,0,1,37.57373,8.57044,212.67914,212.67914,0,0,1,19.40234-15.29132,189.76725,189.76725,0,0,0-50.46973-13.9422A193.19178,193.19178,0,0,0,285.65527,63.83661Z" style="fill:#c11107"/><path d="M101.90112,117.40833q2.02954-5.37864,4.30713-10.575a178.38176,178.38176,0,0,1,16.47339-29.96893,201.43954,201.43954,0,0,1-9.7334-22.73041c-2.8081,3.51843-5.42578,7.07141-7.88574,10.67853A202.88383,202.88383,0,0,0,86.60425,98.39581c-.01245.02838-.02417.05731-.03687.0857C91.26709,104.86511,96.822,111.66779,101.90112,117.40833Z" style="fill:#c11107"/><path d="M266.66667,234.66667c-52.72917,0-53.33334-30.69792-53.33334-32H224l10.64583-.59375c.52084,3.89583,7.89584,11.26041,32.02084,11.26041,8.1875,0,11.52083-1.88541,12.5625-2.69791a3.30513,3.30513,0,0,0,1.39583-3.0625c0-6.54167-8.08333-15.57292-13.95833-15.57292V170.66667c17.8125,0,35.29166,18.28125,35.29166,36.90625A24.62621,24.62621,0,0,1,292.25,227.54167C286.10417,232.27083,277.5,234.66667,266.66667,234.66667Z" style="fill:#f59707"/></g></svg>