<svg xmlns="http://www.w3.org/2000/svg" viewBox="0 0 512 512"><title>Artboard 122</title><g id="Macaron"><rect x="42.66667" y="192" width="426.66667" height="128" rx="63.99994" ry="63.99994" style="fill:#c82e25"/><path d="M448,256c-29.86458,0-51.40625-9.0625-64-16.45833C371.40625,246.9375,349.86458,256,320,256V234.66667c29.60417,0,49-10.35417,57.9375-16.53125L384,213.9375l6.0625,4.19792C399,224.3125,418.39583,234.66667,448,234.66667Z" style="fill:#af0a00"/><path d="M320,256a63.99984,63.99984,0,0,0-64-64H106.66667a64,64,0,1,0,0,128H256A63.99984,63.99984,0,0,0,320,256Z" style="fill:#cd3e36"/><path d="M192,256c-29.86458,0-51.40625-9.0625-64-16.45833C115.40625,246.9375,93.86458,256,64,256V234.66667c29.60417,0,49-10.35417,57.9375-16.53125L128,213.9375l6.0625,4.19792C143,224.3125,162.39583,234.66667,192,234.66667s49-10.35417,57.9375-16.53125l12.125,17.54166C251.09375,243.27083,227.39583,256,192,256Z" style="fill:#c11107"/><path d="M448,149.33333S426.66667,64,256,64,64,149.33333,64,149.33333s-42.66667,0-42.66667,42.66667c0,21.33333,21.33334,42.66667,42.66667,42.66667,42.66667,0,64-21.33334,64-21.33334s21.33333,21.33334,64,21.33334,64-21.33334,64-21.33334,21.33333,21.33334,64,21.33334,64-21.33334,64-21.33334,21.33333,21.33334,64,21.33334c21.33333,0,42.66667-21.33334,42.66667-42.66667C490.66667,149.33333,448,149.33333,448,149.33333Z" style="fill:#fdcf6d"/><path d="M448,234.66667c-40.89583,0-61.71875-19.11459-63.95833-21.29167L384,213.33333l-.0625.0625c-2.29167,2.21875-23.09375,21.27084-63.9375,21.27084V213.33333c32.625,0,48.39583-14.60416,49.05208-15.21875l14.84375-14.59375,15.01042,14.55209c.64583.61458,16.41667,15.26041,49.09375,15.26041,9.57292,0,21.33333-11.76041,21.33333-21.33333h21.33334C490.66667,213.53125,469.53125,234.66667,448,234.66667Z" style="fill:#fdbc34"/><path d="M64,362.66667S85.33333,448,256,448s192-85.33333,192-85.33333,42.66667,0,42.66667-42.66667c0-21.33333-21.33334-42.66667-42.66667-42.66667-42.66667,0-64,21.33334-64,21.33334s-21.33333-21.33334-64-21.33334-64,21.33334-64,21.33334-21.33333-21.33334-64-21.33334-64,21.33334-64,21.33334-21.33333-21.33334-64-21.33334c-21.33333,0-42.66667,21.33334-42.66667,42.66667C21.33333,362.66667,64,362.66667,64,362.66667Z" style="fill:#fdcf6d"/><path d="M256,448V426.66667c148.22917,0,171.20833-68.90625,171.42708-69.59375l3.97917-15.55209,16.40625-.1875c8.04167-.09375,21.52083-2.98958,21.52083-21.33333,0-9.57292-11.76041-21.33333-21.33333-21.33333-32.625,0-48.39583,14.60416-49.05208,15.21875l-7.41667,7.29166-14.95833-15.20833,7.48958-7.36458c2.29167-2.21875,23.09375-21.27084,63.9375-21.27084,21.53125,0,42.66667,21.13542,42.66667,42.66667,0,29.125-21.39584,42.41667-42.60417,42.66667l-.07292.07291C446.97917,366.40625,422.46875,448,256,448Z" style="fill:#fdbc34"/><path d="M341.33333,192c0-42.66667-42.66666-42.66667-42.66666-42.66667s-6.32485-24.7421-38.86376-47.56266c-46.631-32.70379-110.30815-32.70379-156.93915,0C70.32485,124.59123,64,149.33333,64,149.33333s-43.90613,0-42.63934,44.53985c.65622,23.07239,19.58708,40.79806,42.6688,40.793C106.67663,234.6567,128,213.33333,128,213.33333s21.33333,21.33334,64,21.33334,64-21.33334,64-21.33334,16.65234,16.55469,49.849,20.46875C324.53516,229.77214,341.33333,210.92708,341.33333,192Z" style="fill:#fee3aa"/><path d="M192,234.66667c-41.78125,0-63.02083-20.375-63.98958-21.33334l-.07292.0625c-2.29167,2.21875-23.08333,21.26042-63.90625,21.27084-23.28125,0-42.02083-17.91667-42.66667-40.79167-.375-13.17708,3.17709-23.73958,10.54167-31.39583,12.47917-13,31.35417-13.14584,32.15625-13.14584v21.33334c-2.83333.08333-11.82292,1.4375-16.77083,6.59375-3.26042,3.38541-4.80209,8.77083-4.59375,16.01041.3125,11.25,9.6875,20.0625,21.33333,20.0625,32.59375-.01041,48.36458-14.60416,49.02083-15.21875l14.83334-14.59375,15.02083,14.54167c.67708.64583,16.42708,15.27083,49.09375,15.27083,32.625,0,48.39583-14.60416,49.05208-15.21875l14.78125-14.55208,15.02084,14.45833c.01041.01042,12.35416,11.17709,35.82291,14.375l-2.89583,21.14584C273.98958,229.46875,257.91667,215.125,256.17708,213.5L256,213.33333l-.0625.0625C253.64583,215.61458,232.84375,234.66667,192,234.66667Z" style="fill:#fdcf6d"/><path d="M298.66667,362.66667s42.66666,0,42.66666-42.66667c0-18.92708-16.79817-37.77214-35.48437-41.80208C272.65234,282.112,256,298.66667,256,298.66667s-21.33333-21.33334-64-21.33334-64,21.33334-64,21.33334-21.32337-21.32337-63.97054-21.33281c-23.08172-.0051-42.01258,17.72057-42.6688,40.793C20.09387,362.66667,64,362.66667,64,362.66667s6.32485,24.7421,38.86376,47.56266c46.631,32.70379,110.30814,32.70379,156.93915,0C292.34182,387.40877,298.66667,362.66667,298.66667,362.66667Z" style="fill:#fee3aa"/><path d="M181.33333,434.76042a135.81672,135.81672,0,0,1-78.46875-24.53125C72.5,388.9375,64.82292,365.4375,64.01042,362.66667h-.14584c-.15625,0-19.51041-.1875-31.96875-13.15625-7.35416-7.64584-10.90625-18.20834-10.53125-31.38542.64584-22.875,19.38542-40.79167,42.66667-40.79167,40.875.01042,61.6875,19.11459,63.92708,21.29167l.04167.04167.0625-.0625c2.29167-2.21875,23.09375-21.27084,63.9375-21.27084,40.89583,0,61.71875,19.11459,63.95833,21.29167l-14.875,15.29167c-.63541-.60417-16.40625-15.25-49.08333-15.25-32.625,0-48.39583,14.60416-49.05208,15.21875l-14.84375,14.59375-15.01042-14.55209c-.64583-.61458-16.40625-15.25-49.0625-15.26041-11.64583,0-21.02083,8.8125-21.33333,20.0625-.20834,7.23958,1.33333,12.625,4.58333,16,4.94792,5.15625,13.91667,6.52083,16.94792,6.60416l16.0625.20834,4.30208,15.54166c.02083.0625,5.83333,18.36459,30.52083,35.6875a114.67356,114.67356,0,0,0,66.21875,20.65625Z" style="fill:#fdcf6d"/><circle cx="245.33333" cy="96" r="10.66667" style="fill:#fdcf6d"/><circle cx="309.33333" cy="160" r="32" style="fill:#fdcf6d"/><circle cx="384" cy="192" r="21.33333" style="fill:#fdbc34"/><circle cx="384" cy="320" r="21.33333" style="fill:#fdbc34"/><circle cx="394.66667" cy="117.33333" r="10.66667" style="fill:#fdbc34"/><circle cx="330.66667" cy="416" r="10.66667" style="fill:#fdbc34"/><circle cx="138.66667" cy="117.33333" r="10.66667" style="fill:#fdcf6d"/><circle cx="298.66667" cy="362.66667" r="21.33333" style="fill:#fdcf6d"/><circle cx="202.66667" cy="416" r="10.66667" style="fill:#fdcf6d"/><circle cx="330.66667" cy="309.33333" r="10.66667" style="fill:#fdcf6d"/><circle cx="117.33333" cy="352" r="10.66667" style="fill:#fdcf6d"/><circle cx="288" cy="117.33333" r="10.66667" style="fill:#fdcf6d"/></g></svg>