<?xml version="1.0" encoding="utf-8"?>
<!-- Generator: Adobe Illustrator 24.0.1, SVG Export Plug-In . SVG Version: 6.00 Build 0)  -->
<svg version="1.1" id="Layer_1" xmlns="http://www.w3.org/2000/svg" xmlns:xlink="http://www.w3.org/1999/xlink" x="0px" y="0px"
	 viewBox="0 0 512 512" style="enable-background:new 0 0 512 512;" xml:space="preserve">
<style type="text/css">
	.st0{fill:#B99E69;}
	.st1{fill:#D4C3A2;}
	.st2{fill:#EAE2CE;}
	.st3{fill:#C5AF83;}
	.st4{fill:#8B2800;}
	.st5{fill:#993B17;}
	.st6{fill:#7D1A00;}
	.st7{fill:#C82E25;}
	.st8{fill:#CD3E36;}
	.st9{fill:#AF0A00;}
	.st10{fill:#D96C66;}
	.st11{fill:#D2514A;}
	.st12{fill:#B7745A;}
	.st13{fill:#C99884;}
	.st14{fill:#A34E2D;}
	.st15{fill:#A37F39;}
	.st16{fill:#AD6143;}
	.st17{fill:#CC4900;}
	.st18{fill:#E76400;}
	.st19{fill:#EF7F00;}
	.st20{fill:#BF3C00;}
	.st21{fill:#F59707;}
	.st22{fill:#FDBC34;}
	.st23{fill:#FDAB00;}
	.st24{fill:#C11107;}
	.st25{fill:#FEE3AA;}
	.st26{fill:#FDCF6D;}
</style>
<title>Artboard 115</title>
<g id="Softdrink">
	<path class="st0" d="M288.4,249.3v-86.1c0-34.5-38.8-51.7-38.8-86.1V42.6h-77.5V77c0,34.5-38.8,51.7-38.8,86.1v86.1
		c0,17.2,19.4,34.5,19.4,51.7v34.5c0,17.2-19.4,17.2-19.4,34.5v17.2c0,0,0,17.2,19.4,17.2H269c19.4,0,19.4-17.2,19.4-17.2v-17.2
		c0-17.2-19.4-17.2-19.4-34.5V301C269,283.7,288.4,266.5,288.4,249.3z"/>
	<path class="st1" d="M249.6,387.1v-17.2c0-17.2-19.4-17.2-19.4-34.5V301c0-17.2,19.4-34.5,19.4-51.7v-86.1
		c0-34.5-38.8-51.7-38.8-86.1V42.6h-38.8V77c0,34.5-38.8,51.7-38.8,86.1v86.1c0,17.2,19.4,34.5,19.4,51.7v34.5
		c0,17.2-19.4,17.2-19.4,34.5v17.2c0,0,0,17.2,19.4,17.2h77.5C249.6,404.3,249.6,387.1,249.6,387.1z"/>
	<path class="st2" d="M160.4,267.4c-5.3-9.4-7.6-14.2-7.6-18.1v-86.1c0-12,7.5-22,16.1-33.5l16.1,9.6c-8.7,11.7-12.9,17.8-12.9,24
		v86.1c0.4,1.2,4.3,8.2,5.6,10.4L160.4,267.4z"/>
	<rect x="230.2" y="163.1" class="st3" width="19.4" height="86.1"/>
	<path class="st4" d="M288.4,249.3v-51.7h-155v51.7c0,17.2,19.4,34.5,19.4,51.7v34.5c0,17.2-19.4,17.2-19.4,34.5v17.2
		c0,0,0,17.2,19.4,17.2H269c19.4,0,19.4-17.2,19.4-17.2v-17.2c0-17.2-19.4-17.2-19.4-34.5V301C269,283.7,288.4,266.5,288.4,249.3z"
		/>
	<path class="st5" d="M249.6,249.3v-51.7H133.3v51.7c0,17.2,19.4,34.5,19.4,51.7v34.5c0,17.2-19.4,17.2-19.4,34.5v17.2
		c0,0,0,17.2,19.4,17.2h77.5c19.4,0,19.4-17.2,19.4-17.2v-17.2c0-17.2-19.4-17.2-19.4-34.5V301C230.2,283.7,249.6,266.5,249.6,249.3
		z"/>
	<path class="st6" d="M269,404.3h-19.4v-17.2H269v-17.2c0-1.3,0-1.5-4-5c-5.8-5.1-15.4-13.7-15.4-29.4V301
		c0-12.7,6.2-23.7,11.7-33.5c3.8-6.7,7.7-13.6,7.7-18.2v-51.7h19.4v51.7c0,8.6-4.9,17.4-9.7,25.8c-5,8.9-9.7,17.2-9.7,25.8v34.5
		c0,8.6,4.9,13,9.7,17.2c5,4.4,9.7,8.6,9.7,17.2v17.2C288.1,397.6,280.5,404.3,269,404.3z"/>
	<path class="st7" d="M172.1,25.3h77.5c10.7,0,19.4,7.7,19.4,17.2c0,0,0,0,0,0v17.2l0,0H152.7l0,0V42.6
		C152.7,33,161.4,25.3,172.1,25.3C172.1,25.3,172.1,25.3,172.1,25.3z"/>
	<path class="st8" d="M210.8,25.3h-38.8c-10.7,0-19.4,7.7-19.4,17.2c0,0,0,0,0,0v17.2h77.5V42.6C230.2,33,221.6,25.3,210.8,25.3
		C210.8,25.3,210.8,25.3,210.8,25.3z"/>
	<rect x="172.1" y="42.6" class="st9" width="19.4" height="17.2"/>
	<rect x="152.7" y="42.6" class="st7" width="19.4" height="17.2"/>
	<rect x="191.5" y="42.6" class="st10" width="19.4" height="17.2"/>
	<rect x="230.2" y="42.6" class="st11" width="19.4" height="17.2"/>
	<rect x="210.8" y="42.6" class="st7" width="19.4" height="17.2"/>
	<rect x="249.6" y="42.6" class="st9" width="19.4" height="17.2"/>
	<path class="st12" d="M172.1,387.1h-19.4v-18.9l3-2.5c6.8-6,16.4-14.5,16.4-30.3V301c0-12.7-6.2-23.7-11.7-33.5
		c-5.3-9.4-7.7-14.3-7.7-18.2v-34.5h19.4v34.5c0.4,1.2,4.3,8.2,5.6,10.4c5.8,10.4,13.8,24.5,13.8,41.3v34.5
		c0,21.2-12.1,33.5-19.4,40.1V387.1z"/>
	<path class="st13" d="M160.4,267.4c-5.3-9.4-7.6-14.2-7.6-18.1v-51.7h19.4v51.7c0.4,1.2,4.3,8.2,5.6,10.4L160.4,267.4z"/>
	<rect x="230.2" y="197.6" class="st14" width="19.4" height="51.7"/>
	<rect x="152.7" y="369.9" class="st13" width="19.4" height="17.2"/>
	<rect x="230.2" y="369.9" class="st14" width="19.4" height="17.2"/>
	<rect x="152.7" y="387.1" class="st4" width="77.5" height="17.2"/>
	<rect x="210.8" y="59.8" class="st15" width="38.8" height="17.2"/>
	<rect x="191.5" y="59.8" class="st3" width="19.4" height="17.2"/>
	<path class="st0" d="M424,145.9H249.6v34.5c0,68.9,19.4,103.4,19.4,137.8v68.9c0,17.2,19.4,17.2,19.4,17.2h96.9
		c0,0,19.4,0,19.4-17.2v-68.9c0-34.5,19.4-68.9,19.4-137.8L424,145.9z"/>
	<path class="st15" d="M327.1,404.3v-17.2h58.1l0.1-68.9c0-16,3.5-31.1,7.6-48.6c5.3-22.6,11.8-50.6,11.8-89.2v-34.5H424v34.5
		c0,40.5-6.7,69.3-12.2,92.6c-3.9,16.7-7.2,31-7.2,45.3v68.9c0,10.2-7.5,16.9-19.2,17.2H327.1z"/>
	<path class="st1" d="M327.1,387.1v-68.9c0-34.5,19.4-68.9,19.4-137.8v-34.5h-96.9v34.5c0,68.9,19.4,103.4,19.4,137.8v68.9
		c0,17.2,19.4,17.2,19.4,17.2h19.4C307.7,404.3,327.1,404.3,327.1,387.1z"/>
	<path class="st2" d="M307.7,387.1h-19.4v-68.9c0-16-3.7-31.8-7.6-48.6c-5.6-23.8-11.8-50.5-11.8-89.2h19.4c0,36.9,6,62.8,11.4,85.6
		c4.1,17.8,8,34.5,8,52.3L307.7,387.1z"/>
	<path class="st4" d="M276.2,249.3c1.5,7.1,3,13.7,4.5,20.2c4.1,17.6,7.6,32.7,7.6,48.8v34.5c0,9.5,8.7,17.2,19.4,17.2h58.1
		c10.7,0,19.4-7.7,19.4-17.2v-34.5c0-16,3.5-31.2,7.6-48.8c1.5-6.4,3-13.1,4.5-20.2H276.2z"/>
	<path class="st16" d="M276.2,249.3c1.5,7.1,3,13.7,4.5,20.2c4.1,17.6,7.6,32.7,7.6,48.8v34.5c0,9.5,8.7,17.2,19.4,17.2h19.4v-51.7
		c0-20.5,6.8-41.2,12.4-68.9L276.2,249.3z"/>
	<path class="st13" d="M307.7,352.6v-34.5c0-17.7-3.9-34.4-8-52.3c-1.2-5.3-2.5-10.9-3.8-16.7h-19.7c0,0,0,0.1,0,0.1
		c1.3,6.3,2.7,12.1,4,17.9c0.2,0.8,0.4,1.6,0.5,2.3c1.6,6.7,3,13.2,4.3,19.7c1.9,9.8,3.3,19.2,3.3,28.9v34.5
		c0,9.5,8.7,17.2,19.4,17.2h19.4v-17.2H307.7z"/>
	<rect x="365.9" y="163.1" class="st1" width="38.8" height="17.2"/>
	<rect x="269" y="163.1" class="st2" width="58.1" height="17.2"/>
</g>
<g id="Burger">
	<path class="st17" d="M429.4,488.7H302.3c-35.1,0-63.5-28-63.5-62.6l0,0v0l0,0H493l0,0v0C493,460.7,464.5,488.7,429.4,488.7
		L429.4,488.7z"/>
	<rect x="404" y="426.1" class="st18" width="76.3" height="25"/>
	<path class="st19" d="M416.7,426.1H238.8c0,34.6,28.4,62.6,63.5,62.6h50.8C388.3,488.7,416.7,460.7,416.7,426.1z"/>
	<path class="st20" d="M429.4,488.7v-25c17.4,0,32.6-11.6,36.9-28.2l24.6,6.3C483.7,469.4,458.4,488.7,429.4,488.7z"/>
	<rect x="251.5" y="426.1" class="st21" width="152.5" height="25"/>
	<polygon class="st22" points="365.9,463.7 251.5,413.6 480.3,413.6 	"/>
	<polygon class="st23" points="363.3,451.1 447.7,414.2 452.9,425.6 368.5,462.5 	"/>
	<path class="st4" d="M264.2,376.1h203.3c14,0,25.4,11.2,25.4,25v0c0,13.8-11.4,25-25.4,25H264.2c-14,0-25.4-11.2-25.4-25v0
		C238.8,387.3,250.2,376.1,264.2,376.1z"/>
	<path class="st5" d="M264.2,376.1h127.1c14,0,25.4,11.2,25.4,25v0c0,13.8-11.4,25-25.4,25H264.2c-14,0-25.4-11.2-25.4-25v0
		C238.8,387.3,250.2,376.1,264.2,376.1z"/>
	<ellipse class="st24" cx="372.2" cy="388.6" rx="57.2" ry="25"/>
	<ellipse class="st7" cx="423.1" cy="382.3" rx="57.2" ry="31.3"/>
	<ellipse class="st7" cx="308.7" cy="376.1" rx="57.2" ry="25"/>
	<ellipse class="st11" cx="423.1" cy="382.3" rx="44.5" ry="18.8"/>
	<path class="st25" d="M251.5,376.1c0,0,0,12.5,25.4,12.5c25.4,0,25.4,12.5,38.1,12.5c12.7,0,12.7-12.5,38.1-12.5
		c25.4,0,22.9,12.5,36.9,12.5c13.9,0,13.9-12.5,39.4-12.5c25.4,0,50.8,0,50.8-25H251.5V376.1z"/>
	<path class="st19" d="M315,376.1c0-48.4,39.8-87.6,88.9-87.6s89,39.2,89,87.6c0,0,0,0,0,0.1H315z"/>
	<ellipse class="st18" cx="404" cy="313.5" rx="50.8" ry="25"/>
	<path class="st6" d="M423.1,426.1c-8.2,0-16.3-0.9-24.3-2.7c-8.7,1.8-17.6,2.7-26.6,2.7c-21.5,0-40.9-4.7-53.8-12.9
		c-3.2,0.2-6.4,0.4-9.8,0.4c-22.2,0-42.3-4.9-55.1-13.6l7.2-10.3c10.7,7.2,28.2,11.4,47.9,11.4c3.7,0,7.4-0.2,10.9-0.5l2.4-0.2
		l1.9,1.4c15.1,10.7,46.8,15.1,73.6,9.2l1.5-0.3l1.4,0.3c7.4,1.8,15.1,2.7,22.7,2.7c22,0,41.7-6.7,51.4-17.6l9.5,8.3
		C471.7,418,449,426.1,423.1,426.1z"/>
	<rect x="429.4" y="351.1" class="st22" width="50.8" height="25"/>
	<path class="st21" d="M238.8,376.1c0-48.4,39.8-87.6,88.9-87.6s89,39.2,89,87.6c0,0,0,0,0,0.1H238.8z"/>
	<rect x="251.5" y="351.1" class="st26" width="152.5" height="25"/>
	<ellipse class="st19" cx="327.7" cy="313.5" rx="50.8" ry="25"/>
	<ellipse class="st25" cx="289.6" cy="319.8" rx="12.7" ry="6.3"/>
	<ellipse class="st25" cx="327.7" cy="294.7" rx="12.7" ry="6.3"/>
	<ellipse class="st25" cx="365.9" cy="307.3" rx="12.7" ry="6.3"/>
	<ellipse class="st26" cx="429.4" cy="307.3" rx="12.7" ry="6.3"/>
	<ellipse class="st26" cx="391.3" cy="294.7" rx="12.7" ry="6.3"/>
</g>
<g id="French_Fries">
	<polygon class="st17" points="22.8,392.5 22.8,340.7 56.4,340.7 56.4,349.4 73.2,349.4 73.2,332.1 157.3,332.1 157.3,323.5 
		191,323.5 191,392.5 	"/>
	<rect x="115.3" y="306.3" class="st18" width="33.6" height="129.3"/>
	<rect x="123.7" y="314.9" class="st17" width="8.4" height="129.3"/>
	<rect x="31.2" y="323.5" class="st21" width="33.6" height="120.7"/>
	<rect x="39.6" y="332.1" class="st23" width="8.4" height="120.7"/>
	<rect x="39.6" y="349.4" class="st22" width="8.4" height="43.1"/>
	<polygon class="st19" points="31.2,363 31.2,392.5 64.8,392.5 64.8,358 36.1,358 	"/>
	<polygon class="st21" points="173.2,330.3 197,354.6 107.8,446.1 84,421.7 	"/>
	<polygon class="st22" points="141.7,376.5 175.4,342 181.3,348.1 147.7,382.6 	"/>
	<polygon class="st19" points="123.7,429.8 132.1,421.2 132.1,372.4 123.7,381 	"/>
	<rect x="90.1" y="314.9" class="st23" width="33.6" height="129.3"/>
	<rect x="56.4" y="306.3" class="st22" width="33.6" height="129.3"/>
	<rect x="64.8" y="314.9" class="st26" width="8.4" height="120.7"/>
	<rect x="64.8" y="332.1" class="st25" width="8.4" height="17.2"/>
	<rect x="81.6" y="306.3" class="st23" width="8.4" height="129.3"/>
	<rect x="90.1" y="323.5" class="st21" width="8.4" height="112.1"/>
	<polygon class="st19" points="112.5,392.5 160.1,392.5 185.7,366.2 177.6,358 146.2,358 	"/>
	<polygon class="st18" points="123.7,392.5 132.1,392.5 132.1,372.4 123.7,381 	"/>
	<path class="st21" d="M90.1,380.7v11.8h33.6v-11.7c-4.5,1.9-10,3.1-16.8,3.1C100,383.9,94.5,382.6,90.1,380.7z"/>
	<path class="st21" d="M56.4,392.5h33.6v-11.8C77,375.3,73,364.4,72.8,363.9l-1.9-5.9H56.4V392.5z"/>
	<path class="st24" d="M174.1,366.6h-25.2c0,0-8.4,25.9-42,25.9s-42-25.9-42-25.9H39.6l-25.2,25.9l16.8,86.2L48,496
		c0,0,25.2-8.6,58.9-8.6s58.9,8.6,58.9,8.6l16.8-17.2l16.8-86.2L174.1,366.6z"/>
	<path class="st7" d="M55.7,484.8l-6.8-105l8.4-0.6l6.2,95.1c14.3-2.8,28.8-4.2,43.4-4.3v8.6c-15.6,0-31.2,1.7-46.4,5L55.7,484.8z"
		/>
	<polygon class="st11" points="50.3,401.4 58.7,400.9 61.5,443.9 53.1,444.5 	"/>
	<path class="st9" d="M165.7,495.9l-5-1.4c-9.6-2.7-29.4-7.1-53.9-7.1v-8.6c17.2,0,34.4,2.1,51.2,6.1l7.1-109.6h-10.9
		c-5.1,9.3-18.3,25.9-47.4,25.9c-31.8,0-44.6-19.8-48.6-28.3l7.6-3.8c3.3,7,14,23.4,41,23.4s37.7-16.4,41-23.4l1.1-2.4h25.1
		L165.7,495.9z"/>
	<ellipse class="st23" cx="106.9" cy="435.6" rx="25.2" ry="25.9"/>
	<polygon class="st9" points="174.1,366.6 165.7,496 182.6,478.7 199.4,392.5 	"/>
	<polygon class="st11" points="39.6,366.6 48,496 31.2,478.7 14.4,392.5 	"/>
</g>
</svg>
