<svg xmlns="http://www.w3.org/2000/svg" viewBox="0 0 512 512"><title>Artboard 120</title><g id="Meat"><path d="M21.33333,283.42857C21.33333,356.57143,68.26667,448,256,448c140.8,0,234.66667-48.7619,234.66667-170.66667,0-128-64-213.33333-211.2-213.33333C91.73333,64,21.33333,185.90476,21.33333,283.42857Z" style="fill:#ecb8b5"/><path d="M341.33333,384V362.66667c32.07292,0,106.66667-12.46875,106.66667-128h21.33333C469.33333,344.77083,403.20833,384,341.33333,384Z" style="fill:#e59b96"/><path d="M256,448C44.19792,448,21.33333,332.90625,21.33333,283.42708H64c0,79.75,66.39583,121.90625,192,121.90625,192,0,192-96.34375,192-128,0-49.15625-10.17708-88.02083-30.23958-115.5l34.45833-25.16666c25.51042,34.94791,38.44792,82.27083,38.44792,140.66666C490.66667,355.1875,449.95833,448,256,448Z" style="fill:#e59b96"/><path d="M256,448V405.33333c192,0,192-96.34375,192-128h42.66667C490.66667,355.1875,449.95833,448,256,448Z" style="fill:#de807a"/><path d="M149.33333,362.66667c-105.79166,0-128-58.01042-128-106.66667H42.66667c0,57.41667,34.89583,85.33333,106.66666,85.33333,22.33334,0,64-21.97916,64-64V192h21.33334v85.33333C234.66667,334.14583,179.95833,362.66667,149.33333,362.66667Z" style="fill:#e59b96"/><path d="M42.66667,256c0,64,42.66666,85.33333,106.66666,85.33333,21.33334,0,64-21.33333,64-64V192c0-21.33333,0-64-56.88889-64C105.24444,128,42.66667,192,42.66667,256Z" style="fill:#c82e25"/><path d="M149.33333,341.33333C77.5625,341.33333,42.66667,313.41667,42.66667,256H64c0,33.23958,10.33333,64,85.33333,64C159.61458,320,192,307.16667,192,277.33333V192h21.33333v85.33333C213.33333,322.29167,167.55208,341.33333,149.33333,341.33333Z" style="fill:#af0a00"/><path d="M256,298.66667c0,42.66666,21.33333,64,85.33333,64C384,362.66667,448,341.33333,448,234.66667S384,85.33333,320,85.33333q-64,0-64,64Z" style="fill:#c82e25"/><path d="M341.33333,362.66667c-60.61458,0-85.33333-18.54167-85.33333-64V149.33333h21.33333V298.66667c0,24.17708,4.70834,42.66666,64,42.66666,38.92709,0,85.33334-18.51041,85.33334-106.66666H448C448,350.19792,373.40625,362.66667,341.33333,362.66667Z" style="fill:#af0a00"/><ellipse cx="138.66667" cy="170.66667" rx="32" ry="21.33333" style="fill:#d2514a"/><ellipse cx="341.33333" cy="135.11111" rx="42.66667" ry="28.44444" style="fill:#d2514a"/><ellipse cx="320" cy="224" rx="21.33333" ry="10.66667" style="fill:#d2514a"/><ellipse cx="106.66667" cy="224" rx="21.33333" ry="10.66667" style="fill:#d2514a"/><path d="M181.33333,362.66667c-40.34765,0-58.79817,31.1276-67.32291,59.75911,34.48828,15.67057,80.48567,25.52865,141.668,25.5638C254.12891,408.14062,244.28906,362.66667,181.33333,362.66667Z" style="fill:#c82e25"/><path d="M236.60417,447.67708c-40.375-1.39583-75.70834-7.34375-105.02084-17.66666l14.16667-40.25c25.22917,8.88541,56.29167,14.02083,92.33333,15.27083Z" style="fill:#af0a00"/><ellipse cx="192" cy="373.33333" rx="21.33333" ry="10.66667" style="fill:#d2514a"/><path d="M164.77083,126.875l-9.54166-19.08333c1.83333-.91667,45.67708-22.45834,111.4375-22.45834v21.33334C205.88542,106.66667,165.17708,126.66667,164.77083,126.875Z" style="fill:#f1cac8"/></g></svg>