<svg xmlns="http://www.w3.org/2000/svg" viewBox="0 0 512 512"><title>Artboard 147</title><g id="Mushroom"><path d="M256,320H149.33333V426.66667c0,21.33333,26.66667,64,106.66667,64s106.66667-42.66667,106.66667-64V320Z" style="fill:#c5af83"/><path d="M197.375,457.38542c-17-8.83334-25.64583-21.34375-26.64583-29.83334l-.0625-22.22916L192,405.34375l-.02083,20.76042c.16666-.88542,3.20833,6.11458,15.22916,12.34375Z" style="fill:#e0d4b7"/><path d="M256,490.66667V448c47.29167,0,62.6875-18.375,64.20833-23.30208L320,341.33333h42.66667v85.33334C362.66667,447.55208,336.58333,490.66667,256,490.66667Z" style="fill:#b99e69"/><path d="M362.66667,371.66146C331.88411,379.66927,296.25781,384,256,384v21.33333c39.681,0,75.3737-3.93619,106.66667-11.4414Z" style="fill:#a37f39"/><path d="M256,21.33333C128,21.33333,21.33333,128,21.33333,234.66667S128,384,256,384s234.66667-42.66667,234.66667-149.33333S384,21.33333,256,21.33333Z" style="fill:#e0d4b7"/><path d="M256,384C109.0625,384,21.33333,328.17708,21.33333,234.66667h85.33334c0,10.6875,7.20833,64,149.33333,64s149.33333-53.3125,149.33333-64h85.33334C490.66667,328.17708,402.9375,384,256,384Z" style="fill:#d4c3a2"/><path d="M256,384V341.33333c57.72917,0,192-10.39583,192-106.66666C448,154.10417,365.89583,64,256,64V21.33333c134.3125,0,234.66667,112.625,234.66667,213.33334C490.66667,329.57292,405.125,384,256,384Z" style="fill:#c5af83"/><path d="M149.33333,234.66667H64C64,155.73958,147.875,64,256,64v85.33333C197.125,149.33333,149.33333,200.96875,149.33333,234.66667Z" style="fill:#eae2ce"/><ellipse cx="288" cy="288" rx="53.33333" ry="32" style="fill:#d4c3a2"/><circle cx="96" cy="245.33333" r="32" style="fill:#eae2ce"/><circle cx="192" cy="170.66667" r="21.33333" style="fill:#eae2ce"/><ellipse cx="416" cy="149.33333" rx="32" ry="21.33333" style="fill:#c5af83"/><ellipse cx="309.33333" cy="170.66667" rx="32" ry="21.33333" style="fill:#c5af83"/><ellipse cx="266.66667" cy="85.33333" rx="32" ry="21.33333" style="fill:#c5af83"/></g></svg>