<svg xmlns="http://www.w3.org/2000/svg" viewBox="0 0 512 512"><title>Artboard 125</title><g id="Onion"><path d="M277.33333,21.33333H234.66667c0,106.66667-213.33334,128-213.33334,277.33334,0,170.66666,192,170.66666,192,170.66666s0,21.33334,42.66667,21.33334,42.66667-21.33334,42.66667-21.33334,192,0,192-170.66666C490.66667,149.33333,277.33333,128,277.33333,21.33333Z" style="fill:#e0d4b7"/><path d="M213.3125,469.33333c-7.83333-.01041-191.97917-2.20833-191.97917-170.66666,0-80.94792,63.79167-125.05209,120.0625-163.96875C186.4375,103.54167,228.9375,74.14583,234.125,30.73958l21.16667,2.52084c-6.3125,52.95833-52.64584,85.01041-101.70834,118.94791C96.52083,191.66667,42.66667,228.90625,42.66667,298.66667,42.66667,446.0625,206.375,447.98958,213.35417,448Z" style="fill:#d4c3a2"/><path d="M277.33333,21.33333H256v448h42.66667s192,0,192-170.66666C490.66667,149.33333,277.33333,128,277.33333,21.33333Z" style="fill:#c5af83"/><path d="M344.58333,456.16667,330.79167,439.875C364.60417,411.27083,384,367.58333,384,320c0-50.89583-28.9375-91.80208-59.60417-135.11458C290.72917,137.3125,256,88.21875,256,21.33333h21.33333c0,60.10417,32.75,106.375,64.41667,151.13542C374.47917,218.72917,405.33333,262.32292,405.33333,320,405.33333,373.86458,383.1875,423.5,344.58333,456.16667Z" style="fill:#b99e69"/><path d="M298.72917,469.33333l-.20834-42.66666c15.3125-.07292,149.47917-4.23959,149.47917-128,0-58.5625-49.375-92.71875-101.64583-128.875-31.5625-21.8125-64.20834-44.375-86.16667-74.10417l34.29167-25.35417c17.77083,24.02084,47.4375,44.52084,76.125,64.35417,56.29166,38.92708,120.0625,83.05208,120.0625,163.97917C490.66667,466.54167,306.5625,469.30208,298.72917,469.33333Z" style="fill:#b99e69"/><path d="M179.02083,465.08333C133.70833,433.4375,106.66667,379.20833,106.66667,320c0-57.67708,30.85416-101.27083,63.52083-147.4375,31.72917-44.85417,64.47917-91.125,64.47917-151.22917H256c0,66.88542-34.72917,115.97917-68.33333,163.45834C156.9375,228.19792,128,269.10417,128,320c0,52.23958,23.64583,99.9375,63.22917,127.60417Z" style="fill:#d4c3a2"/><path d="M256,469.33333c64,0,128-64,128-149.33333,0-106.66667-128-170.66667-128-298.66667,0,128-128,192-128,298.66667C128,405.33333,192,469.33333,256,469.33333Z" style="fill:#eae2ce"/><path d="M298.66667,319.9987C298.66667,405.332,288,469.332,256,469.332h.02083C320.01432,469.319,384,405.32422,384,320c0-106.66667-128-170.66536-128-298.66536C256,149.33073,298.66667,213.33333,298.66667,319.9987Z" style="fill:#d4c3a2"/><path d="M335.83333,403.29167l-17.125-12.75c10.33334-13.85417,22.625-37.33334,22.625-70.54167,0-22.27083-8.0625-44.46875-26.95833-74.23958C311.6875,241.01042,256,140.92708,256,96h21.33333c0,32.71875,39.95834,111.3125,55.35417,138.83333C347.35417,257.91667,362.66667,286.54167,362.66667,320,362.66667,350.90625,353.375,379.70833,335.83333,403.29167Z" style="fill:#c5af83"/><path d="M237.79167,466.20833C235.91667,464.34375,192,419.39583,192,330.66667c0-47.34375,12.8125-88.72917,24.10417-125.25,9.54166-30.85417,18.5625-59.98959,18.5625-88.08334H256c0,31.3125-9.47917,61.95834-19.52083,94.39584-11.375,36.78125-23.14584,74.82291-23.14584,118.9375,0,79.39583,39.16667,120.08333,39.5625,120.48958Z" style="fill:#f3eee3"/><path d="M109.79167,423.54167C107.91667,421.67708,64,376.96875,64,309.33333c0-47.8125,21.625-73.44791,49-105.91666,11.75-13.94792,25.0625-29.75,38.125-49.33334l17.75,11.83334c-13.72917,20.58333-27.45833,36.875-39.58333,51.25-25.52084,30.27083-43.95834,52.14583-43.95834,92.16666,0,58.89584,39.14584,98.72917,39.54167,99.125Z" style="fill:#eae2ce"/></g></svg>