<svg xmlns="http://www.w3.org/2000/svg" viewBox="0 0 512 512"><title>Artboard 126</title><g id="Orange"><path d="M298.66667,149.33333S256,128,256,85.33333s42.66667-64,42.66667-64,42.66666,21.33334,42.66666,64-42.66666,64-42.66666,64" style="fill:#8b2800"/><path d="M277.33333,128S320,85.33333,384,85.33333,490.66667,128,490.66667,128,448,170.66667,384,170.66667,277.33333,128,277.33333,128Z" style="fill:#993b17"/><circle cx="245.33333" cy="288" r="202.66667" style="fill:#ef7f00"/><path d="M325.02083,101.64583a201.92337,201.92337,0,0,1,16.3125,79.6875C341.33333,293.263,250.59635,384,138.66667,384a201.92347,201.92347,0,0,1-79.6875-16.3125A202.68585,202.68585,0,0,0,245.33333,490.66667C357.263,490.66667,448,399.92969,448,288A202.68587,202.68587,0,0,0,325.02083,101.64583Z" style="fill:#e76400"/><circle cx="362.66667" cy="384" r="21.33333" style="fill:#cc4900"/><circle cx="362.66667" cy="170.66667" r="21.33333" style="fill:#cc4900"/><circle cx="373.33333" cy="245.33333" r="10.66667" style="fill:#cc4900"/><circle cx="394.66667" cy="309.33333" r="10.66667" style="fill:#cc4900"/><circle cx="298.66667" cy="298.66667" r="21.33333" style="fill:#e76400"/><circle cx="330.66667" cy="224" r="10.66667" style="fill:#e76400"/><circle cx="245.33333" cy="288" r="10.66667" style="fill:#e76400"/><circle cx="181.33333" cy="373.33333" r="10.66667" style="fill:#e76400"/><circle cx="85.33333" cy="341.33333" r="21.33333" style="fill:#e76400"/><circle cx="288" cy="224" r="10.66667" style="fill:#e76400"/><circle cx="224" cy="394.66667" r="10.66667" style="fill:#cc4900"/><circle cx="309.33333" cy="416" r="53.33333" style="fill:#cc4900"/><circle cx="128" cy="405.33333" r="21.33333" style="fill:#cc4900"/><ellipse cx="160" cy="202.66667" rx="95.82836" ry="44.29197" transform="translate(-96.44406 172.49678) rotate(-45)" style="fill:#fdbc34"/></g></svg>