<svg xmlns="http://www.w3.org/2000/svg" viewBox="0 0 512 512"><title>Artboard 151</title><g id="Pancake"><path d="M490.66667,330.66667c0-64.80209-95.513-117.33334-213.33334-117.33334S64,265.86458,64,330.66667v42.66666c0,64.80078,95.513,117.33334,213.33333,117.33334s213.33334-52.53256,213.33334-117.33334Z" style="fill:#fdcf6d"/><path d="M277.33333,490.66667C159.69792,490.66667,64,438.02083,64,373.33333H85.33333c0,51.14584,89.71875,96,192,96s192-44.85416,192-96h21.33334C490.66667,438.02083,394.96875,490.66667,277.33333,490.66667Z" style="fill:#fdbc34"/><ellipse cx="277.33333" cy="330.66667" rx="213.33333" ry="117.33333" style="fill:#fdab00"/><ellipse cx="266.66667" cy="309.33333" rx="192" ry="85.33333" style="fill:#f59707"/><path d="M277.33333,448C159.69792,448,64,395.35417,64,330.66667H85.33333c0,51.14583,89.71875,96,192,96s192-44.85417,192-96-89.71875-96-192-96V213.33333c117.63542,0,213.33334,52.64584,213.33334,117.33334S394.96875,448,277.33333,448Z" style="fill:#f59707"/><path d="M21.33333,266.66667C21.33333,331.46745,116.84635,384,234.66667,384S448,331.46745,448,266.66667" style="fill:#fdcf6d"/><path d="M234.66667,384C117.03125,384,21.33333,331.35417,21.33333,266.66667V224c0-64.6875,95.69792-117.33333,213.33334-117.33333S448,159.3125,448,224v42.66667C448,331.35417,352.30208,384,234.66667,384Zm0-256c-102.28125,0-192,44.85417-192,96v42.66667c0,51.14583,89.71875,96,192,96s192-44.85417,192-96V224C426.66667,172.85417,336.94792,128,234.66667,128Z" style="fill:#fdbc34"/><ellipse cx="234.66667" cy="224" rx="213.33333" ry="117.33333" style="fill:#fdab00"/><path d="M234.66667,341.33333C117.03125,341.33333,21.33333,288.6875,21.33333,224H42.66667c0,51.14583,89.71875,96,192,96s192-44.85417,192-96-89.71875-96-192-96V106.66667C352.30208,106.66667,448,159.3125,448,224S352.30208,341.33333,234.66667,341.33333Z" style="fill:#f59707"/><path d="M490.66667,138.66667c0-64.80209-95.513-117.33334-213.33334-117.33334S64,73.86458,64,138.66667v42.66666c0,64.80078,95.513,117.33334,213.33333,117.33334s213.33334-52.53256,213.33334-117.33334Z" style="fill:#fdcf6d"/><path d="M277.33333,298.66667C159.69792,298.66667,64,246.02083,64,181.33333H85.33333c0,51.14584,89.71875,96,192,96s192-44.85416,192-96h21.33334C490.66667,246.02083,394.96875,298.66667,277.33333,298.66667Z" style="fill:#fdbc34"/><ellipse cx="277.33333" cy="138.66667" rx="213.33333" ry="117.33333" style="fill:#fdbc34"/><path d="M106.66667,138.66667H85.33333c0-51.14584,89.71875-96,192-96V64C174.73958,64,106.66667,108.9375,106.66667,138.66667Z" style="fill:#fdcf6d"/><path d="M277.33333,256C159.69792,256,64,203.35417,64,138.66667H85.33333c0,51.14583,89.71875,96,192,96s192-44.85417,192-96-89.71875-96-192-96V21.33333c117.63542,0,213.33334,52.64584,213.33334,117.33334S394.96875,256,277.33333,256Z" style="fill:#fdab00"/><circle cx="330.66667" cy="53.33333" r="10.66667" style="fill:#f59707"/><ellipse cx="181.33333" cy="213.33333" rx="32" ry="21.33333" style="fill:#ef7f00"/><ellipse cx="170.66667" cy="202.66667" rx="21.33333" ry="10.66667" style="fill:#f59707"/><path d="M170.66667,106.66667C170.66667,85.33333,192,85.33333,192,85.33333h21.33333s21.33334,0,21.33334-21.33333S256,42.66667,256,42.66667C277.33333,42.66667,277.33333,64,277.33333,64c0,21.33333,21.33334,21.33333,21.33334,21.33333h64C384,85.33333,405.33333,106.66667,405.33333,128S384,170.66667,362.66667,170.66667,320,192,320,213.33333s-21.33333,21.33334-21.33333,21.33334-21.33334,0-21.33334-21.33334S256,192,256,192c-42.66667,0-42.66667-42.66667-42.66667-42.66667S213.33333,128,192,128C192,128,170.66667,128,170.66667,106.66667Z" style="fill:#ef7f00"/><path d="M299.03125,234.66667c-13.46875-.4375-21.69792-8.8125-21.69792-21.33334C277.33333,192.25,256.20833,192,256,192c-29.125,0-42.41667-21.39583-42.66667-42.60417C213.33333,149.0625,213.09375,128,192,128c-13.07292-.33333-21.33333-8.70833-21.33333-21.33333H192c27.70833,0,42.66667,21.95833,42.66667,42.60416.09375,7.91667,2.98958,21.39584,21.33333,21.39584,20.6875,0,42.66667,14.95833,42.66667,42.66666,0-33.5,30.5-64,64-64C372.23958,149.33333,384,137.5625,384,128h21.33333c0,21.54167-21.13541,42.66667-42.66666,42.66667S320,191.79167,320,213.33333C320,225.85417,311.77083,234.22917,299.03125,234.66667Z" style="fill:#e76400"/><ellipse cx="192" cy="96" rx="21.33333" ry="10.66667" style="fill:#f59707"/><ellipse cx="256" cy="160" rx="21.33333" ry="10.66667" style="fill:#f59707"/><ellipse cx="352" cy="112" rx="32" ry="16" style="fill:#f59707"/></g></svg>