<svg xmlns="http://www.w3.org/2000/svg" viewBox="0 0 512 512"><title>Artboard 128</title><g id="Paprika"><path d="M320,21.33333c-64,0-85.33333,85.33334-85.33333,85.33334H256S277.33333,64,320,64c21.33333,0,21.33333-21.33333,21.33333-21.33333S341.33333,21.33333,320,21.33333Z" style="fill:#7d1a00"/><path d="M405.33333,106.66667c-42.66666,0-42.66667,21.33333-64,21.33333S320,85.33333,256,85.33333,192,128,170.66667,128s-21.33334-21.33333-64-21.33333S21.33333,149.33333,21.33333,213.33333c0,85.33334,85.33334,106.66667,85.33334,192,0,21.33291,21.33333,64,85.33333,64,21.33333,0,21.33333,21.33334,64,21.33334s42.66667-21.33334,64-21.33334c64,0,85.33333-42.66709,85.33333-64,0-85.33333,85.33334-106.66666,85.33334-192C490.66667,149.33333,448,106.66667,405.33333,106.66667Z" style="fill:#c11107"/><path d="M405.33333,405.33333H362.66667c0-57.65625,28.83333-93.6875,52-122.65625C434.02083,258.5,448,241.03125,448,213.33333c0-41.76041-24.77083-64-42.66667-64-11.4375,0-13.5625,1.51042-19.29166,5.55209l-24.625-34.83334c10.35416-7.32291,20.79166-13.38541,43.91666-13.38541,41.04167,0,85.33334,40.78125,85.33334,106.66666,0,42.66667-21.6875,69.78125-42.66667,96S405.33333,362.64583,405.33333,405.33333Z" style="fill:#af0a00"/><path d="M341.33333,256c0-121.4349-34.12239-157.4987-59.21354-167.6276A105.4707,105.4707,0,0,0,256,85.33333C192,85.33333,192,128,170.66667,128s-21.33334-21.33333-64-21.33333S21.33333,149.33333,21.33333,213.33333c0,85.33334,85.33334,106.66667,85.33334,192,0,21.332,21.33333,64,85.33333,64,21.33333,0,21.33333,21.33334,64,21.33334S341.33333,448,341.33333,256Z" style="fill:#c82e25"/><path d="M256,490.66667c-25.02083,0-106.66667-14.61459-106.66667-202.66667S230.97917,85.33333,256,85.33333V128c-29.52083,0-64,41.90625-64,160s34.47917,160,64,160Z" style="fill:#c11107"/><ellipse cx="85.33333" cy="192" rx="69.17206" ry="33.63268" transform="translate(-124.67526 185.50634) rotate(-64.26644)" style="fill:#d2514a"/><ellipse cx="85.33333" cy="170.66667" rx="23.38463" ry="19.06046" transform="translate(-95.67352 110.28946) rotate(-44.98815)" style="fill:#de807a"/><ellipse cx="245.33333" cy="181.33333" rx="32" ry="53.33333" style="fill:#de807a"/></g></svg>