<svg xmlns="http://www.w3.org/2000/svg" viewBox="0 0 512 512"><title>Artboard 146</title><g id="Pepper"><path d="M448,42.66667l-21.33333,64s-64,0-85.33334,21.33333L448,213.33333s42.66667-128,42.66667-170.66666h0s0-21.33334-21.33334-21.33334S448,42.66667,448,42.66667Z" style="fill:#fdbc34"/><path d="M452.77083,198.61458l-20.33333-6.5c23.10417-72.28125,36.89583-128.10416,36.89583-149.32291h21.33334C490.66667,75.16667,466.91667,154.3125,452.77083,198.61458Z" style="fill:#f59707"/><path d="M21.33333,490.66667s0-64,42.66667-106.66667c64-64,170.66667-42.66667,170.66667-128s42.66666-149.33333,106.66666-149.33333S448,149.33333,448,213.33333s-64,192-256,192c-128,0-149.33333,85.33334-149.33333,85.33334Z" style="fill:#c82e25"/><path d="M277.33333,256H256c0-75.36458,35.08333-128,85.33333-128v21.33333C303.64583,149.33333,277.33333,193.19792,277.33333,256Z" style="fill:#d96c66"/><path d="M284.54167,203.78125l-20.375-6.27083C277.54167,153.98958,306.39583,128,341.33333,128v21.33333C315.89583,149.33333,295.1875,169.17708,284.54167,203.78125Z" style="fill:#e59b96"/><path d="M426.66667,213.33333C426.66667,269.02083,369.3125,384,192,384" style="fill:#c82e25"/><path d="M192,405.33333V362.66667c161.1875,0,213.33333-100.61459,213.33333-149.33334H448C448,275.97917,385.41667,405.33333,192,405.33333Z" style="fill:#af0a00"/><path d="M42.29167,490.66667H32.75V479.07292l-7.60417-3.03125C33.77083,454.45833,71.27083,384,192,384c177.3125,0,234.66667-114.97917,234.66667-170.66667,0-52.63541-32.6875-85.33333-85.33334-85.33333V106.66667C405.125,106.66667,448,149.53125,448,213.33333c0,62.64584-62.58333,192-256,192-104.375,0-137.60417,54.97917-147.02083,78.625Z" style="fill:#af0a00"/></g></svg>