<svg xmlns="http://www.w3.org/2000/svg" viewBox="0 0 512 512"><title>Artboard 127</title><g id="Popcorn"><path d="M256,21.33333c-21.33333,0-42.66667,21.33334-42.66667,42.66667,0,0-42.66666,0-42.66666,42.66667,0,0-21.33334,0-21.33334,21.33333,0,0-21.33333,0-21.33333,21.33333,0,0-42.66667,0-42.66667,42.66667H426.66667s0-42.66667-42.66667-42.66667c0,0,0-21.33333-21.33333-21.33333,0,0,0-42.66667-42.66667-42.66667C320,85.33333,320,64,298.66667,64,298.66667,64,298.66667,21.33333,256,21.33333Z" style="fill:#d4c3a2"/><circle cx="256" cy="64" r="21.33333" style="fill:#e0d4b7"/><circle cx="288" cy="74.66667" r="10.66667" style="fill:#e0d4b7"/><path d="M426.66667,170.66667c0-21.33334-21.33334-21.33334-21.33334-21.33334C405.33333,128,384,128,384,128c0-21.33333-21.33333-21.33333-21.33333-21.33333,0-21.33334-21.33334-21.33334-21.33334-21.33334S320,85.33333,320,106.66667c0,0-42.66667,0-42.66667,42.66666,0,0-21.33333,0-21.33333,21.33334Z" style="fill:#e0d4b7"/><circle cx="330.66667" cy="138.66667" r="10.66667" style="fill:#d4c3a2"/><circle cx="362.66667" cy="170.66667" r="21.33333" style="fill:#d4c3a2"/><circle cx="352" cy="117.33333" r="10.66667" style="fill:#d4c3a2"/><path d="M128,213.33333c-21.33333,0-42.66667-21.33333-42.66667-42.66666S106.66667,128,128,128c0-21.33333,21.33333-21.33333,21.33333-21.33333S149.33333,64,192,64c0,0,0-21.33333,21.33333-21.33333S234.66667,64,234.66667,64,256,64,256,85.33333C298.66667,85.33333,298.66667,128,298.66667,128s42.66666,0,42.66666,42.66667c0,0,21.33334,0,21.33334,21.33333,0,0,21.33333,0,21.33333,21.33333Z" style="fill:#eae2ce"/><circle cx="149.33333" cy="170.66667" r="21.33333" style="fill:#f3eee3"/><circle cx="128" cy="149.33333" r="21.33333" style="fill:#f3eee3"/><circle cx="202.66667" cy="138.66667" r="10.66667" style="fill:#f3eee3"/><circle cx="256" cy="128" r="21.33333" style="fill:#f3eee3"/><circle cx="298.66667" cy="170.66667" r="21.33333" style="fill:#f3eee3"/><polygon points="384 490.667 128 490.667 64 170.667 448 170.667 384 490.667" style="fill:#c11107"/><polygon points="384 490.667 128 490.667 64 170.667 448 170.667 384 490.667" style="fill:#c82e25"/><polygon points="384 490.667 277.333 490.667 298.667 170.667 448 170.667 384 490.667" style="fill:#af0a00"/><polygon points="277.333 490.667 234.667 490.667 213.333 170.667 298.667 170.667 277.333 490.667" style="fill:#edebeb"/><polygon points="192 490.667 149.333 490.667 85.333 170.667 149.333 170.667 192 490.667" style="fill:#edebeb"/><polygon points="320 490.667 362.667 490.667 426.667 170.667 362.667 170.667 320 490.667" style="fill:#d5d1d1"/><circle cx="256" cy="320" r="64" style="fill:#fdbc34"/><path d="M292.22526,267.29427l-7.30078,109.4974a63.68957,63.68957,0,0,0,7.30078-109.4974Z" style="fill:#f59707"/><circle cx="192" cy="85.33333" r="21.33333" style="fill:#f3eee3"/></g></svg>