<svg xmlns="http://www.w3.org/2000/svg" viewBox="0 0 512 512"><title>Artboard 149</title><g id="Potato"><path d="M21.33333,290.13333c0-113.77777,128-204.8,256-204.8,149.33334,0,213.33334,94.07162,213.33334,182.04445S448,426.66667,277.33333,426.66667C128,426.66667,21.33333,403.91111,21.33333,290.13333Z" style="fill:#ad6143"/><path d="M408.4973,172.19382C436.43816,199.17877,448,234.67293,448,267.375,448,308.13542,448,384,277.33333,384c-77.349,0-126.8498-7.15985-158.445-18.73387" style="fill:#ad6143"/><path d="M277.33333,426.66667c-77.3125,0-133.9375-6.97917-173.125-21.33334l29.375-80.125c29.1875,10.69792,77.5625,16.125,143.75,16.125,128,0,128-39.29166,128-73.95833,0-14.53125-3.4375-42.23958-26.47916-64.48958l59.29166-61.375c33.875,32.70833,52.52084,77.40625,52.52084,125.86458C490.66667,335.76042,468.5625,426.66667,277.33333,426.66667Z" style="fill:#a34e2d"/><ellipse cx="389.33333" cy="197.33333" rx="37.33333" ry="26.66667" style="fill:#a34e2d"/><path d="M277.33333,426.66667c-132.95833,0-256-16.54167-256-136.53125H64C64,348.08333,99.6875,384,277.33333,384,448,384,448,308.13542,448,267.375c0-36.64583-14.10417-70.36458-39.70833-94.96875l29.54166-30.77083c34.0625,32.71875,52.83334,77.375,52.83334,125.73958C490.66667,376.05208,422.875,426.66667,277.33333,426.66667Z" style="fill:#993b17"/><ellipse cx="181.33333" cy="202.66667" rx="76.87356" ry="50.06348" transform="translate(-54.59392 67.41176) rotate(-18.35458)" style="fill:#b7745a"/><ellipse cx="298.66667" cy="142.22222" rx="21.33333" ry="14.22222" style="fill:#993b17"/><ellipse cx="53.33333" cy="298.66667" rx="32" ry="21.33333" style="fill:#8b2800"/><ellipse cx="295.59583" cy="287.08941" rx="45.06143" ry="26.54334" transform="translate(-96.45044 160.21565) rotate(-26.23103)" style="fill:#a34e2d"/><ellipse cx="138.66667" cy="320" rx="20.01344" ry="32.83166" transform="translate(-207.51787 362.24581) rotate(-73.52886)" style="fill:#993b17"/><circle cx="74.66667" cy="245.33333" r="10.66667" style="fill:#993b17"/><ellipse cx="384" cy="138.66667" rx="21.33333" ry="10.66667" style="fill:#a34e2d"/><ellipse cx="330.66667" cy="384" rx="32" ry="21.33333" style="fill:#993b17"/><ellipse cx="448" cy="320" rx="23.62364" ry="18.75802" transform="translate(-95.01954 410.74019) rotate(-45.02432)" style="fill:#8b2800"/><ellipse cx="170.66667" cy="394.66667" rx="21.33333" ry="10.66667" style="fill:#8b2800"/><ellipse cx="448" cy="234.66667" rx="20.40324" ry="22.2174" transform="translate(-34.64975 385.73506) rotate(-45.02599)" style="fill:#8b2800"/><ellipse cx="213.33333" cy="352" rx="21.64871" ry="10.00658" transform="translate(-63.6135 47.5077) rotate(-11.06926)" style="fill:#993b17"/><ellipse cx="256" cy="202.66667" rx="21.64871" ry="10.00658" transform="translate(-34.1484 52.92128) rotate(-11.06926)" style="fill:#b7745a"/><ellipse cx="213.33333" cy="117.33333" rx="21.64871" ry="10.00658" transform="translate(-18.55857 43.14192) rotate(-11.06926)" style="fill:#b7745a"/></g></svg>