<svg xmlns="http://www.w3.org/2000/svg" viewBox="0 0 512 512"><title>Artboard 124</title><g id="Sausage"><path d="M277.33343,85.24475c68.38542,0,139.98828,19.3125,188.34245,67.67708a85.32422,85.32422,0,0,1-.01042,120.67708c-33.33333,33.3125-80.26771,31.63631-120.67708-.01041-25.4867-23.902-152.98828-39.01042-152.98828,67.75a85.35763,85.35763,0,0,1-85.25,85.41666h-.08334a85.32647,85.32647,0,0,1-85.33333-85.25,255.99512,255.99512,0,0,1,256-256.26041Z" style="fill:#cd3e36"/><path d="M42.66667,341.47917A234.65627,234.65627,0,0,1,277.33333,106.57292c41.77084,0,119.83334,7.97916,173.25,61.42708l-30.16666,30.16667C377.86458,155.59375,312.5,149.23958,277.33333,149.23958a191.99636,191.99636,0,0,0-192,192.19792Z" style="fill:#d96c66"/><path d="M141.57292,205.46875l-30.16667-30.16667a233.11811,233.11811,0,0,1,165.92708-68.72916v42.66666A190.74288,190.74288,0,0,0,141.57292,205.46875Z" style="fill:#e59b96"/><path d="M192,341.33333H149.33333c0-94.21875,71.76042-127.65625,133.20834-127.65625,37.11458,0,72.54166,10.84375,90.27083,27.625l-29.33333,30.97917c-6.98959-6.61458-30.52084-15.9375-60.9375-15.9375C255.32292,256.34375,192,264.625,192,341.33333Z" style="fill:#c11107"/><path d="M106.75,426.75l-.08333-21.33333a64.12787,64.12787,0,0,0,64-64.08334c0-78.47916,60.27083-106.32291,111.875-106.32291,30.94791,0,62.34375,9.21875,76.34375,22.41666,30.59375,23.875,67.13541,25.625,91.69791,1.08334a63.58677,63.58677,0,0,0,18.75-45.26042h21.33334a84.77434,84.77434,0,0,1-25,60.34375c-32,31.95833-80.10417,31.78125-120.67709-.01042-9.27083-8.6875-33.8125-17.23958-62.44791-17.23958-21.23959,0-90.54167,6.125-90.54167,84.98958A85.4714,85.4714,0,0,1,106.75,426.75Z" style="fill:#c11107"/><path d="M163.55208,384H142.21875c0-11.95833-12.48958-21.33333-28.4375-21.33333S85.33333,372.04167,85.33333,384H64c0-23.92708,21.86458-42.66667,49.78125-42.66667C141.6875,341.33333,163.55208,360.07292,163.55208,384Z" style="fill:#d96c66"/><ellipse cx="113.77778" cy="384" rx="28.44444" ry="21.33333" style="fill:#c11107"/></g></svg>