<svg xmlns="http://www.w3.org/2000/svg" viewBox="0 0 512 512"><title>Artboard 115</title><g id="Softdrink"><path d="M277.33333,298.66667V192c0-42.66667-42.66666-64-42.66666-106.66667V42.66667H149.33333V85.33333c0,42.66667-42.66666,64-42.66666,106.66667V298.66667c0,21.33333,21.33333,42.66666,21.33333,64v42.66666c0,21.33334-21.33333,21.33334-21.33333,42.66667v21.33333s0,21.33334,21.33333,21.33334H256c21.33333,0,21.33333-21.33334,21.33333-21.33334V448c0-21.33333-21.33333-21.33333-21.33333-42.66667V362.66667C256,341.33333,277.33333,320,277.33333,298.66667Z" style="fill:#b99e69"/><path d="M234.66667,469.33333V448c0-21.33333-21.33334-21.33333-21.33334-42.66667V362.66667c0-21.33334,21.33334-42.66667,21.33334-64V192C234.66667,149.33333,192,128,192,85.33333V42.66667H149.33333V85.33333c0,42.66667-42.66666,64-42.66666,106.66667V298.66667c0,21.33333,21.33333,42.66666,21.33333,64v42.66666c0,21.33334-21.33333,21.33334-21.33333,42.66667v21.33333s0,21.33334,21.33333,21.33334h85.33333C234.66667,490.66667,234.66667,469.33333,234.66667,469.33333Z" style="fill:#d4c3a2"/><path d="M136.41667,321.13542C130.60417,309.51042,128,303.5,128,298.66667V192c0-14.875,8.22917-27.21875,17.75-41.5l17.75,11.83333C153.875,176.78125,149.33333,184.41667,149.33333,192V298.66667c.45834,1.53125,4.75,10.09375,6.16667,12.90625Z" style="fill:#eae2ce"/><rect x="213.33333" y="192" width="21.33333" height="106.66667" style="fill:#c5af83"/><path d="M277.33333,298.66667v-64H106.66667v64c0,21.33333,21.33333,42.66666,21.33333,64v42.66666c0,21.33334-21.33333,21.33334-21.33333,42.66667v21.33333s0,21.33334,21.33333,21.33334H256c21.33333,0,21.33333-21.33334,21.33333-21.33334V448c0-21.33333-21.33333-21.33333-21.33333-42.66667V362.66667C256,341.33333,277.33333,320,277.33333,298.66667Z" style="fill:#8b2800"/><path d="M234.66667,298.66667v-64h-128v64c0,21.33333,21.33333,42.66666,21.33333,64v42.66666c0,21.33334-21.33333,21.33334-21.33333,42.66667v21.33333s0,21.33334,21.33333,21.33334h85.33333c21.33334,0,21.33334-21.33334,21.33334-21.33334V448c0-21.33333-21.33334-21.33333-21.33334-42.66667V362.66667C213.33333,341.33333,234.66667,320,234.66667,298.66667Z" style="fill:#993b17"/><path d="M256,490.66667H234.66667V469.33333H256V448c0-1.65625,0-1.83333-4.41667-6.25-6.35416-6.35417-16.91666-16.94792-16.91666-36.41667V362.66667c0-15.6875,6.85416-29.38542,12.89583-41.47917C251.72917,312.86458,256,304.33333,256,298.66667v-64h21.33333v64c0,10.70833-5.41666,21.54166-10.66666,32.01041C261.16667,341.66667,256,352.02083,256,362.66667v42.66666c0,10.64584,5.41667,16.0625,10.64583,21.3125,5.5,5.5,10.6875,10.6875,10.6875,21.35417v21.33333C277,482.40625,268.625,490.66667,256,490.66667Z" style="fill:#7d1a00"/><path d="M149.33333,21.33333h85.33333A21.33333,21.33333,0,0,1,256,42.66667V64a0,0,0,0,1,0,0H128a0,0,0,0,1,0,0V42.66667A21.33333,21.33333,0,0,1,149.33333,21.33333Z" style="fill:#c82e25"/><path d="M192,21.33333H149.33333A21.33272,21.33272,0,0,0,128,42.66667V64h85.33333V42.66667A21.33272,21.33272,0,0,0,192,21.33333Z" style="fill:#cd3e36"/><rect x="149.33333" y="42.66667" width="21.33333" height="21.33333" style="fill:#af0a00"/><rect x="128" y="42.66667" width="21.33333" height="21.33333" style="fill:#c82e25"/><rect x="170.66667" y="42.66667" width="21.33333" height="21.33333" style="fill:#d96c66"/><rect x="213.33333" y="42.66667" width="21.33333" height="21.33333" style="fill:#d2514a"/><rect x="192" y="42.66667" width="21.33333" height="21.33333" style="fill:#c82e25"/><rect x="234.66667" y="42.66667" width="21.33333" height="21.33333" style="fill:#af0a00"/><path d="M149.33333,469.33333H128V445.97917l3.3125-3.15625c7.4375-7.40625,18.02083-17.98959,18.02083-37.48959V362.66667c0-15.66667-6.83333-29.375-12.875-41.46875C130.60417,309.51042,128,303.5,128,298.66667V256h21.33333v42.66667c.45834,1.53125,4.75,10.09375,6.16667,12.90625,6.41667,12.88541,15.16667,30.39583,15.16667,51.09375v42.66666c0,26.19792-13.375,41.54167-21.33334,49.65625Z" style="fill:#b7745a"/><path d="M136.41667,321.13542C130.60417,309.51042,128,303.5,128,298.66667v-64h21.33333v64c.45834,1.53125,4.75,10.09375,6.16667,12.90625Z" style="fill:#c99884"/><rect x="213.33333" y="234.66667" width="21.33333" height="64" style="fill:#a34e2d"/><rect x="128" y="448" width="21.33333" height="21.33333" style="fill:#c99884"/><rect x="213.33333" y="448" width="21.33333" height="21.33333" style="fill:#a34e2d"/><rect x="128" y="469.33333" width="85.33333" height="21.33333" style="fill:#8b2800"/><rect x="192" y="64" width="42.66667" height="21.33333" style="fill:#a37f39"/><rect x="170.66667" y="64" width="21.33333" height="21.33333" style="fill:#c5af83"/><path d="M426.66667,170.66667h-192v42.66666C234.66667,298.66667,256,341.33333,256,384v85.33333c0,21.33334,21.33333,21.33334,21.33333,21.33334H384s21.33333,0,21.33333-21.33334V384c0-42.66667,21.33334-85.33333,21.33334-170.66667Z" style="fill:#b99e69"/><path d="M320,490.66667V469.33333h63.91667L384,384c0-19.80208,3.875-38.51042,8.33333-60.16667,5.8125-28.01041,13-62.60416,13-110.5V170.66667h21.33334v42.66666c0,50.09375-7.41667,85.86459-13.39584,114.61459C409,348.66667,405.33333,366.38542,405.33333,384v85.33333c0,12.60417-8.29166,20.97917-21.125,21.33334Z" style="fill:#a37f39"/><path d="M320,469.33333V384c0-42.66667,21.33333-85.33333,21.33333-170.66667V170.66667H234.66667v42.66666C234.66667,298.66667,256,341.33333,256,384v85.33333c0,21.33334,21.33333,21.33334,21.33333,21.33334h21.33334S320,490.66667,320,469.33333Z" style="fill:#d4c3a2"/><path d="M298.66667,469.33333H277.33333V384c0-19.79167-4.04166-39.40625-8.33333-60.17708-6.125-29.42709-13-62.5625-13-110.48959h21.33333c0,45.72917,6.64584,77.72917,12.5,105.95834,4.5625,22.08333,8.83334,42.73958,8.83334,64.70833Z" style="fill:#eae2ce"/><path d="M263.98828,298.66667c1.61068,8.73307,3.30469,17.013,4.94922,24.95833,4.5,21.73958,8.39583,40.52083,8.39583,60.375v42.66667A21.33355,21.33355,0,0,0,298.66667,448h64A21.33355,21.33355,0,0,0,384,426.66667V384c0-19.85417,3.89583-38.63542,8.39583-60.375,1.64453-7.94531,3.33855-16.22526,4.94922-24.95833Z" style="fill:#8b2800"/><path d="M263.98828,298.66667c1.61068,8.73307,3.30469,17.013,4.94922,24.95833,4.5,21.73958,8.39583,40.52083,8.39583,60.375v42.66667A21.33355,21.33355,0,0,0,298.66667,448H320V384c0-25.38021,7.52214-50.97135,13.63932-85.33333Z" style="fill:#ad6143"/><path d="M298.66667,426.66667V384c0-21.96875-4.27084-42.625-8.83334-64.70833-1.37239-6.61459-2.78385-13.46745-4.14713-20.625H263.99089c.00781.04427.01562.09244.02473.13672,1.42839,7.74218,2.92318,15.02734,4.39063,22.14062.19792.95052.39714,1.9362.59375,2.87891,1.71354,8.29557,3.3112,16.3763,4.70443,24.388,2.11979,12.11067,3.6289,23.78646,3.6289,35.78906v42.66667A21.33355,21.33355,0,0,0,298.66667,448H320V426.66667Z" style="fill:#c99884"/><rect x="362.66667" y="192" width="42.66667" height="21.33333" style="fill:#d4c3a2"/><rect x="256" y="192" width="64" height="21.33333" style="fill:#eae2ce"/></g></svg>