<svg xmlns="http://www.w3.org/2000/svg" viewBox="0 0 512 512"><title>Artboard 137</title><g id="Strawberry"><path d="M192,106.66667s0-85.33334,106.66667-85.33334c0,0-42.66667,21.33334-42.66667,85.33334Z" style="fill:#fdab00"/><path d="M256.35417,96.76042,235.0625,95.23958c1.85417-25.79166,9.95833-48.21875,24.08333-66.66666L276.0625,41.55208C264.52083,56.625,257.89583,75.19792,256.35417,96.76042Z" style="fill:#f59707"/><path d="M320,64H192c-21.33333,0-42.66667-21.33333-42.66667-21.33333C149.33333,128,192,128,192,128H320c42.66667,0,42.66667-85.33333,42.66667-85.33333S341.33333,64,320,64Z" style="fill:#fdbc34"/><path d="M106.66667,85.33333s0,64,85.33333,64H320c64,0,85.33333-21.33333,85.33333-64V64S384,85.33333,362.66667,85.33333H149.33333C128,85.33333,106.66667,64,106.66667,64Z" style="fill:#fdbc34"/><path d="M362.66667,106.66667H149.33333c-12,0-24.625-4-37.5625-11.88542l11.125-18.20833c9.52084,5.8125,18.41667,8.76041,26.4375,8.76041H362.66667c8.02083,0,16.91666-2.94791,26.4375-8.76041l11.125,18.20833C387.29167,102.66667,374.66667,106.66667,362.66667,106.66667Z" style="fill:#fdab00"/><path d="M256,106.66667c-106.03906,0-192,54.85677-192,146.28515,0,88.38151,69.8112,90.29167,85.33333,152.38151C170.66667,490.66667,234.66667,490.66667,256,490.66667s85.33333,0,106.66667-85.33334C378.1888,343.24349,448,341.33333,448,252.95182,448,161.52344,362.03906,106.66667,256,106.66667Z" style="fill:#c82e25"/><ellipse cx="170.66667" cy="213.33333" rx="76.17515" ry="48.86037" transform="translate(-100.86234 183.16344) rotate(-45)" style="fill:#d2514a"/><ellipse cx="161.9721" cy="176.81173" rx="26.32858" ry="16.88771" transform="translate(-77.58425 166.31853) rotate(-45)" style="fill:#e59b96"/><path d="M256,490.66667c-21.10417,0-85.3125,0-106.66667-85.33334l41.375-10.35416C203.97917,448,236.54167,448,256,448s52.02083,0,65.29167-53.02083c9.52083-38.19792,32.6875-60.28125,51.29166-78.02084,21.125-20.15625,32.75-31.23958,32.75-64.01041,0-71.1875-77.41666-103.61459-149.33333-103.61459V106.66667c92.47917,0,192,45.78125,192,146.28125,0,51.04166-23.35417,73.3125-45.9375,94.85416-16.16667,15.41667-32.85417,31.3125-39.375,57.52084C341.3125,490.66667,277.10417,490.66667,256,490.66667Z" style="fill:#af0a00"/><path d="M256,320V298.66667A21.33334,21.33334,0,0,0,256,256V234.66667A42.66666,42.66666,0,1,1,256,320Z" style="fill:#d96c66"/><circle cx="256" cy="277.33333" r="21.33333" style="fill:#7d1a00"/><path d="M128,320V298.66667A21.33334,21.33334,0,0,0,128,256V234.66667A42.66667,42.66667,0,1,1,128,320Z" style="fill:#d96c66"/><circle cx="128" cy="277.33333" r="21.33333" style="fill:#7d1a00"/><path d="M192,384V362.66667A21.33333,21.33333,0,0,0,192,320V298.66667A42.66666,42.66666,0,1,1,192,384Z" style="fill:#d96c66"/><circle cx="192" cy="341.33333" r="21.33333" style="fill:#7d1a00"/><path d="M192,256V234.66667A21.33334,21.33334,0,0,0,192,192V170.66667A42.66667,42.66667,0,1,1,192,256Z" style="fill:#d96c66"/><circle cx="192" cy="213.33333" r="21.33333" style="fill:#7d1a00"/><path d="M320,384V362.66667A21.33334,21.33334,0,0,0,320,320V298.66667A42.66666,42.66666,0,1,1,320,384Z" style="fill:#d2514a"/><circle cx="320" cy="341.33333" r="21.33333" style="fill:#7d1a00"/><path d="M320,256V234.66667A21.33334,21.33334,0,0,0,320,192V170.66667A42.66666,42.66666,0,1,1,320,256Z" style="fill:#d96c66"/><circle cx="320" cy="213.33333" r="21.33333" style="fill:#7d1a00"/><path d="M384,320V298.66667A21.33334,21.33334,0,0,0,384,256V234.66667A42.66666,42.66666,0,1,1,384,320Z" style="fill:#d2514a"/><circle cx="384" cy="277.33333" r="21.33333" style="fill:#7d1a00"/><path d="M256,448V426.66667A21.33333,21.33333,0,0,0,256,384V362.66667A42.66666,42.66666,0,1,1,256,448Z" style="fill:#d2514a"/><circle cx="256" cy="405.33333" r="21.33333" style="fill:#7d1a00"/></g></svg>