<svg xmlns="http://www.w3.org/2000/svg" viewBox="0 0 512 512"><title>Artboard 150</title><g id="Tomato"><path d="M149.33333,469.33333c64,0,64,21.33334,106.66667,21.33334s42.66667-21.33334,106.66667-21.33334c85.33333,0,128-106.66666,128-213.33333S448,85.33333,362.66667,85.33333C298.66667,85.33333,320,64,256,64S213.33333,85.33333,149.33333,85.33333c-85.33333,0-128,64-128,170.66667S64,469.33333,149.33333,469.33333Z" style="fill:#c11107"/><path d="M384,320c0-149.33333-42.66667-256-128-256-64,0-42.66667,21.33333-106.66667,21.33333-85.33333,0-128,64-128,170.66667S64,469.33333,149.33333,469.33333c64,0,64,21.33334,106.66667,21.33334C256,490.66667,384,469.33333,384,320Z" style="fill:#c82e25"/><ellipse cx="106.66667" cy="170.66667" rx="48.26898" ry="36.20174" transform="translate(-89.43761 125.41183) rotate(-45)" style="fill:#d2514a"/><ellipse cx="85.33333" cy="149.33333" rx="26.19041" ry="14.96574" transform="translate(-80.60106 104.0785) rotate(-45)" style="fill:#de807a"/><path d="M251.8125,490.25C250.58333,490,128,463.58333,128,298.66667c0-139.58334,93.15625-187.77084,97.125-189.75l19.08333,38.16666c-2.875,1.47917-73.54166,39.39584-73.54166,151.58334,0,128.85416,86.02083,148.97916,89.67708,149.77083Z" style="fill:#c11107"/><path d="M362.66667,469.33333V426.66667C418.09375,426.66667,448,338.72917,448,256c0-128-64.22917-128-85.33333-128V85.33333c47.80208,0,128,22.16667,128,170.66667C490.66667,358.75,450.61458,469.33333,362.66667,469.33333Z" style="fill:#af0a00"/><path d="M362.66667,128l53.24349-14.1237S405.33333,64,341.33333,64,256,85.33333,256,85.33333,234.66667,64,192,64s-64,0-85.33333-21.33333c0,0,0,64,85.33333,64,0,0-64,42.66666-64,85.33333,0,0,42.66667-42.66667,85.33333-42.66667C192,170.66667,192,197.67448,192,234.66667c0,0,41.5625-62.36849,106.66667-64,40.6875,22.44791,64,58.23958,64,85.33333,0,0,42.66666-21.33333,42.66666-64S362.66667,128,362.66667,128Z" style="fill:#ef7f00"/><path d="M156.6875,169.3125,145.125,151.39583C169.16667,135.875,192.11458,128,213.33333,128h25.75v21.33333h-25.75C196.53125,149.33333,176.94792,156.25,156.6875,169.3125Z" style="fill:#e76400"/><path d="M364.84375,256.375l-4.39583-15.9375c-7.15625-25.95833-30.83334-52.6875-61.78125-69.77083H298.625c-38.85417.95833-69.25,23.33333-87.90625,41.9375l-15.0625-15.125c21.40625-21.33334,56.5625-47,102.47917-48.14584l5.79166-.125L308.96875,152c29.95833,16.52083,53.51042,40.4375,65.78125,66.125,5.21875-6.97917,9.25-15.75,9.25-26.125h21.33333c0,25.35417-15.10416,43.25-27.78125,53.8125Z" style="fill:#e76400"/><rect x="331.72504" y="105.04856" width="71.227" height="21.34038" transform="translate(-17.39683 98.19375) rotate(-14.87737)" style="fill:#e76400"/><circle cx="288" cy="138.66667" r="32" style="fill:#e76400"/><path d="M256,122.04172v.00005a27.29157,27.29157,0,0,0,27.29157,27.29156h0a27.28737,27.28737,0,0,0,22.71863-12.19959c8.15315-12.16364,44.42863-52.33953,66.15976-66.37153A26.479,26.479,0,0,0,384,48.44821v0a27.11483,27.11483,0,0,0-27.11483-27.11484h0a54.41546,54.41546,0,0,0-31.63254,10.02388C314.122,39.27162,277.84918,73.206,265.69067,90.4937A54.87029,54.87029,0,0,0,256,122.04172Z" style="fill:#f59707"/><path d="M283.29167,149.33333A27.32489,27.32489,0,0,1,256,122.04167h21.33333c0,5.27083,7.88542,7.8125,10.96875,3.20833,8.79167-13.10417,47.14584-56.16667,72.29167-72.39583l11.5625,17.91666c-21.61458,13.95834-58.01042,54.25-66.14583,66.35417A27.34259,27.34259,0,0,1,283.29167,149.33333Z" style="fill:#ef7f00"/><ellipse cx="234.66667" cy="277.33333" rx="42.66667" ry="64" style="fill:#d2514a"/></g></svg>