<svg xmlns="http://www.w3.org/2000/svg" viewBox="0 0 512 512"><title>Artboard 154</title><g id="Watermelon"><path d="M469.33333,170.66667,256,64,21.33333,320S85.33333,448,256,448,490.66667,320,490.66667,320C490.66667,256,469.33333,170.66667,469.33333,170.66667Z" style="fill:#fee3aa"/><path d="M256,448c170.66667,0,234.66667-128,234.66667-128L256,64,21.33333,320S85.33333,448,256,448Z" style="fill:#fdcf6d"/><path d="M48.293,290.58984C92.73828,353.67188,154.81156,405.33333,256,405.33333s165.61547-77.15795,192.332-131.51692c-15.86313-67.04412-32.8694-130.08509-32.8694-130.08509L256,64Z" style="fill:#d2514a"/><circle cx="405.33333" cy="192" r="21.33333" style="fill:#cd3e36"/><path d="M448.332,273.81641C429.13151,314.73438,367.00781,384,256,384S82.86849,314.73438,63.668,273.81641l-15.35287,16.75C73.36979,336.52734,140.89193,405.33333,256,405.33333c115.11719,0,182.64193-68.819,207.69141-114.76172Z" style="fill:#de807a"/><path d="M256,384c106.66667,0,170.66667-64,192.33724-110.17839L256,64,63.66276,273.82161C85.33333,320,149.33333,384,256,384Z" style="fill:#c11107"/><path d="M103.15625,278.08333,256,111.35417" style="fill:#c11107"/><rect x="66.48543" y="184.05049" width="226.18538" height="21.33652" transform="translate(-85.30492 195.53514) rotate(-47.49299)" style="fill:#cd3e36"/><rect x="122.9574" y="178.52966" width="123.36646" height="21.33652" transform="translate(-79.59312 197.47667) rotate(-47.49299)" style="fill:#d96c66"/><circle cx="266.66667" cy="330.66667" r="32" style="fill:#af0a00"/><ellipse cx="288" cy="213.33333" rx="10.66667" ry="21.33333" style="fill:#7d1a00"/><ellipse cx="330.66667" cy="117.33333" rx="6.74471" ry="13.48943" transform="translate(13.88283 268.18278) rotate(-45)" style="fill:#8b2800"/><ellipse cx="394.66667" cy="181.33333" rx="6.74471" ry="13.48943" transform="translate(-12.62684 332.18278) rotate(-45)" style="fill:#8b2800"/><ellipse cx="202.66667" cy="213.33333" rx="10.66667" ry="21.33333" style="fill:#7d1a00"/><ellipse cx="373.33333" cy="277.33333" rx="10.66667" ry="21.33333" style="fill:#7d1a00"/><ellipse cx="245.33333" cy="320" rx="10.66667" ry="21.33333" style="fill:#7d1a00"/><ellipse cx="160" cy="298.66667" rx="10.66667" ry="21.33333" style="fill:#7d1a00"/><ellipse cx="245.33333" cy="128" rx="10.66667" ry="21.33333" style="fill:#7d1a00"/><path d="M463.69141,290.57161s-4.321-50.88941-28.92792-137.18986l-19.30086-9.65043s15.07437,57.79721,32.87461,130.09029Z" style="fill:#ecb8b5"/><circle cx="288" cy="138.66667" r="10.66667" style="fill:#af0a00"/><circle cx="320" cy="298.66667" r="21.33333" style="fill:#af0a00"/><circle cx="384" cy="234.66667" r="21.33333" style="fill:#af0a00"/><circle cx="330.66667" cy="181.33333" r="10.66667" style="fill:#af0a00"/><circle cx="373.33333" cy="138.66667" r="10.66667" style="fill:#cd3e36"/></g></svg>