<svg xmlns="http://www.w3.org/2000/svg" viewBox="0 0 512 512"><title>Barbecue</title><g id="Barbecue"><path d="M439.4946,71.57h0a6.8184,6.8184,0,0,1-6.9347-6.7h0a4.5417,4.5417,0,0,0-4.0578-4.5134,4.4144,4.4144,0,0,0-4.771,4.4754l.0033.19a6.8184,6.8184,0,0,1-6.7,6.9348h0a4.5416,4.5416,0,0,0-4.5134,4.0578,4.4144,4.4144,0,0,0,4.4754,4.7709l.19-.0033a6.8185,6.8185,0,0,1,6.9348,6.7h0a4.5416,4.5416,0,0,0,4.0578,4.5134,4.4144,4.4144,0,0,0,4.7709-4.4753l-.0033-.19a6.8185,6.8185,0,0,1,6.7-6.9347l.19-.0033a4.4144,4.4144,0,0,0,4.3085-4.9221A4.5417,4.5417,0,0,0,439.4946,71.57Z" style="fill:#f9d129"/><path d="M382.439,141.141a9.96,9.96,0,0,1-4.7-1.18c-44.6333-23.8232-75.5752-1.08-75.8829-.8476A10,10,0,1,1,289.79,123.1645c1.6714-1.2657,41.5777-30.626,97.3662-.8477a10.0013,10.0013,0,0,1-4.7172,18.8242Z" style="fill:#fff1c6"/><path d="M344.4386,109.2921c-32.4555-2.4874-53.4462,12.9618-54.6486,13.8723a10,10,0,1,0,12.0664,15.9492c.2637-.1992,23.0316-16.93,57.6341-6.712A81.3839,81.3839,0,0,0,344.4386,109.2921Z" style="fill:#ffe07e"/><ellipse cx="339.1359" cy="80.1316" rx="41.9974" ry="32.9162" style="fill:#ff4a45"/><path d="M344.78,13.81a6.5,6.5,0,1,0-13,0l-.0243,34.713a6.5239,6.5239,0,0,0,13.0478,0Z" style="fill:#fdbb29"/><path d="M344.78,435.9434V394.92c-.11-.02-.23-.05-.34-.07a92.4348,92.4348,0,0,0-12.66-1.36v42.4531c-14.91,3.2073-26.1692,17.2229-26.1692,33.9788,0,19.1172,14.6553,34.67,32.669,34.67s32.6684-15.5527,32.6684-34.67C370.9482,453.1663,359.69,439.1509,344.78,435.9434Zm-6.5,55.6484c-10.8457,0-19.669-9.7207-19.669-21.67s8.8233-21.67,19.669-21.67,19.6684,9.7207,19.6684,21.67S349.125,491.5918,338.28,491.5918Z" style="fill:#fdbb29"/><rect x="294.146" y="233.3531" width="89.5881" height="31.081" rx="9.2552" style="fill:#6dcc82"/><path d="M383.9245,321.0066c-33.69-7.8242-89.9688-.87-89.9688-.87l.0069.0084a9.6871,9.6871,0,0,0-8.5459,9.6277v55.0822a9.6875,9.6875,0,0,0,11.21,9.5647c8.1377-1.2793,35.1813-2.092,47.81.4336,14.8359,2.9673,30.3573,2.1646,39.7062,1.1844a9.6957,9.6957,0,0,0,8.701-9.6375v-55.728A9.6954,9.6954,0,0,0,383.9245,321.0066Z" style="fill:#b44031"/><rect x="294.3364" y="292.712" width="89.5881" height="31.081" rx="9.2552" style="fill:#ffcd2c"/><path d="M371.48,396.8726c-12.654-29.2073-45.2651-51.8714-86.0637-59.347v47.3291a9.6875,9.6875,0,0,0,11.21,9.5647c8.1377-1.2793,35.1813-2.092,47.81.4336A123.4238,123.4238,0,0,0,371.48,396.8726Z" style="fill:#97260d"/><path d="M303.5916,292.7119a9.2553,9.2553,0,0,0-9.2552,9.2554v12.57a9.2553,9.2553,0,0,0,9.2552,9.2553h48.0213a68.3021,68.3021,0,0,0-7.5976-31.0811Z" style="fill:#f9aa13"/><path d="M294.1461,242.6084v12.57a9.2552,9.2552,0,0,0,9.2552,9.2553h48.1824c.0143-.5631.0292-1.1261.0292-1.6917a68.0088,68.0088,0,0,0-6.7685-29.3894H303.4013A9.2553,9.2553,0,0,0,294.1461,242.6084Z" style="fill:#49b464"/><path d="M383.9245,162.5425c-33.69-7.8242-89.9688-.87-89.9688-.87l.0209.0255a9.6816,9.6816,0,0,0-8.56,9.61v55.0824a9.6875,9.6875,0,0,0,11.21,9.5647c8.1377-1.2793,35.1813-2.0921,47.81.4336a127.4562,127.4562,0,0,0,30.3556,1.8966,18.9522,18.9522,0,0,0,18.0516-18.9351V172.2078A9.6955,9.6955,0,0,0,383.9245,162.5425Z" style="fill:#b44031"/><path d="M369.2344,238.4435c-12.0569-29.059-43.8-51.8074-83.8177-59.8649v47.8121a9.6875,9.6875,0,0,0,11.21,9.5647c8.1377-1.2793,35.1813-2.0921,47.81.4336A120.4926,120.4926,0,0,0,369.2344,238.4435Z" style="fill:#97260d"/><path d="M358.7834,109.2239c-.0008-24.0166-17.7568-44.9248-44.0092-55.8961-10.6711,5.9686-17.6358,15.7457-17.6358,26.8038,0,18.1792,18.8029,32.9163,41.9975,32.9163A51.2524,51.2524,0,0,0,358.7834,109.2239Z" style="fill:#d13931"/><path d="M317.2865,79.3707A19.7552,19.7552,0,0,0,330.643,91.5463l.1578.0475a4.5012,4.5012,0,0,1-2.1281,8.7341,33.12,33.12,0,0,1-6.5769-1.9258,28.2955,28.2955,0,0,1-6.1147-3.47,31.3691,31.3691,0,0,1-9.035-10.7185l-.0447-.0854a5.7194,5.7194,0,1,1,10.1333-5.3069A5.903,5.903,0,0,1,317.2865,79.3707Z" style="fill:#fff"/><circle cx="346.1363" cy="96.9688" r="5.2589" style="fill:#fff"/><path d="M338.28,424.25a41.005,41.005,0,0,0-6.5.51v11.18a30.9653,30.9653,0,0,1,13,0V424.76A41.0059,41.0059,0,0,0,338.28,424.25Z" style="fill:#f97417"/><path d="M344.78,264.43h-13l-.0243,30.0728a6.5239,6.5239,0,1,0,13.0478,0Z" style="fill:#fdbb29"/><path d="M344.78,129.48a72.1436,72.1436,0,0,0-13-.17l-.0243,32.4307a6.5239,6.5239,0,0,0,13.0478,0Z" style="fill:#fdbb29"/><path d="M370.7209,474.04c-1.93,17.19-15.74,30.55-32.44,30.55-18.01,0-32.67-15.55-32.67-34.67a35.8559,35.8559,0,0,1,5.76-19.63,44.89,44.89,0,0,0,8.22,12.85,23.8946,23.8946,0,0,0-.98,6.78c0,11.95,8.82,21.67,19.67,21.67,8.39,0,15.57-5.82,18.39-13.98A44.3661,44.3661,0,0,0,370.7209,474.04Z" style="fill:#ffde76"/><path d="M228.7578,281.1621a9.9638,9.9638,0,0,1-4.7-1.18c-44.6328-23.8232-75.5747-1.08-75.8823-.8476a10,10,0,1,1-12.0664-15.9493c1.6714-1.2646,41.5776-30.624,97.3667-.8476a10.0016,10.0016,0,0,1-4.7178,18.8242Z" style="fill:#fff1c6"/><path d="M182.6782,249.0505c-27.8251.3169-45.47,13.3033-46.5693,14.135a10,10,0,1,0,12.0664,15.9493c.2429-.1836,19.5916-14.3982,49.6968-8.6415a9.9078,9.9078,0,0,0,2.266-6.0592C200.1381,258.25,193.3456,252.7217,182.6782,249.0505Z" style="fill:#ffe07e"/><rect x="140.8507" y="361.6505" width="89.5881" height="31.081" rx="9.2552" style="fill:#ffcd2c"/><path d="M140.8506,370.9058v12.57a9.2552,9.2552,0,0,0,9.2553,9.2551h52.0617c-2.14-11.7835-8.8442-22.4809-18.7513-31.0809h-33.31A9.2553,9.2553,0,0,0,140.8506,370.9058Z" style="fill:#f9aa13"/><ellipse cx="185.6501" cy="194.9627" rx="42.4952" ry="36.1385" style="fill:#ff4a45"/><path d="M192.15,435.9434V392.73h-13v43.2131c-14.91,3.2075-26.1686,17.2232-26.1686,33.9788,0,19.1172,14.6548,34.67,32.6685,34.67s32.6689-15.5527,32.6689-34.67C218.3188,453.1663,207.06,439.1506,192.15,435.9434Zm-6.5,55.6484c-10.8452,0-19.6685-9.7207-19.6685-21.67s8.8233-21.67,19.6685-21.67,19.6689,9.7207,19.6689,21.67S196.4956,491.5918,185.65,491.5918Z" style="fill:#fdbb29"/><rect x="140.8507" y="48.1144" width="89.5881" height="31.081" rx="9.2552" style="fill:#6dcc82"/><path d="M239.36,301.45V348a19.5364,19.5364,0,0,1-17.26,19.43c-.46.06-.92.1-1.39.12a126.5019,126.5019,0,0,1-29.76-1.92c-12.63-2.52-39.67-1.71-47.81-.43a9.6893,9.6893,0,0,1-11.16-8.61c-.03-.34-.05-.67-.05-1.01V300.5a8.5063,8.5063,0,0,1,.04-.88,9.6935,9.6935,0,0,1,8.52-8.68l-.02-.03a.28.28,0,0,0,.06-.01h.01c2.17-.26,56.88-6.78,89.9.88A9.7014,9.7014,0,0,1,239.36,301.45Z" style="fill:#b44031"/><path d="M192.15,230.68a50.4957,50.4957,0,0,1-13,0l-.0238,18.7962a6.5239,6.5239,0,0,0,13.0478,0Z" style="fill:#fdbb29"/><path d="M239.36,301.45V348a19.5364,19.5364,0,0,1-17.26,19.43c-.46.06-.92.1-1.39.12a126.5019,126.5019,0,0,1-29.76-1.92c-12.63-2.52-39.67-1.71-47.81-.43a9.6893,9.6893,0,0,1-11.16-8.61c-.03-.34-.05-.67-.05-1.01V300.5a8.5063,8.5063,0,0,1,.04-.88,9.6935,9.6935,0,0,1,8.52-8.68l-.02-.03a.28.28,0,0,0,.06-.01h.01c2.17-.26,56.88-6.78,89.9.88A9.7014,9.7014,0,0,1,239.36,301.45Z" style="fill:#b44031"/><path d="M217.1689,367.6666c-.0284-33.2848-36.2625-60.261-80.957-60.261q-2.1549,0-4.2819.0851V355.58c0,.34.02.67.05,1.01a9.6893,9.6893,0,0,0,11.16,8.61c8.14-1.28,35.18-2.09,47.81.43A122.3667,122.3667,0,0,0,217.1689,367.6666Z" style="fill:#97260d"/><path d="M140.8506,57.37V69.94a9.2553,9.2553,0,0,0,9.2553,9.2551h64.3946c-4.367-12.3584-13.8613-23.1667-26.6955-31.0809H150.1059A9.2553,9.2553,0,0,0,140.8506,57.37Z" style="fill:#49b464"/><path d="M154.9687,169.9734c-7.3123,6.491-11.8138,15.2905-11.8138,24.9892,0,19.9588,19.0258,36.1386,42.4952,36.1386a48.7442,48.7442,0,0,0,17.1734-3.0831c.0647-.9892.1013-1.9839.1013-2.985C202.9248,200.4883,183.2246,179.384,154.9687,169.9734Z" style="fill:#d13931"/><path d="M230.4388,99.3411c-33.6895-7.8243-89.9688-.87-89.9688-.87s-8.539,1.5538-8.539,9.636v55.0823a9.6876,9.6876,0,0,0,11.21,9.5648c8.1377-1.2794,35.1813-2.0921,47.81.4336,14.836,2.9672,30.3574,2.1645,39.7063,1.1842a9.6955,9.6955,0,0,0,8.701-9.6374V109.0063A9.6953,9.6953,0,0,0,230.4388,99.3411Z" style="fill:#b44031"/><path d="M216.77,175.231c-4.0411-30.4877-38.5627-54.3047-80.5578-54.3047q-2.1545,0-4.2809.0851v42.1778a9.6876,9.6876,0,0,0,11.21,9.5648c8.1377-1.2794,35.1813-2.0921,47.81.4336A121.8586,121.8586,0,0,0,216.77,175.231Z" style="fill:#97260d"/><path d="M216.8658,201.9269a31.3715,31.3715,0,0,1-9.035,10.7186,28.2955,28.2955,0,0,1-6.1147,3.47,33.12,33.12,0,0,1-6.5769,1.9258,4.5015,4.5015,0,0,1-2.1494-8.7282l.1791-.0536a19.7543,19.7543,0,0,0,13.3565-12.1754,5.7194,5.7194,0,0,1,10.6369,4.2077,5.8073,5.8073,0,0,1-.2482.5438Z" style="fill:#fff"/><circle cx="177.6756" cy="214.6822" r="5.2589" style="fill:#fff"/><path d="M226.75,185.76c-4.33.33-8.64.5-12.87.5a128.6983,128.6983,0,0,1-25.09-2.29,74.4893,74.4893,0,0,0-8.9-1.04,83.6549,83.6549,0,0,0-20.33-11.3c2.32-.06,4.74-.09,7.18-.09,8.94,0,18.21.45,24.21,1.65a118.9445,118.9445,0,0,0,22.93,2.07c2.54,0,4.97-.06,7.26-.17A33.6274,33.6274,0,0,1,226.75,185.76Z" style="fill:#d13931"/><path d="M179.89,182.93c-3.83-.25-8.3-.39-13.15-.39a191.6929,191.6929,0,0,0-21.41,1.01,34.8149,34.8149,0,0,1,7.62-11.66c2.05-.11,4.28-.2,6.6-.26h.01A83.6549,83.6549,0,0,1,179.89,182.93Z" style="fill:#97260d"/><path d="M230.44,370.91v5.77a31.177,31.177,0,0,1-7.01,1.67c-.75.09-1.5.16-2.23.19-2.46.11-4.93.17-7.35.17a136.1266,136.1266,0,0,1-17.17-1.03A58.3348,58.3348,0,0,0,187.01,365c1.42.18,2.75.39,3.94.63a118.6942,118.6942,0,0,0,22.9,2.08c2.39,0,4.69-.06,6.86-.16.47-.02.93-.06,1.39-.12a19.3382,19.3382,0,0,0,6.55-1.98A9.2014,9.2014,0,0,1,230.44,370.91Z" style="fill:#f9aa13"/><path d="M196.68,377.68q-4.065-.4948-7.88-1.26c-4.56-.91-12.6-1.43-22.06-1.43a180.63,180.63,0,0,0-21.9,1.08,21.8688,21.8688,0,0,1-3.23.25c-.25,0-.5-.03-.76-.04v-5.37a9.198,9.198,0,0,1,1.95-5.67c.11-.01.23-.02.34-.04a188.99,188.99,0,0,1,23.6-1.21A171.2632,171.2632,0,0,1,187.01,365,58.3348,58.3348,0,0,1,196.68,377.68Z" style="fill:#f97417"/><path d="M185.65,424.25a41.005,41.005,0,0,0-6.5.51v11.18a30.9653,30.9653,0,0,1,13,0V424.76A41.005,41.005,0,0,0,185.65,424.25Z" style="fill:#f97417"/><path d="M192.15,79.2h-13l-.0238,20.0644a6.5239,6.5239,0,0,0,13.0478,0Z" style="fill:#fdbb29"/><path d="M192.15,13.81a6.5,6.5,0,0,0-13,0l-.0238,34.713a6.5239,6.5239,0,0,0,13.0478,0Z" style="fill:#fdbb29"/><path d="M218.09,474.04c-1.93,17.19-15.74,30.55-32.44,30.55-18.01,0-32.67-15.55-32.67-34.67a35.8559,35.8559,0,0,1,5.76-19.63,44.8913,44.8913,0,0,0,8.22,12.85,23.8946,23.8946,0,0,0-.98,6.78c0,11.95,8.82,21.67,19.67,21.67,8.39,0,15.57-5.82,18.39-13.98A44.3655,44.3655,0,0,0,218.09,474.04Z" style="fill:#ffde76"/><path d="M192.15,269.62a71.2173,71.2173,0,0,0-13-.36l-.0238,23.35a6.5239,6.5239,0,0,0,13.0478,0Z" style="fill:#fdbb29"/></g></svg>