<svg xmlns="http://www.w3.org/2000/svg" viewBox="0 0 48 48"><defs><style>.cls-1{fill:#a16042}.cls-2{fill:#ffb38d}.cls-3{fill:#ee6450}.cls-4{fill:#d2885f}.cls-5{fill:#fd7f5d}.cls-6{fill:#f6fafd}.cls-7{fill:#fff3c1}.cls-8{fill:#f49c76}.cls-9{fill:#dee3f3}</style></defs><title>11-beef</title><g id="_11-beef" data-name="11-beef"><path class="cls-1" d="M47 24.6V31c0 7.96-4 16-13 16 0 0-10-1-14-8-1.5-2.62-5.54-2.99-8-3-1.18-.01-2 0-2 0-3.54.0-9-4.03-9-10V19.6C1 25.57 6.46 30 10 30c0 0 12 0 14 4 3.22 6.44 11 7 11 7C43 41 47 32.56 47 24.6z"/><path class="cls-2" d="M44 22.94C44 14.16 40.23 10 33.43 10H13.23A9.24 9.24.0 0 0 4 19.26C4 23.65 8.92 27 12 27c0 0 13 0 15 5 2.17 5.41 6.57 5 6.57 5C42 37 44 28.79 44 22.94zM34.85 7C42.67 7 47 12.66 47 24.6 47 32.56 43 41 35 41c0 0-7.78-.56-11-7-2-4-14-4-14-4-3.54.0-9-4.43-9-10.4C1 12.64 5.75 7 11.62 7z"/><path class="cls-3" d="M33.43 10C40.23 10 44 14.16 44 22.94 44 28.79 42 37 33.57 37c0 0-4.4.41-6.57-5-2-5-15-5-15-5-3.08.0-8-3.35-8-7.74A9.24 9.24.0 0 1 13.23 10zM37 17a3 3 0 1 0-3 3 3 3 0 0 0 3-3z"/><path class="cls-4" d="M35 41s-7.78-.56-11-7c-2-4-14-4-14-4-3.54.0-9-4.43-9-10.4v3C1 28.57 6.46 33 10 33c0 0 12 0 14 4 3.22 6.44 11 7 11 7 8 0 12-8.44 12-16.4v-3C47 32.56 43 41 35 41z"/><path class="cls-5" d="M44 22.94C44 14.16 40.23 10 33.43 10H13.23a9.214 9.214.0 0 0-8.2 5.02A9.16 9.16.0 0 1 9.23 14h20.2C36.23 14 40 18.16 40 26.94a19.69 19.69.0 0 1-1.98 9.075C42.731 33.673 44 27.574 44 22.94z"/><circle class="cls-6" cx="34" cy="17" r="3"/><path class="cls-7" d="M34.85 7H11.62a10.03 10.03.0 0 0-8.2 4.615A9.318 9.318.0 0 1 8.62 10H33.85C41.67 10 46 15.66 46 27.6a23.592 23.592.0 0 1-.706 5.726A22.541 22.541.0 0 0 47 24.6C47 12.66 42.67 7 34.85 7z"/><ellipse class="cls-6" cx="38" cy="13" rx="1.65" ry="2.297" transform="translate(1.944 30.69) rotate(-45.02)"/><ellipse class="cls-6" cx="41" cy="16" rx=".825" ry="1.148" transform="translate(0.701 33.692) rotate(-45.02)"/><ellipse class="cls-8" cx="31" cy="27" rx="1.148" ry=".825" transform="translate(-10.011 29.843) rotate(-45.02)"/><ellipse class="cls-7" cx="32" cy="32" rx="1.148" ry=".825"/><ellipse class="cls-8" cx="24.746" cy="25.5" rx=".574" ry=".413" transform="translate(-10.783 24.955) rotate(-44.98)"/><ellipse class="cls-7" cx="31.746" cy="22.5" rx=".574" ry=".413" transform="translate(-6.614 29.025) rotate(-44.98)"/><ellipse class="cls-8" cx="25.746" cy="21.5" rx=".413" ry=".574"/><ellipse class="cls-8" cx="15.746" cy="24.5" rx=".413" ry=".574" transform="translate(-12.71 18.3) rotate(-44.98)"/><ellipse class="cls-8" cx="21.746" cy="23.5" rx=".413" ry=".574"/><ellipse class="cls-8" cx="21" cy="26" rx=".825" ry="1.148" transform="translate(-12.235 22.476) rotate(-45.02)"/><ellipse class="cls-8" cx="27" cy="29" rx="1.148" ry=".825" transform="translate(-12.598 27.599) rotate(-45.02)"/><ellipse class="cls-8" cx="28" cy="25" rx="1.148" ry=".825" transform="translate(-9.476 27.134) rotate(-45.02)"/><ellipse class="cls-8" cx="37" cy="27" rx="1.148" ry=".825" transform="translate(-8.252 34.087) rotate(-45.02)"/><ellipse class="cls-7" cx="21" cy="16" rx=".825" ry="1.148" transform="translate(-5.164 19.527) rotate(-44.98)"/><ellipse class="cls-7" cx="12" cy="22" rx=".825" ry="1.148"/><path class="cls-5" d="M16 22a1 1 0 0 1-.707-.293l-5-5a1 1 0 0 1 1.414-1.414l5 5A1 1 0 0 1 16 22z"/><path class="cls-5" d="M22 22a1 1 0 0 1-.707-.293l-5-5a1 1 0 0 1 1.414-1.414l5 5A1 1 0 0 1 22 22z"/><circle class="cls-9" cx="34" cy="17" r="2"/><path class="cls-3" d="M18 5H16a3.563 3.563.0 0 1 1.293-2.707C17.783 1.8 18 1.562 18 1h2a3.563 3.563.0 0 1-1.293 2.707C18.217 4.2 18 4.438 18 5z"/><path class="cls-3" d="M24 5H22a3.563 3.563.0 0 1 1.293-2.707C23.783 1.8 24 1.562 24 1h2a3.563 3.563.0 0 1-1.293 2.707C24.217 4.2 24 4.438 24 5z"/><path class="cls-3" d="M30 5H28a3.563 3.563.0 0 1 1.293-2.707C29.783 1.8 30 1.562 30 1h2a3.563 3.563.0 0 1-1.293 2.707C30.217 4.2 30 4.438 30 5z"/></g></svg>