<svg xmlns="http://www.w3.org/2000/svg" viewBox="0 0 512 512"><title>Burrito</title><g id="Burrito"><path d="M391.43,474.99c-10.82,18.85-65.6,33.2-131.54,33.2-66.01,0-120.82-14.37-131.58-33.25,2.7,3.67,7.99,6.08,13.93,5.85,3.36-.14,6.52-.31,8.65-.51A200.2949,200.2949,0,0,0,259.9,435.34a200.2751,200.2751,0,0,0,108.98,44.94c2.13.2,5.3.37,8.65.51C383.45,481.02,388.72,478.63,391.43,474.99Z" style="fill:#ff9200"/><path d="M393.28,89.34a74.2128,74.2128,0,0,1-4.96,26.79,16.8754,16.8754,0,0,0-5-2.24,19.17,19.17,0,0,0-5.73-.63c-2.2.08-4.19.18-5.6.29a203.66,203.66,0,0,0-55.11,12.25,59.8576,59.8576,0,0,0-115.92-.72,204.2961,204.2961,0,0,0-53.17-11.53c-1.42-.11-3.41-.21-5.61-.29a18.8558,18.8558,0,0,0-7.73,1.3A74.6236,74.6236,0,0,1,261.68,41.17a74.6079,74.6079,0,0,1,131.6,48.17Z" style="fill:#49b464"/><path d="M383.33,113.57c0,.11,0,.21-.01.32a19.17,19.17,0,0,0-5.73-.63c-2.2.08-4.19.18-5.6.29a200.4716,200.4716,0,0,0-112.1,45.22,200.53,200.53,0,0,0-112.1-45.22c-1.42-.11-3.41-.21-5.61-.29a18.7924,18.7924,0,0,0-7.83,1.34c-.01-.23-.01-.47-.02-.7a68.2828,68.2828,0,0,1,55.85-68.77,24.4518,24.4518,0,0,0,15.61-10.09,68.2969,68.2969,0,0,1,112.79,1.18,23.9741,23.9741,0,0,0,13.77,9.99A68.3069,68.3069,0,0,1,383.33,113.57Z" style="fill:#6dcc82"/><circle cx="258.825" cy="140.3572" r="59.8316" style="fill:#ff5e59"/><path d="M355.43,115.57c-3-4.65-10.05-12.73-22.65-12.73-17.7,0-22.79-18.7-41.7-12.89a59.8929,59.8929,0,0,1,25.79,35.85l.0292-.01v21.398a8.8182,8.8182,0,1,0,17.6363,0v-24.057a8.7861,8.7861,0,0,0-.4914-2.8818A202.9908,202.9908,0,0,1,355.43,115.57Z" style="fill:#fff"/><path d="M391.4492,474.95c-2.584,3.4971-7.5034,5.854-13.1079,5.854q-.4024,0-.81-.0164c-3.3567-.135-6.5217-.3049-8.65-.5087a200.2986,200.2986,0,0,1-108.9959-44.9344A200.2973,200.2973,0,0,1,150.89,480.2791c-2.1284.2038-5.2934.3737-8.65.5087-.2717.011-.5407.0164-.8095.0164-5.6079,0-10.5305-2.36-13.1133-5.8613,3.4311,6.0219,11.3379,11.5859,22.6694,16.37.3352-.0278.656-.0557.9527-.0842a210.8561,210.8561,0,0,0,107.9467-41.8377,210.8574,210.8574,0,0,0,107.9471,41.8377c.2961.0283.6167.0564.9514.0839C380.1108,486.5305,388.0159,480.9692,391.4492,474.95Z" style="fill:#f07100"/><path d="M268.74,151.84c-3.03,2.22-5.98,4.54-8.86,6.93a197.7426,197.7426,0,0,0-58.91-33.69,59.2254,59.2254,0,0,1,3.77-10.33A207.7885,207.7885,0,0,1,268.74,151.84Z" style="fill:#e53c38"/><path d="M193.5889,297.0536c0,95.3557,76.8316,173.7933,175.2928,183.2256,2.1283.2038,5.2933.3736,8.65.5087,8.6136.3467,15.843-4.88,15.843-11.4292v-344.67c0-6.5316-7.1917-11.7563-15.783-11.431-2.2.0832-4.188.1821-5.6053.2964C272.0405,121.6158,193.5889,200.6891,193.5889,297.0536Z" style="fill:#f9d129"/><path d="M377.5317,480.7878c8.6138.347,15.8433-4.88,15.8433-11.4292v-344.67c0-6.5318-7.1919-11.7564-15.7832-11.4312-.86.0326-1.6714.0683-2.4451.1055-27.5434,59.3032-80.518,123.01-180.71,166.4806q-.8349,8.5-.8481,17.21c0,95.3558,76.8315,173.7934,175.2927,183.2256C371.01,480.4829,374.175,480.6528,377.5317,480.7878Z" style="fill:#f9b729"/><path d="M393.375,469.3586V166.26C375.4836,233.5928,328.6377,318.627,211.96,375.1252c28.467,57.2845,87.28,98.4825,156.9216,105.1539,2.1284.2038,5.2934.3737,8.65.5087C386.1455,481.1348,393.375,475.9082,393.375,469.3586Z" style="fill:#f9ab13"/><circle cx="357.2241" cy="222.269" r="9.2096" style="fill:#f9ea76"/><path d="M393.37,154.44v18.02a9.3347,9.3347,0,0,1-1.92.2,9.21,9.21,0,1,1,0-18.42A9.3486,9.3486,0,0,1,393.37,154.44Z" style="fill:#ff9200"/><path d="M393.37,347.52v18.02a9.3347,9.3347,0,0,1-1.92.2,9.21,9.21,0,1,1,0-18.42A9.3416,9.3416,0,0,1,393.37,347.52Z" style="fill:#f9ea76"/><circle cx="343.6279" cy="404.6284" r="9.2096" style="fill:#ff9200"/><path d="M315.0968,430.985c-.0237-.0067.1108.1361.18.2175l.2859.3076c.19.2082.4143.4263.628.6424.4351.4311.8932.87,1.3676,1.2968.9453.86,1.9386,1.7056,2.971,2.517a77.0991,77.0991,0,0,0,6.5025,4.6052c2.2848,1.4,4.6155,2.7709,7.0514,3.9635,1.1974.6409,2.451,1.1654,3.6814,1.7532,1.243.5575,2.5128,1.0579,3.7734,1.5938l.2211.094a4.246,4.246,0,0,1-2.7859,8.0019c-1.4373-.3949-2.8891-.7587-4.324-1.1865-1.4244-.4589-2.8749-.8587-4.2837-1.3844-2.8528-.96-5.6411-2.13-8.4162-3.3672a88.4551,88.4551,0,0,1-8.128-4.2769c-1.3308-.7884-2.6408-1.6309-3.9421-2.531-.6526-.448-1.2971-.9162-1.9491-1.409-.3261-.25-.6482-.491-.9832-.7667l-.505-.4134c-.19-.1647-.318-.2632-.5936-.5223a6.5,6.5,0,1,1,9.2489-9.1355Z" style="fill:#fff"/><circle cx="357.6254" cy="456.505" r="6.5207" style="fill:#fff"/><path d="M326.1828,297.0536c0,95.3557-76.8316,173.7933-175.2928,183.2256-2.1284.2038-5.2933.3736-8.65.5087-8.6136.3467-15.843-4.88-15.843-11.4292v-344.67c0-6.5316,7.1916-11.7563,15.783-11.431,2.2.0832,4.1879.1821,5.6052.2964C247.7312,121.6158,326.1828,200.6891,326.1828,297.0536Z" style="fill:#f9ea76"/><path d="M326.18,297.05c0,95.36-76.83,173.8-175.29,183.23-2.13.2-5.29.37-8.65.51-8.61.34-15.84-4.88-15.84-11.43V303.9c79.34-22.44,136.28-55.84,177.04-93.19A175.0836,175.0836,0,0,1,326.18,297.05Z" style="fill:#f9db54"/><path d="M126.4,407.2078V469.36c0,6.55,7.23,11.77,15.84,11.43,3.36-.14,6.52-.31,8.65-.51,98.46-9.43,175.29-87.87,175.29-183.23q0-2.9778-.101-5.9328C284.6426,337.5149,221.6655,380.2639,126.4,407.2078Z" style="fill:#f9d129"/><circle cx="241.614" cy="235.3201" r="9.2096" style="fill:#f9a529"/><circle cx="185.5602" cy="386.2092" r="9.2096" style="fill:#f9a529"/><circle cx="167.1409" cy="286.863" r="9.2096" style="fill:#f9d129"/><circle cx="272.0893" cy="338.1104" r="9.2096" style="fill:#f9e729"/><path d="M126.3968,184.4662v-18.02a9.328,9.328,0,0,1,1.92-.2,9.21,9.21,0,0,1,0,18.42A9.3419,9.3419,0,0,1,126.3968,184.4662Z" style="fill:#f9d129"/><path d="M126.3968,444.95V426.93a9.3349,9.3349,0,0,1,1.92-.2,9.21,9.21,0,0,1,0,18.42A9.3488,9.3488,0,0,1,126.3968,444.95Z" style="fill:#f9ea76"/><path d="M192.3908,253.346a8.8181,8.8181,0,0,1-8.8182-8.8182V231.0873a8.8182,8.8182,0,1,1,17.6364,0v13.4405A8.8181,8.8181,0,0,1,192.3908,253.346Z" style="fill:#fff"/><path d="M227.25,89.52c-17.64-4.34-22.94,13.32-40.13,13.32-12.61,0-19.67,8.09-22.67,12.74q9.737,1.588,19.1225,4.0777v77.65a8.8183,8.8183,0,0,0,17.6365,0v-73.07A59.91,59.91,0,0,1,227.25,89.52Z" style="fill:#fff"/><path d="M311.65,202.92q-3.99,3.9151-8.22,7.8a186.81,186.81,0,0,0-43.54-51.95q4.32-3.585,8.86-6.94,7.05,6.015,13.58,12.67A196.0633,196.0633,0,0,1,311.65,202.92Z" style="fill:#f9c729"/><path d="M336.31,279.06q-4.875,6.06-10.23,12.05a174.9634,174.9634,0,0,0-22.65-80.39q4.23-3.885,8.22-7.8A186.9306,186.9306,0,0,1,336.31,279.06Z" style="fill:#f9ab13"/><path d="M337.18,297.05c0,48.77-19.1,95.46-53.8,131.47q-6.99,7.2452-14.64,13.74c-3.02-2.23-5.98-4.53-8.85-6.92,40.64-33.75,66.29-83.19,66.29-138.29q0-2.9849-.1-5.94,5.3547-5.985,10.23-12.05C336.89,285.01,337.18,291.02,337.18,297.05Z" style="fill:#f99713"/></g></svg>