<?xml version="1.0" encoding="UTF-8"?>
<!DOCTYPE svg PUBLIC "-//W3C//DTD SVG 1.1//EN" "http://www.w3.org/Graphics/SVG/1.1/DTD/svg11.dtd">
<!-- Creator: CorelDRAW -->
<svg xmlns="http://www.w3.org/2000/svg" xml:space="preserve" width="6.82666in" height="6.82666in" style="shape-rendering:geometricPrecision; text-rendering:geometricPrecision; image-rendering:optimizeQuality; fill-rule:evenodd; clip-rule:evenodd"
viewBox="0 0 6.82666 6.82666"
 xmlns:xlink="http://www.w3.org/1999/xlink">
 <defs>
  <style type="text/css">
   <![CDATA[
    .fil4 {fill:none}
    .fil3 {fill:#78909C}
    .fil1 {fill:#90A4AE}
    .fil0 {fill:#B0BEC5}
    .fil2 {fill:#EEEEEE}
   ]]>
  </style>
 </defs>
 <g id="Layer_x0020_1">
  <metadata id="CorelCorpID_0Corel-Layer"/>
  <g id="_462566744">
   <path id="_462567176" class="fil0" d="M4.48 5.71483l0 0.000338583 -0.160437 0 -0.0109921 0 -0.213339 0 -0.312374 0 -0.213339 0 -0.312374 0 -0.213339 0 -0.31237 0 -0.213339 0 -0.0109173 0 -0.0109134 0 -0.0109173 0 -0.0109173 0 -0.0109134 0 -0.0109173 0 -0.0109173 0 -0.0109134 0 -0.0109173 0 -0.0109134 0 -0.0109173 0 -0.0109173 0 -0.0109134 0 -0.0109173 0 -0.0109173 0 -0.00768898 0 -0.527189 0c0,-0.492614 0,-1.35854 0,-1.85115 -0.259394,-0.0150787 -0.492953,-0.126461 -0.665433,-0.298941 -0.185795,-0.185795 -0.300713,-0.442465 -0.300713,-0.725953 0,-0.283492 0.114917,-0.540157 0.300713,-0.725953 0.185795,-0.185795 0.442461,-0.300713 0.725953,-0.300713 0.0720157,0 0.143087,0.00770079 0.21239,0.0223228 0.0344567,0.00727165 0.0681457,0.0161969 0.10098,0.0266811 0.0962638,-0.207949 0.251701,-0.386421 0.446547,-0.51702 0.218646,-0.146555 0.486669,-0.232941 0.77576,-0.232941 0.315874,0 0.60652,0.103102 0.835031,0.275118 0.198559,0.149469 0.350071,0.35098 0.430689,0.582386 0.0349646,-0.0142598 0.070874,-0.0264331 0.107575,-0.0363622 0.0784646,-0.0212323 0.16072,-0.0325669 0.245315,-0.0325669 0.259295,0 0.494059,0.10511 0.663996,0.275051 0.169941,0.169937 0.275051,0.404701 0.275051,0.663996 0,0.259291 -0.10511,0.494059 -0.275051,0.663996 -0.169937,0.169941 -0.404701,0.275051 -0.663996,0.275051 -0.00739764,0 -0.0148701,-9.84252e-005 -0.0224173,-0.000291339l0 1.93503c-0.17711,0 -0.354496,0.00129134 -0.53187,0.00192126z"/>
   <path id="_462566960" class="fil1" d="M4.48 5.71483l0 0.000338583 -0.160437 0 -0.0109921 0 -0.213339 0 -0.312374 0 -0.213339 0 -0.312374 0 -0.213339 0 -0.31237 0 -0.213339 0 -0.0109173 0 -0.0109134 0 -0.0109173 0 -0.0109173 0 -0.0109134 0 -0.0109173 0 -0.0109173 0 -0.0109134 0 -0.0109173 0 -0.0109134 0 -0.0109173 0 -0.0109173 0 -0.0109134 0 -0.0109173 0 -0.0109173 0 -0.00768898 0 -0.527189 0c0,-0.492614 0,-1.35854 0,-1.85115 -0.057752,-0.00335827 -0.11422,-0.0115 -0.169024,-0.0240157l3.36141 0 0 1.87291c-0.17711,0 -0.354496,0.00129134 -0.53187,0.00192126z"/>
   <path id="_462566864" class="fil2" d="M4.46344 2.44535c-0.0612953,-0.259059 -0.135161,-0.496043 -0.273394,-0.676374 -0.156882,-0.20465 -0.39174,-0.333075 -0.77437,-0.333075 -0.0294528,0 -0.0533346,0.0238819 -0.0533346,0.0533346 0,0.0294528 0.0238819,0.0533346 0.0533346,0.0533346 0.344063,0 0.552728,0.112197 0.689787,0.290988 0.140425,0.183197 0.210657,0.439343 0.273319,0.71802 0.00179921,0.00968898 0.00629921,0.0189921 0.0135551,0.0267008 0.0201339,0.0213976 0.0538071,0.0224252 0.0752047,0.00229134 0.115193,-0.107902 0.26113,-0.172681 0.40861,-0.19324 0.100791,-0.0140551 0.202118,-0.00737402 0.294575,0.020378 0.0909606,0.0273031 0.173177,0.0750984 0.237413,0.143669 0.0688701,0.0735276 0.117555,0.171689 0.134748,0.295031 0.00402362,0.0291063 0.0308937,0.0494409 0.06,0.0454173 0.0291063,-0.00402362 0.0494409,-0.0308937 0.0454173,-0.06 -0.020437,-0.146614 -0.0792402,-0.264291 -0.162669,-0.353362 -0.0775748,-0.082815 -0.176055,-0.140283 -0.284492,-0.172835 -0.106921,-0.0320945 -0.223724,-0.0398701 -0.339575,-0.0237165 -0.140189,0.0195433 -0.279315,0.0742677 -0.39813,0.163437z"/>
   <path id="_462566552" class="fil3" d="M2.73143 5.39517l0 -1.19795c0,-0.0589094 -0.0477598,-0.106669 -0.106669,-0.106669 -0.0589094,0 -0.106669,0.0477598 -0.106669,0.106669l0 1.19795 0.213339 0z"/>
   <path id="_462566648" class="fil3" d="M3.25714 5.39517l0 -1.19795c0,-0.0589094 -0.0477598,-0.106669 -0.106669,-0.106669 -0.0589094,0 -0.106669,0.0477598 -0.106669,0.106669l0 1.19795 0.213339 0z"/>
   <path id="_462566384" class="fil3" d="M3.78285 5.39517l0 -1.19795c0,-0.0589094 -0.0477598,-0.106669 -0.106669,-0.106669 -0.0589094,0 -0.106669,0.0477598 -0.106669,0.106669l0 1.19795 0.213339 0z"/>
   <path id="_462566768" class="fil3" d="M4.30857 5.39517l0 -1.19795c0,-0.0589094 -0.0477598,-0.106669 -0.106669,-0.106669 -0.0589094,0 -0.106669,0.0477598 -0.106669,0.106669l0 1.19795 0.213339 0z"/>
  </g>
 </g>
 <rect class="fil4" width="6.82666" height="6.82666"/>
</svg>
