<svg xmlns="http://www.w3.org/2000/svg" viewBox="0 0 512 512"><title>Donut</title><g id="Donut"><path d="M474.7594,228.0984c0,120.8174-97.9419,218.7594-218.7594,218.7594S37.2406,348.9158,37.2406,228.0984,135.1825,9.339,256,9.339,474.7594,107.2809,474.7594,228.0984ZM256,141.099a86.9994,86.9994,0,1,0,86.9994,86.9994A86.9994,86.9994,0,0,0,256,141.099Z" style="fill:#f9d129"/><path d="M37.2406,228.0983A217.7549,217.7549,0,0,0,77.3628,354.3926c-.3462-20.9161.9314-45.878,7.0417-65.2251,15.6058-41.63,49.5835-64.57,87.8379-84.67a87.092,87.092,0,0,1,100.7495-61.735h0c34.2288-42.2448,18.3277-97.4409,18.32-97.4674,0,0-3.8835-14.8776-14.37-34.9536C270.0481,9.687,263.0649,9.3389,256,9.3389,135.1825,9.3389,37.2406,107.2809,37.2406,228.0983Z" style="fill:#f9db54"/><path d="M38.5557,204.1082c14.1567-14.7355,38.4755-39.8121,46.2714-46.3827,34.0539-30.1125,98.53-30.8069,111.7682-60.8136A76.1483,76.1483,0,0,0,201.94,51.88s-1.334-14.2579-10.347-32.8983C109.5774,44.2128,48.1281,116.3643,38.5557,204.1082Z" style="fill:#f9ea76"/><path d="M453.79,228.1c0,10.71-4.6,20.01-8.65,28.21-2.42,4.9-4.7,9.52-5.64,13.67-1.01,4.42-.97,9.74-.92,15.38.07,9.03.15,19.26-4.35,28.58-4.57,9.48-12.69,15.83-19.86,21.43-1.7,1.33-3.31,2.59-4.85,3.87a4.4207,4.4207,0,0,0-1.57,3.45v42.76q-5.3251,5.145-11,9.93V342.69a15.4878,15.4878,0,0,1,5.55-11.92c8.05-6.67,17.46-12.57,21.82-21.61,5.86-12.13,1.39-28.17,4.45-41.62,2.96-13.03,14.02-25.52,14.02-39.44s-11.06-26.42-14.02-39.44c-3.06-13.45,1.41-29.49-4.44-41.62-5.96-12.34-21.34-18.81-29.8-29.41-8.5-10.64-11.42-27.07-22.07-35.57-10.59-8.46-27.24-7.68-39.57-13.63-12.14-5.85-21.87-19.42-35.32-22.47a27.9187,27.9187,0,0,0-6.26-.67c-.08-.28-1.16-4.32-3.59-10.87,1.19-.08,2.38-.13,3.59-.13a38.8008,38.8008,0,0,1,8.7.94c10.36,2.35,18.38,8.89,25.46,14.66,4.27,3.47,8.3,6.75,12.2,8.63,4.03,1.95,9.2,3.09,14.67,4.29,8.84,1.95,18.85,4.16,26.99,10.65,8.17,6.53,12.55,15.82,16.41,24.02,2.37,5.05,4.62,9.82,7.39,13.29,2.73,3.42,6.86,6.65,11.24,10.07,7.16,5.59,15.29,11.94,19.86,21.42,4.5,9.32,4.42,19.55,4.35,28.58-.05,5.63-.09,10.95.92,15.38.94,4.14,3.22,8.77,5.64,13.67C449.19,208.09,453.79,217.39,453.79,228.1Z" style="fill:#ff9200"/><path d="M291.31,45.29c-11.35,0-23.58,5.63-35.31,5.63s-23.96-5.62-35.31-5.63a27.9187,27.9187,0,0,0-6.26.67,36.1215,36.1215,0,0,0-12.49,5.92,76.8055,76.8055,0,0,0-2.33-11.56,42.4433,42.4433,0,0,1,12.38-5.09,38.8008,38.8008,0,0,1,8.7-.94c6.91.01,13.51,1.57,19.9,3.08,5.54,1.31,10.78,2.55,15.41,2.55s9.87-1.24,15.41-2.55a104.3314,104.3314,0,0,1,16.31-2.95C290.15,40.97,291.23,45.01,291.31,45.29Z" style="fill:#fdbb29"/><path d="M343,394.02v34.84q-5.43,2.355-11,4.43V401.18c-2.12,1.54-4.29,3.31-6.53,5.13-7.08,5.77-15.1,12.3-25.46,14.66a38.8073,38.8073,0,0,1-8.7.93c-6.91,0-13.51-1.56-19.9-3.07-5.54-1.32-10.78-2.56-15.41-2.56s-9.87,1.24-15.41,2.56c-6.39,1.51-12.99,3.07-19.9,3.07a38.8073,38.8073,0,0,1-8.7-.93c-10.36-2.36-18.38-8.89-25.46-14.66-4.27-3.48-8.3-6.76-12.2-8.64-4.03-1.94-9.2-3.08-14.67-4.29-8.84-1.94-18.85-4.15-26.99-10.65-8.17-6.52-12.55-15.82-16.41-24.02-2.37-5.05-4.62-9.82-7.39-13.28-2.73-3.43-6.86-6.65-11.24-10.07-6.57-5.14-13.95-10.9-18.65-19.13a146.6464,146.6464,0,0,1,5.42-27.06c.01,7.1.39,14.02,3.27,19.99,5.96,12.33,21.34,18.81,29.8,29.4,8.5,10.65,11.42,27.08,22.07,35.58,10.59,8.46,27.24,7.68,39.57,13.63,12.14,5.85,21.87,19.41,35.32,22.47a27.9112,27.9112,0,0,0,6.26.66c11.35,0,23.58-5.63,35.31-5.63s23.96,5.63,35.31,5.63a27.9112,27.9112,0,0,0,6.26-.66c13.45-3.06,23.18-16.62,35.32-22.47l.09-.05a6.9746,6.9746,0,0,1,10.02,6.3Z" style="fill:#ff9200"/><path d="M83.23,267.54c1.55,6.83,1.17,14.32,1.17,21.63a146.6464,146.6464,0,0,0-5.42,27.06c-.43-.74-.83-1.51-1.21-2.29-4.5-9.32-4.42-19.55-4.35-28.58.05-5.64.09-10.96-.92-15.38-.94-4.15-3.22-8.77-5.64-13.67-4.05-8.2-8.65-17.5-8.65-28.21s4.6-20.01,8.65-28.21c2.42-4.9,4.7-9.53,5.64-13.67,1.01-4.43.97-9.75.92-15.38-.01-.76-.01-1.54-.01-2.33,4.88-4.82,8.96-8.7,11.41-10.77-1.12,10.01.63,21.15-1.59,30.92-2.96,13.02-14.02,25.52-14.02,39.44S80.27,254.51,83.23,267.54Z" style="fill:#fdbb29"/><path d="M201.94,51.88c-7.75,5.35-14.76,12.66-22.83,16.55-12.33,5.95-28.98,5.17-39.57,13.63-10.65,8.5-13.57,24.92-22.07,35.57-8.46,10.6-23.84,17.07-29.79,29.41a33.0366,33.0366,0,0,0-2.86,10.7c-2.45,2.07-6.53,5.95-11.41,10.77-.04-8.43.24-17.72,4.36-26.25,4.57-9.48,12.7-15.83,19.86-21.42,4.38-3.42,8.51-6.65,11.25-10.07,2.76-3.47,5.01-8.24,7.39-13.29,3.86-8.2,8.23-17.49,16.4-24.02,8.14-6.49,18.15-8.7,26.99-10.65,5.47-1.2,10.64-2.34,14.67-4.29,3.9-1.88,7.93-5.16,12.2-8.63a107.0392,107.0392,0,0,1,13.08-9.57A76.8055,76.8055,0,0,1,201.94,51.88Z" style="fill:#f9d129"/><path d="M375.0713,373.2141a4.1619,4.1619,0,0,0-2.6082.9241,32.27,32.27,0,0,1-9.169,4.947,4.0913,4.0913,0,0,0-2.6584,3.8519v37.3152a218.7892,218.7892,0,0,0,18.6822-11.4536v-31.35A4.2293,4.2293,0,0,0,375.0713,373.2141Z" style="fill:#ff9200"/><path d="M442.7852,228.0983c0-13.9222-11.0547-26.4143-14.0154-39.44-3.0574-13.45,1.41-29.4866-4.4446-41.6213-5.9507-12.3349-21.3355-18.8094-29.7957-29.4045C386.0281,106.9854,383.11,90.56,372.4636,82.0589c-10.5952-8.46-27.2427-7.6785-39.5776-13.6294-12.1348-5.8543-21.8655-19.4154-35.3156-22.4727-13.026-2.9608-27.6482,4.9671-41.57,4.9671s-28.5446-7.9279-41.5706-4.967c-13.45,3.0572-23.18,16.6182-35.3149,22.4724-12.335,5.9508-28.9824,5.169-39.5776,13.6292C128.89,90.56,125.9723,106.985,117.4708,117.6317c-8.46,10.5952-23.8448,17.07-29.7958,29.4046-5.8542,12.1348-1.3874,28.1717-4.4448,41.6218-2.9607,13.026-14.0154,25.518-14.0154,39.44S80.27,254.5126,83.23,267.5386c3.0573,13.45-1.41,29.4867,4.4446,41.6213,5.9508,12.335,21.3355,18.81,29.7957,29.4046,8.5014,10.6467,11.4191,27.0719,22.0659,35.5733,10.5952,8.46,27.2427,7.6785,39.5776,13.6294,12.1348,5.8543,21.8655,19.4154,35.3156,22.4726,13.026,2.9608,27.6482-4.967,41.57-4.967s28.5446,7.9278,41.5706,4.967c13.45-3.0572,23.18-16.6182,35.3149-22.4724l.0945-.0454a6.991,6.991,0,0,1,10.0194,6.3011V495.7349a9.0191,9.0191,0,0,0,8.2312,9.1014,8.8188,8.8188,0,0,0,9.4051-8.7992v-113.1a4.0913,4.0913,0,0,1,2.6584-3.8519,32.2675,32.2675,0,0,0,9.169-4.947h0a4.2268,4.2268,0,0,1,6.8548,3.31v63.6255a9.0188,9.0188,0,0,0,8.2315,9.1011,8.8189,8.8189,0,0,0,9.4049-8.7992V342.6915a15.4661,15.4661,0,0,1,5.5421-11.92c8.0514-6.6748,17.4679-12.5727,21.8286-21.6115,5.8542-12.1348,1.3874-28.1718,4.4448-41.6218C431.7305,254.5126,442.7852,242.0206,442.7852,228.0983ZM257.6519,315.0824a87.0007,87.0007,0,0,1-88.636-88.6352c.8621-46.5145,38.8175-84.47,85.332-85.3329A87.0007,87.0007,0,0,1,342.9841,229.75C342.1218,276.2642,304.1664,314.22,257.6519,315.0824Z" style="fill:#f06598"/><path d="M388.1361,504.8554a8.8183,8.8183,0,0,1-8.8183-8.8183V471.98a8.8183,8.8183,0,0,1,17.6365,0v24.057A8.8183,8.8183,0,0,1,388.1361,504.8554Z" style="fill:#f066a6"/><path d="M172.2424,204.4977a87.092,87.092,0,0,1,100.7495-61.7349c34.2288-42.2448,18.3277-97.4409,18.32-97.4674-11.3518,0-23.58,5.6285-35.312,5.6285-13.9224,0-28.5446-7.9279-41.5706-4.967-13.45,3.0572-23.18,16.6182-35.3149,22.4724-12.335,5.9508-28.9824,5.169-39.5776,13.6292C128.89,90.56,125.9723,106.985,117.4708,117.6317c-8.46,10.5952-23.8448,17.07-29.7958,29.4046-5.8542,12.1348-1.3874,28.1717-4.4448,41.6218-2.9607,13.026-14.0154,25.518-14.0154,39.44S80.27,254.5126,83.23,267.5386c1.5517,6.8263,1.166,14.3184,1.1743,21.6289C100.01,247.5374,133.988,224.5976,172.2424,204.4977Z" style="fill:#f08ba3"/><path d="M196.5953,96.9119A76.1483,76.1483,0,0,0,201.94,51.88c-7.7461,5.3543-14.7546,12.6551-22.8259,16.5491-12.335,5.9508-28.9824,5.169-39.5776,13.6292C128.89,90.56,125.9723,106.985,117.4708,117.6317c-8.46,10.5952-23.8448,17.07-29.7958,29.4046a32.7827,32.7827,0,0,0-2.8479,10.6892C118.881,127.613,183.3572,126.9186,196.5953,96.9119Z" style="fill:#ffcccd"/><circle cx="346.7301" cy="130.24" r="8.5895" style="fill:#83260d"/><circle cx="241.2457" cy="92.6885" r="8.5895" style="fill:#f9ea76"/><circle cx="117.8584" cy="210.8781" r="8.5895" style="fill:#fff"/><circle cx="348.7277" cy="274.2362" r="8.5895" style="fill:#fff"/><circle cx="161.6032" cy="125.7782" r="8.5895" style="fill:#83260d"/><circle cx="249.8352" cy="374.6478" r="8.5895" style="fill:#83260d"/><circle cx="109.269" cy="291.5394" r="8.5895" style="fill:#83260d"/><circle cx="166.5901" cy="280.2725" r="8.5895" style="fill:#f9ea76"/><circle cx="161.1785" cy="351.666" r="8.5895" style="fill:#fff"/><circle cx="403.8092" cy="195.3043" r="8.5895" style="fill:#f9ea76"/><circle cx="332.9637" cy="344.6459" r="8.5895" style="fill:#f9ea76"/><circle cx="403.8092" cy="275.075" r="8.5895" style="fill:#83260d"/><circle cx="346.7301" cy="77.6784" r="8.5895" style="fill:#fff"/><path d="M325.9379,159.4514a97.2723,97.2723,0,0,0-69.9361-29.3525h-.0009L256,130.1v-.0012q-.9256,0-1.8555.0173A98,98,0,0,0,256,326.0978c.6165,0,1.2361-.0058,1.8554-.0173a97.9985,97.9985,0,0,0,68.0824-166.6291ZM342.9841,229.75c-.8623,46.5145-38.8177,84.47-85.3321,85.3327-.5513.01-1.1029.0153-1.6519.0153a86.9993,86.9993,0,0,1-86.9842-88.65c.8622-46.5146,38.8175-84.47,85.332-85.333.5513-.01,1.1033-.0153,1.6521-.0153A86.9985,86.9985,0,0,1,342.9841,229.75Z" style="fill:#f9db54"/><path d="M342.98,229.75a85.1145,85.1145,0,0,1-1.31,13.44,87.6884,87.6884,0,0,0-171.35.05.09.09,0,0,1-.01-.05,87.2511,87.2511,0,0,1-1.29-16.74c.86-46.52,38.81-84.47,85.33-85.34A87.0006,87.0006,0,0,1,342.98,229.75Z" style="fill:#fdbb29"/></g></svg>