<svg xmlns="http://www.w3.org/2000/svg" viewBox="0 0 512 512"><title>French_fries</title><g id="French_fries"><path d="M420.05,220.87a35.1245,35.1245,0,0,1-.74,6.84c-5.69,20.94-36.39,38.96-80.21,49.45a27.628,27.628,0,0,0-18.35,14.91c-9.17,18.8-36.22,32.42-68.15,32.42-31.54,0-58.3-13.29-67.79-31.73a27.5654,27.5654,0,0,0-18.48-14.49c-46.61-10.35-79.43-29.04-85.11-50.87a34.0118,34.0118,0,0,1-.69-6.53c0-36.61,75.91-66.29,169.78-66.29S420.05,184.26,420.05,220.87Z" style="fill:#83260d"/><path d="M408.62,20.4294h0a6.8184,6.8184,0,0,1-6.9347-6.7h0a4.5418,4.5418,0,0,0-4.0578-4.5134,4.4145,4.4145,0,0,0-4.771,4.4754l.0033.19a6.8184,6.8184,0,0,1-6.7,6.9348h0a4.5417,4.5417,0,0,0-4.5134,4.0578,4.4144,4.4144,0,0,0,4.4754,4.7709l.19-.0032a6.8184,6.8184,0,0,1,6.9348,6.7h0a4.5417,4.5417,0,0,0,4.0578,4.5134,4.4145,4.4145,0,0,0,4.7709-4.4754l-.0033-.19a6.8185,6.8185,0,0,1,6.7-6.9348l.19-.0033A4.4144,4.4144,0,0,0,413.27,24.33,4.5418,4.5418,0,0,0,408.62,20.4294Z" style="fill:#f9d129"/><path d="M357.15,67.1A478.51,478.51,0,0,0,322,289.78c-.45.74-.87,1.5-1.25,2.29-3.36,6.89-9.12,13.08-16.64,18.16a478.5113,478.5113,0,0,1,33.72-237.5,7.7253,7.7253,0,0,0-4.05-10.06q-13.125-5.715-26.27-11.42a7.7252,7.7252,0,0,0-3.09-.65,6.1167,6.1167,0,0,0-.74.04h-.02c-.23.02-.46.06-.68.1l18.57-5.45c.02,0,.03-.01.04-.01h.01a7.6767,7.6767,0,0,1,5.24.33q13.125,5.715,26.27,11.43A7.7171,7.7171,0,0,1,357.15,67.1Z" style="fill:#f9a529"/><path d="M337.83,72.73a478.5113,478.5113,0,0,0-33.72,237.5c-11.09,7.5-26.02,12.58-42.73,13.91A522.4547,522.4547,0,0,1,297.29,55.36a7.7125,7.7125,0,0,1,5.69-4.62c.22-.04.45-.08.68-.1h.02a6.1167,6.1167,0,0,1,.74-.04,7.7252,7.7252,0,0,1,3.09.65q13.14,5.7,26.27,11.42A7.7253,7.7253,0,0,1,337.83,72.73Z" style="fill:#f9db54"/><path d="M333.7849,62.673,307.51,51.2452a7.7346,7.7346,0,0,0-10.2212,4.1106A522.6519,522.6519,0,0,0,261.17,190.6809c2.77-16.7218,20.07-64.9878,44.6529-77.0105,14.82-7.2479,21.1166-14.8515,23.7857-19.7567q.9572-2.6478,1.9445-5.2863l.0018-.0177.01-.0147q2.9909-7.9771,6.2645-15.8637A7.7249,7.7249,0,0,0,333.7849,62.673Z" style="fill:#f9ea76"/><path d="M453.14,107.22a478.6493,478.6493,0,0,0-63.88,151.59,159.5725,159.5725,0,0,1-21.72,9.81,478.6156,478.6156,0,0,1,65.58-159.26,7.71,7.71,0,0,0-2.21-10.61q-11.9248-7.95-23.85-15.88a7.7055,7.7055,0,0,0-4.39-1.3l19.26-2.09h.06a7.7008,7.7008,0,0,1,5.09,1.25q11.9248,7.935,23.85,15.88A7.7282,7.7282,0,0,1,453.14,107.22Z" style="fill:#f9a529"/><path d="M433.12,109.36a478.6156,478.6156,0,0,0-65.58,159.26,245.9708,245.9708,0,0,1-28.44,8.54,27.628,27.628,0,0,0-18.35,14.91,38.6756,38.6756,0,0,1-2.92,4.97A522.6715,522.6715,0,0,1,396.28,85.11a7.7209,7.7209,0,0,1,10.78-2.24q11.9249,7.935,23.85,15.88A7.71,7.71,0,0,1,433.12,109.36Z" style="fill:#f9db54"/><path d="M430.913,98.7481l-23.8492-15.88a7.7344,7.7344,0,0,0-10.7857,2.2446,522.6475,522.6475,0,0,0-62.3426,136.5737c8.4535-25.964,51.5105-66.3418,65.9015-70.8116,7.4963-2.3283,11.7748-5.988,14.1746-9.0307.9542-1.7773,1.9106-3.5538,2.8878-5.32l.0024-.01.0058-.005q7.6428-13.8107,16.214-27.1479A7.7249,7.7249,0,0,0,430.913,98.7481Z" style="fill:#f9ea76"/><path d="M384.16,121.58a478.5848,478.5848,0,0,0-47.18,156.17,27.7826,27.7826,0,0,0-16.23,14.32,39.7287,39.7287,0,0,1-5.32,8.11,478.515,478.515,0,0,1,49.06-174.34,7.734,7.734,0,0,0-3.33-10.32q-12.705-6.615-25.41-13.24a7.6783,7.6783,0,0,0-4.54-.82l18.97-4.14a.0759.0759,0,0,0,.04-.01h.01a7.6993,7.6993,0,0,1,5.19.71q12.7052,6.615,25.41,13.24A7.731,7.731,0,0,1,384.16,121.58Z" style="fill:#f9a529"/><path d="M364.49,125.84a478.515,478.515,0,0,0-49.06,174.34c-9.44,11.29-25.87,19.76-45.51,22.94a522.6325,522.6325,0,0,1,55.35-217.46,7.7191,7.7191,0,0,1,10.48-3.38q12.705,6.615,25.41,13.24A7.734,7.734,0,0,1,364.49,125.84Z" style="fill:#f9db54"/><path d="M361.1573,115.5217,335.75,102.2763a7.7345,7.7345,0,0,0-10.4847,3.3823,522.6544,522.6544,0,0,0-45.5366,132.4532c3.9378-16.4858,24.5858-63.4171,49.9528-73.6831,15.2924-6.1888,22.1078-13.3313,25.1149-18.0368q1.1407-2.574,2.311-5.1367l.0031-.0175.0112-.014q3.5439-7.7472,7.3635-15.3843A7.725,7.725,0,0,0,361.1573,115.5217Z" style="fill:#f9ea76"/><path d="M193.02,303.68a43.0558,43.0558,0,0,1-8.21-10.92,28.2663,28.2663,0,0,0-9.8-10.87A478.536,478.536,0,0,0,139.29,67.1a7.717,7.717,0,0,1,4.04-10.06q13.14-5.715,26.27-11.43a7.6766,7.6766,0,0,1,5.24-.33h.01c.01,0,.02.01.04.01l18.61,5.46a7.6513,7.6513,0,0,0-4.57.5q-13.14,5.7-26.27,11.42a7.7251,7.7251,0,0,0-4.05,10.06A478.4,478.4,0,0,1,193.02,303.68Z" style="fill:#f9a529"/><path d="M235.2,323.1c-17.52-2.85-32.48-9.91-42.18-19.42A478.4,478.4,0,0,0,158.61,72.73a7.7251,7.7251,0,0,1,4.05-10.06q13.125-5.715,26.27-11.42a7.7167,7.7167,0,0,1,10.22,4.11A522.5217,522.5217,0,0,1,235.2,323.1Z" style="fill:#f9db54"/><path d="M162.6551,62.673,188.93,51.2452a7.7346,7.7346,0,0,1,10.2212,4.1106A522.6557,522.6557,0,0,1,235.27,190.6809c-2.77-16.7218-20.07-64.9878-44.6528-77.0105-14.82-7.2479-21.1166-14.8515-23.7858-19.7567q-.957-2.6478-1.9444-5.2863l-.0019-.0177-.01-.0147q-2.991-7.9771-6.2645-15.8637A7.7248,7.7248,0,0,1,162.6551,62.673Z" style="fill:#f9ea76"/><path d="M63.32,109.36a478.7388,478.7388,0,0,1,65.21,157.52,144.6675,144.6675,0,0,1-22.01-10.89A478.4483,478.4483,0,0,0,43.3,107.22a7.7281,7.7281,0,0,1,2.21-10.61q11.925-7.935,23.85-15.88a7.7,7.7,0,0,1,5.09-1.25h.06l19.26,2.09a7.7047,7.7047,0,0,0-4.39,1.3Q77.4549,90.805,65.53,98.75A7.71,7.71,0,0,0,63.32,109.36Z" style="fill:#f9a529"/><path d="M176.47,282.9a26.7265,26.7265,0,0,0-10.14-4.63,245.9049,245.9049,0,0,1-37.8-11.39A478.7388,478.7388,0,0,0,63.32,109.36a7.71,7.71,0,0,1,2.21-10.61Q77.455,90.8,89.38,82.87a7.7317,7.7317,0,0,1,10.78,2.24A522.7809,522.7809,0,0,1,176.47,282.9Z" style="fill:#f9db54"/><path d="M65.527,98.7481l23.8493-15.88a7.7343,7.7343,0,0,1,10.7856,2.2446,522.6442,522.6442,0,0,1,62.3426,136.5737c-8.4535-25.964-51.51-66.3418-65.9015-70.8116-7.4962-2.3283-11.7747-5.988-14.1746-9.0307-.9542-1.7773-1.91-3.5538-2.8878-5.32l-.0023-.01-.0058-.005q-7.6428-13.8107-16.214-27.1479A7.725,7.725,0,0,1,65.527,98.7481Z" style="fill:#f9ea76"/><path d="M179.55,285.55a27.0026,27.0026,0,0,0-13.22-7.28c-2.37-.53-4.71-1.07-7.01-1.65a478.5648,478.5648,0,0,0-47.04-155.04,7.7312,7.7312,0,0,1,3.33-10.32q12.7052-6.615,25.41-13.24a7.7,7.7,0,0,1,5.19-.71h.01a.0756.0756,0,0,0,.04.01l18.97,4.14a7.6788,7.6788,0,0,0-4.54.82q-12.7048,6.615-25.41,13.24a7.7341,7.7341,0,0,0-3.33,10.32A478.7739,478.7739,0,0,1,179.55,285.55Z" style="fill:#f9a529"/><path d="M226.46,321.28c-19.58-5.01-34.94-15.48-41.65-28.52a28.8133,28.8133,0,0,0-5.26-7.21,478.7739,478.7739,0,0,0-47.6-159.71,7.7341,7.7341,0,0,1,3.33-10.32q12.705-6.615,25.41-13.24a7.7161,7.7161,0,0,1,10.48,3.38A522.78,522.78,0,0,1,226.46,321.28Z" style="fill:#f9db54"/><path d="M135.2828,115.5217,160.69,102.2763a7.7345,7.7345,0,0,1,10.4847,3.3823,522.6544,522.6544,0,0,1,45.5366,132.4532c-3.9378-16.4858-24.5858-63.4171-49.9528-73.6831-15.2924-6.1888-22.1078-13.3313-25.115-18.0368q-1.1406-2.574-2.311-5.1367l-.0031-.0175-.0111-.014q-3.544-7.7472-7.3635-15.3843A7.7249,7.7249,0,0,1,135.2828,115.5217Z" style="fill:#f9ea76"/><path d="M270.01,48.09a6.1868,6.1868,0,0,0-3.34-.35q-18.765,3.135-37.52,6.28a6.695,6.695,0,0,0-5.42,7.72,1065.08,1065.08,0,0,1,9.59,261.03,95.0276,95.0276,0,0,1-13.75-3.55A1052.074,1052.074,0,0,0,208.02,52.7a6.6591,6.6591,0,0,1,5.35-7.7q18.72-3.345,37.45-6.69a6.3766,6.3766,0,0,1,4.59.94Q262.73,43.6,270.01,48.09Z" style="fill:#f9aa13"/><path d="M285.03,319.43a103.1408,103.1408,0,0,1-32.43,5.06,107.3261,107.3261,0,0,1-19.27-1.72,1066.0461,1066.0461,0,0,0-9.6-261.03,6.695,6.695,0,0,1,5.42-7.72q18.75-3.15,37.52-6.28a6.789,6.789,0,0,1,7.65,5.86A1117.09,1117.09,0,0,1,285.03,319.43Z" style="fill:#f9cc40"/><path d="M392.8347,244.27q-1.9042,7.2443-3.5792,14.5554a160.7291,160.7291,0,0,1-21.7137,9.8021c.878-4.1422,1.8133-8.2846,2.806-12.3982a130.6129,130.6129,0,0,0,17.8863-8.9623C389.8567,246.2746,391.3934,245.2819,392.8347,244.27Z" style="fill:#ff9200"/><path d="M370.3478,256.2295c-.9927,4.1136-1.928,8.256-2.806,12.3982a247.6576,247.6576,0,0,1-28.4427,8.5328q-1.0737.2577-2.1188.6013.6872-5.6407,1.5175-11.2625A221.2506,221.2506,0,0,0,370.3478,256.2295Z" style="fill:#f9aa13"/><path d="M338.4978,266.4993q-.83,5.6265-1.5175,11.2625a27.6918,27.6918,0,0,0-16.2352,14.3072,40.6511,40.6511,0,0,1-5.3068,8.1033q.9306-11.1384,2.3861-22.21a37.5551,37.5551,0,0,1,18.8313-11.0144C337.2761,266.8048,337.887,266.652,338.4978,266.4993Z" style="fill:#ff8600"/><path d="M317.8244,277.9623q-1.446,11.0668-2.3861,22.21c-6.9007,8.2464-17.5237,14.9944-30.4183,19.2608.191-2.3384.5344-7.1775.83-11.4534q2.4624-.9736,4.7913-2.1c9.86-4.7722,17.2088-11.31,20.6637-18.4113A38.971,38.971,0,0,1,317.8244,277.9623Z" style="fill:#f9aa13"/><path d="M159.319,276.6121a234.3836,234.3836,0,0,1-30.81-9.764q-1.3744-6.3853-2.94-12.7133a207.1217,207.1217,0,0,0,32.2031,11.2434Q158.6176,270.9761,159.319,276.6121Z" style="fill:#f9aa13"/><path d="M179.5534,285.5457a27.9879,27.9879,0,0,0-3.0829-2.6438,26.6031,26.6031,0,0,0-10.1458-4.6386c-2.3766-.525-4.7054-1.0786-7.0057-1.6512q-.7015-5.6265-1.5461-11.2339,5.2685,1.4031,10.833,2.6343a37.0075,37.0075,0,0,1,5.4975,1.68,34.8923,34.8923,0,0,1,3.5983,1.6322Q178.7327,278.4111,179.5534,285.5457Z" style="fill:#ff8600"/><path d="M220.4228,308.3666c-.2577,3.35-.5821,7.7025-.83,10.8807-16.2734-5.5262-28.8721-15.0134-34.78-26.4955a28.68,28.68,0,0,0-5.259-7.2061q-.83-7.13-1.8517-14.2212a38.4853,38.4853,0,0,1,16.4451,16.6265C198.5851,296.5887,208.1583,303.7566,220.4228,308.3666Z" style="fill:#f9aa13"/><path d="M234.186,312.227q-.4007,5.2829-.859,10.5467a95.5143,95.5143,0,0,1-13.7631-3.541q.4581-5.4261.8589-10.8521A85.0466,85.0466,0,0,0,234.186,312.227Z" style="fill:#ff8600"/><path d="M285.87,307.97q-.3867,5.7267-.85,11.4629a103.2355,103.2355,0,0,1-32.4226,5.0586,106.7422,106.7422,0,0,1-19.27-1.718q.4582-5.2686.859-10.5467a95.6135,95.6135,0,0,0,18.4114,1.7657A90.5865,90.5865,0,0,0,285.87,307.97Z" style="fill:#f99413"/><path d="M125.57,254.1389q1.5615,6.3178,2.9378,12.7038a141.974,141.974,0,0,1-21.98-10.855q-1.3136-5.5464-2.7633-11.0633C110.3614,248.1548,125.57,254.1389,125.57,254.1389Z" style="fill:#ff8600"/><path d="M128.5083,266.8466l-.0008-.0039c.58.2318,1.1534.4665,1.7426.6948C129.6663,267.3137,129.0825,267.08,128.5083,266.8466Z" style="fill:#f9aa13"/><path d="M419.3981,227.4049,374.16,454.1782c-4.1,27.4635-57.9711,49.2039-123.8548,49.2039-65.874,0-119.7448-21.74-123.8451-49.2039L81.222,227.4049c5.68,21.8235,38.5017,40.519,85.1063,50.8629a27.59,27.59,0,0,1,18.4831,14.4916c9.4865,18.4375,36.2522,31.7282,67.7889,31.7282,31.9315,0,58.9772-13.6206,68.1448-32.4184a27.6269,27.6269,0,0,1,18.3565-14.9129C383.1379,266.62,413.9174,248.4715,419.3981,227.4049Z" style="fill:#ff4f4b"/><path d="M305.139,309.5112c-13.0606,9.2066-31.7627,14.9763-52.5387,14.9763-31.5367,0-58.3023-13.2905-67.789-31.7281a27.5894,27.5894,0,0,0-18.4831-14.4916c-46.6044-10.3438-79.4264-29.0394-85.1063-50.8629L126.46,454.1782a25.9953,25.9953,0,0,0,3.3229,9.1942A156.5673,156.5673,0,0,0,305.139,309.5112Z" style="fill:#ff726e"/><path d="M216.0261,317.9358c-14.5427-5.6484-25.75-14.5548-31.2148-25.1764a27.5894,27.5894,0,0,0-18.4831-14.4916c-46.6044-10.3438-79.4264-29.0394-85.1063-50.8629L106.861,355.9573a108.9765,108.9765,0,0,0,109.1651-38.0215Z" style="fill:#ffa3a0"/><path d="M319.2315,399.5969c0,24.51-30.5432,44.37-68.2188,44.37a102.19,102.19,0,0,1-21.144-2.17,157.0971,157.0971,0,0,0,64.4437-76.48C309.5305,373.4516,319.2315,385.78,319.2315,399.5969Z" style="fill:#f9aa13"/><path d="M294.3124,365.3171a157.0971,157.0971,0,0,1-64.4437,76.48c-27.3226-5.7895-47.0654-22.4964-47.0654-42.2,0-24.5106,30.5434-44.37,68.2094-44.37C267.4568,355.2268,282.5387,359.0119,294.3124,365.3171Z" style="fill:#f9d129"/><path d="M419.3951,227.4l-5.3225,26.71a146.701,146.701,0,0,1-12.9315,10.1c-.6033.38-1.226.7687-1.8488,1.1482-14.7705,9.03-34.7273,16.7069-57.7006,22.2045a16.9926,16.9926,0,0,0-11.2287,9.1951c-5.05,10.353-14.1574,19.1784-25.8825,25.7464q.5983-6.4221.6616-12.98v-.01c7.0155-4.943,12.3964-10.8785,15.6074-17.4465a27.5925,27.5925,0,0,1,18.3513-14.9067C383.14,266.6229,413.917,248.4759,419.3951,227.4Z" style="fill:#ffe8a0"/><path d="M305.1421,309.5236q-.0584,6.5535-.6616,12.98c-14.2938,8.0274-32.48,12.6882-51.8819,12.6882a110.4949,110.4949,0,0,1-44.1268-8.7961,107.2016,107.2016,0,0,0,7.5507-8.4556,101.4765,101.4765,0,0,0,36.5761,6.5484C273.3728,324.4888,292.0842,318.7188,305.1421,309.5236Z" style="fill:#fff4d3"/><path d="M216.0225,317.94a107.2016,107.2016,0,0,1-7.5507,8.4556c-.8952-.38-1.7709-.7882-2.637-1.1968-14.1866-6.7528-24.744-16.2788-30.5432-27.5465a16.9046,16.9046,0,0,0-11.2873-8.9324c-24.238-5.3808-45.3429-13.1164-61.0185-22.36-1.1968-.71-2.3741-1.43-3.5126-2.15-3.7656-2.2282-8.9811-6.8112-13.0191-10.5865L81.2193,227.4c5.6823,21.825,38.5025,40.5266,85.1107,50.87a27.566,27.566,0,0,1,18.4778,14.4884c5.4392,10.5768,16.5707,19.4605,31.03,25.1041C215.896,317.8917,215.9544,317.9111,216.0225,317.94Z" style="fill:#fff"/><path d="M356.1869,455.2613c-.3388.3546-2.0687,1.8818-2.4487,2.1983-.7608.6281-5.3289,3.97-6.8946,4.9475a90.6092,90.6092,0,0,1-9.5913,5.263,97.1488,97.1488,0,0,1-9.9922,4.0119c-1.6739.6178-3.4016,1.066-5.0953,1.5908-1.707.4843-3.4354.88-5.144,1.3172a5.4988,5.4988,0,0,1-3.5064-10.3913s3.27-1.3267,4.7033-1.9716c1.4168-.6842,2.8638-1.285,4.2348-2.04a83.9291,83.9291,0,0,0,8.0369-4.683,75.7936,75.7936,0,0,0,7.2757-5.51c1.1449-.9705,2.2266-1.9911,3.253-3.0172.51-.5116,2.624-2.9237,2.5637-2.88a8.4193,8.4193,0,0,1,12.6051,11.1646Z" style="fill:#fff"/><circle cx="291.8027" cy="476.5624" r="7.2378" style="fill:#fff"/></g></svg>