<svg xmlns="http://www.w3.org/2000/svg" viewBox="0 0 512 512"><title>Fried_chickens</title><g id="Fried_chickens"><path d="M456.9445,94.6168h0a6.8184,6.8184,0,0,1-6.9348-6.7h0a4.5417,4.5417,0,0,0-4.0578-4.5134,4.4145,4.4145,0,0,0-4.7709,4.4754l.0033.19a6.8185,6.8185,0,0,1-6.7,6.9348h0a4.5416,4.5416,0,0,0-4.5134,4.0578,4.4144,4.4144,0,0,0,4.4753,4.7709l.19-.0033a6.8185,6.8185,0,0,1,6.9347,6.7h0a4.5419,4.5419,0,0,0,4.0578,4.5135,4.4145,4.4145,0,0,0,4.771-4.4754l-.0033-.19a6.8184,6.8184,0,0,1,6.7-6.9347l.19-.0033a4.4144,4.4144,0,0,0,4.3086-4.9221A4.5417,4.5417,0,0,0,456.9445,94.6168Z" style="fill:#f9d129"/><path d="M314.4642,34.6252a25.3281,25.3281,0,0,1,25.13-23.55,24.9977,24.9977,0,0,1,15.68,5.53,7.8338,7.8338,0,0,0,9.78.09,25.0072,25.0072,0,0,1,15.78-5.26,25.1555,25.1555,0,0,1,5.11,49.69,7.6068,7.6068,0,0,0-5.81,7.41l-.53,59.64a21.9966,21.9966,0,0,0-5.28-.63h-29.7a22.8219,22.8219,0,0,0-5.87.76l.53-60.13a7.6038,7.6038,0,0,0-5.68-7.51A25.1631,25.1631,0,0,1,314.4642,34.6252Z" style="fill:#b44031"/><path d="M360.6489,500.3583c69.3421-.352,127.0016-58.8917,126.4049-128.2321A126.446,126.446,0,0,0,464.95,301.6237a91.2594,91.2594,0,0,1-15.5519-53.9457c.0059-.2427.0082-.4853.01-.728.3427-38.9167-14.6136-64.9683-37.6783-79.2349a33.3636,33.3636,0,0,1-14.88-21.1887q-.0939-.4248-.1855-.8528a22.87,22.87,0,0,0-22.344-18.129H344.6229a22.8268,22.8268,0,0,0-22.5234,19.05q-.0423.2535-.0853.5077a34.5527,34.5527,0,0,1-14.4859,22.6529c-20.866,14.4205-34.4538,39.304-34.7739,75.6388-.0012.2-.0035.3991-.0032.5987A93.997,93.997,0,0,1,255.86,300.3411,127.1036,127.1036,0,0,0,360.6489,500.3583Z" style="fill:#f9bf29"/><path d="M316.7643,324.1252c92.8749-35.6874,103.97-53.77,130.88-100.18a129.2814,129.2814,0,0,1,1.76,23c0,.25,0,.49-.01.73a91.3059,91.3059,0,0,0,15.56,53.95,126.5355,126.5355,0,0,1,22.1,70.5c.6,69.34-57.06,127.88-126.41,128.23a126.7943,126.7943,0,0,1-95.82-42.82C261.7543,414.0452,264.2973,344.2858,316.7643,324.1252Z" style="fill:#f9a213"/><path d="M379.4909,393.12c-20.6111,35.6994-11.9825,79.6759,18.8425,101.14,51.3425-16.73,89.2075-65.876,88.7209-122.1342-.0217-2.4533-.1352-4.8841-.2942-7.3027-1.6521-1.1624-3.352-2.2767-5.1318-3.3042C446.879,341.4558,401.1505,355.6043,379.4909,393.12Z" style="fill:#ff9200"/><ellipse cx="349.6685" cy="365.7777" rx="7.4946" ry="10.9506" style="fill:#f05d00"/><ellipse cx="397.2953" cy="410.1572" rx="7.4946" ry="10.9506" style="fill:#ff9200"/><ellipse cx="419.676" cy="332.4223" rx="7.4946" ry="10.9506" style="fill:#f05d00"/><ellipse cx="329.4081" cy="268.9724" rx="7.4946" ry="10.9506" style="fill:#ff9200"/><ellipse cx="389.8007" cy="249.5433" rx="7.4946" ry="10.9506" style="fill:#f05d00"/><ellipse cx="277.8023" cy="374.6478" rx="7.4946" ry="10.9506" style="fill:#f05d00"/><circle cx="333.9896" cy="33.7315" r="8.1843" style="fill:#fff"/><path d="M379.6045,128.1752l.3076-34.6369-.6318-4.0458A67.9594,67.9594,0,0,1,355.41,112.23c-8.9759,5.2209-13.938,9.9777-16.6368,13.8858l-.019,2.1892a22.8219,22.8219,0,0,1,5.87-.76h29.7A21.9972,21.9972,0,0,1,379.6045,128.1752Z" style="fill:#97260d"/><ellipse cx="307.7852" cy="204.6206" rx="17.8827" ry="12.2142" transform="translate(-2.147 405.9743) rotate(-66.6272)" style="fill:#f9ea76"/><path d="M231.4894,93.1517a12.1592,12.1592,0,0,0-8.9732-7.7524,40.8843,40.8843,0,0,1-32.9351-41.5822,40.2031,40.2031,0,0,1,2.9581-13.7851,7.94,7.94,0,0,0-4.6053-10.3148,126.8065,126.8065,0,0,0-45.9254-8.6418c-69.2642-.13-126.337,56.0564-127.3,125.314A126.49,126.49,0,0,0,35.92,208.5a96.4551,96.4551,0,0,1,16.4345,55.35c-.0044.2115-.0065.4232-.0085.6347C52.0034,303.4019,66.96,329.4534,90.0242,343.72a33.3637,33.3637,0,0,1,14.88,21.1888q.1007.454.1982.9119a22.8362,22.8362,0,0,0,22.3313,18.07h29.6975a22.8267,22.8267,0,0,0,22.5235-19.05q.0425-.2534.0852-.5077A34.5535,34.5535,0,0,1,194.2261,341.68C215.0918,327.2593,228.68,302.3758,229,266.041c.001-.2066.0036-.4128.0029-.6192a95.256,95.256,0,0,1,17.1991-54.7683,126.4828,126.4828,0,0,0,22.6818-71.3626q.048-5.4538-.3579-10.7984A11.1466,11.1466,0,0,0,260,118.5148,40.95,40.95,0,0,1,231.4894,93.1517Z" style="fill:#ff9200"/><path d="M187.29,476.81a25.3279,25.3279,0,0,1-25.13,23.55,24.9977,24.9977,0,0,1-15.68-5.53,7.8338,7.8338,0,0,0-9.78-.09A25.0072,25.0072,0,0,1,120.92,500a25.1555,25.1555,0,0,1-5.11-49.69,7.6068,7.6068,0,0,0,5.81-7.41l.53-59.64a21.9966,21.9966,0,0,0,5.28.63h29.7a22.8219,22.8219,0,0,0,5.87-.76l-.53,60.13a7.6037,7.6037,0,0,0,5.68,7.51A25.1629,25.1629,0,0,1,187.29,476.81Z" style="fill:#b44031"/><path d="M162.658,421.9427,163,383.13a22.8219,22.8219,0,0,1-5.87.76h-29.7a21.9966,21.9966,0,0,1-5.28-.63l-.0181,2.0322c2.6944,3.913,7.66,8.68,16.656,13.9128A67.9608,67.9608,0,0,1,162.658,421.9427Z" style="fill:#97260d"/><path d="M52.3459,264.4851a127.87,127.87,0,0,0,1.7769,22.9824C81.0234,241.0743,92.13,222.9916,184.99,187.31c35.2119-13.53,47.9368-49.4,51.5708-84.6764l.0034-.0165a40.7538,40.7538,0,0,1-5.0747-9.4654,12.16,12.16,0,0,0-8.9734-7.7524,40.8844,40.8844,0,0,1-32.935-41.5822,40.2123,40.2123,0,0,1,2.958-13.7851,7.9394,7.9394,0,0,0-4.6053-10.3148,126.8056,126.8056,0,0,0-45.9253-8.6418c-69.2641-.13-126.3371,56.0563-127.3,125.314A126.4883,126.4883,0,0,0,35.92,208.5a96.4573,96.4573,0,0,1,16.4346,55.35C52.35,264.062,52.3479,264.2736,52.3459,264.4851Z" style="fill:#f9a213"/><path d="M75.6884,403.107h0a6.8185,6.8185,0,0,1-6.9348-6.7h0a4.5417,4.5417,0,0,0-4.0578-4.5134,4.4145,4.4145,0,0,0-4.7709,4.4754l.0033.19a6.8185,6.8185,0,0,1-6.7,6.9348h0a4.5418,4.5418,0,0,0-4.5134,4.0578,4.4144,4.4144,0,0,0,4.4754,4.7709l.19-.0032a6.8184,6.8184,0,0,1,6.9347,6.7h0a4.5418,4.5418,0,0,0,4.0578,4.5134,4.4144,4.4144,0,0,0,4.7709-4.4754l-.0032-.19a6.8184,6.8184,0,0,1,6.7-6.9348l.19-.0033a4.4145,4.4145,0,0,0,4.3086-4.9221A4.5417,4.5417,0,0,0,75.6884,403.107Z" style="fill:#f9d129"/><path d="M122.2634,118.3152c20.6111-35.6994,11.9824-79.6759-18.8425-101.1394C52.0784,33.9053,14.2134,83.0518,14.7,139.31c.0217,2.4533.1352,4.8841.2941,7.3027,1.6521,1.1624,3.3521,2.2766,5.1319,3.3042C54.8752,169.9794,100.6038,155.8309,122.2634,118.3152Z" style="fill:#f9bf29"/><ellipse cx="62.198" cy="77.6711" rx="21.9451" ry="14.9888" transform="translate(-37.2297 73.7305) rotate(-49.0431)" style="fill:#f9ea76"/><ellipse cx="155.9392" cy="159.0353" rx="7.4946" ry="10.9506" style="fill:#f05d00"/><ellipse cx="104.459" cy="101.2779" rx="7.4946" ry="10.9506" style="fill:#ff9200"/><ellipse cx="82.0783" cy="179.0129" rx="7.4946" ry="10.9506" style="fill:#f05d00"/><ellipse cx="187.3355" cy="222.9974" rx="7.4946" ry="10.9506" style="fill:#f05d00"/><ellipse cx="125.6281" cy="249.5433" rx="7.4946" ry="10.9506" style="fill:#f05d00"/><circle cx="167.7647" cy="477.7037" r="8.1843" style="fill:#fff"/><path d="M192.5356,30.0407a40.2047,40.2047,0,0,0-2.9545,13.7764,40.8843,40.8843,0,0,0,32.9511,41.5854,11.5923,11.5923,0,0,1,2.7215.9074c-29.5252-19.3352-32.066-50.3634-32.2193-58.2183A7.6087,7.6087,0,0,1,192.5356,30.0407Z" style="fill:#f9bf29"/><path d="M208.1609,266.5876c-.0244.4955-.0562.69-.0857,1.0038-.0288.3-.0674.5356-.1013.8062-.0662.5345-.1516,1.0241-.2332,1.5235-.1675.9957-.3564,1.9533-.5661,2.9037-.4207,1.8948-.8941,3.7447-1.4505,5.5529a92.9483,92.9483,0,0,1-3.894,10.52c-.79,1.6766-1.5225,3.374-2.3994,4.9949l-1.2771,2.444-1.37,2.3849c-.8818,1.6041-1.92,3.1128-2.88,4.6582-.9973,1.523-2.0713,2.9914-3.1016,4.4795a5.4985,5.4985,0,0,1-9.4475-5.5715l.1641-.3292c.7239-1.4595,1.49-2.8891,2.1758-4.3545.6462-1.4851,1.3718-2.9256,1.935-4.4352a86.4712,86.4712,0,0,0,3.1285-9.053,78.1855,78.1855,0,0,0,1.98-9.1926c.2422-1.528.4019-3.0529.5144-4.546.0554-.7438.0921-1.4876.1065-2.1971.0051-.3538.0171-.7164.0058-1.038-.0048-.1572,0-.3489-.0114-.477-.01-.114-.0132-.348-.03-.2812a8.4192,8.4192,0,1,1,16.8372.2041Z" style="fill:#fff"/><circle cx="172.0259" cy="326.8138" r="8.5908" style="fill:#fff"/></g></svg>