<svg xmlns="http://www.w3.org/2000/svg" viewBox="0 0 512 512"><title>Hot_dog</title><g id="Hot_dog"><path d="M444.7044,282.9236a55.9188,55.9188,0,0,0-78.697-67.6419,74.9949,74.9949,0,0,1-10.3146,4.5213c-14.6855,4.9949-46.6694,12.3375-82.6213-1.5423-37.4327-14.4515-56.8148-44.5513-63.6651-57.4238a61.9437,61.9437,0,0,1-3.3749-7.404,55.9246,55.9246,0,1,0-103.0253,43.3023c2.3144,5.7427,11.1836,26.0675,29.4218,49.787,26.5564,34.5361,61.2851,60.7792,100.433,75.8929A232.7225,232.7225,0,0,0,359.0949,333.89c31.5389-5.8336,52.351-16.1858,56.2031-18.2015l-.0207-.04A55.7467,55.7467,0,0,0,444.7044,282.9236Z" style="fill:#ff8b00"/><path d="M393.25,324.91a234.1961,234.1961,0,0,1-34.16,8.98,232.7029,232.7029,0,0,1-126.23-11.47c-39.15-15.12-73.88-41.36-100.43-75.9-18.24-23.72-27.11-44.04-29.42-49.78a55.9231,55.9231,0,1,1,103.02-43.31,61.0649,61.0649,0,0,0,3.38,7.41s-20.64,68.65,88.89,119.74Z" style="fill:#ffa800"/><path d="M414.1635,213.6784a56.1221,56.1221,0,0,0-15.7681-4.2939,22.2106,22.2106,0,0,0,37.77,21.63A55.3484,55.3484,0,0,0,414.1635,213.6784Z" style="fill:#ffa800"/><path d="M505.4114,285.8968a6.787,6.787,0,0,0-7.3039-6.7614,6.7831,6.7831,0,1,0-6.8958-11.63,6.7891,6.7891,0,1,0-12.3434-5.0521l-.0253.1133a2.8064,2.8064,0,0,1-4.4031,1.6652,44.79,44.79,0,0,0-51.4212-.87c-.6569.44-67.5174,42.7312-166.8053,5.4665-.7788-.29-13.4781-5.4728-13.7777-5.6091-37.3067-16.309-66.8935-39.2512-88.0646-68.2679-15.7043-21.52-21.4194-39.531-22.4709-43.1629-.0959-.3509-.19-.7033-.2367-.8984a44.7839,44.7839,0,0,0-39.21-33.9563,2.9652,2.9652,0,0,1-2.3265-4.4127h0a6.9319,6.9319,0,0,0-4.1826-10.19,6.7869,6.7869,0,0,0-8.2847,5.5164,6.7831,6.7831,0,1,0-12.9218,3.9789,6.787,6.787,0,0,0-9.9526.0993,6.9321,6.9321,0,0,0,2.274,10.778l.7906.3878a2.9648,2.9648,0,0,1,.6346,4.8932,44.7231,44.7231,0,0,0-13.9787,43.3335c.0552.26,10.7076,37.9264,33.9711,71.3975,33.5611,48.2825,78.006,78.4631,116.0136,96.928,1.4118.69,12.991,6.01,13.3662,6.1652,4.7468,2.06,15.6211,6.3622,16.5531,6.7117,58.6494,22.0727,119.2152,27.0256,175.3522,14.3358,41.1469-9.3088,73.8-29.594,74.0719-29.7893a44.7546,44.7546,0,0,0,18.7318-41.7889,2.8036,2.8036,0,0,1,3.5567-3.0319l.3619.1043A6.932,6.932,0,0,0,505.4114,285.8968Z" style="fill:#ff4a45"/><path d="M500.4946,277.1879a44.6468,44.6468,0,0,0-34.5166,6.6785c-.6569.44-67.5174,42.7311-166.8053,5.4664-.7788-.29-13.4781-5.4727-13.7777-5.6091a250.45,250.45,0,0,1-28.458-14.6228c98.8909,36.79,165.4237-5.2955,166.0806-5.7359a44.8016,44.8016,0,0,1,51.4225.8635,2.8015,2.8015,0,0,0,4.4005-1.6576l.0237-.1151a6.79,6.79,0,1,1,12.3477,5.0467,6.7807,6.7807,0,0,1,9.2826,9.6854Z" style="fill:#ff635f"/><path d="M170.0918,326.529c-31.63-18.6963-65.0316-45.5767-91.6155-83.81a250.6408,250.6408,0,0,1-23.5-42.9479q-.5625-1.32-1.1083-2.6034c-1.1213-2.65-2.1354-5.1754-3.0469-7.5371-4.2437-10.9307-6.2876-18.1945-6.3159-18.309A44.74,44.74,0,0,1,58.48,127.9853a2.9648,2.9648,0,0,0-.628-4.8938l-.7926-.3889a6.9351,6.9351,0,0,1-2.2712-10.7805,6.788,6.788,0,0,1,9.9507-.095,6.7834,6.7834,0,1,1,12.9225-3.9823A6.7848,6.7848,0,0,1,85.944,102.33a6.9106,6.9106,0,0,1,4.6343,9.248,7.5842,7.5842,0,0,1-.448.9459,2.9619,2.9619,0,0,0,2.3271,4.41,44.7811,44.7811,0,0,1,39.205,33.9589c.049.195.143.542.2334.8981,1.0542,3.6288,6.769,21.6436,22.4742,43.1632a189.6875,189.6875,0,0,0,15.2342,18.3085c6.56,27.23,8.8333,53.3575,7.3224,76.1349q-.4118,6.2586-1.2067,12.1416A135.5713,135.5713,0,0,1,170.0918,326.529Z" style="fill:#ff635f"/><path d="M150.2686,168.917h0a5.96,5.96,0,0,1-6.0617-5.8566h0a3.97,3.97,0,0,0-3.547-3.9452,3.8587,3.8587,0,0,0-4.17,3.912l.0029.166a5.96,5.96,0,0,1-5.8566,6.0617h0a3.97,3.97,0,0,0-3.9452,3.547,3.8586,3.8586,0,0,0,3.9119,4.17l.166-.0029a5.96,5.96,0,0,1,6.0618,5.8566h0a3.97,3.97,0,0,0,3.5469,3.9452,3.8586,3.8586,0,0,0,4.17-3.9119l-.0028-.166a5.96,5.96,0,0,1,5.8566-6.0618l.166-.0028a3.8587,3.8587,0,0,0,3.7661-4.3025A3.97,3.97,0,0,0,150.2686,168.917Z" style="fill:#fff"/><path d="M347.6064,315.2559a24.6593,24.6593,0,0,1-8.9648-1.7432c-10.4863-4.0483-13.645-12.1724-15.9512-18.105-2.07-5.3237-3.2475-7.9541-7.3725-9.5464s-6.7627-.436-11.8731,2.1162c-5.6938,2.8443-13.49,6.7413-23.9775,2.69-10.4859-4.0484-13.6441-12.1729-15.95-18.1045-2.0694-5.3238-3.2471-7.9536-7.3711-9.5459-4.1221-1.5908-6.7622-.4356-11.8726,2.1162-5.6938,2.8437-13.49,6.74-23.977,2.69s-13.6431-12.1723-15.9488-18.1045c-2.0693-5.3237-3.2465-7.9531-7.37-9.5454s-6.7617-.435-11.87,2.1167c-5.6933,2.8443-13.4907,6.74-23.9761,2.6914s-13.6416-12.1719-15.9467-18.104c-2.0684-5.3232-3.2456-7.9526-7.3677-9.5439a7.5,7.5,0,0,1,5.4023-13.9932c10.4849,4.0479,13.6421,12.1724,15.9473,18.1045,2.0684,5.3228,3.2451,7.9521,7.3672,9.5435,4.12,1.59,6.76.435,11.87-2.1167,5.6938-2.8443,13.49-6.74,23.9761-2.6914s13.643,12.1723,15.9487,18.1044c2.0693,5.3238,3.2466,7.9532,7.37,9.5455s6.7622.4355,11.8726-2.1167c5.6933-2.8438,13.4907-6.7383,23.977-2.69s13.6441,12.1724,15.95,18.1045c2.0694,5.3237,3.2471,7.9536,7.3711,9.5459s6.7627.436,11.8726-2.1162c5.6948-2.8438,13.4927-6.7383,23.978-2.69s13.645,12.1723,15.9512,18.1049c2.07,5.3238,3.2475,7.9541,7.3725,9.5464s6.7642.4361,11.875-2.1157c5.6939-2.8433,13.4922-6.7373,23.9795-2.689a7.5,7.5,0,0,1-5.4023,13.9932c-4.1255-1.5928-6.7651-.4365-11.8755,2.1157C358.6851,312.7886,353.7441,315.2559,347.6064,315.2559Z" style="fill:#fff"/><path d="M457.3152,406.1914a55.9418,55.9418,0,0,0-74.1938-70.3036,99.9478,99.9478,0,0,1-14.3874,4.6928,202.6049,202.6049,0,0,1-30.2931,4.9844c-36.0591,3.2317-72.5093-2.1432-108.3388-15.9758-61.3584-23.6883-92.679-57.9706-106.7682-78.2592A113.7017,113.7017,0,0,1,113.02,232.5437,55.9423,55.9423,0,0,0,9.6174,275.1666l-.0435.0167c1.8735,4.9161,12.61,31.0477,40.034,62.7982,35.2687,40.8334,83.778,73.9471,140.2838,95.7621,53.3436,20.5941,110.3445,28.3377,164.84,22.3938,39.7784-4.3389,65.3712-14.3943,71.4163-16.9475.2126-.09,1.1859-.537,1.4466-.6548A55.7675,55.7675,0,0,0,457.3152,406.1914Z" style="fill:#ff9200"/><path d="M168.3387,376.6616c-27.4238-31.7505-38.16-57.8821-40.034-62.7983l.0436-.0166a55.7787,55.7787,0,0,1,4.9379-49.6792c-3.992-4.68-7.2822-9.0263-9.9509-12.8692a113.7,113.7,0,0,1-10.3134-18.7863A55.9423,55.9423,0,0,0,9.6189,275.135l-.0436.0166c1.8736,4.9162,12.61,31.0478,40.0341,62.7983,35.2686,40.8334,83.7779,73.9471,140.2837,95.762A364.2921,364.2921,0,0,0,268.58,454.3873C229.1272,433.9015,194.96,407.4826,168.3387,376.6616Z" style="fill:#f9aa13"/><path d="M273.9222,444.0929c-38.5232-20-71.0865-45.2416-96.8055-75.0092-23.4021-27.1017-33.928-49.5327-37.1314-57.2545l-.8009-2.1117a44.2609,44.2609,0,0,1,.0728-31.7445,42.614,42.614,0,0,1,2.2173-4.8313s-6.0313-6.3272-8.19-8.9735a55.7571,55.7571,0,0,0-4.9336,49.6751l-.05.0222c1.8756,4.9093,12.6167,31.0492,40.0359,62.7992,26.5691,30.7589,60.6519,57.1358,100.01,77.6035l.233.121s17.126,2.5716,31.29,3.1813Z" style="fill:#ff8b00"/><path d="M50.6846,248.4813c-23.7852-32.3273-43.9111.3012-44.4178.8761A55.8467,55.8467,0,0,0,9.6189,275.135l-.0436.0166c1.8736,4.9162,12.61,31.0478,40.0341,62.7983,26.4271,30.5968,60.2891,56.8587,99.3782,77.2811-44.3644-27.29-69.155-79.346-87.6787-144.7378A68.6319,68.6319,0,0,0,50.6846,248.4813Z" style="fill:#f9d153"/><path d="M401.9478,428.0051c-.4743.1568-.8978.28-1.5194.5095l-1.78.6366-3.7285,1.3053c-2.5217.8516-5.0726,1.6488-7.6377,2.3661a153.5471,153.5471,0,0,1-15.5086,3.5008c-2.594.48-5.2065.8115-7.8055,1.1774-2.6118.2765-5.21.6092-7.821.7739-5.2095.4537-10.4226.548-15.6087.579a4.83,4.83,0,0,1-.6452-9.62l.1343-.0168c4.8915-.6286,9.7587-1.3079,14.5465-2.3218,2.4045-.4453,4.7714-1.0513,7.1429-1.5948,2.3517-.6316,4.7069-1.2229,7.0182-1.951a139.2978,139.2978,0,0,0,13.6033-4.8606c2.2129-.92,4.39-1.904,6.5525-2.94l3.264-1.61,1.7028-.8535c.5356-.2763,1.2847-.6214,1.9787-.9435a8.5183,8.5183,0,1,1,7.1714,15.4536,8.617,8.617,0,0,1-.9043.3593Z" style="fill:#fff"/><circle cx="424.6265" cy="408.3238" r="9.0309" style="fill:#fff"/><path d="M82.3684,203.1683a55.5807,55.5807,0,0,0-35.3871-1.7755,26.2745,26.2745,0,0,0,50.0237,10.27A55.8635,55.8635,0,0,0,82.3684,203.1683Z" style="fill:#f9d153"/><path d="M176.9266,289.3978c-23.2787-16.5807-37.2887-33.2606-44.8595-44.16a103.5291,103.5291,0,0,1-9.3337-17.04,66.1415,66.1415,0,0,0-36.48-34.9268l-.37-.1427a65.8243,65.8243,0,0,0-35.063-3.4984c.9115,2.3617,1.9256,4.8872,3.0469,7.5371q.5459,1.2829,1.1083,2.6034a55.3856,55.3856,0,0,1,27.079,3.2751l.3156.1219a55.793,55.793,0,0,1,30.6493,29.34,112.8608,112.8608,0,0,0,10.3169,18.7866c9.1069,13.1192,25.4149,32.0847,52.3828,50.2451Q176.5131,295.6609,176.9266,289.3978Z" style="fill:#e4454a"/><path d="M456.7889,346.3086c-2.99,1.4665-6.3221,3.0395-9.937,4.6481a55.08,55.08,0,0,0-19.8223-14.666c-.77-.339-1.5388-.6563-2.3142-.9556a55.7688,55.7688,0,0,0-41.5958.5164,99.2155,99.2155,0,0,1-14.3784,4.6945,202.8154,202.8154,0,0,1-30.3014,4.9908c-36.0533,3.226-72.5064-2.1454-108.3349-15.9775a272.4079,272.4079,0,0,1-54.385-28.02q.7932-5.8785,1.2067-12.1416a257.4485,257.4485,0,0,0,57.0071,30.2442c34.2957,13.24,69.1381,18.3836,103.56,15.3046a192.753,192.753,0,0,0,28.6947-4.72,89.5031,89.5031,0,0,0,12.859-4.1933,66.2834,66.2834,0,0,1,49.4969-.6154c.9106.3516,1.8412.7315,2.7434,1.1316A65.7928,65.7928,0,0,1,456.7889,346.3086Z" style="fill:#c9452c"/></g></svg>