<svg xmlns="http://www.w3.org/2000/svg" viewBox="0 0 512 512"><title>Ice_cream</title><g id="Ice_cream"><path d="M189.2983,25.8227h0a6.8184,6.8184,0,0,1-6.9348-6.7h0a4.5418,4.5418,0,0,0-4.0578-4.5134,4.4144,4.4144,0,0,0-4.7709,4.4754l.0032.19a6.8184,6.8184,0,0,1-6.7,6.9348h0a4.5418,4.5418,0,0,0-4.5134,4.0578A4.4145,4.4145,0,0,0,166.8,35.038l.19-.0032a6.8184,6.8184,0,0,1,6.9348,6.7h0a4.5418,4.5418,0,0,0,4.0578,4.5134,4.4145,4.4145,0,0,0,4.7709-4.4754l-.0033-.19a6.8185,6.8185,0,0,1,6.7-6.9348l.19-.0033a4.4144,4.4144,0,0,0,4.3085-4.9221A4.5417,4.5417,0,0,0,189.2983,25.8227Z" style="fill:#f9d129"/><path d="M297.8,480.62c0,12.92-22.7,23.4-50.7,23.4-27.99,0-50.69-10.48-50.69-23.4,0,0,.73-89.27-45.13-118.07,23.76,10.93,57.9,17.79,95.82,17.79,37.93,0,72.06-6.86,95.82-17.79C297.07,391.36,297.8,480.62,297.8,480.62Z" style="fill:#f9b829"/><path d="M247.1033,291.7313c-58.28,0-108.32-14.8768-129.98-36.1214v69.8764c0,30.2945,58.194,54.8532,129.98,54.8532s129.98-24.5587,129.98-54.8532V255.61C355.4238,276.8545,305.3834,291.7313,247.1033,291.7313Z" style="fill:#f9d129"/><path d="M228.55,291.22a69.9133,69.9133,0,0,1-111.43,18.93V255.61C136.44,274.56,178.35,288.44,228.55,291.22Z" style="fill:#f9db54"/><path d="M165.23,280.71a49.681,49.681,0,0,1-48.11,20.59V255.61C127.44,265.73,144.2,274.4,165.23,280.71Z" style="fill:#f9ea76"/><path d="M297.7931,480.6642c-15.3264-6.1837-30.6178-15.7725-41.7931-30.6459-32.928-43.8245-77.8217-55.8694-77.8217-55.8694h0c18.6266,37.1509,18.2328,86.473,18.2328,86.473,0,12.9214,22.6958,23.3963,50.6922,23.3963C275.0691,504.0182,297.7432,493.5661,297.7931,480.6642Z" style="fill:#f9aa13"/><path d="M377.08,290.7l-20.05,20.05-21.27-21.26L354.25,271a167.1221,167.1221,0,0,1-25.26,9.71l-1,1-.54-.54q-5.955,1.74-12.34,3.22l5.1,5.1-21.27,21.26-20.5-20.49q-8.9549.855-18.31,1.22l-19.28,19.27L220.79,290.7q-8.9248-.705-17.43-1.88l.67.67-21.27,21.26-21.27-21.26,7.64-7.64q-6.165-1.725-11.86-3.7l-3.56,3.56-8.11-8.11c-11.92-5.18-21.62-11.26-28.48-17.99v5.06l28.82,28.82-21.27,21.26-7.55-7.54v22.28a24.1354,24.1354,0,0,0,1.11,7.19.0758.0758,0,0,1,.02.04l6.42-6.41,21.27,21.27-7.81,7.81a99.4534,99.4534,0,0,0,9.93,5.61l5.65-5.64,13.36,13.35a208.6128,208.6128,0,0,0,24.92,6.46l19.81-19.82,21.27,21.27-3.23,3.24c5.65.31,11.41.48,17.26.48,1.74,0,3.47-.02,5.2-.05l-3.67-3.67,21.27-21.27,21.26,21.27-.56.57c6.66-1,13.08-2.22,19.2-3.65l18.19-18.19,9.53,9.54q2.79-1.14,5.41-2.35c1.81-.83,3.55-1.69,5.23-2.56l-12.39-12.4,21.26-21.27,14.74,14.75a28.8152,28.8152,0,0,0,4.83-10.84l-11.79-11.69,12.27-12.27ZM132.45,318.53l21.26-21.27,21.27,21.27L153.71,339.8Zm50.31,50.31-21.27-21.26,21.27-21.27,21.27,21.27Zm7.78-50.31,21.26-21.27,21.27,21.27L211.8,339.8Zm50.31,50.31-21.27-21.26,21.27-21.27,21.27,21.27Zm7.78-50.31,21.27-21.27,21.26,21.27L269.9,339.8Zm50.31,50.31-21.27-21.26,21.27-21.27,21.27,21.27Zm29.05-29.04-21.27-21.27,21.27-21.27,21.26,21.27Z" style="fill:#f9c729"/><path d="M309.7975,373.5449c-6.1161,1.424-12.5331,2.6452-19.2,3.6441L269.896,397.89l-17.5981-17.5981c-1.724.0286-3.454.0474-5.1946.0474q-8.7815,0-17.2653-.4827L211.8049,397.89l-21.2675-21.2675,1.4487-1.4488a209.337,209.337,0,0,1-24.9186-6.465l7.9137,7.9137-4.54,4.54a96.0842,96.0842,0,0,1,5.967,9.5894l6.3506-6.3507,21.2676,21.2675L188.353,421.3417c1.16,4.2354,2.1532,8.4439,3.003,12.5535l20.4491-20.4491,21.2674,21.2674L211.8049,455.981,191.77,435.946c1.2909,6.5506,2.2244,12.8052,2.897,18.4531l9.36,9.36-7.88,7.88c.29,5.6179.2644,8.9828.2644,8.9828a11.6708,11.6708,0,0,0,1.2181,5.0913l14.176-14.176,21.2671,21.2671-8.7232,8.7232a95.7739,95.7739,0,0,0,13.4646,2.0918l3.0368-3.0368,3.3966,3.3966c.9459.0243,1.8972.0391,2.8562.0391a107.8536,107.8536,0,0,0,12.0664-.6724l-10.5413-10.5412,21.2676-21.2677,20.9246,20.9246c3.4314-2.6931,5.7236-5.73,6.5826-8.9734L277.6741,463.759l21.2672-21.2674,1.9772,1.9772a215.2773,215.2773,0,0,1,5.4439-24.9545l-7.4212,7.4212-21.2671-21.2672,21.2676-21.2677,14.73,14.7306a114.5941,114.5941,0,0,1,5.221-10.335L306.72,376.6226ZM219.583,405.668,240.85,384.4006l21.2676,21.2676-21.2673,21.2673ZM240.85,485.0264,219.583,463.7592l21.2676-21.2676,21.2673,21.2672Zm50.313-50.3129-21.2674,21.2673-21.2671-21.2672,21.2673-21.2673Z" style="fill:#f99e29"/><path d="M151.28,362.5453a68.2581,68.2581,0,0,1,19.2514,18.7426c22.4914,6.5292,48.9419,10.0516,76.5716,10.0516s54.08-3.5224,76.5716-10.0517a68.26,68.26,0,0,1,19.2516-18.7426h0C319.165,373.4814,285.0336,380.34,247.1033,380.34S175.0417,373.4814,151.28,362.5453Z" style="fill:#ff8600"/><path d="M377.0831,255.61c-21.6593,21.2445-71.7,36.1213-129.98,36.1213s-108.32-14.8768-129.98-36.1213v14.4087a120.9379,120.9379,0,0,0,25.6883,14.3642c28.0373,11.8322,65.0755,18.3484,104.2915,18.3484s76.2542-6.5162,104.2917-18.3484a120.9361,120.9361,0,0,0,25.6881-14.3642Z" style="fill:#f99b13"/><path d="M365.5251,199.39a8.2738,8.2738,0,0,1-2.6889-11.048,32.5394,32.5394,0,0,0,4.3655-15.9921c0-14.9455-11.0564-28.6058-29.3205-39.0764a8.1258,8.1258,0,0,1-3.5745-9.98,34.2443,34.2443,0,0,0-.5-26.6506l.0006,0c-10.6281-25.8338-44.0053-65.9709-64.0056-86.3819a10.6359,10.6359,0,0,0-18.1145,6.1173c-1.3167,9.339-5.2042,18.5158-13.206,24.4529a29.7025,29.7025,0,0,1-6.5029,3.5453C205.42,55.2382,180.4873,74.07,180.4873,74.07h0c-14.322,9.6666-23.0427,22.4648-23.0427,36.5032A34.5873,34.5873,0,0,0,159.9,123.2933a8.1259,8.1259,0,0,1-3.5744,9.9806c-18.2642,10.4706-29.3206,24.1308-29.3206,39.0763a32.5384,32.5384,0,0,0,4.3656,15.9921,8.2738,8.2738,0,0,1-2.6889,11.048c-14.5554,9.3823-23.02,20.599-23.02,32.65,0,32.9661,63.3258,59.69,141.4422,59.69s141.4422-26.7244,141.4422-59.69C388.5455,219.9893,380.0805,208.7726,365.5251,199.39Z" style="fill:#f08daa"/><path d="M169.96,221.74h0a5.4951,5.4951,0,0,1-7.707,5.0443q-2.5314-1.1343-4.963-2.3444c-13.43-6.67-23.8-14.67-30.8-23.58.72-.5,1.44-.99,2.19-1.47a8.26,8.26,0,0,0,2.89-10.65c6.2461,10.9333,18.6153,20.5784,35.1349,27.9825A5.5024,5.5024,0,0,1,169.96,221.74Z" style="fill:#f069aa"/><path d="M277.54,169.0793h0a5.5057,5.5057,0,0,1-4.5834,5.4345A156.5266,156.5266,0,0,1,247.1,176.64c-25.93,0-50.48-6.25-69.11-17.58-11.1-6.75-19.47-14.9-24.79-23.91,1.01-.64,2.06-1.26,3.13-1.88a8.1487,8.1487,0,0,0,4-8.4c10.04,23.45,45.08,40.77,86.77,40.77a144.2966,144.2966,0,0,0,24.0551-1.989A5.4886,5.4886,0,0,1,277.54,169.0793Z" style="fill:#f069aa"/><path d="M388.5455,232.0408c0-12.0515-8.4649-23.2682-23.02-32.65a8.274,8.274,0,0,1-2.689-11.0482,32.5393,32.5393,0,0,0,4.3655-15.992c0-14.9455-11.0564-28.6058-29.3206-39.0764l-.0027-.0018L316.22,159.06a122.859,122.859,0,0,0-29.465,38.6823c-11.3384,23.8894-52.5974,85.2-142.3456,75.3374l.0061.0068c25.7781,11.4818,62.2495,18.6448,102.6878,18.6448A324.3739,324.3739,0,0,0,288.51,289.129a10.49,10.49,0,0,1,11.8175,10.4171v6.7263a6.6806,6.6806,0,0,0,6.3,6.7695,6.5,6.5,0,0,0,6.7-6.497V293.0535a10.4967,10.4967,0,0,1,7.8515-10.1578C361.5968,272.3888,388.5455,253.5443,388.5455,232.0408Z" style="fill:#f078a6"/><path d="M306.8271,352.998a6.5,6.5,0,0,1-6.5-6.5V330.3638a6.5,6.5,0,0,1,13,0V346.498A6.5,6.5,0,0,1,306.8271,352.998Z" style="fill:#f078a6"/><path d="M333.8066,376.0806a6.5,6.5,0,0,1-6.5-6.5V350.48a6.5,6.5,0,0,1,13,0v19.1011A6.5,6.5,0,0,1,333.8066,376.0806Z" style="fill:#f06598"/><path d="M273.71,64.26c0-15.0772-9.631-28.5476-24.7384-37.4449A31.7615,31.7615,0,0,1,238.481,40.8307a29.6941,29.6941,0,0,1-6.5029,3.5453C205.42,55.2382,180.4873,74.07,180.4873,74.07c-10.4844,7.0765-17.9482,15.8353-21.2056,25.5262,12.1542,8.1635,28.5074,13.1743,46.5083,13.1743C243.3013,112.77,273.71,91.0513,273.71,64.26Z" style="fill:#f39ab8"/><path d="M388.5455,232.0408c0-12.0515-8.4649-23.2682-23.02-32.65a8.2378,8.2378,0,0,1-1.8889-1.6808c-25.5966,9.5437-43.5376,31.7106-43.5376,57.5384a54.9488,54.9488,0,0,0,2.3128,15.7806,106.1767,106.1767,0,0,1,4.6121,29.0772c.153,12.1813.2831,25.82.2831,25.82a6.6805,6.6805,0,0,0,6.3,6.7695,6.5,6.5,0,0,0,6.7-6.497V293.4389a24.8667,24.8667,0,0,1,13.8394-22.3856C375.5785,260.5914,388.5455,246.956,388.5455,232.0408Z" style="fill:#f06598"/><path d="M367.72,200.86c-7,8.91-17.38,16.91-30.8,23.58-24.17,12.02-56.07,18.64-89.82,18.64a245.103,245.103,0,0,1-36.6336-2.7,5.503,5.503,0,0,1-4.6764-5.4419h0a5.5064,5.5064,0,0,1,6.3561-5.4285A234.3693,234.3693,0,0,0,247.1,232.08c54.92,0,101.23-18.32,115.54-43.34a8.26,8.26,0,0,0,2.89,10.65Q366.64,200.11,367.72,200.86Z" style="fill:#f04f9a"/><path d="M180.4873,74.07c-.239.1613-.4683.3281-.7041.4912,6.163,4.2364,14.7456,6.8676,24.2434,6.8676,18.7551,0,33.9591-10.2484,33.9591-22.89,0-5.1839-2.56-9.9635-6.869-13.8009C204.8837,55.6492,180.4873,74.07,180.4873,74.07Z" style="fill:#ffbac3"/><path d="M285.1246,49.857c.3406.292.4785.436.6972.6395l.5575.5509c.3708.3646.7.7214,1.0379,1.08.6714.7189,1.3042,1.4354,1.9192,2.1641,1.2254,1.4552,2.3882,2.928,3.47,4.4427a92.0151,92.0151,0,0,1,5.9152,9.3417c.8425,1.6239,1.7377,3.2156,2.4854,4.8759L302.363,75.42l1.054,2.5073c.7334,1.6555,1.2971,3.3771,1.9385,5.06.6,1.6992,1.1119,3.4264,1.6665,5.1319a4.57,4.57,0,0,1-8.49,3.34l-.1236-.2671c-.6924-1.49-1.3355-2.9957-2.0579-4.4608-.7618-1.4466-1.4406-2.9286-2.2749-4.3269a87.7681,87.7681,0,0,0-5.17-8.2,79.7444,79.7444,0,0,0-6.0229-7.4084c-1.0587-1.1657-2.1688-2.2666-3.2882-3.3145-.5583-.5217-1.1287-1.0291-1.6906-1.5016-.2817-.2341-.5651-.4779-.8357-.6828-.1325-.1013-.282-.2273-.3993-.3086a2.2,2.2,0,0,0-.2825-.1944,7,7,0,0,1,8.7385-10.938Z" style="fill:#fff"/><circle cx="310.6545" cy="108.409" r="6.8629" style="fill:#fff"/><path d="M341.01,135.15c-5.32,9.01-13.69,17.16-24.79,23.91q-.5348.3247-1.0762.6443a5.5092,5.5092,0,0,1-8.3137-4.7368h0a5.4933,5.4933,0,0,1,2.7013-4.7286C321.12,143.3967,329.6793,134.673,333.87,124.87a8.1557,8.1557,0,0,0,4.01,8.4C338.95,133.89,339.99,134.51,341.01,135.15Z" style="fill:#f04f9a"/></g></svg>