<?xml version="1.0" encoding="utf-8"?>
<!-- Generator: Adobe Illustrator 24.0.3, SVG Export Plug-In . SVG Version: 6.00 Build 0)  -->
<svg version="1.1" xmlns="http://www.w3.org/2000/svg" xmlns:xlink="http://www.w3.org/1999/xlink" x="0px" y="0px"
	 viewBox="0 0 64 64" style="enable-background:new 0 0 64 64;" xml:space="preserve">
<style type="text/css">
	.st0{fill:#88C663;}
	.st1{fill:#FEBB24;}
	.st2{fill:#70B6E4;}
	.st3{fill:#71AC43;}
	.st4{fill:#BBD976;}
	.st5{fill:#F58127;}
	.st6{fill:#DF3426;}
	.st7{fill:#982433;}
	.st8{fill:#F36F34;}
	.st9{fill:#D98B36;}
	.st10{fill:#A25425;}
	.st11{fill:#BBD985;}
	.st12{fill:#FCDE60;}
	.st13{fill:#58656F;}
	.st14{fill:#EF4F24;}
	.st15{fill:#9AC75E;}
	.st16{fill:#A62739;}
	.st17{fill:#FFFFFF;}
	.st18{fill:#EF4B4D;}
</style>
<g id="tea">
</g>
<g id="macaron">
</g>
<g id="vegetables">
</g>
<g id="cake">
</g>
<g id="toaster">
</g>
<g id="blender">
</g>
<g id="pizza">
</g>
<g id="meat">
	<g>
		<path d="M25.69,36.36c-2.39-0.79-4.9-1.22-7.42-1.35c-1.28-0.06-2.51-0.02-3.73,0.01c-1.23,0.04-2.45,0.07-3.68,0.14l-1.84,0.09
			c-0.55,0.03-1.16,0.01-1.75-0.03c-1.18-0.07-2.42-0.2-3.46-0.55l-0.04-0.01c-0.16-0.05-0.35,0.01-0.44,0.16
			c-0.11,0.18-0.05,0.41,0.12,0.52c0.6,0.37,1.2,0.56,1.81,0.75c0.61,0.18,1.22,0.32,1.85,0.44c0.63,0.11,1.25,0.2,1.92,0.23
			l1.84,0.05c1.23,0.04,2.45,0.03,3.68,0.05c1.23,0.01,2.45-0.03,3.63,0.05c4.77,0.21,9.45,1.38,13.87,3.4
			c0.15,0.07,0.34,0.03,0.44-0.11c0.11-0.16,0.08-0.38-0.08-0.49C30.37,38.25,28.09,37.13,25.69,36.36z"/>
		<path d="M63.99,34.84C63.3,20.35,49.08,9,31.59,9C16.93,9,4.05,17.19,0.26,28.93c-0.21,0.65-0.23,1.26-0.24,1.86
			C0.01,30.86,0,30.93,0,31v6c0,3.37,3.24,5.91,7.53,5.91h9.08c7.7,0,14.93,2.75,19.85,7.53C39.47,53.37,43.75,55,48.34,55
			c0.35,0,0.7-0.01,1.05-0.03C57.78,54.51,64,48,64,40.9v-5.53C64,35,64,34.89,63.99,34.84z M60.8,40.19
			c-0.37,0.7-0.82,1.36-1.33,1.97c-1.7,2.04-4.03,3.58-6.6,4.4c-1.29,0.41-2.64,0.65-4,0.71c-1.37,0.08-2.75,0-4.1-0.26
			c-2.69-0.51-5.31-1.67-7.37-3.54c-0.13-0.12-0.34-0.12-0.47,0.01c-0.13,0.13-0.14,0.35-0.01,0.48c2.04,2.1,4.73,3.55,7.6,4.23
			c2.86,0.68,5.91,0.7,8.8-0.12c1.25-0.35,2.47-0.85,3.61-1.5c0.68-0.38,1.51,0.08,1.51,0.86c0,1.15-0.56,2.23-1.5,2.9
			c-2.13,1.51-4.78,2.48-7.65,2.64c-4.42,0.23-8.59-1.21-11.43-3.97c-5.29-5.15-13.04-8.1-21.25-8.1H7.53C4.85,40.91,2,39.54,2,37
			v-5.86c0.01-0.06,0.02-0.13,0.02-0.2c0-0.5,0.01-0.97,0.15-1.4C5.69,18.62,17.79,11,31.59,11c16.43,0,29.78,10.52,30.4,23.95
			l0,0.07C62.01,36.81,61.65,38.61,60.8,40.19z"/>
		<path class="st6" d="M7.53,32.91h9.08h0.01c0.77,0,1.42-0.56,1.52-1.32c0.56-4.15,2.91-7.8,6.39-10.02
			c0.88-0.56,1.1-1.74,0.53-2.62c-0.41-0.63-0.78-1.27-1.12-1.94c-0.86-1.67-2.83-2.44-4.58-1.77c-7.4,2.84-13.13,8.2-15.29,14.92
			c-0.05,0.17-0.22,0.69,0.27,1.36C4.83,32.19,5.92,32.91,7.53,32.91z"/>
		<path class="st6" d="M42.68,19.94c2.09-1.39,1.73-4.61-0.66-5.37C38.79,13.56,35.27,13,31.59,13c-0.94,0-1.87,0.04-2.8,0.11
			c-2.2,0.18-3.41,2.57-2.24,4.45c1.48,2.38,3.45,4.44,5.79,6.03c1.86,1.27,4.35,1.07,6.07-0.39C39.59,22.18,41.1,20.99,42.68,19.94
			z"/>
		<path class="st6" d="M31.84,25.64c-1.05-0.67-2.05-1.42-2.97-2.24c-0.85-0.76-2.1-0.87-3.07-0.27c-2.96,1.82-5.01,4.82-5.61,8.27
			c-0.16,0.9,0.49,1.75,1.39,1.88c3.03,0.42,5.94,1.22,8.64,2.37c1.33,0.57,2.78-0.37,2.89-1.81c0.09-1.16,0.29-2.3,0.59-3.42
			C34.21,28.6,33.43,26.65,31.84,25.64z"/>
		<path class="st6" d="M48.21,20.42c-0.08,0.01-0.15,0.02-0.21,0.04c-3.81,0.8-7.22,3.08-9.41,6.37c-1.96,2.94-2.82,6.48-2.43,9.99
			c0.16,1.47,0.9,2.81,2.02,3.78c0.37,0.32,0.72,0.65,1.07,0.98c2.24,2.18,5.55,3.43,9.1,3.43c0.28,0,0.55-0.01,0.83-0.02
			c6.1-0.33,11.05-4.88,10.81-9.94c-0.2-4.4-1.92-8.45-4.73-11.86C53.55,21.1,50.87,20.01,48.21,20.42z M49,38c-2.76,0-5-1.79-5-4
			c0-2.21,2.24-4,5-4s5,1.79,5,4C54,36.21,51.76,38,49,38z"/>
		<path d="M49,32c-1.66,0-3,0.9-3,2c0,0.17,0.04,0.34,0.11,0.5C46.44,33.64,47.6,33,49,33s2.56,0.64,2.89,1.5
			C51.96,34.34,52,34.17,52,34C52,32.89,50.66,32,49,32z"/>
	</g>
</g>
<g id="sushi">
</g>
<g id="beer">
</g>
<g id="fruits">
</g>
<g id="hot_x5F_dog">
</g>
</svg>
