<svg xmlns="http://www.w3.org/2000/svg" viewBox="0 0 512 512"><title>Milkshake</title><g id="Milkshake"><path d="M188.92,226.57a308.21,308.21,0,0,1,19.89,45.61c-4.35-2.75-11.28-4.18-17.77-4.92-6.69-17.49-14.4-33.59-23.25-46.72a106.2673,106.2673,0,0,0-15.38-18.44,150.6574,150.6574,0,0,0,28.38,11c.01,0,.02.01.03.01Q184.9751,219.365,188.92,226.57Z" style="fill:#f08daa"/><path d="M390.22,202.12a105.8633,105.8633,0,0,0-15.34,18.4.01.01,0,0,0-.01.01c-26.36,39.1-42.63,104.54-51.84,154.44-7.13-.76-14.6-2.18-14.83-2.23,4.53-24.63,10.84-53.46,19.28-81.16q11.7751-38.655,26.24-65.01h.01q3.9448-7.215,8.1-13.46c.01,0,.02-.01.03-.01A151.1461,151.1461,0,0,0,390.22,202.12Z" style="fill:#f08daa"/><path d="M323.03,374.97c-2.03,11.03-3.72,21.3-5.1,30.36a44.9263,44.9263,0,0,1-30.96,36.1c-13.64,4.81-29.87.4-31.2.03l-.09-.03a44.9263,44.9263,0,0,1-30.96-36.1c-5.51-36.27-16.04-91.98-33.68-138.07,6.49.74,13.42,2.17,17.77,4.92q3.27,9.285,6.36,19.4c12.26,40.22,20.02,82.83,24.38,111.49a30.1153,30.1153,0,0,0,20.47,24,53.3441,53.3441,0,0,0,12.51,1.59,28.5156,28.5156,0,0,0,9.45-1.38l.25-.08.25-.08a30.1291,30.1291,0,0,0,20.62-24.04c1.36-8.93,3.04-19.2,5.09-30.34h.01C308.43,372.79,315.9,374.21,323.03,374.97Z" style="fill:#f066a6"/><path d="M353.72,226.57q-14.4152,26.28-26.24,65.01c-12.26,40.22-20.02,82.83-24.38,111.5a30.1291,30.1291,0,0,1-20.62,24.04l-.25.08-.25.08a28.5156,28.5156,0,0,1-9.45,1.38,53.3441,53.3441,0,0,1-12.51-1.59,30.1153,30.1153,0,0,1-20.47-24c-4.36-28.66-12.12-71.27-24.38-111.49q-11.7747-38.655-26.24-65.01c24.24,5.75,52.67,8.84,82.4,8.84C301.05,235.41,329.48,232.31,353.72,226.57Z" style="fill:#fff7ed"/><path d="M333.01,485.19c0,10.44-27.62,18.91-61.68,18.91-34.07,0-61.69-8.47-61.69-18.91,0-8.55,18.51-15.77,43.91-18.11a10.7575,10.7575,0,0,0,9.78-10.7v-4.66a10.8234,10.8234,0,0,0-7.56-10.26c1.33.37,17.56,4.78,31.2-.03a10.8141,10.8141,0,0,0-7.64,10.29v4.66a10.7488,10.7488,0,0,0,9.77,10.7C314.5,469.42,333.01,476.64,333.01,485.19Z" style="fill:#f04280"/><path d="M256,322.47c-23.47-39.9541-47.1851-50.2912-47.1851-50.2912l-.0017.0055q3.2726,9.2854,6.3606,19.4c12.2559,40.2187,20.0205,82.8291,24.375,111.4873a30.1136,30.1136,0,0,0,20.47,23.9985,53.1318,53.1318,0,0,0,12.5126,1.5913,28.6946,28.6946,0,0,0,9.45-1.3769l.2471-.0874.251-.0786a30.1088,30.1088,0,0,0,20.62-24.0415c1.3565-8.9256,3.044-19.2044,5.094-30.3412C284.1218,366.368,274.1362,353.3447,256,322.47Z" style="fill:#ffcccd"/><path d="M265.4846,316.8986c-10.353-17.625-22.0376-32.0644-34.7292-42.9172-9.8272-8.4033-16.7842-11.5546-17.5452-11.8863l-9.7681-4.2577q2.7441,6.9069,5.3724,14.35l-.0013-.0031.0017-.0055S232.5305,282.5159,256,322.47c18.1362,30.8747,28.1218,43.898,52.1936,50.2655q.9753-5.2985,2.0623-10.842C291.2886,356.6818,283.1191,346.9194,265.4846,316.8986Z" style="fill:#ffdad6"/><circle cx="298.4193" cy="299.9926" r="8.5895" style="fill:#2dbacd"/><circle cx="244.6052" cy="338.989" r="8.5895" style="fill:#2dbacd"/><circle cx="271.3251" cy="383.0073" r="8.5895" style="fill:#2dbacd"/><path d="M152.3672,202.0814a106.8729,106.8729,0,0,1,15.4014,18.4447c6.5866,2.2633,13.6772,4.2776,21.155,6.0487q-3.9682-7.2261-8.13-13.4791A150.38,150.38,0,0,1,152.3672,202.0814Z" style="fill:#f04280"/><path d="M361.8572,213.0953q-4.1577,6.27-8.13,13.4792c7.4744-1.77,14.5625-3.7837,21.147-6.0459a107.1025,107.1025,0,0,1,15.353-18.4177A150.5323,150.5323,0,0,1,361.8572,213.0953Z" style="fill:#f04280"/><path d="M271.3252,224.4126c-34.3926,0-65.928-4.2485-90.532-11.3169q4.158,6.2694,8.13,13.4791c24.2351,5.74,52.6782,8.8378,82.4016,8.8378s58.1665-3.0977,82.4021-8.8381q3.9679-7.2261,8.13-13.4792C337.2532,220.1638,305.718,224.4126,271.3252,224.4126Z" style="fill:#ffcccd"/><path d="M396.19,40.1309h0a6.8184,6.8184,0,0,1-6.9348-6.7h0a4.5418,4.5418,0,0,0-4.0578-4.5134,4.4145,4.4145,0,0,0-4.7709,4.4754l.0032.19a6.8184,6.8184,0,0,1-6.7,6.9348h0a4.5418,4.5418,0,0,0-4.5134,4.0578,4.4145,4.4145,0,0,0,4.4754,4.7709l.19-.0033a6.8185,6.8185,0,0,1,6.9348,6.7h0a4.5418,4.5418,0,0,0,4.0578,4.5134,4.4144,4.4144,0,0,0,4.7709-4.4754l-.0032-.19a6.8184,6.8184,0,0,1,6.7-6.9348l.19-.0033a4.4145,4.4145,0,0,0,4.3086-4.9221A4.5419,4.5419,0,0,0,396.19,40.1309Z" style="fill:#2dbacd"/><path d="M413.6836,175.0245c0-9.02-6.9715-17.4751-19.1457-24.7526a11.2012,11.2012,0,0,1-4.2126-14.726,21.94,21.94,0,0,0,2.4486-9.9094c0-11.54-9.7363-22.153-26.0462-30.56a10.8989,10.8989,0,0,1-5.5251-12.926,15.43,15.43,0,0,0,.7757-4.8c0-10.5781-11.138-20.1053-28.9356-26.7825-20.7322-7.9041-40.9355-27.5355-52.3078-40.01a12.7413,12.7413,0,0,0-18.8211.0016c-11.3725,12.4751-31.5754,32.1054-52.3066,40.0091l-.0364.0143C191.7954,57.2589,180.6736,66.78,180.6736,77.35a15.4288,15.4288,0,0,0,.7756,4.8,10.8992,10.8992,0,0,1-5.5253,12.9263c-16.31,8.407-26.0457,19.02-26.0457,30.56a21.9419,21.9419,0,0,0,2.4486,9.91,11.201,11.201,0,0,1-4.2126,14.7258c-12.1744,7.2775-19.1459,15.7324-19.1459,24.7526,0,13.8869,16.5246,26.4333,43.12,35.4059a22.185,22.185,0,0,1,15.0849,21.02v67.6309a6.68,6.68,0,0,0,6.3,6.7695,6.5,6.5,0,0,0,6.7-6.497v-66.9a12.317,12.317,0,0,1,14.206-12.152,382.7737,382.7737,0,0,0,56.9463,4.1112q6.96,0,13.7513-.23a6.3718,6.3718,0,0,1,6.5942,6.3674v32.2424a6.68,6.68,0,0,0,6.3,6.7695,6.5,6.5,0,0,0,6.7-6.4969V228.8631a6.3707,6.3707,0,0,1,5.7423-6.3385l.1291-.0127a6.37,6.37,0,0,1,7.0087,6.3383v12.995a6.6807,6.6807,0,0,0,6.3,6.77,6.5,6.5,0,0,0,6.7-6.497V225.3359a6.3757,6.3757,0,0,1,5.27-6.2735C382.0293,210.9011,413.6836,194.2462,413.6836,175.0245Z" style="fill:#f9d129"/><path d="M193.6736,316.3481a6.5,6.5,0,0,0-6.5,6.5v11.8571a6.5,6.5,0,0,0,13,0V322.8481A6.5,6.5,0,0,0,193.6736,316.3481Z" style="fill:#fdbb29"/><path d="M298.1121,123.7609c-45.15,2.901-101.0174,35.21-126.0235,86.6695a22.1849,22.1849,0,0,1,15.085,21.02v67.6309a6.68,6.68,0,0,0,6.3,6.7695,6.5,6.5,0,0,0,6.7-6.497v-66.9a12.317,12.317,0,0,1,14.206-12.152,382.7727,382.7727,0,0,0,56.9463,4.1112q6.96,0,13.7512-.23a6.3718,6.3718,0,0,1,6.5943,6.3673v32.2425a6.6806,6.6806,0,0,0,6.3,6.7695,6.5,6.5,0,0,0,6.7-6.4969V228.8631a6.3707,6.3707,0,0,1,5.7422-6.3385l.1291-.0128a6.37,6.37,0,0,1,7.0088,6.3384v12.995a6.68,6.68,0,0,0,6.3,6.7695,6.5,6.5,0,0,0,6.7-6.4969V225.3359a6.3758,6.3758,0,0,1,5.27-6.2735c46.2075-8.1613,77.8618-24.8162,77.8618-44.0379,0-9.02-6.9714-17.4751-19.1458-24.7526a11.2014,11.2014,0,0,1-4.2126-14.7261,21.9366,21.9366,0,0,0,2.4487-9.9093c0-9.73-6.9223-18.8011-18.87-26.4465-4.4785-2.5709-7.1738-4.11-7.1738-4.11S343.0086,120.8762,298.1121,123.7609Z" style="fill:#fdbb29"/><path d="M307.0088,219.42a41.4682,41.4682,0,0,0,.2353,4.3335,6.3365,6.3365,0,0,1,3.1695-1.2286l.1291-.0128a6.37,6.37,0,0,1,7.0088,6.3384v12.995a6.68,6.68,0,0,0,6.3,6.7695,6.5,6.5,0,0,0,6.7-6.4969V225.3359a6.3758,6.3758,0,0,1,5.27-6.2735c46.2075-8.1613,77.8618-24.8162,77.8618-44.0379,0-9.02-6.9714-17.4751-19.1458-24.7526-.1389-.0831-.2658-.1779-.4-.2659C343.1851,160.7081,307.0088,187.748,307.0088,219.42Z" style="fill:#f9a213"/><path d="M302.97,118.2905h0a5.5057,5.5057,0,0,1-4.8579,5.47A229.4012,229.4012,0,0,1,271.33,125.3c-25.6,0-49.82-4.08-68.22-11.51-9.62-3.88-17.33-8.54-22.9-13.86a39.9248,39.9248,0,0,1-4.33-4.83.0765.0765,0,0,1,.04-.02,10.9618,10.9618,0,0,0,5.84-11.67c6.77,17.5,44.29,30.89,89.57,30.89a217.0214,217.0214,0,0,0,25.5294-1.476A5.4884,5.4884,0,0,1,302.97,118.2905Z" style="fill:#ff9200"/><path d="M366.77,95.1a40.6233,40.6233,0,0,1-4.32,4.83,62.4258,62.4258,0,0,1-14.3322,9.9326c-1.2525.6517-4.082,1.8916-6.9387,3.0949a5.4317,5.4317,0,0,1-7.539-5.0067h0a5.4429,5.4429,0,0,1,3.3312-5.0025C349.3962,97.68,357.9738,90.9257,360.89,83.41a10.9614,10.9614,0,0,0,5.84,11.67A.0758.0758,0,0,1,366.77,95.1Z" style="fill:#ff7000"/><path d="M200.17,169.8506h0a5.5061,5.5061,0,0,1-7.1753,5.2446q-6.0963-1.9479-11.6845-4.2152c-14.34-5.82-25.29-13-32.47-21.09a11.1748,11.1748,0,0,0,3.86-13.4c6.1253,11.3717,21.8922,21.278,43.6347,28.2238A5.5033,5.5033,0,0,1,200.17,169.8506Z" style="fill:#ff9200"/><path d="M306.2732,34.6007a217.8716,217.8716,0,0,1-25.5383-24.0433,12.7413,12.7413,0,0,0-18.8211.0016c-11.3725,12.4751-31.5754,32.1054-52.3066,40.0091l-.0364.0143c-11.2207,4.2145-19.7856,9.5633-24.58,15.5931A77.72,77.72,0,0,0,233.8955,83.41,78.0762,78.0762,0,0,0,306.2732,34.6007Z" style="fill:#f9ea76"/><path d="M254.48,71.67a26.4857,26.4857,0,0,1-50.13-14.64A26.79,26.79,0,0,0,252.9,45.72,26.4806,26.4806,0,0,1,254.48,71.67Z" style="fill:#ff4a45"/><path d="M252.9,45.72a26.79,26.79,0,0,1-48.55,11.31A26.4818,26.4818,0,0,1,252.9,45.72Z" style="fill:#ff6965"/><path d="M228.8252,58.0864a5.5,5.5,0,0,1-5.4941-5.32c-.04-1.022-1.2178-23.374-25.504-26.4028a5.5,5.5,0,1,1,1.3614-10.9151c27.0469,3.3731,34.81,25.6641,35.1377,36.98a5.5,5.5,0,0,1-5.34,5.6563C228.9326,58.0859,228.8789,58.0864,228.8252,58.0864Z" style="fill:#b44031"/><path d="M393.82,149.79c-7.19,8.09-18.14,15.27-32.47,21.09-24.23,9.85-56.2,15.28-90.02,15.28a302.3927,302.3927,0,0,1-30.7077-1.5387,5.5084,5.5084,0,0,1-4.9525-5.4783h0a5.493,5.493,0,0,1,6.06-5.4649,291.9447,291.9447,0,0,0,29.6,1.4819c58.11,0,106.68-16.6,118.62-38.77A11.1783,11.1783,0,0,0,393.82,149.79Z" style="fill:#ff7000"/><circle cx="222.2577" cy="152.6855" r="8.5895" style="fill:#fff"/><circle cx="345.686" cy="179.0395" r="8.5895" style="fill:#fff"/><circle cx="311.5595" cy="86.5829" r="8.5895" style="fill:#fff"/><path d="M193.6736,316.3481a6.5,6.5,0,0,0-6.5,6.5v11.8571a6.5,6.5,0,0,0,13,0V322.8481A6.5,6.5,0,0,0,193.6736,316.3481Z" style="fill:#fdbb29"/></g></svg>