<svg xmlns="http://www.w3.org/2000/svg" viewBox="0 0 512 512"><title>Noodle</title><g id="Noodle"><path d="M143.0259,13.7721l354.07-4.6127a11.0009,11.0009,0,0,1,.2866,22c-.0783.001-.2086.0006-.2866,0l-354.07-4.6128a6.3878,6.3878,0,0,1,0-12.7745Z" style="fill:#6dcc82"/><path d="M143.0259,13.7721a6.3878,6.3878,0,0,0,0,12.7745l213.1593,2.7771a64.8729,64.8729,0,0,0,15.1222-18.5256Z" style="fill:#27af64"/><path d="M51.5622,202.7769,232.89,156.6952a49.5586,49.5586,0,0,1,24.4136,0l181.3229,46.0816L245.0944,267.7451Z" style="fill:#f9aa13"/><path d="M144.4173,108.4418h0a6.8184,6.8184,0,0,1-6.9348-6.7h0a4.5417,4.5417,0,0,0-4.0578-4.5134,4.4144,4.4144,0,0,0-4.7709,4.4754l.0032.19a6.8184,6.8184,0,0,1-6.7,6.9348h0a4.5417,4.5417,0,0,0-4.5134,4.0578,4.4145,4.4145,0,0,0,4.4754,4.7709l.19-.0033a6.8185,6.8185,0,0,1,6.9348,6.7h0a4.5417,4.5417,0,0,0,4.0578,4.5134,4.4144,4.4144,0,0,0,4.7709-4.4753l-.0032-.19a6.8184,6.8184,0,0,1,6.7-6.9347l.19-.0033a4.4145,4.4145,0,0,0,4.3086-4.9221A4.5417,4.5417,0,0,0,144.4173,108.4418Z" style="fill:#f9d129"/><path d="M187.51,77.24c0,6.41,2.77,9.35,8.07,14.41,5.67,5.41,12.71,12.14,12.71,25.27,0,13.12-7.04,19.85-12.71,25.26-5.3,5.06-8.07,8-8.07,14.41,0,6.42,2.77,9.36,8.07,14.42,5.67,5.41,12.71,12.14,12.71,25.27a29.5654,29.5654,0,0,1-2.09,11.31,118.8,118.8,0,0,0-16.41-1.6,13.8892,13.8892,0,0,0,3.5-9.71c0-6.42-2.76-9.36-8.07-14.42-5.66-5.41-12.71-12.14-12.71-25.27s7.05-19.85,12.71-25.26c5.31-5.06,8.07-8,8.07-14.41,0-6.42-2.76-9.36-8.07-14.42-5.66-5.41-12.71-12.13-12.71-25.26s7.05-19.86,12.71-25.27c5.31-5.06,8.07-8,8.07-14.41V8.84a7.5,7.5,0,0,1,15,0V37.56c0,13.13-7.04,19.86-12.71,25.26C190.28,67.89,187.51,70.83,187.51,77.24Z" style="fill:#ff4a45"/><path d="M224.31,77.24c0,6.41,2.77,9.35,8.07,14.41,5.67,5.41,12.71,12.14,12.71,25.27,0,13.12-7.04,19.85-12.71,25.26-5.3,5.06-8.07,8-8.07,14.41,0,6.42,2.77,9.36,8.07,14.42,5.67,5.41,12.71,12.14,12.71,25.27,0,9.85-3.96,16.09-8.33,20.88a34.947,34.947,0,0,1-5.43-1.97,90.0345,90.0345,0,0,0-9.94-3.88c.21-.21.43-.42.64-.62,5.3-5.06,8.06-8,8.06-14.41,0-6.42-2.76-9.36-8.06-14.42-5.67-5.41-12.72-12.14-12.72-25.27s7.05-19.85,12.72-25.26c5.3-5.06,8.06-8,8.06-14.41,0-6.42-2.76-9.36-8.06-14.42-5.67-5.41-12.72-12.13-12.72-25.26s7.05-19.86,12.72-25.27c5.3-5.06,8.06-8,8.06-14.41V8.84a7.5,7.5,0,0,1,15,0V37.56c0,13.13-7.04,19.86-12.71,25.26C227.08,67.89,224.31,70.83,224.31,77.24Z" style="fill:#d13931"/><path d="M261.12,77.24c0,6.41,2.76,9.35,8.07,14.41,5.66,5.41,12.71,12.14,12.71,25.27,0,13.12-7.05,19.85-12.71,25.26-5.31,5.06-8.07,8-8.07,14.41,0,6.42,2.76,9.36,8.07,14.42,5.66,5.41,12.71,12.14,12.71,25.27a29.1286,29.1286,0,0,1-2.63,12.54,96.9258,96.9258,0,0,0-18.95,6.37,34.9418,34.9418,0,0,1-8.13,2.58,61.6865,61.6865,0,0,1,6.64-7.08c5.3-5.06,8.07-8,8.07-14.41,0-6.42-2.77-9.36-8.07-14.42-5.67-5.41-12.71-12.14-12.71-25.27s7.04-19.85,12.71-25.26c5.3-5.06,8.07-8,8.07-14.41,0-6.42-2.77-9.36-8.07-14.42-5.67-5.41-12.71-12.13-12.71-25.26s7.04-19.86,12.71-25.27c5.3-5.06,8.07-8,8.07-14.41V8.84a7.5,7.5,0,1,1,15,0V37.56c0,13.13-7.05,19.86-12.71,25.26C263.88,67.89,261.12,70.83,261.12,77.24Z" style="fill:#ff4a45"/><path d="M297.92,77.24c0,6.41,2.77,9.35,8.07,14.41,5.66,5.41,12.71,12.14,12.71,25.27,0,13.12-7.05,19.85-12.71,25.26-5.31,5.06-8.07,8-8.07,14.41,0,6.42,2.77,9.36,8.07,14.42,5.66,5.41,12.71,12.14,12.71,25.27a29.8769,29.8769,0,0,1-1.68,10.22c-3.79-.37-7.68-.56-11.64-.56-1.76,0-3.51.04-5.24.11a13.882,13.882,0,0,0,3.56-9.77c0-6.42-2.77-9.36-8.07-14.42-5.66-5.41-12.71-12.14-12.71-25.27s7.05-19.85,12.71-25.26c5.3-5.06,8.07-8,8.07-14.41,0-6.42-2.77-9.36-8.07-14.42-5.66-5.41-12.71-12.13-12.71-25.26s7.05-19.86,12.71-25.27c5.3-5.06,8.07-8,8.07-14.41V8.84a7.5,7.5,0,1,1,15,0V37.56c0,13.13-7.05,19.86-12.71,25.26C300.68,67.89,297.92,70.83,297.92,77.24Z" style="fill:#d13931"/><path d="M438.6254,202.7744,397.9875,436.2872a25.69,25.69,0,0,1-15.9428,19.51l-126.2013,49.39a29.5022,29.5022,0,0,1-10.7466,2.0275V267.7418Z" style="fill:#f9d129"/><path d="M245.0968,267.7418V507.2152a29.5167,29.5167,0,0,1-10.7577-2.0275l-126.19-49.39a25.668,25.668,0,0,1-15.9427-19.51L51.5572,202.7744Z" style="fill:#f9ea76"/><path d="M245.0944,267.7451l43.6378,61.4894a13.9671,13.9671,0,0,0,16.3113,4.988l154.6624-58.2274a13.967,13.967,0,0,0,7.4114-19.6278l-28.4908-53.59Z" style="fill:#f9ea76"/><path d="M245.0944,267.7451l-43.6378,61.4894a13.9671,13.9671,0,0,1-16.3113,4.988L30.4828,275.9951a13.967,13.967,0,0,1-7.4114-19.6278l28.4908-53.59Z" style="fill:#f9f4b4"/><path d="M245.0944,267.7451l-43.6378,61.4894a13.9671,13.9671,0,0,1-16.3113,4.988L30.4828,275.9951a13.967,13.967,0,0,1-7.4114-19.6278l28.4908-53.59Z" style="fill:#f9f4b4"/><path d="M245.09,267.74l-43.63,61.49a13.9674,13.9674,0,0,1-11.4,5.89,13.7912,13.7912,0,0,1-4.91-.9L66.68,289.63l2.19,12.57,112.4,42.32a24.9719,24.9719,0,0,0,29.16-8.92l34.67-48.86v-19Z" style="fill:#f9d129"/><path d="M438.63,202.77l-15.12,86.86-2.18,12.57L397.99,436.29a25.6907,25.6907,0,0,1-15.95,19.51l-126.2,49.39a29.4956,29.4956,0,0,1-10.74,2.03V415.26c35.3-13.46,72.25-41.11,100.2-84.43q4.695-7.275,9.04-15.16c14.64-26.59,26-58.3,32.12-95.38Z" style="fill:#f9aa13"/><path d="M245.0944,267.7451l43.6378,61.4894a13.9671,13.9671,0,0,0,16.3113,4.988l154.6624-58.2274a13.967,13.967,0,0,0,7.4114-19.6278l-28.4908-53.59Z" style="fill:#f9ea76"/><path d="M423.51,289.63l-69.17,26.04q-4.335,7.875-9.04,15.16l76.03-28.63,2.19-12.57Z" style="fill:#ff7400"/><path d="M354.34,315.67q-4.335,7.875-9.04,15.16l-36.37,13.69a24.9719,24.9719,0,0,1-29.16-8.92L245.1,286.74v-19h.01l43.63,61.49a13.9674,13.9674,0,0,0,11.4,5.89,13.7912,13.7912,0,0,0,4.91-.9Z" style="fill:#f9aa13"/><path d="M467.1173,256.3673l-28.4908-53.59L386.46,220.2892c-6.1184,37.0775-17.4732,68.7759-32.1147,95.3723l105.3611-39.6664A13.9669,13.9669,0,0,0,467.1173,256.3673Z" style="fill:#f9de4d"/><path d="M245.0968,507.2153v-91.956c-.136-.03-73.64-16.1155-136.9479,40.5381l126.19,49.39A29.5168,29.5168,0,0,0,245.0968,507.2153Z" style="fill:#f9d129"/><path d="M368,226.49,245.09,267.75l-121.83-40.9c13.7-12.62,36.81-20.91,63.02-20.91,16.86,0,32.44,3.43,45.05,9.25a34.7,34.7,0,0,0,28.99,0c12.62-5.82,28.19-9.25,45.06-9.25C331.33,205.94,354.25,214.07,368,226.49Z" style="fill:#d13931"/><path d="M305.38,205.94c-16.87,0-32.44,3.43-45.06,9.25a34.6753,34.6753,0,0,1-20.9818,2.548A77.7184,77.7184,0,0,0,272.3776,258.59L368,226.49C354.25,214.07,331.33,205.94,305.38,205.94Z" style="fill:#ff4a45"/><path d="M368,226.49a64.3182,64.3182,0,0,0-11-7.91L250.7618,254.2364a17.8244,17.8244,0,0,1-11.3434,0L134.12,218.89a63.4083,63.4083,0,0,0-10.86,7.96l121.83,40.9ZM292.91,333.12l.01-.01c-.2-.12-.39-.24-.58-.36C292.53,332.88,292.72,333,292.91,333.12Z" style="fill:#a8342c"/><path d="M379.7188,441.8752l-38.4195,14.4764a5.5139,5.5139,0,0,1-4.6006-9.9917l35.9775-19.78a8.4406,8.4406,0,1,1,8.1329,14.793A9.2577,9.2577,0,0,1,379.7188,441.8752Z" style="fill:#fff"/><circle cx="316.9637" cy="459.6111" r="7.4384" style="fill:#fff"/><path d="M143.4888,41.1165l354.2,21.1114A11.0009,11.0009,0,1,1,496.38,84.1908c-.078-.0046-.2077-.0145-.2852-.0208L142.563,53.8573a6.3877,6.3877,0,0,1,.9258-12.7408Z" style="fill:#6dcc82"/><path d="M508.0155,73.8639a11.001,11.001,0,0,0-10.3269-11.636L349.2849,53.3826c3.3173,3.6506,7.0408,9.6364,8.6409,18.9405L496.0943,84.17c.0775.0063.2072.0162.2852.0208A11.0009,11.0009,0,0,0,508.0155,73.8639Z" style="fill:#49b464"/><path d="M301.465,67.4819l-16.4995-1.4146a29.602,29.602,0,0,0-2.0373,10.8658l15.0171,1.2876c-.0154-.32-.0273-.6445-.0273-.9834A13.8851,13.8851,0,0,1,301.465,67.4819Z" style="fill:#97260d"/><path d="M195.5825,62.8242c1.3215-1.2615,2.7172-2.6008,4.0824-4.0708l-19.4572-1.6683a30.24,30.24,0,0,0-6.2,10.5088L189.9371,68.96A41.5577,41.5577,0,0,1,195.5825,62.8242Z" style="fill:#d13931"/><path d="M267.3912,64.56l-17.8056-1.5267A27.9729,27.9729,0,0,0,246.307,73.793l14.931,1.28C261.74,70.771,263.8249,68.083,267.3912,64.56Z" style="fill:#d13931"/><path d="M232.3838,62.8242c.3974-.3794.8024-.7674,1.2106-1.1616l-18.9317-1.6233A27.9047,27.9047,0,0,0,209.97,70.6775l15.1855,1.302C226.3422,68.735,228.7737,66.27,232.3838,62.8242Z" style="fill:#97260d"/></g></svg>