<svg xmlns="http://www.w3.org/2000/svg" viewBox="0 0 512 512"><title>Pancake_with_syrup</title><g id="Pancake_with_syrup"><path d="M432.78,454.59c8.37,5.35,13.24,11.76,13.24,18.66,0,18.7-35.73,33.85-79.82,33.85-44.08,0-79.82-15.15-79.82-33.85,0-6.2,3.95-12.02,10.83-17.01a5.52,5.52,0,0,0-1.72-9.8,125.1279,125.1279,0,0,1-28.21-11.35,55.593,55.593,0,0,1-13.48-10.4c-4.38-4.82-6.76-10.03-6.76-15.45a19.221,19.221,0,0,1,1.29-6.86c8.35-21.92,56.03-38.72,113.59-38.72,36.21,0,68.51,6.65,89.56,17.04.26.13.51.25.76.38a75.6846,75.6846,0,0,1,10.96,6.63c8.68,6.42,13.6,13.75,13.6,21.53,0,14.34-16.67,27.12-42.74,35.48A5.5083,5.5083,0,0,0,432.78,454.59Z" style="fill:#f08daa"/><path d="M390.04,334.2231v67.56a25.1291,25.1291,0,0,1-13.54-4.6l-197.39-139.84a25.091,25.091,0,0,1-10.58-20.46v-32.55a24.8973,24.8973,0,0,1,6.09-16.35l201.85,141.67A25.2487,25.2487,0,0,0,390.04,334.2231Z" style="fill:#f05d00"/><path d="M498.68,259.9432v67.56c0,30.85-40.45,57.97-101.56,73.53a24.3227,24.3227,0,0,1-7.08.75v-67.56a24.65,24.65,0,0,0,7.08-.76C458.22,317.8931,498.67,290.793,498.68,259.9432Z" style="fill:#ff9200"/><path d="M498.68,259.93v.01c-.01,30.8493-40.4609,57.95-101.558,73.5251a25.1639,25.1639,0,0,1-20.6564-3.8086L174.6226,187.979A25.146,25.146,0,0,1,189.506,179.6a525.4084,525.4084,0,0,1,87.6468-7.1159C399.4974,172.4841,498.68,211.6419,498.68,259.93Z" style="fill:#ff7400"/><path d="M47.74,317.05a242.9767,242.9767,0,0,0-30.61,37.46,37.7608,37.7608,0,0,1-4.16-16.95V270C12.98,287.32,25.74,303.46,47.74,317.05Z" style="fill:#ff9200"/><path d="M343.11,359.27v33.9a25.1228,25.1228,0,0,1-20.97,24.74,525.3189,525.3189,0,0,1-87.63,7.11c-107.66,0-197.39-30.32-217.38-70.51a242.9767,242.9767,0,0,1,30.61-37.46c39.36,24.29,108.3,40.4,186.77,40.4,38.13,0,74.02-3.81,105.35-10.5A24.8042,24.8042,0,0,1,343.11,359.27Z" style="fill:#fdbb29"/><path d="M339.8636,346.9457c-31.33,6.6951-67.221,10.5037-105.3566,10.5037-122.3346,0-221.5273-39.148-221.5373-87.4463v-.01q0-.7216.03-1.4433c1.2428-30.2478,41.4029-56.7673,101.588-72.1018a24.9994,24.9994,0,0,1,20.5361,3.7986l197.323,138.5009A24.6648,24.6648,0,0,1,339.8636,346.9457Z" style="fill:#ff7400"/><path d="M438.7507,61.1133h0a6.8184,6.8184,0,0,1-6.9347-6.7h0A4.5418,4.5418,0,0,0,427.7582,49.9a4.4145,4.4145,0,0,0-4.771,4.4754l.0033.19a6.8184,6.8184,0,0,1-6.7,6.9348h0a4.5417,4.5417,0,0,0-4.5134,4.0578,4.4144,4.4144,0,0,0,4.4754,4.7709l.19-.0033a6.8185,6.8185,0,0,1,6.9348,6.7h0a4.5417,4.5417,0,0,0,4.0578,4.5134,4.4145,4.4145,0,0,0,4.7709-4.4754l-.0033-.19a6.8185,6.8185,0,0,1,6.7-6.9348l.19-.0033a4.4144,4.4144,0,0,0,4.3086-4.9221A4.5418,4.5418,0,0,0,438.7507,61.1133Z" style="fill:#f9d129"/><path d="M309.1155,403.6877c-.6375.1558-1.0437.2327-1.5343.3313l-1.3917.2622c-.917.162-1.824.3188-2.7251.4531-1.8049.2821-3.5928.5162-5.3792.7238-3.5707.416-7.1252.7083-10.6725.9231-3.5486.18-7.0868.3183-10.6194.32-3.5313.03-7.0552-.0623-10.5678-.1928a5.5109,5.5109,0,0,1-.3758-10.9873l.0912-.0091c3.3245-.3513,6.6365-.7361,9.9259-1.2358,3.2924-.4722,6.557-1.0728,9.8-1.7046,3.2364-.6658,6.4475-1.3989,9.6026-2.2328,1.5766-.4158,3.143-.8539,4.6747-1.3243.77-.2294,1.5253-.4759,2.2693-.72l1.0935-.3739c.3363-.1189.7551-.2672.9382-.352a8.4864,8.4864,0,1,1,5.6221,15.9366Z" style="fill:#fff"/><circle cx="240.6909" cy="401.8045" r="7.4384" style="fill:#fff"/><path d="M498.68,176.9432v67.56c0,30.85-40.45,57.97-101.56,73.53a24.67,24.67,0,0,1-7.08.75v-67.56a24.65,24.65,0,0,0,7.08-.76C458.22,234.8931,498.67,207.793,498.68,176.9432Z" style="fill:#f9c729"/><path d="M390.04,251.2231v67.56a25.0585,25.0585,0,0,1-13.54-4.61l-197.39-139.83a25.0956,25.0956,0,0,1-10.58-20.47v-32.54a24.9236,24.9236,0,0,1,6.09-16.36l201.85,141.68A25.2487,25.2487,0,0,0,390.04,251.2231Z" style="fill:#f9aa13"/><path d="M497.47,186.09c-7.11,27.01-45.37,50.36-100.35,64.37a25.1238,25.1238,0,0,1-20.65-3.8l-108.99-76.5c20.28-14.97,55.03-30.42,108.77-24.28C439.84,153.15,478.45,173.19,497.47,186.09Z" style="fill:#f9ea76"/><path d="M498.68,176.93v.01a35.4868,35.4868,0,0,1-1.21,9.15c-19.02-12.9-57.63-32.94-121.22-40.21-53.74-6.14-88.49,9.31-108.77,24.28l-92.86-65.18a25.1358,25.1358,0,0,1,14.89-8.38,525.3266,525.3266,0,0,1,87.64-7.12C399.5,89.48,498.68,128.64,498.68,176.93Z" style="fill:#f9ea76"/><path d="M446.55,169.5409l25.356-9.2246a2.293,2.293,0,0,0,1.1712-3.37,49.7134,49.7134,0,0,0-4.2526-5.7047,2.2833,2.2833,0,0,0-2.5117-.6405l-37.2416,13.5485a4.7908,4.7908,0,0,1-4.3681-.5656L398.89,145.6789a4.79,4.79,0,0,1,1.0925-8.4382l25.89-9.4188a2.2974,2.2974,0,0,0,.0994-4.282q-4.5-1.8375-9.3118-3.5507a2.3264,2.3264,0,0,0-1.57.0051l-32.5857,11.8548a4.7909,4.7909,0,0,1-4.3683-.5656l-22.1685-15.3763a4.7907,4.7907,0,0,1,1.0924-8.4383h0a.9615.9615,0,0,0-.1779-1.854c-12.2976-1.8878-25.281-3.597-38.6389-4.4107a.9661.9661,0,0,0-.7665,1.6163,9.7942,9.7942,0,0,1,1.0056,1.2056,4.8,4.8,0,0,1-2.6365,6.6863l-24.6433,8.9653a4.79,4.79,0,0,1-4.368-.5655L262.5521,102.27a2.316,2.316,0,0,0-1.4637-.4075q-5.1781.3276-10.257.7681a2.299,2.299,0,0,0-1.1073,4.18l18.8346,13.0639a4.7906,4.7906,0,0,1-1.0925,8.4383L243.241,137.126a2.2965,2.2965,0,0,0-.5343,4.0377l6.44,4.52a2.2964,2.2964,0,0,0,2.1045.2784l33.6939-12.258a4.7909,4.7909,0,0,1,4.3683.5655l22.1685,15.3765a4.79,4.79,0,0,1-1.0925,8.4382l-24.56,8.935a2.2965,2.2965,0,0,0-.5343,4.0378l6.44,4.52a2.2966,2.2966,0,0,0,2.1046.2785l34.0288-12.38a4.79,4.79,0,0,1,4.368.5655L358.05,181.9462a4.79,4.79,0,0,1-1.0925,8.4382l-24.9233,9.0671a2.2965,2.2965,0,0,0-.5342,4.0378l6.44,4.52a2.2964,2.2964,0,0,0,2.1045.2784l34.392-12.5119a4.7909,4.7909,0,0,1,4.3683.5656l43.8566,30.42a2.3184,2.3184,0,0,0,2.1773.2458q3.65-1.4649,7.0933-3.0078a2.3,2.3,0,0,0,.37-3.9891l-35.2223-24.4306a4.7906,4.7906,0,0,1,1.0925-8.4384l24.643-8.965a4.79,4.79,0,0,1,4.3682.5656l35.0221,24.2917a2.2844,2.2844,0,0,0,2.8929-.2228,60.4435,60.4435,0,0,0,4.5969-5.0009,2.3018,2.3018,0,0,0-.4728-3.3473l-23.764-16.483A4.7906,4.7906,0,0,1,446.55,169.5409Zm-116.7939-20.657L307.588,133.5076a4.7907,4.7907,0,0,1,1.0925-8.4384l24.6432-8.9653a4.7905,4.7905,0,0,1,4.3681.5656L359.86,132.0459a4.7906,4.7906,0,0,1-1.0924,8.4383l-24.6432,8.9652A4.7907,4.7907,0,0,1,329.7565,148.8839Zm75.58,23.9L380.6929,181.75a4.7908,4.7908,0,0,1-4.3681-.5655l-25.814-17.9048a4.7906,4.7906,0,0,1,1.0925-8.4383l24.6431-8.9653a4.7907,4.7907,0,0,1,4.3682.5656l25.8139,17.9048A4.7906,4.7906,0,0,1,405.336,172.7844Z" style="fill:#f9d129"/><path d="M460.85,169.53c0,6.84-11.11,12.76-27.26,15.58a7.4714,7.4714,0,0,0-6.02,7.6v.07c0,11.98-29.39,21.69-65.65,21.69-3.55,0-7.03-.1-10.43-.27l-6,.29a15.1409,15.1409,0,0,0-14.4,15.12V254.8l-34.82-24.44V192.78c0-11.19,25.63-20.39,58.55-21.56.68-.03,1.66-.05,2.73-.06a7.2769,7.2769,0,0,0,6.77-4.82,4.6711,4.6711,0,0,1,.51-1.05c5.31-7.53,24.46-13.12,47.27-13.12C439.02,152.17,460.85,159.95,460.85,169.53Z" style="fill:#f08daa"/><path d="M151.16,268.05q-5.79,1.215-12,1.95c-32.96,3.9-59.94,19.23-81.08,37.47-28.31-14.7-45.11-33.03-45.11-52.91V187C12.98,223.66,70.12,255.05,151.16,268.05Z" style="fill:#f9ea76"/><path d="M343.11,276.27v33.9a25.1046,25.1046,0,0,1-20.97,24.73,525.2821,525.2821,0,0,1-87.63,7.12c-71.99,0-135.97-13.56-176.43-34.55C79.22,289.23,106.2,273.9,139.16,270q6.21-.735,12-1.95a529.15,529.15,0,0,0,83.35,6.4c38.13,0,74.02-3.81,105.35-10.51A24.87,24.87,0,0,1,343.11,276.27Z" style="fill:#f9d129"/><path d="M244.26,193.85c-14.2,27.1-42.26,63.63-93.1,74.2C70.12,255.05,12.98,223.66,12.97,187v-.01q0-.72.03-1.44c1.24-30.25,41.4-56.77,101.59-72.1a24.965,24.965,0,0,1,20.53,3.8Z" style="fill:#f9f4b4"/><path d="M339.86,263.94c-31.33,6.7-67.22,10.51-105.35,10.51a529.15,529.15,0,0,1-83.35-6.4c50.84-10.57,78.9-47.1,93.1-74.2l88.19,61.9A24.6718,24.6718,0,0,1,339.86,263.94Z" style="fill:#f9ea76"/><path d="M226.5633,232.64a4.7469,4.7469,0,0,1,1.2079-8.2714l22.2993-8.1124a3.8783,3.8783,0,0,0,1.1456-6.6334l-2.3675-1.9578a3.8783,3.8783,0,0,0-3.7429-.6751l-33.7342,11.7066a4.7471,4.7471,0,0,1-4.4535-.65L182.4912,199.9a4.7467,4.7467,0,0,1,1.2078-8.2712l21.4206-7.3433a3.8783,3.8783,0,0,0,.97-6.8431l-3.0662-2.1522a3.8785,3.8785,0,0,0-3.4968-.49l-32.2277,11.1568a4.7471,4.7471,0,0,1-4.4535-.65l-20.9768-15.583a4.7468,4.7468,0,0,1,1.2078-8.2713l19.8466-6.78a3.8783,3.8783,0,0,0,.9744-6.8445l-3.0593-2.1473a3.8786,3.8786,0,0,0-3.4941-.4915L126.6771,155.78a4.7466,4.7466,0,0,1-4.4535-.65L97.2,135.3919a3.8864,3.8864,0,0,0-3.7592-.5938q-1.9071.7134-3.7628,1.4474a3.8823,3.8823,0,0,0-1.0158,6.6442l16.2253,12.9855a4.7468,4.7468,0,0,1-1.2078,8.2713L77.657,173.6133a4.7468,4.7468,0,0,1-4.4535-.65L53.9249,158.6416a3.88,3.88,0,0,0-4.9155.2307q-1.2937,1.1754-2.4858,2.3718a3.8807,3.8807,0,0,0,.4421,5.8522l8.9014,6.6125a4.7468,4.7468,0,0,1-1.2079,8.2712L36.57,188.561a3.9162,3.9162,0,0,0-2.4931,4.3459,31.0182,31.0182,0,0,0,.7893,3.51,3.8827,3.8827,0,0,0,5.06,2.5621l31.1329-11.3263a4.747,4.747,0,0,1,4.4536.65l20.9765,15.5827a4.7468,4.7468,0,0,1-1.2078,8.2712l-28.5333,10.38a3.88,3.88,0,0,0-.6182,7.0068q1.8552,1.069,3.8028,2.1108a3.8784,3.8784,0,0,0,3.1494.2167l38.599-14.0424a4.7471,4.7471,0,0,1,4.4535.65l24.4269,18.146a4.7468,4.7468,0,0,1-1.2078,8.2712l-3.7634,1.3692a3.8809,3.8809,0,0,0,.5749,7.4544q3.0487.6056,6.1607,1.168a3.9192,3.9192,0,0,0,2.0319-.1736l11.3955-4.1457a4.747,4.747,0,0,1,4.4536.65l9.52,7.0722a3.8911,3.8911,0,0,0,1.9153.75q3.072.3234,6.184.607a3.8839,3.8839,0,0,0,2.6673-6.9827l-2.95-2.1917a4.7468,4.7468,0,0,1,1.2078-8.2712l26.0225-9.467a4.747,4.747,0,0,1,4.4536.65l35.7251,26.539a3.8988,3.8988,0,0,0,2.5519.762q2.4813-.1473,4.9409-.32a3.8807,3.8807,0,0,0,2.0373-6.9866Zm-112.7378-29.5-20.9767-15.583a4.7468,4.7468,0,0,1,1.2078-8.2712l26.0223-9.4669a4.7465,4.7465,0,0,1,4.4536.65l20.9768,15.5829a4.7469,4.7469,0,0,1-1.2079,8.2713L118.279,203.79A4.7468,4.7468,0,0,1,113.8255,203.14Zm74.5482,23.9231-26.0225,9.467a4.7468,4.7468,0,0,1-4.4535-.65l-24.4269-18.146a4.7468,4.7468,0,0,1,1.2078-8.2712l26.0225-9.467a4.7468,4.7468,0,0,1,4.4535.65l24.4269,18.146A4.7468,4.7468,0,0,1,188.3737,227.0629Z" style="fill:#f9d129"/><path d="M152.4758,132.4906c-28.9848,0-53.7883,5.9017-64.0254,14.2658a16.402,16.402,0,0,1-9.8991,3.8224c-.7407.02-1.4061.0436-1.9.07-19.889,1.07-35.0708,6.7718-35.0708,13.6456,0,7.6356,18.7344,13.8256,41.8446,13.8256a105.0812,105.0812,0,0,0,26.0543-3.0075,16.9189,16.9189,0,0,1,7.6058-.219,185.1057,185.1057,0,0,0,35.3909,3.2265c20.1368,0,38.25-2.8506,50.87-7.3946a10.9359,10.9359,0,0,1,9.9686,1.3981l8.2129,5.7679V155.3053C221.5268,142.705,190.6116,132.4906,152.4758,132.4906Z" style="fill:#f08daa"/><ellipse cx="327.5828" cy="141.999" rx="34.3387" ry="11.9273" style="fill:#f08daa"/><path d="M397.12,401.03a24.17,24.17,0,0,1-6.07.77c-.33,0-.67,0-1.01-.02a25.1286,25.1286,0,0,1-13.54-4.6l-33.39-23.65v19.64a25.1228,25.1228,0,0,1-20.97,24.74,513.2873,513.2873,0,0,1-68.34,6.78,55.593,55.593,0,0,0,13.48,10.4,509.9233,509.9233,0,0,0,56.71-6.34,36.0352,36.0352,0,0,0,30.08-33.97l16.07,11.38a35.9805,35.9805,0,0,0,19.47,6.61q.72.03,1.44.03a35.496,35.496,0,0,0,8.8-1.11c24.6-6.26,46.17-14.45,63.35-23.98a75.6846,75.6846,0,0,0-10.96-6.63C436.88,388.9,418.24,395.65,397.12,401.03Z" style="fill:#e84679"/></g></svg>