<svg id="Pie" xmlns="http://www.w3.org/2000/svg" viewBox="0 0 512 512"><title>Pie</title><path d="M216.116,373.753a50.7111,50.7111,0,0,1-30.43-10.0848,14.7531,14.7531,0,0,0-17.6811,0,50.9516,50.9516,0,0,1-60.8595,0,14.7531,14.7531,0,0,0-17.6812,0,50.6936,50.6936,0,0,1-20.7468,9.1558,122.2679,122.2679,0,0,1,21.9889,31.2478,202.9455,202.9455,0,0,0,37.8869,3.4688c46.2842,0,85.2987-14.69,97.3411-34.7419A51.16,51.16,0,0,1,216.116,373.753Z" style="fill:#f9ea76"/><path d="M421.3083,363.6682a14.753,14.753,0,0,0-17.6811,0,50.9516,50.9516,0,0,1-60.86,0,14.7531,14.7531,0,0,0-17.6812,0,50.9517,50.9517,0,0,1-60.86,0,14.7531,14.7531,0,0,0-17.6812,0,50.9517,50.9517,0,0,1-60.86,0,14.7531,14.7531,0,0,0-17.6811,0,50.9516,50.9516,0,0,1-60.8595,0,14.7531,14.7531,0,0,0-17.6812,0,50.6937,50.6937,0,0,1-20.7407,9.1546c29.7213,29.8921,37.3581,76.0056,37.9833,80.04.4321,21.6094,66.816,39.0943,148.6573,39.0943,81.4757,0,147.6268-17.3289,148.6464-38.8045h.0219s6.9312-49.0443,38.034-80.3265A50.6928,50.6928,0,0,1,421.3083,363.6682Z" style="fill:#f9db54"/><path d="M421.3083,363.6682a14.753,14.753,0,0,0-17.6811,0,50.696,50.696,0,0,1-20.624,9.1329c-33.93,43.7008-116.6492,111.5887-282.1239,56.3547a166.412,166.412,0,0,1,5.8276,23.707c.4321,21.6094,66.816,39.0943,148.6573,39.0943,81.4757,0,147.6268-17.3289,148.6464-38.8045h.0219s6.9312-49.0443,38.034-80.3265A50.6928,50.6928,0,0,1,421.3083,363.6682Z" style="fill:#f9d129"/><path d="M216.116,373.753a50.7111,50.7111,0,0,1-30.43-10.0848,14.7531,14.7531,0,0,0-17.6811,0,50.9516,50.9516,0,0,1-60.8595,0,14.7531,14.7531,0,0,0-17.6812,0,50.6936,50.6936,0,0,1-20.7468,9.1558,122.2679,122.2679,0,0,1,21.9889,31.2478,202.9455,202.9455,0,0,0,37.8869,3.4688c46.2842,0,85.2987-14.69,97.3411-34.7419A51.16,51.16,0,0,1,216.116,373.753Z" style="fill:#f9ea76"/><path d="M383.0063,372.8008c-2.97,3.83-6.32,7.85-10.07,11.95a61.3914,61.3914,0,0,1-36.75-12.27,3.78,3.78,0,0,0-4.52,0,61.9512,61.9512,0,0,1-74.02,0,3.78,3.78,0,0,0-4.52,0,61.4283,61.4283,0,0,1-37.01,12.27c-.43,0-.87,0-1.3-.01a43.8763,43.8763,0,0,0,11.12-11.94,50.5968,50.5968,0,0,0,20.61-9.13,14.76,14.76,0,0,1,17.68,0,50.9716,50.9716,0,0,0,60.86,0,14.76,14.76,0,0,1,17.68,0,51.0066,51.0066,0,0,0,40.24,9.13Z" style="fill:#f9a213"/><path d="M225.9364,372.8008a43.8763,43.8763,0,0,1-11.12,11.94,61.4454,61.4454,0,0,1-35.71-12.26,3.78,3.78,0,0,0-4.52,0,61.9514,61.9514,0,0,1-74.02,0,3.78,3.78,0,0,0-4.52,0,61.5778,61.5778,0,0,1-19.13,9.65,105.3248,105.3248,0,0,0-8.19-9.31,50.7071,50.7071,0,0,0,20.74-9.15,14.76,14.76,0,0,1,17.68,0,50.9718,50.9718,0,0,0,60.86,0,14.76,14.76,0,0,1,17.68,0,51.0063,51.0063,0,0,0,40.24,9.13Z" style="fill:#f9d129"/><path d="M442.0662,372.8308c-.49.49-.97.98-1.44,1.48-1.43,1.5-2.8,3.03-4.13,4.6-.41.48-.82.98-1.22,1.47-.48.59-.95,1.17-1.41,1.76a61.6553,61.6553,0,0,1-19.14-9.66,3.78,3.78,0,0,0-4.52,0,61.4283,61.4283,0,0,1-37.01,12.27h-.26c3.75-4.1,7.1-8.12,10.07-11.95a50.5785,50.5785,0,0,0,20.62-9.13,14.76,14.76,0,0,1,17.68,0,50.7576,50.7576,0,0,0,20.76,9.16Z" style="fill:#ff7400"/><path d="M502.5333,318.8973a51.123,51.123,0,0,0-37.4739-45.2611q-.05-.0136-.1033-.0274a36.2629,36.2629,0,0,1-23.8087-19.6851c-21.1406-45.19-68.6874-105.4934-172.8728-112.43a158.57,158.57,0,0,0-21.0626.0012C143.3261,148.4179,95.7626,208.4,74.537,253.5439a35.8023,35.8023,0,0,1-27.2811,20.0645,28.6818,28.6818,0,0,0-4.4644.9188,50.9428,50.9428,0,1,0,46.6728,89.141,14.753,14.753,0,0,1,17.6811,0,50.9516,50.9516,0,0,0,60.86,0,14.7531,14.7531,0,0,1,17.6812,0,50.9517,50.9517,0,0,0,60.86,0,14.7531,14.7531,0,0,1,17.6812,0,50.9517,50.9517,0,0,0,60.86,0,14.753,14.753,0,0,1,17.6811,0,50.9517,50.9517,0,0,0,60.86,0,14.753,14.753,0,0,1,17.6811,0,50.9469,50.9469,0,0,0,81.225-44.7709Z" style="fill:#b44031"/><path d="M247.212,141.4952c-88.8814,5.9228-136.5309,50.684-161.7352,91.7631a378.4419,378.4419,0,0,0,41.7952,2.28c87.5,0,158.4324-28.9606,158.4324-64.6854,0-10.5634-6.2046-20.5346-17.2024-29.3414-.0764-.0051-.151-.012-.2275-.017A158.5348,158.5348,0,0,0,247.212,141.4952Z" style="fill:#cb574c"/><path d="M465.0594,273.6363c-.0337-.0093-.0681-.0183-.1033-.0276a36.2624,36.2624,0,0,1-23.8087-19.6851c-12.21-26.1-33.2291-57.24-68.88-80.2294,29.11,44.5311-14.2683,109.3339-112.9675,114.3216-133.18,6.73-165.762,73.5084-165.762,73.5084h0a14.7463,14.7463,0,0,1,13.6076,2.144,50.9516,50.9516,0,0,0,60.86,0,14.7531,14.7531,0,0,1,17.6811,0,50.9517,50.9517,0,0,0,60.86,0,14.7531,14.7531,0,0,1,17.6812,0,50.9517,50.9517,0,0,0,60.86,0,14.7531,14.7531,0,0,1,17.6812,0,50.9516,50.9516,0,0,0,60.86,0,14.753,14.753,0,0,1,17.6811,0,50.9454,50.9454,0,1,0,43.7511-90.0319Z" style="fill:#97260d"/><path d="M365.1565,201.0762c.4492.2109.6167.3139.8962.46.2669.141.47.2659.7073.4.4692.2641.89.5292,1.3206.7944.8576.533,1.6716,1.0716,2.4709,1.6267,1.593,1.1089,3.1245,2.2495,4.5857,3.451a92.9748,92.9748,0,0,1,8.2517,7.5983c1.251,1.3677,2.5427,2.69,3.709,4.1171l1.7756,2.11,1.6858,2.1733c1.149,1.4252,2.15,2.9582,3.2151,4.4332,1.03,1.5012,1.98,3.0525,2.9656,4.5708a5.4986,5.4986,0,0,1-8.7429,6.6228l-.2422-.2768c-1.075-1.2239-2.1062-2.4761-3.2014-3.6668-1.1282-1.162-2.1851-2.3805-3.3677-3.4748A86.4312,86.4312,0,0,0,374,225.683a78.1343,78.1343,0,0,0-7.7513-5.324c-1.3213-.8046-2.6714-1.5315-4.01-2.2029-.667-.3337-1.3411-.65-1.992-.9331-.3252-.1391-.6562-.2879-.9577-.4-.1475-.0553-.323-.1324-.4458-.1706-.1092-.0345-.3269-.12-.2715-.0791a8.4192,8.4192,0,0,1,6.5847-15.4975Z" style="fill:#fff"/><circle cx="407.0151" cy="256.6561" r="7.4384" style="fill:#fff"/><path d="M209.792,210.1055a5.5,5.5,0,0,1-3.6758-9.5928L230.3,178.8057a5.5,5.5,0,0,1,7.3477,8.1855l-24.1836,21.707A5.4773,5.4773,0,0,1,209.792,210.1055Z" style="fill:#f6896b"/><path d="M287.7246,226.2529a5.5,5.5,0,0,1-3.6758-9.5927l23.42-21.0215a5.5,5.5,0,1,1,7.3476,8.1855l-23.42,21.0215A5.4772,5.4772,0,0,1,287.7246,226.2529Z" style="fill:#f6896b"/><path d="M213.498,248.6406a5.5,5.5,0,0,1-3.6757-9.5927L282.77,173.5684a5.5,5.5,0,0,1,7.3477,8.1855l-72.9473,65.48A5.4753,5.4753,0,0,1,213.498,248.6406Z" style="fill:#f6896b"/><path d="M256.25,254.3691a5.5,5.5,0,0,1-3.71-9.5625l13.6016-12.416a5.5,5.5,0,1,1,7.416,8.125l-13.6015,12.416A5.4794,5.4794,0,0,1,256.25,254.3691Z" style="fill:#f6896b"/><path d="M250.3,115.4883a6,6,0,0,1-6-6c0-10.2754,6.458-15.624,11.1729-19.5293,4.4863-3.7158,6.8271-5.86,6.8271-10.2871s-2.3408-6.5713-6.8271-10.2871C250.7578,65.48,244.3,60.1309,244.3,49.8555s6.458-15.6221,11.1729-19.5274C259.959,26.6133,262.3,24.4688,262.3,20.043a6,6,0,0,1,12,0c0,10.2744-6.458,15.622-11.1728,19.5273C258.6406,43.2852,256.3,45.43,256.3,49.8555s2.3408,6.5713,6.8272,10.2871C267.8418,64.0479,274.3,69.3965,274.3,79.6719s-6.458,15.624-11.1728,19.5293c-4.4864,3.7158-6.8272,5.86-6.8272,10.2871A6,6,0,0,1,250.3,115.4883Z" style="fill:#ffc0b1"/><path d="M290.0273,115.4883a6,6,0,0,1-6-6c0-10.2754,6.4581-15.624,11.1729-19.5293,4.4863-3.7158,6.8271-5.86,6.8271-10.2871s-2.3408-6.5713-6.8271-10.2871c-4.7148-3.9053-11.1729-9.2539-11.1729-19.5293S290.4854,34.2334,295.2,30.3281c4.4863-3.7148,6.8271-5.8593,6.8271-10.2851a6,6,0,0,1,12,0c0,10.2744-6.458,15.622-11.1728,19.5273-4.4863,3.7149-6.8272,5.8594-6.8272,10.2852s2.3409,6.5713,6.8272,10.2871c4.7148,3.9053,11.1728,9.2539,11.1728,19.5293s-6.458,15.624-11.1728,19.5293c-4.4863,3.7158-6.8272,5.86-6.8272,10.2871A6,6,0,0,1,290.0273,115.4883Z" style="fill:#ffc0b1"/><path d="M210.5732,115.4883a6,6,0,0,1-6-6c0-10.2754,6.458-15.624,11.1729-19.5293,4.4863-3.7158,6.8271-5.86,6.8271-10.2871s-2.3408-6.5713-6.8271-10.2871c-4.7149-3.9053-11.1729-9.2539-11.1729-19.5293s6.458-15.6221,11.1729-19.5274c4.4863-3.7148,6.8271-5.8593,6.8271-10.2851a6,6,0,0,1,12,0c0,10.2744-6.458,15.622-11.1728,19.5273-4.4863,3.7149-6.8272,5.8594-6.8272,10.2852s2.3409,6.5713,6.8272,10.2871c4.7148,3.9053,11.1728,9.2539,11.1728,19.5293s-6.458,15.624-11.1728,19.5293c-4.4863,3.7158-6.8272,5.86-6.8272,10.2871A6,6,0,0,1,210.5732,115.4883Z" style="fill:#ffc0b1"/></svg>