<svg xmlns="http://www.w3.org/2000/svg" viewBox="0 0 512 512"><title>Pizza</title><g id="Pizza"><path d="M462.05,267,267.52,328.54c1.75-10.57,6.87-26.94,21.74-32.74l3.5-1.14.03-.01,68.94-22.49,50.85-16.6a1.907,1.907,0,0,0,.17.13A53.917,53.917,0,0,0,462.05,267Z" style="fill:#ff9200"/><path d="M213.41,345.65l-73.93,23.39A73.9207,73.9207,0,0,0,91.7,415.98L76.59,460.96a11.6,11.6,0,0,1-11.71,7.99V445.83a113.93,113.93,0,0,1,5.49-34.46l4.5-12.83a79.3968,79.3968,0,0,1,50.3-49.22L172.16,334C193.28,329.14,205.9,335.69,213.41,345.65Z" style="fill:#ff9200"/><path d="M400.81,259.41l-39.08,12.75-68.94,22.49-.03.01-3.5,1.14c-22.65,8.84-22.67,42.2-22.67,42.2v41.6128a6.5851,6.5851,0,1,1-13.17,0V333s-1.42-10.53-7.82-10.53c-6.39,0-7.99,15.53-7.99,15.53V446.47a6.59,6.59,0,0,1-13.18,0V382.98c-.36-13.59-5.02-59.86-52.27-48.98l-46.99,15.32a79.3968,79.3968,0,0,0-50.3,49.22l-4.5,12.83a113.93,113.93,0,0,0-5.49,34.46V484.9a6.59,6.59,0,1,1-13.18,0v-8.83c.06-15.7-8.48-36.18-8.48-36.18L17.65,371.81A116.7514,116.7514,0,0,1,46.46,246.18l130.1-109.56a21.0487,21.0487,0,0,0,1.8-1.42,38.7588,38.7588,0,0,0,4.26-4.28,64.9293,64.9293,0,0,0,20.05,15.17,10.941,10.941,0,0,0,1.75.68c4.63,1.34,9.38,2.85,14.11,4.49,81.8,28.26,167.76,95.11,178.08,103.27A63.41,63.41,0,0,0,400.81,259.41Z" style="fill:#f9d129"/><path d="M105.02,280.11c66.3593,3.0146,204.54-25.8252,179.91-99-21.357-11.5083-44.0306-22.1221-66.3953-29.8481-4.7385-1.6439-9.4869-3.1567-14.1136-4.4962a11.0114,11.0114,0,0,1-1.7543-.6751,64.9858,64.9858,0,0,1-20.0423-15.1674h0a34.1393,34.1393,0,0,1-6.0645,5.7007L46.4612,246.1835A116.7547,116.7547,0,0,0,17.6482,371.813S38.66,277.0953,105.02,280.11Z" style="fill:#f9db54"/><path d="M185.521,332.355a59.658,59.658,0,0,0-13.3582,1.6409l-46.9891,15.3278a79.4,79.4,0,0,0-50.3058,49.2169L70.37,411.37a114.0852,114.0852,0,0,0-5.4919,34.4627v23.1118a11.6265,11.6265,0,0,0,11-6.2916v-16.82a104.1148,104.1148,0,0,1,4.8865-30.8637L85.2485,402.18a68.8,68.8,0,0,1,43.3365-42.3984l46.5048-15.17a48.47,48.47,0,0,1,10.4312-1.2566c6.8191,0,12.2007,1.9228,16.439,5.9241l11.45-3.6219C207.6332,338.0079,198.8623,332.355,185.521,332.355Z" style="fill:#f05d00"/><path d="M218.5345,151.2623c-4.7385-1.6439-9.4869-3.1567-14.1136-4.4962a11.0114,11.0114,0,0,1-1.7543-.6751,64.9858,64.9858,0,0,1-20.0423-15.1674h0a34.1393,34.1393,0,0,1-6.0645,5.7007l-75.3291,63.4365c15.8,13.9228,40.5432,22.8982,68.3784,22.8982,46.5323,0,84.4534-25.059,86.3019-56.4419A395.6725,395.6725,0,0,0,218.5345,151.2623Z" style="fill:#f9ea76"/><path d="M448.0261,268.8494a53.7957,53.7957,0,0,1-43.4736-22.0612l-.0025.0018s-2.0185-1.63-5.7231-4.4915c-4.0872,1.0952-8.58,2.3086-13.4238,3.6246,5.61,4.212,9.4782,7.2383,11.2094,8.6077a65.2178,65.2178,0,0,0,33.1849,22.6778l32.6159-10.3172A53.8944,53.8944,0,0,1,448.0261,268.8494Z" style="fill:#ff7000"/><path d="M486.06,176.82a53.6977,53.6977,0,0,0-38.03-15.73,53.8616,53.8616,0,0,0-43.5,85.69c-1.43-1.16-93.44-75.18-182.39-105.91q-7.35-2.55-14.66-4.67A53.8913,53.8913,0,0,1,245.15,35.72v-.01a.0773.0773,0,0,1,.03.01C247.37,36.08,385.44,59.34,486.06,176.82Z" style="fill:#f9a213"/><path d="M501.91,214.97a53.8925,53.8925,0,0,1-103.52,21,53.9039,53.9039,0,0,0,79.99-65.52A53.826,53.826,0,0,1,501.91,214.97Z" style="fill:#fed987"/><path d="M482.62,191.44a53.8925,53.8925,0,0,1-84.23,44.53,53.8923,53.8923,0,0,1,79.99-65.52A53.7121,53.7121,0,0,1,482.62,191.44Z" style="fill:#fee5ae"/><ellipse cx="261.5555" cy="235.3279" rx="34.6083" ry="20.2978" style="fill:#ff6965"/><path d="M261.5554,255.6257c-19.1136,0-34.6083-9.0877-34.6083-20.2978V243.77c0,11.21,15.4947,20.2979,34.6083,20.2979s34.6084-9.0876,34.6084-20.2979v-8.4424C296.1638,246.538,280.6691,255.6257,261.5554,255.6257Z" style="fill:#ff4a45"/><ellipse cx="103.0995" cy="204.4145" rx="34.6083" ry="20.2978" style="fill:#ff6965"/><path d="M103.1,224.7123c-19.1137,0-34.6083-9.0876-34.6083-20.2978v8.4424c0,11.21,15.4946,20.2979,34.6083,20.2979s34.6083-9.0876,34.6083-20.2979v-8.4424C137.7078,215.6247,122.2132,224.7123,103.1,224.7123Z" style="fill:#ff4a45"/><ellipse cx="113.5173" cy="285.6224" rx="34.6083" ry="20.2978" style="fill:#ff6965"/><path d="M113.5173,305.92c-19.1137,0-34.6084-9.0876-34.6084-20.2978v8.4425c0,11.21,15.4947,20.2978,34.6084,20.2978s34.6083-9.0876,34.6083-20.2978v-8.4425C148.1256,296.8326,132.6309,305.92,113.5173,305.92Z" style="fill:#ff4a45"/><path d="M232.4512,297.7559h-25.793a5,5,0,1,1,0-10h25.793a5,5,0,0,1,0,10Z" style="fill:#4aab69"/><path d="M57.4248,259.38A5.0029,5.0029,0,0,1,52.63,255.791l-6.6524-22.5981a5,5,0,0,1,9.5938-2.8242l6.6523,22.5981a5.0051,5.0051,0,0,1-4.7988,6.4136Z" style="fill:#4aab69"/><path d="M192.4141,196.4365c-15.6875,0-27.0733-6.4414-27.0733-15.3164s11.3858-15.3164,27.0733-15.3164,27.0722,6.4414,27.0722,15.3164S208.1006,196.4365,192.4141,196.4365Zm0-20.6328c-11.1739,0-16.8789,4.0855-17.0743,5.3262.1963,1.2207,5.9014,5.3066,17.0743,5.3066,11.1445,0,16.8476-4.0644,17.0713-5.3164C209.2627,179.8682,203.5605,175.8037,192.4141,175.8037Z" style="fill:#4aab69"/><path d="M54.9561,373.3447c-4.6329,0-8.4034-1.5815-10.6192-4.8061-1.5771-2.2949-3.543-7.3,1.0088-15.04a42.9167,42.9167,0,0,1,12.6328-12.9145,42.9086,42.9086,0,0,1,16.5869-7.1587c8.8526-1.4741,12.8233,2.1577,14.3994,4.4526s3.542,7.3008-1.0087,15.04a42.9171,42.9171,0,0,1-12.6329,12.9145C68.0938,370.7993,60.832,373.3442,54.9561,373.3447ZM78.5635,343.09c-2.8994,0-8.3535,1.2237-14.9229,5.7369-9.209,6.3266-11.5976,12.9238-11.0566,14.0571.8535.8979,7.8652,1.0356,17.0771-5.2935,9.1866-6.3115,11.586-12.8911,11.0606-14.0488A3.5114,3.5114,0,0,0,78.5635,343.09Z" style="fill:#4aab69"/><path d="M53.6874,311.97c0,2.7115-4.6874,4.9095-10.47,4.9095s-10.47-2.198-10.47-4.9095,4.6875-8.604,10.47-8.604S53.6874,309.2587,53.6874,311.97Z" style="fill:#b44031"/><path d="M343.4335,255.394c0,2.7114-4.6875,4.9095-10.47,4.9095s-10.47-2.1981-10.47-4.9095,4.6874-8.604,10.47-8.604S343.4335,252.6825,343.4335,255.394Z" style="fill:#b44031"/><path d="M180.8108,248.6372c0,2.7115-4.6875,4.9095-10.47,4.9095s-10.47-2.198-10.47-4.9095,4.6874-8.604,10.47-8.604S180.8108,245.9258,180.8108,248.6372Z" style="fill:#bd5b31"/><path d="M256.49,154.67c-.04,4.91-.27,9.38-.43,11.92a395.6144,395.6144,0,0,0-37.53-15.33c-4.73-1.64-9.48-3.15-14.11-4.49a10.941,10.941,0,0,1-1.75-.68,64.9293,64.9293,0,0,1-20.05-15.17,42.0134,42.0134,0,0,0,6.23-9.66,54.0294,54.0294,0,0,0,18.63,14.94q7.305,2.115,14.66,4.67C233.6,144.83,245.12,149.51,256.49,154.67Z" style="fill:#ffa200"/><path d="M284.94,181.12c-9.42-5.08-19.09-9.98-28.88-14.53.16-2.54.39-7.01.43-11.92,8.22,3.72,16.36,7.7,24.35,11.83Z" style="fill:#ff9500"/><path d="M412.5956,255.5675l-11.81,3.85a63.4545,63.4545,0,0,1-4.2-4.88c-7.5-5.93-54.92-42.84-111.67-73.41l-4.1-14.62c67.33,34.74,123.71,80.29,123.71,80.29a54.42,54.42,0,0,0,8.06,8.76Z" style="fill:#ff8100"/><path d="M245.6047,322.47c-6.3906,0-7.9976,15.5327-7.9976,15.533l15.8087-5.0007S251.9952,322.47,245.6047,322.47Z" style="fill:#f05d00"/><polygon points="40.339 432.227 40.339 432.227 40.339 432.228 40.339 432.227" style="fill:#ff9200"/><path d="M335.1074,65.1858C284.5344,42.3505,246.3259,35.9093,245.18,35.72a.0773.0773,0,0,0-.03-.01v.01A53.89,53.89,0,0,0,207.48,136.2q7.305,2.115,14.66,4.67c11.3334,3.9152,22.716,8.5349,33.955,13.6155a67.4133,67.4133,0,0,1-1.5213-14.1705C254.5737,100.0026,290.2676,67.1015,335.1074,65.1858Z" style="fill:#fdbb29"/><path d="M400.7855,259.4175,361.73,272.16l-68.86,22.47-.08.02-.03.01-3.5,1.14c-14.87,5.8-19.98,22.18-21.74,32.74l12.11-3.83c1.97-7.29,5.82-15.47,13.38-18.56l2.47-.81,19.24-6.27,29.45-9.61,20.97-6.84,39.08-12.75,6.26-2.04A65.59,65.59,0,0,1,400.7855,259.4175Z" style="fill:#f05d00"/><path d="M229.6416,59.1114c.0535-.0269-3.0106.8426-3.6636,1.0885a30.827,30.827,0,0,0-3.8094,1.7563,25.2531,25.2531,0,0,0-6.47,4.9853,22.8408,22.8408,0,0,0-2.4218,3.2,23.2488,23.2488,0,0,0-1.763,3.6537,26.0628,26.0628,0,0,0-1.4492,8.4039l-.0015.1007a4.578,4.578,0,0,1-9.1291.424,35.9079,35.9079,0,0,1,.619-11.7745,31.3609,31.3609,0,0,1,5.0515-11.1652,37.3125,37.3125,0,0,1,8.6227-8.5662,43.8276,43.8276,0,0,1,5.1035-3.1624c.8881-.4666,1.7883-.91,2.7246-1.319.4675-.2066,2.6675-1.0565,3.1315-1.1922a7,7,0,1,1,3.4547,13.5671Z" style="fill:#fff"/><circle cx="207.4735" cy="104.9211" r="7.0111" style="fill:#fff"/><path d="M501.91,214.97a53.8925,53.8925,0,0,1-103.52,21,53.9039,53.9039,0,0,0,79.99-65.52A53.826,53.826,0,0,1,501.91,214.97Z" style="fill:#fed987"/><path d="M482.62,191.44a53.8925,53.8925,0,0,1-84.23,44.53,53.8923,53.8923,0,0,1,79.99-65.52A53.7121,53.7121,0,0,1,482.62,191.44Z" style="fill:#fee5ae"/></g></svg>