<svg xmlns="http://www.w3.org/2000/svg" viewBox="0 0 512 512"><title>Pretzel</title><g id="Pretzel"><path d="M482.6,387.92a544.8764,544.8764,0,0,1-59.43-12.21q8.16-8.64,15.58-18.11c31.69-40.4,49.86-88.58,49.86-132.16.04-49.8-15.16-93.34-43.95-125.92A151.7575,151.7575,0,0,0,337.78,48.01c-7.22-.65-44.17-2.89-81.32,15.09C218.66,45.25,181.24,47.41,174.3,48A151.7514,151.7514,0,0,0,67.34,99.52c-28.79,32.58-43.99,76.13-43.95,125.9,0,44.85,20.55,94.46,56.38,136.11q6.06,7.035,12.53,13.61A567.7632,567.7632,0,0,1,29.51,387.9a27.5029,27.5029,0,0,0,6.83,54.58c2.3251-.2919,45.73-5.8736,98.877-22.3176q2.7351-.8462,5.5031-1.731a10.7873,10.7873,0,0,1,8.6329.9343l.0039.0022c2.32,1.39.7031.4221,3.0629,1.7321,24.2015,12.8719,107.4847,48.4675,215.2291-1.49a10.7065,10.7065,0,0,1,7.7647-.4539c53.6282,17.15,97.8044,23.0115,100.1363,23.3043a27.4969,27.4969,0,1,0,7.05-54.54ZM256.96,129.88c18.89,19.63,28.28,49.98,27.91,90.33-.24,25.45-9.15,48.16-27.19,69.09-18.12-21.13-27.07-44.05-27.31-69.76C230,179.55,238.95,149.43,256.96,129.88ZM153.07,355.78a218.7841,218.7841,0,0,1-31.6-30.13C94.09,293.84,78.39,257.31,78.39,225.4c-.03-36.16,10.4-67.09,30.17-89.45a97.1883,97.1883,0,0,1,68.91-33.04l.85-.04.85-.09c.09-.01,2.33-.21,6.09-.21a121.8655,121.8655,0,0,1,21.43,1.95c-21.24,29.07-34.6709,67.5986-34.2408,115.3385.36,38.7,16.9608,74.0614,43.2308,104.8515a338.0815,338.0815,0,0,1-53.13,27.27Q157.81,353.945,153.07,355.78Zm144.74,34.65a152.3058,152.3058,0,0,1-69.24,1.6q-6.8852-1.515-13.68-3.62a336.936,336.936,0,0,0,42.7-25.68,336.0012,336.0012,0,0,0,44.09,26.6C300.4,389.71,299.11,390.08,297.81,390.43Zm65.33-33.9q-5.475-2.13-10.99-4.44a336.7539,336.7539,0,0,1-52.54-27.2c26.37-30.74,43.0326-65.8979,43.3825-104.3679.45-48.19-13.6425-87.0621-35.7425-116.3322a125.3446,125.3446,0,0,1,27.28-1.28,97.1883,97.1883,0,0,1,68.91,33.04c19.77,22.36,30.2,53.29,30.17,89.47,0,31.53-13.9,67.34-38.13,98.24A204.6165,204.6165,0,0,1,363.14,356.53Z" style="fill:#f9b729"/><path d="M174.3,48A151.7514,151.7514,0,0,0,67.34,99.52c-28.79,32.58-43.99,76.13-43.95,125.9,0,19.9221,4.0636,40.783,11.7111,61.4685A198.75,198.75,0,0,1,83.302,257.88,117.0766,117.0766,0,0,1,78.39,225.4c-.03-36.16,10.4-67.09,30.17-89.45a97.1883,97.1883,0,0,1,68.91-33.04l.85-.04.85-.09c.09-.01,2.33-.21,6.09-.21a121.8655,121.8655,0,0,1,21.43,1.95c-21.24,29.07-34.6709,67.5985-34.2408,115.3385a138.0246,138.0246,0,0,0,1.3429,17.9551,369.9316,369.9316,0,0,1,48.7035.642c3.3285.2556,6.6051.4526,9.858.6233A105.5359,105.5359,0,0,1,230.37,219.54c-.37-39.99,8.58-70.11,26.59-89.66,18.89,19.63,28.28,49.98,27.91,90.33a104.4026,104.4026,0,0,1-1.7086,17.9646,264.2046,264.2046,0,0,0,59.67-12.407c.0835-1.7425.1451-3.4893.1611-5.2455.45-48.19-13.6426-87.0621-35.7426-116.3322a125.3446,125.3446,0,0,1,27.28-1.28,97.1883,97.1883,0,0,1,68.91,33.04,114.5192,114.5192,0,0,1,22.65,39.9833,284.9445,284.9445,0,0,0,39.63-46.3709A164.5528,164.5528,0,0,0,444.66,99.52,151.7575,151.7575,0,0,0,337.78,48.01c-7.22-.65-44.17-2.89-81.32,15.09C218.66,45.25,181.24,47.41,174.3,48Z" style="fill:#f9d229"/><path d="M475.31,293.34c.28-1.87,11.82-78.32-25.58-142.63q8.475-10.23,15.99-21.15c15.08,27.57,22.92,60.11,22.89,95.88C488.61,247.44,483.98,270.6,475.31,293.34Z" style="fill:#f9d229"/><path d="M465.72,129.56q-7.5452,10.89-15.99,21.15C421.58,102.3,383.62,55.047,256.46,63.1c37.15-17.98,74.1-15.74,81.32-15.09A151.7575,151.7575,0,0,1,444.66,99.52,164.907,164.907,0,0,1,465.72,129.56Z" style="fill:#f9e476"/><path d="M342.99,220.52c-.35,38.47-17.01,73.63-43.38,104.37,0,0-28.6,28.81-42.02,37.84a337.6512,337.6512,0,0,1-42.67,25.67.0365.0365,0,0,0-.03.01s-37.11-10.15-61.82-32.63q4.74-1.845,9.48-3.8a338.0815,338.0815,0,0,0,53.13-27.27c19.01-9.29,42-35.41,42-35.41,18.04-20.93,26.95-43.64,27.19-69.09.37-40.35-9.02-70.7-27.91-90.33,0,0,17.56-24.81,50.29-25.69l7.01,10.03C332.28,142.14,343.39,177.64,342.99,220.52Z" style="fill:#ff9c00"/><path d="M92.3,375.14A567.7632,567.7632,0,0,1,29.51,387.9a27.5029,27.5029,0,0,0,6.83,54.58c2.3251-.292,45.73-5.8736,98.8771-22.3176q2.735-.8462,5.503-1.731a10.724,10.724,0,0,1,6.547.0171C113.283,399.6226,92.3,375.14,92.3,375.14Z" style="fill:#ff9c00"/><path d="M506.35,418.71a27.4932,27.4932,0,0,1-30.8,23.75c-2.33-.29-46.51-6.15-100.14-23.3,0,0-53.96-20.15-76.47-31.25a333.5336,333.5336,0,0,1-41.35-25.18c13.42-9.03,42.02-37.84,42.02-37.84a336.7539,336.7539,0,0,0,52.54,27.2q5.5052,2.31,10.99,4.44a371.5558,371.5558,0,0,0,60.03,19.18,544.8764,544.8764,0,0,0,59.43,12.21A27.4981,27.4981,0,0,1,506.35,418.71Z" style="fill:#f9a529"/><path d="M249.39,282.07c-6.05,6.85-24.64,25.96-38.54,32.76l-.57.28-.54.34c-.35.22-.7.45-1.05.66q1.89,2.445,3.86,4.85c.44.54.89,1.08,1.34,1.62.59.71,1.19,1.42,1.79,2.13,19.01-9.29,42-35.41,42-35.41q-3.735-4.35-6.95-8.82C250.3,281.01,249.85,281.54,249.39,282.07Z" style="fill:#f98713"/><path d="M306.45,329.16c-.54-.32-1.08-.65-1.62-.98-.79-.49-1.57-.97-2.35-1.46-.96-.61-1.92-1.22-2.87-1.83,0,0-28.6,28.81-42.02,37.84,2.34,1.68,4.73,3.35,7.17,4.99.81.55,1.63,1.1,2.45,1.64,14.85-11.23,39.1-35.61,40.21-36.72l.28-.28.26-.31c.38-.44.75-.88,1.12-1.32C308.2,330.21,307.32,329.69,306.45,329.16Z" style="fill:#f98713"/><path d="M307.25,104.19c-32.73.88-50.29,25.69-50.29,25.69a79.8254,79.8254,0,0,1,6.5415,7.7362c6.0339-7.39,20.7085-20.9206,49.4836-25.22Z" style="fill:#f98713"/><path d="M256.46,63.1s-21.5,5.71-49.77,41.42a123.3556,123.3556,0,0,0-12.74-1.62l4.12-5.21c18.39-23.22,34.33-34.77,44.41-40.35C247.09,58.98,251.77,60.89,256.46,63.1Z" style="fill:#f99e13"/><ellipse cx="57.3058" cy="229.5985" rx="5.8529" ry="7.2025" style="fill:#f9aa13"/><ellipse cx="42.8361" cy="188.55" rx="5.8529" ry="7.2025" style="fill:#fff"/><ellipse cx="84.2428" cy="109.8694" rx="5.8529" ry="7.2025" style="fill:#fff"/><ellipse cx="181.9935" cy="72.144" rx="5.8529" ry="7.2025" style="fill:#b44031"/><ellipse cx="72.5371" cy="155.1684" rx="5.8529" ry="7.2025" style="fill:#f9aa13"/><ellipse cx="136.9469" cy="89.4874" rx="5.8529" ry="7.2025" style="fill:#f9aa13"/><ellipse cx="456.0236" cy="229.5985" rx="5.8529" ry="7.2025" style="fill:#fff"/><ellipse cx="470.4933" cy="188.55" rx="5.8529" ry="7.2025" style="fill:#b44031"/><ellipse cx="429.0866" cy="109.8694" rx="5.8529" ry="7.2025" style="fill:#b44031"/><ellipse cx="331.3359" cy="72.144" rx="5.8529" ry="7.2025" style="fill:#f9aa13"/><ellipse cx="301.6799" cy="144.6816" rx="5.8529" ry="7.2025" style="fill:#f9d129"/><ellipse cx="279.1881" cy="84.5445" rx="5.8529" ry="7.2025" style="fill:#b44031"/><ellipse cx="325.0577" cy="195.7525" rx="5.8529" ry="7.2025" style="fill:#b44031"/><ellipse cx="301.6799" cy="235.3201" rx="5.8529" ry="7.2025" style="fill:#f9d129"/><ellipse cx="210.7235" cy="258.5897" rx="5.8529" ry="7.2025" style="fill:#b44031"/><ellipse cx="193.95" cy="198.7039" rx="5.8529" ry="7.2025" style="fill:#fff"/><ellipse cx="233.1849" cy="111.7226" rx="5.8529" ry="7.2025" style="fill:#b44031"/><ellipse cx="224.6759" cy="162.3709" rx="5.8529" ry="7.2025" style="fill:#f9aa13"/><ellipse cx="440.7924" cy="155.1684" rx="5.8529" ry="7.2025" style="fill:#fff"/><ellipse cx="376.3826" cy="89.4874" rx="5.8529" ry="7.2025" style="fill:#fff"/><path d="M365.64,420.52c-106.77,48.59-189.17,13.37-213.22.58-2.36-1.31-3.07-1.73-3.07-1.73a10.5887,10.5887,0,0,0-2.25-.96,1.0386,1.0386,0,0,1,.17.04c-33.99-18.83-54.97-43.31-54.97-43.31q-6.465-6.57-12.53-13.61a253.0027,253.0027,0,0,1-38.15-58.92c-9.41-20.46-15.37-41.38-17.42-61.65C24.2,240.96,86.21,457.14,365.64,420.52Z" style="fill:#f99e13"/><path d="M102.4478,344.4073a1.533,1.533,0,0,0,.1123.2588l.1895.3748c.1247.2524.28.5243.4258.791.2987.5348.6177,1.0829.9552,1.6248.6705,1.0875,1.3909,2.1754,2.1583,3.2408a77.1029,77.1029,0,0,0,4.974,6.225c1.808,1.9779,3.6683,3.94,5.679,5.76.9733.9471,2.0328,1.7982,3.0524,2.7035,1.04.88,2.1219,1.712,3.1849,2.5758l.1865.1516a4.246,4.246,0,0,1-4.8918,6.9182c-1.2718-.7771-2.5661-1.5286-3.8267-2.3368-1.2417-.8352-2.5249-1.6207-3.7331-2.516-2.4756-1.7119-4.8313-3.608-7.1557-5.5648a88.4766,88.4766,0,0,1-6.6267-6.3594q-1.591-1.689-3.0876-3.5232c-.5032-.6111-.993-1.24-1.4831-1.8934-.244-.331-.487-.6513-.7325-1.0088l-.3709-.537c-.1367-.2108-.2327-.3409-.4259-.6663a6.5,6.5,0,0,1,11.4161-6.219Z" style="fill:#fff"/><circle cx="136.2521" cy="380.7009" r="6.5207" style="fill:#fff"/></g></svg>