<svg xmlns="http://www.w3.org/2000/svg" viewBox="0 0 512 512"><title>Sandwich</title><g id="Sandwich"><path d="M495.06,98.39,86.27,473.76a32.4773,32.4773,0,0,1-10.71-9.35L51.64,431.68a32.3988,32.3988,0,0,1,4.3-43.05L404.8,69.84a32.4217,32.4217,0,0,1,37.22-4.62l41.13,22.14A32.3426,32.3426,0,0,1,495.06,98.39Z" style="fill:#ff7000"/><path d="M483.15,87.36,442.02,65.22a32.4217,32.4217,0,0,0-37.22,4.62L157.7043,295.6372c20.4123,23.8691,41.2842,41.9907,62.2293,55.3867L495.06,98.39A32.3426,32.3426,0,0,0,483.15,87.36Z" style="fill:#f9aa13"/><path d="M495.06,98.39a32.3426,32.3426,0,0,0-11.91-11.03L442.02,65.22a32.4217,32.4217,0,0,0-37.22,4.62l-144.4509,132c23.7039,21.7044,46.4649,37.8528,68.0358,49.599Z" style="fill:#ffd241"/><path d="M449.5114,61.3532a48.4736,48.4736,0,0,0-96.9121,1.8445v.0531a4.493,4.493,0,0,1-4.8578,4.5106q-1.7835-.1353-3.6022-.1371a48.4732,48.4732,0,0,0-48.4732,48.4732v.053a4.493,4.493,0,0,1-4.8579,4.5105q-1.7833-.1353-3.6021-.137a48.4732,48.4732,0,0,0-48.4733,48.4731v.0532a4.4931,4.4931,0,0,1-4.8579,4.5106q-1.7833-.1355-3.6021-.1371A48.4732,48.4732,0,0,0,181.8,221.897v.053a4.4931,4.4931,0,0,1-4.8579,4.5106q-1.7833-.1353-3.6021-.1371a48.4732,48.4732,0,0,0-48.4732,48.4732v.0531a4.493,4.493,0,0,1-4.858,4.51q-1.7834-.1353-3.6021-.1371a48.4733,48.4733,0,0,0-48.4732,48.4733v.053a4.4932,4.4932,0,0,1-4.858,4.5106q-1.7832-.1355-3.602-.1371A48.4735,48.4735,0,1,0,85.703,421.35l.0023.0021.0132-.0122c4.769-3.0783,347.5494-321.9179,347.5494-321.9179A48.352,48.352,0,0,0,449.5114,61.3532Z" style="fill:#6dcc82"/><path d="M95.5107,424.7717a14,14,0,0,1-9.4663-24.3178L415.8779,97.9661a14,14,0,1,1,18.9248,20.6357L104.9692,421.09A13.9481,13.9481,0,0,1,95.5107,424.7717Z" style="fill:#97260d"/><path d="M404.46,108.3l-8.79,8.07a65.4991,65.4991,0,0,0-23.12-5.07c-.77-.03-1.54-.04-2.3-.04a66.1042,66.1042,0,0,0-62.79,45.44,28.1072,28.1072,0,0,1-19.85,18.17,66.2317,66.2317,0,0,0-45.85,42.85,28.5142,28.5142,0,0,1-19.88,18.59,66.1905,66.1905,0,0,0-45.97,42.88,28.5656,28.5656,0,0,1-19.93,18.59,66.1329,66.1329,0,0,0-49.31,67.12,65.3043,65.3043,0,0,0,2.31,14.4l-8.95,8.2a75.5473,75.5473,0,0,1-4.35-22.09,77.1329,77.1329,0,0,1,57.53-78.28,17.5879,17.5879,0,0,0,12.27-11.45,77.262,77.262,0,0,1,53.63-50.02,17.532,17.532,0,0,0,12.22-11.45,77.2553,77.2553,0,0,1,53.5-49.98,17.0888,17.0888,0,0,0,12.18-10.97,76.93,76.93,0,0,1,73.23-53h.01c.88,0,1.78.02,2.67.05A76.1361,76.1361,0,0,1,404.46,108.3Z" style="fill:#49b464"/><path d="M500.2,115.9V445.28a32.4094,32.4094,0,0,1-32.41,32.41H101.73a32.3412,32.3412,0,0,1-15.46-3.93L495.06,98.39A32.3311,32.3311,0,0,1,500.2,115.9Z" style="fill:#f9b117"/><path d="M219.9336,351.0239c110.18,70.4685,222.3771,10.1134,280.2664-32.9482V115.9a32.3311,32.3311,0,0,0-5.14-17.51Z" style="fill:#ffd241"/><path d="M328.3849,251.4388c75.1089,40.9,135.8075,28.5651,171.8151,12.6454V115.9a32.3311,32.3311,0,0,0-5.14-17.51Z" style="fill:#ffe389"/><path d="M483.19,159.6434V447.7628a12.6346,12.6346,0,0,1-12.6345,12.6345H160.1075a9.156,9.156,0,0,1-6.194-15.8988l316.301-290.5551A7.74,7.74,0,0,1,483.19,159.6434Z" style="fill:#ffd241"/><path d="M470.2145,153.9434l-228.1072,209.54c92.8361,45.1467,184.4219,4.4912,241.083-33.4017V159.6433A7.74,7.74,0,0,0,470.2145,153.9434Z" style="fill:#ffdc6d"/><path d="M470.2145,153.9434,351.7991,262.72c53.9714,22.6277,99.2139,18.2554,131.3912,7.8512V159.6433A7.74,7.74,0,0,0,470.2145,153.9434Z" style="fill:#ffeeb7"/><path d="M307.5386,426.69a6,6,0,0,1-4.1206-10.3624l127.07-120.01a6,6,0,0,1,8.2393,8.7246l-127.07,120.01A5.98,5.98,0,0,1,307.5386,426.69Z" style="fill:#fc9c29"/><path d="M363.87,423.1436a6,6,0,0,1-4.1206-10.3624l64.9439-61.3359a6,6,0,0,1,8.2392,8.7246l-64.9438,61.336A5.98,5.98,0,0,1,363.87,423.1436Z" style="fill:#fc9c29"/><path d="M317.5107,367.2583A6,6,0,0,1,313.39,356.896l51.8863-49.0034a6,6,0,0,1,8.2392,8.7246l-51.8862,49.0034A5.98,5.98,0,0,1,317.5107,367.2583Z" style="fill:#fc9c29"/><path d="M280.8164,400.3657a6,6,0,0,1-4.1435-10.34l16.59-15.8335a6,6,0,0,1,8.2852,8.6807l-16.59,15.8335A5.9812,5.9812,0,0,1,280.8164,400.3657Z" style="fill:#fc9c29"/><path d="M410.2,141.13l-26.4,24.24L130.27,397.89a11.097,11.097,0,0,1-15.36-4.14,65.4541,65.4541,0,0,1-8.24-28.85,66.1329,66.1329,0,0,1,49.31-67.12,28.5656,28.5656,0,0,0,19.93-18.59,66.1905,66.1905,0,0,1,45.97-42.88,28.5142,28.5142,0,0,0,19.88-18.59,66.2317,66.2317,0,0,1,45.85-42.85,28.1072,28.1072,0,0,0,19.85-18.17,65.9832,65.9832,0,0,1,101.71-32.68A11.076,11.076,0,0,1,410.2,141.13Z" style="fill:#ff4a45"/><path d="M410.2,141.13l-28.3,25.98L305.26,237.4a386.7619,386.7619,0,0,1-51.19-41.41,66.1431,66.1431,0,0,1,33.54-21.12,28.1072,28.1072,0,0,0,19.85-18.17,65.9832,65.9832,0,0,1,101.71-32.68A11.076,11.076,0,0,1,410.2,141.13Z" style="fill:#ff6965"/><path d="M305.26,237.4,130.29,397.87a11.0875,11.0875,0,0,1-14.98-3.46c39.57-36.45,112.34-103.94,178.28-165.19Q299.47,233.54,305.26,237.4Z" style="fill:#d13931"/><path d="M410.2,141.13l-28.3,25.98L305.26,237.4q-5.775-3.8548-11.67-8.18c45.88-42.59,88.45-82.16,114.25-106.14.12.08.24.16.36.25.33.22.65.45.97.69A11.076,11.076,0,0,1,410.2,141.13Z" style="fill:#ff4a45"/></g></svg>