<svg xmlns="http://www.w3.org/2000/svg" viewBox="0 0 512 512"><title>Sausage</title><g id="Sausage"><path d="M455.64,58.1821a15.7359,15.7359,0,0,0-12.8382-15.6056,15.431,15.431,0,0,0-4.31-.1694,4.0422,4.0422,0,0,1-3.9092-1.9689,15.5759,15.5759,0,0,0-16.647-7.5289,4.0295,4.0295,0,0,1-4.0659-1.5264,15.5972,15.5972,0,1,0-23.6133,20.2778,42.5193,42.5193,0,0,0-31.9564,31.7329c-9.5907,40.8053-52.5127,67.1709-109.35,67.1709-65.3707,0-104.14-31.9259-108.6507-63.4624a42.5174,42.5174,0,0,0-30.2788-34.8209,15.5942,15.5942,0,1,0-22.96-20.8983,4.03,4.03,0,0,1-4.0662,1.5264,15.5759,15.5759,0,0,0-16.647,7.5289,4.0416,4.0416,0,0,1-3.9089,1.9689,15.4315,15.4315,0,0,0-4.31.1694,15.5949,15.5949,0,0,0,2.3611,30.94,42.3128,42.3128,0,0,0-4.372,25.6273c5.6683,39.6251,28.8367,75.1654,65.237,100.0751,34.7827,23.8022,78.9042,36.3835,127.595,36.3835,48.2046,0,91.8508-12.8064,126.2192-37.0341,33.5574-23.6548,56.9649-57.6476,65.9134-95.7161A42.3444,42.3444,0,0,0,437.29,73.29,15.5607,15.5607,0,0,0,455.64,58.1821Z" style="fill:#e53c38"/><path d="M120.77,57.0945c-2.66,3.07-8.28,8.19-19.21,13.48a5.3988,5.3988,0,0,1-2.39.56,5.5,5.5,0,0,1-2.4-10.45,60.2053,60.2053,0,0,0,13.3-8.39A41.9276,41.9276,0,0,1,120.77,57.0945Z" style="fill:#c02938"/><path d="M71.53,82.6946a60.2251,60.2251,0,0,1-14.02,1.85h-.1a4.5809,4.5809,0,0,1-.83-.07,42.6807,42.6807,0,0,1,3.91-10.97c-.29-.01-.58-.02-.87-.05a47.9456,47.9456,0,0,0,9.17-1.41,5.4985,5.4985,0,0,1,2.74,10.65Z" style="fill:#c02938"/><path d="M441.0833,102.8518A42.3442,42.3442,0,0,0,437.29,73.29a15.602,15.602,0,0,0,5.5126-30.7132,15.431,15.431,0,0,0-4.31-.1694,4.0419,4.0419,0,0,1-3.9092-1.9688,15.5758,15.5758,0,0,0-16.647-7.529,4.0293,4.0293,0,0,1-4.0659-1.5264,15.5972,15.5972,0,1,0-23.6133,20.2778,42.52,42.52,0,0,0-31.9564,31.733c-9.5907,40.8054-52.5127,67.1709-109.35,67.1709a167.6639,167.6639,0,0,1-44.6936-5.705c14.6711,21.21,40.6792,42.4468,85.88,57.9105a153.7806,153.7806,0,0,1,39.083,19.499,192.3964,192.3964,0,0,0,45.95-23.7011C408.7273,174.9131,432.1348,140.92,441.0833,102.8518Z" style="fill:#ff4a45"/><path d="M406.86,68.1145a5.5041,5.5041,0,0,1-7.35,2.55c-12.68-6.15-18.22-12.05-20.28-14.8a42.1174,42.1174,0,0,1,11-4.2h.01c2.34,2.19,6.66,5.51,14.07,9.1A5.5056,5.5056,0,0,1,406.86,68.1145Z" style="fill:#d32938"/><path d="M441.37,84.7046c-12.2-.53-19.84-4.43-20.16-4.6a5.4989,5.4989,0,0,1,5.03-9.78,38.4924,38.4924,0,0,0,11.07,2.99A42.5234,42.5234,0,0,1,441.37,84.7046Z" style="fill:#d32938"/><path d="M211.4805,211.4785a5.5011,5.5011,0,0,1-4.5313-8.6123l18.3633-26.7734a5.5006,5.5006,0,0,1,9.0723,6.2226l-18.3633,26.7735A5.497,5.497,0,0,1,211.4805,211.4785Z" style="fill:#b22315"/><path d="M246.2148,211.4785a5.5011,5.5011,0,0,1-4.5312-8.6123l18.3633-26.7734a5.5006,5.5006,0,1,1,9.0722,6.2226l-18.3632,26.7735A5.497,5.497,0,0,1,246.2148,211.4785Z" style="fill:#b22315"/><path d="M280.9492,211.4785a5.5011,5.5011,0,0,1-4.5312-8.6123l18.3632-26.7734a5.5006,5.5006,0,0,1,9.0723,6.2226L285.49,209.0889A5.4969,5.4969,0,0,1,280.9492,211.4785Z" style="fill:#b22315"/><path d="M131.8484,104.47a1.5507,1.5507,0,0,0,.0793.2706l.1416.3954c.0923.266.2128.5551.3243.8378.23.5677.4782,1.1514.7459,1.7308.53,1.1624,1.11,2.3315,1.7392,3.4839a77.0646,77.0646,0,0,0,4.1621,6.7947c1.5484,2.1871,3.1505,4.3652,4.9195,6.421.8482,1.0608,1.7937,2.0369,2.6929,3.0618.9228,1.0021,1.8929,1.9623,2.84,2.9515l.1663.1735a4.246,4.246,0,0,1-5.7133,6.2571c-1.1653-.9291-2.3563-1.8355-3.5068-2.7941-1.1283-.9829-2.304-1.9218-3.3917-2.96-2.2438-2.0061-4.3457-4.18-6.409-6.41a88.4958,88.4958,0,0,1-5.7855-7.1332q-1.3687-1.8735-2.6261-3.8795c-.4233-.6687-.8313-1.3532-1.2363-2.063-.2011-.3587-.4024-.7066-.6016-1.0919l-.3012-.579c-.1095-.226-.1886-.3671-.34-.714a6.5,6.5,0,1,1,12.1-4.7527Z" style="fill:#fff"/><circle cx="160.8829" cy="144.6816" r="6.5207" style="fill:#fff"/><path d="M335.0165,40.2461h0a6.8184,6.8184,0,0,1-6.9348-6.7h0a4.5418,4.5418,0,0,0-4.0578-4.5134,4.4144,4.4144,0,0,0-4.7709,4.4754l.0032.19a6.8184,6.8184,0,0,1-6.7,6.9348h0a4.5417,4.5417,0,0,0-4.5134,4.0578,4.4145,4.4145,0,0,0,4.4754,4.7709l.19-.0033a6.8185,6.8185,0,0,1,6.9348,6.7h0a4.5418,4.5418,0,0,0,4.0578,4.5135,4.4145,4.4145,0,0,0,4.7709-4.4754l-.0033-.19a6.8185,6.8185,0,0,1,6.7-6.9347l.19-.0033a4.4144,4.4144,0,0,0,4.3085-4.9221A4.5416,4.5416,0,0,0,335.0165,40.2461Z" style="fill:#f9d129"/><path d="M260.89,435.9429V362.15q-5.9251.2851-11.94.28c-.35,0-.71,0-1.06-.01v73.5235c-14.9095,3.208-26.1673,17.2231-26.1673,33.9785,0,19.1172,14.6547,34.67,32.6684,34.67s32.669-15.5527,32.669-34.67C287.06,453.1658,275.8008,439.15,260.89,435.9429Zm-6.4989,55.6489c-10.8452,0-19.6684-9.7207-19.6684-21.67s8.8232-21.67,19.6684-21.67,19.669,9.7207,19.669,21.67S265.2368,491.5918,254.3911,491.5918Z" style="fill:#fdbb29"/><path d="M254.3912,424.25a41.005,41.005,0,0,0-6.5.51v11.18a30.9653,30.9653,0,0,1,13,0V424.76A41.005,41.005,0,0,0,254.3912,424.25Z" style="fill:#f97417"/><path d="M286.8312,474.04c-1.93,17.19-15.74,30.55-32.44,30.55-18.01,0-32.67-15.55-32.67-34.67a35.8559,35.8559,0,0,1,5.76-19.63,44.8913,44.8913,0,0,0,8.22,12.85,23.8946,23.8946,0,0,0-.98,6.78c0,11.95,8.82,21.67,19.67,21.67,8.39,0,15.57-5.82,18.39-13.98A44.3655,44.3655,0,0,0,286.8312,474.04Z" style="fill:#ffde76"/><path d="M422.13,148.44c-.36-.02-.72-.02-1.08-.02-.39,0-.77.01-1.16.02a26.3839,26.3839,0,0,0-18.51-7.47c-.79,0-1.59.03-2.38.1a26.6617,26.6617,0,0,0-23.79,31.29,53.4493,53.4493,0,0,0-27.62,35.34,60.6589,60.6589,0,0,1-2.66,8.49c4.65-2.11,9.18-4.41,13.6-6.86a42.4946,42.4946,0,0,1,31.73-30.84,15.5969,15.5969,0,0,1,9.7-26.46c.48-.04.95-.06,1.42-.06a15.5439,15.5439,0,0,1,12.49,6.24,3.9216,3.9216,0,0,0,1.4,1.17q3.8552-5.325,7.24-10.91C422.38,148.45,422.26,148.45,422.13,148.44Z" style="fill:#d32938"/><path d="M125.38,173.86a26.572,26.572,0,0,0-23.45-32.79c-.79-.07-1.59-.1-2.38-.1a26.3832,26.3832,0,0,0-18.51,7.47c-.38-.01-.77-.02-1.16-.02-.36,0-.72,0-1.08.02a26.294,26.294,0,0,0-5.2.73q3.06,5.25,6.61,10.26a15.1773,15.1773,0,0,1,2.79.3,4.0137,4.0137,0,0,0,4.06-1.52,15.5574,15.5574,0,0,1,12.49-6.24c.47,0,.94.02,1.42.06a15.5937,15.5937,0,0,1,9.05,27.08,42.5219,42.5219,0,0,1,29.67,31.47q6.0452,3.225,12.38,6.01a33.3231,33.3231,0,0,1-.88-4.22A53.616,53.616,0,0,0,125.38,173.86Z" style="fill:#c02938"/><path d="M260.89,13.81a6.5,6.5,0,1,0-13,0l-.0333,143.1191a6.5239,6.5239,0,0,0,13.0478,0Z" style="fill:#fdbb29"/><path d="M455.64,185.007a15.7359,15.7359,0,0,0-12.8382-15.6056,15.4311,15.4311,0,0,0-4.31-.1695,4.0419,4.0419,0,0,1-3.9092-1.9688,15.5758,15.5758,0,0,0-16.647-7.529,4.0294,4.0294,0,0,1-4.0659-1.5263,15.5972,15.5972,0,1,0-23.6133,20.2778,42.5193,42.5193,0,0,0-31.9564,31.7329c-9.5907,40.8053-52.5127,67.1709-109.35,67.1709-65.3707,0-104.14-31.9259-108.6507-63.4624a42.5174,42.5174,0,0,0-30.2788-34.8209,15.5942,15.5942,0,1,0-22.96-20.8983,4.03,4.03,0,0,1-4.0662,1.5263,15.5758,15.5758,0,0,0-16.647,7.529,4.0414,4.0414,0,0,1-3.9089,1.9688,15.4316,15.4316,0,0,0-4.31.1695,15.5949,15.5949,0,0,0,2.3611,30.94,42.3128,42.3128,0,0,0-4.372,25.6273c5.6683,39.6251,28.8367,75.1654,65.237,100.0751,34.7827,23.8022,78.9042,36.3835,127.595,36.3835,48.2046,0,91.8508-12.8064,126.2192-37.0342,33.5574-23.6548,56.9649-57.6476,65.9134-95.716a42.3443,42.3443,0,0,0-3.7937-29.5623A15.5607,15.5607,0,0,0,455.64,185.007Z" style="fill:#ff4a45"/><path d="M120.77,183.93c-2.66,3.07-8.28,8.19-19.21,13.48a5.3989,5.3989,0,0,1-2.39.56,5.5,5.5,0,0,1-2.4-10.45,60.21,60.21,0,0,0,13.3-8.39A41.9308,41.9308,0,0,1,120.77,183.93Z" style="fill:#d32938"/><path d="M71.53,209.53a60.23,60.23,0,0,1-14.02,1.85h-.1a4.5809,4.5809,0,0,1-.83-.07,42.6794,42.6794,0,0,1,3.91-10.97c-.29-.01-.58-.02-.87-.05a47.9377,47.9377,0,0,0,9.17-1.41,5.4984,5.4984,0,0,1,2.74,10.65Z" style="fill:#d32938"/><path d="M442.8022,169.4014a15.4311,15.4311,0,0,0-4.31-.1695,4.0419,4.0419,0,0,1-3.9092-1.9688,15.5758,15.5758,0,0,0-16.647-7.529,4.0294,4.0294,0,0,1-4.0659-1.5263,15.5972,15.5972,0,1,0-23.6133,20.2778,42.5193,42.5193,0,0,0-31.9564,31.7329c-7.0148,29.8457-31.8744,51.95-66.9547,61.68A348.8417,348.8417,0,0,0,257.9,315.6615c-17.1014,26.5367-53.6748,34.4729-81.55,36.44a250.0242,250.0242,0,0,0,72.6006,10.3254c48.2046,0,91.8508-12.8064,126.2192-37.0342,33.5574-23.6548,56.9649-57.6476,65.9134-95.716a42.3443,42.3443,0,0,0-3.7937-29.5623,15.602,15.602,0,0,0,5.5126-30.7131Z" style="fill:#e53c38"/><path d="M406.86,194.95a5.5044,5.5044,0,0,1-7.35,2.55c-12.68-6.15-18.22-12.05-20.28-14.8a42.1139,42.1139,0,0,1,11-4.2h.01c2.34,2.19,6.66,5.51,14.07,9.1A5.5056,5.5056,0,0,1,406.86,194.95Z" style="fill:#c02938"/><path d="M441.37,211.54c-12.2-.53-19.84-4.43-20.16-4.6a5.4989,5.4989,0,0,1,5.03-9.78,38.4864,38.4864,0,0,0,11.07,2.99A42.5227,42.5227,0,0,1,441.37,211.54Z" style="fill:#c02938"/><path d="M211.4805,338.2969a5.5012,5.5012,0,0,1-4.5313-8.6123l18.3633-26.7735a5.5007,5.5007,0,0,1,9.0723,6.2227l-18.3633,26.7734A5.4971,5.4971,0,0,1,211.4805,338.2969Z" style="fill:#b22315"/><path d="M246.2148,338.2969a5.5012,5.5012,0,0,1-4.5312-8.6123l18.3633-26.7735a5.5006,5.5006,0,1,1,9.0722,6.2227l-18.3632,26.7734A5.4971,5.4971,0,0,1,246.2148,338.2969Z" style="fill:#b22315"/><path d="M280.9492,338.2969a5.5012,5.5012,0,0,1-4.5312-8.6123l18.3632-26.7735a5.5007,5.5007,0,0,1,9.0723,6.2227L285.49,335.9072A5.497,5.497,0,0,1,280.9492,338.2969Z" style="fill:#b22315"/><path d="M417.64,246.0234c-.1016.3645-.16.5153-.2371.7543l-.2177.6152c-.1436.4093-.2947.782-.4439,1.1652-.3022.7592-.6108,1.4938-.937,2.215q-.97,2.1661-2.06,4.2072a88.48,88.48,0,0,1-4.7361,7.8691c-1.7327,2.4959-3.5115,4.9414-5.4541,7.24-.9327,1.18-1.9663,2.273-2.9468,3.4035-1.0059,1.1094-2.0591,2.1727-3.0838,3.255a4.2462,4.2462,0,0,1-6.5294-5.4l.1414-.1952c.8-1.1115,1.6273-2.1974,2.4017-3.3181.7478-1.14,1.5484-2.2384,2.24-3.4069,1.4656-2.2821,2.7488-4.662,3.9778-7.0434a77.0969,77.0969,0,0,0,3.1758-7.3079c.4626-1.2289.8737-2.4672,1.237-3.692.1846-.6112.3491-1.2237.4978-1.8179.0711-.2955.15-.5985.2046-.8747l.085-.4113a1.5344,1.5344,0,0,0,.041-.2791,6.5,6.5,0,1,1,12.6438,3.0221Z" style="fill:#fff"/><circle cx="381.842" cy="286.863" r="6.5207" style="fill:#fff"/><path d="M247.89,362.43v11h1.06q6.015,0,11.94-.26V362.15q-5.9251.2851-11.94.28Z" style="fill:#f97417"/><path d="M247.8567,235.6021h13.0478a0,0,0,0,1,0,0v50.0642a6.5239,6.5239,0,0,1-6.5239,6.5239h0a6.5239,6.5239,0,0,1-6.5239-6.5239V235.6021A0,0,0,0,1,247.8567,235.6021Z" style="fill:#fdbb29"/><path d="M247.89,235.59v11c.35.01.71.01,1.06.01q6.015,0,11.94-.27V235.32q-5.9251.2848-11.94.28C248.6,235.6,248.24,235.6,247.89,235.59Z" style="fill:#f97417"/></g></svg>