<svg xmlns="http://www.w3.org/2000/svg" viewBox="0 0 512 512"><title>Sparkling_water</title><g id="Sparkling_water"><path d="M406.943,108.2009h-.0087c0-30.9026-67.9278-55.9541-151.721-55.9541S103.4924,77.2983,103.4924,108.2009h-.0331s-7.6134,63.9055,24.2391,126.6767c27.9331,55.0473,42.8121,113.6754,37.4536,161.8178a134.8792,134.8792,0,0,1-5.2313,24.4248c-2.4964,8.1775-5.0282,27.33,2.1542,51.3749l.0255-.002c4.2821,20.0726,44.3311,35.805,93.1129,35.805s88.8284-15.7313,93.1126-35.8031h.0015c7.1824-24.0448,4.6506-43.1974,2.1542-51.3749a134.8707,134.8707,0,0,1-5.2313-24.4248c-5.3585-48.1424,9.5205-106.7705,37.4536-161.8178C414.5563,172.1064,406.943,108.2009,406.943,108.2009Z" style="fill:#f9cc40"/><path d="M103.4924,108.2009h-.0331s-7.0464,59.202,20.8259,119.6128a132.2421,132.2421,0,0,0,119.53-175.41C165.3466,54.553,103.4924,78.7125,103.4924,108.2009Z" style="fill:#ffe38b"/><path d="M371.11,228.99c-30.46,60.04-44.24,120.11-38.78,169.14a146.8737,146.8737,0,0,0,5.72,26.79c.56,1.85,5.3,18.81-2.18,43.85l-.15.5-.11.51c-.87,4.1-7.97,10.65-21.85,16.02-15.82,6.12-36.62,9.5-58.55,9.5s-42.72-3.38-58.55-9.5c-13.88-5.37-20.97-11.92-21.85-16.02l-2.75-11.06c-3.76-19.46-.19-32.21.29-33.8a146.8737,146.8737,0,0,0,5.72-26.79c5.46-49.03-8.31-109.1-38.78-169.14-11.7961-23.24-17.5082-52.7259-20.2673-74.982a12.4211,12.4211,0,0,1,17.9246-12.5824A139.4913,139.4913,0,0,0,157.6,149.48c26.25,8.08,60.92,12.52,97.61,12.52s71.36-4.44,97.62-12.52a138.1547,138.1547,0,0,0,20.6927-8.0434,12.41,12.41,0,0,1,17.8435,12.6255C388.6046,176.3118,382.8965,205.7684,371.11,228.99Z" style="fill:#ffe287"/><ellipse cx="255.2133" cy="107.8123" rx="134.816" ry="40.4144" style="fill:#fff2ca"/><path d="M233.6168,161.472C205.07,160.0827,178.63,155.9532,157.6,149.48a139.4809,139.4809,0,0,1-20.6527-8.0545,12.4212,12.4212,0,0,0-17.9247,12.5825c2.6634,21.4837,8.0959,49.6871,19.0785,72.5237A132.2521,132.2521,0,0,0,233.6168,161.472Z" style="fill:#fff7dd"/><path d="M120.3973,107.8123c0,20.8161,52.5008,37.9538,119.9722,40.1694A132.6251,132.6251,0,0,0,248.05,67.4548C176.9238,68.571,120.3973,86.2124,120.3973,107.8123Z" style="fill:#fff7dd"/><path d="M193.4161,484.14q0,7.3417.59,14.536c16.4017,5.99,37.7908,9.6218,61.2069,9.6218,48.78,0,88.8284-15.7313,93.1126-35.8031h.0015c7.1824-24.0448,4.6506-43.1974,2.1542-51.3749a134.8707,134.8707,0,0,1-5.2313-24.4248c-3.0735-27.6134.5217-58.6781,9.4086-90.5365A178.8606,178.8606,0,0,0,193.4161,484.14Z" style="fill:#ff8e00"/><path d="M317.07,193.51c-18.01,15.5-31.78,33.75-61.88,47.58-59.33,27.26-114.06-10.8-115.85-12.07l-.04-.02a.01.01,0,0,1-.01-.01s-5.92-25.84,62.76-22.22C270.67,210.39,307.21,201.25,317.07,193.51Z" style="fill:#c94545"/><path d="M390.0419,163.646c-79.4366,9.287-77.9062,51.2852-134.8475,77.4475C194.86,268.8146,139.29,228.99,139.29,228.99c30.47,60.04,44.24,120.11,38.78,169.14a146.8737,146.8737,0,0,1-5.72,26.79c-.48,1.59-4.05,14.34-.29,33.8l2.75,11.06c.88,4.1,7.97,10.65,21.85,16.02,15.83,6.12,36.62,9.5,58.55,9.5s42.73-3.38,58.55-9.5c13.88-5.37,20.98-11.92,21.85-16.02l.11-.51.15-.5c7.48-25.04,2.74-42,2.18-43.85a146.8737,146.8737,0,0,1-5.72-26.79c-5.46-49.03,8.32-109.1,38.78-169.14C381.2722,208.9686,386.9094,184.322,390.0419,163.646Z" style="fill:#ff4a45"/><path d="M454.5842,72.249h0a6.8185,6.8185,0,0,1-6.9348-6.7h0a4.5418,4.5418,0,0,0-4.0578-4.5135,4.4145,4.4145,0,0,0-4.7709,4.4754l.0033.19a6.8185,6.8185,0,0,1-6.7,6.9347h0a4.5417,4.5417,0,0,0-4.5134,4.0578,4.4144,4.4144,0,0,0,4.4753,4.771l.19-.0033a6.8184,6.8184,0,0,1,6.9347,6.7h0a4.5418,4.5418,0,0,0,4.0578,4.5134,4.4145,4.4145,0,0,0,4.771-4.4754l-.0033-.19a6.8184,6.8184,0,0,1,6.7-6.9348l.19-.0032a4.4144,4.4144,0,0,0,4.3086-4.9221A4.5417,4.5417,0,0,0,454.5842,72.249Z" style="fill:#f9d129"/><path d="M370.9692,194.5305c-.0244.4956-.0562.69-.0856,1.0038-.029.3-.0675.5356-.1014.8062-.0662.5346-.1516,1.0241-.2332,1.5236-.1673.9956-.3564,1.9532-.5662,2.9035-.4206,1.8949-.8941,3.7448-1.45,5.553a92.9592,92.9592,0,0,1-3.8941,10.5195c-.79,1.6767-1.5226,3.3741-2.3994,4.9949l-1.2771,2.4441-1.37,2.385c-.8821,1.604-1.92,3.1126-2.88,4.6581-.9975,1.523-2.0715,2.9913-3.1016,4.4794a5.4985,5.4985,0,0,1-9.4475-5.5714l.164-.3292c.7239-1.46,1.4905-2.889,2.1758-4.3545.6463-1.485,1.3719-2.9255,1.9351-4.4352a86.47,86.47,0,0,0,3.1283-9.053,78.186,78.186,0,0,0,1.9805-9.1926c.2423-1.5279.4018-3.0529.5144-4.5461.0554-.7437.0921-1.4875.1065-2.197.0052-.3537.0171-.7165.0058-1.0379-.0047-.1573,0-.349-.0115-.477-.01-.114-.0132-.3481-.03-.2813a8.4192,8.4192,0,1,1,16.8372.2041Z" style="fill:#fff"/><circle cx="334.8342" cy="254.7567" r="8.5908" style="fill:#fff"/><ellipse cx="255.2133" cy="461.2034" rx="71.7361" ry="22.9369" style="fill:#c94545"/><circle cx="213.5417" cy="416.3024" r="8.5895" style="fill:#ffcbc9"/><circle cx="222.1311" cy="311.6708" r="8.5895" style="fill:#ffcbc9"/><circle cx="174.183" cy="180.9486" r="8.5895" style="fill:#ff6965"/><circle cx="160.9111" cy="29.0354" r="8.5895" style="fill:#ff6965"/><circle cx="255.1944" cy="99.2228" r="8.5895" style="fill:#ff6965"/><path d="M301.69,159.52c7.99-.89,15.71-2.01,23.08-3.35l-7.31,36.99c-9.36,8.02-17.55,16.78-27.42,25.3Z" style="fill:#f078a6"/><path d="M435.75,19.27a16.1657,16.1657,0,0,0,4.3,11H379.34a36.2941,36.2941,0,0,0-35.38,28.77l-3.45,17.48-12.92,65.39c-7.26,1.39-15,2.58-23.12,3.53L318.94,72.2l3.45-17.48a.3553.3553,0,0,1,.02-.1A58.3671,58.3671,0,0,1,379.34,8.27h60.71A16.1657,16.1657,0,0,0,435.75,19.27Z" style="fill:#f08daa"/><path d="M317.46,193.16,265.99,453.73a11.0132,11.0132,0,0,1-10.78,8.87,10.5149,10.5149,0,0,1-2.15-.21,10.9987,10.9987,0,0,1-8.66-12.92l45.64-231.01C299.91,209.94,308.1,201.18,317.46,193.16Z" style="fill:#b12530"/><circle cx="285.9409" cy="375.3709" r="8.5895" style="fill:#ffcbc9"/><path d="M329.9,130.24l-2.31,11.67c-7.26,1.39-15,2.58-23.12,3.53l2.24-11.34C314.84,133.06,322.61,131.77,329.9,130.24Z" style="fill:#f06598"/><path d="M451.97,19.27a10.9938,10.9938,0,0,1-11,11h-.92a16.22,16.22,0,0,1,0-22h.92A11,11,0,0,1,451.97,19.27Z" style="fill:#f04f9a"/></g></svg>