<svg xmlns="http://www.w3.org/2000/svg" viewBox="0 0 512 512"><title>Sushi</title><g id="Sushi"><path d="M396.6648,18.5294h0a6.8185,6.8185,0,0,1-6.9348-6.7h0a4.5416,4.5416,0,0,0-4.0578-4.5134,4.4144,4.4144,0,0,0-4.7709,4.4754l.0033.19a6.8185,6.8185,0,0,1-6.7,6.9347h0a4.5419,4.5419,0,0,0-4.5134,4.0578,4.4145,4.4145,0,0,0,4.4754,4.771l.19-.0033a6.8184,6.8184,0,0,1,6.9347,6.7h0a4.5417,4.5417,0,0,0,4.0578,4.5134A4.4143,4.4143,0,0,0,390.12,34.48l-.0032-.19a6.8184,6.8184,0,0,1,6.7-6.9348l.19-.0032a4.4145,4.4145,0,0,0,4.3086-4.9221A4.5417,4.5417,0,0,0,396.6648,18.5294Z" style="fill:#f9d129"/><path d="M142.7989,346.25h0a6.8184,6.8184,0,0,1-6.9347-6.7h0a4.5418,4.5418,0,0,0-4.0578-4.5134,4.4145,4.4145,0,0,0-4.771,4.4754l.0033.19a6.8184,6.8184,0,0,1-6.7,6.9348h0a4.5416,4.5416,0,0,0-4.5134,4.0578,4.4144,4.4144,0,0,0,4.4754,4.7709l.19-.0033a6.8185,6.8185,0,0,1,6.9348,6.7h0a4.5416,4.5416,0,0,0,4.0578,4.5134A4.4144,4.4144,0,0,0,136.254,362.2l-.0033-.19a6.8184,6.8184,0,0,1,6.7-6.9347l.19-.0033a4.4144,4.4144,0,0,0,4.3086-4.9221A4.5417,4.5417,0,0,0,142.7989,346.25Z" style="fill:#f9d129"/><path d="M359.0678,225.139c0-19.6127-45.076-35.5118-100.6794-35.5118s-100.68,15.8992-100.68,35.5118l0,.0029v77.8255c0,19.6126,45.0755,35.5118,100.6794,35.5118S359.0678,322.58,359.0678,302.9674V225.139Z" style="fill:#c6eaa4"/><path d="M281.8425,190.5983c-.0538.0007-25.1146.3947-32.595,29.2828-7.1022,27.4279-17.77,69.3732-91.5385,60.0456v23.0407c0,19.6126,45.0755,35.5118,100.6794,35.5118S359.0678,322.58,359.0678,302.9674V225.139C359.0674,208.375,326.1327,194.3263,281.8425,190.5983Z" style="fill:#49b464"/><path d="M327.2217,199.2265c-6.4617.4564-13.1665,2.3437-17.4316,7.4051-10.5091,12.4707-21.2122,70.03-41.2114,88.3736-27.8943,25.5854-69.7579,27.7314-96.6105,26.1876,17.59,10.3544,49.7078,17.2864,86.42,17.2864,55.6036,0,100.6794-15.8992,100.6794-35.5118V225.139C359.0676,214.9171,346.8187,205.7057,327.2217,199.2265Z" style="fill:#299e41"/><path d="M281.8425,190.5983l.0035,0c-7.5273-.6337-15.38-.9714-23.4576-.9714-55.6039,0-100.68,15.8992-100.68,35.5119,0,16.4295,31.6342,30.2507,74.5882,34.3052,9.8922-12.1787,13.7794-27.3166,16.9505-39.5631C256.7279,190.993,281.7887,190.599,281.8425,190.5983Z" style="fill:#c6eaa4"/><path d="M327.2,199.2284c-12.5405-4.1446-28.0761-7.1753-45.3544-8.63l-.0035,0c-.0538.0007-25.1146.3947-32.595,29.2828-3.1711,12.2465-7.0583,27.3844-16.9505,39.5631,8.3222.7854,17.0666,1.2067,26.0914,1.2067a275.0232,275.0232,0,0,0,30.5326-1.6645c8.301-21.5772,14.62-44.9386,20.8691-52.3548C314.0506,201.5758,320.7451,199.6873,327.2,199.2284Z" style="fill:#6dcc82"/><path d="M359.0678,225.139c0-10.2236-12.2637-19.4319-31.8674-25.9106-6.4553.4589-13.15,2.3474-17.41,7.4032-6.25,7.4162-12.5681,30.7776-20.8691,52.3548C329.5965,254.4254,359.0678,240.997,359.0678,225.139Z" style="fill:#49b464"/><path d="M343.6279,225.14c0,7.2313-29.0023,24.1787-85.2422,24.1787q-6.2844,0-12.115-.2741c35.96-2.2277,63.8139-17.71,63.8139-36.4822a18.9707,18.9707,0,0,0-1.0112-6.1C331.9585,212.0566,343.6279,220.556,343.6279,225.14Z" style="fill:#f9ea76"/><path d="M310.0846,212.5622c0,18.7722-27.8543,34.2545-63.8139,36.4822-48.2889-2.1934-73.1273-17.213-73.1273-23.9046,0-7.2312,29.0025-24.1786,85.2423-24.1786,20.5716,0,37.4932,2.2619,50.6877,5.5005A18.9707,18.9707,0,0,1,310.0846,212.5622Z" style="fill:#f9f7e4"/><path d="M289.8006,225.8425l-28.8481,11.8836a6.3955,6.3955,0,0,1-4.7124,0l-17.787-7.2313c3.7183-3.7784,8.9534-7.2055,15.525-6.7772a30.5182,30.5182,0,0,0,22.1053-7.6855L289.792,221.61A2.285,2.285,0,0,1,289.8006,225.8425Z" style="fill:#d32938"/><path d="M276.0834,216.0321a30.5182,30.5182,0,0,1-22.1053,7.6855c-6.5716-.4283-11.8067,2.9988-15.525,6.7772l-11.4726-4.6695a2.2838,2.2838,0,0,1-.0769-4.1983l28.8395-11.8751a6.43,6.43,0,0,1,4.79-.0429Z" style="fill:#ff4a45"/><path d="M359.0674,293.489v9.4762c0,19.62-45.0758,35.514-100.6817,35.514-55.5972,0-100.6731-15.8935-100.6731-35.514V293.489c0,19.6206,45.0759,35.514,100.6731,35.514C313.9916,329.003,359.0674,313.11,359.0674,293.489Z" style="fill:#297641"/><path d="M359.0678,392.6019c0-19.6127-45.076-35.5118-100.6794-35.5118s-100.68,15.8992-100.68,35.5118l0,.003V470.43c0,19.6126,45.0755,35.5118,100.6794,35.5118S359.0678,490.0429,359.0678,470.43V392.6019Z" style="fill:#c6eaa4"/><path d="M281.8425,358.0612c-.0538.0008-25.1146.3948-32.595,29.2828-7.1022,27.428-17.77,69.3732-91.5385,60.0456V470.43c0,19.6126,45.0755,35.5118,100.6794,35.5118S359.0678,490.0429,359.0678,470.43V392.6019C359.0674,375.8379,326.1327,361.7892,281.8425,358.0612Z" style="fill:#49b464"/><path d="M327.2217,366.6894c-6.4617.4564-13.1665,2.3437-17.4316,7.4051-10.5091,12.4708-21.2122,70.03-41.2114,88.3737-27.8943,25.5853-69.7579,27.7313-96.6105,26.1876,17.59,10.3544,49.7078,17.2863,86.42,17.2863,55.6036,0,100.6794-15.8992,100.6794-35.5118V392.6019C359.0676,382.38,346.8187,373.1686,327.2217,366.6894Z" style="fill:#299e41"/><path d="M281.8425,358.0612l.0035,0c-7.5273-.6337-15.38-.9714-23.4576-.9714-55.6039,0-100.68,15.8992-100.68,35.5119,0,16.43,31.6342,30.2507,74.5882,34.3052,9.8922-12.1787,13.7794-27.3165,16.9505-39.5631C256.7279,358.456,281.7887,358.062,281.8425,358.0612Z" style="fill:#c6eaa4"/><path d="M327.2,366.6913c-12.5405-4.1446-28.0761-7.1752-45.3544-8.63l-.0035,0c-.0538.0008-25.1146.3948-32.595,29.2828-3.1711,12.2466-7.0583,27.3844-16.9505,39.5631,8.3222.7855,17.0666,1.2067,26.0914,1.2067a275.0232,275.0232,0,0,0,30.5326-1.6645c8.301-21.5772,14.62-44.9386,20.8691-52.3548C314.0506,369.0387,320.7451,367.15,327.2,366.6913Z" style="fill:#6dcc82"/><path d="M359.0678,392.6019c0-10.2235-12.2637-19.4319-31.8674-25.9106-6.4553.4589-13.15,2.3474-17.41,7.4032-6.25,7.4162-12.5681,30.7776-20.8691,52.3548C329.5965,421.8883,359.0678,408.46,359.0678,392.6019Z" style="fill:#49b464"/><path d="M343.6279,392.6028c0,7.2312-29.0023,24.1786-85.2422,24.1786q-6.2844,0-12.115-.2741c35.96-2.2276,63.8139-17.71,63.8139-36.4822a18.97,18.97,0,0,0-1.0112-6.1C331.9585,379.52,343.6279,388.019,343.6279,392.6028Z" style="fill:#f9ea76"/><path d="M310.0846,380.0251c0,18.7723-27.8543,34.2546-63.8139,36.4822-48.2889-2.1933-73.1273-17.2129-73.1273-23.9045,0-7.2313,29.0025-24.1787,85.2423-24.1787,20.5716,0,37.4932,2.262,50.6877,5.5006A18.97,18.97,0,0,1,310.0846,380.0251Z" style="fill:#f9f7e4"/><path d="M359.0674,460.9519v9.4762c0,19.6205-45.0758,35.514-100.6817,35.514-55.5972,0-100.6731-15.8935-100.6731-35.514v-9.4762c0,19.6206,45.0759,35.514,100.6731,35.514C313.9916,496.4659,359.0674,480.5725,359.0674,460.9519Z" style="fill:#297641"/><path d="M291.218,390.8592c0,6.1088-14.6939,11.0525-32.8323,11.0525-13.2289,0-24.6328-2.63-29.8336-6.4259,16.3048,4.3611,32.9181-2.0135,39.1727-7.7711,3.213-2.956,8.3109-4.3439,12.9461-4.9693C287.1568,384.7587,291.218,387.6462,291.218,390.8592Z" style="fill:#d32938"/><path d="M280.6709,382.7454c-4.6352.6254-9.7331,2.0133-12.9461,4.9693-6.2546,5.7576-22.8679,12.1322-39.1727,7.7711-1.9278-1.4051-2.9988-2.9731-2.9988-4.6266,0-6.1091,14.7027-11.0527,32.8324-11.0527A77.5267,77.5267,0,0,1,280.6709,382.7454Z" style="fill:#ff4a45"/><path d="M343.8286,464.7747c-.2922.24-.427.33-.6269.4818l-.5315.3789c-.3523.2529-.69.4714-1.0318.7-.6833.4485-1.3574.8729-2.0383,1.2766-1.3582.8118-2.7212,1.5654-4.1016,2.2638a88.4967,88.4967,0,0,1-8.3935,3.728c-2.8513,1.05-5.7112,2.0327-8.6214,2.8012-1.4406.4311-2.9143.7337-4.3659,1.0971-1.4605.3317-2.9331.5984-4.3933.897a4.2463,4.2463,0,0,1-2.25-8.1694l.2275-.0789c1.2934-.451,2.5937-.8661,3.8708-1.34,1.2666-.5049,2.5525-.945,3.79-1.505,2.51-1.0284,4.9263-2.2414,7.2991-3.4869a77.1292,77.1292,0,0,0,6.7937-4.1635c1.084-.7411,2.1313-1.5194,3.1316-2.3142.5017-.3948.9878-.802,1.4506-1.2034.2276-.2013.4661-.4041.6692-.5991l.3057-.288c.074-.0766.2175-.21.1936-.2052a6.5,6.5,0,1,1,8.6223,9.7293Z" style="fill:#fff"/><circle cx="291.0778" cy="477.6869" r="6.5207" style="fill:#fff"/><path d="M359.0678,57.6761c0-19.6127-45.076-35.5118-100.6794-35.5118s-100.68,15.8992-100.68,35.5118l0,.0029v77.8255c0,19.6126,45.0755,35.5118,100.6794,35.5118s100.6794-15.8992,100.6794-35.5118V57.6761Z" style="fill:#c6eaa4"/><path d="M281.8425,23.1354c-.0538.0007-25.1146.3947-32.595,29.2828-7.1022,27.4279-17.77,69.3732-91.5385,60.0455v23.0408c0,19.6126,45.0755,35.5118,100.6794,35.5118s100.6794-15.8992,100.6794-35.5118V57.6761C359.0674,40.9121,326.1327,26.8634,281.8425,23.1354Z" style="fill:#49b464"/><path d="M327.2217,31.7636c-6.4617.4564-13.1665,2.3437-17.4316,7.4051-10.5091,12.4707-21.2122,70.03-41.2114,88.3736-27.8943,25.5854-69.7579,27.7314-96.6105,26.1876,17.59,10.3544,49.7078,17.2864,86.42,17.2864,55.6036,0,100.6794-15.8992,100.6794-35.5118V57.6761C359.0676,47.4542,346.8187,38.2427,327.2217,31.7636Z" style="fill:#299e41"/><path d="M281.8425,23.1354l.0035,0c-7.5273-.6337-15.38-.9714-23.4576-.9714-55.6039,0-100.68,15.8992-100.68,35.5119,0,16.4294,31.6342,30.2507,74.5882,34.3052,9.8922-12.1787,13.7794-27.3166,16.9505-39.5631C256.7279,23.53,281.7887,23.1361,281.8425,23.1354Z" style="fill:#c6eaa4"/><path d="M327.2,31.7654c-12.5405-4.1445-28.0761-7.1752-45.3544-8.63l-.0035,0c-.0538.0007-25.1146.3947-32.595,29.2828-3.1711,12.2465-7.0583,27.3844-16.9505,39.5631,8.3222.7854,17.0666,1.2067,26.0914,1.2067a275.0232,275.0232,0,0,0,30.5326-1.6645c8.301-21.5772,14.62-44.9386,20.8691-52.3548C314.0506,34.1128,320.7451,32.2244,327.2,31.7654Z" style="fill:#6dcc82"/><path d="M359.0678,57.6761c0-10.2236-12.2637-19.4319-31.8674-25.9107-6.4553.459-13.15,2.3474-17.41,7.4033-6.25,7.4162-12.5681,30.7776-20.8691,52.3548C329.5965,86.9625,359.0678,73.5341,359.0678,57.6761Z" style="fill:#49b464"/><path d="M343.6279,57.6769c0,7.2313-29.0023,24.1787-85.2422,24.1787q-6.2844,0-12.115-.2741c35.96-2.2277,63.8139-17.71,63.8139-36.4822a18.9707,18.9707,0,0,0-1.0112-6.1C331.9585,44.5937,343.6279,53.0931,343.6279,57.6769Z" style="fill:#f9ea76"/><path d="M310.0846,45.0993c0,18.7722-27.8543,34.2545-63.8139,36.4822-48.2889-2.1934-73.1273-17.213-73.1273-23.9046,0-7.2312,29.0025-24.1786,85.2423-24.1786,20.5716,0,37.4932,2.2619,50.6877,5.5005A18.9707,18.9707,0,0,1,310.0846,45.0993Z" style="fill:#f9f7e4"/><path d="M359.0674,126.0261v9.4762c0,19.62-45.0758,35.514-100.6817,35.514-55.5972,0-100.6731-15.8936-100.6731-35.514v-9.4762c0,19.6206,45.0759,35.514,100.6731,35.514C313.9916,161.54,359.0674,145.6467,359.0674,126.0261Z" style="fill:#297641"/><path d="M314.0007,48.0088A15.0387,15.0387,0,0,1,298.964,62.8827a14.8869,14.8869,0,0,1-8.5251-2.6646,2.8665,2.8665,0,0,0-3.2387,0,14.97,14.97,0,0,1-17.05,0,2.866,2.866,0,0,0-3.2384,0,14.9564,14.9564,0,0,1-17.0418,0,2.8665,2.8665,0,0,0-3.2387,0,14.97,14.97,0,0,1-17.05,0,2.8665,2.8665,0,0,0-3.2387,0,15.0213,15.0213,0,0,1-23.5618-12.2093,14.56,14.56,0,0,1,1.0109-5.5006,15.02,15.02,0,0,0,22.5509,6.94,2.8665,2.8665,0,0,1,3.2387,0,14.97,14.97,0,0,0,17.05,0,2.8665,2.8665,0,0,1,3.2387,0,14.9569,14.9569,0,0,0,17.0418,0,2.866,2.866,0,0,1,3.2384,0,14.97,14.97,0,0,0,17.05,0,2.8665,2.8665,0,0,1,3.2387,0A15.0086,15.0086,0,0,0,312.9812,42.5,14.609,14.609,0,0,1,314.0007,48.0088Z" style="fill:#d32938"/><path d="M312.9812,42.5a15.0086,15.0086,0,0,1-22.5423,6.9487,2.8665,2.8665,0,0,0-3.2387,0,14.97,14.97,0,0,1-17.05,0,2.866,2.866,0,0,0-3.2384,0,14.9569,14.9569,0,0,1-17.0418,0,2.8665,2.8665,0,0,0-3.2387,0,14.97,14.97,0,0,1-17.05,0,2.8665,2.8665,0,0,0-3.2387,0,15.02,15.02,0,0,1-22.5509-6.94,15.5859,15.5859,0,0,1,9.1848-8.8336,14.0259,14.0259,0,0,1,4.978-.8653,2.9022,2.9022,0,0,0,2.8532-2.9988v-.0342A15.0454,15.0454,0,0,1,241.319,15.7677a2.9175,2.9175,0,0,0,3.7786-1.5937,15.031,15.031,0,0,1,27.6315-.2655,2.8742,2.8742,0,0,0,3.5213,1.5764,14.9983,14.9983,0,0,1,4.5325-.7453A15.2146,15.2146,0,0,1,295.1,24.944a13.9653,13.9653,0,0,1,.8654,5.0037,2.8559,2.8559,0,0,0,2.8618,2.8616,14.0249,14.0249,0,0,1,4.9778.8653A15.5573,15.5573,0,0,1,312.9812,42.5Z" style="fill:#ff4a45"/><path d="M343.8286,129.8906c-.2922.24-.427.33-.6269.4818l-.5315.3791c-.3523.2528-.69.4714-1.0318.7-.6833.4485-1.3574.8729-2.0383,1.2766-1.3582.8118-2.7212,1.5654-4.1016,2.2638a88.4967,88.4967,0,0,1-8.3935,3.728c-2.8513,1.05-5.7112,2.0327-8.6214,2.8012-1.4406.4311-2.9143.7337-4.3659,1.0971-1.4605.3317-2.9331.5984-4.3933.8969a4.2462,4.2462,0,0,1-2.25-8.1693l.2275-.0789c1.2934-.451,2.5937-.8661,3.8708-1.34,1.2666-.5049,2.5525-.945,3.79-1.505,2.51-1.0284,4.9263-2.2414,7.2991-3.4869a77.1532,77.1532,0,0,0,6.7937-4.1635c1.084-.7411,2.1313-1.5194,3.1316-2.3144.5017-.3946.9878-.8018,1.4506-1.2032.2276-.2013.4661-.4041.6692-.5991l.3057-.288c.074-.0767.2175-.21.1936-.2052a6.5,6.5,0,1,1,8.6223,9.7291Z" style="fill:#fff"/><circle cx="291.0778" cy="142.8029" r="6.5207" style="fill:#fff"/></g></svg>