<svg xmlns="http://www.w3.org/2000/svg" viewBox="0 0 512 512"><title>Taco</title><g id="Taco"><path d="M234.91,96.88c-13.07,8.81-22.58,22.48-25.58,40.28a12.7947,12.7947,0,0,1-15.68,10.4,52.6087,52.6087,0,0,0-64.29,62.78,12.79,12.79,0,0,1-10.91,15.55c-20.37,2.51-51.25,13.32-47.33,55.93.35,3.77.75,7.47,1.39,11.04a12.7494,12.7494,0,0,1-9.05,14.6,70.64,70.64,0,0,0-44.62,36.9c.11-1.63,12.75-192.9,170.02-238.49A253.913,253.913,0,0,1,234.91,96.88Z" style="fill:#f9aa13"/><path d="M63.4645,307.4583a12.75,12.75,0,0,0,9.0476-14.594c-.6395-3.5784-1.044-7.2727-1.3909-11.04-3.9239-42.61,26.9608-53.4267,47.3243-55.9317a12.7906,12.7906,0,0,0,10.91-15.5483,52.6182,52.6182,0,0,1,48.0924-64.3253q1.5952-.0939,3.17-.0934a52.564,52.564,0,0,1,13.0308,1.6315,12.52,12.52,0,0,0,3.1046.3928,12.8668,12.8668,0,0,0,12.5719-10.7856c2.9973-17.81,12.5236-31.4663,25.5918-40.283-6.4218.6334-12.9929,1.5391-19.72,2.7645a71.1192,71.1192,0,0,0-16.7187,35.693,1.8712,1.8712,0,0,1-1.7245,1.6111,1.5261,1.5261,0,0,1-.3811-.05,63.6718,63.6718,0,0,0-15.7543-1.974c-1.2621,0-2.5461.0378-3.8154.1124A63.6184,63.6184,0,0,0,118.636,212.811a1.7241,1.7241,0,0,1-.2782,1.4077,1.76,1.76,0,0,1-1.2552.7558c-15.6189,1.9214-28.9554,7.2732-38.5679,15.477-9.8087,8.3713-20.9574,24.2542-18.3672,52.3811.3271,3.5525.763,7.7524,1.5161,11.9667a1.7739,1.7739,0,0,1-1.12,2.0486,81.8124,81.8124,0,0,0-38.6408,23.6993c-2.5141,14.7155-3.086,23.8191-3.086,23.8191h.0149A70.5959,70.5959,0,0,1,63.4645,307.4583Z" style="fill:#ff8b00"/><circle cx="131.9309" cy="178.3353" r="15.9971" style="fill:#fffcf2"/><circle cx="117.4823" cy="227.931" r="42.3699" style="fill:#ff4a45"/><path d="M486.17,200.09c-1.84-39.85-32.32-47.31-49.03-48.37a12.7131,12.7131,0,0,1-11.72-10.37c-5.1-28.48-27.73-46.89-55.83-46.89a56.63,56.63,0,0,0-33.12,10.63,12.7959,12.7959,0,0,1-16.28-1.28,65.7545,65.7545,0,0,0-45.78-18.48c-31.49,0-59.52,18.78-65.08,51.83a12.7947,12.7947,0,0,1-15.68,10.4,52.6087,52.6087,0,0,0-64.29,62.78,12.79,12.79,0,0,1-10.91,15.55c-20.37,2.51-51.25,13.32-47.33,55.93.35,3.77.75,7.47,1.39,11.04a12.7494,12.7494,0,0,1-9.05,14.6A70.4508,70.4508,0,0,0,11.7,378.18a69.6853,69.6853,0,0,0,6.4735,26.7319L18.17,404.91l.0212.0413q1.2791,2.7417,2.7874,5.35c1.0516,1.9816,2.0931,3.8882,2.5114,4.4789a11.35,11.35,0,0,1,1.07,1.13c2.36,2.3,8.73,7.53,20.04,10.27,27.6,6.7,55.9-8.6,66.12-35.1,27.55-71.43,50.2-233.81,178.45-255.57,91.92-15.6,156.59,41.81,184.67,101.85A54.6776,54.6776,0,0,0,486.17,200.09Z" style="fill:#6dcc82"/><path d="M410.42,111.23a53.3309,53.3309,0,0,0-36.9111,19.4854A170.1854,170.1854,0,0,0,319.26,121.91a191.84,191.84,0,0,0-31.93,2.75,158.1945,158.1945,0,0,0-70.62,30.66c-3.33,2.08-20.73,13.22-42.06,32.87-21.46,19.76-51.16,52.31-70.78,95.1-9.06,19.78-15.76,36.99-21.67,52.17-8.51,21.87-15.23,39.14-24.03,50.34-8.08,10.28-18.28,15.67-33.82,17.79q-.435-.03-.87-.03a11.2731,11.2731,0,0,0-4.92,1.14,3.7163,3.7163,0,0,0-.39.21c.8634,1.8562,1.8125,3.664,2.8284,5.4282,1.0448,1.9681,2.0759,3.8549,2.4916,4.4418l.26-.03c54.68-6.39,53.68-47.37,90.12-126.87,36.5-79.63,109.08-123.48,109.08-123.48a146.7728,146.7728,0,0,1,30.17-18.1,149.3792,149.3792,0,0,1,36.05-10.79,178.8521,178.8521,0,0,1,30.09-2.6,159.1921,159.1921,0,0,1,48.0413,7.2975l-.0013.0025q5.34,1.665,10.47,3.7a42.34,42.34,0,0,1,37.09-21.88c1.26,0,2.51.07,3.74.18A54.2,54.2,0,0,0,410.42,111.23Z" style="fill:#49b464"/><circle cx="457.2313" cy="196.4024" r="15.9971" style="fill:#fffcf2"/><path d="M222.84,164.47c-58.77,45.58-81.91,131.19-100.49,191.74-3.98,13-7.76,24.83-11.63,34.87-10.07,26.11-37.68,41.34-64.89,35.38-.41-.09-.82-.18-1.23-.28-14.3-3.47-20.7-10.92-21.09-11.38H23.5l-.01-.02c54.94-6.29,53.88-47.27,90.38-126.9C149.52,210.1,219.58,166.47,222.84,164.47Z" style="fill:#97260d"/><circle cx="281.139" cy="128.7714" r="15.9971" style="fill:#fffcf2"/><circle cx="414.8614" cy="164.4012" r="42.3699" style="fill:#ff4a45"/><circle cx="57.293" cy="360.3634" r="15.9971" style="fill:#fffcf2"/><path d="M489.34,307.01c2.55-41.27-21.77-99.79-67.89-137.35.96.43,62.15,28.21,75.98,81.54C502.75,271.73,496.81,291.82,489.34,307.01Z" style="fill:#97260d"/><circle cx="99.6629" cy="373.9326" r="42.3699" style="fill:#ff4a45"/><path d="M457.23,164.4a42.3663,42.3663,0,1,1-42.37-42.37A42.1057,42.1057,0,0,1,457.23,164.4Z" style="fill:#ff4a45"/><path d="M265.205,130.0186a15.94,15.94,0,0,0,4.6156,10.057A154.5954,154.5954,0,0,1,289.17,135.51c2.3186-.3935,4.6169-.7333,6.9-1.0347a15.775,15.775,0,0,0,.112-11.1021q-4.4225.5469-8.8533,1.292A164.2575,164.2575,0,0,0,265.205,130.0186Z" style="fill:#fff4d3"/><path d="M426.9,159.93a175.6932,175.6932,0,0,0-42.38-25.1,42.11,42.11,0,0,0-6.75,9.08v.01c27.37,10.79,50.18,28.66,67.9,49.56a42.2557,42.2557,0,0,0,6.6-9.17A195.0069,195.0069,0,0,0,426.9,159.93Z" style="fill:#c9452c"/><path d="M23.4884,414.7843s9.52,36.1112,72.4857,52.4192a195.0432,195.0432,0,0,0,84.5851,2.6314C274.7707,452.3,424.4325,393.87,474.7708,344.2631c49.3358-47.9707-28.1555-235.47-185.598-208.7565C160.92,157.2675,138.2713,319.6471,110.72,391.0768c-10.2214,26.5-38.5229,41.7986-66.1246,35.1013C29.8368,422.5972,23.4884,414.7843,23.4884,414.7843Z" style="fill:#fdbb29"/><path d="M413.8815,288.4594A222.73,222.73,0,0,0,354.5179,136.768c-19.8747-4.4492-41.7075-5.272-65.3451-1.2614C160.92,157.2675,138.2713,319.647,110.72,391.0768c-10.2214,26.5-38.5229,41.7986-66.1246,35.1013-14.7581-3.5809-21.1065-11.3939-21.1065-11.3939s9.52,36.1113,72.4856,52.4193a195.0447,195.0447,0,0,0,84.5851,2.6315c58.4667-10.8823,138.2832-37.5158,202.4689-68.0146A222.4834,222.4834,0,0,0,413.8815,288.4594Z" style="fill:#f9cc40"/><path d="M122.3538,356.2089c45.4643,12.8191,106.6214-7.0678,154.0282-54.4746,52.7308-52.7308,71.4069-122.4694,48.9036-168.7057a177.3416,177.3416,0,0,0-36.1128,2.478C178.9468,154.2089,146.7245,276.7773,122.3538,356.2089Z" style="fill:#ffdc6d"/><ellipse cx="228.5066" cy="276.5322" rx="6.5386" ry="10.9506" style="fill:#f9aa13"/><ellipse cx="347.1111" cy="212.3995" rx="6.5386" ry="10.9506" style="fill:#f9aa13"/><ellipse cx="297.1361" cy="191.8992" rx="6.5386" ry="10.9506" style="fill:#f9aa13"/><ellipse cx="406.3869" cy="230.143" rx="7.4946" ry="10.9506" style="fill:#ff9200"/><ellipse cx="281.139" cy="243.6804" rx="7.4946" ry="10.9506" style="fill:#ff9200"/><ellipse cx="340.5725" cy="276.5322" rx="7.4946" ry="10.9506" style="fill:#ff9200"/><path d="M463.76,218.56c-22.5-31.19-55.53-57.77-97.53-68.05q-5.58-7.11-11.71-13.74C403.79,147.8,441.01,181.14,463.76,218.56Z" style="fill:#ff8e00"/><path d="M366.23,150.51a159.74,159.74,0,0,0-35.9-4.56,88.0621,88.0621,0,0,0-5.04-12.92,160.2756,160.2756,0,0,1,28.74,3.63c.17.04.33.07.49.11Q360.64,143.4,366.23,150.51Z" style="fill:#ffdc6d"/><path d="M134.18,358.74c-5.2,17.11-9.94,32.67-14.83,45.35-10.22,26.5-38.52,41.8-66.12,35.1-14.3-3.47-20.7-10.92-21.09-11.38h-.01l-.01-.02a32.0082,32.0082,0,0,1-6.83-8.47c-.26-.55-.49-1.05-.68-1.5-.02-.02-.02-.04-.03-.06-.03-.08-.06-.15-.09-.23a23.2119,23.2119,0,0,1-.99-2.73c.31.36,6.7,7.89,21.1,11.38,27.6,6.7,55.9-8.6,66.12-35.1,3.87-10.04,7.65-21.88,11.63-34.87A99.311,99.311,0,0,0,134.18,358.74Z" style="fill:#f9a213"/><path d="M24.49,417.53c.03.08.06.15.09.23l-.09-.21Z" style="fill:#f9a213"/><path d="M289.17,135.51C178.9479,154.2112,146.7244,276.7772,122.3545,356.209a98.6086,98.6086,0,0,0,11.8253,2.5282c24.0928-79.3063,58.1392-192.32,163.63-210.2172a178.6512,178.6512,0,0,1,32.5179-2.5689,87.6657,87.6657,0,0,0-5.0414-12.9206A177.3341,177.3341,0,0,0,289.17,135.51Z" style="fill:#ffe8a0"/><path d="M157.6714,348.1943l.987-3.8252c.6934-2.57,1.4484-5.1334,2.2776-7.6644a153.5565,153.5565,0,0,1,5.7086-14.8387c1.0428-2.4232,2.2189-4.7794,3.3591-7.1433,1.2217-2.325,2.3891-4.67,3.7032-6.9321,2.5181-4.5831,5.3369-8.9694,8.1933-13.2981a4.83,4.83,0,0,1,8.3561,4.81l-.0607.121c-2.1959,4.4159-4.3361,8.84-6.1541,13.3835-.966,2.2465-1.7776,4.551-2.6438,6.8246-.7818,2.306-1.5992,4.5926-2.2784,6.9188a139.2692,139.2692,0,0,0-3.5193,14.01c-.465,2.351-.8568,4.7077-1.197,7.0816,0,0-.91,6.9115-1.0278,7.6675a8.5183,8.5183,0,0,1-16.8329-2.6265C156.593,352.3586,157.6714,348.1943,157.6714,348.1943Z" style="fill:#fff"/><circle cx="159.539" cy="382.743" r="9.0309" style="fill:#fff"/></g></svg>