<?xml version="1.0" encoding="utf-8"?>
<!-- Generator: Adobe Illustrator 16.0.0, SVG Export Plug-In . SVG Version: 6.00 Build 0)  -->
<!DOCTYPE svg PUBLIC "-//W3C//DTD SVG 1.0//EN" "http://www.w3.org/TR/2001/REC-SVG-20010904/DTD/svg10.dtd">
<svg version="1.0" id="Layer_1" xmlns="http://www.w3.org/2000/svg" xmlns:xlink="http://www.w3.org/1999/xlink" x="0px" y="0px"
	 width="100px" height="100px" viewBox="0 0 100 100" enable-background="new 0 0 100 100" xml:space="preserve">
<path d="M59.616,24.343c7.012,9.277,10.859,20.494,10.859,32.324h-6.667c0-13.015-5.276-24.805-13.809-33.334
	c-2.966,0-5.847,0.287-8.626,0.795l3.912,3.919c7.644,7.644,11.855,17.806,11.855,28.62h-6.666c0-9.03-3.516-17.52-9.902-23.906
	l-6.621-6.615c-2.266,0.827-4.431,1.816-6.455,2.969l8.359,8.359c5.127,5.131,7.952,11.947,7.952,19.193h-6.667
	c0-5.469-2.129-10.612-6.002-14.479l-9.232-9.238C14.561,38.997,10,47.383,10,56.667c0,11.041,8.952,20,20,20h40
	c11.042,0,20-8.952,20-20C90,41.028,77.054,27.937,59.616,24.343z"/>
</svg>
